%TF.GenerationSoftware,KiCad,Pcbnew,(6.0.5)*%
%TF.CreationDate,2023-02-03T09:53:40+08:00*%
%TF.ProjectId,Mini_Receiver,4d696e69-5f52-4656-9365-697665722e6b,rev?*%
%TF.SameCoordinates,Original*%
%TF.FileFunction,Legend,Top*%
%TF.FilePolarity,Positive*%
%FSLAX46Y46*%
G04 Gerber Fmt 4.6, Leading zero omitted, Abs format (unit mm)*
G04 Created by KiCad (PCBNEW (6.0.5)) date 2023-02-03 09:53:40*
%MOMM*%
%LPD*%
G01*
G04 APERTURE LIST*
%ADD10C,0.120000*%
%ADD11C,0.150000*%
G04 APERTURE END LIST*
D10*
X104164333Y-97725666D02*
X104164333Y-97025666D01*
X104331000Y-97025666D01*
X104431000Y-97059000D01*
X104497666Y-97125666D01*
X104531000Y-97192333D01*
X104564333Y-97325666D01*
X104564333Y-97425666D01*
X104531000Y-97559000D01*
X104497666Y-97625666D01*
X104431000Y-97692333D01*
X104331000Y-97725666D01*
X104164333Y-97725666D01*
X105131000Y-97692333D02*
X105064333Y-97725666D01*
X104931000Y-97725666D01*
X104864333Y-97692333D01*
X104831000Y-97625666D01*
X104831000Y-97359000D01*
X104864333Y-97292333D01*
X104931000Y-97259000D01*
X105064333Y-97259000D01*
X105131000Y-97292333D01*
X105164333Y-97359000D01*
X105164333Y-97425666D01*
X104831000Y-97492333D01*
X105431000Y-97692333D02*
X105497666Y-97725666D01*
X105631000Y-97725666D01*
X105697666Y-97692333D01*
X105731000Y-97625666D01*
X105731000Y-97592333D01*
X105697666Y-97525666D01*
X105631000Y-97492333D01*
X105531000Y-97492333D01*
X105464333Y-97459000D01*
X105431000Y-97392333D01*
X105431000Y-97359000D01*
X105464333Y-97292333D01*
X105531000Y-97259000D01*
X105631000Y-97259000D01*
X105697666Y-97292333D01*
X106031000Y-97725666D02*
X106031000Y-97259000D01*
X106031000Y-97025666D02*
X105997666Y-97059000D01*
X106031000Y-97092333D01*
X106064333Y-97059000D01*
X106031000Y-97025666D01*
X106031000Y-97092333D01*
X106664333Y-97259000D02*
X106664333Y-97825666D01*
X106631000Y-97892333D01*
X106597666Y-97925666D01*
X106531000Y-97959000D01*
X106431000Y-97959000D01*
X106364333Y-97925666D01*
X106664333Y-97692333D02*
X106597666Y-97725666D01*
X106464333Y-97725666D01*
X106397666Y-97692333D01*
X106364333Y-97659000D01*
X106331000Y-97592333D01*
X106331000Y-97392333D01*
X106364333Y-97325666D01*
X106397666Y-97292333D01*
X106464333Y-97259000D01*
X106597666Y-97259000D01*
X106664333Y-97292333D01*
X106997666Y-97259000D02*
X106997666Y-97725666D01*
X106997666Y-97325666D02*
X107031000Y-97292333D01*
X107097666Y-97259000D01*
X107197666Y-97259000D01*
X107264333Y-97292333D01*
X107297666Y-97359000D01*
X107297666Y-97725666D01*
X107897666Y-97692333D02*
X107831000Y-97725666D01*
X107697666Y-97725666D01*
X107631000Y-97692333D01*
X107597666Y-97625666D01*
X107597666Y-97359000D01*
X107631000Y-97292333D01*
X107697666Y-97259000D01*
X107831000Y-97259000D01*
X107897666Y-97292333D01*
X107931000Y-97359000D01*
X107931000Y-97425666D01*
X107597666Y-97492333D01*
X108531000Y-97725666D02*
X108531000Y-97025666D01*
X108531000Y-97692333D02*
X108464333Y-97725666D01*
X108331000Y-97725666D01*
X108264333Y-97692333D01*
X108231000Y-97659000D01*
X108197666Y-97592333D01*
X108197666Y-97392333D01*
X108231000Y-97325666D01*
X108264333Y-97292333D01*
X108331000Y-97259000D01*
X108464333Y-97259000D01*
X108531000Y-97292333D01*
X109631000Y-97359000D02*
X109731000Y-97392333D01*
X109764333Y-97425666D01*
X109797666Y-97492333D01*
X109797666Y-97592333D01*
X109764333Y-97659000D01*
X109731000Y-97692333D01*
X109664333Y-97725666D01*
X109397666Y-97725666D01*
X109397666Y-97025666D01*
X109631000Y-97025666D01*
X109697666Y-97059000D01*
X109731000Y-97092333D01*
X109764333Y-97159000D01*
X109764333Y-97225666D01*
X109731000Y-97292333D01*
X109697666Y-97325666D01*
X109631000Y-97359000D01*
X109397666Y-97359000D01*
X110031000Y-97259000D02*
X110197666Y-97725666D01*
X110364333Y-97259000D02*
X110197666Y-97725666D01*
X110131000Y-97892333D01*
X110097666Y-97925666D01*
X110031000Y-97959000D01*
X111164333Y-97725666D02*
X111164333Y-97025666D01*
X111331000Y-97025666D01*
X111431000Y-97059000D01*
X111497666Y-97125666D01*
X111531000Y-97192333D01*
X111564333Y-97325666D01*
X111564333Y-97425666D01*
X111531000Y-97559000D01*
X111497666Y-97625666D01*
X111431000Y-97692333D01*
X111331000Y-97725666D01*
X111164333Y-97725666D01*
X112131000Y-97692333D02*
X112064333Y-97725666D01*
X111931000Y-97725666D01*
X111864333Y-97692333D01*
X111831000Y-97625666D01*
X111831000Y-97359000D01*
X111864333Y-97292333D01*
X111931000Y-97259000D01*
X112064333Y-97259000D01*
X112131000Y-97292333D01*
X112164333Y-97359000D01*
X112164333Y-97425666D01*
X111831000Y-97492333D01*
X112564333Y-97725666D02*
X112497666Y-97692333D01*
X112464333Y-97625666D01*
X112464333Y-97025666D01*
X107021666Y-95882666D02*
X107255000Y-96582666D01*
X107488333Y-95882666D01*
X107988333Y-96549333D02*
X107921666Y-96582666D01*
X107788333Y-96582666D01*
X107721666Y-96549333D01*
X107688333Y-96482666D01*
X107688333Y-96216000D01*
X107721666Y-96149333D01*
X107788333Y-96116000D01*
X107921666Y-96116000D01*
X107988333Y-96149333D01*
X108021666Y-96216000D01*
X108021666Y-96282666D01*
X107688333Y-96349333D01*
X108321666Y-96582666D02*
X108321666Y-96116000D01*
X108321666Y-96249333D02*
X108355000Y-96182666D01*
X108388333Y-96149333D01*
X108455000Y-96116000D01*
X108521666Y-96116000D01*
X108721666Y-96549333D02*
X108788333Y-96582666D01*
X108921666Y-96582666D01*
X108988333Y-96549333D01*
X109021666Y-96482666D01*
X109021666Y-96449333D01*
X108988333Y-96382666D01*
X108921666Y-96349333D01*
X108821666Y-96349333D01*
X108755000Y-96316000D01*
X108721666Y-96249333D01*
X108721666Y-96216000D01*
X108755000Y-96149333D01*
X108821666Y-96116000D01*
X108921666Y-96116000D01*
X108988333Y-96149333D01*
X109321666Y-96582666D02*
X109321666Y-96116000D01*
X109321666Y-95882666D02*
X109288333Y-95916000D01*
X109321666Y-95949333D01*
X109355000Y-95916000D01*
X109321666Y-95882666D01*
X109321666Y-95949333D01*
X109755000Y-96582666D02*
X109688333Y-96549333D01*
X109655000Y-96516000D01*
X109621666Y-96449333D01*
X109621666Y-96249333D01*
X109655000Y-96182666D01*
X109688333Y-96149333D01*
X109755000Y-96116000D01*
X109855000Y-96116000D01*
X109921666Y-96149333D01*
X109955000Y-96182666D01*
X109988333Y-96249333D01*
X109988333Y-96449333D01*
X109955000Y-96516000D01*
X109921666Y-96549333D01*
X109855000Y-96582666D01*
X109755000Y-96582666D01*
X110288333Y-96116000D02*
X110288333Y-96582666D01*
X110288333Y-96182666D02*
X110321666Y-96149333D01*
X110388333Y-96116000D01*
X110488333Y-96116000D01*
X110555000Y-96149333D01*
X110588333Y-96216000D01*
X110588333Y-96582666D01*
X110921666Y-96516000D02*
X110955000Y-96549333D01*
X110921666Y-96582666D01*
X110888333Y-96549333D01*
X110921666Y-96516000D01*
X110921666Y-96582666D01*
X110921666Y-96149333D02*
X110955000Y-96182666D01*
X110921666Y-96216000D01*
X110888333Y-96182666D01*
X110921666Y-96149333D01*
X110921666Y-96216000D01*
X111388333Y-95882666D02*
X111455000Y-95882666D01*
X111521666Y-95916000D01*
X111555000Y-95949333D01*
X111588333Y-96016000D01*
X111621666Y-96149333D01*
X111621666Y-96316000D01*
X111588333Y-96449333D01*
X111555000Y-96516000D01*
X111521666Y-96549333D01*
X111455000Y-96582666D01*
X111388333Y-96582666D01*
X111321666Y-96549333D01*
X111288333Y-96516000D01*
X111255000Y-96449333D01*
X111221666Y-96316000D01*
X111221666Y-96149333D01*
X111255000Y-96016000D01*
X111288333Y-95949333D01*
X111321666Y-95916000D01*
X111388333Y-95882666D01*
X111921666Y-96516000D02*
X111955000Y-96549333D01*
X111921666Y-96582666D01*
X111888333Y-96549333D01*
X111921666Y-96516000D01*
X111921666Y-96582666D01*
X112621666Y-96582666D02*
X112221666Y-96582666D01*
X112421666Y-96582666D02*
X112421666Y-95882666D01*
X112355000Y-95982666D01*
X112288333Y-96049333D01*
X112221666Y-96082666D01*
D11*
X103037285Y-112720380D02*
X103037285Y-111720380D01*
X103370619Y-112434666D01*
X103703952Y-111720380D01*
X103703952Y-112720380D01*
X104180142Y-112720380D02*
X104180142Y-112053714D01*
X104180142Y-111720380D02*
X104132523Y-111768000D01*
X104180142Y-111815619D01*
X104227761Y-111768000D01*
X104180142Y-111720380D01*
X104180142Y-111815619D01*
X104656333Y-112053714D02*
X104656333Y-112720380D01*
X104656333Y-112148952D02*
X104703952Y-112101333D01*
X104799190Y-112053714D01*
X104942047Y-112053714D01*
X105037285Y-112101333D01*
X105084904Y-112196571D01*
X105084904Y-112720380D01*
X105561095Y-112720380D02*
X105561095Y-112053714D01*
X105561095Y-111720380D02*
X105513476Y-111768000D01*
X105561095Y-111815619D01*
X105608714Y-111768000D01*
X105561095Y-111720380D01*
X105561095Y-111815619D01*
X107370619Y-112720380D02*
X107037285Y-112244190D01*
X106799190Y-112720380D02*
X106799190Y-111720380D01*
X107180142Y-111720380D01*
X107275380Y-111768000D01*
X107323000Y-111815619D01*
X107370619Y-111910857D01*
X107370619Y-112053714D01*
X107323000Y-112148952D01*
X107275380Y-112196571D01*
X107180142Y-112244190D01*
X106799190Y-112244190D01*
X108180142Y-112672761D02*
X108084904Y-112720380D01*
X107894428Y-112720380D01*
X107799190Y-112672761D01*
X107751571Y-112577523D01*
X107751571Y-112196571D01*
X107799190Y-112101333D01*
X107894428Y-112053714D01*
X108084904Y-112053714D01*
X108180142Y-112101333D01*
X108227761Y-112196571D01*
X108227761Y-112291809D01*
X107751571Y-112387047D01*
X109084904Y-112672761D02*
X108989666Y-112720380D01*
X108799190Y-112720380D01*
X108703952Y-112672761D01*
X108656333Y-112625142D01*
X108608714Y-112529904D01*
X108608714Y-112244190D01*
X108656333Y-112148952D01*
X108703952Y-112101333D01*
X108799190Y-112053714D01*
X108989666Y-112053714D01*
X109084904Y-112101333D01*
X109894428Y-112672761D02*
X109799190Y-112720380D01*
X109608714Y-112720380D01*
X109513476Y-112672761D01*
X109465857Y-112577523D01*
X109465857Y-112196571D01*
X109513476Y-112101333D01*
X109608714Y-112053714D01*
X109799190Y-112053714D01*
X109894428Y-112101333D01*
X109942047Y-112196571D01*
X109942047Y-112291809D01*
X109465857Y-112387047D01*
X110370619Y-112720380D02*
X110370619Y-112053714D01*
X110370619Y-111720380D02*
X110323000Y-111768000D01*
X110370619Y-111815619D01*
X110418238Y-111768000D01*
X110370619Y-111720380D01*
X110370619Y-111815619D01*
X110751571Y-112053714D02*
X110989666Y-112720380D01*
X111227761Y-112053714D01*
X111989666Y-112672761D02*
X111894428Y-112720380D01*
X111703952Y-112720380D01*
X111608714Y-112672761D01*
X111561095Y-112577523D01*
X111561095Y-112196571D01*
X111608714Y-112101333D01*
X111703952Y-112053714D01*
X111894428Y-112053714D01*
X111989666Y-112101333D01*
X112037285Y-112196571D01*
X112037285Y-112291809D01*
X111561095Y-112387047D01*
X112465857Y-112720380D02*
X112465857Y-112053714D01*
X112465857Y-112244190D02*
X112513476Y-112148952D01*
X112561095Y-112101333D01*
X112656333Y-112053714D01*
X112751571Y-112053714D01*
G36*
X116586000Y-108204000D02*
G01*
X116078000Y-108458000D01*
X116078000Y-107950000D01*
X116586000Y-108204000D01*
G37*
X116586000Y-108204000D02*
X116078000Y-108458000D01*
X116078000Y-107950000D01*
X116586000Y-108204000D01*
X128873000Y-118491000D02*
G75*
G03*
X128873000Y-118491000I-2000000J0D01*
G01*
D10*
%TO.C,SW1*%
X125857000Y-101473000D02*
X126238000Y-101473000D01*
X128905000Y-101473000D02*
X128524000Y-101473000D01*
X128524000Y-97155000D02*
X128905000Y-97155000D01*
X126238000Y-97155000D02*
X125857000Y-97155000D01*
X125857000Y-97155000D02*
X125857000Y-101473000D01*
X128905000Y-97155000D02*
X128905000Y-101473000D01*
%TO.C,J3*%
X96520000Y-118050000D02*
X124520000Y-118050000D01*
X124520000Y-120710000D02*
X124520000Y-118050000D01*
X96520000Y-120710000D02*
X124520000Y-120710000D01*
X95250000Y-120710000D02*
X93920000Y-120710000D01*
X93920000Y-120710000D02*
X93920000Y-119380000D01*
X96520000Y-120710000D02*
X96520000Y-118050000D01*
%TO.C,J2*%
X96520000Y-115510000D02*
X124520000Y-115510000D01*
X124520000Y-118170000D02*
X124520000Y-115510000D01*
X96520000Y-118170000D02*
X124520000Y-118170000D01*
X95250000Y-118170000D02*
X93920000Y-118170000D01*
X93920000Y-118170000D02*
X93920000Y-116840000D01*
X96520000Y-118170000D02*
X96520000Y-115510000D01*
%TO.C,J1*%
X96520000Y-112970000D02*
X124520000Y-112970000D01*
X124520000Y-115630000D02*
X124520000Y-112970000D01*
X96520000Y-115630000D02*
X124520000Y-115630000D01*
X95250000Y-115630000D02*
X93920000Y-115630000D01*
X93920000Y-115630000D02*
X93920000Y-114300000D01*
X96520000Y-115630000D02*
X96520000Y-112970000D01*
%TO.C,U2*%
X120269000Y-109057000D02*
X118594000Y-109057000D01*
X120269000Y-109057000D02*
X120919000Y-109057000D01*
X120269000Y-112177000D02*
X120919000Y-112177000D01*
X120269000Y-112177000D02*
X119619000Y-112177000D01*
%TO.C,R1*%
X117094724Y-96632500D02*
X116585276Y-96632500D01*
X117094724Y-97677500D02*
X116585276Y-97677500D01*
%TO.C,C4*%
X126109000Y-104794267D02*
X126109000Y-104501733D01*
X127129000Y-104794267D02*
X127129000Y-104501733D01*
%TO.C,C2*%
X123573000Y-110763267D02*
X123573000Y-110470733D01*
X122553000Y-110763267D02*
X122553000Y-110470733D01*
%TO.C,C1*%
X125526748Y-111977000D02*
X126949252Y-111977000D01*
X125526748Y-109257000D02*
X126949252Y-109257000D01*
%TO.C,C3*%
X117985000Y-110763267D02*
X117985000Y-110470733D01*
X116965000Y-110763267D02*
X116965000Y-110470733D01*
%TO.C,D1*%
X121069000Y-96420000D02*
X118609000Y-96420000D01*
X118609000Y-96420000D02*
X118609000Y-97890000D01*
X118609000Y-97890000D02*
X121069000Y-97890000D01*
%TO.C,U1*%
X123752000Y-99641000D02*
X123452000Y-99641000D01*
X123752000Y-99941000D02*
X123752000Y-99641000D01*
X116532000Y-106861000D02*
X116832000Y-106861000D01*
X116832000Y-106861000D02*
X116832000Y-108176000D01*
X116532000Y-99941000D02*
X116532000Y-99641000D01*
X116532000Y-99641000D02*
X116832000Y-99641000D01*
X123752000Y-106561000D02*
X123752000Y-106861000D01*
X116532000Y-106561000D02*
X116532000Y-106861000D01*
X123752000Y-106861000D02*
X123452000Y-106861000D01*
%TO.C,U3*%
X101511000Y-111480600D02*
X112814000Y-111480600D01*
X112814000Y-111480600D02*
X112814000Y-109194600D01*
X94018000Y-96748600D02*
X100622000Y-96748600D01*
X94018000Y-111480600D02*
X94018000Y-96748600D01*
X112814000Y-96748600D02*
X112814000Y-99034600D01*
X94018000Y-111480600D02*
X98082000Y-111480600D01*
X112814000Y-96748600D02*
X104051000Y-96748600D01*
%TD*%
M02*
