%TF.GenerationSoftware,KiCad,Pcbnew,(6.0.5)*%
%TF.CreationDate,2023-02-03T09:53:40+08:00*%
%TF.ProjectId,Mini_Receiver,4d696e69-5f52-4656-9365-697665722e6b,rev?*%
%TF.SameCoordinates,Original*%
%TF.FileFunction,Copper,L1,Top*%
%TF.FilePolarity,Positive*%
%FSLAX46Y46*%
G04 Gerber Fmt 4.6, Leading zero omitted, Abs format (unit mm)*
G04 Created by KiCad (PCBNEW (6.0.5)) date 2023-02-03 09:53:40*
%MOMM*%
%LPD*%
G01*
G04 APERTURE LIST*
G04 Aperture macros list*
%AMRoundRect*
0 Rectangle with rounded corners*
0 $1 Rounding radius*
0 $2 $3 $4 $5 $6 $7 $8 $9 X,Y pos of 4 corners*
0 Add a 4 corners polygon primitive as box body*
4,1,4,$2,$3,$4,$5,$6,$7,$8,$9,$2,$3,0*
0 Add four circle primitives for the rounded corners*
1,1,$1+$1,$2,$3*
1,1,$1+$1,$4,$5*
1,1,$1+$1,$6,$7*
1,1,$1+$1,$8,$9*
0 Add four rect primitives between the rounded corners*
20,1,$1+$1,$2,$3,$4,$5,0*
20,1,$1+$1,$4,$5,$6,$7,0*
20,1,$1+$1,$6,$7,$8,$9,0*
20,1,$1+$1,$8,$9,$2,$3,0*%
G04 Aperture macros list end*
%TA.AperFunction,SMDPad,CuDef*%
%ADD10RoundRect,0.450000X-0.550000X0.450000X-0.550000X-0.450000X0.550000X-0.450000X0.550000X0.450000X0*%
%TD*%
%TA.AperFunction,ComponentPad*%
%ADD11R,1.700000X1.700000*%
%TD*%
%TA.AperFunction,ComponentPad*%
%ADD12O,1.700000X1.700000*%
%TD*%
%TA.AperFunction,SMDPad,CuDef*%
%ADD13RoundRect,0.150000X-0.587500X-0.150000X0.587500X-0.150000X0.587500X0.150000X-0.587500X0.150000X0*%
%TD*%
%TA.AperFunction,SMDPad,CuDef*%
%ADD14RoundRect,0.237500X0.250000X0.237500X-0.250000X0.237500X-0.250000X-0.237500X0.250000X-0.237500X0*%
%TD*%
%TA.AperFunction,SMDPad,CuDef*%
%ADD15RoundRect,0.237500X0.237500X-0.300000X0.237500X0.300000X-0.237500X0.300000X-0.237500X-0.300000X0*%
%TD*%
%TA.AperFunction,SMDPad,CuDef*%
%ADD16RoundRect,0.250000X-0.325000X-1.100000X0.325000X-1.100000X0.325000X1.100000X-0.325000X1.100000X0*%
%TD*%
%TA.AperFunction,SMDPad,CuDef*%
%ADD17RoundRect,0.237500X-0.287500X-0.237500X0.287500X-0.237500X0.287500X0.237500X-0.287500X0.237500X0*%
%TD*%
%TA.AperFunction,SMDPad,CuDef*%
%ADD18RoundRect,0.125000X0.125000X-0.625000X0.125000X0.625000X-0.125000X0.625000X-0.125000X-0.625000X0*%
%TD*%
%TA.AperFunction,SMDPad,CuDef*%
%ADD19RoundRect,0.125000X0.625000X-0.125000X0.625000X0.125000X-0.625000X0.125000X-0.625000X-0.125000X0*%
%TD*%
%TA.AperFunction,SMDPad,CuDef*%
%ADD20RoundRect,0.250000X0.750000X-0.250000X0.750000X0.250000X-0.750000X0.250000X-0.750000X-0.250000X0*%
%TD*%
%TA.AperFunction,SMDPad,CuDef*%
%ADD21RoundRect,0.500000X1.000000X-0.500000X1.000000X0.500000X-1.000000X0.500000X-1.000000X-0.500000X0*%
%TD*%
%TA.AperFunction,ViaPad*%
%ADD22C,1.000000*%
%TD*%
%TA.AperFunction,ViaPad*%
%ADD23C,0.600000*%
%TD*%
%TA.AperFunction,Conductor*%
%ADD24C,0.850000*%
%TD*%
%TA.AperFunction,Conductor*%
%ADD25C,0.500000*%
%TD*%
%TA.AperFunction,Conductor*%
%ADD26C,0.300000*%
%TD*%
%TA.AperFunction,Conductor*%
%ADD27C,2.000000*%
%TD*%
G04 APERTURE END LIST*
D10*
%TO.P,SW1,1,A*%
%TO.N,/KEY*%
X127381000Y-97014000D03*
%TO.P,SW1,2,B*%
%TO.N,GND*%
X127381000Y-101614000D03*
%TD*%
D11*
%TO.P,J3,1,Pin_1*%
%TO.N,GND*%
X95250000Y-119380000D03*
D12*
%TO.P,J3,2,Pin_2*%
X97790000Y-119380000D03*
%TO.P,J3,3,Pin_3*%
X100330000Y-119380000D03*
%TO.P,J3,4,Pin_4*%
X102870000Y-119380000D03*
%TO.P,J3,5,Pin_5*%
X105410000Y-119380000D03*
%TO.P,J3,6,Pin_6*%
X107950000Y-119380000D03*
%TO.P,J3,7,Pin_7*%
X110490000Y-119380000D03*
%TO.P,J3,8,Pin_8*%
X113030000Y-119380000D03*
%TO.P,J3,9,Pin_9*%
X115570000Y-119380000D03*
%TO.P,J3,10,Pin_10*%
X118110000Y-119380000D03*
%TO.P,J3,11,Pin_11*%
X120650000Y-119380000D03*
%TO.P,J3,12,Pin_12*%
X123190000Y-119380000D03*
%TD*%
D11*
%TO.P,J2,1,Pin_1*%
%TO.N,VCC*%
X95250000Y-116840000D03*
D12*
%TO.P,J2,2,Pin_2*%
X97790000Y-116840000D03*
%TO.P,J2,3,Pin_3*%
X100330000Y-116840000D03*
%TO.P,J2,4,Pin_4*%
X102870000Y-116840000D03*
%TO.P,J2,5,Pin_5*%
X105410000Y-116840000D03*
%TO.P,J2,6,Pin_6*%
X107950000Y-116840000D03*
%TO.P,J2,7,Pin_7*%
X110490000Y-116840000D03*
%TO.P,J2,8,Pin_8*%
X113030000Y-116840000D03*
%TO.P,J2,9,Pin_9*%
X115570000Y-116840000D03*
%TO.P,J2,10,Pin_10*%
X118110000Y-116840000D03*
%TO.P,J2,11,Pin_11*%
X120650000Y-116840000D03*
%TO.P,J2,12,Pin_12*%
X123190000Y-116840000D03*
%TD*%
D11*
%TO.P,J1,1,Pin_1*%
%TO.N,/PWM8*%
X95250000Y-114300000D03*
D12*
%TO.P,J1,2,Pin_2*%
%TO.N,/PWM7*%
X97790000Y-114300000D03*
%TO.P,J1,3,Pin_3*%
%TO.N,/PWM6*%
X100330000Y-114300000D03*
%TO.P,J1,4,Pin_4*%
%TO.N,/PWM5*%
X102870000Y-114300000D03*
%TO.P,J1,5,Pin_5*%
%TO.N,/PWM1*%
X105410000Y-114300000D03*
%TO.P,J1,6,Pin_6*%
%TO.N,/PWM2*%
X107950000Y-114300000D03*
%TO.P,J1,7,Pin_7*%
%TO.N,/PWM3*%
X110490000Y-114300000D03*
%TO.P,J1,8,Pin_8*%
%TO.N,/PWM4*%
X113030000Y-114300000D03*
%TO.P,J1,9,Pin_9*%
%TO.N,/CH10*%
X115570000Y-114300000D03*
%TO.P,J1,10,Pin_10*%
%TO.N,/CH11*%
X118110000Y-114300000D03*
%TO.P,J1,11,Pin_11*%
%TO.N,/RXD*%
X120650000Y-114300000D03*
%TO.P,J1,12,Pin_12*%
%TO.N,/TXD*%
X123190000Y-114300000D03*
%TD*%
D13*
%TO.P,U2,1,GND*%
%TO.N,GND*%
X119331500Y-109667000D03*
%TO.P,U2,2,VO*%
%TO.N,+3V3*%
X119331500Y-111567000D03*
%TO.P,U2,3,VI*%
%TO.N,VCC*%
X121206500Y-110617000D03*
%TD*%
D14*
%TO.P,R1,2*%
%TO.N,/LED*%
X115927500Y-97155000D03*
%TO.P,R1,1*%
%TO.N,Net-(D1-Pad1)*%
X117752500Y-97155000D03*
%TD*%
D15*
%TO.P,C4,1*%
%TO.N,+3V3*%
X126619000Y-105510500D03*
%TO.P,C4,2*%
%TO.N,GND*%
X126619000Y-103785500D03*
%TD*%
%TO.P,C2,1*%
%TO.N,VCC*%
X123063000Y-111479500D03*
%TO.P,C2,2*%
%TO.N,GND*%
X123063000Y-109754500D03*
%TD*%
D16*
%TO.P,C1,1*%
%TO.N,VCC*%
X124763000Y-110617000D03*
%TO.P,C1,2*%
%TO.N,GND*%
X127713000Y-110617000D03*
%TD*%
D15*
%TO.P,C3,1*%
%TO.N,+3V3*%
X117475000Y-111479500D03*
%TO.P,C3,2*%
%TO.N,GND*%
X117475000Y-109754500D03*
%TD*%
D17*
%TO.P,D1,2,A*%
%TO.N,+3V3*%
X121144000Y-97155000D03*
%TO.P,D1,1,K*%
%TO.N,Net-(D1-Pad1)*%
X119394000Y-97155000D03*
%TD*%
D18*
%TO.P,U1,1,P1.0/ADC0/RXD2/PWM1P*%
%TO.N,/PWM1*%
X117342000Y-107426000D03*
%TO.P,U1,2,P1.1/ADC1/TXD2/PWM1N*%
%TO.N,unconnected-(U1-Pad2)*%
X118142000Y-107426000D03*
%TO.P,U1,3,P1.2/ADC2/SS/T2/PWM2P*%
%TO.N,/PWM2*%
X118942000Y-107426000D03*
%TO.P,U1,4,P1.3/ADC3/MOSI/PWM2N*%
%TO.N,unconnected-(U1-Pad4)*%
X119742000Y-107426000D03*
%TO.P,U1,5,P1.4/ADC4/MISO/PWM3P*%
%TO.N,/PWM3*%
X120542000Y-107426000D03*
%TO.P,U1,6,P1.5/ADC5/SCLK/PWM3N*%
%TO.N,unconnected-(U1-Pad6)*%
X121342000Y-107426000D03*
%TO.P,U1,7,P1.6/ADC6/XO/PWM4P*%
%TO.N,/PWM4*%
X122142000Y-107426000D03*
%TO.P,U1,8,P1.7/ADC7/XI/PWM4N*%
%TO.N,unconnected-(U1-Pad8)*%
X122942000Y-107426000D03*
D19*
%TO.P,U1,9,P5.4/MCLKO*%
%TO.N,unconnected-(U1-Pad9)*%
X124317000Y-106051000D03*
%TO.P,U1,10,VCC*%
%TO.N,+3V3*%
X124317000Y-105251000D03*
%TO.P,U1,11,ADC_VREF*%
X124317000Y-104451000D03*
%TO.P,U1,12,GND*%
%TO.N,GND*%
X124317000Y-103651000D03*
%TO.P,U1,13,P3.0/RXD*%
%TO.N,/RXD*%
X124317000Y-102851000D03*
%TO.P,U1,14,P3.1/TXD*%
%TO.N,/TXD*%
X124317000Y-102051000D03*
%TO.P,U1,15,P3.2/INT0*%
%TO.N,/IRQ*%
X124317000Y-101251000D03*
%TO.P,U1,16,P3.3/INT1*%
%TO.N,/KEY*%
X124317000Y-100451000D03*
D18*
%TO.P,U1,17,P3.4/T0/T1CLKO/CMPO*%
%TO.N,unconnected-(U1-Pad17)*%
X122942000Y-99076000D03*
%TO.P,U1,18,P3.5/T1/T0CLKO*%
%TO.N,unconnected-(U1-Pad18)*%
X122142000Y-99076000D03*
%TO.P,U1,19,P3.6/INT2/CMP-*%
%TO.N,/CH11*%
X121342000Y-99076000D03*
%TO.P,U1,20,P3.7/INT3/CMP+*%
%TO.N,/CH10*%
X120542000Y-99076000D03*
%TO.P,U1,21,P2.0/PWM5*%
%TO.N,/PWM5*%
X119742000Y-99076000D03*
%TO.P,U1,22,P2.1/PWM6*%
%TO.N,/PWM6*%
X118942000Y-99076000D03*
%TO.P,U1,23,P2.2/PWM7*%
%TO.N,/PWM7*%
X118142000Y-99076000D03*
%TO.P,U1,24,P2.3/PWM8*%
%TO.N,/PWM8*%
X117342000Y-99076000D03*
D19*
%TO.P,U1,25,P2.4/SDA__2*%
%TO.N,/LED*%
X115967000Y-100451000D03*
%TO.P,U1,26,P2.5/SCL2*%
%TO.N,unconnected-(U1-Pad26)*%
X115967000Y-101251000D03*
%TO.P,U1,27,P2.6*%
%TO.N,unconnected-(U1-Pad27)*%
X115967000Y-102051000D03*
%TO.P,U1,28,P2.7*%
%TO.N,/MISO*%
X115967000Y-102851000D03*
%TO.P,U1,29,P0.0/ADC8*%
%TO.N,/MOSI*%
X115967000Y-103651000D03*
%TO.P,U1,30,P0.1/ADC9*%
%TO.N,/SCK*%
X115967000Y-104451000D03*
%TO.P,U1,31,P0.2/ADC10*%
%TO.N,/CSN*%
X115967000Y-105251000D03*
%TO.P,U1,32,P0.3/ADC11*%
%TO.N,/CE*%
X115967000Y-106051000D03*
%TD*%
D20*
%TO.P,U3,1,VCC*%
%TO.N,+3V3*%
X112814000Y-108559600D03*
%TO.P,U3,2,CE*%
%TO.N,/CE*%
X112814000Y-107289600D03*
%TO.P,U3,3,CSN*%
%TO.N,/CSN*%
X112814000Y-106019600D03*
%TO.P,U3,4,SCK*%
%TO.N,/SCK*%
X112814000Y-104749600D03*
%TO.P,U3,5,MOSI*%
%TO.N,/MOSI*%
X112814000Y-103479600D03*
%TO.P,U3,6,MISO*%
%TO.N,/MISO*%
X112814000Y-102209600D03*
%TO.P,U3,7,IRQ*%
%TO.N,/IRQ*%
X112814000Y-100939600D03*
%TO.P,U3,8,GND*%
%TO.N,GND*%
X112814000Y-99669600D03*
D21*
%TO.P,U3,MP*%
%TO.N,N/C*%
X102314000Y-96748600D03*
X99814000Y-111480600D03*
%TD*%
D22*
%TO.N,GND*%
X127381000Y-99695000D03*
X112903000Y-98298000D03*
D23*
%TO.N,+3V3*%
X127508000Y-105537000D03*
X124079000Y-98552000D03*
%TO.N,/IRQ*%
X114554000Y-99314000D03*
X122809000Y-101219000D03*
%TO.N,/CH11*%
X121412000Y-101219000D03*
%TO.N,/CH10*%
X120523000Y-101600000D03*
%TO.N,/PWM4*%
X122047000Y-108458000D03*
%TO.N,/PWM3*%
X120523000Y-108458000D03*
%TO.N,/PWM2*%
X118872000Y-108458000D03*
%TO.N,/PWM1*%
X116586000Y-107442000D03*
%TO.N,/PWM5*%
X118745000Y-102108000D03*
%TO.N,/PWM6*%
X118569297Y-101093822D03*
%TO.N,/PWM7*%
X118197503Y-100330000D03*
%TO.N,/PWM8*%
X117348000Y-100330000D03*
%TO.N,/TXD*%
X125349000Y-102001997D03*
%TO.N,/RXD*%
X125349000Y-102851500D03*
D22*
%TO.N,+3V3*%
X124079000Y-107315000D03*
X116586000Y-111379000D03*
%TD*%
D24*
%TO.N,GND*%
X128482511Y-102715511D02*
X127381000Y-101614000D01*
X127889000Y-107442000D02*
X128482511Y-106848489D01*
X128482511Y-106848489D02*
X128482511Y-102715511D01*
X127889000Y-110441000D02*
X127889000Y-107442000D01*
X127713000Y-110617000D02*
X127889000Y-110441000D01*
X127713000Y-115238000D02*
X127713000Y-110617000D01*
X123571000Y-119380000D02*
X127713000Y-115238000D01*
X123190000Y-119380000D02*
X123571000Y-119380000D01*
%TO.N,VCC*%
X124841000Y-110695000D02*
X124763000Y-110617000D01*
X124841000Y-115189000D02*
X124841000Y-110695000D01*
X123190000Y-116840000D02*
X124841000Y-115189000D01*
%TO.N,GND*%
X117562500Y-109667000D02*
X117475000Y-109754500D01*
X119331500Y-109667000D02*
X117562500Y-109667000D01*
X119481020Y-109517480D02*
X119331500Y-109667000D01*
X122825980Y-109517480D02*
X119481020Y-109517480D01*
X123063000Y-109754500D02*
X122825980Y-109517480D01*
D25*
%TO.N,+3V3*%
X126619000Y-106616500D02*
X126619000Y-105510500D01*
X125920500Y-107315000D02*
X126619000Y-106616500D01*
X124079000Y-107315000D02*
X125920500Y-107315000D01*
D24*
%TO.N,GND*%
X125585511Y-108489511D02*
X127713000Y-110617000D01*
X123920489Y-108489511D02*
X125585511Y-108489511D01*
X123063000Y-109754500D02*
X123063000Y-109347000D01*
X123063000Y-109347000D02*
X123920489Y-108489511D01*
D26*
%TO.N,/PWM2*%
X118942000Y-108388000D02*
X118942000Y-107426000D01*
X118872000Y-108458000D02*
X118942000Y-108388000D01*
%TO.N,/PWM3*%
X120542000Y-108439000D02*
X120542000Y-107426000D01*
X120523000Y-108458000D02*
X120542000Y-108439000D01*
%TO.N,/PWM4*%
X122047000Y-108458000D02*
X122142000Y-108363000D01*
X122142000Y-108363000D02*
X122142000Y-107426000D01*
D24*
%TO.N,GND*%
X112903000Y-99580600D02*
X112814000Y-99669600D01*
X112903000Y-98298000D02*
X112903000Y-99580600D01*
X127381000Y-101614000D02*
X127381000Y-99695000D01*
D26*
%TO.N,+3V3*%
X126645500Y-105537000D02*
X126619000Y-105510500D01*
X127508000Y-105537000D02*
X126645500Y-105537000D01*
X122682000Y-97155000D02*
X121144000Y-97155000D01*
X124079000Y-98552000D02*
X122682000Y-97155000D01*
D25*
%TO.N,/KEY*%
X124317000Y-100078000D02*
X127381000Y-97014000D01*
X124317000Y-100451000D02*
X124317000Y-100078000D01*
%TO.N,GND*%
X127381000Y-103023500D02*
X126619000Y-103785500D01*
X127381000Y-101614000D02*
X127381000Y-103023500D01*
D26*
%TO.N,/LED*%
X115967000Y-97194500D02*
X115927500Y-97155000D01*
X115967000Y-100451000D02*
X115967000Y-97194500D01*
%TO.N,Net-(D1-Pad1)*%
X117752500Y-97155000D02*
X119394000Y-97155000D01*
%TO.N,/IRQ*%
X114198400Y-100939600D02*
X112814000Y-100939600D01*
X114554000Y-99314000D02*
X114554000Y-100584000D01*
X114554000Y-100584000D02*
X114198400Y-100939600D01*
X124285000Y-101219000D02*
X124317000Y-101251000D01*
X122809000Y-101219000D02*
X124285000Y-101219000D01*
%TO.N,/CH11*%
X121342000Y-101149000D02*
X121412000Y-101219000D01*
X121342000Y-99076000D02*
X121342000Y-101149000D01*
%TO.N,/CH10*%
X120542000Y-101581000D02*
X120523000Y-101600000D01*
X120542000Y-99076000D02*
X120542000Y-101581000D01*
D27*
%TO.N,VCC*%
X95250000Y-116840000D02*
X123190000Y-116840000D01*
%TO.N,GND*%
X95250000Y-119380000D02*
X123190000Y-119380000D01*
D26*
%TO.N,/PWM1*%
X116602000Y-107426000D02*
X117342000Y-107426000D01*
X116586000Y-107442000D02*
X116602000Y-107426000D01*
%TO.N,/PWM5*%
X119742000Y-101111000D02*
X118745000Y-102108000D01*
X119742000Y-99076000D02*
X119742000Y-101111000D01*
%TO.N,/PWM6*%
X118942000Y-100721119D02*
X118569297Y-101093822D01*
X118942000Y-99076000D02*
X118942000Y-100721119D01*
%TO.N,/PWM7*%
X118142000Y-100274497D02*
X118197503Y-100330000D01*
X118142000Y-99076000D02*
X118142000Y-100274497D01*
%TO.N,/PWM8*%
X117342000Y-100324000D02*
X117348000Y-100330000D01*
X117342000Y-99076000D02*
X117342000Y-100324000D01*
%TO.N,/TXD*%
X125299997Y-102051000D02*
X124317000Y-102051000D01*
X125349000Y-102001997D02*
X125299997Y-102051000D01*
%TO.N,/RXD*%
X125348500Y-102851000D02*
X124317000Y-102851000D01*
X125349000Y-102851500D02*
X125348500Y-102851000D01*
D25*
%TO.N,GND*%
X126484500Y-103651000D02*
X126619000Y-103785500D01*
X124317000Y-103651000D02*
X126484500Y-103651000D01*
%TO.N,+3V3*%
X126359500Y-105251000D02*
X126619000Y-105510500D01*
X124317000Y-105251000D02*
X126359500Y-105251000D01*
X125559500Y-104451000D02*
X126619000Y-105510500D01*
X124317000Y-104451000D02*
X125559500Y-104451000D01*
D24*
X116586000Y-111379000D02*
X113766600Y-108559600D01*
X113766600Y-108559600D02*
X112814000Y-108559600D01*
X116686500Y-111479500D02*
X116586000Y-111379000D01*
X117475000Y-111479500D02*
X116686500Y-111479500D01*
X117562500Y-111567000D02*
X117475000Y-111479500D01*
X119331500Y-111567000D02*
X117562500Y-111567000D01*
%TO.N,VCC*%
X121666000Y-110617000D02*
X121206500Y-110617000D01*
X122528500Y-111479500D02*
X121666000Y-110617000D01*
X123063000Y-111479500D02*
X122528500Y-111479500D01*
X123900500Y-111479500D02*
X124763000Y-110617000D01*
X123063000Y-111479500D02*
X123900500Y-111479500D01*
D26*
%TO.N,/CE*%
X115183000Y-106051000D02*
X115967000Y-106051000D01*
X113944400Y-107289600D02*
X115183000Y-106051000D01*
X112814000Y-107289600D02*
X113944400Y-107289600D01*
%TO.N,/CSN*%
X114713000Y-105251000D02*
X115967000Y-105251000D01*
X113944400Y-106019600D02*
X114713000Y-105251000D01*
X112814000Y-106019600D02*
X113944400Y-106019600D01*
%TO.N,/SCK*%
X114497000Y-104451000D02*
X115967000Y-104451000D01*
X114198400Y-104749600D02*
X114497000Y-104451000D01*
X112814000Y-104749600D02*
X114198400Y-104749600D01*
%TO.N,/MOSI*%
X114573000Y-103651000D02*
X115967000Y-103651000D01*
X114401600Y-103479600D02*
X114573000Y-103651000D01*
X112814000Y-103479600D02*
X114401600Y-103479600D01*
%TO.N,/MISO*%
X114020600Y-102209600D02*
X114662000Y-102851000D01*
X112814000Y-102209600D02*
X114020600Y-102209600D01*
X114662000Y-102851000D02*
X115967000Y-102851000D01*
%TD*%
%TA.AperFunction,Conductor*%
%TO.N,GND*%
G36*
X128184278Y-101588736D02*
G01*
X128273185Y-101611959D01*
X128280323Y-101617365D01*
X128281861Y-101622032D01*
X128298542Y-101777615D01*
X128346157Y-101913309D01*
X128416326Y-102029115D01*
X128501531Y-102133066D01*
X128501642Y-102133186D01*
X128501643Y-102133187D01*
X128594185Y-102233121D01*
X128594346Y-102233299D01*
X128686613Y-102337131D01*
X128687313Y-102338000D01*
X128771636Y-102453385D01*
X128772601Y-102454948D01*
X128839754Y-102585938D01*
X128841838Y-102590004D01*
X128842668Y-102592102D01*
X128889652Y-102755105D01*
X128890066Y-102757330D01*
X128906404Y-102945024D01*
X128903707Y-102953564D01*
X128895763Y-102957695D01*
X128894748Y-102957739D01*
X128067973Y-102957739D01*
X128059700Y-102954312D01*
X128056346Y-102947342D01*
X128056087Y-102945024D01*
X128041565Y-102815394D01*
X128016488Y-102757330D01*
X127996912Y-102712003D01*
X127996911Y-102712002D01*
X127996495Y-102711038D01*
X127926453Y-102638173D01*
X127835590Y-102590303D01*
X127728057Y-102560931D01*
X127608006Y-102543560D01*
X127479587Y-102531693D01*
X127346953Y-102518835D01*
X127214254Y-102498487D01*
X127085643Y-102464155D01*
X127062802Y-101295802D01*
X128184278Y-101588736D01*
G37*
%TD.AperFunction*%
%TD*%
%TA.AperFunction,Conductor*%
%TO.N,GND*%
G36*
X128310401Y-109489427D02*
G01*
X128313827Y-109497870D01*
X128311849Y-109633979D01*
X128311839Y-109634311D01*
X128306211Y-109765480D01*
X128306196Y-109765764D01*
X128298299Y-109883080D01*
X128298286Y-109883247D01*
X128289333Y-109989341D01*
X128280549Y-110086751D01*
X128273161Y-110178031D01*
X128268391Y-110265798D01*
X128267462Y-110352673D01*
X128271594Y-110441276D01*
X128271618Y-110441486D01*
X128281134Y-110526406D01*
X128278650Y-110535009D01*
X128275102Y-110537984D01*
X127626237Y-110891095D01*
X127295268Y-110221875D01*
X127338863Y-110170367D01*
X127374241Y-110116642D01*
X127402257Y-110059691D01*
X127423765Y-109998505D01*
X127439619Y-109932076D01*
X127450675Y-109859396D01*
X127457786Y-109779457D01*
X127458433Y-109765264D01*
X127458701Y-109759402D01*
X127461805Y-109691306D01*
X127461808Y-109691250D01*
X127463594Y-109593767D01*
X127463956Y-109497656D01*
X127467414Y-109489396D01*
X127475656Y-109486000D01*
X128302128Y-109486000D01*
X128310401Y-109489427D01*
G37*
%TD.AperFunction*%
%TD*%
%TA.AperFunction,Conductor*%
%TO.N,GND*%
G36*
X128037719Y-110667168D02*
G01*
X128038726Y-110668215D01*
X128225094Y-110862015D01*
X128228359Y-110870354D01*
X128227392Y-110874788D01*
X128198545Y-110941170D01*
X128174476Y-111013303D01*
X128157228Y-111085884D01*
X128145735Y-111160764D01*
X128138933Y-111239796D01*
X128135757Y-111324829D01*
X128135757Y-111324898D01*
X128135140Y-111417715D01*
X128136019Y-111520305D01*
X128137326Y-111634377D01*
X128137327Y-111634449D01*
X128137938Y-111750238D01*
X128134555Y-111758529D01*
X128126238Y-111762000D01*
X127299762Y-111762000D01*
X127291489Y-111758573D01*
X127288062Y-111750238D01*
X127288672Y-111634449D01*
X127288673Y-111634377D01*
X127289980Y-111520305D01*
X127290859Y-111417715D01*
X127290242Y-111324898D01*
X127290242Y-111324829D01*
X127287066Y-111239796D01*
X127280264Y-111160764D01*
X127268771Y-111085884D01*
X127251523Y-111013303D01*
X127227454Y-110941170D01*
X127198608Y-110874788D01*
X127198454Y-110865834D01*
X127200906Y-110862015D01*
X127251874Y-110809014D01*
X127713000Y-110329500D01*
X128037719Y-110667168D01*
G37*
%TD.AperFunction*%
%TD*%
%TA.AperFunction,Conductor*%
%TO.N,GND*%
G36*
X124261430Y-118104675D02*
G01*
X124846200Y-118689445D01*
X124849627Y-118697718D01*
X124846276Y-118705915D01*
X124703180Y-118851663D01*
X124576487Y-118986453D01*
X124469468Y-119106393D01*
X124377273Y-119215864D01*
X124295049Y-119319249D01*
X124217947Y-119420930D01*
X124141116Y-119525289D01*
X124059704Y-119636706D01*
X123968861Y-119759564D01*
X123921703Y-119821774D01*
X123868696Y-119891701D01*
X123860967Y-119896224D01*
X123855895Y-119895804D01*
X122821569Y-119573848D01*
X122814688Y-119568117D01*
X122814019Y-119558766D01*
X123176194Y-118537703D01*
X123182190Y-118531051D01*
X123186994Y-118529916D01*
X123310531Y-118527525D01*
X123310607Y-118527521D01*
X123310622Y-118527521D01*
X123429101Y-118522000D01*
X123429114Y-118521999D01*
X123429265Y-118521992D01*
X123459953Y-118518942D01*
X123537703Y-118511215D01*
X123537709Y-118511214D01*
X123537922Y-118511193D01*
X123538140Y-118511154D01*
X123538144Y-118511153D01*
X123639017Y-118492905D01*
X123639022Y-118492904D01*
X123639325Y-118492849D01*
X123639623Y-118492762D01*
X123639629Y-118492761D01*
X123673695Y-118482864D01*
X123736293Y-118464678D01*
X123831648Y-118424399D01*
X123928211Y-118369733D01*
X124028803Y-118298398D01*
X124028980Y-118298249D01*
X124028992Y-118298240D01*
X124136094Y-118208241D01*
X124136244Y-118208115D01*
X124245088Y-118104475D01*
X124253444Y-118101252D01*
X124261430Y-118104675D01*
G37*
%TD.AperFunction*%
%TD*%
%TA.AperFunction,Conductor*%
%TO.N,VCC*%
G36*
X124734081Y-110339646D02*
G01*
X124829150Y-110415090D01*
X124829151Y-110415090D01*
X124964171Y-110522238D01*
X124965559Y-110523339D01*
X124965559Y-110523340D01*
X125303236Y-110791308D01*
X125307586Y-110799135D01*
X125307209Y-110803702D01*
X125285396Y-110879682D01*
X125285351Y-110879902D01*
X125271841Y-110945931D01*
X125268894Y-110960332D01*
X125258699Y-111040351D01*
X125253643Y-111121969D01*
X125253641Y-111122091D01*
X125253641Y-111122103D01*
X125253435Y-111138390D01*
X125252563Y-111207413D01*
X125252565Y-111207505D01*
X125254291Y-111298879D01*
X125254292Y-111298910D01*
X125257666Y-111398690D01*
X125261519Y-111508979D01*
X125261522Y-111509086D01*
X125264683Y-111631934D01*
X125264686Y-111632124D01*
X125265887Y-111758189D01*
X125262540Y-111766494D01*
X125254188Y-111770000D01*
X124427718Y-111770000D01*
X124419445Y-111766573D01*
X124416018Y-111758282D01*
X124416183Y-111649711D01*
X124416183Y-111649698D01*
X124416091Y-111564646D01*
X124416090Y-111564644D01*
X124416065Y-111541590D01*
X124414641Y-111444137D01*
X124410904Y-111355851D01*
X124403851Y-111275231D01*
X124392477Y-111200776D01*
X124375776Y-111130986D01*
X124352744Y-111064359D01*
X124322376Y-110999395D01*
X124283668Y-110934593D01*
X124717366Y-110341902D01*
X124725017Y-110337249D01*
X124734081Y-110339646D01*
G37*
%TD.AperFunction*%
%TD*%
%TA.AperFunction,Conductor*%
%TO.N,VCC*%
G36*
X124092627Y-115352608D02*
G01*
X124677391Y-115937372D01*
X124680818Y-115945645D01*
X124677526Y-115953781D01*
X124599494Y-116034417D01*
X124553901Y-116081531D01*
X124500801Y-116141186D01*
X124445794Y-116202983D01*
X124445784Y-116202995D01*
X124445678Y-116203114D01*
X124357281Y-116314118D01*
X124285130Y-116418399D01*
X124285020Y-116418586D01*
X124285012Y-116418599D01*
X124225753Y-116519633D01*
X124225646Y-116519816D01*
X124175248Y-116622226D01*
X124130356Y-116729487D01*
X124087392Y-116845456D01*
X124087358Y-116845555D01*
X124087349Y-116845579D01*
X124042774Y-116973991D01*
X123995583Y-117111216D01*
X123989652Y-117117925D01*
X123984749Y-117119109D01*
X123473240Y-117129108D01*
X122901645Y-117140282D01*
X122893306Y-117137017D01*
X122889718Y-117128355D01*
X122910891Y-116045252D01*
X122914479Y-116037048D01*
X122918784Y-116034417D01*
X123056008Y-115987225D01*
X123184543Y-115942607D01*
X123204910Y-115935061D01*
X123300408Y-115899682D01*
X123300426Y-115899675D01*
X123300512Y-115899643D01*
X123407773Y-115854751D01*
X123426961Y-115845308D01*
X123509999Y-115804444D01*
X123510008Y-115804439D01*
X123510183Y-115804353D01*
X123510359Y-115804250D01*
X123510366Y-115804246D01*
X123611400Y-115744987D01*
X123611413Y-115744979D01*
X123611600Y-115744869D01*
X123715881Y-115672718D01*
X123826885Y-115584321D01*
X123827004Y-115584215D01*
X123827016Y-115584205D01*
X123888813Y-115529198D01*
X123948468Y-115476098D01*
X124076220Y-115352472D01*
X124084546Y-115349183D01*
X124092627Y-115352608D01*
G37*
%TD.AperFunction*%
%TD*%
%TA.AperFunction,Conductor*%
%TO.N,GND*%
G36*
X118413960Y-109245476D02*
G01*
X118417500Y-109253861D01*
X118417500Y-110080417D01*
X118414073Y-110088690D01*
X118405918Y-110092116D01*
X118318955Y-110092983D01*
X118223028Y-110095696D01*
X118222939Y-110095700D01*
X118222938Y-110095700D01*
X118131525Y-110099774D01*
X118131445Y-110099778D01*
X118045935Y-110104872D01*
X117968226Y-110110620D01*
X117968153Y-110110626D01*
X117919720Y-110114918D01*
X117900044Y-110116662D01*
X117854419Y-110121454D01*
X117843175Y-110122635D01*
X117843164Y-110122636D01*
X117843119Y-110122641D01*
X117799178Y-110128198D01*
X117788541Y-110129936D01*
X117770285Y-110132919D01*
X117770281Y-110132920D01*
X117769950Y-110132974D01*
X117769632Y-110133064D01*
X117769625Y-110133066D01*
X117762307Y-110135148D01*
X117752686Y-110133675D01*
X117744366Y-110128214D01*
X117251725Y-109804869D01*
X117246689Y-109797465D01*
X117248622Y-109788291D01*
X117291496Y-109728225D01*
X117596421Y-109301032D01*
X117604016Y-109296290D01*
X117605793Y-109296131D01*
X117612139Y-109296051D01*
X117616270Y-109295999D01*
X117616272Y-109295999D01*
X117616500Y-109295996D01*
X117616727Y-109295975D01*
X117616731Y-109295975D01*
X117653085Y-109292643D01*
X117653120Y-109292639D01*
X117653157Y-109292636D01*
X117707753Y-109286872D01*
X117707755Y-109286873D01*
X117707755Y-109286872D01*
X117778213Y-109279451D01*
X117778288Y-109279444D01*
X117862415Y-109271126D01*
X117862534Y-109271115D01*
X117924165Y-109265660D01*
X117958319Y-109262637D01*
X117958446Y-109262627D01*
X118063893Y-109254730D01*
X118063989Y-109254723D01*
X118137589Y-109250446D01*
X118176882Y-109248163D01*
X118177118Y-109248151D01*
X118295449Y-109243668D01*
X118295732Y-109243661D01*
X118405640Y-109242162D01*
X118413960Y-109245476D01*
G37*
%TD.AperFunction*%
%TD*%
%TA.AperFunction,Conductor*%
%TO.N,GND*%
G36*
X122305673Y-109097700D02*
G01*
X122306480Y-109097760D01*
X122436214Y-109111893D01*
X122436885Y-109111986D01*
X122490468Y-109121055D01*
X122560019Y-109132826D01*
X122560595Y-109132938D01*
X122675041Y-109158260D01*
X122675520Y-109158377D01*
X122779123Y-109185934D01*
X122779518Y-109186046D01*
X122809150Y-109195051D01*
X122870409Y-109213668D01*
X122946403Y-109239103D01*
X123005228Y-109260049D01*
X123044790Y-109274263D01*
X123063000Y-109279500D01*
X123250084Y-109816214D01*
X123250519Y-109817461D01*
X123250519Y-109817463D01*
X123265280Y-109859809D01*
X123264767Y-109868749D01*
X123258083Y-109874708D01*
X123257115Y-109874999D01*
X123137718Y-109905361D01*
X123137717Y-109905361D01*
X122815496Y-109987301D01*
X122676181Y-110022728D01*
X122667739Y-110021684D01*
X122663234Y-110019252D01*
X122662834Y-110019036D01*
X122641265Y-110011379D01*
X122608359Y-110001670D01*
X122608299Y-110001655D01*
X122608293Y-110001653D01*
X122565484Y-109990710D01*
X122565469Y-109990707D01*
X122565432Y-109990697D01*
X122565378Y-109990685D01*
X122513848Y-109979260D01*
X122513834Y-109979257D01*
X122513797Y-109979249D01*
X122454767Y-109968114D01*
X122454676Y-109968100D01*
X122454659Y-109968097D01*
X122389774Y-109958100D01*
X122389773Y-109958100D01*
X122389657Y-109958082D01*
X122374794Y-109956350D01*
X122319892Y-109949952D01*
X122319890Y-109949952D01*
X122319780Y-109949939D01*
X122285559Y-109947390D01*
X122246561Y-109944484D01*
X122246548Y-109944483D01*
X122246449Y-109944476D01*
X122229695Y-109944033D01*
X122182371Y-109942781D01*
X122174191Y-109939136D01*
X122170980Y-109931085D01*
X122170980Y-109104642D01*
X122174407Y-109096369D01*
X122183133Y-109092951D01*
X122305673Y-109097700D01*
G37*
%TD.AperFunction*%
%TD*%
%TA.AperFunction,Conductor*%
%TO.N,+3V3*%
G36*
X126921390Y-105587448D02*
G01*
X127040855Y-105711677D01*
X127044120Y-105720016D01*
X127042956Y-105724878D01*
X127009819Y-105793437D01*
X127009818Y-105793438D01*
X127009819Y-105793438D01*
X126985968Y-105844213D01*
X126977928Y-105861328D01*
X126950610Y-105924044D01*
X126927644Y-105984410D01*
X126908813Y-106045252D01*
X126893896Y-106109396D01*
X126882675Y-106179667D01*
X126874932Y-106258891D01*
X126870446Y-106349893D01*
X126870445Y-106349973D01*
X126869158Y-106443960D01*
X126865618Y-106452186D01*
X126857459Y-106455500D01*
X126380541Y-106455500D01*
X126372268Y-106452073D01*
X126368842Y-106443960D01*
X126367554Y-106349973D01*
X126367553Y-106349893D01*
X126363067Y-106258891D01*
X126355324Y-106179667D01*
X126344103Y-106109396D01*
X126329186Y-106045252D01*
X126310355Y-105984410D01*
X126287389Y-105924044D01*
X126260071Y-105861328D01*
X126258606Y-105858208D01*
X126228180Y-105793438D01*
X126228180Y-105793437D01*
X126228178Y-105793434D01*
X126203034Y-105741410D01*
X126203031Y-105741404D01*
X126191500Y-105717547D01*
X126619000Y-105273000D01*
X126921390Y-105587448D01*
G37*
%TD.AperFunction*%
%TD*%
%TA.AperFunction,Conductor*%
%TO.N,+3V3*%
G36*
X124304293Y-106868591D02*
G01*
X124377563Y-106904390D01*
X124449207Y-106939197D01*
X124514958Y-106969523D01*
X124577895Y-106995471D01*
X124578071Y-106995531D01*
X124578078Y-106995534D01*
X124640885Y-107017071D01*
X124641101Y-107017145D01*
X124707656Y-107034647D01*
X124707869Y-107034686D01*
X124707877Y-107034688D01*
X124780451Y-107048046D01*
X124780455Y-107048047D01*
X124780642Y-107048081D01*
X124863141Y-107057549D01*
X124900393Y-107059745D01*
X124958123Y-107063148D01*
X124958143Y-107063149D01*
X124958233Y-107063154D01*
X125057496Y-107064808D01*
X125065710Y-107068372D01*
X125069000Y-107076506D01*
X125069000Y-107553494D01*
X125065573Y-107561767D01*
X125057496Y-107565192D01*
X124958233Y-107566845D01*
X124958143Y-107566850D01*
X124958123Y-107566851D01*
X124900393Y-107570254D01*
X124863141Y-107572450D01*
X124780642Y-107581918D01*
X124780455Y-107581952D01*
X124780451Y-107581953D01*
X124707877Y-107595311D01*
X124707869Y-107595313D01*
X124707656Y-107595352D01*
X124641101Y-107612854D01*
X124640887Y-107612927D01*
X124640885Y-107612928D01*
X124578078Y-107634465D01*
X124578071Y-107634468D01*
X124577895Y-107634528D01*
X124514958Y-107660476D01*
X124449207Y-107690802D01*
X124377563Y-107725609D01*
X124304293Y-107761409D01*
X124295357Y-107761962D01*
X124291048Y-107759330D01*
X124106598Y-107581953D01*
X123837769Y-107323433D01*
X123834181Y-107315229D01*
X123837769Y-107306567D01*
X124089169Y-107064808D01*
X124291048Y-106870670D01*
X124299387Y-106867405D01*
X124304293Y-106868591D01*
G37*
%TD.AperFunction*%
%TD*%
%TA.AperFunction,Conductor*%
%TO.N,GND*%
G36*
X127212157Y-109515205D02*
G01*
X127293599Y-109597511D01*
X127373386Y-109679148D01*
X127445307Y-109752311D01*
X127511423Y-109817555D01*
X127573796Y-109875436D01*
X127634490Y-109926510D01*
X127695564Y-109971332D01*
X127759083Y-110010458D01*
X127827107Y-110044444D01*
X127901700Y-110073846D01*
X127916293Y-110820293D01*
X127253488Y-110807335D01*
X127231784Y-110806911D01*
X127177642Y-110805852D01*
X127169438Y-110802264D01*
X127166986Y-110798444D01*
X127140545Y-110731362D01*
X127140541Y-110731353D01*
X127140444Y-110731107D01*
X127106458Y-110663083D01*
X127067332Y-110599564D01*
X127022510Y-110538490D01*
X126971436Y-110477796D01*
X126971359Y-110477713D01*
X126971345Y-110477697D01*
X126913629Y-110415503D01*
X126913555Y-110415423D01*
X126848311Y-110349307D01*
X126775148Y-110277386D01*
X126693511Y-110197599D01*
X126611205Y-110116157D01*
X126607734Y-110107902D01*
X126611161Y-110099567D01*
X127195567Y-109515161D01*
X127203840Y-109511734D01*
X127212157Y-109515205D01*
G37*
%TD.AperFunction*%
%TD*%
%TA.AperFunction,Conductor*%
%TO.N,GND*%
G36*
X123170699Y-108655670D02*
G01*
X123755002Y-109239973D01*
X123758429Y-109248246D01*
X123755242Y-109256272D01*
X123718494Y-109295251D01*
X123677609Y-109343536D01*
X123677534Y-109343633D01*
X123677523Y-109343647D01*
X123640717Y-109391432D01*
X123640704Y-109391449D01*
X123640649Y-109391521D01*
X123640595Y-109391597D01*
X123640582Y-109391615D01*
X123628773Y-109408319D01*
X123607882Y-109437867D01*
X123579577Y-109481236D01*
X123556001Y-109520287D01*
X123537424Y-109553682D01*
X123524114Y-109580082D01*
X123516338Y-109598148D01*
X123516222Y-109598642D01*
X123516221Y-109598645D01*
X123515297Y-109602580D01*
X123511179Y-109609070D01*
X123137719Y-109905361D01*
X123137718Y-109905361D01*
X123089679Y-109943474D01*
X123042210Y-109981134D01*
X123033599Y-109983591D01*
X123025772Y-109979240D01*
X123024610Y-109977466D01*
X123006515Y-109943474D01*
X122727125Y-109418625D01*
X122734650Y-109401669D01*
X122748300Y-109362423D01*
X122768774Y-109304229D01*
X122796772Y-109230427D01*
X122811376Y-109195727D01*
X122832898Y-109144590D01*
X122833115Y-109144107D01*
X122878002Y-109049663D01*
X122878294Y-109049089D01*
X122932733Y-108949125D01*
X122933123Y-108948462D01*
X122997774Y-108846351D01*
X122998292Y-108845600D01*
X123073815Y-108744682D01*
X123074494Y-108743856D01*
X123153744Y-108656101D01*
X123161831Y-108652258D01*
X123170699Y-108655670D01*
G37*
%TD.AperFunction*%
%TD*%
%TA.AperFunction,Conductor*%
%TO.N,/PWM2*%
G36*
X119092242Y-107881993D02*
G01*
X119092753Y-107932753D01*
X119095003Y-107996822D01*
X119098730Y-108052433D01*
X119102055Y-108084101D01*
X119103205Y-108095048D01*
X119103915Y-108101814D01*
X119110542Y-108147192D01*
X119110561Y-108147294D01*
X119110561Y-108147295D01*
X119113195Y-108161562D01*
X119118591Y-108190796D01*
X119119533Y-108195183D01*
X119128044Y-108234845D01*
X119128045Y-108234851D01*
X119138885Y-108281586D01*
X119151078Y-108333166D01*
X119151093Y-108333228D01*
X119162810Y-108384023D01*
X119161330Y-108392855D01*
X119157781Y-108396465D01*
X118956465Y-108527131D01*
X118848121Y-108597452D01*
X118839316Y-108599082D01*
X118831696Y-108593619D01*
X118642929Y-108276280D01*
X118641644Y-108267418D01*
X118643861Y-108262973D01*
X118669865Y-108230590D01*
X118669902Y-108230544D01*
X118697118Y-108195183D01*
X118704950Y-108184018D01*
X118720448Y-108161926D01*
X118720455Y-108161915D01*
X118720573Y-108161747D01*
X118740417Y-108128765D01*
X118756800Y-108094765D01*
X118769869Y-108058275D01*
X118769942Y-108057977D01*
X118769945Y-108057967D01*
X118779711Y-108018088D01*
X118779712Y-108018085D01*
X118779775Y-108017826D01*
X118786666Y-107971944D01*
X118790691Y-107919159D01*
X118791690Y-107872486D01*
X118791690Y-107872484D01*
X118792000Y-107858000D01*
X119092000Y-107858000D01*
X119092242Y-107881993D01*
G37*
%TD.AperFunction*%
%TD*%
%TA.AperFunction,Conductor*%
%TO.N,/PWM2*%
G36*
X118950433Y-107309769D02*
G01*
X119161420Y-107529169D01*
X119164685Y-107537508D01*
X119163575Y-107542256D01*
X119149475Y-107572246D01*
X119134824Y-107606287D01*
X119122806Y-107638375D01*
X119113177Y-107669792D01*
X119105696Y-107701821D01*
X119100118Y-107735743D01*
X119096202Y-107772840D01*
X119093706Y-107814394D01*
X119093704Y-107814481D01*
X119092388Y-107861601D01*
X119092386Y-107861686D01*
X119092000Y-107916000D01*
X118792000Y-107916000D01*
X118791613Y-107861686D01*
X118790293Y-107814394D01*
X118787797Y-107772840D01*
X118783881Y-107735743D01*
X118778303Y-107701821D01*
X118770822Y-107669792D01*
X118761193Y-107638375D01*
X118749175Y-107606287D01*
X118734524Y-107572246D01*
X118720425Y-107542257D01*
X118720006Y-107533312D01*
X118722580Y-107529169D01*
X118933567Y-107309769D01*
X118941771Y-107306181D01*
X118950433Y-107309769D01*
G37*
%TD.AperFunction*%
%TD*%
%TA.AperFunction,Conductor*%
%TO.N,/PWM3*%
G36*
X120692313Y-107871965D02*
G01*
X120692959Y-107919374D01*
X120692964Y-107919474D01*
X120692964Y-107919479D01*
X120695570Y-107973130D01*
X120695893Y-107979789D01*
X120700886Y-108032238D01*
X120708021Y-108078719D01*
X120708058Y-108078889D01*
X120708059Y-108078892D01*
X120714294Y-108107201D01*
X120717383Y-108121228D01*
X120729054Y-108161760D01*
X120743119Y-108202312D01*
X120759662Y-108244881D01*
X120778766Y-108291461D01*
X120789379Y-108317121D01*
X120797393Y-108336499D01*
X120797388Y-108345454D01*
X120794502Y-108349581D01*
X120571516Y-108554637D01*
X120522751Y-108599481D01*
X120514341Y-108602559D01*
X120505916Y-108598446D01*
X120266815Y-108317121D01*
X120264068Y-108308598D01*
X120265535Y-108303804D01*
X120272485Y-108291461D01*
X120288062Y-108263793D01*
X120311250Y-108221654D01*
X120321170Y-108202312D01*
X120331160Y-108182834D01*
X120331163Y-108182828D01*
X120331228Y-108182701D01*
X120348124Y-108145147D01*
X120362067Y-108107201D01*
X120373187Y-108067076D01*
X120381610Y-108022982D01*
X120387468Y-107973130D01*
X120390888Y-107915733D01*
X120391666Y-107869068D01*
X120391666Y-107869051D01*
X120392000Y-107849000D01*
X120692000Y-107849000D01*
X120692313Y-107871965D01*
G37*
%TD.AperFunction*%
%TD*%
%TA.AperFunction,Conductor*%
%TO.N,/PWM3*%
G36*
X120550433Y-107309769D02*
G01*
X120761420Y-107529169D01*
X120764685Y-107537508D01*
X120763575Y-107542256D01*
X120749475Y-107572246D01*
X120734824Y-107606287D01*
X120722806Y-107638375D01*
X120713177Y-107669792D01*
X120705696Y-107701821D01*
X120700118Y-107735743D01*
X120696202Y-107772840D01*
X120693706Y-107814394D01*
X120693704Y-107814481D01*
X120692388Y-107861601D01*
X120692386Y-107861686D01*
X120692385Y-107861757D01*
X120692385Y-107861779D01*
X120692313Y-107871917D01*
X120692000Y-107916000D01*
X120392000Y-107916000D01*
X120391613Y-107861686D01*
X120390293Y-107814394D01*
X120387797Y-107772840D01*
X120383881Y-107735743D01*
X120378303Y-107701821D01*
X120370822Y-107669792D01*
X120361193Y-107638375D01*
X120349175Y-107606287D01*
X120334524Y-107572246D01*
X120320425Y-107542257D01*
X120320006Y-107533312D01*
X120322580Y-107529169D01*
X120533567Y-107309769D01*
X120541771Y-107306181D01*
X120550433Y-107309769D01*
G37*
%TD.AperFunction*%
%TD*%
%TA.AperFunction,Conductor*%
%TO.N,/PWM4*%
G36*
X122292173Y-107891667D02*
G01*
X122292705Y-107949103D01*
X122294742Y-108014295D01*
X122297990Y-108070879D01*
X122302327Y-108121157D01*
X122307635Y-108167431D01*
X122307641Y-108167474D01*
X122307644Y-108167499D01*
X122313775Y-108211890D01*
X122313791Y-108212004D01*
X122320676Y-108257177D01*
X122320680Y-108257200D01*
X122320679Y-108257200D01*
X122328157Y-108305185D01*
X122328168Y-108305253D01*
X122336140Y-108358485D01*
X122336160Y-108358626D01*
X122343379Y-108411189D01*
X122341110Y-108419852D01*
X122337226Y-108423141D01*
X122080977Y-108557588D01*
X122010340Y-108594649D01*
X122001422Y-108595458D01*
X121994339Y-108589315D01*
X121836317Y-108257200D01*
X121835686Y-108255873D01*
X121835226Y-108246930D01*
X121837823Y-108242731D01*
X121864309Y-108215224D01*
X121864321Y-108215211D01*
X121864377Y-108215153D01*
X121867249Y-108212004D01*
X121892478Y-108184335D01*
X121892592Y-108184210D01*
X121916985Y-108154463D01*
X121937691Y-108124641D01*
X121939648Y-108121085D01*
X121954680Y-108093774D01*
X121954684Y-108093766D01*
X121954844Y-108093475D01*
X121968577Y-108059693D01*
X121979025Y-108022025D01*
X121986323Y-107979200D01*
X121988929Y-107949211D01*
X121990588Y-107930127D01*
X121990589Y-107930112D01*
X121990603Y-107929949D01*
X121990608Y-107929763D01*
X121991761Y-107882771D01*
X121991761Y-107882734D01*
X121992000Y-107873000D01*
X122292000Y-107873000D01*
X122292173Y-107891667D01*
G37*
%TD.AperFunction*%
%TD*%
%TA.AperFunction,Conductor*%
%TO.N,/PWM4*%
G36*
X122150433Y-107309769D02*
G01*
X122361420Y-107529169D01*
X122364685Y-107537508D01*
X122363575Y-107542256D01*
X122349475Y-107572246D01*
X122334824Y-107606287D01*
X122322806Y-107638375D01*
X122313177Y-107669792D01*
X122305696Y-107701821D01*
X122300118Y-107735743D01*
X122296202Y-107772840D01*
X122293706Y-107814394D01*
X122293704Y-107814481D01*
X122292388Y-107861601D01*
X122292386Y-107861686D01*
X122292000Y-107916000D01*
X121992000Y-107916000D01*
X121991613Y-107861686D01*
X121990293Y-107814394D01*
X121987797Y-107772840D01*
X121983881Y-107735743D01*
X121978303Y-107701821D01*
X121970822Y-107669792D01*
X121961193Y-107638375D01*
X121949175Y-107606287D01*
X121934524Y-107572246D01*
X121920425Y-107542257D01*
X121920006Y-107533312D01*
X121922580Y-107529169D01*
X122133567Y-107309769D01*
X122141771Y-107306181D01*
X122150433Y-107309769D01*
G37*
%TD.AperFunction*%
%TD*%
%TA.AperFunction,Conductor*%
%TO.N,GND*%
G36*
X112911433Y-98056769D02*
G01*
X113347942Y-98510684D01*
X113351207Y-98519023D01*
X113350502Y-98522798D01*
X113338663Y-98555289D01*
X113328850Y-98603653D01*
X113322852Y-98660808D01*
X113319957Y-98726528D01*
X113319455Y-98800586D01*
X113320638Y-98882755D01*
X113321181Y-98905458D01*
X113321181Y-98905465D01*
X113321185Y-98905635D01*
X113321185Y-98905641D01*
X113322793Y-98972807D01*
X113325210Y-99070446D01*
X113325212Y-99070517D01*
X113327182Y-99175567D01*
X113327184Y-99175701D01*
X113327914Y-99276215D01*
X113324547Y-99284513D01*
X113316214Y-99288000D01*
X112478000Y-99288000D01*
X112478815Y-99175656D01*
X112480787Y-99070517D01*
X112483206Y-98972807D01*
X112485361Y-98882755D01*
X112486544Y-98800586D01*
X112486042Y-98726528D01*
X112483578Y-98670600D01*
X112483147Y-98660808D01*
X112477149Y-98603653D01*
X112471984Y-98578197D01*
X112467423Y-98555716D01*
X112467422Y-98555711D01*
X112467336Y-98555289D01*
X112455498Y-98522799D01*
X112455886Y-98513853D01*
X112458058Y-98510684D01*
X112894567Y-98056769D01*
X112902771Y-98053181D01*
X112911433Y-98056769D01*
G37*
%TD.AperFunction*%
%TD*%
%TA.AperFunction,Conductor*%
%TO.N,GND*%
G36*
X113323863Y-98671960D02*
G01*
X113327062Y-98675301D01*
X113327857Y-98679726D01*
X113326032Y-98795851D01*
X113326023Y-98796160D01*
X113320848Y-98912994D01*
X113313552Y-99021435D01*
X113305237Y-99121253D01*
X113296997Y-99212359D01*
X113290501Y-99288000D01*
X113289929Y-99294661D01*
X113285127Y-99368072D01*
X113283687Y-99432501D01*
X113286705Y-99487858D01*
X113286771Y-99488216D01*
X113286772Y-99488221D01*
X113293929Y-99526797D01*
X113292068Y-99535556D01*
X113289304Y-99538395D01*
X112779945Y-99908564D01*
X112771239Y-99910655D01*
X112763342Y-99905602D01*
X112413253Y-99382000D01*
X112411503Y-99373218D01*
X112412779Y-99369766D01*
X112427788Y-99343054D01*
X112427790Y-99343049D01*
X112428038Y-99342608D01*
X112443042Y-99299965D01*
X112454694Y-99248464D01*
X112463419Y-99188471D01*
X112469557Y-99121253D01*
X112469633Y-99120416D01*
X112469633Y-99120409D01*
X112469639Y-99120349D01*
X112473778Y-99044465D01*
X112476260Y-98961183D01*
X112477509Y-98870868D01*
X112477947Y-98773885D01*
X112477995Y-98679759D01*
X112481426Y-98671489D01*
X112482429Y-98670819D01*
X112482514Y-98670600D01*
X113323368Y-98670600D01*
X113323863Y-98671960D01*
G37*
%TD.AperFunction*%
%TD*%
%TA.AperFunction,Conductor*%
%TO.N,GND*%
G36*
X127389433Y-99453769D02*
G01*
X127808767Y-99889824D01*
X127825942Y-99907684D01*
X127829207Y-99916023D01*
X127828502Y-99919798D01*
X127816663Y-99952289D01*
X127806850Y-100000653D01*
X127800852Y-100057808D01*
X127797957Y-100123528D01*
X127797455Y-100197586D01*
X127798638Y-100279755D01*
X127800793Y-100369807D01*
X127803212Y-100467517D01*
X127805184Y-100572656D01*
X127806000Y-100685000D01*
X126956000Y-100685000D01*
X126956815Y-100572656D01*
X126958787Y-100467517D01*
X126961206Y-100369807D01*
X126963361Y-100279755D01*
X126964544Y-100197586D01*
X126964042Y-100123528D01*
X126961147Y-100057808D01*
X126955149Y-100000653D01*
X126945425Y-99952725D01*
X126945423Y-99952716D01*
X126945422Y-99952711D01*
X126945336Y-99952289D01*
X126933498Y-99919800D01*
X126933885Y-99910854D01*
X126936058Y-99907685D01*
X126953233Y-99889825D01*
X126954765Y-99888232D01*
X126954765Y-99888231D01*
X127016533Y-99824000D01*
X127372567Y-99453769D01*
X127380771Y-99450181D01*
X127389433Y-99453769D01*
G37*
%TD.AperFunction*%
%TD*%
%TA.AperFunction,Conductor*%
%TO.N,GND*%
G36*
X127802796Y-99827427D02*
G01*
X127806221Y-99835474D01*
X127809865Y-100025003D01*
X127821454Y-100196951D01*
X127840757Y-100345634D01*
X127867763Y-100476849D01*
X127902462Y-100596386D01*
X127944845Y-100710041D01*
X127994900Y-100823607D01*
X128052618Y-100942876D01*
X128117959Y-101073585D01*
X128117987Y-101073642D01*
X128187368Y-101214334D01*
X128187954Y-101223270D01*
X128185308Y-101227619D01*
X127381000Y-102064000D01*
X126576692Y-101227619D01*
X126573427Y-101219280D01*
X126574632Y-101214334D01*
X126643984Y-101073699D01*
X126644012Y-101073642D01*
X126709381Y-100942876D01*
X126767099Y-100823607D01*
X126817154Y-100710041D01*
X126859537Y-100596386D01*
X126894236Y-100476849D01*
X126921242Y-100345634D01*
X126940545Y-100196951D01*
X126952134Y-100025003D01*
X126955779Y-99835474D01*
X126959364Y-99827269D01*
X126967477Y-99824000D01*
X127794523Y-99824000D01*
X127802796Y-99827427D01*
G37*
%TD.AperFunction*%
%TD*%
%TA.AperFunction,Conductor*%
%TO.N,+3V3*%
G36*
X127383135Y-105272674D02*
G01*
X127649231Y-105528567D01*
X127652819Y-105536771D01*
X127649231Y-105545433D01*
X127403197Y-105782033D01*
X127383134Y-105801326D01*
X127374795Y-105804591D01*
X127369882Y-105803403D01*
X127329260Y-105783529D01*
X127324760Y-105781334D01*
X127286640Y-105762740D01*
X127247538Y-105744583D01*
X127210115Y-105729008D01*
X127172536Y-105715965D01*
X127172344Y-105715914D01*
X127172335Y-105715911D01*
X127133180Y-105705463D01*
X127132963Y-105705405D01*
X127089560Y-105697278D01*
X127040489Y-105691535D01*
X127020316Y-105690319D01*
X126983915Y-105688125D01*
X126918000Y-105687000D01*
X126918000Y-105398502D01*
X126921427Y-105390229D01*
X126929500Y-105386804D01*
X126983765Y-105385877D01*
X126983786Y-105385876D01*
X126983915Y-105385874D01*
X126984040Y-105385866D01*
X126984052Y-105385866D01*
X127009726Y-105384318D01*
X127040489Y-105382464D01*
X127089560Y-105376721D01*
X127132963Y-105368594D01*
X127141216Y-105366392D01*
X127172335Y-105358088D01*
X127172344Y-105358085D01*
X127172536Y-105358034D01*
X127210115Y-105344991D01*
X127247538Y-105329416D01*
X127286640Y-105311259D01*
X127286650Y-105311254D01*
X127286684Y-105311238D01*
X127329260Y-105290470D01*
X127369882Y-105270597D01*
X127378820Y-105270040D01*
X127383135Y-105272674D01*
G37*
%TD.AperFunction*%
%TD*%
%TA.AperFunction,Conductor*%
%TO.N,+3V3*%
G36*
X126764420Y-105908459D02*
G01*
X126715120Y-105921024D01*
X126603813Y-105954235D01*
X126617768Y-105982964D01*
X126616472Y-105985124D01*
X126564204Y-105977345D01*
X126564041Y-105976465D01*
X126603074Y-105954456D01*
X126603813Y-105954235D01*
X126381867Y-105497313D01*
X126764420Y-105908459D01*
G37*
%TD.AperFunction*%
%TA.AperFunction,Conductor*%
G36*
X126981955Y-105855918D02*
G01*
X126981849Y-105858206D01*
X126978043Y-105866312D01*
X126977376Y-105866768D01*
X126976698Y-105867481D01*
X126920606Y-105895346D01*
X126912576Y-105897296D01*
X126912425Y-105896673D01*
X126912351Y-105896695D01*
X126912501Y-105897314D01*
X126910535Y-105897791D01*
X126909366Y-105897609D01*
X126909280Y-105897635D01*
X126909234Y-105897633D01*
X126909236Y-105897589D01*
X126901687Y-105896412D01*
X126896406Y-105889180D01*
X126897785Y-105880332D01*
X126902571Y-105875943D01*
X126911848Y-105871334D01*
X126981130Y-105854511D01*
X126981633Y-105854389D01*
X126981955Y-105855918D01*
G37*
%TD.AperFunction*%
%TA.AperFunction,Conductor*%
G36*
X127468401Y-105552040D02*
G01*
X127470900Y-105559267D01*
X127470900Y-105567498D01*
X127445500Y-105587448D01*
X127445500Y-105687000D01*
X127496042Y-105692748D01*
X127497460Y-105692909D01*
X127502997Y-105699236D01*
X127502403Y-105708171D01*
X127499482Y-105711909D01*
X127494001Y-105716558D01*
X127490064Y-105718757D01*
X127471742Y-105724738D01*
X127389835Y-105751475D01*
X127305911Y-105773671D01*
X127236463Y-105792038D01*
X127236261Y-105792090D01*
X127154486Y-105812160D01*
X127114010Y-105822094D01*
X127105159Y-105820738D01*
X127099859Y-105813520D01*
X127101215Y-105804668D01*
X127105650Y-105800443D01*
X127170050Y-105765566D01*
X127170065Y-105765557D01*
X127170136Y-105765519D01*
X127193829Y-105751475D01*
X127220813Y-105735481D01*
X127220814Y-105735480D01*
X127296911Y-105690374D01*
X127410127Y-105615231D01*
X127445500Y-105587448D01*
X127445500Y-105555150D01*
X127451973Y-105550066D01*
X127460596Y-105547651D01*
X127468401Y-105552040D01*
G37*
%TD.AperFunction*%
%TD*%
%TA.AperFunction,Conductor*%
%TO.N,+3V3*%
G36*
X121358497Y-96731368D02*
G01*
X121434409Y-96770782D01*
X121434914Y-96771060D01*
X121506141Y-96812620D01*
X121506417Y-96812786D01*
X121569532Y-96852141D01*
X121628141Y-96888560D01*
X121685796Y-96921268D01*
X121686014Y-96921370D01*
X121745914Y-96949445D01*
X121745921Y-96949448D01*
X121746188Y-96949573D01*
X121813012Y-96972789D01*
X121813329Y-96972861D01*
X121813333Y-96972862D01*
X121839320Y-96978750D01*
X121889960Y-96990224D01*
X121980725Y-97001191D01*
X121980959Y-97001199D01*
X121980969Y-97001200D01*
X122077711Y-97004603D01*
X122085859Y-97008319D01*
X122089000Y-97016296D01*
X122089000Y-97293704D01*
X122085573Y-97301977D01*
X122077711Y-97305397D01*
X121980969Y-97308799D01*
X121980959Y-97308800D01*
X121980725Y-97308808D01*
X121889960Y-97319775D01*
X121839320Y-97331249D01*
X121813333Y-97337137D01*
X121813329Y-97337138D01*
X121813012Y-97337210D01*
X121746188Y-97360426D01*
X121745921Y-97360551D01*
X121745914Y-97360554D01*
X121703544Y-97380413D01*
X121685796Y-97388731D01*
X121628141Y-97421439D01*
X121569532Y-97457858D01*
X121506417Y-97497213D01*
X121506141Y-97497379D01*
X121434914Y-97538939D01*
X121434409Y-97539217D01*
X121362255Y-97576681D01*
X121358497Y-97578632D01*
X121349576Y-97579403D01*
X121344996Y-97576681D01*
X121183636Y-97421509D01*
X120915269Y-97163433D01*
X120911681Y-97155229D01*
X120915269Y-97146567D01*
X121077847Y-96990224D01*
X121344996Y-96733319D01*
X121353335Y-96730054D01*
X121358497Y-96731368D01*
G37*
%TD.AperFunction*%
%TD*%
%TA.AperFunction,Conductor*%
%TO.N,+3V3*%
G36*
X123776144Y-98036735D02*
G01*
X123815278Y-98074555D01*
X123857693Y-98112148D01*
X123896452Y-98142784D01*
X123910385Y-98152322D01*
X123932701Y-98167600D01*
X123932714Y-98167608D01*
X123932889Y-98167728D01*
X123933079Y-98167838D01*
X123933087Y-98167843D01*
X123968151Y-98188135D01*
X123968338Y-98188243D01*
X124004133Y-98205593D01*
X124041608Y-98221041D01*
X124041686Y-98221069D01*
X124041700Y-98221075D01*
X124082097Y-98235852D01*
X124126933Y-98251288D01*
X124169710Y-98265960D01*
X124176424Y-98271885D01*
X124177612Y-98276798D01*
X124184828Y-98645901D01*
X124181563Y-98654240D01*
X124172901Y-98657828D01*
X123838732Y-98651295D01*
X123803798Y-98650612D01*
X123795594Y-98647024D01*
X123792960Y-98642710D01*
X123778288Y-98599933D01*
X123762852Y-98555097D01*
X123748075Y-98514700D01*
X123748069Y-98514686D01*
X123748041Y-98514608D01*
X123732593Y-98477133D01*
X123715243Y-98441338D01*
X123694728Y-98405889D01*
X123694608Y-98405714D01*
X123694600Y-98405701D01*
X123669902Y-98369625D01*
X123669784Y-98369452D01*
X123639148Y-98330693D01*
X123601555Y-98288278D01*
X123563735Y-98249144D01*
X123560450Y-98240814D01*
X123563875Y-98232741D01*
X123759741Y-98036875D01*
X123768014Y-98033448D01*
X123776144Y-98036735D01*
G37*
%TD.AperFunction*%
%TD*%
%TA.AperFunction,Conductor*%
%TO.N,/KEY*%
G36*
X127695372Y-96699305D02*
G01*
X127698960Y-96707967D01*
X127676522Y-97855721D01*
X127672934Y-97863925D01*
X127668302Y-97866662D01*
X127503427Y-97917985D01*
X127502763Y-97918171D01*
X127348421Y-97956340D01*
X127348014Y-97956433D01*
X127207765Y-97985357D01*
X127146122Y-97997653D01*
X127077801Y-98011280D01*
X127077789Y-98011283D01*
X127077717Y-98011297D01*
X126954078Y-98040517D01*
X126953873Y-98040583D01*
X126953868Y-98040584D01*
X126833152Y-98079224D01*
X126832849Y-98079321D01*
X126710032Y-98134015D01*
X126581626Y-98210906D01*
X126443634Y-98316297D01*
X126300315Y-98448858D01*
X126291917Y-98451959D01*
X126284100Y-98448541D01*
X125946459Y-98110900D01*
X125943032Y-98102627D01*
X125946142Y-98094684D01*
X126078702Y-97951365D01*
X126184093Y-97813373D01*
X126260984Y-97684967D01*
X126315678Y-97562150D01*
X126354482Y-97440921D01*
X126383702Y-97317282D01*
X126409642Y-97187234D01*
X126438566Y-97046985D01*
X126438663Y-97046558D01*
X126476827Y-96892240D01*
X126477014Y-96891572D01*
X126528337Y-96726699D01*
X126534068Y-96719818D01*
X126539279Y-96718478D01*
X126996551Y-96709539D01*
X127687033Y-96696040D01*
X127695372Y-96699305D01*
G37*
%TD.AperFunction*%
%TD*%
%TA.AperFunction,Conductor*%
%TO.N,GND*%
G36*
X127455831Y-103285900D02*
G01*
X127459258Y-103294173D01*
X127455944Y-103302332D01*
X127434898Y-103323963D01*
X127390340Y-103369758D01*
X127329163Y-103437278D01*
X127329086Y-103437372D01*
X127278744Y-103498620D01*
X127278733Y-103498634D01*
X127278619Y-103498773D01*
X127236864Y-103556397D01*
X127202055Y-103612301D01*
X127172349Y-103668639D01*
X127145903Y-103727563D01*
X127120873Y-103791227D01*
X127095417Y-103861782D01*
X127070371Y-103933692D01*
X127064414Y-103940378D01*
X127059551Y-103941542D01*
X126662507Y-103949303D01*
X126662506Y-103949303D01*
X126661143Y-103949330D01*
X126661142Y-103949330D01*
X126451063Y-103953437D01*
X126463117Y-103336808D01*
X126542717Y-103309082D01*
X126542729Y-103309078D01*
X126606969Y-103285900D01*
X126613272Y-103283626D01*
X126654599Y-103267378D01*
X126676820Y-103258642D01*
X126676834Y-103258636D01*
X126676936Y-103258596D01*
X126677046Y-103258547D01*
X126677057Y-103258542D01*
X126701125Y-103247740D01*
X126735860Y-103232150D01*
X126792198Y-103202444D01*
X126848102Y-103167635D01*
X126905726Y-103125880D01*
X126905865Y-103125766D01*
X126905879Y-103125755D01*
X126936443Y-103100633D01*
X126967221Y-103075336D01*
X127034741Y-103014159D01*
X127110439Y-102940508D01*
X127455831Y-103285900D01*
G37*
%TD.AperFunction*%
%TD*%
%TA.AperFunction,Conductor*%
%TO.N,GND*%
G36*
X128017396Y-102250396D02*
G01*
X127904611Y-102376907D01*
X127822166Y-102496612D01*
X127780188Y-102576870D01*
X127778745Y-102579630D01*
X127761952Y-102611736D01*
X127715857Y-102724506D01*
X127715821Y-102724608D01*
X127715818Y-102724615D01*
X127675772Y-102837150D01*
X127675730Y-102837264D01*
X127633714Y-102951547D01*
X127633442Y-102952222D01*
X127581425Y-103070433D01*
X127580912Y-103071460D01*
X127577475Y-103077566D01*
X127543231Y-103138402D01*
X127510802Y-103196012D01*
X127510090Y-103197123D01*
X127413335Y-103330990D01*
X127281652Y-103476401D01*
X126928099Y-103122848D01*
X127024756Y-103003142D01*
X127071243Y-102891205D01*
X127075342Y-102784794D01*
X127044838Y-102681666D01*
X126987513Y-102579581D01*
X126936112Y-102510056D01*
X126911231Y-102476403D01*
X126911228Y-102476399D01*
X126911151Y-102476295D01*
X126823535Y-102369566D01*
X126732653Y-102257404D01*
X126732257Y-102256886D01*
X126729072Y-102252468D01*
X126646037Y-102137310D01*
X126645372Y-102136278D01*
X126575352Y-102013905D01*
X126574218Y-102005022D01*
X126577074Y-101999984D01*
X126946643Y-101615678D01*
X126948257Y-101614000D01*
X127381000Y-101164000D01*
X128017396Y-102250396D01*
G37*
%TD.AperFunction*%
%TD*%
%TA.AperFunction,Conductor*%
%TO.N,/LED*%
G36*
X115917127Y-96926350D02*
G01*
X116364259Y-97320699D01*
X116368197Y-97328742D01*
X116367312Y-97333993D01*
X116332774Y-97416466D01*
X116332535Y-97416997D01*
X116304576Y-97475230D01*
X116295612Y-97493901D01*
X116295435Y-97494255D01*
X116259905Y-97562209D01*
X116226562Y-97625028D01*
X116196259Y-97686450D01*
X116196189Y-97686620D01*
X116196184Y-97686630D01*
X116184490Y-97714843D01*
X116169757Y-97750386D01*
X116147818Y-97820748D01*
X116131205Y-97901446D01*
X116131176Y-97901711D01*
X116131175Y-97901715D01*
X116129756Y-97914514D01*
X116120678Y-97996393D01*
X116120671Y-97996612D01*
X116117368Y-98098180D01*
X116113674Y-98106338D01*
X116105674Y-98109500D01*
X115828285Y-98109500D01*
X115820012Y-98106073D01*
X115816593Y-98098222D01*
X115816592Y-98098180D01*
X115813169Y-98003284D01*
X115802054Y-97914203D01*
X115784217Y-97838741D01*
X115760220Y-97773382D01*
X115748642Y-97750386D01*
X115730748Y-97714843D01*
X115730746Y-97714840D01*
X115730629Y-97714607D01*
X115696004Y-97658902D01*
X115656910Y-97602750D01*
X115613947Y-97542688D01*
X115613877Y-97542588D01*
X115567684Y-97475211D01*
X115567440Y-97474837D01*
X115522880Y-97403546D01*
X115521401Y-97394714D01*
X115523730Y-97389955D01*
X115569325Y-97333993D01*
X115900316Y-96927735D01*
X115908200Y-96923485D01*
X115917127Y-96926350D01*
G37*
%TD.AperFunction*%
%TD*%
%TA.AperFunction,Conductor*%
%TO.N,/LED*%
G36*
X116113656Y-99964427D02*
G01*
X116117083Y-99972616D01*
X116117386Y-100015313D01*
X116118706Y-100062605D01*
X116121202Y-100104159D01*
X116125118Y-100141256D01*
X116130696Y-100175178D01*
X116138177Y-100207207D01*
X116147806Y-100238624D01*
X116159824Y-100270712D01*
X116174475Y-100304753D01*
X116174516Y-100304840D01*
X116174524Y-100304858D01*
X116188575Y-100334743D01*
X116188994Y-100343688D01*
X116186420Y-100347831D01*
X115975433Y-100567231D01*
X115967229Y-100570819D01*
X115958567Y-100567231D01*
X115747580Y-100347831D01*
X115744315Y-100339492D01*
X115745425Y-100334743D01*
X115747679Y-100329948D01*
X115759524Y-100304753D01*
X115774175Y-100270712D01*
X115786193Y-100238624D01*
X115795822Y-100207207D01*
X115803303Y-100175178D01*
X115808881Y-100141256D01*
X115812797Y-100104159D01*
X115815293Y-100062605D01*
X115816613Y-100015313D01*
X115816917Y-99972616D01*
X115820403Y-99964368D01*
X115828617Y-99961000D01*
X116105383Y-99961000D01*
X116113656Y-99964427D01*
G37*
%TD.AperFunction*%
%TD*%
%TA.AperFunction,Conductor*%
%TO.N,Net-(D1-Pad1)*%
G36*
X117966997Y-96731368D02*
G01*
X118042909Y-96770782D01*
X118043414Y-96771060D01*
X118114641Y-96812620D01*
X118114917Y-96812786D01*
X118178032Y-96852141D01*
X118236641Y-96888560D01*
X118294296Y-96921268D01*
X118294514Y-96921370D01*
X118354414Y-96949445D01*
X118354421Y-96949448D01*
X118354688Y-96949573D01*
X118421512Y-96972789D01*
X118421829Y-96972861D01*
X118421833Y-96972862D01*
X118460743Y-96981678D01*
X118498460Y-96990224D01*
X118498752Y-96990259D01*
X118498756Y-96990260D01*
X118572555Y-96999177D01*
X118573250Y-96999261D01*
X118573251Y-96999261D01*
X118589225Y-97001191D01*
X118697500Y-97005000D01*
X118697500Y-97305000D01*
X118589225Y-97308808D01*
X118573251Y-97310738D01*
X118573250Y-97310738D01*
X118572555Y-97310822D01*
X118498756Y-97319739D01*
X118498752Y-97319740D01*
X118498460Y-97319775D01*
X118486275Y-97322536D01*
X118421833Y-97337137D01*
X118421829Y-97337138D01*
X118421512Y-97337210D01*
X118354688Y-97360426D01*
X118354421Y-97360551D01*
X118354414Y-97360554D01*
X118312044Y-97380413D01*
X118294296Y-97388731D01*
X118236641Y-97421439D01*
X118178032Y-97457858D01*
X118114917Y-97497213D01*
X118114641Y-97497379D01*
X118043414Y-97538939D01*
X118042909Y-97539217D01*
X117970755Y-97576681D01*
X117966997Y-97578632D01*
X117958076Y-97579403D01*
X117953496Y-97576681D01*
X117792136Y-97421509D01*
X117523769Y-97163433D01*
X117520181Y-97155229D01*
X117523769Y-97146567D01*
X117677037Y-96999177D01*
X117953496Y-96733319D01*
X117961835Y-96730054D01*
X117966997Y-96731368D01*
G37*
%TD.AperFunction*%
%TD*%
%TA.AperFunction,Conductor*%
%TO.N,Net-(D1-Pad1)*%
G36*
X119193004Y-96733319D02*
G01*
X119469464Y-96999177D01*
X119622731Y-97146567D01*
X119626319Y-97154771D01*
X119622731Y-97163433D01*
X119316565Y-97457858D01*
X119193004Y-97576681D01*
X119184665Y-97579946D01*
X119179503Y-97578632D01*
X119175746Y-97576681D01*
X119103590Y-97539217D01*
X119103085Y-97538939D01*
X119031858Y-97497379D01*
X119031582Y-97497213D01*
X118968467Y-97457858D01*
X118909858Y-97421439D01*
X118852203Y-97388731D01*
X118834455Y-97380413D01*
X118792085Y-97360554D01*
X118792078Y-97360551D01*
X118791811Y-97360426D01*
X118724987Y-97337210D01*
X118724670Y-97337138D01*
X118724666Y-97337137D01*
X118672202Y-97325250D01*
X118648039Y-97319775D01*
X118647747Y-97319740D01*
X118647743Y-97319739D01*
X118573945Y-97310822D01*
X118573250Y-97310738D01*
X118573249Y-97310738D01*
X118557274Y-97308808D01*
X118449000Y-97305000D01*
X118449000Y-97005000D01*
X118557274Y-97001191D01*
X118573249Y-96999261D01*
X118573250Y-96999261D01*
X118573945Y-96999177D01*
X118647743Y-96990260D01*
X118647747Y-96990259D01*
X118648039Y-96990224D01*
X118689243Y-96980888D01*
X118724666Y-96972862D01*
X118724670Y-96972861D01*
X118724987Y-96972789D01*
X118791811Y-96949573D01*
X118792078Y-96949448D01*
X118792085Y-96949445D01*
X118851985Y-96921370D01*
X118852203Y-96921268D01*
X118909858Y-96888560D01*
X118968467Y-96852141D01*
X119031582Y-96812786D01*
X119031858Y-96812620D01*
X119103085Y-96771060D01*
X119103590Y-96770782D01*
X119179503Y-96731368D01*
X119188424Y-96730597D01*
X119193004Y-96733319D01*
G37*
%TD.AperFunction*%
%TD*%
%TA.AperFunction,Conductor*%
%TO.N,/IRQ*%
G36*
X113039402Y-100493496D02*
G01*
X113043114Y-100495434D01*
X113119746Y-100535460D01*
X113120302Y-100535771D01*
X113194966Y-100580101D01*
X113195308Y-100580311D01*
X113261327Y-100622637D01*
X113261322Y-100622644D01*
X113261352Y-100622653D01*
X113322450Y-100662044D01*
X113382473Y-100697624D01*
X113416554Y-100714398D01*
X113445055Y-100728425D01*
X113445060Y-100728427D01*
X113445336Y-100728563D01*
X113445621Y-100728667D01*
X113445625Y-100728669D01*
X113514664Y-100753929D01*
X113514668Y-100753930D01*
X113514979Y-100754044D01*
X113567623Y-100766628D01*
X113595042Y-100773182D01*
X113595045Y-100773183D01*
X113595344Y-100773254D01*
X113595641Y-100773292D01*
X113595647Y-100773293D01*
X113675136Y-100783434D01*
X113690370Y-100785377D01*
X113792735Y-100789181D01*
X113800875Y-100792913D01*
X113804000Y-100800873D01*
X113804000Y-101078327D01*
X113800573Y-101086600D01*
X113792735Y-101090019D01*
X113700308Y-101093453D01*
X113690638Y-101093812D01*
X113690637Y-101093812D01*
X113690370Y-101093822D01*
X113656254Y-101098174D01*
X113595647Y-101105906D01*
X113595641Y-101105907D01*
X113595344Y-101105945D01*
X113595045Y-101106016D01*
X113595042Y-101106017D01*
X113567623Y-101112571D01*
X113514979Y-101125155D01*
X113514668Y-101125269D01*
X113514664Y-101125270D01*
X113445625Y-101150530D01*
X113445621Y-101150532D01*
X113445336Y-101150636D01*
X113445060Y-101150772D01*
X113445055Y-101150774D01*
X113416554Y-101164801D01*
X113382473Y-101181575D01*
X113322450Y-101217155D01*
X113261352Y-101256546D01*
X113261320Y-101256552D01*
X113261327Y-101256562D01*
X113195308Y-101298888D01*
X113194966Y-101299098D01*
X113120302Y-101343428D01*
X113119746Y-101343739D01*
X113039403Y-101385704D01*
X113030484Y-101386496D01*
X113025877Y-101383766D01*
X112984109Y-101343599D01*
X112572769Y-100948033D01*
X112569181Y-100939829D01*
X112572769Y-100931167D01*
X112724362Y-100785387D01*
X113025878Y-100495434D01*
X113034216Y-100492169D01*
X113039402Y-100493496D01*
G37*
%TD.AperFunction*%
%TD*%
%TA.AperFunction,Conductor*%
%TO.N,/IRQ*%
G36*
X114562433Y-99172769D02*
G01*
X114818326Y-99438866D01*
X114821591Y-99447205D01*
X114820403Y-99452118D01*
X114800529Y-99492739D01*
X114779740Y-99535359D01*
X114761583Y-99574461D01*
X114746008Y-99611884D01*
X114732965Y-99649463D01*
X114722405Y-99689036D01*
X114714278Y-99732439D01*
X114708535Y-99781510D01*
X114705125Y-99838084D01*
X114705123Y-99838213D01*
X114705122Y-99838234D01*
X114704196Y-99892500D01*
X114700629Y-99900713D01*
X114692498Y-99904000D01*
X114415502Y-99904000D01*
X114407229Y-99900573D01*
X114403804Y-99892500D01*
X114402877Y-99838234D01*
X114402876Y-99838213D01*
X114402874Y-99838084D01*
X114399464Y-99781510D01*
X114393721Y-99732439D01*
X114385594Y-99689036D01*
X114375034Y-99649463D01*
X114361991Y-99611884D01*
X114346416Y-99574461D01*
X114328259Y-99535359D01*
X114307470Y-99492739D01*
X114287597Y-99452118D01*
X114287040Y-99443180D01*
X114289674Y-99438866D01*
X114545567Y-99172769D01*
X114553771Y-99169181D01*
X114562433Y-99172769D01*
G37*
%TD.AperFunction*%
%TD*%
%TA.AperFunction,Conductor*%
%TO.N,/IRQ*%
G36*
X122947118Y-100952597D02*
G01*
X122987739Y-100972470D01*
X123030315Y-100993238D01*
X123030349Y-100993254D01*
X123030359Y-100993259D01*
X123069461Y-101011416D01*
X123106884Y-101026991D01*
X123144463Y-101040034D01*
X123144655Y-101040085D01*
X123144664Y-101040088D01*
X123175783Y-101048392D01*
X123184036Y-101050594D01*
X123227439Y-101058721D01*
X123276510Y-101064464D01*
X123307273Y-101066318D01*
X123332947Y-101067866D01*
X123332959Y-101067866D01*
X123333084Y-101067874D01*
X123333213Y-101067876D01*
X123333234Y-101067877D01*
X123387500Y-101068804D01*
X123395713Y-101072371D01*
X123399000Y-101080502D01*
X123399000Y-101357498D01*
X123395573Y-101365771D01*
X123387500Y-101369196D01*
X123333234Y-101370122D01*
X123333213Y-101370123D01*
X123333084Y-101370125D01*
X123332959Y-101370133D01*
X123332947Y-101370133D01*
X123307273Y-101371681D01*
X123276510Y-101373535D01*
X123227439Y-101379278D01*
X123184036Y-101387405D01*
X123183819Y-101387463D01*
X123144664Y-101397911D01*
X123144655Y-101397914D01*
X123144463Y-101397965D01*
X123106884Y-101411008D01*
X123069461Y-101426583D01*
X123069375Y-101426623D01*
X123030393Y-101444724D01*
X123030315Y-101444761D01*
X122987739Y-101465529D01*
X122947118Y-101485403D01*
X122938180Y-101485960D01*
X122933866Y-101483326D01*
X122667769Y-101227433D01*
X122664181Y-101219229D01*
X122667769Y-101210567D01*
X122933866Y-100954674D01*
X122942205Y-100951409D01*
X122947118Y-100952597D01*
G37*
%TD.AperFunction*%
%TD*%
%TA.AperFunction,Conductor*%
%TO.N,/IRQ*%
G36*
X124238504Y-101017258D02*
G01*
X124242298Y-101020337D01*
X124290950Y-101080668D01*
X124433367Y-101257275D01*
X124435892Y-101265866D01*
X124431242Y-101274007D01*
X124186976Y-101455701D01*
X124178293Y-101457889D01*
X124173771Y-101456221D01*
X124146736Y-101439243D01*
X124146631Y-101439177D01*
X124115154Y-101421349D01*
X124115004Y-101421276D01*
X124114996Y-101421272D01*
X124085193Y-101406808D01*
X124085194Y-101406808D01*
X124084985Y-101406707D01*
X124084770Y-101406623D01*
X124084759Y-101406618D01*
X124067695Y-101399936D01*
X124054989Y-101394960D01*
X124024028Y-101385817D01*
X123990967Y-101378988D01*
X123960581Y-101374965D01*
X123954814Y-101374201D01*
X123954812Y-101374201D01*
X123954670Y-101374182D01*
X123954530Y-101374171D01*
X123954526Y-101374171D01*
X123944630Y-101373423D01*
X123914000Y-101371109D01*
X123913917Y-101371106D01*
X123913899Y-101371105D01*
X123876048Y-101369769D01*
X123867822Y-101369479D01*
X123836277Y-101369193D01*
X123826594Y-101369105D01*
X123818352Y-101365603D01*
X123815000Y-101357405D01*
X123815000Y-101080668D01*
X123818427Y-101072395D01*
X123826668Y-101068968D01*
X123874471Y-101068837D01*
X123926138Y-101068177D01*
X123971491Y-101066762D01*
X123971549Y-101066759D01*
X123971562Y-101066758D01*
X124011907Y-101064341D01*
X124011926Y-101064339D01*
X124012017Y-101064334D01*
X124049208Y-101060635D01*
X124049345Y-101060615D01*
X124049351Y-101060614D01*
X124084419Y-101055429D01*
X124084431Y-101055427D01*
X124084552Y-101055409D01*
X124102044Y-101051903D01*
X124119414Y-101048421D01*
X124119427Y-101048418D01*
X124119537Y-101048396D01*
X124155654Y-101039340D01*
X124194392Y-101027982D01*
X124229577Y-101016554D01*
X124238504Y-101017258D01*
G37*
%TD.AperFunction*%
%TD*%
%TA.AperFunction,Conductor*%
%TO.N,/CH11*%
G36*
X121488821Y-100622427D02*
G01*
X121492245Y-100630450D01*
X121493308Y-100680159D01*
X121497333Y-100732944D01*
X121504224Y-100778826D01*
X121504287Y-100779085D01*
X121504288Y-100779088D01*
X121514054Y-100818967D01*
X121514057Y-100818977D01*
X121514130Y-100819275D01*
X121527199Y-100855765D01*
X121543582Y-100889765D01*
X121563426Y-100922747D01*
X121563544Y-100922915D01*
X121563551Y-100922926D01*
X121579049Y-100945018D01*
X121586881Y-100956183D01*
X121614097Y-100991544D01*
X121614134Y-100991590D01*
X121640139Y-101023973D01*
X121642647Y-101032569D01*
X121641071Y-101037280D01*
X121452304Y-101354619D01*
X121445130Y-101359978D01*
X121435879Y-101358452D01*
X121327535Y-101288131D01*
X121126220Y-101157466D01*
X121121147Y-101150088D01*
X121121190Y-101145023D01*
X121132906Y-101094228D01*
X121132921Y-101094166D01*
X121145114Y-101042586D01*
X121155954Y-100995851D01*
X121155955Y-100995845D01*
X121164467Y-100956183D01*
X121165408Y-100951796D01*
X121170805Y-100922562D01*
X121173438Y-100908295D01*
X121173438Y-100908294D01*
X121173457Y-100908192D01*
X121180084Y-100862814D01*
X121180795Y-100856048D01*
X121181944Y-100845101D01*
X121185269Y-100813433D01*
X121188996Y-100757822D01*
X121191246Y-100693753D01*
X121191883Y-100630582D01*
X121195393Y-100622344D01*
X121203582Y-100619000D01*
X121480548Y-100619000D01*
X121488821Y-100622427D01*
G37*
%TD.AperFunction*%
%TD*%
%TA.AperFunction,Conductor*%
%TO.N,/CH11*%
G36*
X121350433Y-98959769D02*
G01*
X121561420Y-99179169D01*
X121564685Y-99187508D01*
X121563575Y-99192256D01*
X121549475Y-99222246D01*
X121534824Y-99256287D01*
X121522806Y-99288375D01*
X121513177Y-99319792D01*
X121505696Y-99351821D01*
X121500118Y-99385743D01*
X121496202Y-99422840D01*
X121493706Y-99464394D01*
X121493704Y-99464481D01*
X121492388Y-99511601D01*
X121492386Y-99511686D01*
X121492385Y-99511757D01*
X121492385Y-99511779D01*
X121492083Y-99554383D01*
X121488597Y-99562632D01*
X121480383Y-99566000D01*
X121203617Y-99566000D01*
X121195344Y-99562573D01*
X121191917Y-99554383D01*
X121191614Y-99511779D01*
X121191614Y-99511757D01*
X121191613Y-99511686D01*
X121190293Y-99464394D01*
X121187797Y-99422840D01*
X121183881Y-99385743D01*
X121178303Y-99351821D01*
X121170822Y-99319792D01*
X121161193Y-99288375D01*
X121149175Y-99256287D01*
X121134524Y-99222246D01*
X121120425Y-99192257D01*
X121120006Y-99183312D01*
X121122580Y-99179169D01*
X121333567Y-98959769D01*
X121341771Y-98956181D01*
X121350433Y-98959769D01*
G37*
%TD.AperFunction*%
%TD*%
%TA.AperFunction,Conductor*%
%TO.N,/CH10*%
G36*
X120688731Y-100994427D02*
G01*
X120692157Y-101002541D01*
X120692959Y-101061374D01*
X120692964Y-101061474D01*
X120692964Y-101061479D01*
X120695570Y-101115130D01*
X120695893Y-101121789D01*
X120700886Y-101174238D01*
X120708021Y-101220719D01*
X120708058Y-101220889D01*
X120708059Y-101220892D01*
X120714294Y-101249201D01*
X120717383Y-101263228D01*
X120729054Y-101303760D01*
X120743119Y-101344312D01*
X120759662Y-101386881D01*
X120778766Y-101433461D01*
X120789379Y-101459121D01*
X120797393Y-101478499D01*
X120797388Y-101487454D01*
X120794502Y-101491581D01*
X120571516Y-101696637D01*
X120522751Y-101741481D01*
X120514341Y-101744559D01*
X120505916Y-101740446D01*
X120266815Y-101459121D01*
X120264068Y-101450598D01*
X120265535Y-101445804D01*
X120272485Y-101433461D01*
X120288062Y-101405793D01*
X120311250Y-101363654D01*
X120321170Y-101344312D01*
X120331160Y-101324834D01*
X120331163Y-101324828D01*
X120331228Y-101324701D01*
X120348124Y-101287147D01*
X120362067Y-101249201D01*
X120373187Y-101209076D01*
X120381610Y-101164982D01*
X120387468Y-101115130D01*
X120390888Y-101057733D01*
X120391808Y-101002504D01*
X120395372Y-100994290D01*
X120403506Y-100991000D01*
X120680458Y-100991000D01*
X120688731Y-100994427D01*
G37*
%TD.AperFunction*%
%TD*%
%TA.AperFunction,Conductor*%
%TO.N,/CH10*%
G36*
X120550433Y-98959769D02*
G01*
X120761420Y-99179169D01*
X120764685Y-99187508D01*
X120763575Y-99192256D01*
X120749475Y-99222246D01*
X120734824Y-99256287D01*
X120722806Y-99288375D01*
X120713177Y-99319792D01*
X120705696Y-99351821D01*
X120700118Y-99385743D01*
X120696202Y-99422840D01*
X120693706Y-99464394D01*
X120693704Y-99464481D01*
X120692388Y-99511601D01*
X120692386Y-99511686D01*
X120692385Y-99511757D01*
X120692385Y-99511779D01*
X120692083Y-99554383D01*
X120688597Y-99562632D01*
X120680383Y-99566000D01*
X120403617Y-99566000D01*
X120395344Y-99562573D01*
X120391917Y-99554383D01*
X120391614Y-99511779D01*
X120391614Y-99511757D01*
X120391613Y-99511686D01*
X120390293Y-99464394D01*
X120387797Y-99422840D01*
X120383881Y-99385743D01*
X120378303Y-99351821D01*
X120370822Y-99319792D01*
X120361193Y-99288375D01*
X120349175Y-99256287D01*
X120334524Y-99222246D01*
X120320425Y-99192257D01*
X120320006Y-99183312D01*
X120322580Y-99179169D01*
X120533567Y-98959769D01*
X120541771Y-98956181D01*
X120550433Y-98959769D01*
G37*
%TD.AperFunction*%
%TD*%
%TA.AperFunction,Conductor*%
%TO.N,/PWM1*%
G36*
X116710013Y-107168736D02*
G01*
X116754370Y-107187573D01*
X116800298Y-107206940D01*
X116800328Y-107206952D01*
X116800342Y-107206958D01*
X116842376Y-107223772D01*
X116842505Y-107223818D01*
X116842510Y-107223820D01*
X116882293Y-107238039D01*
X116882304Y-107238043D01*
X116882445Y-107238093D01*
X116922520Y-107249998D01*
X116922704Y-107250040D01*
X116922716Y-107250043D01*
X116940449Y-107254077D01*
X116964572Y-107259565D01*
X116991534Y-107263847D01*
X117010391Y-107266842D01*
X117010398Y-107266843D01*
X117010575Y-107266871D01*
X117010757Y-107266889D01*
X117010765Y-107266890D01*
X117026129Y-107268406D01*
X117026727Y-107268465D01*
X117026729Y-107268465D01*
X117062499Y-107271994D01*
X117122317Y-107275011D01*
X117192000Y-107276000D01*
X117192000Y-107576000D01*
X117125421Y-107577111D01*
X117068174Y-107580525D01*
X117018465Y-107586358D01*
X117018271Y-107586395D01*
X117018264Y-107586396D01*
X116974715Y-107594686D01*
X116974704Y-107594689D01*
X116974497Y-107594728D01*
X116934474Y-107605752D01*
X116896600Y-107619548D01*
X116859080Y-107636234D01*
X116820118Y-107655926D01*
X116777919Y-107678743D01*
X116737829Y-107700862D01*
X116728930Y-107701858D01*
X116724519Y-107699463D01*
X116445403Y-107457796D01*
X116441391Y-107449790D01*
X116444522Y-107440953D01*
X116696902Y-107171507D01*
X116705059Y-107167811D01*
X116710013Y-107168736D01*
G37*
%TD.AperFunction*%
%TD*%
%TA.AperFunction,Conductor*%
%TO.N,/PWM1*%
G36*
X117238830Y-107206579D02*
G01*
X117458231Y-107417567D01*
X117461819Y-107425771D01*
X117458231Y-107434433D01*
X117266488Y-107618824D01*
X117238831Y-107645420D01*
X117230492Y-107648685D01*
X117225743Y-107647575D01*
X117195858Y-107633524D01*
X117195840Y-107633516D01*
X117195753Y-107633475D01*
X117195661Y-107633436D01*
X117195649Y-107633430D01*
X117161852Y-107618884D01*
X117161843Y-107618880D01*
X117161712Y-107618824D01*
X117149257Y-107614159D01*
X117129793Y-107606869D01*
X117129785Y-107606866D01*
X117129624Y-107606806D01*
X117129449Y-107606752D01*
X117129442Y-107606750D01*
X117098410Y-107597239D01*
X117098404Y-107597237D01*
X117098207Y-107597177D01*
X117098003Y-107597129D01*
X117097998Y-107597128D01*
X117087542Y-107594686D01*
X117066178Y-107589696D01*
X117032256Y-107584118D01*
X116995159Y-107580202D01*
X116953605Y-107577706D01*
X116906313Y-107576386D01*
X116852000Y-107576000D01*
X116852000Y-107276000D01*
X116906313Y-107275613D01*
X116953605Y-107274293D01*
X116995159Y-107271797D01*
X117026725Y-107268465D01*
X117026727Y-107268465D01*
X117032256Y-107267881D01*
X117032428Y-107267853D01*
X117032441Y-107267851D01*
X117052537Y-107264546D01*
X117066178Y-107262303D01*
X117089944Y-107256752D01*
X117097998Y-107254871D01*
X117098003Y-107254870D01*
X117098207Y-107254822D01*
X117098404Y-107254762D01*
X117098410Y-107254760D01*
X117129442Y-107245249D01*
X117129449Y-107245247D01*
X117129624Y-107245193D01*
X117129785Y-107245133D01*
X117129793Y-107245130D01*
X117149257Y-107237840D01*
X117161712Y-107233175D01*
X117161843Y-107233119D01*
X117161852Y-107233115D01*
X117195649Y-107218569D01*
X117195659Y-107218564D01*
X117195753Y-107218524D01*
X117225743Y-107204425D01*
X117234688Y-107204006D01*
X117238830Y-107206579D01*
G37*
%TD.AperFunction*%
%TD*%
%TA.AperFunction,Conductor*%
%TO.N,/PWM5*%
G36*
X119064259Y-101592875D02*
G01*
X119260125Y-101788741D01*
X119263552Y-101797014D01*
X119260265Y-101805144D01*
X119222444Y-101844278D01*
X119184851Y-101886693D01*
X119154215Y-101925452D01*
X119154097Y-101925625D01*
X119129399Y-101961701D01*
X119129391Y-101961714D01*
X119129271Y-101961889D01*
X119108756Y-101997338D01*
X119091406Y-102033133D01*
X119075958Y-102070608D01*
X119075930Y-102070686D01*
X119075924Y-102070700D01*
X119061147Y-102111097D01*
X119045711Y-102155933D01*
X119031040Y-102198710D01*
X119025115Y-102205424D01*
X119020202Y-102206612D01*
X118985268Y-102207295D01*
X118651099Y-102213828D01*
X118642760Y-102210563D01*
X118639172Y-102201901D01*
X118646388Y-101832798D01*
X118649976Y-101824594D01*
X118654290Y-101821960D01*
X118697066Y-101807288D01*
X118741902Y-101791852D01*
X118782299Y-101777075D01*
X118782313Y-101777069D01*
X118782391Y-101777041D01*
X118819866Y-101761593D01*
X118855661Y-101744243D01*
X118855848Y-101744135D01*
X118890912Y-101723843D01*
X118890920Y-101723838D01*
X118891110Y-101723728D01*
X118891285Y-101723608D01*
X118891298Y-101723600D01*
X118913614Y-101708322D01*
X118927547Y-101698784D01*
X118966306Y-101668148D01*
X119008721Y-101630555D01*
X119047855Y-101592735D01*
X119056186Y-101589450D01*
X119064259Y-101592875D01*
G37*
%TD.AperFunction*%
%TD*%
%TA.AperFunction,Conductor*%
%TO.N,/PWM5*%
G36*
X119750433Y-98959769D02*
G01*
X119961420Y-99179169D01*
X119964685Y-99187508D01*
X119963575Y-99192256D01*
X119949475Y-99222246D01*
X119934824Y-99256287D01*
X119922806Y-99288375D01*
X119913177Y-99319792D01*
X119905696Y-99351821D01*
X119900118Y-99385743D01*
X119896202Y-99422840D01*
X119893706Y-99464394D01*
X119893704Y-99464481D01*
X119892388Y-99511601D01*
X119892386Y-99511686D01*
X119892385Y-99511757D01*
X119892385Y-99511779D01*
X119892083Y-99554383D01*
X119888597Y-99562632D01*
X119880383Y-99566000D01*
X119603617Y-99566000D01*
X119595344Y-99562573D01*
X119591917Y-99554383D01*
X119591614Y-99511779D01*
X119591614Y-99511757D01*
X119591613Y-99511686D01*
X119590293Y-99464394D01*
X119587797Y-99422840D01*
X119583881Y-99385743D01*
X119578303Y-99351821D01*
X119570822Y-99319792D01*
X119561193Y-99288375D01*
X119549175Y-99256287D01*
X119534524Y-99222246D01*
X119520425Y-99192257D01*
X119520006Y-99183312D01*
X119522580Y-99179169D01*
X119733567Y-98959769D01*
X119741771Y-98956181D01*
X119750433Y-98959769D01*
G37*
%TD.AperFunction*%
%TD*%
%TA.AperFunction,Conductor*%
%TO.N,/PWM6*%
G36*
X119087444Y-100651628D02*
G01*
X119090871Y-100659901D01*
X119090822Y-100660975D01*
X119087668Y-100695184D01*
X119085875Y-100714624D01*
X119085412Y-100716975D01*
X119081306Y-100730375D01*
X119069188Y-100769922D01*
X119068265Y-100772111D01*
X119044356Y-100815799D01*
X119043300Y-100817400D01*
X119013965Y-100854820D01*
X119013207Y-100855694D01*
X118980763Y-100889572D01*
X118980585Y-100889755D01*
X118947688Y-100922616D01*
X118917400Y-100956767D01*
X118892458Y-100994870D01*
X118875532Y-101039647D01*
X118875450Y-101040360D01*
X118875449Y-101040364D01*
X118870213Y-101085864D01*
X118865863Y-101093691D01*
X118861547Y-101095846D01*
X118478188Y-101195981D01*
X118469317Y-101194756D01*
X118463911Y-101187618D01*
X118463533Y-101184432D01*
X118470662Y-100819831D01*
X118474250Y-100811627D01*
X118475234Y-100810780D01*
X118476380Y-100809900D01*
X118480503Y-100807872D01*
X118512254Y-100799439D01*
X118513511Y-100799178D01*
X118534365Y-100796031D01*
X118556140Y-100792745D01*
X118556765Y-100792668D01*
X118578797Y-100790586D01*
X118600119Y-100788571D01*
X118600169Y-100788566D01*
X118642622Y-100784738D01*
X118682404Y-100779070D01*
X118682748Y-100778977D01*
X118682753Y-100778976D01*
X118700658Y-100774138D01*
X118718107Y-100769423D01*
X118748325Y-100753654D01*
X118748973Y-100752987D01*
X118748975Y-100752985D01*
X118770920Y-100730375D01*
X118771651Y-100729622D01*
X118786678Y-100695184D01*
X118790824Y-100658584D01*
X118795161Y-100650749D01*
X118802450Y-100648201D01*
X119079171Y-100648201D01*
X119087444Y-100651628D01*
G37*
%TD.AperFunction*%
%TD*%
%TA.AperFunction,Conductor*%
%TO.N,/PWM6*%
G36*
X118950433Y-98959769D02*
G01*
X119161420Y-99179169D01*
X119164685Y-99187508D01*
X119163575Y-99192256D01*
X119149475Y-99222246D01*
X119134824Y-99256287D01*
X119122806Y-99288375D01*
X119113177Y-99319792D01*
X119105696Y-99351821D01*
X119100118Y-99385743D01*
X119096202Y-99422840D01*
X119093706Y-99464394D01*
X119093704Y-99464481D01*
X119092388Y-99511601D01*
X119092386Y-99511686D01*
X119092385Y-99511757D01*
X119092385Y-99511779D01*
X119092083Y-99554383D01*
X119088597Y-99562632D01*
X119080383Y-99566000D01*
X118803617Y-99566000D01*
X118795344Y-99562573D01*
X118791917Y-99554383D01*
X118791614Y-99511779D01*
X118791614Y-99511757D01*
X118791613Y-99511686D01*
X118790293Y-99464394D01*
X118787797Y-99422840D01*
X118783881Y-99385743D01*
X118778303Y-99351821D01*
X118770822Y-99319792D01*
X118761193Y-99288375D01*
X118749175Y-99256287D01*
X118734524Y-99222246D01*
X118720425Y-99192257D01*
X118720006Y-99183312D01*
X118722580Y-99179169D01*
X118933567Y-98959769D01*
X118941771Y-98956181D01*
X118950433Y-98959769D01*
G37*
%TD.AperFunction*%
%TD*%
%TA.AperFunction,Conductor*%
%TO.N,/PWM7*%
G36*
X118288811Y-99737924D02*
G01*
X118292236Y-99745956D01*
X118293268Y-99796063D01*
X118297163Y-99849127D01*
X118303816Y-99895223D01*
X118313360Y-99935885D01*
X118313454Y-99936160D01*
X118313456Y-99936167D01*
X118325831Y-99972369D01*
X118325926Y-99972646D01*
X118341647Y-100007041D01*
X118360655Y-100040604D01*
X118383082Y-100074869D01*
X118383144Y-100074956D01*
X118383148Y-100074962D01*
X118400995Y-100100037D01*
X118409060Y-100111369D01*
X118433899Y-100145091D01*
X118436047Y-100153784D01*
X118434264Y-100158443D01*
X118231861Y-100467247D01*
X118224460Y-100472288D01*
X118215285Y-100470360D01*
X117914680Y-100256081D01*
X117909932Y-100248489D01*
X117910198Y-100243423D01*
X117923684Y-100194874D01*
X117923703Y-100194806D01*
X117937832Y-100145094D01*
X117937850Y-100145031D01*
X117950370Y-100100037D01*
X117950375Y-100100019D01*
X117961282Y-100057552D01*
X117961299Y-100057486D01*
X117961312Y-100057428D01*
X117970579Y-100015390D01*
X117970582Y-100015375D01*
X117970600Y-100015293D01*
X117972075Y-100006814D01*
X117978232Y-99971428D01*
X117978235Y-99971407D01*
X117978252Y-99971310D01*
X117984238Y-99923387D01*
X117986501Y-99894956D01*
X117988529Y-99869483D01*
X117988530Y-99869459D01*
X117988537Y-99869376D01*
X117991131Y-99807129D01*
X117991862Y-99746057D01*
X117995387Y-99737825D01*
X118003561Y-99734497D01*
X118280538Y-99734497D01*
X118288811Y-99737924D01*
G37*
%TD.AperFunction*%
%TD*%
%TA.AperFunction,Conductor*%
%TO.N,/PWM7*%
G36*
X118150433Y-98959769D02*
G01*
X118361420Y-99179169D01*
X118364685Y-99187508D01*
X118363575Y-99192256D01*
X118349475Y-99222246D01*
X118334824Y-99256287D01*
X118322806Y-99288375D01*
X118313177Y-99319792D01*
X118305696Y-99351821D01*
X118300118Y-99385743D01*
X118296202Y-99422840D01*
X118293706Y-99464394D01*
X118293704Y-99464481D01*
X118292388Y-99511601D01*
X118292386Y-99511686D01*
X118292385Y-99511757D01*
X118292385Y-99511779D01*
X118292083Y-99554383D01*
X118288597Y-99562632D01*
X118280383Y-99566000D01*
X118003617Y-99566000D01*
X117995344Y-99562573D01*
X117991917Y-99554383D01*
X117991614Y-99511779D01*
X117991614Y-99511757D01*
X117991613Y-99511686D01*
X117990293Y-99464394D01*
X117987797Y-99422840D01*
X117983881Y-99385743D01*
X117978303Y-99351821D01*
X117970822Y-99319792D01*
X117961193Y-99288375D01*
X117949175Y-99256287D01*
X117934524Y-99222246D01*
X117920425Y-99192257D01*
X117920006Y-99183312D01*
X117922580Y-99179169D01*
X118133567Y-98959769D01*
X118141771Y-98956181D01*
X118150433Y-98959769D01*
G37*
%TD.AperFunction*%
%TD*%
%TA.AperFunction,Conductor*%
%TO.N,/PWM8*%
G36*
X117488769Y-99737427D02*
G01*
X117492194Y-99745502D01*
X117493117Y-99800131D01*
X117496522Y-99856929D01*
X117502291Y-99906215D01*
X117510500Y-99949808D01*
X117521226Y-99989530D01*
X117521293Y-99989719D01*
X117521295Y-99989726D01*
X117534483Y-100027023D01*
X117534546Y-100027201D01*
X117534617Y-100027367D01*
X117534620Y-100027375D01*
X117540630Y-100041446D01*
X117550536Y-100064642D01*
X117569272Y-100103673D01*
X117569324Y-100103775D01*
X117590833Y-100146115D01*
X117611563Y-100186517D01*
X117612291Y-100195442D01*
X117609750Y-100199792D01*
X117398358Y-100428724D01*
X117359293Y-100471030D01*
X117351163Y-100474784D01*
X117342430Y-100471372D01*
X117081196Y-100210513D01*
X117077763Y-100202242D01*
X117078849Y-100197310D01*
X117098353Y-100155266D01*
X117118635Y-100111369D01*
X117118648Y-100111340D01*
X117136252Y-100071285D01*
X117136258Y-100071270D01*
X117136311Y-100071150D01*
X117151438Y-100032723D01*
X117164077Y-99994197D01*
X117165306Y-99989322D01*
X117174234Y-99953890D01*
X117174286Y-99953684D01*
X117182124Y-99909297D01*
X117187650Y-99859146D01*
X117187767Y-99857082D01*
X117190914Y-99801491D01*
X117190915Y-99801472D01*
X117190922Y-99801343D01*
X117191816Y-99745513D01*
X117195375Y-99737295D01*
X117203515Y-99734000D01*
X117480496Y-99734000D01*
X117488769Y-99737427D01*
G37*
%TD.AperFunction*%
%TD*%
%TA.AperFunction,Conductor*%
%TO.N,/PWM8*%
G36*
X117350433Y-98959769D02*
G01*
X117561420Y-99179169D01*
X117564685Y-99187508D01*
X117563575Y-99192256D01*
X117549475Y-99222246D01*
X117534824Y-99256287D01*
X117522806Y-99288375D01*
X117513177Y-99319792D01*
X117505696Y-99351821D01*
X117500118Y-99385743D01*
X117496202Y-99422840D01*
X117493706Y-99464394D01*
X117493704Y-99464481D01*
X117492388Y-99511601D01*
X117492386Y-99511686D01*
X117492385Y-99511757D01*
X117492385Y-99511779D01*
X117492083Y-99554383D01*
X117488597Y-99562632D01*
X117480383Y-99566000D01*
X117203617Y-99566000D01*
X117195344Y-99562573D01*
X117191917Y-99554383D01*
X117191614Y-99511779D01*
X117191614Y-99511757D01*
X117191613Y-99511686D01*
X117190293Y-99464394D01*
X117187797Y-99422840D01*
X117183881Y-99385743D01*
X117178303Y-99351821D01*
X117170822Y-99319792D01*
X117161193Y-99288375D01*
X117149175Y-99256287D01*
X117134524Y-99222246D01*
X117120425Y-99192257D01*
X117120006Y-99183312D01*
X117122580Y-99179169D01*
X117333567Y-98959769D01*
X117341771Y-98956181D01*
X117350433Y-98959769D01*
G37*
%TD.AperFunction*%
%TD*%
%TA.AperFunction,Conductor*%
%TO.N,/TXD*%
G36*
X125182989Y-101761319D02*
G01*
X125378335Y-101895942D01*
X125487007Y-101970834D01*
X125491875Y-101978350D01*
X125489735Y-101987478D01*
X125327295Y-102204517D01*
X125268531Y-102283032D01*
X125260830Y-102287602D01*
X125255781Y-102287221D01*
X125207710Y-102272692D01*
X125207665Y-102272678D01*
X125188276Y-102266732D01*
X125158475Y-102257593D01*
X125113794Y-102244289D01*
X125113721Y-102244269D01*
X125071665Y-102232809D01*
X125071649Y-102232805D01*
X125071539Y-102232775D01*
X125071426Y-102232749D01*
X125071407Y-102232744D01*
X125029742Y-102223081D01*
X125029744Y-102223081D01*
X125029587Y-102223045D01*
X125029460Y-102223022D01*
X125029446Y-102223019D01*
X124985962Y-102215123D01*
X124985960Y-102215123D01*
X124985813Y-102215096D01*
X124985659Y-102215076D01*
X124985652Y-102215075D01*
X124938258Y-102208942D01*
X124938238Y-102208940D01*
X124938092Y-102208921D01*
X124937937Y-102208908D01*
X124937934Y-102208908D01*
X124884413Y-102204526D01*
X124884399Y-102204525D01*
X124884299Y-102204517D01*
X124822309Y-102201878D01*
X124822232Y-102201877D01*
X124822230Y-102201877D01*
X124818485Y-102201832D01*
X124749997Y-102201000D01*
X124749997Y-101901000D01*
X124765116Y-101900700D01*
X124765132Y-101900700D01*
X124812498Y-101899760D01*
X124812505Y-101899760D01*
X124812640Y-101899757D01*
X124812775Y-101899747D01*
X124812785Y-101899747D01*
X124866426Y-101895955D01*
X124866610Y-101895942D01*
X124866787Y-101895917D01*
X124866800Y-101895916D01*
X124905412Y-101890543D01*
X124913492Y-101889419D01*
X124913725Y-101889366D01*
X124913732Y-101889365D01*
X124954598Y-101880116D01*
X124954607Y-101880114D01*
X124954870Y-101880054D01*
X124973923Y-101873778D01*
X124992075Y-101867799D01*
X124992081Y-101867797D01*
X124992329Y-101867715D01*
X124992575Y-101867607D01*
X125027228Y-101852365D01*
X125027237Y-101852361D01*
X125027452Y-101852266D01*
X125061826Y-101833574D01*
X125061966Y-101833486D01*
X125061975Y-101833481D01*
X125076226Y-101824548D01*
X125097033Y-101811505D01*
X125134659Y-101785925D01*
X125146318Y-101777740D01*
X125169628Y-101761377D01*
X125178368Y-101759428D01*
X125182989Y-101761319D01*
G37*
%TD.AperFunction*%
%TD*%
%TA.AperFunction,Conductor*%
%TO.N,/TXD*%
G36*
X124433257Y-101829425D02*
G01*
X124463246Y-101843524D01*
X124463340Y-101843564D01*
X124463350Y-101843569D01*
X124497147Y-101858115D01*
X124497156Y-101858119D01*
X124497287Y-101858175D01*
X124509742Y-101862840D01*
X124529206Y-101870130D01*
X124529214Y-101870133D01*
X124529375Y-101870193D01*
X124529550Y-101870247D01*
X124529557Y-101870249D01*
X124560589Y-101879760D01*
X124560595Y-101879762D01*
X124560792Y-101879822D01*
X124560996Y-101879870D01*
X124561001Y-101879871D01*
X124569716Y-101881906D01*
X124592821Y-101887303D01*
X124621027Y-101891941D01*
X124626566Y-101892852D01*
X124626570Y-101892852D01*
X124626743Y-101892881D01*
X124626912Y-101892899D01*
X124626928Y-101892901D01*
X124647228Y-101895043D01*
X124663840Y-101896797D01*
X124678470Y-101897676D01*
X124705321Y-101899289D01*
X124705338Y-101899290D01*
X124705394Y-101899293D01*
X124730683Y-101899999D01*
X124752601Y-101900611D01*
X124752686Y-101900613D01*
X124752757Y-101900614D01*
X124752779Y-101900614D01*
X124757052Y-101900644D01*
X124807000Y-101901000D01*
X124807000Y-102201000D01*
X124767157Y-102201283D01*
X124752779Y-102201385D01*
X124752757Y-102201385D01*
X124752686Y-102201386D01*
X124752601Y-102201388D01*
X124730683Y-102202000D01*
X124705394Y-102202706D01*
X124705338Y-102202709D01*
X124705321Y-102202710D01*
X124678470Y-102204323D01*
X124663840Y-102205202D01*
X124647228Y-102206956D01*
X124626928Y-102209098D01*
X124626912Y-102209100D01*
X124626743Y-102209118D01*
X124626570Y-102209147D01*
X124626566Y-102209147D01*
X124621027Y-102210058D01*
X124592821Y-102214696D01*
X124569716Y-102220093D01*
X124561001Y-102222128D01*
X124560996Y-102222129D01*
X124560792Y-102222177D01*
X124560595Y-102222237D01*
X124560589Y-102222239D01*
X124529557Y-102231750D01*
X124529550Y-102231752D01*
X124529375Y-102231806D01*
X124529214Y-102231866D01*
X124529206Y-102231869D01*
X124509742Y-102239159D01*
X124497287Y-102243824D01*
X124497156Y-102243880D01*
X124497147Y-102243884D01*
X124463350Y-102258430D01*
X124463338Y-102258436D01*
X124463246Y-102258475D01*
X124463159Y-102258516D01*
X124463141Y-102258524D01*
X124433257Y-102272575D01*
X124424312Y-102272994D01*
X124420169Y-102270420D01*
X124392513Y-102243824D01*
X124200769Y-102059433D01*
X124197181Y-102051229D01*
X124200769Y-102042567D01*
X124420170Y-101831580D01*
X124428508Y-101828315D01*
X124433257Y-101829425D01*
G37*
%TD.AperFunction*%
%TD*%
%TA.AperFunction,Conductor*%
%TO.N,/RXD*%
G36*
X125224586Y-102586958D02*
G01*
X125342768Y-102701000D01*
X125490244Y-102843310D01*
X125493818Y-102851520D01*
X125490215Y-102860176D01*
X125223676Y-103115613D01*
X125215334Y-103118862D01*
X125210424Y-103117666D01*
X125169821Y-103097720D01*
X125127217Y-103076866D01*
X125115199Y-103071269D01*
X125088250Y-103058719D01*
X125088228Y-103058710D01*
X125088122Y-103058660D01*
X125050698Y-103043051D01*
X125050523Y-103042990D01*
X125013306Y-103030052D01*
X125013295Y-103030049D01*
X125013112Y-103029985D01*
X125012923Y-103029934D01*
X125012918Y-103029933D01*
X125002531Y-103027159D01*
X124973528Y-103019412D01*
X124955293Y-103015996D01*
X124930294Y-103011312D01*
X124930281Y-103011310D01*
X124930110Y-103011278D01*
X124881023Y-103005533D01*
X124846527Y-103003455D01*
X124824567Y-103002132D01*
X124824558Y-103002132D01*
X124824431Y-103002124D01*
X124824303Y-103002122D01*
X124824282Y-103002121D01*
X124775216Y-103001285D01*
X124772770Y-103001243D01*
X124772759Y-103001243D01*
X124758500Y-103001000D01*
X124758500Y-102701000D01*
X124772810Y-102700757D01*
X124772829Y-102700757D01*
X124776606Y-102700693D01*
X124824379Y-102699881D01*
X124824395Y-102699880D01*
X124824534Y-102699878D01*
X124839627Y-102698973D01*
X124881051Y-102696489D01*
X124881063Y-102696488D01*
X124881212Y-102696479D01*
X124881366Y-102696461D01*
X124881378Y-102696460D01*
X124930170Y-102690777D01*
X124930180Y-102690776D01*
X124930373Y-102690753D01*
X124973858Y-102682650D01*
X124974073Y-102682593D01*
X125013305Y-102672173D01*
X125013319Y-102672169D01*
X125013510Y-102672118D01*
X125013698Y-102672053D01*
X125013708Y-102672050D01*
X125051015Y-102659161D01*
X125051019Y-102659159D01*
X125051168Y-102659108D01*
X125062813Y-102654283D01*
X125088555Y-102643619D01*
X125088566Y-102643614D01*
X125088675Y-102643569D01*
X125127872Y-102625451D01*
X125170599Y-102604703D01*
X125211342Y-102584859D01*
X125220279Y-102584317D01*
X125224586Y-102586958D01*
G37*
%TD.AperFunction*%
%TD*%
%TA.AperFunction,Conductor*%
%TO.N,/RXD*%
G36*
X124433257Y-102629425D02*
G01*
X124463246Y-102643524D01*
X124463340Y-102643564D01*
X124463350Y-102643569D01*
X124497147Y-102658115D01*
X124497156Y-102658119D01*
X124497287Y-102658175D01*
X124509742Y-102662840D01*
X124529206Y-102670130D01*
X124529214Y-102670133D01*
X124529375Y-102670193D01*
X124529550Y-102670247D01*
X124529557Y-102670249D01*
X124560589Y-102679760D01*
X124560595Y-102679762D01*
X124560792Y-102679822D01*
X124560996Y-102679870D01*
X124561001Y-102679871D01*
X124569716Y-102681906D01*
X124592821Y-102687303D01*
X124621027Y-102691941D01*
X124626566Y-102692852D01*
X124626570Y-102692852D01*
X124626743Y-102692881D01*
X124626912Y-102692899D01*
X124626928Y-102692901D01*
X124647228Y-102695043D01*
X124663840Y-102696797D01*
X124678470Y-102697676D01*
X124705321Y-102699289D01*
X124705338Y-102699290D01*
X124705394Y-102699293D01*
X124731594Y-102700024D01*
X124752602Y-102700611D01*
X124752686Y-102700613D01*
X124752759Y-102700614D01*
X124752780Y-102700614D01*
X124761694Y-102700677D01*
X124772829Y-102700757D01*
X124772849Y-102700757D01*
X124807000Y-102701000D01*
X124807000Y-103001000D01*
X124772781Y-103001243D01*
X124772770Y-103001243D01*
X124761784Y-103001321D01*
X124752779Y-103001385D01*
X124752757Y-103001385D01*
X124752686Y-103001386D01*
X124752601Y-103001388D01*
X124730683Y-103002000D01*
X124705394Y-103002706D01*
X124705338Y-103002709D01*
X124705321Y-103002710D01*
X124678470Y-103004323D01*
X124663840Y-103005202D01*
X124647228Y-103006956D01*
X124626928Y-103009098D01*
X124626912Y-103009100D01*
X124626743Y-103009118D01*
X124626570Y-103009147D01*
X124626566Y-103009147D01*
X124621027Y-103010058D01*
X124592821Y-103014696D01*
X124569716Y-103020093D01*
X124561001Y-103022128D01*
X124560996Y-103022129D01*
X124560792Y-103022177D01*
X124560595Y-103022237D01*
X124560589Y-103022239D01*
X124529557Y-103031750D01*
X124529550Y-103031752D01*
X124529375Y-103031806D01*
X124529214Y-103031866D01*
X124529206Y-103031869D01*
X124509742Y-103039159D01*
X124497287Y-103043824D01*
X124497156Y-103043880D01*
X124497147Y-103043884D01*
X124463350Y-103058430D01*
X124463338Y-103058436D01*
X124463246Y-103058475D01*
X124463159Y-103058516D01*
X124463141Y-103058524D01*
X124433257Y-103072575D01*
X124424312Y-103072994D01*
X124420169Y-103070420D01*
X124392513Y-103043824D01*
X124200769Y-102859433D01*
X124197181Y-102851229D01*
X124200769Y-102842567D01*
X124420170Y-102631580D01*
X124428508Y-102628315D01*
X124433257Y-102629425D01*
G37*
%TD.AperFunction*%
%TD*%
%TA.AperFunction,Conductor*%
%TO.N,GND*%
G36*
X126847128Y-103851556D02*
G01*
X126661143Y-103949330D01*
X126546154Y-104009781D01*
X126308362Y-104134790D01*
X126299445Y-104135607D01*
X126295172Y-104133202D01*
X126245382Y-104089215D01*
X126245312Y-104089157D01*
X126245291Y-104089139D01*
X126193710Y-104046504D01*
X126193700Y-104046496D01*
X126193580Y-104046397D01*
X126193464Y-104046312D01*
X126193449Y-104046300D01*
X126143967Y-104009923D01*
X126143774Y-104009781D01*
X126093921Y-103979056D01*
X126074166Y-103969492D01*
X126042268Y-103954049D01*
X126042262Y-103954046D01*
X126041980Y-103953910D01*
X126007814Y-103941798D01*
X125986204Y-103934137D01*
X125986200Y-103934136D01*
X125985910Y-103934033D01*
X125961557Y-103928196D01*
X125923919Y-103919175D01*
X125923916Y-103919174D01*
X125923668Y-103919115D01*
X125853213Y-103908844D01*
X125821895Y-103906541D01*
X125772659Y-103902920D01*
X125772644Y-103902919D01*
X125772504Y-103902909D01*
X125772372Y-103902906D01*
X125772366Y-103902906D01*
X125690960Y-103901235D01*
X125682759Y-103897639D01*
X125679500Y-103889537D01*
X125679500Y-103412623D01*
X125682927Y-103404350D01*
X125691122Y-103400923D01*
X125717573Y-103400747D01*
X125799427Y-103400204D01*
X125880551Y-103398310D01*
X125902383Y-103397801D01*
X125902389Y-103397801D01*
X125902465Y-103397799D01*
X125958596Y-103395268D01*
X125992033Y-103393760D01*
X125992048Y-103393759D01*
X125992117Y-103393756D01*
X125992195Y-103393750D01*
X125992202Y-103393750D01*
X126006743Y-103392710D01*
X126071884Y-103388049D01*
X126145269Y-103380648D01*
X126145364Y-103380636D01*
X126145388Y-103380633D01*
X126215728Y-103371533D01*
X126215741Y-103371531D01*
X126215773Y-103371527D01*
X126286899Y-103360658D01*
X126362148Y-103348012D01*
X126445022Y-103333563D01*
X126445035Y-103333561D01*
X126499072Y-103324202D01*
X126499075Y-103324201D01*
X126499544Y-103324120D01*
X126499545Y-103324120D01*
X126539024Y-103317282D01*
X126847128Y-103851556D01*
G37*
%TD.AperFunction*%
%TD*%
%TA.AperFunction,Conductor*%
%TO.N,+3V3*%
G36*
X125766490Y-105001175D02*
G01*
X125865999Y-105001966D01*
X125970342Y-105004588D01*
X126061124Y-105008452D01*
X126141942Y-105013144D01*
X126216392Y-105018250D01*
X126288071Y-105023356D01*
X126360574Y-105028047D01*
X126437500Y-105031912D01*
X126522442Y-105034534D01*
X126619000Y-105035500D01*
X126818170Y-105639873D01*
X126212496Y-105756221D01*
X126192637Y-105724981D01*
X126180246Y-105705487D01*
X126180237Y-105705474D01*
X126180157Y-105705348D01*
X126147643Y-105660579D01*
X126146676Y-105659468D01*
X126128587Y-105638699D01*
X126113815Y-105621738D01*
X126113575Y-105621519D01*
X126113570Y-105621514D01*
X126077820Y-105588909D01*
X126077533Y-105588647D01*
X126037658Y-105561131D01*
X126037279Y-105560943D01*
X125993418Y-105539195D01*
X125993412Y-105539193D01*
X125993050Y-105539013D01*
X125942570Y-105522118D01*
X125942226Y-105522047D01*
X125885359Y-105510326D01*
X125885357Y-105510326D01*
X125885077Y-105510268D01*
X125884790Y-105510238D01*
X125884787Y-105510237D01*
X125839894Y-105505463D01*
X125819434Y-105503287D01*
X125819230Y-105503281D01*
X125819219Y-105503280D01*
X125755843Y-105501346D01*
X125747678Y-105497668D01*
X125744500Y-105489651D01*
X125744500Y-105012794D01*
X125747927Y-105004521D01*
X125756293Y-105001094D01*
X125766490Y-105001175D01*
G37*
%TD.AperFunction*%
%TD*%
%TA.AperFunction,Conductor*%
%TO.N,+3V3*%
G36*
X126135832Y-104673556D02*
G01*
X126173705Y-104710405D01*
X126203258Y-104739159D01*
X126270778Y-104800336D01*
X126270872Y-104800413D01*
X126332120Y-104850755D01*
X126332134Y-104850766D01*
X126332273Y-104850880D01*
X126389897Y-104892635D01*
X126445801Y-104927444D01*
X126502139Y-104957150D01*
X126536874Y-104972740D01*
X126560942Y-104983542D01*
X126560953Y-104983547D01*
X126561063Y-104983596D01*
X126561165Y-104983636D01*
X126561179Y-104983642D01*
X126602054Y-104999712D01*
X126624727Y-105008626D01*
X126695282Y-105034082D01*
X126767192Y-105059129D01*
X126773878Y-105065086D01*
X126775042Y-105069949D01*
X126786937Y-105678437D01*
X126170308Y-105666383D01*
X126142582Y-105586782D01*
X126117126Y-105516227D01*
X126092096Y-105452563D01*
X126065650Y-105393639D01*
X126035944Y-105337301D01*
X126001135Y-105281397D01*
X125959380Y-105223773D01*
X125908836Y-105162278D01*
X125847659Y-105094758D01*
X125774008Y-105019061D01*
X126119400Y-104673669D01*
X126127673Y-104670242D01*
X126135832Y-104673556D01*
G37*
%TD.AperFunction*%
%TD*%
%TA.AperFunction,Conductor*%
%TO.N,+3V3*%
G36*
X116194756Y-110386837D02*
G01*
X116229341Y-110421927D01*
X116265278Y-110458391D01*
X116265372Y-110458487D01*
X116338297Y-110534199D01*
X116338345Y-110534250D01*
X116405677Y-110605000D01*
X116467829Y-110670201D01*
X116525095Y-110729139D01*
X116525142Y-110729186D01*
X116568023Y-110771490D01*
X116577816Y-110781151D01*
X116577888Y-110781216D01*
X116577909Y-110781237D01*
X116626204Y-110825456D01*
X116626334Y-110825575D01*
X116646893Y-110842228D01*
X116670768Y-110861568D01*
X116670776Y-110861574D01*
X116670991Y-110861748D01*
X116712128Y-110889008D01*
X116728567Y-110896666D01*
X116743473Y-110903611D01*
X116749525Y-110910211D01*
X116750230Y-110913986D01*
X116762776Y-111555776D01*
X116120987Y-111543230D01*
X116112784Y-111539642D01*
X116110611Y-111536473D01*
X116096188Y-111505515D01*
X116096008Y-111505128D01*
X116068748Y-111463991D01*
X116068574Y-111463776D01*
X116068568Y-111463768D01*
X116049228Y-111439893D01*
X116032575Y-111419334D01*
X116032456Y-111419204D01*
X115988237Y-111370909D01*
X115988216Y-111370888D01*
X115988151Y-111370816D01*
X115978490Y-111361023D01*
X115936186Y-111318142D01*
X115936139Y-111318095D01*
X115877201Y-111260829D01*
X115812000Y-111198677D01*
X115741250Y-111131345D01*
X115741199Y-111131297D01*
X115665487Y-111058372D01*
X115665391Y-111058278D01*
X115628927Y-111022341D01*
X115593837Y-110987756D01*
X115590351Y-110979510D01*
X115593778Y-110971152D01*
X116178152Y-110386778D01*
X116186425Y-110383351D01*
X116194756Y-110386837D01*
G37*
%TD.AperFunction*%
%TD*%
%TA.AperFunction,Conductor*%
%TO.N,+3V3*%
G36*
X113774893Y-108148834D02*
G01*
X113885623Y-108166755D01*
X113888239Y-108167499D01*
X113995552Y-108212052D01*
X113998212Y-108213594D01*
X114090100Y-108284470D01*
X114094558Y-108292236D01*
X114092218Y-108300880D01*
X114091227Y-108302007D01*
X113506745Y-108886489D01*
X113498472Y-108889916D01*
X113491488Y-108887603D01*
X113474265Y-108874788D01*
X113447059Y-108854544D01*
X113446144Y-108854249D01*
X113446143Y-108854248D01*
X113427711Y-108848297D01*
X113392485Y-108836923D01*
X113391569Y-108836923D01*
X113361599Y-108836936D01*
X113337120Y-108836946D01*
X113305975Y-108844795D01*
X113282702Y-108850659D01*
X113282699Y-108850660D01*
X113282207Y-108850784D01*
X113281741Y-108850993D01*
X113281740Y-108850993D01*
X113274471Y-108854248D01*
X113228992Y-108874611D01*
X113178719Y-108904599D01*
X113132633Y-108936919D01*
X113132557Y-108936977D01*
X113132551Y-108936981D01*
X113092025Y-108967710D01*
X113091979Y-108967744D01*
X113058387Y-108992957D01*
X113057594Y-108993502D01*
X113039685Y-109004742D01*
X113030856Y-109006237D01*
X113025356Y-109003265D01*
X112988384Y-108967710D01*
X112575142Y-108570315D01*
X112571554Y-108562111D01*
X112574819Y-108553772D01*
X112577338Y-108551787D01*
X113162282Y-108209135D01*
X113171153Y-108207910D01*
X113173099Y-108208607D01*
X113210384Y-108225814D01*
X113210385Y-108225814D01*
X113211570Y-108226361D01*
X113247279Y-108225962D01*
X113274687Y-108225656D01*
X113274691Y-108225656D01*
X113275195Y-108225650D01*
X113275689Y-108225559D01*
X113275694Y-108225558D01*
X113355062Y-108210849D01*
X113355076Y-108210846D01*
X113355184Y-108210826D01*
X113448204Y-108188823D01*
X113448369Y-108188786D01*
X113550872Y-108166580D01*
X113551675Y-108166436D01*
X113660160Y-108150912D01*
X113661585Y-108150796D01*
X113767078Y-108148795D01*
X113772802Y-108148686D01*
X113774893Y-108148834D01*
G37*
%TD.AperFunction*%
%TD*%
%TA.AperFunction,Conductor*%
%TO.N,+3V3*%
G36*
X116944992Y-111028484D02*
G01*
X116981925Y-111049109D01*
X116981928Y-111049110D01*
X116982825Y-111049611D01*
X117013884Y-111054568D01*
X117044112Y-111059392D01*
X117044114Y-111059392D01*
X117044539Y-111059460D01*
X117082084Y-111059832D01*
X117121600Y-111060223D01*
X117121616Y-111060223D01*
X117121736Y-111060224D01*
X117121846Y-111060220D01*
X117121864Y-111060220D01*
X117194106Y-111057734D01*
X117211379Y-111057140D01*
X117211558Y-111057135D01*
X117225581Y-111056894D01*
X117258626Y-111056327D01*
X117258627Y-111056327D01*
X117260185Y-111056300D01*
X117266934Y-111056184D01*
X117310396Y-111055437D01*
X117311118Y-111055448D01*
X117416039Y-111060309D01*
X117417262Y-111060430D01*
X117525386Y-111076963D01*
X117527044Y-111077342D01*
X117567706Y-111089818D01*
X117635471Y-111110610D01*
X117637435Y-111111414D01*
X117690257Y-111138871D01*
X117690258Y-111138871D01*
X117744497Y-111167065D01*
X117847291Y-111250751D01*
X117253605Y-111844437D01*
X117245332Y-111847864D01*
X117238086Y-111845350D01*
X117187976Y-111805825D01*
X117187403Y-111805373D01*
X117186738Y-111805077D01*
X117186736Y-111805076D01*
X117179941Y-111802054D01*
X117125793Y-111777967D01*
X117062886Y-111766411D01*
X117000144Y-111767541D01*
X116939033Y-111778194D01*
X116881017Y-111795207D01*
X116827560Y-111815415D01*
X116780125Y-111835657D01*
X116740178Y-111852769D01*
X116717537Y-111860672D01*
X116708599Y-111860164D01*
X116707556Y-111859593D01*
X116705609Y-111858396D01*
X116341088Y-111328820D01*
X116754245Y-111119383D01*
X116758836Y-111117056D01*
X116933998Y-111028263D01*
X116942927Y-111027579D01*
X116944992Y-111028484D01*
G37*
%TD.AperFunction*%
%TD*%
%TA.AperFunction,Conductor*%
%TO.N,+3V3*%
G36*
X117266562Y-111055830D02*
G01*
X117712500Y-111479500D01*
X117168211Y-111798337D01*
X117168210Y-111798337D01*
X117140825Y-111814379D01*
X117137195Y-111815759D01*
X117134563Y-111816283D01*
X117122363Y-111818711D01*
X117122271Y-111818732D01*
X117122266Y-111818733D01*
X117078117Y-111828785D01*
X117077725Y-111828867D01*
X117010799Y-111841712D01*
X117010191Y-111841813D01*
X116925072Y-111853539D01*
X116924266Y-111853621D01*
X116825706Y-111860300D01*
X116824668Y-111860324D01*
X116716668Y-111858046D01*
X116704208Y-111856360D01*
X116701758Y-111856029D01*
X116701757Y-111856028D01*
X116638683Y-111847496D01*
X116604613Y-111842886D01*
X116602971Y-111842543D01*
X116492184Y-111810852D01*
X116490228Y-111810097D01*
X116384643Y-111758016D01*
X116382541Y-111756684D01*
X116295741Y-111687678D01*
X116291400Y-111679850D01*
X116293865Y-111671241D01*
X116294751Y-111670249D01*
X116886520Y-111078480D01*
X116929563Y-111110353D01*
X116976981Y-111127437D01*
X117026696Y-111132416D01*
X117076628Y-111127972D01*
X117124698Y-111116791D01*
X117168829Y-111101555D01*
X117206940Y-111084949D01*
X117236954Y-111069658D01*
X117256791Y-111058364D01*
X117260376Y-111056184D01*
X117261342Y-111055596D01*
X117266562Y-111055830D01*
G37*
%TD.AperFunction*%
%TD*%
%TA.AperFunction,Conductor*%
%TO.N,+3V3*%
G36*
X117767485Y-111100324D02*
G01*
X117769636Y-111100936D01*
X117769641Y-111100937D01*
X117769950Y-111101025D01*
X117799178Y-111105801D01*
X117843119Y-111111358D01*
X117843164Y-111111363D01*
X117843175Y-111111364D01*
X117854419Y-111112545D01*
X117900044Y-111117337D01*
X117919720Y-111119081D01*
X117968153Y-111123373D01*
X117968226Y-111123379D01*
X118045935Y-111129127D01*
X118131445Y-111134221D01*
X118131525Y-111134225D01*
X118222938Y-111138299D01*
X118223028Y-111138303D01*
X118318955Y-111141016D01*
X118405918Y-111141884D01*
X118414155Y-111145393D01*
X118417500Y-111153583D01*
X118417500Y-111980139D01*
X118414073Y-111988412D01*
X118405640Y-111991838D01*
X118295733Y-111990338D01*
X118295450Y-111990331D01*
X118177118Y-111985848D01*
X118176882Y-111985836D01*
X118137589Y-111983553D01*
X118063989Y-111979276D01*
X118063893Y-111979269D01*
X117958446Y-111971372D01*
X117958319Y-111971362D01*
X117924165Y-111968339D01*
X117862534Y-111962884D01*
X117862415Y-111962873D01*
X117778288Y-111954555D01*
X117778213Y-111954548D01*
X117707757Y-111947127D01*
X117707755Y-111947127D01*
X117653157Y-111941363D01*
X117653120Y-111941360D01*
X117653085Y-111941356D01*
X117616730Y-111938024D01*
X117616728Y-111938024D01*
X117616500Y-111938003D01*
X117616273Y-111938000D01*
X117616270Y-111938000D01*
X117614313Y-111937976D01*
X117605796Y-111937869D01*
X117597567Y-111934339D01*
X117596424Y-111932971D01*
X117241554Y-111435807D01*
X117692323Y-111139945D01*
X117752688Y-111100324D01*
X117762306Y-111098851D01*
X117767485Y-111100324D01*
G37*
%TD.AperFunction*%
%TD*%
%TA.AperFunction,Conductor*%
%TO.N,VCC*%
G36*
X122539933Y-110889079D02*
G01*
X122572008Y-110917989D01*
X122614344Y-110949472D01*
X122657278Y-110976305D01*
X122699397Y-110998704D01*
X122739291Y-111016882D01*
X122739442Y-111016941D01*
X122739449Y-111016944D01*
X122756081Y-111023446D01*
X122775546Y-111031056D01*
X122775670Y-111031097D01*
X122775683Y-111031102D01*
X122806619Y-111041395D01*
X122806627Y-111041398D01*
X122806752Y-111041439D01*
X122831496Y-111048248D01*
X122831669Y-111048283D01*
X122831680Y-111048286D01*
X122847910Y-111051603D01*
X122847915Y-111051604D01*
X122848367Y-111051696D01*
X122848825Y-111051714D01*
X122848830Y-111051715D01*
X122850974Y-111051800D01*
X122851514Y-111051822D01*
X122859156Y-111055080D01*
X123300500Y-111479500D01*
X123063000Y-111618624D01*
X122731352Y-111812899D01*
X122722396Y-111814102D01*
X122709669Y-111810675D01*
X122709660Y-111810673D01*
X122709355Y-111810591D01*
X122709033Y-111810542D01*
X122709030Y-111810541D01*
X122667782Y-111804220D01*
X122667728Y-111804212D01*
X122606200Y-111794488D01*
X122605831Y-111794423D01*
X122528345Y-111779620D01*
X122527797Y-111779502D01*
X122506871Y-111774455D01*
X122437938Y-111757828D01*
X122437264Y-111757643D01*
X122362882Y-111734751D01*
X122338882Y-111727365D01*
X122338036Y-111727069D01*
X122234891Y-111686442D01*
X122233895Y-111685995D01*
X122129784Y-111633300D01*
X122128649Y-111632643D01*
X122027337Y-111566167D01*
X122026103Y-111565235D01*
X121940157Y-111490909D01*
X121936141Y-111482905D01*
X121939537Y-111473786D01*
X122523826Y-110889497D01*
X122532099Y-110886070D01*
X122539933Y-110889079D01*
G37*
%TD.AperFunction*%
%TD*%
%TA.AperFunction,Conductor*%
%TO.N,VCC*%
G36*
X124962467Y-110417210D02*
G01*
X124966055Y-110425872D01*
X124951700Y-111160154D01*
X124877107Y-111189555D01*
X124809083Y-111223541D01*
X124745564Y-111262667D01*
X124684490Y-111307489D01*
X124623796Y-111358563D01*
X124561423Y-111416444D01*
X124495307Y-111481688D01*
X124423386Y-111554851D01*
X124343599Y-111636488D01*
X124283945Y-111696775D01*
X124283796Y-111696627D01*
X124283131Y-111697511D01*
X124283172Y-111697556D01*
X124260214Y-111720759D01*
X124251959Y-111724230D01*
X124250929Y-111724028D01*
X124250801Y-111724073D01*
X123652844Y-111126116D01*
X123743511Y-111036400D01*
X123825148Y-110956613D01*
X123898311Y-110884692D01*
X123963555Y-110818576D01*
X123976046Y-110805115D01*
X124021345Y-110756302D01*
X124021359Y-110756286D01*
X124021436Y-110756203D01*
X124072510Y-110695509D01*
X124117332Y-110634435D01*
X124156458Y-110570916D01*
X124190444Y-110502892D01*
X124190538Y-110502653D01*
X124190544Y-110502640D01*
X124216986Y-110435556D01*
X124223208Y-110429115D01*
X124227642Y-110428148D01*
X124372875Y-110425308D01*
X124830747Y-110416357D01*
X124891300Y-110415173D01*
X124954128Y-110413945D01*
X124962467Y-110417210D01*
G37*
%TD.AperFunction*%
%TD*%
%TA.AperFunction,Conductor*%
%TO.N,VCC*%
G36*
X123277809Y-111056949D02*
G01*
X123279917Y-111058293D01*
X123294108Y-111067161D01*
X123302397Y-111072341D01*
X123302409Y-111072348D01*
X123302492Y-111072400D01*
X123302587Y-111072454D01*
X123327156Y-111086417D01*
X123335626Y-111091231D01*
X123353542Y-111100057D01*
X123376964Y-111111595D01*
X123376973Y-111111599D01*
X123377174Y-111111698D01*
X123424993Y-111130712D01*
X123425280Y-111130792D01*
X123425283Y-111130793D01*
X123476532Y-111145073D01*
X123476539Y-111145074D01*
X123476936Y-111145185D01*
X123477352Y-111145238D01*
X123477353Y-111145238D01*
X123530283Y-111151955D01*
X123530285Y-111151955D01*
X123530860Y-111152028D01*
X123584619Y-111148153D01*
X123636069Y-111130471D01*
X123683065Y-111095895D01*
X124283945Y-111696775D01*
X124283944Y-111696776D01*
X124283795Y-111696628D01*
X124283131Y-111697511D01*
X124283217Y-111697607D01*
X124282955Y-111697841D01*
X124250293Y-111723565D01*
X124245734Y-111727156D01*
X124184052Y-111775737D01*
X124181821Y-111777119D01*
X124073309Y-111828513D01*
X124071219Y-111829269D01*
X123957488Y-111858564D01*
X123955746Y-111858875D01*
X123841311Y-111870421D01*
X123839957Y-111870478D01*
X123729510Y-111868654D01*
X123728492Y-111868593D01*
X123626727Y-111857842D01*
X123625999Y-111857742D01*
X123537595Y-111842547D01*
X123537116Y-111842454D01*
X123533439Y-111841663D01*
X123466755Y-111827322D01*
X123466694Y-111827280D01*
X123466688Y-111827308D01*
X123419398Y-111816841D01*
X123419394Y-111816840D01*
X123418972Y-111816747D01*
X123418537Y-111816717D01*
X123418535Y-111816717D01*
X123401618Y-111815562D01*
X123396501Y-111813984D01*
X123151541Y-111670490D01*
X123063000Y-111618624D01*
X122825500Y-111479500D01*
X123063000Y-111251107D01*
X123091666Y-111223541D01*
X123224402Y-111095895D01*
X123263411Y-111058382D01*
X123271750Y-111055117D01*
X123277809Y-111056949D01*
G37*
%TD.AperFunction*%
%TD*%
%TA.AperFunction,Conductor*%
%TO.N,/CE*%
G36*
X115863830Y-105831579D02*
G01*
X115936019Y-105901000D01*
X116083231Y-106042567D01*
X116086819Y-106050771D01*
X116083231Y-106059433D01*
X115891488Y-106243824D01*
X115863831Y-106270420D01*
X115855492Y-106273685D01*
X115850743Y-106272575D01*
X115820858Y-106258524D01*
X115820840Y-106258516D01*
X115820753Y-106258475D01*
X115820661Y-106258436D01*
X115820649Y-106258430D01*
X115786852Y-106243884D01*
X115786843Y-106243880D01*
X115786712Y-106243824D01*
X115774257Y-106239159D01*
X115754793Y-106231869D01*
X115754785Y-106231866D01*
X115754624Y-106231806D01*
X115754449Y-106231752D01*
X115754442Y-106231750D01*
X115723410Y-106222239D01*
X115723404Y-106222237D01*
X115723207Y-106222177D01*
X115723003Y-106222129D01*
X115722998Y-106222128D01*
X115714283Y-106220093D01*
X115691178Y-106214696D01*
X115662972Y-106210058D01*
X115657433Y-106209147D01*
X115657429Y-106209147D01*
X115657256Y-106209118D01*
X115657087Y-106209100D01*
X115657071Y-106209098D01*
X115636771Y-106206956D01*
X115620159Y-106205202D01*
X115605529Y-106204323D01*
X115578678Y-106202710D01*
X115578661Y-106202709D01*
X115578605Y-106202706D01*
X115553316Y-106202000D01*
X115531398Y-106201388D01*
X115531313Y-106201386D01*
X115531242Y-106201385D01*
X115531220Y-106201385D01*
X115512643Y-106201253D01*
X115488616Y-106201083D01*
X115480368Y-106197597D01*
X115477000Y-106189383D01*
X115477000Y-105912617D01*
X115480427Y-105904344D01*
X115488616Y-105900917D01*
X115505646Y-105900796D01*
X115531220Y-105900614D01*
X115531242Y-105900614D01*
X115531313Y-105900613D01*
X115531398Y-105900611D01*
X115553316Y-105899999D01*
X115578605Y-105899293D01*
X115578661Y-105899290D01*
X115578678Y-105899289D01*
X115605529Y-105897676D01*
X115620159Y-105896797D01*
X115636771Y-105895043D01*
X115657071Y-105892901D01*
X115657087Y-105892899D01*
X115657256Y-105892881D01*
X115657429Y-105892852D01*
X115657433Y-105892852D01*
X115662972Y-105891941D01*
X115691178Y-105887303D01*
X115714283Y-105881906D01*
X115722998Y-105879871D01*
X115723003Y-105879870D01*
X115723207Y-105879822D01*
X115723404Y-105879762D01*
X115723410Y-105879760D01*
X115754442Y-105870249D01*
X115754449Y-105870247D01*
X115754624Y-105870193D01*
X115754785Y-105870133D01*
X115754793Y-105870130D01*
X115774257Y-105862840D01*
X115786712Y-105858175D01*
X115786843Y-105858119D01*
X115786852Y-105858115D01*
X115820649Y-105843569D01*
X115820659Y-105843564D01*
X115820753Y-105843524D01*
X115850743Y-105829425D01*
X115859688Y-105829006D01*
X115863830Y-105831579D01*
G37*
%TD.AperFunction*%
%TD*%
%TA.AperFunction,Conductor*%
%TO.N,/CE*%
G36*
X113039402Y-106843496D02*
G01*
X113043114Y-106845434D01*
X113119746Y-106885460D01*
X113120302Y-106885771D01*
X113194966Y-106930101D01*
X113195308Y-106930311D01*
X113261327Y-106972637D01*
X113261322Y-106972644D01*
X113261352Y-106972653D01*
X113322450Y-107012044D01*
X113382473Y-107047624D01*
X113416554Y-107064398D01*
X113445055Y-107078425D01*
X113445060Y-107078427D01*
X113445336Y-107078563D01*
X113445621Y-107078667D01*
X113445625Y-107078669D01*
X113514664Y-107103929D01*
X113514668Y-107103930D01*
X113514979Y-107104044D01*
X113567623Y-107116628D01*
X113595042Y-107123182D01*
X113595045Y-107123183D01*
X113595344Y-107123254D01*
X113595641Y-107123292D01*
X113595647Y-107123293D01*
X113675136Y-107133434D01*
X113690370Y-107135377D01*
X113792735Y-107139181D01*
X113800875Y-107142913D01*
X113804000Y-107150873D01*
X113804000Y-107428327D01*
X113800573Y-107436600D01*
X113792735Y-107440019D01*
X113700308Y-107443453D01*
X113690638Y-107443812D01*
X113690637Y-107443812D01*
X113690370Y-107443822D01*
X113656254Y-107448174D01*
X113595647Y-107455906D01*
X113595641Y-107455907D01*
X113595344Y-107455945D01*
X113595045Y-107456016D01*
X113595042Y-107456017D01*
X113567623Y-107462571D01*
X113514979Y-107475155D01*
X113514668Y-107475269D01*
X113514664Y-107475270D01*
X113445625Y-107500530D01*
X113445621Y-107500532D01*
X113445336Y-107500636D01*
X113445060Y-107500772D01*
X113445055Y-107500774D01*
X113416554Y-107514801D01*
X113382473Y-107531575D01*
X113322450Y-107567155D01*
X113261352Y-107606546D01*
X113261320Y-107606552D01*
X113261327Y-107606562D01*
X113195308Y-107648888D01*
X113194966Y-107649098D01*
X113120302Y-107693428D01*
X113119746Y-107693739D01*
X113039403Y-107735704D01*
X113030484Y-107736496D01*
X113025877Y-107733766D01*
X112984109Y-107693599D01*
X112572769Y-107298033D01*
X112569181Y-107289829D01*
X112572769Y-107281167D01*
X112724362Y-107135387D01*
X113025878Y-106845434D01*
X113034216Y-106842169D01*
X113039402Y-106843496D01*
G37*
%TD.AperFunction*%
%TD*%
%TA.AperFunction,Conductor*%
%TO.N,/CSN*%
G36*
X115863830Y-105031579D02*
G01*
X115936019Y-105101000D01*
X116083231Y-105242567D01*
X116086819Y-105250771D01*
X116083231Y-105259433D01*
X115891488Y-105443824D01*
X115863831Y-105470420D01*
X115855492Y-105473685D01*
X115850743Y-105472575D01*
X115820858Y-105458524D01*
X115820840Y-105458516D01*
X115820753Y-105458475D01*
X115820661Y-105458436D01*
X115820649Y-105458430D01*
X115786852Y-105443884D01*
X115786843Y-105443880D01*
X115786712Y-105443824D01*
X115774257Y-105439159D01*
X115754793Y-105431869D01*
X115754785Y-105431866D01*
X115754624Y-105431806D01*
X115754449Y-105431752D01*
X115754442Y-105431750D01*
X115723410Y-105422239D01*
X115723404Y-105422237D01*
X115723207Y-105422177D01*
X115723003Y-105422129D01*
X115722998Y-105422128D01*
X115714283Y-105420093D01*
X115691178Y-105414696D01*
X115662972Y-105410058D01*
X115657433Y-105409147D01*
X115657429Y-105409147D01*
X115657256Y-105409118D01*
X115657087Y-105409100D01*
X115657071Y-105409098D01*
X115636771Y-105406956D01*
X115620159Y-105405202D01*
X115605529Y-105404323D01*
X115578678Y-105402710D01*
X115578661Y-105402709D01*
X115578605Y-105402706D01*
X115553316Y-105402000D01*
X115531398Y-105401388D01*
X115531313Y-105401386D01*
X115531242Y-105401385D01*
X115531220Y-105401385D01*
X115512643Y-105401253D01*
X115488616Y-105401083D01*
X115480368Y-105397597D01*
X115477000Y-105389383D01*
X115477000Y-105112617D01*
X115480427Y-105104344D01*
X115488616Y-105100917D01*
X115505646Y-105100796D01*
X115531220Y-105100614D01*
X115531242Y-105100614D01*
X115531313Y-105100613D01*
X115531398Y-105100611D01*
X115553316Y-105099999D01*
X115578605Y-105099293D01*
X115578661Y-105099290D01*
X115578678Y-105099289D01*
X115605529Y-105097676D01*
X115620159Y-105096797D01*
X115636771Y-105095043D01*
X115657071Y-105092901D01*
X115657087Y-105092899D01*
X115657256Y-105092881D01*
X115657429Y-105092852D01*
X115657433Y-105092852D01*
X115662972Y-105091941D01*
X115691178Y-105087303D01*
X115714283Y-105081906D01*
X115722998Y-105079871D01*
X115723003Y-105079870D01*
X115723207Y-105079822D01*
X115723404Y-105079762D01*
X115723410Y-105079760D01*
X115754442Y-105070249D01*
X115754449Y-105070247D01*
X115754624Y-105070193D01*
X115754785Y-105070133D01*
X115754793Y-105070130D01*
X115774257Y-105062840D01*
X115786712Y-105058175D01*
X115786843Y-105058119D01*
X115786852Y-105058115D01*
X115820649Y-105043569D01*
X115820659Y-105043564D01*
X115820753Y-105043524D01*
X115850743Y-105029425D01*
X115859688Y-105029006D01*
X115863830Y-105031579D01*
G37*
%TD.AperFunction*%
%TD*%
%TA.AperFunction,Conductor*%
%TO.N,/CSN*%
G36*
X113039402Y-105573496D02*
G01*
X113043114Y-105575434D01*
X113119746Y-105615460D01*
X113120302Y-105615771D01*
X113194966Y-105660101D01*
X113195308Y-105660311D01*
X113261327Y-105702637D01*
X113261322Y-105702644D01*
X113261352Y-105702653D01*
X113322450Y-105742044D01*
X113382473Y-105777624D01*
X113416554Y-105794398D01*
X113445055Y-105808425D01*
X113445060Y-105808427D01*
X113445336Y-105808563D01*
X113445621Y-105808667D01*
X113445625Y-105808669D01*
X113514664Y-105833929D01*
X113514668Y-105833930D01*
X113514979Y-105834044D01*
X113567623Y-105846628D01*
X113595042Y-105853182D01*
X113595045Y-105853183D01*
X113595344Y-105853254D01*
X113595641Y-105853292D01*
X113595647Y-105853293D01*
X113675136Y-105863434D01*
X113690370Y-105865377D01*
X113792735Y-105869181D01*
X113800875Y-105872913D01*
X113804000Y-105880873D01*
X113804000Y-106158327D01*
X113800573Y-106166600D01*
X113792735Y-106170019D01*
X113700308Y-106173453D01*
X113690638Y-106173812D01*
X113690637Y-106173812D01*
X113690370Y-106173822D01*
X113656254Y-106178174D01*
X113595647Y-106185906D01*
X113595641Y-106185907D01*
X113595344Y-106185945D01*
X113595045Y-106186016D01*
X113595042Y-106186017D01*
X113567623Y-106192571D01*
X113514979Y-106205155D01*
X113514668Y-106205269D01*
X113514664Y-106205270D01*
X113445625Y-106230530D01*
X113445621Y-106230532D01*
X113445336Y-106230636D01*
X113445060Y-106230772D01*
X113445055Y-106230774D01*
X113416554Y-106244801D01*
X113382473Y-106261575D01*
X113322450Y-106297155D01*
X113261352Y-106336546D01*
X113261320Y-106336552D01*
X113261327Y-106336562D01*
X113195308Y-106378888D01*
X113194966Y-106379098D01*
X113120302Y-106423428D01*
X113119746Y-106423739D01*
X113039403Y-106465704D01*
X113030484Y-106466496D01*
X113025877Y-106463766D01*
X112984109Y-106423599D01*
X112572769Y-106028033D01*
X112569181Y-106019829D01*
X112572769Y-106011167D01*
X112724362Y-105865387D01*
X113025878Y-105575434D01*
X113034216Y-105572169D01*
X113039402Y-105573496D01*
G37*
%TD.AperFunction*%
%TD*%
%TA.AperFunction,Conductor*%
%TO.N,/SCK*%
G36*
X115863830Y-104231579D02*
G01*
X115936019Y-104301000D01*
X116083231Y-104442567D01*
X116086819Y-104450771D01*
X116083231Y-104459433D01*
X115891488Y-104643824D01*
X115863831Y-104670420D01*
X115855492Y-104673685D01*
X115850743Y-104672575D01*
X115820858Y-104658524D01*
X115820840Y-104658516D01*
X115820753Y-104658475D01*
X115820661Y-104658436D01*
X115820649Y-104658430D01*
X115786852Y-104643884D01*
X115786843Y-104643880D01*
X115786712Y-104643824D01*
X115774257Y-104639159D01*
X115754793Y-104631869D01*
X115754785Y-104631866D01*
X115754624Y-104631806D01*
X115754449Y-104631752D01*
X115754442Y-104631750D01*
X115723410Y-104622239D01*
X115723404Y-104622237D01*
X115723207Y-104622177D01*
X115723003Y-104622129D01*
X115722998Y-104622128D01*
X115714283Y-104620093D01*
X115691178Y-104614696D01*
X115662972Y-104610058D01*
X115657433Y-104609147D01*
X115657429Y-104609147D01*
X115657256Y-104609118D01*
X115657087Y-104609100D01*
X115657071Y-104609098D01*
X115636771Y-104606956D01*
X115620159Y-104605202D01*
X115605529Y-104604323D01*
X115578678Y-104602710D01*
X115578661Y-104602709D01*
X115578605Y-104602706D01*
X115553316Y-104602000D01*
X115531398Y-104601388D01*
X115531313Y-104601386D01*
X115531242Y-104601385D01*
X115531220Y-104601385D01*
X115512643Y-104601253D01*
X115488616Y-104601083D01*
X115480368Y-104597597D01*
X115477000Y-104589383D01*
X115477000Y-104312617D01*
X115480427Y-104304344D01*
X115488616Y-104300917D01*
X115505646Y-104300796D01*
X115531220Y-104300614D01*
X115531242Y-104300614D01*
X115531313Y-104300613D01*
X115531398Y-104300611D01*
X115553316Y-104299999D01*
X115578605Y-104299293D01*
X115578661Y-104299290D01*
X115578678Y-104299289D01*
X115605529Y-104297676D01*
X115620159Y-104296797D01*
X115636771Y-104295043D01*
X115657071Y-104292901D01*
X115657087Y-104292899D01*
X115657256Y-104292881D01*
X115657429Y-104292852D01*
X115657433Y-104292852D01*
X115662972Y-104291941D01*
X115691178Y-104287303D01*
X115714283Y-104281906D01*
X115722998Y-104279871D01*
X115723003Y-104279870D01*
X115723207Y-104279822D01*
X115723404Y-104279762D01*
X115723410Y-104279760D01*
X115754442Y-104270249D01*
X115754449Y-104270247D01*
X115754624Y-104270193D01*
X115754785Y-104270133D01*
X115754793Y-104270130D01*
X115774257Y-104262840D01*
X115786712Y-104258175D01*
X115786843Y-104258119D01*
X115786852Y-104258115D01*
X115820649Y-104243569D01*
X115820659Y-104243564D01*
X115820753Y-104243524D01*
X115850743Y-104229425D01*
X115859688Y-104229006D01*
X115863830Y-104231579D01*
G37*
%TD.AperFunction*%
%TD*%
%TA.AperFunction,Conductor*%
%TO.N,/SCK*%
G36*
X113039402Y-104303496D02*
G01*
X113043114Y-104305434D01*
X113119746Y-104345460D01*
X113120302Y-104345771D01*
X113194966Y-104390101D01*
X113195308Y-104390311D01*
X113261327Y-104432637D01*
X113261322Y-104432644D01*
X113261352Y-104432653D01*
X113322450Y-104472044D01*
X113382473Y-104507624D01*
X113416554Y-104524398D01*
X113445055Y-104538425D01*
X113445060Y-104538427D01*
X113445336Y-104538563D01*
X113445621Y-104538667D01*
X113445625Y-104538669D01*
X113514664Y-104563929D01*
X113514668Y-104563930D01*
X113514979Y-104564044D01*
X113567623Y-104576628D01*
X113595042Y-104583182D01*
X113595045Y-104583183D01*
X113595344Y-104583254D01*
X113595641Y-104583292D01*
X113595647Y-104583293D01*
X113675136Y-104593434D01*
X113690370Y-104595377D01*
X113792735Y-104599181D01*
X113800875Y-104602913D01*
X113804000Y-104610873D01*
X113804000Y-104888327D01*
X113800573Y-104896600D01*
X113792735Y-104900019D01*
X113700308Y-104903453D01*
X113690638Y-104903812D01*
X113690637Y-104903812D01*
X113690370Y-104903822D01*
X113656254Y-104908174D01*
X113595647Y-104915906D01*
X113595641Y-104915907D01*
X113595344Y-104915945D01*
X113595045Y-104916016D01*
X113595042Y-104916017D01*
X113567623Y-104922571D01*
X113514979Y-104935155D01*
X113514668Y-104935269D01*
X113514664Y-104935270D01*
X113445625Y-104960530D01*
X113445621Y-104960532D01*
X113445336Y-104960636D01*
X113445060Y-104960772D01*
X113445055Y-104960774D01*
X113416554Y-104974801D01*
X113382473Y-104991575D01*
X113322450Y-105027155D01*
X113261352Y-105066546D01*
X113261320Y-105066552D01*
X113261327Y-105066562D01*
X113195308Y-105108888D01*
X113194966Y-105109098D01*
X113120302Y-105153428D01*
X113119746Y-105153739D01*
X113039403Y-105195704D01*
X113030484Y-105196496D01*
X113025877Y-105193766D01*
X112984109Y-105153599D01*
X112572769Y-104758033D01*
X112569181Y-104749829D01*
X112572769Y-104741167D01*
X112724362Y-104595387D01*
X113025878Y-104305434D01*
X113034216Y-104302169D01*
X113039402Y-104303496D01*
G37*
%TD.AperFunction*%
%TD*%
%TA.AperFunction,Conductor*%
%TO.N,/MOSI*%
G36*
X115863830Y-103431579D02*
G01*
X115936019Y-103501000D01*
X116083231Y-103642567D01*
X116086819Y-103650771D01*
X116083231Y-103659433D01*
X115891488Y-103843824D01*
X115863831Y-103870420D01*
X115855492Y-103873685D01*
X115850743Y-103872575D01*
X115820858Y-103858524D01*
X115820840Y-103858516D01*
X115820753Y-103858475D01*
X115820661Y-103858436D01*
X115820649Y-103858430D01*
X115786852Y-103843884D01*
X115786843Y-103843880D01*
X115786712Y-103843824D01*
X115774257Y-103839159D01*
X115754793Y-103831869D01*
X115754785Y-103831866D01*
X115754624Y-103831806D01*
X115754449Y-103831752D01*
X115754442Y-103831750D01*
X115723410Y-103822239D01*
X115723404Y-103822237D01*
X115723207Y-103822177D01*
X115723003Y-103822129D01*
X115722998Y-103822128D01*
X115714283Y-103820093D01*
X115691178Y-103814696D01*
X115662972Y-103810058D01*
X115657433Y-103809147D01*
X115657429Y-103809147D01*
X115657256Y-103809118D01*
X115657087Y-103809100D01*
X115657071Y-103809098D01*
X115636771Y-103806956D01*
X115620159Y-103805202D01*
X115605529Y-103804323D01*
X115578678Y-103802710D01*
X115578661Y-103802709D01*
X115578605Y-103802706D01*
X115553316Y-103802000D01*
X115531398Y-103801388D01*
X115531313Y-103801386D01*
X115531242Y-103801385D01*
X115531220Y-103801385D01*
X115512643Y-103801253D01*
X115488616Y-103801083D01*
X115480368Y-103797597D01*
X115477000Y-103789383D01*
X115477000Y-103512617D01*
X115480427Y-103504344D01*
X115488616Y-103500917D01*
X115505646Y-103500796D01*
X115531220Y-103500614D01*
X115531242Y-103500614D01*
X115531313Y-103500613D01*
X115531398Y-103500611D01*
X115553316Y-103499999D01*
X115578605Y-103499293D01*
X115578661Y-103499290D01*
X115578678Y-103499289D01*
X115605529Y-103497676D01*
X115620159Y-103496797D01*
X115636771Y-103495043D01*
X115657071Y-103492901D01*
X115657087Y-103492899D01*
X115657256Y-103492881D01*
X115657429Y-103492852D01*
X115657433Y-103492852D01*
X115662972Y-103491941D01*
X115691178Y-103487303D01*
X115714283Y-103481906D01*
X115722998Y-103479871D01*
X115723003Y-103479870D01*
X115723207Y-103479822D01*
X115723404Y-103479762D01*
X115723410Y-103479760D01*
X115754442Y-103470249D01*
X115754449Y-103470247D01*
X115754624Y-103470193D01*
X115754785Y-103470133D01*
X115754793Y-103470130D01*
X115774257Y-103462840D01*
X115786712Y-103458175D01*
X115786843Y-103458119D01*
X115786852Y-103458115D01*
X115820649Y-103443569D01*
X115820659Y-103443564D01*
X115820753Y-103443524D01*
X115850743Y-103429425D01*
X115859688Y-103429006D01*
X115863830Y-103431579D01*
G37*
%TD.AperFunction*%
%TD*%
%TA.AperFunction,Conductor*%
%TO.N,/MOSI*%
G36*
X113039402Y-103033496D02*
G01*
X113043114Y-103035434D01*
X113119746Y-103075460D01*
X113120302Y-103075771D01*
X113194966Y-103120101D01*
X113195308Y-103120311D01*
X113261327Y-103162637D01*
X113261322Y-103162644D01*
X113261352Y-103162653D01*
X113322450Y-103202044D01*
X113382473Y-103237624D01*
X113416554Y-103254398D01*
X113445055Y-103268425D01*
X113445060Y-103268427D01*
X113445336Y-103268563D01*
X113445621Y-103268667D01*
X113445625Y-103268669D01*
X113514664Y-103293929D01*
X113514668Y-103293930D01*
X113514979Y-103294044D01*
X113567623Y-103306628D01*
X113595042Y-103313182D01*
X113595045Y-103313183D01*
X113595344Y-103313254D01*
X113595641Y-103313292D01*
X113595647Y-103313293D01*
X113675136Y-103323434D01*
X113690370Y-103325377D01*
X113792735Y-103329181D01*
X113800875Y-103332913D01*
X113804000Y-103340873D01*
X113804000Y-103618327D01*
X113800573Y-103626600D01*
X113792735Y-103630019D01*
X113700308Y-103633453D01*
X113690638Y-103633812D01*
X113690637Y-103633812D01*
X113690370Y-103633822D01*
X113656254Y-103638174D01*
X113595647Y-103645906D01*
X113595641Y-103645907D01*
X113595344Y-103645945D01*
X113595045Y-103646016D01*
X113595042Y-103646017D01*
X113567623Y-103652571D01*
X113514979Y-103665155D01*
X113514668Y-103665269D01*
X113514664Y-103665270D01*
X113445625Y-103690530D01*
X113445621Y-103690532D01*
X113445336Y-103690636D01*
X113445060Y-103690772D01*
X113445055Y-103690774D01*
X113416554Y-103704801D01*
X113382473Y-103721575D01*
X113322450Y-103757155D01*
X113261352Y-103796546D01*
X113261320Y-103796552D01*
X113261327Y-103796562D01*
X113195308Y-103838888D01*
X113194966Y-103839098D01*
X113120302Y-103883428D01*
X113119746Y-103883739D01*
X113039403Y-103925704D01*
X113030484Y-103926496D01*
X113025877Y-103923766D01*
X112984109Y-103883599D01*
X112572769Y-103488033D01*
X112569181Y-103479829D01*
X112572769Y-103471167D01*
X112724362Y-103325387D01*
X113025878Y-103035434D01*
X113034216Y-103032169D01*
X113039402Y-103033496D01*
G37*
%TD.AperFunction*%
%TD*%
%TA.AperFunction,Conductor*%
%TO.N,/MISO*%
G36*
X113039402Y-101763496D02*
G01*
X113043114Y-101765434D01*
X113119746Y-101805460D01*
X113120302Y-101805771D01*
X113194966Y-101850101D01*
X113195308Y-101850311D01*
X113261327Y-101892637D01*
X113261322Y-101892644D01*
X113261352Y-101892653D01*
X113322450Y-101932044D01*
X113382473Y-101967624D01*
X113416554Y-101984398D01*
X113445055Y-101998425D01*
X113445060Y-101998427D01*
X113445336Y-101998563D01*
X113445621Y-101998667D01*
X113445625Y-101998669D01*
X113514664Y-102023929D01*
X113514668Y-102023930D01*
X113514979Y-102024044D01*
X113567623Y-102036628D01*
X113595042Y-102043182D01*
X113595045Y-102043183D01*
X113595344Y-102043254D01*
X113595641Y-102043292D01*
X113595647Y-102043293D01*
X113675136Y-102053434D01*
X113690370Y-102055377D01*
X113792735Y-102059181D01*
X113800875Y-102062913D01*
X113804000Y-102070873D01*
X113804000Y-102348327D01*
X113800573Y-102356600D01*
X113792735Y-102360019D01*
X113700308Y-102363453D01*
X113690638Y-102363812D01*
X113690637Y-102363812D01*
X113690370Y-102363822D01*
X113656254Y-102368174D01*
X113595647Y-102375906D01*
X113595641Y-102375907D01*
X113595344Y-102375945D01*
X113595045Y-102376016D01*
X113595042Y-102376017D01*
X113567623Y-102382571D01*
X113514979Y-102395155D01*
X113514668Y-102395269D01*
X113514664Y-102395270D01*
X113445625Y-102420530D01*
X113445621Y-102420532D01*
X113445336Y-102420636D01*
X113445060Y-102420772D01*
X113445055Y-102420774D01*
X113416554Y-102434801D01*
X113382473Y-102451575D01*
X113322450Y-102487155D01*
X113261352Y-102526546D01*
X113261320Y-102526552D01*
X113261327Y-102526562D01*
X113195308Y-102568888D01*
X113194966Y-102569098D01*
X113120302Y-102613428D01*
X113119746Y-102613739D01*
X113039403Y-102655704D01*
X113030484Y-102656496D01*
X113025877Y-102653766D01*
X112984109Y-102613599D01*
X112572769Y-102218033D01*
X112569181Y-102209829D01*
X112572769Y-102201167D01*
X112724362Y-102055387D01*
X113025878Y-101765434D01*
X113034216Y-101762169D01*
X113039402Y-101763496D01*
G37*
%TD.AperFunction*%
%TD*%
%TA.AperFunction,Conductor*%
%TO.N,/MISO*%
G36*
X115863830Y-102631579D02*
G01*
X115936019Y-102701000D01*
X116083231Y-102842567D01*
X116086819Y-102850771D01*
X116083231Y-102859433D01*
X115891488Y-103043824D01*
X115863831Y-103070420D01*
X115855492Y-103073685D01*
X115850743Y-103072575D01*
X115820858Y-103058524D01*
X115820840Y-103058516D01*
X115820753Y-103058475D01*
X115820661Y-103058436D01*
X115820649Y-103058430D01*
X115786852Y-103043884D01*
X115786843Y-103043880D01*
X115786712Y-103043824D01*
X115774257Y-103039159D01*
X115754793Y-103031869D01*
X115754785Y-103031866D01*
X115754624Y-103031806D01*
X115754449Y-103031752D01*
X115754442Y-103031750D01*
X115723410Y-103022239D01*
X115723404Y-103022237D01*
X115723207Y-103022177D01*
X115723003Y-103022129D01*
X115722998Y-103022128D01*
X115714283Y-103020093D01*
X115691178Y-103014696D01*
X115662972Y-103010058D01*
X115657433Y-103009147D01*
X115657429Y-103009147D01*
X115657256Y-103009118D01*
X115657087Y-103009100D01*
X115657071Y-103009098D01*
X115636771Y-103006956D01*
X115620159Y-103005202D01*
X115605529Y-103004323D01*
X115578678Y-103002710D01*
X115578661Y-103002709D01*
X115578605Y-103002706D01*
X115553316Y-103002000D01*
X115531398Y-103001388D01*
X115531313Y-103001386D01*
X115531242Y-103001385D01*
X115531220Y-103001385D01*
X115512643Y-103001253D01*
X115488616Y-103001083D01*
X115480368Y-102997597D01*
X115477000Y-102989383D01*
X115477000Y-102712617D01*
X115480427Y-102704344D01*
X115488616Y-102700917D01*
X115505646Y-102700796D01*
X115531220Y-102700614D01*
X115531242Y-102700614D01*
X115531313Y-102700613D01*
X115531398Y-102700611D01*
X115553316Y-102699999D01*
X115578605Y-102699293D01*
X115578661Y-102699290D01*
X115578678Y-102699289D01*
X115605529Y-102697676D01*
X115620159Y-102696797D01*
X115636771Y-102695043D01*
X115657071Y-102692901D01*
X115657087Y-102692899D01*
X115657256Y-102692881D01*
X115657429Y-102692852D01*
X115657433Y-102692852D01*
X115662972Y-102691941D01*
X115691178Y-102687303D01*
X115714283Y-102681906D01*
X115722998Y-102679871D01*
X115723003Y-102679870D01*
X115723207Y-102679822D01*
X115723404Y-102679762D01*
X115723410Y-102679760D01*
X115754442Y-102670249D01*
X115754449Y-102670247D01*
X115754624Y-102670193D01*
X115754785Y-102670133D01*
X115754793Y-102670130D01*
X115774257Y-102662840D01*
X115786712Y-102658175D01*
X115786843Y-102658119D01*
X115786852Y-102658115D01*
X115820649Y-102643569D01*
X115820659Y-102643564D01*
X115820753Y-102643524D01*
X115850743Y-102629425D01*
X115859688Y-102629006D01*
X115863830Y-102631579D01*
G37*
%TD.AperFunction*%
%TD*%
M02*
