%TF.GenerationSoftware,KiCad,Pcbnew,(6.0.5)*%
%TF.CreationDate,2023-02-03T09:53:40+08:00*%
%TF.ProjectId,Mini_Receiver,4d696e69-5f52-4656-9365-697665722e6b,rev?*%
%TF.SameCoordinates,Original*%
%TF.FileFunction,Legend,Bot*%
%TF.FilePolarity,Positive*%
%FSLAX46Y46*%
G04 Gerber Fmt 4.6, Leading zero omitted, Abs format (unit mm)*
G04 Created by KiCad (PCBNEW (6.0.5)) date 2023-02-03 09:53:40*
%MOMM*%
%LPD*%
G01*
G04 APERTURE LIST*
%ADD10C,0.150000*%
G04 APERTURE END LIST*
D10*
X126619000Y-112649000D02*
X128397000Y-112649000D01*
X125603000Y-111950500D02*
X125603000Y-112585500D01*
X125730000Y-112712500D02*
X125349000Y-112331500D01*
X125857000Y-111950500D02*
X125857000Y-112585500D01*
X125730000Y-112712500D02*
X126111000Y-112331500D01*
X123063000Y-111950500D02*
X123063000Y-112585500D01*
X123190000Y-112712500D02*
X122809000Y-112331500D01*
X123317000Y-111950500D02*
X123317000Y-112585500D01*
X123190000Y-112712500D02*
X123571000Y-112331500D01*
X120777000Y-111950500D02*
X120777000Y-112585500D01*
X120523000Y-111950500D02*
X120523000Y-112585500D01*
X120650000Y-112712500D02*
X121031000Y-112331500D01*
X120650000Y-112712500D02*
X120269000Y-112331500D01*
X117983000Y-111950500D02*
X117983000Y-112585500D01*
X118110000Y-112712500D02*
X118491000Y-112331500D01*
X118237000Y-111950500D02*
X118237000Y-112585500D01*
X118110000Y-112712500D02*
X117729000Y-112331500D01*
X115443000Y-111950500D02*
X115443000Y-112585500D01*
X115570000Y-112712500D02*
X115951000Y-112331500D01*
X115697000Y-111950500D02*
X115697000Y-112585500D01*
X115570000Y-112712500D02*
X115189000Y-112331500D01*
X113030000Y-112712500D02*
X113411000Y-112331500D01*
X113157000Y-111950500D02*
X113157000Y-112585500D01*
X113030000Y-112712500D02*
X112649000Y-112331500D01*
X112903000Y-111950500D02*
X112903000Y-112585500D01*
X110617000Y-111950500D02*
X110617000Y-112585500D01*
X110490000Y-112712500D02*
X110109000Y-112331500D01*
X110490000Y-112712500D02*
X110871000Y-112331500D01*
X110363000Y-111950500D02*
X110363000Y-112585500D01*
X107823000Y-111950500D02*
X107823000Y-112585500D01*
X108077000Y-111950500D02*
X108077000Y-112585500D01*
X107950000Y-112712500D02*
X108331000Y-112331500D01*
X107950000Y-112712500D02*
X107569000Y-112331500D01*
X105537000Y-111950500D02*
X105537000Y-112585500D01*
X105410000Y-112712500D02*
X105029000Y-112331500D01*
X105410000Y-112712500D02*
X105791000Y-112331500D01*
X105283000Y-111950500D02*
X105283000Y-112585500D01*
X102870000Y-112712500D02*
X102489000Y-112331500D01*
X102997000Y-111950500D02*
X102997000Y-112585500D01*
X102743000Y-111950500D02*
X102743000Y-112585500D01*
X102870000Y-112712500D02*
X103251000Y-112331500D01*
X100203000Y-111950500D02*
X100203000Y-112585500D01*
X100330000Y-112712500D02*
X100711000Y-112331500D01*
X100457000Y-111950500D02*
X100457000Y-112585500D01*
X100330000Y-112712500D02*
X99949000Y-112331500D01*
X97790000Y-112712500D02*
X97409000Y-112331500D01*
X97663000Y-111950500D02*
X97663000Y-112585500D01*
X97790000Y-112712500D02*
X98171000Y-112331500D01*
X97917000Y-111950500D02*
X97917000Y-112585500D01*
X95377000Y-112014000D02*
X95377000Y-112649000D01*
X95250000Y-112776000D02*
X95631000Y-112395000D01*
X95250000Y-112776000D02*
X94869000Y-112395000D01*
X95123000Y-112014000D02*
X95123000Y-112649000D01*
X100687142Y-109672523D02*
X100734761Y-109624904D01*
X100782380Y-109482047D01*
X100782380Y-109386809D01*
X100734761Y-109243952D01*
X100639523Y-109148714D01*
X100544285Y-109101095D01*
X100353809Y-109053476D01*
X100210952Y-109053476D01*
X100020476Y-109101095D01*
X99925238Y-109148714D01*
X99830000Y-109243952D01*
X99782380Y-109386809D01*
X99782380Y-109482047D01*
X99830000Y-109624904D01*
X99877619Y-109672523D01*
X100782380Y-110101095D02*
X99782380Y-110101095D01*
X100258571Y-110101095D02*
X100258571Y-110672523D01*
X100782380Y-110672523D02*
X99782380Y-110672523D01*
X99877619Y-111101095D02*
X99830000Y-111148714D01*
X99782380Y-111243952D01*
X99782380Y-111482047D01*
X99830000Y-111577285D01*
X99877619Y-111624904D01*
X99972857Y-111672523D01*
X100068095Y-111672523D01*
X100210952Y-111624904D01*
X100782380Y-111053476D01*
X100782380Y-111672523D01*
X103227142Y-109672523D02*
X103274761Y-109624904D01*
X103322380Y-109482047D01*
X103322380Y-109386809D01*
X103274761Y-109243952D01*
X103179523Y-109148714D01*
X103084285Y-109101095D01*
X102893809Y-109053476D01*
X102750952Y-109053476D01*
X102560476Y-109101095D01*
X102465238Y-109148714D01*
X102370000Y-109243952D01*
X102322380Y-109386809D01*
X102322380Y-109482047D01*
X102370000Y-109624904D01*
X102417619Y-109672523D01*
X103322380Y-110101095D02*
X102322380Y-110101095D01*
X102798571Y-110101095D02*
X102798571Y-110672523D01*
X103322380Y-110672523D02*
X102322380Y-110672523D01*
X102322380Y-111053476D02*
X102322380Y-111672523D01*
X102703333Y-111339190D01*
X102703333Y-111482047D01*
X102750952Y-111577285D01*
X102798571Y-111624904D01*
X102893809Y-111672523D01*
X103131904Y-111672523D01*
X103227142Y-111624904D01*
X103274761Y-111577285D01*
X103322380Y-111482047D01*
X103322380Y-111196333D01*
X103274761Y-111101095D01*
X103227142Y-111053476D01*
X105767142Y-109672523D02*
X105814761Y-109624904D01*
X105862380Y-109482047D01*
X105862380Y-109386809D01*
X105814761Y-109243952D01*
X105719523Y-109148714D01*
X105624285Y-109101095D01*
X105433809Y-109053476D01*
X105290952Y-109053476D01*
X105100476Y-109101095D01*
X105005238Y-109148714D01*
X104910000Y-109243952D01*
X104862380Y-109386809D01*
X104862380Y-109482047D01*
X104910000Y-109624904D01*
X104957619Y-109672523D01*
X105862380Y-110101095D02*
X104862380Y-110101095D01*
X105338571Y-110101095D02*
X105338571Y-110672523D01*
X105862380Y-110672523D02*
X104862380Y-110672523D01*
X105195714Y-111577285D02*
X105862380Y-111577285D01*
X104814761Y-111339190D02*
X105529047Y-111101095D01*
X105529047Y-111720142D01*
X108307142Y-109672523D02*
X108354761Y-109624904D01*
X108402380Y-109482047D01*
X108402380Y-109386809D01*
X108354761Y-109243952D01*
X108259523Y-109148714D01*
X108164285Y-109101095D01*
X107973809Y-109053476D01*
X107830952Y-109053476D01*
X107640476Y-109101095D01*
X107545238Y-109148714D01*
X107450000Y-109243952D01*
X107402380Y-109386809D01*
X107402380Y-109482047D01*
X107450000Y-109624904D01*
X107497619Y-109672523D01*
X108402380Y-110101095D02*
X107402380Y-110101095D01*
X107878571Y-110101095D02*
X107878571Y-110672523D01*
X108402380Y-110672523D02*
X107402380Y-110672523D01*
X107402380Y-111624904D02*
X107402380Y-111148714D01*
X107878571Y-111101095D01*
X107830952Y-111148714D01*
X107783333Y-111243952D01*
X107783333Y-111482047D01*
X107830952Y-111577285D01*
X107878571Y-111624904D01*
X107973809Y-111672523D01*
X108211904Y-111672523D01*
X108307142Y-111624904D01*
X108354761Y-111577285D01*
X108402380Y-111482047D01*
X108402380Y-111243952D01*
X108354761Y-111148714D01*
X108307142Y-111101095D01*
X110847142Y-109672523D02*
X110894761Y-109624904D01*
X110942380Y-109482047D01*
X110942380Y-109386809D01*
X110894761Y-109243952D01*
X110799523Y-109148714D01*
X110704285Y-109101095D01*
X110513809Y-109053476D01*
X110370952Y-109053476D01*
X110180476Y-109101095D01*
X110085238Y-109148714D01*
X109990000Y-109243952D01*
X109942380Y-109386809D01*
X109942380Y-109482047D01*
X109990000Y-109624904D01*
X110037619Y-109672523D01*
X110942380Y-110101095D02*
X109942380Y-110101095D01*
X110418571Y-110101095D02*
X110418571Y-110672523D01*
X110942380Y-110672523D02*
X109942380Y-110672523D01*
X109942380Y-111577285D02*
X109942380Y-111386809D01*
X109990000Y-111291571D01*
X110037619Y-111243952D01*
X110180476Y-111148714D01*
X110370952Y-111101095D01*
X110751904Y-111101095D01*
X110847142Y-111148714D01*
X110894761Y-111196333D01*
X110942380Y-111291571D01*
X110942380Y-111482047D01*
X110894761Y-111577285D01*
X110847142Y-111624904D01*
X110751904Y-111672523D01*
X110513809Y-111672523D01*
X110418571Y-111624904D01*
X110370952Y-111577285D01*
X110323333Y-111482047D01*
X110323333Y-111291571D01*
X110370952Y-111196333D01*
X110418571Y-111148714D01*
X110513809Y-111101095D01*
X113387142Y-109672523D02*
X113434761Y-109624904D01*
X113482380Y-109482047D01*
X113482380Y-109386809D01*
X113434761Y-109243952D01*
X113339523Y-109148714D01*
X113244285Y-109101095D01*
X113053809Y-109053476D01*
X112910952Y-109053476D01*
X112720476Y-109101095D01*
X112625238Y-109148714D01*
X112530000Y-109243952D01*
X112482380Y-109386809D01*
X112482380Y-109482047D01*
X112530000Y-109624904D01*
X112577619Y-109672523D01*
X113482380Y-110101095D02*
X112482380Y-110101095D01*
X112958571Y-110101095D02*
X112958571Y-110672523D01*
X113482380Y-110672523D02*
X112482380Y-110672523D01*
X112482380Y-111053476D02*
X112482380Y-111720142D01*
X113482380Y-111291571D01*
X115927142Y-109672523D02*
X115974761Y-109624904D01*
X116022380Y-109482047D01*
X116022380Y-109386809D01*
X115974761Y-109243952D01*
X115879523Y-109148714D01*
X115784285Y-109101095D01*
X115593809Y-109053476D01*
X115450952Y-109053476D01*
X115260476Y-109101095D01*
X115165238Y-109148714D01*
X115070000Y-109243952D01*
X115022380Y-109386809D01*
X115022380Y-109482047D01*
X115070000Y-109624904D01*
X115117619Y-109672523D01*
X116022380Y-110101095D02*
X115022380Y-110101095D01*
X115498571Y-110101095D02*
X115498571Y-110672523D01*
X116022380Y-110672523D02*
X115022380Y-110672523D01*
X115450952Y-111291571D02*
X115403333Y-111196333D01*
X115355714Y-111148714D01*
X115260476Y-111101095D01*
X115212857Y-111101095D01*
X115117619Y-111148714D01*
X115070000Y-111196333D01*
X115022380Y-111291571D01*
X115022380Y-111482047D01*
X115070000Y-111577285D01*
X115117619Y-111624904D01*
X115212857Y-111672523D01*
X115260476Y-111672523D01*
X115355714Y-111624904D01*
X115403333Y-111577285D01*
X115450952Y-111482047D01*
X115450952Y-111291571D01*
X115498571Y-111196333D01*
X115546190Y-111148714D01*
X115641428Y-111101095D01*
X115831904Y-111101095D01*
X115927142Y-111148714D01*
X115974761Y-111196333D01*
X116022380Y-111291571D01*
X116022380Y-111482047D01*
X115974761Y-111577285D01*
X115927142Y-111624904D01*
X115831904Y-111672523D01*
X115641428Y-111672523D01*
X115546190Y-111624904D01*
X115498571Y-111577285D01*
X115450952Y-111482047D01*
X118467142Y-109672523D02*
X118514761Y-109624904D01*
X118562380Y-109482047D01*
X118562380Y-109386809D01*
X118514761Y-109243952D01*
X118419523Y-109148714D01*
X118324285Y-109101095D01*
X118133809Y-109053476D01*
X117990952Y-109053476D01*
X117800476Y-109101095D01*
X117705238Y-109148714D01*
X117610000Y-109243952D01*
X117562380Y-109386809D01*
X117562380Y-109482047D01*
X117610000Y-109624904D01*
X117657619Y-109672523D01*
X118562380Y-110101095D02*
X117562380Y-110101095D01*
X118038571Y-110101095D02*
X118038571Y-110672523D01*
X118562380Y-110672523D02*
X117562380Y-110672523D01*
X118562380Y-111196333D02*
X118562380Y-111386809D01*
X118514761Y-111482047D01*
X118467142Y-111529666D01*
X118324285Y-111624904D01*
X118133809Y-111672523D01*
X117752857Y-111672523D01*
X117657619Y-111624904D01*
X117610000Y-111577285D01*
X117562380Y-111482047D01*
X117562380Y-111291571D01*
X117610000Y-111196333D01*
X117657619Y-111148714D01*
X117752857Y-111101095D01*
X117990952Y-111101095D01*
X118086190Y-111148714D01*
X118133809Y-111196333D01*
X118181428Y-111291571D01*
X118181428Y-111482047D01*
X118133809Y-111577285D01*
X118086190Y-111624904D01*
X117990952Y-111672523D01*
X95607142Y-109672523D02*
X95654761Y-109624904D01*
X95702380Y-109482047D01*
X95702380Y-109386809D01*
X95654761Y-109243952D01*
X95559523Y-109148714D01*
X95464285Y-109101095D01*
X95273809Y-109053476D01*
X95130952Y-109053476D01*
X94940476Y-109101095D01*
X94845238Y-109148714D01*
X94750000Y-109243952D01*
X94702380Y-109386809D01*
X94702380Y-109482047D01*
X94750000Y-109624904D01*
X94797619Y-109672523D01*
X95702380Y-110101095D02*
X94702380Y-110101095D01*
X95178571Y-110101095D02*
X95178571Y-110672523D01*
X95702380Y-110672523D02*
X94702380Y-110672523D01*
X94702380Y-111339190D02*
X94702380Y-111434428D01*
X94750000Y-111529666D01*
X94797619Y-111577285D01*
X94892857Y-111624904D01*
X95083333Y-111672523D01*
X95321428Y-111672523D01*
X95511904Y-111624904D01*
X95607142Y-111577285D01*
X95654761Y-111529666D01*
X95702380Y-111434428D01*
X95702380Y-111339190D01*
X95654761Y-111243952D01*
X95607142Y-111196333D01*
X95511904Y-111148714D01*
X95321428Y-111101095D01*
X95083333Y-111101095D01*
X94892857Y-111148714D01*
X94797619Y-111196333D01*
X94750000Y-111243952D01*
X94702380Y-111339190D01*
X98147142Y-109672523D02*
X98194761Y-109624904D01*
X98242380Y-109482047D01*
X98242380Y-109386809D01*
X98194761Y-109243952D01*
X98099523Y-109148714D01*
X98004285Y-109101095D01*
X97813809Y-109053476D01*
X97670952Y-109053476D01*
X97480476Y-109101095D01*
X97385238Y-109148714D01*
X97290000Y-109243952D01*
X97242380Y-109386809D01*
X97242380Y-109482047D01*
X97290000Y-109624904D01*
X97337619Y-109672523D01*
X98242380Y-110101095D02*
X97242380Y-110101095D01*
X97718571Y-110101095D02*
X97718571Y-110672523D01*
X98242380Y-110672523D02*
X97242380Y-110672523D01*
X98242380Y-111672523D02*
X98242380Y-111101095D01*
X98242380Y-111386809D02*
X97242380Y-111386809D01*
X97385238Y-111291571D01*
X97480476Y-111196333D01*
X97528095Y-111101095D01*
X121102380Y-109672524D02*
X120626190Y-109339191D01*
X121102380Y-109101095D02*
X120102380Y-109101095D01*
X120102380Y-109482048D01*
X120150000Y-109577286D01*
X120197619Y-109624905D01*
X120292857Y-109672524D01*
X120435714Y-109672524D01*
X120530952Y-109624905D01*
X120578571Y-109577286D01*
X120626190Y-109482048D01*
X120626190Y-109101095D01*
X120102380Y-110005857D02*
X121102380Y-110672524D01*
X120102380Y-110672524D02*
X121102380Y-110005857D01*
X121102380Y-111053476D02*
X120102380Y-111053476D01*
X120102380Y-111291571D01*
X120150000Y-111434429D01*
X120245238Y-111529667D01*
X120340476Y-111577286D01*
X120530952Y-111624905D01*
X120673809Y-111624905D01*
X120864285Y-111577286D01*
X120959523Y-111529667D01*
X121054761Y-111434429D01*
X121102380Y-111291571D01*
X121102380Y-111053476D01*
X122642380Y-108958238D02*
X122642380Y-109529666D01*
X123642380Y-109243952D02*
X122642380Y-109243952D01*
X122642380Y-109767762D02*
X123642380Y-110434428D01*
X122642380Y-110434428D02*
X123642380Y-109767762D01*
X123642380Y-110815381D02*
X122642380Y-110815381D01*
X122642380Y-111053476D01*
X122690000Y-111196333D01*
X122785238Y-111291571D01*
X122880476Y-111339190D01*
X123070952Y-111386809D01*
X123213809Y-111386809D01*
X123404285Y-111339190D01*
X123499523Y-111291571D01*
X123594761Y-111196333D01*
X123642380Y-111053476D01*
X123642380Y-110815381D01*
X127381000Y-111506000D02*
X127635000Y-111506000D01*
X127127000Y-111887000D02*
X127889000Y-111887000D01*
X126873000Y-112268000D02*
X128143000Y-112268000D01*
X127508000Y-115316000D02*
X127508000Y-113030000D01*
X124333000Y-118491000D02*
X127508000Y-115316000D01*
X125182380Y-110172523D02*
X125182380Y-109696333D01*
X125658571Y-109648714D01*
X125610952Y-109696333D01*
X125563333Y-109791571D01*
X125563333Y-110029666D01*
X125610952Y-110124904D01*
X125658571Y-110172523D01*
X125753809Y-110220142D01*
X125991904Y-110220142D01*
X126087142Y-110172523D01*
X126134761Y-110124904D01*
X126182380Y-110029666D01*
X126182380Y-109791571D01*
X126134761Y-109696333D01*
X126087142Y-109648714D01*
X125182380Y-110505857D02*
X126182380Y-110839190D01*
X125182380Y-111172523D01*
X125730000Y-115316000D02*
X125730000Y-113030000D01*
X124587000Y-116459000D02*
X125730000Y-115316000D01*
M02*
