M48
; DRILL file {KiCad (6.0.5)} date Fri Feb  3 09:53:36 2023
; FORMAT={-:-/ absolute / inch / decimal}
; #@! TF.CreationDate,2023-02-03T09:53:36+08:00
; #@! TF.GenerationSoftware,Kicad,Pcbnew,(6.0.5)
; #@! TF.FileFunction,Plated,1,2,PTH
FMAT,2
INCH
; #@! TA.AperFunction,Plated,PTH,ViaDrill
T1C0.0118
; #@! TA.AperFunction,Plated,PTH,ViaDrill
T2C0.0197
; #@! TA.AperFunction,Plated,PTH,ComponentDrill
T3C0.0394
%
G90
G05
T1
X4.51Y-3.91
X4.59Y-4.23
X4.62Y-3.95
X4.6534Y-3.95
X4.6681Y-3.9801
X4.675Y-4.02
X4.68Y-4.27
X4.745Y-4.0
X4.745Y-4.27
X4.78Y-3.985
X4.805Y-4.27
X4.835Y-3.985
X4.885Y-3.88
X4.935Y-4.0158
X4.935Y-4.0493
X5.02Y-4.155
T2
X4.445Y-3.87
X4.59Y-4.385
X4.885Y-4.225
X5.015Y-3.925
T3
X3.75Y-4.5
X3.75Y-4.6
X3.75Y-4.7
X3.85Y-4.5
X3.85Y-4.6
X3.85Y-4.7
X3.95Y-4.5
X3.95Y-4.6
X3.95Y-4.7
X4.05Y-4.5
X4.05Y-4.6
X4.05Y-4.7
X4.15Y-4.5
X4.15Y-4.6
X4.15Y-4.7
X4.25Y-4.5
X4.25Y-4.6
X4.25Y-4.7
X4.35Y-4.5
X4.35Y-4.6
X4.35Y-4.7
X4.45Y-4.5
X4.45Y-4.6
X4.45Y-4.7
X4.55Y-4.5
X4.55Y-4.6
X4.55Y-4.7
X4.65Y-4.5
X4.65Y-4.6
X4.65Y-4.7
X4.75Y-4.5
X4.75Y-4.6
X4.75Y-4.7
X4.85Y-4.5
X4.85Y-4.6
X4.85Y-4.7
T0
M30
