%TF.GenerationSoftware,KiCad,Pcbnew,(6.0.5)*%
%TF.CreationDate,2023-02-03T09:53:40+08:00*%
%TF.ProjectId,Mini_Receiver,4d696e69-5f52-4656-9365-697665722e6b,rev?*%
%TF.SameCoordinates,Original*%
%TF.FileFunction,Copper,L2,Bot*%
%TF.FilePolarity,Positive*%
%FSLAX46Y46*%
G04 Gerber Fmt 4.6, Leading zero omitted, Abs format (unit mm)*
G04 Created by KiCad (PCBNEW (6.0.5)) date 2023-02-03 09:53:40*
%MOMM*%
%LPD*%
G01*
G04 APERTURE LIST*
%TA.AperFunction,ComponentPad*%
%ADD10R,1.700000X1.700000*%
%TD*%
%TA.AperFunction,ComponentPad*%
%ADD11O,1.700000X1.700000*%
%TD*%
%TA.AperFunction,ViaPad*%
%ADD12C,1.000000*%
%TD*%
%TA.AperFunction,ViaPad*%
%ADD13C,0.600000*%
%TD*%
%TA.AperFunction,Conductor*%
%ADD14C,0.500000*%
%TD*%
%TA.AperFunction,Conductor*%
%ADD15C,0.300000*%
%TD*%
%TA.AperFunction,Conductor*%
%ADD16C,0.850000*%
%TD*%
G04 APERTURE END LIST*
D10*
%TO.P,J3,1,Pin_1*%
%TO.N,GND*%
X95250000Y-119380000D03*
D11*
%TO.P,J3,2,Pin_2*%
X97790000Y-119380000D03*
%TO.P,J3,3,Pin_3*%
X100330000Y-119380000D03*
%TO.P,J3,4,Pin_4*%
X102870000Y-119380000D03*
%TO.P,J3,5,Pin_5*%
X105410000Y-119380000D03*
%TO.P,J3,6,Pin_6*%
X107950000Y-119380000D03*
%TO.P,J3,7,Pin_7*%
X110490000Y-119380000D03*
%TO.P,J3,8,Pin_8*%
X113030000Y-119380000D03*
%TO.P,J3,9,Pin_9*%
X115570000Y-119380000D03*
%TO.P,J3,10,Pin_10*%
X118110000Y-119380000D03*
%TO.P,J3,11,Pin_11*%
X120650000Y-119380000D03*
%TO.P,J3,12,Pin_12*%
X123190000Y-119380000D03*
%TD*%
D10*
%TO.P,J2,1,Pin_1*%
%TO.N,VCC*%
X95250000Y-116840000D03*
D11*
%TO.P,J2,2,Pin_2*%
X97790000Y-116840000D03*
%TO.P,J2,3,Pin_3*%
X100330000Y-116840000D03*
%TO.P,J2,4,Pin_4*%
X102870000Y-116840000D03*
%TO.P,J2,5,Pin_5*%
X105410000Y-116840000D03*
%TO.P,J2,6,Pin_6*%
X107950000Y-116840000D03*
%TO.P,J2,7,Pin_7*%
X110490000Y-116840000D03*
%TO.P,J2,8,Pin_8*%
X113030000Y-116840000D03*
%TO.P,J2,9,Pin_9*%
X115570000Y-116840000D03*
%TO.P,J2,10,Pin_10*%
X118110000Y-116840000D03*
%TO.P,J2,11,Pin_11*%
X120650000Y-116840000D03*
%TO.P,J2,12,Pin_12*%
X123190000Y-116840000D03*
%TD*%
D10*
%TO.P,J1,1,Pin_1*%
%TO.N,/PWM8*%
X95250000Y-114300000D03*
D11*
%TO.P,J1,2,Pin_2*%
%TO.N,/PWM7*%
X97790000Y-114300000D03*
%TO.P,J1,3,Pin_3*%
%TO.N,/PWM6*%
X100330000Y-114300000D03*
%TO.P,J1,4,Pin_4*%
%TO.N,/PWM5*%
X102870000Y-114300000D03*
%TO.P,J1,5,Pin_5*%
%TO.N,/PWM1*%
X105410000Y-114300000D03*
%TO.P,J1,6,Pin_6*%
%TO.N,/PWM2*%
X107950000Y-114300000D03*
%TO.P,J1,7,Pin_7*%
%TO.N,/PWM3*%
X110490000Y-114300000D03*
%TO.P,J1,8,Pin_8*%
%TO.N,/PWM4*%
X113030000Y-114300000D03*
%TO.P,J1,9,Pin_9*%
%TO.N,/CH10*%
X115570000Y-114300000D03*
%TO.P,J1,10,Pin_10*%
%TO.N,/CH11*%
X118110000Y-114300000D03*
%TO.P,J1,11,Pin_11*%
%TO.N,/RXD*%
X120650000Y-114300000D03*
%TO.P,J1,12,Pin_12*%
%TO.N,/TXD*%
X123190000Y-114300000D03*
%TD*%
D12*
%TO.N,GND*%
X127381000Y-99695000D03*
X112903000Y-98298000D03*
D13*
%TO.N,+3V3*%
X127508000Y-105537000D03*
X124079000Y-98552000D03*
%TO.N,/IRQ*%
X114554000Y-99314000D03*
X122809000Y-101219000D03*
%TO.N,/CH11*%
X121412000Y-101219000D03*
%TO.N,/CH10*%
X120523000Y-101600000D03*
%TO.N,/PWM4*%
X122047000Y-108458000D03*
%TO.N,/PWM3*%
X120523000Y-108458000D03*
%TO.N,/PWM2*%
X118872000Y-108458000D03*
%TO.N,/PWM1*%
X116586000Y-107442000D03*
%TO.N,/PWM5*%
X118745000Y-102108000D03*
%TO.N,/PWM6*%
X118569297Y-101093822D03*
%TO.N,/PWM7*%
X118197503Y-100330000D03*
%TO.N,/PWM8*%
X117348000Y-100330000D03*
%TO.N,/TXD*%
X125349000Y-102001997D03*
%TO.N,/RXD*%
X125349000Y-102851500D03*
D12*
%TO.N,+3V3*%
X124079000Y-107315000D03*
X116586000Y-111379000D03*
%TD*%
D14*
%TO.N,+3V3*%
X124079000Y-107696000D02*
X120396000Y-111379000D01*
X120396000Y-111379000D02*
X116586000Y-111379000D01*
X124079000Y-107315000D02*
X124079000Y-107696000D01*
D15*
%TO.N,/PWM4*%
X113030000Y-113157000D02*
X113030000Y-114300000D01*
X118331643Y-109684040D02*
X116502960Y-109684040D01*
X120797969Y-109707031D02*
X118354634Y-109707031D01*
X118354634Y-109707031D02*
X118331643Y-109684040D01*
X116502960Y-109684040D02*
X113030000Y-113157000D01*
X122047000Y-108458000D02*
X120797969Y-109707031D01*
%TO.N,/PWM3*%
X115655480Y-109134520D02*
X110490000Y-114300000D01*
X118559261Y-109134520D02*
X115655480Y-109134520D01*
X118582252Y-109157511D02*
X118559261Y-109134520D01*
X120523000Y-108458000D02*
X119823489Y-109157511D01*
X119823489Y-109157511D02*
X118582252Y-109157511D01*
%TO.N,/PWM2*%
X113665000Y-108585000D02*
X107950000Y-114300000D01*
X118872000Y-108458000D02*
X118745000Y-108585000D01*
X118745000Y-108585000D02*
X113665000Y-108585000D01*
D16*
%TO.N,GND*%
X113623511Y-97577489D02*
X112903000Y-98298000D01*
X125263489Y-97577489D02*
X113623511Y-97577489D01*
X127381000Y-99695000D02*
X125263489Y-97577489D01*
D15*
%TO.N,+3V3*%
X127699500Y-102172500D02*
X124079000Y-98552000D01*
X127699500Y-105345500D02*
X127699500Y-102172500D01*
X127508000Y-105537000D02*
X127699500Y-105345500D01*
%TO.N,/TXD*%
X126743560Y-102994560D02*
X126743560Y-110746440D01*
X126743560Y-110746440D02*
X123190000Y-114300000D01*
X125349000Y-102001997D02*
X125750997Y-102001997D01*
X125750997Y-102001997D02*
X126743560Y-102994560D01*
%TO.N,/RXD*%
X126194040Y-108755960D02*
X120650000Y-114300000D01*
X126194040Y-103696540D02*
X126194040Y-108755960D01*
X125349000Y-102851500D02*
X126194040Y-103696540D01*
%TO.N,/CH11*%
X121412000Y-101219000D02*
X125644520Y-105451520D01*
X125644520Y-105451520D02*
X125644520Y-108289480D01*
X125644520Y-108289480D02*
X121158000Y-112776000D01*
X121158000Y-112776000D02*
X119634000Y-112776000D01*
X119634000Y-112776000D02*
X118110000Y-114300000D01*
%TO.N,/CH10*%
X120904000Y-112141000D02*
X117729000Y-112141000D01*
X125095000Y-106172000D02*
X125095000Y-107950000D01*
X125095000Y-107950000D02*
X120904000Y-112141000D01*
X120523000Y-101600000D02*
X125095000Y-106172000D01*
X117729000Y-112141000D02*
X115570000Y-114300000D01*
%TO.N,/IRQ*%
X114554000Y-99314000D02*
X120904000Y-99314000D01*
X120904000Y-99314000D02*
X122809000Y-101219000D01*
%TO.N,/PWM1*%
X112268000Y-107442000D02*
X105410000Y-114300000D01*
X116586000Y-107442000D02*
X112268000Y-107442000D01*
%TO.N,/PWM5*%
X114046000Y-103124000D02*
X102870000Y-114300000D01*
X117729000Y-103124000D02*
X114046000Y-103124000D01*
X118745000Y-102108000D02*
X117729000Y-103124000D01*
%TO.N,/PWM6*%
X100330000Y-113792000D02*
X100330000Y-114300000D01*
X111887000Y-102235000D02*
X100330000Y-113792000D01*
X117428119Y-102235000D02*
X111887000Y-102235000D01*
X118569297Y-101093822D02*
X117428119Y-102235000D01*
%TO.N,/PWM7*%
X110744000Y-101346000D02*
X97790000Y-114300000D01*
X117321259Y-101346000D02*
X110744000Y-101346000D01*
X118197503Y-100469756D02*
X117321259Y-101346000D01*
X118197503Y-100330000D02*
X118197503Y-100469756D01*
%TO.N,/PWM8*%
X109220000Y-100330000D02*
X95250000Y-114300000D01*
X117348000Y-100330000D02*
X109220000Y-100330000D01*
%TD*%
%TA.AperFunction,Conductor*%
%TO.N,+3V3*%
G36*
X124139983Y-107081893D02*
G01*
X124140666Y-107083083D01*
X124374602Y-107552313D01*
X124428816Y-107661057D01*
X124429440Y-107669990D01*
X124426661Y-107674507D01*
X124359517Y-107742357D01*
X124336920Y-107765699D01*
X124296218Y-107807742D01*
X124296194Y-107807767D01*
X124239728Y-107867305D01*
X124187121Y-107923645D01*
X124135481Y-107979347D01*
X124135470Y-107979359D01*
X124081890Y-108036997D01*
X124081846Y-108037045D01*
X124023323Y-108099301D01*
X123956973Y-108168725D01*
X123879870Y-108247914D01*
X123797360Y-108331124D01*
X123789101Y-108334586D01*
X123780779Y-108331159D01*
X123443540Y-107993920D01*
X123440113Y-107985647D01*
X123443274Y-107977649D01*
X123470862Y-107948194D01*
X123491166Y-107926515D01*
X123493450Y-107923645D01*
X123535363Y-107870957D01*
X123535366Y-107870953D01*
X123535552Y-107870719D01*
X123537734Y-107867305D01*
X123569376Y-107817778D01*
X123569378Y-107817774D01*
X123569575Y-107817466D01*
X123594117Y-107765699D01*
X123610060Y-107714358D01*
X123618289Y-107662385D01*
X123619685Y-107608723D01*
X123615131Y-107552313D01*
X123605512Y-107492095D01*
X123605483Y-107491958D01*
X123593370Y-107434843D01*
X123595005Y-107426039D01*
X123598404Y-107422629D01*
X123692037Y-107361301D01*
X124123786Y-107078517D01*
X124132584Y-107076850D01*
X124139983Y-107081893D01*
G37*
%TD.AperFunction*%
%TD*%
%TA.AperFunction,Conductor*%
%TO.N,+3V3*%
G36*
X116811293Y-110932591D02*
G01*
X116884563Y-110968390D01*
X116956207Y-111003197D01*
X117021958Y-111033523D01*
X117084895Y-111059471D01*
X117085071Y-111059531D01*
X117085078Y-111059534D01*
X117147885Y-111081071D01*
X117148101Y-111081145D01*
X117214656Y-111098647D01*
X117214869Y-111098686D01*
X117214877Y-111098688D01*
X117287451Y-111112046D01*
X117287455Y-111112047D01*
X117287642Y-111112081D01*
X117370141Y-111121549D01*
X117407393Y-111123745D01*
X117465123Y-111127148D01*
X117465143Y-111127149D01*
X117465233Y-111127154D01*
X117564496Y-111128808D01*
X117572710Y-111132372D01*
X117576000Y-111140506D01*
X117576000Y-111617494D01*
X117572573Y-111625767D01*
X117564496Y-111629192D01*
X117465233Y-111630845D01*
X117465143Y-111630850D01*
X117465123Y-111630851D01*
X117407393Y-111634254D01*
X117370141Y-111636450D01*
X117287642Y-111645918D01*
X117287455Y-111645952D01*
X117287451Y-111645953D01*
X117214877Y-111659311D01*
X117214869Y-111659313D01*
X117214656Y-111659352D01*
X117148101Y-111676854D01*
X117147887Y-111676927D01*
X117147885Y-111676928D01*
X117085078Y-111698465D01*
X117085071Y-111698468D01*
X117084895Y-111698528D01*
X117021958Y-111724476D01*
X116956207Y-111754802D01*
X116884563Y-111789609D01*
X116811293Y-111825409D01*
X116802357Y-111825962D01*
X116798048Y-111823330D01*
X116613598Y-111645953D01*
X116344769Y-111387433D01*
X116341181Y-111379229D01*
X116344769Y-111370567D01*
X116596169Y-111128808D01*
X116798048Y-110934670D01*
X116806387Y-110931405D01*
X116811293Y-110932591D01*
G37*
%TD.AperFunction*%
%TD*%
%TA.AperFunction,Conductor*%
%TO.N,/PWM4*%
G36*
X113326199Y-112665483D02*
G01*
X113522415Y-112861699D01*
X113525842Y-112869972D01*
X113523176Y-112877406D01*
X113437799Y-112981125D01*
X113389022Y-113086376D01*
X113377223Y-113186968D01*
X113396033Y-113284912D01*
X113439083Y-113382217D01*
X113500003Y-113480893D01*
X113500102Y-113481033D01*
X113500103Y-113481034D01*
X113572415Y-113582937D01*
X113572424Y-113582949D01*
X113649840Y-113690206D01*
X113650089Y-113690564D01*
X113682650Y-113739566D01*
X113726026Y-113804842D01*
X113726520Y-113805655D01*
X113790824Y-113921942D01*
X113791828Y-113930840D01*
X113789018Y-113935714D01*
X113040715Y-114713858D01*
X113032511Y-114717446D01*
X113024172Y-114714181D01*
X113022187Y-114711662D01*
X112564792Y-113930840D01*
X112433442Y-113706611D01*
X112432217Y-113697741D01*
X112435114Y-113692577D01*
X112544062Y-113579574D01*
X112544145Y-113579488D01*
X112582740Y-113536124D01*
X112638217Y-113473791D01*
X112638231Y-113473774D01*
X112638268Y-113473733D01*
X112717035Y-113377825D01*
X112786153Y-113287892D01*
X112788365Y-113284912D01*
X112851304Y-113200097D01*
X112851327Y-113200066D01*
X112861780Y-113186076D01*
X112918219Y-113110539D01*
X112918327Y-113110398D01*
X112992556Y-113015403D01*
X112992797Y-113015105D01*
X113080124Y-112910687D01*
X113080409Y-112910359D01*
X113186591Y-112792576D01*
X113186876Y-112792271D01*
X113309521Y-112665617D01*
X113317738Y-112662058D01*
X113326199Y-112665483D01*
G37*
%TD.AperFunction*%
%TD*%
%TA.AperFunction,Conductor*%
%TO.N,/PWM4*%
G36*
X122149240Y-108355437D02*
G01*
X122152828Y-108364099D01*
X122145612Y-108733202D01*
X122142024Y-108741406D01*
X122137710Y-108744040D01*
X122094933Y-108758711D01*
X122050097Y-108774147D01*
X122009700Y-108788924D01*
X122009686Y-108788930D01*
X122009608Y-108788958D01*
X121972133Y-108804406D01*
X121936338Y-108821756D01*
X121936155Y-108821862D01*
X121936151Y-108821864D01*
X121901087Y-108842156D01*
X121901079Y-108842161D01*
X121900889Y-108842271D01*
X121900714Y-108842391D01*
X121900701Y-108842399D01*
X121878385Y-108857677D01*
X121864452Y-108867215D01*
X121825693Y-108897851D01*
X121783278Y-108935444D01*
X121744144Y-108973265D01*
X121735815Y-108976550D01*
X121727741Y-108973125D01*
X121531875Y-108777259D01*
X121528448Y-108768986D01*
X121531735Y-108760855D01*
X121533807Y-108758711D01*
X121569555Y-108721721D01*
X121607148Y-108679306D01*
X121637784Y-108640547D01*
X121647322Y-108626614D01*
X121662600Y-108604298D01*
X121662608Y-108604285D01*
X121662728Y-108604110D01*
X121683243Y-108568661D01*
X121700593Y-108532866D01*
X121716041Y-108495391D01*
X121730852Y-108454902D01*
X121746288Y-108410066D01*
X121760960Y-108367290D01*
X121766886Y-108360576D01*
X121771798Y-108359388D01*
X121806732Y-108358705D01*
X122140901Y-108352172D01*
X122149240Y-108355437D01*
G37*
%TD.AperFunction*%
%TD*%
%TA.AperFunction,Conductor*%
%TO.N,/PWM3*%
G36*
X111586821Y-113006803D02*
G01*
X111783197Y-113203179D01*
X111786624Y-113211452D01*
X111783591Y-113219310D01*
X111657722Y-113358118D01*
X111561772Y-113492968D01*
X111496159Y-113619330D01*
X111453820Y-113740926D01*
X111427689Y-113861482D01*
X111410704Y-113984718D01*
X111410689Y-113984850D01*
X111395817Y-114114199D01*
X111395777Y-114114511D01*
X111375963Y-114253758D01*
X111375835Y-114254491D01*
X111344074Y-114407266D01*
X111343831Y-114408228D01*
X111295366Y-114570761D01*
X111289718Y-114577710D01*
X111284383Y-114579116D01*
X111120285Y-114582324D01*
X110201645Y-114600282D01*
X110193306Y-114597017D01*
X110189718Y-114588355D01*
X110210884Y-113505617D01*
X110214472Y-113497413D01*
X110219238Y-113494635D01*
X110381770Y-113446168D01*
X110382733Y-113445925D01*
X110535508Y-113414164D01*
X110536241Y-113414036D01*
X110675488Y-113394222D01*
X110675800Y-113394182D01*
X110771961Y-113383126D01*
X110805281Y-113379295D01*
X110928517Y-113362310D01*
X110983844Y-113350318D01*
X111048720Y-113336256D01*
X111048728Y-113336254D01*
X111049073Y-113336179D01*
X111049407Y-113336063D01*
X111049413Y-113336061D01*
X111170264Y-113293981D01*
X111170669Y-113293840D01*
X111297031Y-113228227D01*
X111431881Y-113132277D01*
X111570690Y-113006409D01*
X111579119Y-113003390D01*
X111586821Y-113006803D01*
G37*
%TD.AperFunction*%
%TD*%
%TA.AperFunction,Conductor*%
%TO.N,/PWM3*%
G36*
X120625240Y-108355437D02*
G01*
X120628828Y-108364099D01*
X120621612Y-108733202D01*
X120618024Y-108741406D01*
X120613710Y-108744040D01*
X120570933Y-108758711D01*
X120526097Y-108774147D01*
X120485700Y-108788924D01*
X120485686Y-108788930D01*
X120485608Y-108788958D01*
X120448133Y-108804406D01*
X120412338Y-108821756D01*
X120412155Y-108821862D01*
X120412151Y-108821864D01*
X120377087Y-108842156D01*
X120377079Y-108842161D01*
X120376889Y-108842271D01*
X120376714Y-108842391D01*
X120376701Y-108842399D01*
X120354385Y-108857677D01*
X120340452Y-108867215D01*
X120301693Y-108897851D01*
X120259278Y-108935444D01*
X120220144Y-108973265D01*
X120211815Y-108976550D01*
X120203741Y-108973125D01*
X120007875Y-108777259D01*
X120004448Y-108768986D01*
X120007735Y-108760855D01*
X120009807Y-108758711D01*
X120045555Y-108721721D01*
X120083148Y-108679306D01*
X120113784Y-108640547D01*
X120123322Y-108626614D01*
X120138600Y-108604298D01*
X120138608Y-108604285D01*
X120138728Y-108604110D01*
X120159243Y-108568661D01*
X120176593Y-108532866D01*
X120192041Y-108495391D01*
X120206852Y-108454902D01*
X120222288Y-108410066D01*
X120236960Y-108367290D01*
X120242886Y-108360576D01*
X120247798Y-108359388D01*
X120282732Y-108358705D01*
X120616901Y-108352172D01*
X120625240Y-108355437D01*
G37*
%TD.AperFunction*%
%TD*%
%TA.AperFunction,Conductor*%
%TO.N,/PWM2*%
G36*
X109046821Y-113006803D02*
G01*
X109243197Y-113203179D01*
X109246624Y-113211452D01*
X109243591Y-113219310D01*
X109117722Y-113358118D01*
X109021772Y-113492968D01*
X108956159Y-113619330D01*
X108913820Y-113740926D01*
X108887689Y-113861482D01*
X108870704Y-113984718D01*
X108870689Y-113984850D01*
X108855817Y-114114199D01*
X108855777Y-114114511D01*
X108835963Y-114253758D01*
X108835835Y-114254491D01*
X108804074Y-114407266D01*
X108803831Y-114408228D01*
X108755366Y-114570761D01*
X108749718Y-114577710D01*
X108744383Y-114579116D01*
X108580285Y-114582324D01*
X107661645Y-114600282D01*
X107653306Y-114597017D01*
X107649718Y-114588355D01*
X107670884Y-113505617D01*
X107674472Y-113497413D01*
X107679238Y-113494635D01*
X107841770Y-113446168D01*
X107842733Y-113445925D01*
X107995508Y-113414164D01*
X107996241Y-113414036D01*
X108135488Y-113394222D01*
X108135800Y-113394182D01*
X108231961Y-113383126D01*
X108265281Y-113379295D01*
X108388517Y-113362310D01*
X108443844Y-113350318D01*
X108508720Y-113336256D01*
X108508728Y-113336254D01*
X108509073Y-113336179D01*
X108509407Y-113336063D01*
X108509413Y-113336061D01*
X108630264Y-113293981D01*
X108630669Y-113293840D01*
X108757031Y-113228227D01*
X108891881Y-113132277D01*
X109030690Y-113006409D01*
X109039119Y-113003390D01*
X109046821Y-113006803D01*
G37*
%TD.AperFunction*%
%TD*%
%TA.AperFunction,Conductor*%
%TO.N,/PWM2*%
G36*
X118648209Y-108269722D02*
G01*
X118820567Y-108329910D01*
X118996864Y-108391474D01*
X119003545Y-108397437D01*
X119003894Y-108406806D01*
X118868940Y-108749598D01*
X118862721Y-108756040D01*
X118858054Y-108757011D01*
X118833475Y-108757011D01*
X118833142Y-108757006D01*
X118801988Y-108756119D01*
X118801824Y-108756113D01*
X118746054Y-108753693D01*
X118745937Y-108753687D01*
X118734677Y-108753052D01*
X118695703Y-108750852D01*
X118695604Y-108750846D01*
X118693051Y-108750680D01*
X118689793Y-108750468D01*
X118686287Y-108749504D01*
X118686263Y-108749577D01*
X118685385Y-108749292D01*
X118684565Y-108748874D01*
X118653954Y-108744026D01*
X118652168Y-108743597D01*
X118623572Y-108734305D01*
X118623570Y-108734305D01*
X118622694Y-108734020D01*
X118306700Y-108734020D01*
X118298427Y-108730593D01*
X118295000Y-108722320D01*
X118295000Y-108446377D01*
X118298427Y-108438104D01*
X118306373Y-108434682D01*
X118308939Y-108434610D01*
X118348517Y-108433504D01*
X118348526Y-108433503D01*
X118348721Y-108433498D01*
X118348911Y-108433479D01*
X118348916Y-108433479D01*
X118372097Y-108431199D01*
X118395327Y-108428915D01*
X118395574Y-108428868D01*
X118395585Y-108428866D01*
X118421280Y-108423935D01*
X118435888Y-108421132D01*
X118471477Y-108410029D01*
X118503165Y-108395489D01*
X118532024Y-108377392D01*
X118559125Y-108355620D01*
X118565275Y-108349667D01*
X118585398Y-108330193D01*
X118585407Y-108330183D01*
X118585541Y-108330054D01*
X118612344Y-108300575D01*
X118635410Y-108273225D01*
X118643363Y-108269110D01*
X118648209Y-108269722D01*
G37*
%TD.AperFunction*%
%TD*%
%TA.AperFunction,Conductor*%
%TO.N,GND*%
G36*
X113310848Y-97305778D02*
G01*
X113895221Y-97890151D01*
X113898648Y-97898424D01*
X113895161Y-97906757D01*
X113823609Y-97977278D01*
X113823513Y-97977372D01*
X113747800Y-98050297D01*
X113747749Y-98050345D01*
X113676999Y-98117677D01*
X113611798Y-98179829D01*
X113552860Y-98237095D01*
X113552813Y-98237142D01*
X113510509Y-98280023D01*
X113500848Y-98289816D01*
X113500783Y-98289888D01*
X113500762Y-98289909D01*
X113456543Y-98338204D01*
X113456424Y-98338334D01*
X113439771Y-98358893D01*
X113420431Y-98382768D01*
X113420425Y-98382776D01*
X113420251Y-98382991D01*
X113392991Y-98424128D01*
X113392811Y-98424515D01*
X113378389Y-98455473D01*
X113371789Y-98461525D01*
X113368014Y-98462230D01*
X112948581Y-98470429D01*
X112738389Y-98474538D01*
X112730050Y-98471273D01*
X112726462Y-98462611D01*
X112735948Y-97977346D01*
X112738770Y-97832986D01*
X112742358Y-97824783D01*
X112745524Y-97822612D01*
X112776871Y-97808008D01*
X112818008Y-97780748D01*
X112818223Y-97780574D01*
X112818231Y-97780568D01*
X112842106Y-97761228D01*
X112862665Y-97744575D01*
X112862795Y-97744456D01*
X112911090Y-97700237D01*
X112911111Y-97700216D01*
X112911183Y-97700151D01*
X112920976Y-97690490D01*
X112963857Y-97648186D01*
X112963904Y-97648139D01*
X113021170Y-97589201D01*
X113083322Y-97524000D01*
X113150654Y-97453250D01*
X113150702Y-97453199D01*
X113223626Y-97377487D01*
X113223720Y-97377391D01*
X113294243Y-97305837D01*
X113302490Y-97302351D01*
X113310848Y-97305778D01*
G37*
%TD.AperFunction*%
%TD*%
%TA.AperFunction,Conductor*%
%TO.N,GND*%
G36*
X126989756Y-98702837D02*
G01*
X127024341Y-98737927D01*
X127060278Y-98774391D01*
X127060372Y-98774487D01*
X127133297Y-98850199D01*
X127133345Y-98850250D01*
X127200677Y-98921000D01*
X127262829Y-98986201D01*
X127320095Y-99045139D01*
X127320142Y-99045186D01*
X127363023Y-99087490D01*
X127372816Y-99097151D01*
X127372888Y-99097216D01*
X127372909Y-99097237D01*
X127421204Y-99141456D01*
X127421334Y-99141575D01*
X127441893Y-99158228D01*
X127465768Y-99177568D01*
X127465776Y-99177574D01*
X127465991Y-99177748D01*
X127507128Y-99205008D01*
X127523567Y-99212666D01*
X127538473Y-99219611D01*
X127544525Y-99226211D01*
X127545230Y-99229986D01*
X127548052Y-99374346D01*
X127557538Y-99859611D01*
X127554273Y-99867950D01*
X127545611Y-99871538D01*
X127335419Y-99867429D01*
X126915987Y-99859230D01*
X126907784Y-99855642D01*
X126905611Y-99852473D01*
X126891188Y-99821515D01*
X126891008Y-99821128D01*
X126863748Y-99779991D01*
X126863574Y-99779776D01*
X126863568Y-99779768D01*
X126844228Y-99755893D01*
X126827575Y-99735334D01*
X126827456Y-99735204D01*
X126783237Y-99686909D01*
X126783216Y-99686888D01*
X126783151Y-99686816D01*
X126773490Y-99677023D01*
X126731186Y-99634142D01*
X126731139Y-99634095D01*
X126672201Y-99576829D01*
X126607000Y-99514677D01*
X126536250Y-99447345D01*
X126536199Y-99447297D01*
X126460487Y-99374372D01*
X126460391Y-99374278D01*
X126423927Y-99338341D01*
X126388837Y-99303756D01*
X126385351Y-99295510D01*
X126388778Y-99287152D01*
X126973152Y-98702778D01*
X126981425Y-98699351D01*
X126989756Y-98702837D01*
G37*
%TD.AperFunction*%
%TD*%
%TA.AperFunction,Conductor*%
%TO.N,+3V3*%
G36*
X124319268Y-98452705D02*
G01*
X124354202Y-98453388D01*
X124362406Y-98456976D01*
X124365040Y-98461290D01*
X124379711Y-98504066D01*
X124395147Y-98548902D01*
X124409958Y-98589391D01*
X124425406Y-98626866D01*
X124442756Y-98662661D01*
X124463271Y-98698110D01*
X124463391Y-98698285D01*
X124463399Y-98698298D01*
X124478677Y-98720614D01*
X124488215Y-98734547D01*
X124518851Y-98773306D01*
X124556444Y-98815721D01*
X124556541Y-98815821D01*
X124594265Y-98854855D01*
X124597550Y-98863186D01*
X124594125Y-98871259D01*
X124398259Y-99067125D01*
X124389986Y-99070552D01*
X124381855Y-99067265D01*
X124381711Y-99067125D01*
X124342721Y-99029444D01*
X124300306Y-98991851D01*
X124261547Y-98961215D01*
X124247614Y-98951677D01*
X124225298Y-98936399D01*
X124225285Y-98936391D01*
X124225110Y-98936271D01*
X124224920Y-98936161D01*
X124224912Y-98936156D01*
X124189848Y-98915864D01*
X124189844Y-98915862D01*
X124189661Y-98915756D01*
X124153866Y-98898406D01*
X124116391Y-98882958D01*
X124116313Y-98882930D01*
X124116299Y-98882924D01*
X124075902Y-98868147D01*
X124031066Y-98852711D01*
X123988290Y-98838040D01*
X123981576Y-98832115D01*
X123980388Y-98827202D01*
X123973172Y-98458099D01*
X123976437Y-98449760D01*
X123985099Y-98446172D01*
X124319268Y-98452705D01*
G37*
%TD.AperFunction*%
%TD*%
%TA.AperFunction,Conductor*%
%TO.N,+3V3*%
G36*
X127845887Y-105008927D02*
G01*
X127849313Y-105017384D01*
X127848816Y-105048995D01*
X127848340Y-105079225D01*
X127848327Y-105079606D01*
X127846900Y-105108216D01*
X127845193Y-105142455D01*
X127845166Y-105142859D01*
X127844679Y-105148612D01*
X127840755Y-105194960D01*
X127840550Y-105197377D01*
X127840515Y-105197723D01*
X127836524Y-105232219D01*
X127834907Y-105246192D01*
X127834882Y-105246390D01*
X127828749Y-105291242D01*
X127822607Y-105334558D01*
X127816963Y-105378533D01*
X127812315Y-105425427D01*
X127809161Y-105477496D01*
X127809159Y-105477613D01*
X127808167Y-105528407D01*
X127804579Y-105536612D01*
X127799750Y-105539410D01*
X127453472Y-105640578D01*
X127426260Y-105648528D01*
X127417358Y-105647558D01*
X127411748Y-105640578D01*
X127411312Y-105638171D01*
X127383900Y-105272058D01*
X127386699Y-105263552D01*
X127390442Y-105260666D01*
X127414967Y-105248714D01*
X127414971Y-105248712D01*
X127415139Y-105248630D01*
X127443540Y-105232373D01*
X127468529Y-105214787D01*
X127490125Y-105195290D01*
X127508346Y-105173298D01*
X127523212Y-105148227D01*
X127534741Y-105119495D01*
X127542953Y-105086519D01*
X127547866Y-105048715D01*
X127549074Y-105016757D01*
X127552811Y-105008620D01*
X127560766Y-105005500D01*
X127837614Y-105005500D01*
X127845887Y-105008927D01*
G37*
%TD.AperFunction*%
%TD*%
%TA.AperFunction,Conductor*%
%TO.N,/TXD*%
G36*
X124286821Y-113006803D02*
G01*
X124483197Y-113203179D01*
X124486624Y-113211452D01*
X124483591Y-113219310D01*
X124357722Y-113358118D01*
X124261772Y-113492968D01*
X124196159Y-113619330D01*
X124153820Y-113740926D01*
X124127689Y-113861482D01*
X124110704Y-113984718D01*
X124110689Y-113984850D01*
X124095817Y-114114199D01*
X124095777Y-114114511D01*
X124075963Y-114253758D01*
X124075835Y-114254491D01*
X124044074Y-114407266D01*
X124043831Y-114408228D01*
X123995366Y-114570761D01*
X123989718Y-114577710D01*
X123984383Y-114579116D01*
X123820285Y-114582324D01*
X122901645Y-114600282D01*
X122893306Y-114597017D01*
X122889718Y-114588355D01*
X122910884Y-113505617D01*
X122914472Y-113497413D01*
X122919238Y-113494635D01*
X123081770Y-113446168D01*
X123082733Y-113445925D01*
X123235508Y-113414164D01*
X123236241Y-113414036D01*
X123375488Y-113394222D01*
X123375800Y-113394182D01*
X123471961Y-113383126D01*
X123505281Y-113379295D01*
X123628517Y-113362310D01*
X123683844Y-113350318D01*
X123748720Y-113336256D01*
X123748728Y-113336254D01*
X123749073Y-113336179D01*
X123749407Y-113336063D01*
X123749413Y-113336061D01*
X123870264Y-113293981D01*
X123870669Y-113293840D01*
X123997031Y-113228227D01*
X124131881Y-113132277D01*
X124270690Y-113006409D01*
X124279119Y-113003390D01*
X124286821Y-113006803D01*
G37*
%TD.AperFunction*%
%TD*%
%TA.AperFunction,Conductor*%
%TO.N,/TXD*%
G36*
X125567476Y-101795402D02*
G01*
X125602966Y-101826382D01*
X125643849Y-101852836D01*
X125684285Y-101872007D01*
X125724777Y-101886677D01*
X125765764Y-101899608D01*
X125765864Y-101899640D01*
X125796124Y-101909709D01*
X125807576Y-101913519D01*
X125808309Y-101913791D01*
X125851067Y-101931271D01*
X125852131Y-101931771D01*
X125896743Y-101955645D01*
X125897940Y-101956382D01*
X125945111Y-101989465D01*
X125946203Y-101990333D01*
X125987873Y-102027693D01*
X125991746Y-102035766D01*
X125988336Y-102044676D01*
X125792567Y-102240445D01*
X125784294Y-102243872D01*
X125776719Y-102241089D01*
X125773872Y-102238670D01*
X125753071Y-102221001D01*
X125722222Y-102203877D01*
X125721566Y-102203693D01*
X125721564Y-102203692D01*
X125692796Y-102195613D01*
X125692794Y-102195613D01*
X125692122Y-102195424D01*
X125691426Y-102195399D01*
X125691425Y-102195399D01*
X125663100Y-102194389D01*
X125663097Y-102194389D01*
X125662502Y-102194368D01*
X125661910Y-102194470D01*
X125633537Y-102199358D01*
X125633531Y-102199360D01*
X125633093Y-102199435D01*
X125603624Y-102209349D01*
X125603358Y-102209469D01*
X125603359Y-102209469D01*
X125578499Y-102220722D01*
X125573826Y-102222837D01*
X125573716Y-102222894D01*
X125573708Y-102222898D01*
X125555952Y-102232121D01*
X125543431Y-102238624D01*
X125512217Y-102255408D01*
X125512106Y-102255466D01*
X125492141Y-102265672D01*
X125487190Y-102268202D01*
X125478264Y-102268916D01*
X125473756Y-102266218D01*
X125210142Y-102012712D01*
X125206554Y-102004508D01*
X125209819Y-101996169D01*
X125212338Y-101994184D01*
X125553867Y-101794121D01*
X125562738Y-101792896D01*
X125567476Y-101795402D01*
G37*
%TD.AperFunction*%
%TD*%
%TA.AperFunction,Conductor*%
%TO.N,/RXD*%
G36*
X121746821Y-113006803D02*
G01*
X121943197Y-113203179D01*
X121946624Y-113211452D01*
X121943591Y-113219310D01*
X121817722Y-113358118D01*
X121721772Y-113492968D01*
X121656159Y-113619330D01*
X121613820Y-113740926D01*
X121587689Y-113861482D01*
X121570704Y-113984718D01*
X121570689Y-113984850D01*
X121555817Y-114114199D01*
X121555777Y-114114511D01*
X121535963Y-114253758D01*
X121535835Y-114254491D01*
X121504074Y-114407266D01*
X121503831Y-114408228D01*
X121455366Y-114570761D01*
X121449718Y-114577710D01*
X121444383Y-114579116D01*
X121280285Y-114582324D01*
X120361645Y-114600282D01*
X120353306Y-114597017D01*
X120349718Y-114588355D01*
X120370884Y-113505617D01*
X120374472Y-113497413D01*
X120379238Y-113494635D01*
X120541770Y-113446168D01*
X120542733Y-113445925D01*
X120695508Y-113414164D01*
X120696241Y-113414036D01*
X120835488Y-113394222D01*
X120835800Y-113394182D01*
X120931961Y-113383126D01*
X120965281Y-113379295D01*
X121088517Y-113362310D01*
X121143844Y-113350318D01*
X121208720Y-113336256D01*
X121208728Y-113336254D01*
X121209073Y-113336179D01*
X121209407Y-113336063D01*
X121209413Y-113336061D01*
X121330264Y-113293981D01*
X121330669Y-113293840D01*
X121457031Y-113228227D01*
X121591881Y-113132277D01*
X121730690Y-113006409D01*
X121739119Y-113003390D01*
X121746821Y-113006803D01*
G37*
%TD.AperFunction*%
%TD*%
%TA.AperFunction,Conductor*%
%TO.N,/RXD*%
G36*
X125589268Y-102752205D02*
G01*
X125624202Y-102752888D01*
X125632406Y-102756476D01*
X125635040Y-102760790D01*
X125649711Y-102803566D01*
X125665147Y-102848402D01*
X125679958Y-102888891D01*
X125695406Y-102926366D01*
X125712756Y-102962161D01*
X125733271Y-102997610D01*
X125733391Y-102997785D01*
X125733399Y-102997798D01*
X125748677Y-103020114D01*
X125758215Y-103034047D01*
X125788851Y-103072806D01*
X125826444Y-103115221D01*
X125826541Y-103115321D01*
X125864265Y-103154355D01*
X125867550Y-103162686D01*
X125864125Y-103170759D01*
X125668259Y-103366625D01*
X125659986Y-103370052D01*
X125651855Y-103366765D01*
X125651711Y-103366625D01*
X125612721Y-103328944D01*
X125570306Y-103291351D01*
X125531547Y-103260715D01*
X125517614Y-103251177D01*
X125495298Y-103235899D01*
X125495285Y-103235891D01*
X125495110Y-103235771D01*
X125494920Y-103235661D01*
X125494912Y-103235656D01*
X125459848Y-103215364D01*
X125459844Y-103215362D01*
X125459661Y-103215256D01*
X125423866Y-103197906D01*
X125386391Y-103182458D01*
X125386313Y-103182430D01*
X125386299Y-103182424D01*
X125345902Y-103167647D01*
X125301066Y-103152211D01*
X125258290Y-103137540D01*
X125251576Y-103131615D01*
X125250388Y-103126702D01*
X125243172Y-102757599D01*
X125246437Y-102749260D01*
X125255099Y-102745672D01*
X125589268Y-102752205D01*
G37*
%TD.AperFunction*%
%TD*%
%TA.AperFunction,Conductor*%
%TO.N,/CH11*%
G36*
X121652268Y-101119705D02*
G01*
X121687202Y-101120388D01*
X121695406Y-101123976D01*
X121698040Y-101128290D01*
X121712711Y-101171066D01*
X121728147Y-101215902D01*
X121742958Y-101256391D01*
X121758406Y-101293866D01*
X121775756Y-101329661D01*
X121796271Y-101365110D01*
X121796391Y-101365285D01*
X121796399Y-101365298D01*
X121811677Y-101387614D01*
X121821215Y-101401547D01*
X121851851Y-101440306D01*
X121889444Y-101482721D01*
X121889541Y-101482821D01*
X121927265Y-101521855D01*
X121930550Y-101530186D01*
X121927125Y-101538259D01*
X121731259Y-101734125D01*
X121722986Y-101737552D01*
X121714855Y-101734265D01*
X121714711Y-101734125D01*
X121675721Y-101696444D01*
X121633306Y-101658851D01*
X121594547Y-101628215D01*
X121580614Y-101618677D01*
X121558298Y-101603399D01*
X121558285Y-101603391D01*
X121558110Y-101603271D01*
X121557920Y-101603161D01*
X121557912Y-101603156D01*
X121522848Y-101582864D01*
X121522844Y-101582862D01*
X121522661Y-101582756D01*
X121486866Y-101565406D01*
X121449391Y-101549958D01*
X121449313Y-101549930D01*
X121449299Y-101549924D01*
X121408902Y-101535147D01*
X121364066Y-101519711D01*
X121321290Y-101505040D01*
X121314576Y-101499115D01*
X121313388Y-101494202D01*
X121306172Y-101125099D01*
X121309437Y-101116760D01*
X121318099Y-101113172D01*
X121652268Y-101119705D01*
G37*
%TD.AperFunction*%
%TD*%
%TA.AperFunction,Conductor*%
%TO.N,/CH11*%
G36*
X119206821Y-113006803D02*
G01*
X119403197Y-113203179D01*
X119406624Y-113211452D01*
X119403591Y-113219310D01*
X119277722Y-113358118D01*
X119181772Y-113492968D01*
X119116159Y-113619330D01*
X119073820Y-113740926D01*
X119047689Y-113861482D01*
X119030704Y-113984718D01*
X119030689Y-113984850D01*
X119015817Y-114114199D01*
X119015777Y-114114511D01*
X118995963Y-114253758D01*
X118995835Y-114254491D01*
X118964074Y-114407266D01*
X118963831Y-114408228D01*
X118915366Y-114570761D01*
X118909718Y-114577710D01*
X118904383Y-114579116D01*
X118740285Y-114582324D01*
X117821645Y-114600282D01*
X117813306Y-114597017D01*
X117809718Y-114588355D01*
X117830884Y-113505617D01*
X117834472Y-113497413D01*
X117839238Y-113494635D01*
X118001770Y-113446168D01*
X118002733Y-113445925D01*
X118155508Y-113414164D01*
X118156241Y-113414036D01*
X118295488Y-113394222D01*
X118295800Y-113394182D01*
X118391961Y-113383126D01*
X118425281Y-113379295D01*
X118548517Y-113362310D01*
X118603844Y-113350318D01*
X118668720Y-113336256D01*
X118668728Y-113336254D01*
X118669073Y-113336179D01*
X118669407Y-113336063D01*
X118669413Y-113336061D01*
X118790264Y-113293981D01*
X118790669Y-113293840D01*
X118917031Y-113228227D01*
X119051881Y-113132277D01*
X119190690Y-113006409D01*
X119199119Y-113003390D01*
X119206821Y-113006803D01*
G37*
%TD.AperFunction*%
%TD*%
%TA.AperFunction,Conductor*%
%TO.N,/CH10*%
G36*
X120763268Y-101500705D02*
G01*
X120798202Y-101501388D01*
X120806406Y-101504976D01*
X120809040Y-101509290D01*
X120823711Y-101552066D01*
X120839147Y-101596902D01*
X120853958Y-101637391D01*
X120869406Y-101674866D01*
X120886756Y-101710661D01*
X120907271Y-101746110D01*
X120907391Y-101746285D01*
X120907399Y-101746298D01*
X120922677Y-101768614D01*
X120932215Y-101782547D01*
X120962851Y-101821306D01*
X121000444Y-101863721D01*
X121000541Y-101863821D01*
X121038265Y-101902855D01*
X121041550Y-101911186D01*
X121038125Y-101919259D01*
X120842259Y-102115125D01*
X120833986Y-102118552D01*
X120825855Y-102115265D01*
X120825711Y-102115125D01*
X120786721Y-102077444D01*
X120744306Y-102039851D01*
X120705547Y-102009215D01*
X120691614Y-101999677D01*
X120669298Y-101984399D01*
X120669285Y-101984391D01*
X120669110Y-101984271D01*
X120668920Y-101984161D01*
X120668912Y-101984156D01*
X120633848Y-101963864D01*
X120633844Y-101963862D01*
X120633661Y-101963756D01*
X120597866Y-101946406D01*
X120560391Y-101930958D01*
X120560313Y-101930930D01*
X120560299Y-101930924D01*
X120519902Y-101916147D01*
X120475066Y-101900711D01*
X120432290Y-101886040D01*
X120425576Y-101880115D01*
X120424388Y-101875202D01*
X120417172Y-101506099D01*
X120420437Y-101497760D01*
X120429099Y-101494172D01*
X120763268Y-101500705D01*
G37*
%TD.AperFunction*%
%TD*%
%TA.AperFunction,Conductor*%
%TO.N,/CH10*%
G36*
X116666821Y-113006803D02*
G01*
X116863197Y-113203179D01*
X116866624Y-113211452D01*
X116863591Y-113219310D01*
X116737722Y-113358118D01*
X116641772Y-113492968D01*
X116576159Y-113619330D01*
X116533820Y-113740926D01*
X116507689Y-113861482D01*
X116490704Y-113984718D01*
X116490689Y-113984850D01*
X116475817Y-114114199D01*
X116475777Y-114114511D01*
X116455963Y-114253758D01*
X116455835Y-114254491D01*
X116424074Y-114407266D01*
X116423831Y-114408228D01*
X116375366Y-114570761D01*
X116369718Y-114577710D01*
X116364383Y-114579116D01*
X116200285Y-114582324D01*
X115281645Y-114600282D01*
X115273306Y-114597017D01*
X115269718Y-114588355D01*
X115290884Y-113505617D01*
X115294472Y-113497413D01*
X115299238Y-113494635D01*
X115461770Y-113446168D01*
X115462733Y-113445925D01*
X115615508Y-113414164D01*
X115616241Y-113414036D01*
X115755488Y-113394222D01*
X115755800Y-113394182D01*
X115851961Y-113383126D01*
X115885281Y-113379295D01*
X116008517Y-113362310D01*
X116063844Y-113350318D01*
X116128720Y-113336256D01*
X116128728Y-113336254D01*
X116129073Y-113336179D01*
X116129407Y-113336063D01*
X116129413Y-113336061D01*
X116250264Y-113293981D01*
X116250669Y-113293840D01*
X116377031Y-113228227D01*
X116511881Y-113132277D01*
X116650690Y-113006409D01*
X116659119Y-113003390D01*
X116666821Y-113006803D01*
G37*
%TD.AperFunction*%
%TD*%
%TA.AperFunction,Conductor*%
%TO.N,/IRQ*%
G36*
X114692118Y-99047597D02*
G01*
X114732739Y-99067470D01*
X114775315Y-99088238D01*
X114775349Y-99088254D01*
X114775359Y-99088259D01*
X114814461Y-99106416D01*
X114851884Y-99121991D01*
X114889463Y-99135034D01*
X114889655Y-99135085D01*
X114889664Y-99135088D01*
X114920783Y-99143392D01*
X114929036Y-99145594D01*
X114972439Y-99153721D01*
X115021510Y-99159464D01*
X115052273Y-99161318D01*
X115077947Y-99162866D01*
X115077959Y-99162866D01*
X115078084Y-99162874D01*
X115078213Y-99162876D01*
X115078234Y-99162877D01*
X115132500Y-99163804D01*
X115140713Y-99167371D01*
X115144000Y-99175502D01*
X115144000Y-99452498D01*
X115140573Y-99460771D01*
X115132500Y-99464196D01*
X115078234Y-99465122D01*
X115078213Y-99465123D01*
X115078084Y-99465125D01*
X115077959Y-99465133D01*
X115077947Y-99465133D01*
X115052273Y-99466681D01*
X115021510Y-99468535D01*
X114972439Y-99474278D01*
X114929036Y-99482405D01*
X114928819Y-99482463D01*
X114889664Y-99492911D01*
X114889655Y-99492914D01*
X114889463Y-99492965D01*
X114851884Y-99506008D01*
X114814461Y-99521583D01*
X114814375Y-99521623D01*
X114775393Y-99539724D01*
X114775315Y-99539761D01*
X114732739Y-99560529D01*
X114692118Y-99580403D01*
X114683180Y-99580960D01*
X114678866Y-99578326D01*
X114412769Y-99322433D01*
X114409181Y-99314229D01*
X114412769Y-99305567D01*
X114678866Y-99049674D01*
X114687205Y-99046409D01*
X114692118Y-99047597D01*
G37*
%TD.AperFunction*%
%TD*%
%TA.AperFunction,Conductor*%
%TO.N,/IRQ*%
G36*
X122506144Y-100703735D02*
G01*
X122545278Y-100741555D01*
X122587693Y-100779148D01*
X122626452Y-100809784D01*
X122640385Y-100819322D01*
X122662701Y-100834600D01*
X122662714Y-100834608D01*
X122662889Y-100834728D01*
X122663079Y-100834838D01*
X122663087Y-100834843D01*
X122698151Y-100855135D01*
X122698338Y-100855243D01*
X122734133Y-100872593D01*
X122771608Y-100888041D01*
X122771686Y-100888069D01*
X122771700Y-100888075D01*
X122812097Y-100902852D01*
X122856933Y-100918288D01*
X122899710Y-100932960D01*
X122906424Y-100938885D01*
X122907612Y-100943798D01*
X122914828Y-101312901D01*
X122911563Y-101321240D01*
X122902901Y-101324828D01*
X122568732Y-101318295D01*
X122533798Y-101317612D01*
X122525594Y-101314024D01*
X122522960Y-101309710D01*
X122508288Y-101266933D01*
X122492852Y-101222097D01*
X122478075Y-101181700D01*
X122478069Y-101181686D01*
X122478041Y-101181608D01*
X122462593Y-101144133D01*
X122445243Y-101108338D01*
X122424728Y-101072889D01*
X122424608Y-101072714D01*
X122424600Y-101072701D01*
X122399902Y-101036625D01*
X122399784Y-101036452D01*
X122369148Y-100997693D01*
X122331555Y-100955278D01*
X122293735Y-100916144D01*
X122290450Y-100907814D01*
X122293875Y-100899741D01*
X122489741Y-100703875D01*
X122498014Y-100700448D01*
X122506144Y-100703735D01*
G37*
%TD.AperFunction*%
%TD*%
%TA.AperFunction,Conductor*%
%TO.N,/PWM1*%
G36*
X106506821Y-113006803D02*
G01*
X106703197Y-113203179D01*
X106706624Y-113211452D01*
X106703591Y-113219310D01*
X106577722Y-113358118D01*
X106481772Y-113492968D01*
X106416159Y-113619330D01*
X106373820Y-113740926D01*
X106347689Y-113861482D01*
X106330704Y-113984718D01*
X106330689Y-113984850D01*
X106315817Y-114114199D01*
X106315777Y-114114511D01*
X106295963Y-114253758D01*
X106295835Y-114254491D01*
X106264074Y-114407266D01*
X106263831Y-114408228D01*
X106215366Y-114570761D01*
X106209718Y-114577710D01*
X106204383Y-114579116D01*
X106040285Y-114582324D01*
X105121645Y-114600282D01*
X105113306Y-114597017D01*
X105109718Y-114588355D01*
X105130884Y-113505617D01*
X105134472Y-113497413D01*
X105139238Y-113494635D01*
X105301770Y-113446168D01*
X105302733Y-113445925D01*
X105455508Y-113414164D01*
X105456241Y-113414036D01*
X105595488Y-113394222D01*
X105595800Y-113394182D01*
X105691961Y-113383126D01*
X105725281Y-113379295D01*
X105848517Y-113362310D01*
X105903844Y-113350318D01*
X105968720Y-113336256D01*
X105968728Y-113336254D01*
X105969073Y-113336179D01*
X105969407Y-113336063D01*
X105969413Y-113336061D01*
X106090264Y-113293981D01*
X106090669Y-113293840D01*
X106217031Y-113228227D01*
X106351881Y-113132277D01*
X106490690Y-113006409D01*
X106499119Y-113003390D01*
X106506821Y-113006803D01*
G37*
%TD.AperFunction*%
%TD*%
%TA.AperFunction,Conductor*%
%TO.N,/PWM1*%
G36*
X116461134Y-107177674D02*
G01*
X116727231Y-107433567D01*
X116730819Y-107441771D01*
X116727231Y-107450433D01*
X116461134Y-107706326D01*
X116452795Y-107709591D01*
X116447882Y-107708403D01*
X116407260Y-107688529D01*
X116364684Y-107667761D01*
X116364606Y-107667724D01*
X116325624Y-107649623D01*
X116325538Y-107649583D01*
X116288115Y-107634008D01*
X116250536Y-107620965D01*
X116250344Y-107620914D01*
X116250335Y-107620911D01*
X116211180Y-107610463D01*
X116210963Y-107610405D01*
X116167560Y-107602278D01*
X116118489Y-107596535D01*
X116087726Y-107594681D01*
X116062052Y-107593133D01*
X116062040Y-107593133D01*
X116061915Y-107593125D01*
X116061786Y-107593123D01*
X116061765Y-107593122D01*
X116007500Y-107592196D01*
X115999287Y-107588629D01*
X115996000Y-107580498D01*
X115996000Y-107303502D01*
X115999427Y-107295229D01*
X116007500Y-107291804D01*
X116061765Y-107290877D01*
X116061786Y-107290876D01*
X116061915Y-107290874D01*
X116062040Y-107290866D01*
X116062052Y-107290866D01*
X116087726Y-107289318D01*
X116118489Y-107287464D01*
X116167560Y-107281721D01*
X116210963Y-107273594D01*
X116219216Y-107271392D01*
X116250335Y-107263088D01*
X116250344Y-107263085D01*
X116250536Y-107263034D01*
X116288115Y-107249991D01*
X116325538Y-107234416D01*
X116364640Y-107216259D01*
X116364650Y-107216254D01*
X116364684Y-107216238D01*
X116407260Y-107195470D01*
X116447882Y-107175597D01*
X116456820Y-107175040D01*
X116461134Y-107177674D01*
G37*
%TD.AperFunction*%
%TD*%
%TA.AperFunction,Conductor*%
%TO.N,/PWM5*%
G36*
X103966821Y-113006803D02*
G01*
X104163197Y-113203179D01*
X104166624Y-113211452D01*
X104163591Y-113219310D01*
X104037722Y-113358118D01*
X103941772Y-113492968D01*
X103876159Y-113619330D01*
X103833820Y-113740926D01*
X103807689Y-113861482D01*
X103790704Y-113984718D01*
X103790689Y-113984850D01*
X103775817Y-114114199D01*
X103775777Y-114114511D01*
X103755963Y-114253758D01*
X103755835Y-114254491D01*
X103724074Y-114407266D01*
X103723831Y-114408228D01*
X103675366Y-114570761D01*
X103669718Y-114577710D01*
X103664383Y-114579116D01*
X103500285Y-114582324D01*
X102581645Y-114600282D01*
X102573306Y-114597017D01*
X102569718Y-114588355D01*
X102590884Y-113505617D01*
X102594472Y-113497413D01*
X102599238Y-113494635D01*
X102761770Y-113446168D01*
X102762733Y-113445925D01*
X102915508Y-113414164D01*
X102916241Y-113414036D01*
X103055488Y-113394222D01*
X103055800Y-113394182D01*
X103151961Y-113383126D01*
X103185281Y-113379295D01*
X103308517Y-113362310D01*
X103363844Y-113350318D01*
X103428720Y-113336256D01*
X103428728Y-113336254D01*
X103429073Y-113336179D01*
X103429407Y-113336063D01*
X103429413Y-113336061D01*
X103550264Y-113293981D01*
X103550669Y-113293840D01*
X103677031Y-113228227D01*
X103811881Y-113132277D01*
X103950690Y-113006409D01*
X103959119Y-113003390D01*
X103966821Y-113006803D01*
G37*
%TD.AperFunction*%
%TD*%
%TA.AperFunction,Conductor*%
%TO.N,/PWM5*%
G36*
X118847240Y-102005437D02*
G01*
X118850828Y-102014099D01*
X118843612Y-102383202D01*
X118840024Y-102391406D01*
X118835710Y-102394040D01*
X118792933Y-102408711D01*
X118748097Y-102424147D01*
X118707700Y-102438924D01*
X118707686Y-102438930D01*
X118707608Y-102438958D01*
X118670133Y-102454406D01*
X118634338Y-102471756D01*
X118634155Y-102471862D01*
X118634151Y-102471864D01*
X118599087Y-102492156D01*
X118599079Y-102492161D01*
X118598889Y-102492271D01*
X118598714Y-102492391D01*
X118598701Y-102492399D01*
X118576385Y-102507677D01*
X118562452Y-102517215D01*
X118523693Y-102547851D01*
X118481278Y-102585444D01*
X118442144Y-102623265D01*
X118433815Y-102626550D01*
X118425741Y-102623125D01*
X118229875Y-102427259D01*
X118226448Y-102418986D01*
X118229735Y-102410855D01*
X118231807Y-102408711D01*
X118267555Y-102371721D01*
X118305148Y-102329306D01*
X118335784Y-102290547D01*
X118345322Y-102276614D01*
X118360600Y-102254298D01*
X118360608Y-102254285D01*
X118360728Y-102254110D01*
X118381243Y-102218661D01*
X118398593Y-102182866D01*
X118414041Y-102145391D01*
X118428852Y-102104902D01*
X118444288Y-102060066D01*
X118458960Y-102017290D01*
X118464886Y-102010576D01*
X118469798Y-102009388D01*
X118504732Y-102008705D01*
X118838901Y-102002172D01*
X118847240Y-102005437D01*
G37*
%TD.AperFunction*%
%TD*%
%TA.AperFunction,Conductor*%
%TO.N,/PWM6*%
G36*
X101129902Y-112795854D02*
G01*
X101326284Y-112992236D01*
X101329711Y-113000509D01*
X101326751Y-113008287D01*
X101222796Y-113125081D01*
X101145967Y-113241744D01*
X101098636Y-113352894D01*
X101075834Y-113461397D01*
X101072595Y-113570115D01*
X101083949Y-113681912D01*
X101083986Y-113682119D01*
X101083987Y-113682127D01*
X101097908Y-113760245D01*
X101104930Y-113799654D01*
X101104941Y-113799706D01*
X101104946Y-113799735D01*
X101130551Y-113926112D01*
X101130592Y-113926326D01*
X101155848Y-114064135D01*
X101155940Y-114064721D01*
X101174856Y-114208814D01*
X101172536Y-114217463D01*
X101168361Y-114220865D01*
X100193844Y-114693420D01*
X100184905Y-114693946D01*
X100178020Y-114687582D01*
X99743958Y-113695446D01*
X99743781Y-113686493D01*
X99746956Y-113681965D01*
X99889823Y-113556495D01*
X99890736Y-113555771D01*
X100028130Y-113457473D01*
X100029089Y-113456855D01*
X100158458Y-113382178D01*
X100159244Y-113381763D01*
X100284151Y-113321900D01*
X100284509Y-113321736D01*
X100408328Y-113267996D01*
X100534164Y-113211758D01*
X100534279Y-113211699D01*
X100534287Y-113211695D01*
X100579844Y-113188254D01*
X100665139Y-113144365D01*
X100804559Y-113057083D01*
X100955730Y-112941176D01*
X101113700Y-112795524D01*
X101122103Y-112792437D01*
X101129902Y-112795854D01*
G37*
%TD.AperFunction*%
%TD*%
%TA.AperFunction,Conductor*%
%TO.N,/PWM6*%
G36*
X118671537Y-100991259D02*
G01*
X118675125Y-100999921D01*
X118667909Y-101369024D01*
X118664321Y-101377228D01*
X118660007Y-101379862D01*
X118617230Y-101394533D01*
X118572394Y-101409969D01*
X118531997Y-101424746D01*
X118531983Y-101424752D01*
X118531905Y-101424780D01*
X118494430Y-101440228D01*
X118458635Y-101457578D01*
X118458452Y-101457684D01*
X118458448Y-101457686D01*
X118423384Y-101477978D01*
X118423376Y-101477983D01*
X118423186Y-101478093D01*
X118423011Y-101478213D01*
X118422998Y-101478221D01*
X118400682Y-101493499D01*
X118386749Y-101503037D01*
X118347990Y-101533673D01*
X118305575Y-101571266D01*
X118266441Y-101609087D01*
X118258112Y-101612372D01*
X118250038Y-101608947D01*
X118054172Y-101413081D01*
X118050745Y-101404808D01*
X118054032Y-101396677D01*
X118056104Y-101394533D01*
X118091852Y-101357543D01*
X118129445Y-101315128D01*
X118160081Y-101276369D01*
X118169619Y-101262436D01*
X118184897Y-101240120D01*
X118184905Y-101240107D01*
X118185025Y-101239932D01*
X118205540Y-101204483D01*
X118222890Y-101168688D01*
X118238338Y-101131213D01*
X118253149Y-101090724D01*
X118268585Y-101045888D01*
X118283257Y-101003112D01*
X118289183Y-100996398D01*
X118294095Y-100995210D01*
X118329029Y-100994527D01*
X118663198Y-100987994D01*
X118671537Y-100991259D01*
G37*
%TD.AperFunction*%
%TD*%
%TA.AperFunction,Conductor*%
%TO.N,/PWM7*%
G36*
X98886821Y-113006803D02*
G01*
X99083197Y-113203179D01*
X99086624Y-113211452D01*
X99083591Y-113219310D01*
X98957722Y-113358118D01*
X98861772Y-113492968D01*
X98796159Y-113619330D01*
X98753820Y-113740926D01*
X98727689Y-113861482D01*
X98710704Y-113984718D01*
X98710689Y-113984850D01*
X98695817Y-114114199D01*
X98695777Y-114114511D01*
X98675963Y-114253758D01*
X98675835Y-114254491D01*
X98644074Y-114407266D01*
X98643831Y-114408228D01*
X98595366Y-114570761D01*
X98589718Y-114577710D01*
X98584383Y-114579116D01*
X98420285Y-114582324D01*
X97501645Y-114600282D01*
X97493306Y-114597017D01*
X97489718Y-114588355D01*
X97510884Y-113505617D01*
X97514472Y-113497413D01*
X97519238Y-113494635D01*
X97681770Y-113446168D01*
X97682733Y-113445925D01*
X97835508Y-113414164D01*
X97836241Y-113414036D01*
X97975488Y-113394222D01*
X97975800Y-113394182D01*
X98071961Y-113383126D01*
X98105281Y-113379295D01*
X98228517Y-113362310D01*
X98283844Y-113350318D01*
X98348720Y-113336256D01*
X98348728Y-113336254D01*
X98349073Y-113336179D01*
X98349407Y-113336063D01*
X98349413Y-113336061D01*
X98470264Y-113293981D01*
X98470669Y-113293840D01*
X98597031Y-113228227D01*
X98731881Y-113132277D01*
X98870690Y-113006409D01*
X98879119Y-113003390D01*
X98886821Y-113006803D01*
G37*
%TD.AperFunction*%
%TD*%
%TA.AperFunction,Conductor*%
%TO.N,/PWM7*%
G36*
X118261034Y-100199861D02*
G01*
X118267233Y-100206895D01*
X118369768Y-100526851D01*
X118379890Y-100558437D01*
X118379151Y-100567362D01*
X118375900Y-100571268D01*
X118358129Y-100584993D01*
X118355454Y-100586542D01*
X118291672Y-100612961D01*
X118176676Y-100701201D01*
X118176211Y-100701807D01*
X118132608Y-100758630D01*
X118130925Y-100760404D01*
X118104057Y-100783352D01*
X118102413Y-100784757D01*
X118059850Y-100823096D01*
X118011931Y-100868372D01*
X118011890Y-100868413D01*
X118011882Y-100868420D01*
X117965359Y-100914169D01*
X117957058Y-100917527D01*
X117948883Y-100914100D01*
X117755164Y-100720381D01*
X117751737Y-100712108D01*
X117754155Y-100704986D01*
X117771485Y-100682400D01*
X117772293Y-100681455D01*
X117784381Y-100668757D01*
X117784387Y-100668750D01*
X117784511Y-100668620D01*
X117816538Y-100630475D01*
X117841833Y-100594743D01*
X117861196Y-100560429D01*
X117875425Y-100526537D01*
X117885318Y-100492073D01*
X117891675Y-100456041D01*
X117895292Y-100417447D01*
X117896812Y-100379274D01*
X117896903Y-100378213D01*
X117902808Y-100333360D01*
X117907285Y-100325605D01*
X117910403Y-100323894D01*
X118231703Y-100206895D01*
X118252088Y-100199472D01*
X118261034Y-100199861D01*
G37*
%TD.AperFunction*%
%TD*%
%TA.AperFunction,Conductor*%
%TO.N,/PWM8*%
G36*
X96346821Y-113006803D02*
G01*
X96543197Y-113203179D01*
X96546624Y-113211452D01*
X96543591Y-113219310D01*
X96417722Y-113358118D01*
X96321772Y-113492968D01*
X96256159Y-113619330D01*
X96213820Y-113740926D01*
X96187689Y-113861482D01*
X96170704Y-113984718D01*
X96170689Y-113984850D01*
X96155817Y-114114199D01*
X96155777Y-114114511D01*
X96135963Y-114253758D01*
X96135835Y-114254491D01*
X96104074Y-114407266D01*
X96103831Y-114408228D01*
X96055366Y-114570761D01*
X96049718Y-114577710D01*
X96044383Y-114579116D01*
X95880285Y-114582324D01*
X94961645Y-114600282D01*
X94953306Y-114597017D01*
X94949718Y-114588355D01*
X94970884Y-113505617D01*
X94974472Y-113497413D01*
X94979238Y-113494635D01*
X95141770Y-113446168D01*
X95142733Y-113445925D01*
X95295508Y-113414164D01*
X95296241Y-113414036D01*
X95435488Y-113394222D01*
X95435800Y-113394182D01*
X95531961Y-113383126D01*
X95565281Y-113379295D01*
X95688517Y-113362310D01*
X95743844Y-113350318D01*
X95808720Y-113336256D01*
X95808728Y-113336254D01*
X95809073Y-113336179D01*
X95809407Y-113336063D01*
X95809413Y-113336061D01*
X95930264Y-113293981D01*
X95930669Y-113293840D01*
X96057031Y-113228227D01*
X96191881Y-113132277D01*
X96330690Y-113006409D01*
X96339119Y-113003390D01*
X96346821Y-113006803D01*
G37*
%TD.AperFunction*%
%TD*%
%TA.AperFunction,Conductor*%
%TO.N,/PWM8*%
G36*
X117223134Y-100065674D02*
G01*
X117489231Y-100321567D01*
X117492819Y-100329771D01*
X117489231Y-100338433D01*
X117223134Y-100594326D01*
X117214795Y-100597591D01*
X117209882Y-100596403D01*
X117169260Y-100576529D01*
X117126684Y-100555761D01*
X117126606Y-100555724D01*
X117087624Y-100537623D01*
X117087538Y-100537583D01*
X117050115Y-100522008D01*
X117012536Y-100508965D01*
X117012344Y-100508914D01*
X117012335Y-100508911D01*
X116973180Y-100498463D01*
X116972963Y-100498405D01*
X116929560Y-100490278D01*
X116880489Y-100484535D01*
X116849726Y-100482681D01*
X116824052Y-100481133D01*
X116824040Y-100481133D01*
X116823915Y-100481125D01*
X116823786Y-100481123D01*
X116823765Y-100481122D01*
X116769500Y-100480196D01*
X116761287Y-100476629D01*
X116758000Y-100468498D01*
X116758000Y-100191502D01*
X116761427Y-100183229D01*
X116769500Y-100179804D01*
X116823765Y-100178877D01*
X116823786Y-100178876D01*
X116823915Y-100178874D01*
X116824040Y-100178866D01*
X116824052Y-100178866D01*
X116849726Y-100177318D01*
X116880489Y-100175464D01*
X116929560Y-100169721D01*
X116972963Y-100161594D01*
X116981216Y-100159392D01*
X117012335Y-100151088D01*
X117012344Y-100151085D01*
X117012536Y-100151034D01*
X117050115Y-100137991D01*
X117087538Y-100122416D01*
X117126640Y-100104259D01*
X117126650Y-100104254D01*
X117126684Y-100104238D01*
X117169260Y-100083470D01*
X117209882Y-100063597D01*
X117218820Y-100063040D01*
X117223134Y-100065674D01*
G37*
%TD.AperFunction*%
%TD*%
M02*
