M48
; DRILL file {KiCad (6.0.5)} date Thu Jan  5 14:47:50 2023
; FORMAT={-:-/ absolute / inch / decimal}
; #@! TF.CreationDate,2023-01-05T14:47:50+08:00
; #@! TF.GenerationSoftware,Kicad,Pcbnew,(6.0.5)
; #@! TF.FileFunction,Plated,1,2,PTH
FMAT,2
INCH
; #@! TA.AperFunction,Plated,PTH,ViaDrill
T1C0.0098
; #@! TA.AperFunction,Plated,PTH,ViaDrill
T2C0.0118
; #@! TA.AperFunction,Plated,PTH,ViaDrill
T3C0.0157
; #@! TA.AperFunction,Plated,PTH,ViaDrill
T4C0.0394
%
G90
G05
T1
X3.535Y-5.125
X3.535Y-5.15
X3.535Y-5.175
X3.535Y-5.2
X3.535Y-5.67
X3.535Y-5.695
X3.535Y-5.72
X3.54Y-4.705
X3.54Y-4.73
X3.54Y-4.755
X3.56Y-5.67
X3.56Y-5.695
X3.56Y-5.72
X3.565Y-4.705
X3.565Y-4.73
X3.565Y-4.755
X3.585Y-5.67
X3.585Y-5.695
X3.585Y-5.72
X3.59Y-4.705
X3.59Y-4.73
X3.59Y-4.755
X3.595Y-5.45
X3.61Y-5.67
X3.61Y-5.695
X3.61Y-5.72
X3.615Y-4.705
X3.615Y-4.73
X3.615Y-4.755
X3.62Y-5.12
X3.62Y-5.145
X3.62Y-5.17
X3.62Y-5.195
X3.62Y-5.45
X3.635Y-5.67
X3.635Y-5.695
X3.635Y-5.72
X3.64Y-4.705
X3.64Y-4.73
X3.64Y-4.755
X3.645Y-5.45
X3.66Y-5.67
X3.66Y-5.695
X3.66Y-5.72
X3.665Y-4.705
X3.665Y-4.73
X3.665Y-4.755
X3.665Y-5.475
X3.67Y-5.45
X3.675Y-5.5
X3.685Y-5.67
X3.685Y-5.695
X3.685Y-5.72
X3.69Y-4.705
X3.69Y-4.73
X3.69Y-4.755
X3.695Y-5.265
X3.695Y-5.3
X3.705Y-5.335
X3.705Y-5.5
X3.71Y-5.235
X3.71Y-5.67
X3.71Y-5.695
X3.71Y-5.72
X3.715Y-4.705
X3.715Y-4.73
X3.715Y-4.755
X3.72Y-5.365
X3.725Y-5.265
X3.735Y-5.5
X3.735Y-5.67
X3.735Y-5.695
X3.735Y-5.72
X3.74Y-4.705
X3.74Y-4.73
X3.74Y-4.755
X3.74Y-5.145
X3.74Y-5.185
X3.74Y-5.225
X3.74Y-5.32
X3.745Y-5.295
X3.745Y-5.355
X3.75Y-5.265
X3.76Y-5.67
X3.76Y-5.695
X3.76Y-5.72
X3.765Y-4.705
X3.765Y-4.73
X3.765Y-4.755
X3.765Y-5.34
X3.77Y-5.365
X3.775Y-5.26
X3.78Y-5.29
X3.78Y-5.32
X3.785Y-5.67
X3.785Y-5.695
X3.785Y-5.72
X3.79Y-4.705
X3.79Y-4.73
X3.79Y-4.755
X3.79Y-5.345
X3.805Y-5.29
X3.805Y-5.32
X3.81Y-5.67
X3.81Y-5.695
X3.81Y-5.72
X3.815Y-4.705
X3.815Y-4.73
X3.815Y-4.755
X3.835Y-5.67
X3.835Y-5.695
X3.835Y-5.72
X3.84Y-4.705
X3.84Y-4.73
X3.84Y-4.755
X3.855Y-5.325
X3.855Y-5.57
X3.86Y-5.52
X3.86Y-5.545
X3.86Y-5.67
X3.86Y-5.695
X3.86Y-5.72
X3.865Y-4.705
X3.865Y-4.73
X3.865Y-4.755
X3.865Y-5.445
X3.87Y-5.495
X3.885Y-5.67
X3.885Y-5.695
X3.885Y-5.72
X3.89Y-4.705
X3.89Y-4.73
X3.89Y-4.755
X3.895Y-5.035
X3.895Y-5.06
X3.895Y-5.085
X3.895Y-5.17
X3.895Y-5.21
X3.905Y-4.85
X3.905Y-4.875
X3.91Y-5.67
X3.91Y-5.695
X3.91Y-5.72
X3.915Y-4.705
X3.915Y-4.73
X3.915Y-4.755
X3.915Y-5.19
X3.92Y-5.035
X3.92Y-5.06
X3.92Y-5.085
X3.92Y-5.11
X3.93Y-4.85
X3.93Y-4.875
X3.935Y-5.67
X3.935Y-5.695
X3.935Y-5.72
X3.94Y-4.705
X3.94Y-4.73
X3.94Y-4.755
X3.945Y-5.035
X3.945Y-5.06
X3.945Y-5.085
X3.945Y-5.11
X3.945Y-5.135
X3.95Y-5.51
X3.95Y-5.55
X3.955Y-4.85
X3.955Y-4.875
X3.96Y-5.67
X3.96Y-5.695
X3.96Y-5.72
X3.965Y-4.705
X3.965Y-4.73
X3.965Y-4.755
X3.97Y-5.035
X3.97Y-5.06
X3.97Y-5.085
X3.97Y-5.11
X3.97Y-5.135
X3.97Y-5.16
X3.97Y-5.185
X3.98Y-5.255
X3.985Y-5.67
X3.985Y-5.695
X3.985Y-5.72
X3.99Y-4.705
X3.99Y-4.73
X3.99Y-4.755
X3.995Y-5.035
X3.995Y-5.06
X3.995Y-5.085
X3.995Y-5.11
X3.995Y-5.135
X3.995Y-5.16
X3.995Y-5.185
X3.995Y-5.51
X3.995Y-5.55
X4.005Y-5.255
X4.005Y-5.435
X4.01Y-5.67
X4.01Y-5.695
X4.01Y-5.72
X4.015Y-4.705
X4.015Y-4.73
X4.015Y-4.755
X4.02Y-4.92
X4.02Y-5.035
X4.02Y-5.06
X4.02Y-5.085
X4.02Y-5.11
X4.02Y-5.135
X4.02Y-5.16
X4.02Y-5.185
X4.03Y-4.895
X4.03Y-5.255
X4.035Y-5.67
X4.035Y-5.695
X4.035Y-5.72
X4.04Y-4.705
X4.04Y-4.73
X4.04Y-4.755
X4.045Y-5.035
X4.045Y-5.06
X4.045Y-5.085
X4.045Y-5.11
X4.045Y-5.135
X4.045Y-5.16
X4.045Y-5.185
X4.055Y-5.22
X4.055Y-5.255
X4.06Y-5.67
X4.06Y-5.695
X4.06Y-5.72
X4.065Y-4.705
X4.065Y-4.73
X4.065Y-4.755
X4.07Y-5.035
X4.07Y-5.06
X4.07Y-5.085
X4.07Y-5.11
X4.07Y-5.135
X4.07Y-5.16
X4.07Y-5.185
X4.085Y-5.67
X4.085Y-5.695
X4.085Y-5.72
X4.09Y-4.705
X4.09Y-4.73
X4.09Y-4.755
X4.095Y-5.035
X4.095Y-5.06
X4.095Y-5.085
X4.095Y-5.11
X4.095Y-5.135
X4.095Y-5.16
X4.095Y-5.185
X4.11Y-5.67
X4.11Y-5.695
X4.11Y-5.72
X4.115Y-4.705
X4.115Y-4.73
X4.115Y-4.755
X4.135Y-5.67
X4.135Y-5.695
X4.135Y-5.72
X4.14Y-4.705
X4.14Y-4.73
X4.14Y-4.755
X4.14Y-5.5
X4.15Y-5.55
X4.155Y-5.3
X4.155Y-5.33
X4.16Y-5.67
X4.16Y-5.695
X4.16Y-5.72
X4.165Y-4.705
X4.165Y-4.73
X4.165Y-4.755
X4.185Y-5.3
X4.185Y-5.33
X4.185Y-5.67
X4.185Y-5.695
X4.185Y-5.72
X4.19Y-4.705
X4.19Y-4.73
X4.19Y-4.755
X4.2Y-5.52
X4.2Y-5.55
X4.21Y-5.67
X4.21Y-5.695
X4.21Y-5.72
X4.215Y-4.705
X4.215Y-4.73
X4.215Y-4.755
X4.215Y-5.255
X4.215Y-5.3
X4.215Y-5.33
X4.215Y-5.36
X4.225Y-5.095
X4.225Y-5.16
X4.23Y-5.49
X4.23Y-5.52
X4.23Y-5.55
X4.235Y-5.41
X4.235Y-5.67
X4.235Y-5.695
X4.235Y-5.72
X4.24Y-4.705
X4.24Y-4.73
X4.24Y-4.755
X4.26Y-5.67
X4.26Y-5.695
X4.26Y-5.72
X4.265Y-4.705
X4.265Y-4.73
X4.265Y-4.755
X4.265Y-5.13
X4.265Y-5.19
X4.285Y-5.11
X4.285Y-5.21
X4.285Y-5.325
X4.285Y-5.67
X4.285Y-5.695
X4.285Y-5.72
X4.29Y-4.705
X4.29Y-4.73
X4.29Y-4.755
X4.31Y-5.67
X4.31Y-5.695
X4.31Y-5.72
X4.315Y-4.705
X4.315Y-4.73
X4.315Y-4.755
X4.315Y-5.355
X4.335Y-5.67
X4.335Y-5.695
X4.335Y-5.72
X4.34Y-4.705
X4.34Y-4.73
X4.34Y-4.755
X4.345Y-5.33
X4.345Y-5.355
X4.355Y-5.235
X4.36Y-4.942
X4.36Y-5.67
X4.36Y-5.695
X4.36Y-5.72
X4.364Y-5.005
X4.364Y-5.073
X4.365Y-4.705
X4.365Y-4.73
X4.365Y-4.755
X4.365Y-5.525
X4.37Y-5.104
X4.375Y-5.305
X4.375Y-5.33
X4.375Y-5.355
X4.385Y-5.235
X4.385Y-5.67
X4.385Y-5.695
X4.385Y-5.72
X4.388Y-4.942
X4.39Y-4.705
X4.39Y-4.73
X4.39Y-4.755
X4.39Y-5.54
X4.392Y-5.131
X4.393Y-5.004
X4.405Y-5.305
X4.405Y-5.33
X4.405Y-5.355
X4.408Y-5.076
X4.408Y-5.105
X4.41Y-5.67
X4.41Y-5.695
X4.41Y-5.72
X4.415Y-4.705
X4.415Y-4.73
X4.415Y-4.755
X4.415Y-5.235
X4.415Y-5.54
X4.416Y-4.941
X4.426Y-5.003
X4.435Y-5.565
X4.435Y-5.695
X4.435Y-5.72
X4.44Y-4.705
X4.44Y-4.73
X4.44Y-4.755
X4.445Y-5.295
X4.453Y-4.98
X4.46Y-5.27
X4.46Y-5.695
X4.46Y-5.72
X4.465Y-4.705
X4.465Y-4.73
X4.465Y-4.755
X4.465Y-5.565
X4.475Y-5.295
X4.476Y-5.002
X4.485Y-5.67
X4.485Y-5.695
X4.485Y-5.72
X4.489Y-4.903
X4.489Y-5.203
X4.49Y-4.705
X4.49Y-4.73
X4.49Y-4.755
X4.49Y-5.27
X4.492Y-4.978
X4.495Y-5.49
X4.495Y-5.565
X4.496Y-4.873
X4.496Y-5.081
X4.504Y-5.376
X4.505Y-5.295
X4.51Y-5.695
X4.51Y-5.72
X4.515Y-4.705
X4.515Y-4.73
X4.515Y-4.755
X4.525Y-5.53
X4.527Y-4.941
X4.527Y-5.091
X4.535Y-5.695
X4.535Y-5.72
X4.536Y-5.377
X4.54Y-4.705
X4.54Y-4.73
X4.54Y-4.755
X4.55Y-5.335
X4.551Y-5.078
X4.555Y-5.04
X4.555Y-5.53
X4.559Y-4.94
X4.56Y-5.67
X4.56Y-5.695
X4.56Y-5.72
X4.565Y-4.705
X4.565Y-4.73
X4.565Y-4.755
X4.567Y-5.379
X4.577Y-5.101
X4.585Y-4.94
X4.585Y-5.53
X4.585Y-5.695
X4.585Y-5.72
X4.586Y-5.235
X4.59Y-4.705
X4.59Y-4.73
X4.59Y-4.755
X4.598Y-5.379
X4.599Y-5.081
X4.607Y-4.909
X4.61Y-5.209
X4.61Y-5.695
X4.61Y-5.72
X4.615Y-4.705
X4.615Y-4.73
X4.615Y-4.755
X4.619Y-5.181
X4.624Y-4.887
X4.629Y-5.38
X4.631Y-5.096
X4.632Y-5.498
X4.635Y-5.695
X4.635Y-5.72
X4.638Y-4.913
X4.64Y-4.705
X4.64Y-4.73
X4.64Y-4.755
X4.644Y-5.176
X4.649Y-5.204
X4.654Y-4.891
X4.658Y-5.38
X4.658Y-5.486
X4.66Y-5.695
X4.66Y-5.72
X4.6626Y-5.5674
X4.665Y-4.705
X4.665Y-4.73
X4.665Y-4.755
X4.665Y-5.53
X4.668Y-4.94
X4.668Y-5.236
X4.671Y-5.166
X4.675Y-5.605
X4.678Y-4.87
X4.685Y-5.67
X4.685Y-5.695
X4.685Y-5.72
X4.689Y-5.381
X4.69Y-4.705
X4.69Y-4.73
X4.69Y-4.755
X4.695Y-4.94
X4.695Y-5.53
X4.699Y-5.235
X4.71Y-5.695
X4.71Y-5.72
X4.715Y-4.705
X4.715Y-4.73
X4.715Y-4.755
X4.72Y-5.382
X4.722Y-4.941
X4.725Y-5.53
X4.726Y-5.235
X4.735Y-5.695
X4.735Y-5.72
X4.74Y-4.705
X4.74Y-4.73
X4.74Y-4.755
X4.76Y-5.67
X4.76Y-5.695
X4.76Y-5.72
X4.765Y-4.705
X4.765Y-4.73
X4.765Y-4.755
X4.785Y-5.67
X4.785Y-5.695
X4.785Y-5.72
X4.79Y-4.705
X4.79Y-4.73
X4.79Y-4.755
X4.81Y-5.67
X4.81Y-5.695
X4.81Y-5.72
X4.815Y-4.705
X4.815Y-4.73
X4.815Y-4.755
X4.84Y-4.705
X4.84Y-4.73
X4.84Y-4.755
X4.865Y-4.705
X4.865Y-4.73
X4.865Y-4.755
X4.89Y-4.705
X4.89Y-4.73
X4.89Y-4.755
X4.89Y-5.56
X4.915Y-4.705
X4.915Y-4.73
X4.915Y-4.755
T2
X3.775Y-5.095
X3.86Y-5.385
X3.945Y-5.245
X3.9456Y-5.3856
X4.175Y-5.38
X4.6555Y-5.3051
X4.685Y-5.08
X4.7191Y-5.0059
X4.7191Y-5.2959
X4.88Y-5.205
X4.89Y-4.92
T3
X5.045Y-4.86
X5.045Y-4.905
X5.045Y-4.95
X5.045Y-4.995
X5.045Y-5.04
X5.045Y-5.145
X5.045Y-5.19
X5.045Y-5.235
X5.045Y-5.28
X5.045Y-5.325
X5.045Y-5.43
X5.045Y-5.475
X5.045Y-5.52
X5.045Y-5.565
X5.045Y-5.61
X5.09Y-4.86
X5.09Y-4.905
X5.09Y-4.95
X5.09Y-4.995
X5.09Y-5.04
X5.09Y-5.145
X5.09Y-5.19
X5.09Y-5.235
X5.09Y-5.28
X5.09Y-5.325
X5.09Y-5.43
X5.09Y-5.475
X5.09Y-5.52
X5.09Y-5.565
X5.09Y-5.61
X5.135Y-4.86
X5.135Y-4.905
X5.135Y-4.95
X5.135Y-4.995
X5.135Y-5.04
X5.135Y-5.145
X5.135Y-5.19
X5.135Y-5.235
X5.135Y-5.28
X5.135Y-5.325
X5.135Y-5.43
X5.135Y-5.475
X5.135Y-5.52
X5.135Y-5.565
X5.135Y-5.61
X5.18Y-4.86
X5.18Y-4.905
X5.18Y-4.95
X5.18Y-4.995
X5.18Y-5.04
X5.18Y-5.145
X5.18Y-5.19
X5.18Y-5.235
X5.18Y-5.28
X5.18Y-5.325
X5.18Y-5.43
X5.18Y-5.475
X5.18Y-5.52
X5.18Y-5.565
X5.18Y-5.61
X5.225Y-4.86
X5.225Y-4.905
X5.225Y-4.95
X5.225Y-4.995
X5.225Y-5.04
X5.225Y-5.145
X5.225Y-5.19
X5.225Y-5.235
X5.225Y-5.28
X5.225Y-5.325
X5.225Y-5.43
X5.225Y-5.475
X5.225Y-5.52
X5.225Y-5.565
X5.225Y-5.61
X5.275Y-5.155
X5.275Y-5.195
X5.275Y-5.235
X5.275Y-5.275
X5.275Y-5.315
X5.275Y-5.441
X5.275Y-5.481
X5.275Y-5.521
X5.275Y-5.561
X5.275Y-5.601
X5.28Y-4.871
X5.28Y-4.911
X5.28Y-4.951
X5.28Y-4.991
X5.28Y-5.031
X5.315Y-5.155
X5.315Y-5.195
X5.315Y-5.235
X5.315Y-5.275
X5.315Y-5.315
X5.315Y-5.441
X5.315Y-5.481
X5.315Y-5.521
X5.315Y-5.561
X5.315Y-5.601
X5.32Y-4.871
X5.32Y-4.911
X5.32Y-4.951
X5.32Y-4.991
X5.32Y-5.031
X5.36Y-4.871
X5.36Y-4.911
X5.36Y-4.951
X5.36Y-4.991
X5.36Y-5.031
X5.36Y-5.155
X5.36Y-5.195
X5.36Y-5.235
X5.36Y-5.275
X5.36Y-5.315
X5.36Y-5.441
X5.36Y-5.481
X5.36Y-5.521
X5.36Y-5.561
X5.36Y-5.601
X5.402Y-4.871
X5.402Y-4.911
X5.402Y-4.951
X5.402Y-4.991
X5.402Y-5.031
X5.402Y-5.156
X5.402Y-5.196
X5.402Y-5.236
X5.402Y-5.276
X5.402Y-5.316
X5.402Y-5.442
X5.402Y-5.482
X5.402Y-5.522
X5.402Y-5.562
X5.402Y-5.602
T4
X3.615Y-5.585
X3.715Y-4.855
X3.715Y-5.085
T0
M30
