%TF.GenerationSoftware,KiCad,Pcbnew,(6.0.5)*%
%TF.CreationDate,2023-01-05T14:47:55+08:00*%
%TF.ProjectId,Brushless_ESC_STC,42727573-686c-4657-9373-5f4553435f53,rev?*%
%TF.SameCoordinates,Original*%
%TF.FileFunction,Legend,Bot*%
%TF.FilePolarity,Positive*%
%FSLAX46Y46*%
G04 Gerber Fmt 4.6, Leading zero omitted, Abs format (unit mm)*
G04 Created by KiCad (PCBNEW (6.0.5)) date 2023-01-05 14:47:55*
%MOMM*%
%LPD*%
G01*
G04 APERTURE LIST*
%ADD10C,0.150000*%
%ADD11C,0.130000*%
%ADD12C,0.120000*%
G04 APERTURE END LIST*
D10*
X124618714Y-140660380D02*
X124618714Y-139660380D01*
X124047285Y-140660380D01*
X124047285Y-139660380D01*
X124491714Y-133802380D02*
X124491714Y-132802380D01*
X123920285Y-133802380D01*
X123920285Y-132802380D01*
X124364714Y-126563380D02*
X124364714Y-125563380D01*
X123793285Y-126563380D01*
X123793285Y-125563380D01*
D11*
X93700523Y-123806000D02*
X93776714Y-123767904D01*
X93891000Y-123767904D01*
X94005285Y-123806000D01*
X94081476Y-123882190D01*
X94119571Y-123958380D01*
X94157666Y-124110761D01*
X94157666Y-124225047D01*
X94119571Y-124377428D01*
X94081476Y-124453619D01*
X94005285Y-124529809D01*
X93891000Y-124567904D01*
X93814809Y-124567904D01*
X93700523Y-124529809D01*
X93662428Y-124491714D01*
X93662428Y-124225047D01*
X93814809Y-124225047D01*
X93319571Y-124567904D02*
X93319571Y-123767904D01*
X92862428Y-124567904D01*
X92862428Y-123767904D01*
X92481476Y-124567904D02*
X92481476Y-123767904D01*
X92291000Y-123767904D01*
X92176714Y-123806000D01*
X92100523Y-123882190D01*
X92062428Y-123958380D01*
X92024333Y-124110761D01*
X92024333Y-124225047D01*
X92062428Y-124377428D01*
X92100523Y-124453619D01*
X92176714Y-124529809D01*
X92291000Y-124567904D01*
X92481476Y-124567904D01*
X94138619Y-126815809D02*
X94024333Y-126853904D01*
X93833857Y-126853904D01*
X93757666Y-126815809D01*
X93719571Y-126777714D01*
X93681476Y-126701523D01*
X93681476Y-126625333D01*
X93719571Y-126549142D01*
X93757666Y-126511047D01*
X93833857Y-126472952D01*
X93986238Y-126434857D01*
X94062428Y-126396761D01*
X94100523Y-126358666D01*
X94138619Y-126282476D01*
X94138619Y-126206285D01*
X94100523Y-126130095D01*
X94062428Y-126092000D01*
X93986238Y-126053904D01*
X93795761Y-126053904D01*
X93681476Y-126092000D01*
X92919571Y-126092000D02*
X92995761Y-126053904D01*
X93110047Y-126053904D01*
X93224333Y-126092000D01*
X93300523Y-126168190D01*
X93338619Y-126244380D01*
X93376714Y-126396761D01*
X93376714Y-126511047D01*
X93338619Y-126663428D01*
X93300523Y-126739619D01*
X93224333Y-126815809D01*
X93110047Y-126853904D01*
X93033857Y-126853904D01*
X92919571Y-126815809D01*
X92881476Y-126777714D01*
X92881476Y-126511047D01*
X93033857Y-126511047D01*
X92538619Y-126853904D02*
X92538619Y-126053904D01*
X92081476Y-126853904D01*
X92081476Y-126053904D01*
X92862380Y-128593904D02*
X93243333Y-128593904D01*
X93281428Y-128974857D01*
X93243333Y-128936761D01*
X93167142Y-128898666D01*
X92976666Y-128898666D01*
X92900476Y-128936761D01*
X92862380Y-128974857D01*
X92824285Y-129051047D01*
X92824285Y-129241523D01*
X92862380Y-129317714D01*
X92900476Y-129355809D01*
X92976666Y-129393904D01*
X93167142Y-129393904D01*
X93243333Y-129355809D01*
X93281428Y-129317714D01*
X92595714Y-128593904D02*
X92329047Y-129393904D01*
X92062380Y-128593904D01*
D12*
%TO.C,C7*%
X110580000Y-142062252D02*
X110580000Y-140639748D01*
X107860000Y-142062252D02*
X107860000Y-140639748D01*
%TO.C,C6*%
X117184000Y-142062252D02*
X117184000Y-140639748D01*
X114464000Y-142062252D02*
X114464000Y-140639748D01*
%TO.C,C5*%
X113882000Y-142062252D02*
X113882000Y-140639748D01*
X111162000Y-142062252D02*
X111162000Y-140639748D01*
%TO.C,U1*%
X97557000Y-137241000D02*
X97557000Y-138741000D01*
X97287000Y-138741000D02*
X97287000Y-141571000D01*
X90927000Y-138741000D02*
X90927000Y-139841000D01*
X90657000Y-137241000D02*
X90657000Y-138741000D01*
X97557000Y-138741000D02*
X97287000Y-138741000D01*
X90657000Y-138741000D02*
X90927000Y-138741000D01*
%TO.C,Q15*%
X125927000Y-136758000D02*
X125927000Y-137028000D01*
X125927000Y-143658000D02*
X125927000Y-143388000D01*
X127427000Y-136758000D02*
X125927000Y-136758000D01*
X125927000Y-137028000D02*
X124827000Y-137028000D01*
X125927000Y-143388000D02*
X123097000Y-143388000D01*
X127427000Y-143658000D02*
X125927000Y-143658000D01*
%TO.C,Q13*%
X127427000Y-136419000D02*
X125927000Y-136419000D01*
X125927000Y-136149000D02*
X123097000Y-136149000D01*
X125927000Y-129789000D02*
X124827000Y-129789000D01*
X127427000Y-129519000D02*
X125927000Y-129519000D01*
X125927000Y-136419000D02*
X125927000Y-136149000D01*
X125927000Y-129519000D02*
X125927000Y-129789000D01*
%TO.C,Q11*%
X127427000Y-129180000D02*
X125927000Y-129180000D01*
X125927000Y-128910000D02*
X123097000Y-128910000D01*
X125927000Y-122550000D02*
X124827000Y-122550000D01*
X127427000Y-122280000D02*
X125927000Y-122280000D01*
X125927000Y-129180000D02*
X125927000Y-128910000D01*
X125927000Y-122280000D02*
X125927000Y-122550000D01*
%TO.C,C14*%
X100674000Y-142062252D02*
X100674000Y-140639748D01*
X97954000Y-142062252D02*
X97954000Y-140639748D01*
%TO.C,C12*%
X103976000Y-142062252D02*
X103976000Y-140639748D01*
X101256000Y-142062252D02*
X101256000Y-140639748D01*
%TO.C,C9*%
X107273000Y-142062252D02*
X107273000Y-140639748D01*
X104553000Y-142062252D02*
X104553000Y-140639748D01*
%TO.C,C1*%
X95650267Y-142238000D02*
X95357733Y-142238000D01*
X95650267Y-143258000D02*
X95357733Y-143258000D01*
%TD*%
M02*
