%TF.GenerationSoftware,KiCad,Pcbnew,(6.0.5)*%
%TF.CreationDate,2023-01-05T14:47:55+08:00*%
%TF.ProjectId,Brushless_ESC_STC,42727573-686c-4657-9373-5f4553435f53,rev?*%
%TF.SameCoordinates,Original*%
%TF.FileFunction,Profile,NP*%
%FSLAX46Y46*%
G04 Gerber Fmt 4.6, Leading zero omitted, Abs format (unit mm)*
G04 Created by KiCad (PCBNEW (6.0.5)) date 2023-01-05 14:47:55*
%MOMM*%
%LPD*%
G01*
G04 APERTURE LIST*
%TA.AperFunction,Profile*%
%ADD10C,0.100000*%
%TD*%
G04 APERTURE END LIST*
D10*
X133000000Y-146000000D02*
G75*
G03*
X134000000Y-145000000I0J1000000D01*
G01*
X134000000Y-120000000D02*
G75*
G03*
X133000000Y-119000000I-1000000J0D01*
G01*
X135000000Y-143000000D02*
G75*
G03*
X134000000Y-144000000I0J-1000000D01*
G01*
X137000000Y-143000000D02*
G75*
G03*
X138000000Y-142000000I0J1000000D01*
G01*
X138000000Y-138500000D02*
G75*
G03*
X137000000Y-137500000I-1000000J0D01*
G01*
X134000000Y-136750000D02*
G75*
G03*
X134750000Y-137500000I750000J0D01*
G01*
X134750000Y-135750000D02*
G75*
G03*
X134000000Y-136500000I0J-750000D01*
G01*
X137000000Y-135750000D02*
G75*
G03*
X138000000Y-134750000I0J1000000D01*
G01*
X138000000Y-131250000D02*
G75*
G03*
X137000000Y-130250000I-1000000J0D01*
G01*
X134000000Y-129500000D02*
G75*
G03*
X134750000Y-130250000I750000J0D01*
G01*
X134750000Y-128500000D02*
G75*
G03*
X134000000Y-129250000I0J-750000D01*
G01*
X137000000Y-128500000D02*
G75*
G03*
X138000000Y-127500000I0J1000000D01*
G01*
X138000000Y-124000000D02*
G75*
G03*
X137000000Y-123000000I-1000000J0D01*
G01*
X134000000Y-122000000D02*
G75*
G03*
X135000000Y-123000000I1000000J0D01*
G01*
X134000000Y-144000000D02*
X134000000Y-145000000D01*
X137000000Y-143000000D02*
X135000000Y-143000000D01*
X138000000Y-138500000D02*
X138000000Y-142000000D01*
X134750000Y-137500000D02*
X137000000Y-137500000D01*
X134000000Y-136500000D02*
X134000000Y-136750000D01*
X137000000Y-135750000D02*
X134750000Y-135750000D01*
X138000000Y-131250000D02*
X138000000Y-134750000D01*
X134750000Y-130250000D02*
X137000000Y-130250000D01*
X134000000Y-129250000D02*
X134000000Y-129500000D01*
X137000000Y-128500000D02*
X134750000Y-128500000D01*
X138000000Y-124000000D02*
X138000000Y-127500000D01*
X135000000Y-123000000D02*
X137000000Y-123000000D01*
X134000000Y-120000000D02*
X134000000Y-122000000D01*
X89000000Y-146000000D02*
X133000000Y-146000000D01*
X89000000Y-119000000D02*
X89000000Y-146000000D01*
X89000000Y-119000000D02*
X133000000Y-119000000D01*
M02*
