%TF.GenerationSoftware,KiCad,Pcbnew,(6.0.5)*%
%TF.CreationDate,2023-01-05T14:47:55+08:00*%
%TF.ProjectId,Brushless_ESC_STC,42727573-686c-4657-9373-5f4553435f53,rev?*%
%TF.SameCoordinates,Original*%
%TF.FileFunction,Copper,L2,Bot*%
%TF.FilePolarity,Positive*%
%FSLAX46Y46*%
G04 Gerber Fmt 4.6, Leading zero omitted, Abs format (unit mm)*
G04 Created by KiCad (PCBNEW (6.0.5)) date 2023-01-05 14:47:55*
%MOMM*%
%LPD*%
G01*
G04 APERTURE LIST*
G04 Aperture macros list*
%AMRoundRect*
0 Rectangle with rounded corners*
0 $1 Rounding radius*
0 $2 $3 $4 $5 $6 $7 $8 $9 X,Y pos of 4 corners*
0 Add a 4 corners polygon primitive as box body*
4,1,4,$2,$3,$4,$5,$6,$7,$8,$9,$2,$3,0*
0 Add four circle primitives for the rounded corners*
1,1,$1+$1,$2,$3*
1,1,$1+$1,$4,$5*
1,1,$1+$1,$6,$7*
1,1,$1+$1,$8,$9*
0 Add four rect primitives between the rounded corners*
20,1,$1+$1,$2,$3,$4,$5,0*
20,1,$1+$1,$4,$5,$6,$7,0*
20,1,$1+$1,$6,$7,$8,$9,0*
20,1,$1+$1,$8,$9,$2,$3,0*%
G04 Aperture macros list end*
%TA.AperFunction,SMDPad,CuDef*%
%ADD10RoundRect,0.250000X1.100000X-0.325000X1.100000X0.325000X-1.100000X0.325000X-1.100000X-0.325000X0*%
%TD*%
%TA.AperFunction,SMDPad,CuDef*%
%ADD11R,1.200000X2.200000*%
%TD*%
%TA.AperFunction,SMDPad,CuDef*%
%ADD12R,5.800000X6.400000*%
%TD*%
%TA.AperFunction,SMDPad,CuDef*%
%ADD13R,2.200000X1.200000*%
%TD*%
%TA.AperFunction,SMDPad,CuDef*%
%ADD14R,6.400000X5.800000*%
%TD*%
%TA.AperFunction,SMDPad,CuDef*%
%ADD15RoundRect,0.381000X0.762000X0.381000X-0.762000X0.381000X-0.762000X-0.381000X0.762000X-0.381000X0*%
%TD*%
%TA.AperFunction,SMDPad,CuDef*%
%ADD16RoundRect,0.237500X0.300000X0.237500X-0.300000X0.237500X-0.300000X-0.237500X0.300000X-0.237500X0*%
%TD*%
%TA.AperFunction,ViaPad*%
%ADD17C,0.500000*%
%TD*%
%TA.AperFunction,ViaPad*%
%ADD18C,0.800000*%
%TD*%
%TA.AperFunction,ViaPad*%
%ADD19C,0.600000*%
%TD*%
%TA.AperFunction,ViaPad*%
%ADD20C,1.800000*%
%TD*%
%TA.AperFunction,Conductor*%
%ADD21C,0.300000*%
%TD*%
%TA.AperFunction,Conductor*%
%ADD22C,1.000000*%
%TD*%
G04 APERTURE END LIST*
D10*
%TO.P,C7,1*%
%TO.N,VDD*%
X109220000Y-142826000D03*
%TO.P,C7,2*%
%TO.N,GND*%
X109220000Y-139876000D03*
%TD*%
%TO.P,C6,1*%
%TO.N,VDD*%
X115824000Y-142826000D03*
%TO.P,C6,2*%
%TO.N,GND*%
X115824000Y-139876000D03*
%TD*%
%TO.P,C5,1*%
%TO.N,VDD*%
X112522000Y-142826000D03*
%TO.P,C5,2*%
%TO.N,GND*%
X112522000Y-139876000D03*
%TD*%
D11*
%TO.P,U1,1,VI*%
%TO.N,VDD*%
X96387000Y-140471000D03*
D12*
%TO.P,U1,2,GND*%
%TO.N,GND*%
X94107000Y-134171000D03*
D11*
%TO.P,U1,3,VO*%
%TO.N,+5V*%
X91827000Y-140471000D03*
%TD*%
D13*
%TO.P,Q15,S,S*%
%TO.N,GND*%
X124197000Y-137928000D03*
%TO.P,Q15,G,G*%
%TO.N,Net-(Q15-PadG)*%
X124197000Y-142488000D03*
D14*
%TO.P,Q15,D,D*%
%TO.N,/U*%
X130497000Y-140208000D03*
%TD*%
%TO.P,Q13,D,D*%
%TO.N,/V*%
X130497000Y-132969000D03*
D13*
%TO.P,Q13,G,G*%
%TO.N,Net-(Q13-PadG)*%
X124197000Y-135249000D03*
%TO.P,Q13,S,S*%
%TO.N,GND*%
X124197000Y-130689000D03*
%TD*%
D14*
%TO.P,Q11,D,D*%
%TO.N,/W*%
X130497000Y-125730000D03*
D13*
%TO.P,Q11,G,G*%
%TO.N,Net-(Q11-PadG)*%
X124197000Y-128010000D03*
%TO.P,Q11,S,S*%
%TO.N,GND*%
X124197000Y-123450000D03*
%TD*%
D15*
%TO.P,J4,1,Pin_1*%
%TO.N,GND*%
X90551000Y-123825000D03*
%TD*%
%TO.P,J3,1,Pin_1*%
%TO.N,/PWM8*%
X90551000Y-126365000D03*
%TD*%
%TO.P,J2,1,Pin_1*%
%TO.N,+5V*%
X90551000Y-128905000D03*
%TD*%
D10*
%TO.P,C14,1*%
%TO.N,VDD*%
X99314000Y-142826000D03*
%TO.P,C14,2*%
%TO.N,GND*%
X99314000Y-139876000D03*
%TD*%
%TO.P,C12,1*%
%TO.N,VDD*%
X102616000Y-142826000D03*
%TO.P,C12,2*%
%TO.N,GND*%
X102616000Y-139876000D03*
%TD*%
%TO.P,C9,1*%
%TO.N,VDD*%
X105913000Y-142826000D03*
%TO.P,C9,2*%
%TO.N,GND*%
X105913000Y-139876000D03*
%TD*%
D16*
%TO.P,C1,1*%
%TO.N,VDD*%
X96366500Y-142748000D03*
%TO.P,C1,2*%
%TO.N,GND*%
X94641500Y-142748000D03*
%TD*%
D17*
%TO.N,GND*%
X108331000Y-130302000D03*
X108331000Y-131826000D03*
X118313200Y-139344400D03*
X117652800Y-139649200D03*
X114020600Y-132156200D03*
X111556800Y-130327400D03*
X108839000Y-132334000D03*
X108839000Y-129794000D03*
X111963200Y-129667000D03*
X110998000Y-129641600D03*
X111963200Y-128930400D03*
X110845600Y-128854200D03*
X114198400Y-123774200D03*
X114020600Y-124536200D03*
X114985800Y-125501400D03*
X115798600Y-125476000D03*
X116459000Y-125476000D03*
X119938800Y-125501400D03*
X119253000Y-125476000D03*
X118567200Y-125476000D03*
X117805200Y-124790200D03*
X117017800Y-124688600D03*
X117449600Y-124129800D03*
X118211600Y-124231400D03*
X118821200Y-123698000D03*
X119888000Y-136702800D03*
X119100600Y-136677400D03*
X118313200Y-136652000D03*
X117576600Y-136652000D03*
X116789200Y-136626600D03*
X116001800Y-136626600D03*
X115214400Y-136575800D03*
X114401600Y-136550400D03*
X117957600Y-131470400D03*
X120040400Y-132969000D03*
X119354600Y-132969000D03*
X118567200Y-132994400D03*
X116484400Y-132969000D03*
X117094000Y-132308600D03*
X118084600Y-132181600D03*
X117322600Y-131597400D03*
X118643400Y-131216400D03*
X117627400Y-129438400D03*
X116814600Y-129057400D03*
X116255800Y-129565400D03*
X115595400Y-128981200D03*
X114985800Y-129311400D03*
X114198400Y-129057400D03*
X113690400Y-127050800D03*
X114096800Y-126441200D03*
X113106200Y-126492000D03*
X112420400Y-127076200D03*
X111582200Y-127101600D03*
X110845600Y-127127000D03*
X112166400Y-125501400D03*
X111455200Y-125526800D03*
X110744000Y-125526800D03*
D18*
%TO.N,/U*%
X137210800Y-142290800D03*
X137210800Y-140258800D03*
X137210800Y-139242800D03*
X137210800Y-141274800D03*
X135001000Y-140233400D03*
X135001000Y-141249400D03*
X135001000Y-142265400D03*
X135001000Y-138201400D03*
X135001000Y-139217400D03*
X137210800Y-138226800D03*
X133985000Y-138201400D03*
X133985000Y-139217400D03*
X136144000Y-140233400D03*
X133985000Y-141249400D03*
X136144000Y-139217400D03*
X136144000Y-141249400D03*
X136144000Y-138201400D03*
X136144000Y-142265400D03*
X133985000Y-140233400D03*
X133985000Y-142265400D03*
%TO.N,/W*%
X134112000Y-125755400D03*
X134112000Y-127787400D03*
X134112000Y-123723400D03*
X134112000Y-124739400D03*
X134112000Y-126771400D03*
X135128000Y-125755400D03*
X135128000Y-124739400D03*
X135128000Y-123723400D03*
X135128000Y-127787400D03*
X135128000Y-126771400D03*
X136144000Y-123723400D03*
X136144000Y-127787400D03*
X136144000Y-124739400D03*
X136144000Y-125755400D03*
X136144000Y-126771400D03*
X137210800Y-127787400D03*
X137210800Y-125755400D03*
X137210800Y-124739400D03*
X137210800Y-126771400D03*
X137210800Y-123723400D03*
%TO.N,/V*%
X133985000Y-132969000D03*
X133985000Y-133985000D03*
X133985000Y-135001000D03*
X133985000Y-130937000D03*
X133985000Y-131953000D03*
X135001000Y-132969000D03*
X135001000Y-131953000D03*
X135001000Y-133985000D03*
X135001000Y-130937000D03*
X135001000Y-135001000D03*
X136144000Y-135001000D03*
X136144000Y-132969000D03*
X136144000Y-131953000D03*
X136144000Y-133985000D03*
X136144000Y-130937000D03*
X137210800Y-135026400D03*
X137210800Y-134010400D03*
X137210800Y-132994400D03*
X137210800Y-131978400D03*
X137210800Y-130962400D03*
D17*
%TO.N,GND*%
X111379000Y-132969000D03*
X110617000Y-132969000D03*
X112141000Y-132969000D03*
X113284000Y-133858000D03*
X114046000Y-133858000D03*
X114427000Y-134493000D03*
X113665000Y-134493000D03*
X112903000Y-134493000D03*
X109601000Y-136017000D03*
X110363000Y-135382000D03*
X110363000Y-136017000D03*
X111125000Y-136017000D03*
X111125000Y-135382000D03*
X111125000Y-134747000D03*
X111887000Y-134747000D03*
X111887000Y-135382000D03*
X111887000Y-136017000D03*
X107061000Y-136144000D03*
X107061000Y-135382000D03*
X106299000Y-135382000D03*
X105537000Y-135382000D03*
X107061000Y-134620000D03*
X106299000Y-134620000D03*
X105537000Y-134620000D03*
X95758000Y-136271000D03*
X95631000Y-135636000D03*
X94996000Y-135128000D03*
X95123000Y-136017000D03*
X94488000Y-136271000D03*
X94107000Y-135509000D03*
X95123000Y-134493000D03*
X94615000Y-133731000D03*
X93853000Y-134620000D03*
X93853000Y-133731000D03*
X94234000Y-132969000D03*
X94996000Y-130683000D03*
X94996000Y-131699000D03*
X94996000Y-132715000D03*
X95250000Y-133731000D03*
X95885000Y-133604000D03*
X96012000Y-134366000D03*
X96012000Y-135128000D03*
X96266000Y-135763000D03*
X96647000Y-135128000D03*
X96647000Y-134366000D03*
X99441000Y-131826000D03*
X102997000Y-133477000D03*
X102362000Y-133477000D03*
X101727000Y-133477000D03*
X101092000Y-133477000D03*
X104013000Y-131699000D03*
X103378000Y-131699000D03*
X102743000Y-131699000D03*
X102108000Y-131699000D03*
X101473000Y-131699000D03*
X100838000Y-131699000D03*
X98933000Y-129159000D03*
X99568000Y-129794000D03*
X100203000Y-130429000D03*
X100203000Y-129794000D03*
X100203000Y-129159000D03*
X99568000Y-129159000D03*
X98933000Y-132334000D03*
X98933000Y-131318000D03*
X103378000Y-131064000D03*
X104013000Y-130429000D03*
X104013000Y-131064000D03*
X103378000Y-130429000D03*
X102743000Y-131064000D03*
X102743000Y-130429000D03*
X102108000Y-130429000D03*
X102108000Y-131064000D03*
X101473000Y-131064000D03*
X101473000Y-130429000D03*
X100838000Y-131064000D03*
X100838000Y-130429000D03*
X102108000Y-129159000D03*
X102108000Y-129794000D03*
X101473000Y-129794000D03*
X101473000Y-129159000D03*
X100838000Y-129794000D03*
X100838000Y-129159000D03*
X102743000Y-129794000D03*
X102743000Y-129159000D03*
X104013000Y-129159000D03*
X104013000Y-129794000D03*
X103378000Y-129159000D03*
X103378000Y-129794000D03*
X102743000Y-127889000D03*
X102743000Y-128524000D03*
X104013000Y-128524000D03*
X103378000Y-128524000D03*
X103378000Y-127889000D03*
X104013000Y-127889000D03*
X102108000Y-128524000D03*
X102108000Y-127889000D03*
X101473000Y-127889000D03*
X100838000Y-127889000D03*
X101473000Y-128524000D03*
X100838000Y-128524000D03*
X99568000Y-127889000D03*
X98933000Y-127889000D03*
X99568000Y-128524000D03*
X98933000Y-128524000D03*
X100203000Y-128524000D03*
X100203000Y-127889000D03*
X102108000Y-124968000D03*
X102362000Y-124333000D03*
X99187000Y-123190000D03*
X99187000Y-123825000D03*
X99822000Y-123825000D03*
X99822000Y-123190000D03*
X100457000Y-123825000D03*
X100457000Y-123190000D03*
X91948000Y-130683000D03*
X91948000Y-130048000D03*
X91948000Y-131318000D03*
X91948000Y-131953000D03*
X89789000Y-130175000D03*
X89789000Y-130810000D03*
X89789000Y-131445000D03*
X89789000Y-132080000D03*
X94869000Y-139700000D03*
X94107000Y-139700000D03*
X93345000Y-139700000D03*
X93091000Y-139065000D03*
X93218000Y-138430000D03*
X92583000Y-138430000D03*
X91948000Y-138430000D03*
X91313000Y-138430000D03*
X98298000Y-139573000D03*
X98044000Y-140208000D03*
X98044000Y-140843000D03*
X97917000Y-141478000D03*
X101473000Y-139954000D03*
X101473000Y-140970000D03*
X100330000Y-140970000D03*
X100330000Y-139954000D03*
X105410000Y-140970000D03*
X105156000Y-139700000D03*
X107442000Y-139446000D03*
X107442000Y-140208000D03*
X106680000Y-140208000D03*
X106680000Y-140970000D03*
X107442000Y-140970000D03*
X110871000Y-140335000D03*
X111506000Y-140716000D03*
X112141000Y-140716000D03*
X112649000Y-141351000D03*
X113411000Y-141351000D03*
X114173000Y-141351000D03*
X114173000Y-139446000D03*
X114935000Y-140462000D03*
X115697000Y-140462000D03*
X116459000Y-140462000D03*
X118491000Y-140462000D03*
X119253000Y-140462000D03*
X120015000Y-140462000D03*
X124206000Y-120142000D03*
X124841000Y-120777000D03*
X124206000Y-119507000D03*
X123571000Y-120142000D03*
X124841000Y-119507000D03*
X124206000Y-120777000D03*
X124841000Y-120142000D03*
X123571000Y-119507000D03*
X123571000Y-120777000D03*
X121666000Y-120142000D03*
X122936000Y-120142000D03*
X122301000Y-120142000D03*
X121031000Y-119507000D03*
X121666000Y-120777000D03*
X122301000Y-120777000D03*
X121666000Y-119507000D03*
X121031000Y-120777000D03*
X122301000Y-119507000D03*
X122936000Y-119507000D03*
X121031000Y-120142000D03*
X122936000Y-120777000D03*
X117221000Y-120142000D03*
X115316000Y-119507000D03*
X119761000Y-120142000D03*
X119126000Y-120142000D03*
X118491000Y-119507000D03*
X118491000Y-120142000D03*
X117856000Y-120777000D03*
X111506000Y-120777000D03*
X115951000Y-119507000D03*
X119761000Y-120777000D03*
X111506000Y-119507000D03*
X110236000Y-120777000D03*
X115316000Y-120142000D03*
X117856000Y-120142000D03*
X119126000Y-120777000D03*
X116586000Y-120777000D03*
X116586000Y-120142000D03*
X117221000Y-119507000D03*
X112141000Y-119507000D03*
X115316000Y-120777000D03*
X117856000Y-119507000D03*
X115951000Y-120777000D03*
X119126000Y-119507000D03*
X112141000Y-120777000D03*
X112141000Y-120142000D03*
X115951000Y-120142000D03*
X111506000Y-120142000D03*
X119761000Y-119507000D03*
X118491000Y-120777000D03*
X117221000Y-120777000D03*
X116586000Y-119507000D03*
X120396000Y-120777000D03*
X120396000Y-119507000D03*
X120396000Y-120142000D03*
X110871000Y-120777000D03*
X114046000Y-119507000D03*
X112776000Y-119507000D03*
X114681000Y-120777000D03*
X114681000Y-120142000D03*
X114046000Y-120142000D03*
X113411000Y-120142000D03*
X110871000Y-119507000D03*
X110871000Y-120142000D03*
X110236000Y-119507000D03*
X113411000Y-119507000D03*
X112776000Y-120142000D03*
X114046000Y-120777000D03*
X112776000Y-120777000D03*
X114681000Y-119507000D03*
X113411000Y-120777000D03*
X110236000Y-120142000D03*
X107061000Y-120142000D03*
X105156000Y-119507000D03*
X109601000Y-120142000D03*
X108966000Y-120142000D03*
X108331000Y-119507000D03*
X108331000Y-120142000D03*
X107696000Y-120777000D03*
X101346000Y-120777000D03*
X105791000Y-119507000D03*
X109601000Y-120777000D03*
X101346000Y-119507000D03*
X100076000Y-120777000D03*
X105156000Y-120142000D03*
X107696000Y-120142000D03*
X108966000Y-120777000D03*
X106426000Y-120777000D03*
X106426000Y-120142000D03*
X107061000Y-119507000D03*
X101981000Y-119507000D03*
X105156000Y-120777000D03*
X107696000Y-119507000D03*
X105791000Y-120777000D03*
X108966000Y-119507000D03*
X101981000Y-120777000D03*
X101981000Y-120142000D03*
X105791000Y-120142000D03*
X101346000Y-120142000D03*
X109601000Y-119507000D03*
X108331000Y-120777000D03*
X107061000Y-120777000D03*
X106426000Y-119507000D03*
X100711000Y-120777000D03*
X103886000Y-119507000D03*
X102616000Y-119507000D03*
X104521000Y-120777000D03*
X104521000Y-120142000D03*
X103886000Y-120142000D03*
X103251000Y-120142000D03*
X100711000Y-119507000D03*
X100711000Y-120142000D03*
X100076000Y-119507000D03*
X103251000Y-119507000D03*
X102616000Y-120142000D03*
X103886000Y-120777000D03*
X102616000Y-120777000D03*
X104521000Y-119507000D03*
X103251000Y-120777000D03*
X100076000Y-120142000D03*
X96266000Y-120777000D03*
X96266000Y-119507000D03*
X94996000Y-120777000D03*
X96901000Y-119507000D03*
X96901000Y-120777000D03*
X96901000Y-120142000D03*
X96266000Y-120142000D03*
X95631000Y-120777000D03*
X98806000Y-119507000D03*
X97536000Y-119507000D03*
X99441000Y-120777000D03*
X99441000Y-120142000D03*
X98806000Y-120142000D03*
X98171000Y-120142000D03*
X95631000Y-119507000D03*
X95631000Y-120142000D03*
X94996000Y-119507000D03*
X98171000Y-119507000D03*
X97536000Y-120142000D03*
X98806000Y-120777000D03*
X97536000Y-120777000D03*
X99441000Y-119507000D03*
X98171000Y-120777000D03*
X94996000Y-120142000D03*
X93726000Y-120777000D03*
X93726000Y-119507000D03*
X92456000Y-120777000D03*
X94361000Y-119507000D03*
X94361000Y-120777000D03*
X94361000Y-120142000D03*
X93726000Y-120142000D03*
X93091000Y-120777000D03*
X93091000Y-119507000D03*
X93091000Y-120142000D03*
X92456000Y-119507000D03*
X92456000Y-120142000D03*
X91186000Y-120777000D03*
X91821000Y-120777000D03*
X91821000Y-119507000D03*
X91821000Y-120142000D03*
X91186000Y-119507000D03*
X91186000Y-120142000D03*
X90551000Y-120777000D03*
X90551000Y-119507000D03*
X90551000Y-120142000D03*
X89916000Y-120777000D03*
X89916000Y-120142000D03*
X89916000Y-119507000D03*
D18*
%TO.N,/U*%
X128143000Y-142494000D03*
X132715000Y-140208000D03*
X130429000Y-141351000D03*
X128143000Y-141351000D03*
X129286000Y-142494000D03*
X129286000Y-139065000D03*
X132715000Y-141351000D03*
X131572000Y-137922000D03*
X131572000Y-141351000D03*
X129286000Y-137922000D03*
X130429000Y-139065000D03*
X128143000Y-139065000D03*
X128143000Y-137922000D03*
X131572000Y-139065000D03*
X130429000Y-140208000D03*
X129286000Y-140208000D03*
X129286000Y-141351000D03*
X128143000Y-140208000D03*
X131572000Y-142494000D03*
X131572000Y-140208000D03*
X130429000Y-142494000D03*
X132715000Y-137922000D03*
X130429000Y-137922000D03*
X132715000Y-142494000D03*
X132715000Y-139065000D03*
%TO.N,/V*%
X129286000Y-131826000D03*
X131572000Y-130683000D03*
X131572000Y-134112000D03*
X131572000Y-131826000D03*
X129286000Y-134112000D03*
X129286000Y-135255000D03*
X129286000Y-132969000D03*
X131572000Y-135255000D03*
X131572000Y-132969000D03*
X129286000Y-130683000D03*
X132715000Y-134112000D03*
X130429000Y-135255000D03*
X132715000Y-130683000D03*
X132715000Y-132969000D03*
X132715000Y-131826000D03*
X130429000Y-130683000D03*
X132715000Y-135255000D03*
X130429000Y-134112000D03*
X130429000Y-131826000D03*
X130429000Y-132969000D03*
X128143000Y-131826000D03*
X128143000Y-134112000D03*
X128143000Y-135255000D03*
X128143000Y-130683000D03*
X128143000Y-132969000D03*
%TO.N,/W*%
X132715000Y-123444000D03*
X132715000Y-126873000D03*
X132715000Y-124587000D03*
X132715000Y-128016000D03*
X132715000Y-125730000D03*
X131572000Y-128016000D03*
X131572000Y-123444000D03*
X131572000Y-126873000D03*
X131572000Y-124587000D03*
X131572000Y-125730000D03*
X130429000Y-124587000D03*
X130429000Y-126873000D03*
X130429000Y-128016000D03*
X130429000Y-125730000D03*
X130429000Y-123444000D03*
X129286000Y-124587000D03*
X129286000Y-126873000D03*
X129286000Y-128016000D03*
X129286000Y-123444000D03*
X129286000Y-125730000D03*
X128143000Y-128016000D03*
X128143000Y-126873000D03*
X128143000Y-125730000D03*
X128143000Y-124587000D03*
X128143000Y-123444000D03*
D19*
%TO.N,Net-(Q12-PadG)*%
X123952000Y-132207000D03*
%TO.N,Net-(Q10-PadG)*%
X124206000Y-124968000D03*
X119864500Y-127150500D03*
%TO.N,Net-(Q12-PadG)*%
X119864500Y-134516500D03*
%TO.N,Net-(Q11-PadG)*%
X118999000Y-129032000D03*
%TO.N,Net-(Q13-PadG)*%
X118250000Y-134750000D03*
%TO.N,/PWM8*%
X95885000Y-129413000D03*
D20*
%TO.N,+5V*%
X94361000Y-123317000D03*
X94361000Y-129159000D03*
X91821000Y-141859000D03*
D17*
%TO.N,/ADC11*%
X97917000Y-135255000D03*
X102997000Y-132588000D03*
%TO.N,/PWM2L*%
X115570000Y-135509000D03*
X107315000Y-131064000D03*
%TO.N,/PWM1*%
X107061000Y-133477000D03*
X108839000Y-135255000D03*
%TO.N,/PWM3L*%
X115697000Y-128016000D03*
X107315000Y-129413000D03*
%TO.N,Net-(Q15-PadG)*%
X118745000Y-142367000D03*
%TO.N,Net-(Q14-PadG)*%
X118430000Y-141412000D03*
X124206000Y-141224000D03*
%TO.N,/W*%
X107569000Y-137414000D03*
%TO.N,/V*%
X101727000Y-138049000D03*
%TO.N,/U*%
X98171000Y-138303000D03*
D19*
%TO.N,/CMP-*%
X98044000Y-136779000D03*
X106045000Y-136652000D03*
X100203000Y-133223000D03*
X100217767Y-136793500D03*
D17*
%TO.N,VDD*%
X120904000Y-144018000D03*
X122174000Y-144018000D03*
X121539000Y-144018000D03*
X122174000Y-145288000D03*
X122174000Y-144653000D03*
X120904000Y-145288000D03*
X121539000Y-145288000D03*
X120269000Y-145288000D03*
X120269000Y-144653000D03*
X121539000Y-144653000D03*
X120904000Y-144653000D03*
X112649000Y-144653000D03*
X110744000Y-144018000D03*
X110744000Y-144653000D03*
X112014000Y-144653000D03*
X111379000Y-144653000D03*
X109474000Y-144653000D03*
X112014000Y-144018000D03*
X111379000Y-145288000D03*
X111379000Y-144018000D03*
X112014000Y-145288000D03*
X109474000Y-145288000D03*
X110744000Y-145288000D03*
X110109000Y-145288000D03*
X112649000Y-145288000D03*
X107569000Y-145288000D03*
X119634000Y-144653000D03*
X118364000Y-144653000D03*
X118999000Y-145288000D03*
X113284000Y-145288000D03*
X113919000Y-145288000D03*
X114554000Y-145288000D03*
X108839000Y-144018000D03*
X110109000Y-144018000D03*
X115824000Y-144653000D03*
X107569000Y-144018000D03*
X118364000Y-145288000D03*
X115189000Y-145288000D03*
X108204000Y-144653000D03*
X108204000Y-144018000D03*
X115824000Y-144018000D03*
X116459000Y-145288000D03*
X117094000Y-145288000D03*
X114554000Y-144653000D03*
X118999000Y-144018000D03*
X117729000Y-144653000D03*
X117729000Y-145288000D03*
X113284000Y-144653000D03*
X116459000Y-144653000D03*
X119634000Y-145288000D03*
X115189000Y-144653000D03*
X115824000Y-145288000D03*
X108839000Y-144653000D03*
X117094000Y-144653000D03*
X108839000Y-145288000D03*
X113919000Y-144018000D03*
X107569000Y-144653000D03*
X113919000Y-144653000D03*
X108204000Y-145288000D03*
X110109000Y-144653000D03*
X118999000Y-144653000D03*
X109474000Y-144018000D03*
X106934000Y-144018000D03*
X106934000Y-144653000D03*
X106934000Y-145288000D03*
X106299000Y-145288000D03*
X106299000Y-144653000D03*
X106299000Y-144018000D03*
X105664000Y-144653000D03*
X103759000Y-144018000D03*
X105664000Y-144018000D03*
X103759000Y-144653000D03*
X105029000Y-144653000D03*
X104394000Y-144653000D03*
X102489000Y-144653000D03*
X105029000Y-144018000D03*
X104394000Y-145288000D03*
X104394000Y-144018000D03*
X105029000Y-145288000D03*
X102489000Y-145288000D03*
X103759000Y-145288000D03*
X103124000Y-145288000D03*
X105664000Y-145288000D03*
X100584000Y-145288000D03*
X101854000Y-144018000D03*
X103124000Y-144018000D03*
X100584000Y-144018000D03*
X101219000Y-144653000D03*
X101219000Y-144018000D03*
X101854000Y-144653000D03*
X101854000Y-145288000D03*
X100584000Y-144653000D03*
X101219000Y-145288000D03*
X103124000Y-144653000D03*
X102489000Y-144018000D03*
X99949000Y-144018000D03*
X99949000Y-144653000D03*
X99949000Y-145288000D03*
X99314000Y-145288000D03*
X99314000Y-144653000D03*
X99314000Y-144018000D03*
X97409000Y-145288000D03*
X98679000Y-144018000D03*
X97409000Y-144018000D03*
X98044000Y-144653000D03*
X98044000Y-144018000D03*
X98679000Y-144653000D03*
X98679000Y-145288000D03*
X97409000Y-144653000D03*
X98044000Y-145288000D03*
X95504000Y-145288000D03*
X95504000Y-144653000D03*
X96774000Y-144018000D03*
X96774000Y-144653000D03*
X96774000Y-145288000D03*
X96139000Y-145288000D03*
X96139000Y-144653000D03*
X96139000Y-144018000D03*
X95504000Y-144018000D03*
X93599000Y-145288000D03*
X93599000Y-144653000D03*
X94869000Y-144018000D03*
X94869000Y-144653000D03*
X94869000Y-145288000D03*
X94234000Y-145288000D03*
X94234000Y-144653000D03*
X94234000Y-144018000D03*
X93599000Y-144018000D03*
X89789000Y-145288000D03*
X89789000Y-144653000D03*
X91059000Y-144018000D03*
X91059000Y-144653000D03*
X91059000Y-145288000D03*
X90424000Y-145288000D03*
X90424000Y-144653000D03*
X90424000Y-144018000D03*
X89789000Y-144018000D03*
X92964000Y-145288000D03*
X92964000Y-144653000D03*
X92964000Y-144018000D03*
X92329000Y-145288000D03*
X92329000Y-144653000D03*
X92329000Y-144018000D03*
X91694000Y-145288000D03*
X91694000Y-144653000D03*
X91694000Y-144018000D03*
%TD*%
D21*
%TO.N,/PWM8*%
X91948000Y-126365000D02*
X90551000Y-126365000D01*
X92329000Y-122682000D02*
X92329000Y-125984000D01*
X92329000Y-125984000D02*
X91948000Y-126365000D01*
X95123000Y-121920000D02*
X93091000Y-121920000D01*
X93091000Y-121920000D02*
X92329000Y-122682000D01*
X95885000Y-129413000D02*
X95885000Y-122682000D01*
X95885000Y-122682000D02*
X95123000Y-121920000D01*
%TO.N,Net-(Q11-PadG)*%
X120777000Y-129032000D02*
X121799000Y-128010000D01*
X118999000Y-129032000D02*
X120777000Y-129032000D01*
X121799000Y-128010000D02*
X124197000Y-128010000D01*
%TO.N,/ADC11*%
X97917000Y-134493000D02*
X97917000Y-135255000D01*
X102982489Y-132573489D02*
X99836511Y-132573489D01*
X102997000Y-132588000D02*
X102982489Y-132573489D01*
X99836511Y-132573489D02*
X97917000Y-134493000D01*
D22*
%TO.N,+5V*%
X91827000Y-141853000D02*
X91827000Y-140471000D01*
X91821000Y-141859000D02*
X91827000Y-141853000D01*
D21*
%TO.N,Net-(Q13-PadG)*%
X118749000Y-135249000D02*
X124197000Y-135249000D01*
X118250000Y-134750000D02*
X118749000Y-135249000D01*
%TO.N,Net-(Q12-PadG)*%
X122174000Y-132207000D02*
X123952000Y-132207000D01*
X119864500Y-134516500D02*
X122174000Y-132207000D01*
%TO.N,Net-(Q10-PadG)*%
X122047000Y-124968000D02*
X124206000Y-124968000D01*
X119864500Y-127150500D02*
X122047000Y-124968000D01*
D22*
%TO.N,+5V*%
X94361000Y-123317000D02*
X94361000Y-129159000D01*
X94107000Y-128905000D02*
X90170000Y-128905000D01*
X94361000Y-129159000D02*
X94107000Y-128905000D01*
D21*
%TO.N,/CMP-*%
X100203000Y-133223000D02*
X100203000Y-136778733D01*
X100203000Y-136778733D02*
X100217767Y-136793500D01*
%TO.N,/PWM2L*%
X115570000Y-132715000D02*
X115570000Y-135509000D01*
X113919000Y-131064000D02*
X115570000Y-132715000D01*
X107315000Y-131064000D02*
X113919000Y-131064000D01*
%TO.N,/PWM1*%
X108839000Y-135255000D02*
X107061000Y-133477000D01*
%TO.N,/W*%
X127000000Y-125730000D02*
X130497000Y-125730000D01*
X125984000Y-126746000D02*
X127000000Y-125730000D01*
X125349000Y-139319000D02*
X125984000Y-138684000D01*
X125984000Y-138684000D02*
X125984000Y-126746000D01*
X122428000Y-139319000D02*
X125349000Y-139319000D01*
X120523000Y-137414000D02*
X122428000Y-139319000D01*
X107569000Y-137414000D02*
X120523000Y-137414000D01*
%TO.N,/PWM3L*%
X108712000Y-128016000D02*
X115697000Y-128016000D01*
X107315000Y-129413000D02*
X108712000Y-128016000D01*
%TO.N,/V*%
X126619000Y-138938000D02*
X126619000Y-134493000D01*
X125603000Y-139954000D02*
X126619000Y-138938000D01*
X122047000Y-139954000D02*
X125603000Y-139954000D01*
X126619000Y-134493000D02*
X128143000Y-132969000D01*
X128143000Y-132969000D02*
X130497000Y-132969000D01*
X120142000Y-138049000D02*
X122047000Y-139954000D01*
X101727000Y-138049000D02*
X120142000Y-138049000D01*
%TO.N,/U*%
X119824500Y-138684000D02*
X121729500Y-140589000D01*
X130116000Y-140589000D02*
X130497000Y-140208000D01*
X98552000Y-138684000D02*
X119824500Y-138684000D01*
X121729500Y-140589000D02*
X130116000Y-140589000D01*
X98171000Y-138303000D02*
X98552000Y-138684000D01*
%TO.N,Net-(Q15-PadG)*%
X124076000Y-142367000D02*
X124197000Y-142488000D01*
X118745000Y-142367000D02*
X124076000Y-142367000D01*
%TO.N,Net-(Q14-PadG)*%
X124206000Y-141224000D02*
X118618000Y-141224000D01*
X118618000Y-141224000D02*
X118430000Y-141412000D01*
%TO.N,/CMP-*%
X100359267Y-136652000D02*
X100217767Y-136793500D01*
X106045000Y-136652000D02*
X100359267Y-136652000D01*
X98044000Y-136779000D02*
X100203267Y-136779000D01*
X100203267Y-136779000D02*
X100217767Y-136793500D01*
%TD*%
%TA.AperFunction,Conductor*%
%TO.N,/PWM8*%
G36*
X90890838Y-125683857D02*
G01*
X91011918Y-125757177D01*
X91013322Y-125758175D01*
X91128526Y-125853615D01*
X91129297Y-125854314D01*
X91234761Y-125958803D01*
X91235023Y-125959071D01*
X91333564Y-126063426D01*
X91333610Y-126063472D01*
X91333634Y-126063497D01*
X91427632Y-126157943D01*
X91427854Y-126158166D01*
X91428090Y-126158359D01*
X91428096Y-126158364D01*
X91443367Y-126170825D01*
X91520738Y-126233960D01*
X91521301Y-126234244D01*
X91521304Y-126234246D01*
X91564204Y-126255886D01*
X91615174Y-126281597D01*
X91666716Y-126286948D01*
X91712858Y-126291738D01*
X91712859Y-126291738D01*
X91714123Y-126291869D01*
X91783032Y-126268362D01*
X91819603Y-126255886D01*
X91819605Y-126255885D01*
X91820543Y-126255565D01*
X91929231Y-126169909D01*
X91937848Y-126167479D01*
X91944744Y-126170825D01*
X92140695Y-126366776D01*
X92144122Y-126375049D01*
X92140140Y-126383842D01*
X92028665Y-126481662D01*
X92027300Y-126482693D01*
X91914489Y-126555627D01*
X91912949Y-126556467D01*
X91837885Y-126590335D01*
X91805960Y-126604738D01*
X91804572Y-126605261D01*
X91701642Y-126636698D01*
X91700759Y-126636930D01*
X91600123Y-126659256D01*
X91571163Y-126665327D01*
X91500776Y-126680082D01*
X91500761Y-126680086D01*
X91500597Y-126680120D01*
X91401219Y-126707214D01*
X91300574Y-126748332D01*
X91300180Y-126748572D01*
X91300176Y-126748574D01*
X91197661Y-126811013D01*
X91197244Y-126811267D01*
X91096149Y-126898358D01*
X91087646Y-126901162D01*
X91082602Y-126899590D01*
X90183338Y-126372813D01*
X90177932Y-126365675D01*
X90179157Y-126356804D01*
X90181142Y-126354285D01*
X90246184Y-126291738D01*
X90801595Y-125757626D01*
X90876668Y-125685432D01*
X90885007Y-125682167D01*
X90890838Y-125683857D01*
G37*
%TD.AperFunction*%
%TD*%
%TA.AperFunction,Conductor*%
%TO.N,/PWM8*%
G36*
X96031771Y-128826427D02*
G01*
X96035196Y-128834500D01*
X96036125Y-128888915D01*
X96039535Y-128945489D01*
X96045278Y-128994560D01*
X96053405Y-129037963D01*
X96063965Y-129077536D01*
X96077008Y-129115115D01*
X96092583Y-129152538D01*
X96092623Y-129152624D01*
X96110724Y-129191606D01*
X96110740Y-129191640D01*
X96131529Y-129234260D01*
X96151403Y-129274882D01*
X96151960Y-129283820D01*
X96149326Y-129288134D01*
X95893433Y-129554231D01*
X95885229Y-129557819D01*
X95876567Y-129554231D01*
X95620674Y-129288134D01*
X95617409Y-129279795D01*
X95618597Y-129274882D01*
X95638470Y-129234260D01*
X95659259Y-129191640D01*
X95659275Y-129191606D01*
X95677376Y-129152624D01*
X95677416Y-129152538D01*
X95692991Y-129115115D01*
X95706034Y-129077536D01*
X95716594Y-129037963D01*
X95724721Y-128994560D01*
X95730464Y-128945489D01*
X95733874Y-128888915D01*
X95734804Y-128834500D01*
X95738371Y-128826287D01*
X95746502Y-128823000D01*
X96023498Y-128823000D01*
X96031771Y-128826427D01*
G37*
%TD.AperFunction*%
%TD*%
%TA.AperFunction,Conductor*%
%TO.N,Net-(Q11-PadG)*%
G36*
X119137118Y-128765597D02*
G01*
X119177739Y-128785470D01*
X119220315Y-128806238D01*
X119220349Y-128806254D01*
X119220359Y-128806259D01*
X119259461Y-128824416D01*
X119296884Y-128839991D01*
X119334463Y-128853034D01*
X119334655Y-128853085D01*
X119334664Y-128853088D01*
X119365783Y-128861392D01*
X119374036Y-128863594D01*
X119417439Y-128871721D01*
X119466510Y-128877464D01*
X119497273Y-128879318D01*
X119522947Y-128880866D01*
X119522959Y-128880866D01*
X119523084Y-128880874D01*
X119523213Y-128880876D01*
X119523234Y-128880877D01*
X119577500Y-128881804D01*
X119585713Y-128885371D01*
X119589000Y-128893502D01*
X119589000Y-129170498D01*
X119585573Y-129178771D01*
X119577500Y-129182196D01*
X119523234Y-129183122D01*
X119523213Y-129183123D01*
X119523084Y-129183125D01*
X119522959Y-129183133D01*
X119522947Y-129183133D01*
X119497273Y-129184681D01*
X119466510Y-129186535D01*
X119417439Y-129192278D01*
X119374036Y-129200405D01*
X119373819Y-129200463D01*
X119334664Y-129210911D01*
X119334655Y-129210914D01*
X119334463Y-129210965D01*
X119296884Y-129224008D01*
X119259461Y-129239583D01*
X119259375Y-129239623D01*
X119220393Y-129257724D01*
X119220315Y-129257761D01*
X119177739Y-129278529D01*
X119137118Y-129298403D01*
X119128180Y-129298960D01*
X119123866Y-129296326D01*
X118857769Y-129040433D01*
X118854181Y-129032229D01*
X118857769Y-129023567D01*
X119123866Y-128767674D01*
X119132205Y-128764409D01*
X119137118Y-128765597D01*
G37*
%TD.AperFunction*%
%TD*%
%TA.AperFunction,Conductor*%
%TO.N,Net-(Q11-PadG)*%
G36*
X123941571Y-127475870D02*
G01*
X124335016Y-127854227D01*
X124488231Y-128001567D01*
X124491819Y-128009771D01*
X124488231Y-128018433D01*
X124163717Y-128330503D01*
X123941571Y-128544130D01*
X123933232Y-128547395D01*
X123927985Y-128546036D01*
X123827970Y-128493039D01*
X123827309Y-128492661D01*
X123736658Y-128436538D01*
X123736206Y-128436244D01*
X123656930Y-128381907D01*
X123656809Y-128381822D01*
X123584089Y-128330612D01*
X123584056Y-128330590D01*
X123583994Y-128330546D01*
X123512774Y-128283668D01*
X123438231Y-128242497D01*
X123355373Y-128208289D01*
X123355029Y-128208196D01*
X123355023Y-128208194D01*
X123305640Y-128194848D01*
X123259210Y-128182299D01*
X123258868Y-128182250D01*
X123258860Y-128182248D01*
X123173566Y-128169942D01*
X123144749Y-128165784D01*
X123144470Y-128165772D01*
X123144467Y-128165772D01*
X123104291Y-128164085D01*
X123018208Y-128160471D01*
X123010087Y-128156700D01*
X123007000Y-128148781D01*
X123007000Y-127871219D01*
X123010427Y-127862946D01*
X123018208Y-127859529D01*
X123096859Y-127856226D01*
X123144467Y-127854227D01*
X123144470Y-127854227D01*
X123144749Y-127854215D01*
X123173566Y-127850057D01*
X123258860Y-127837751D01*
X123258868Y-127837749D01*
X123259210Y-127837700D01*
X123305640Y-127825151D01*
X123355023Y-127811805D01*
X123355029Y-127811803D01*
X123355373Y-127811710D01*
X123438231Y-127777502D01*
X123512774Y-127736331D01*
X123583994Y-127689453D01*
X123584056Y-127689409D01*
X123584089Y-127689387D01*
X123656809Y-127638177D01*
X123656930Y-127638092D01*
X123736206Y-127583755D01*
X123736662Y-127583458D01*
X123827309Y-127527338D01*
X123827970Y-127526960D01*
X123927984Y-127473965D01*
X123936898Y-127473119D01*
X123941571Y-127475870D01*
G37*
%TD.AperFunction*%
%TD*%
%TA.AperFunction,Conductor*%
%TO.N,Net-(Q12-PadG)*%
G36*
X123827134Y-131942674D02*
G01*
X124093231Y-132198567D01*
X124096819Y-132206771D01*
X124093231Y-132215433D01*
X123827134Y-132471326D01*
X123818795Y-132474591D01*
X123813882Y-132473403D01*
X123773260Y-132453529D01*
X123730684Y-132432761D01*
X123730606Y-132432724D01*
X123691624Y-132414623D01*
X123691538Y-132414583D01*
X123654115Y-132399008D01*
X123616536Y-132385965D01*
X123616344Y-132385914D01*
X123616335Y-132385911D01*
X123577180Y-132375463D01*
X123576963Y-132375405D01*
X123533560Y-132367278D01*
X123484489Y-132361535D01*
X123453726Y-132359681D01*
X123428052Y-132358133D01*
X123428040Y-132358133D01*
X123427915Y-132358125D01*
X123427786Y-132358123D01*
X123427765Y-132358122D01*
X123373500Y-132357196D01*
X123365287Y-132353629D01*
X123362000Y-132345498D01*
X123362000Y-132068502D01*
X123365427Y-132060229D01*
X123373500Y-132056804D01*
X123427765Y-132055877D01*
X123427786Y-132055876D01*
X123427915Y-132055874D01*
X123428040Y-132055866D01*
X123428052Y-132055866D01*
X123453726Y-132054318D01*
X123484489Y-132052464D01*
X123533560Y-132046721D01*
X123576963Y-132038594D01*
X123585216Y-132036392D01*
X123616335Y-132028088D01*
X123616344Y-132028085D01*
X123616536Y-132028034D01*
X123654115Y-132014991D01*
X123691538Y-131999416D01*
X123730640Y-131981259D01*
X123730650Y-131981254D01*
X123730684Y-131981238D01*
X123773260Y-131960470D01*
X123813882Y-131940597D01*
X123822820Y-131940040D01*
X123827134Y-131942674D01*
G37*
%TD.AperFunction*%
%TD*%
%TA.AperFunction,Conductor*%
%TO.N,/ADC11*%
G36*
X98063656Y-134768427D02*
G01*
X98067083Y-134776616D01*
X98067386Y-134819313D01*
X98068706Y-134866605D01*
X98071202Y-134908159D01*
X98075118Y-134945256D01*
X98080696Y-134979178D01*
X98088177Y-135011207D01*
X98097806Y-135042624D01*
X98109824Y-135074712D01*
X98124475Y-135108753D01*
X98124516Y-135108840D01*
X98124524Y-135108858D01*
X98138575Y-135138743D01*
X98138994Y-135147688D01*
X98136420Y-135151831D01*
X97925433Y-135371231D01*
X97917229Y-135374819D01*
X97908567Y-135371231D01*
X97697580Y-135151831D01*
X97694315Y-135143492D01*
X97695425Y-135138743D01*
X97697679Y-135133948D01*
X97709524Y-135108753D01*
X97724175Y-135074712D01*
X97736193Y-135042624D01*
X97745822Y-135011207D01*
X97753303Y-134979178D01*
X97758881Y-134945256D01*
X97762797Y-134908159D01*
X97765293Y-134866605D01*
X97766613Y-134819313D01*
X97766917Y-134776616D01*
X97770403Y-134768368D01*
X97778617Y-134765000D01*
X98055383Y-134765000D01*
X98063656Y-134768427D01*
G37*
%TD.AperFunction*%
%TD*%
%TA.AperFunction,Conductor*%
%TO.N,/ADC11*%
G36*
X102902501Y-132360258D02*
G01*
X102906484Y-132363060D01*
X102965687Y-132426866D01*
X103113522Y-132586197D01*
X103116637Y-132594592D01*
X103112562Y-132603035D01*
X102881487Y-132801209D01*
X102872976Y-132803994D01*
X102868330Y-132802633D01*
X102865681Y-132801209D01*
X102838771Y-132786743D01*
X102805086Y-132770363D01*
X102793017Y-132765320D01*
X102773287Y-132757077D01*
X102773280Y-132757074D01*
X102773102Y-132757000D01*
X102772922Y-132756939D01*
X102772908Y-132756934D01*
X102741798Y-132746438D01*
X102741792Y-132746436D01*
X102741575Y-132746363D01*
X102709265Y-132738161D01*
X102709059Y-132738125D01*
X102709056Y-132738124D01*
X102701199Y-132736738D01*
X102674928Y-132732103D01*
X102654808Y-132729853D01*
X102637469Y-132727914D01*
X102637461Y-132727913D01*
X102637324Y-132727898D01*
X102637177Y-132727889D01*
X102637168Y-132727888D01*
X102595312Y-132725260D01*
X102595295Y-132725259D01*
X102595211Y-132725254D01*
X102547346Y-132723881D01*
X102547300Y-132723881D01*
X102547270Y-132723880D01*
X102504105Y-132723572D01*
X102495857Y-132720086D01*
X102492489Y-132711872D01*
X102492489Y-132435139D01*
X102495916Y-132426866D01*
X102504139Y-132423439D01*
X102537939Y-132423293D01*
X102550343Y-132423240D01*
X102550358Y-132423240D01*
X102573328Y-132422816D01*
X102600681Y-132422311D01*
X102644903Y-132420424D01*
X102684413Y-132417303D01*
X102699377Y-132415388D01*
X102720434Y-132412694D01*
X102720446Y-132412692D01*
X102720611Y-132412671D01*
X102720771Y-132412641D01*
X102720784Y-132412639D01*
X102740990Y-132408856D01*
X102754901Y-132406252D01*
X102755052Y-132406214D01*
X102755057Y-132406213D01*
X102788549Y-132397801D01*
X102788560Y-132397798D01*
X102788683Y-132397767D01*
X102788808Y-132397728D01*
X102788815Y-132397726D01*
X102797675Y-132394960D01*
X102823361Y-132386942D01*
X102860337Y-132373499D01*
X102860402Y-132373473D01*
X102893546Y-132360161D01*
X102902501Y-132360258D01*
G37*
%TD.AperFunction*%
%TD*%
%TA.AperFunction,Conductor*%
%TO.N,+5V*%
G36*
X92323737Y-140484427D02*
G01*
X92327163Y-140492534D01*
X92328622Y-140595951D01*
X92333497Y-140702544D01*
X92341638Y-140800809D01*
X92342210Y-140805318D01*
X92342210Y-140805322D01*
X92351092Y-140875304D01*
X92353056Y-140890778D01*
X92367762Y-140972482D01*
X92385771Y-141045955D01*
X92385839Y-141046163D01*
X92404872Y-141104426D01*
X92407093Y-141111226D01*
X92407196Y-141111464D01*
X92428573Y-141160990D01*
X92431740Y-141168328D01*
X92459725Y-141217293D01*
X92482791Y-141247369D01*
X92486063Y-141251636D01*
X92488379Y-141260286D01*
X92486631Y-141265066D01*
X92233031Y-141661000D01*
X91844836Y-142267071D01*
X91827986Y-142293378D01*
X91820638Y-142298497D01*
X91811824Y-142296920D01*
X91808198Y-142293246D01*
X91416307Y-141662976D01*
X91325099Y-141516288D01*
X91163382Y-141256204D01*
X91161924Y-141247369D01*
X91164128Y-141242784D01*
X91190373Y-141209480D01*
X91190375Y-141209477D01*
X91190617Y-141209170D01*
X91218972Y-141160990D01*
X91244085Y-141104673D01*
X91244169Y-141104426D01*
X91265861Y-141040407D01*
X91265864Y-141040396D01*
X91265931Y-141040199D01*
X91283227Y-140972482D01*
X91284438Y-140967739D01*
X91284440Y-140967731D01*
X91284486Y-140967550D01*
X91298928Y-140890928D01*
X91299695Y-140886861D01*
X91299696Y-140886853D01*
X91299724Y-140886706D01*
X91311165Y-140801047D01*
X91311619Y-140797648D01*
X91320147Y-140700357D01*
X91323624Y-140628888D01*
X91325276Y-140594943D01*
X91325277Y-140594925D01*
X91325282Y-140594814D01*
X91326826Y-140492523D01*
X91330378Y-140484303D01*
X91338525Y-140481000D01*
X92315464Y-140481000D01*
X92323737Y-140484427D01*
G37*
%TD.AperFunction*%
%TD*%
%TA.AperFunction,Conductor*%
%TO.N,+5V*%
G36*
X91835433Y-140179769D02*
G01*
X92125112Y-140481000D01*
X92334741Y-140698987D01*
X92334741Y-140698988D01*
X92361841Y-140727169D01*
X92365106Y-140735508D01*
X92364328Y-140739479D01*
X92346192Y-140786632D01*
X92331729Y-140848720D01*
X92322631Y-140919030D01*
X92317920Y-140997794D01*
X92316618Y-141085247D01*
X92317747Y-141181621D01*
X92320327Y-141287149D01*
X92323382Y-141402067D01*
X92325721Y-141516288D01*
X92325757Y-141518024D01*
X92325931Y-141526538D01*
X92325933Y-141526685D01*
X92326906Y-141649207D01*
X92323545Y-141657507D01*
X92315206Y-141661000D01*
X91338794Y-141661000D01*
X91330521Y-141657573D01*
X91327094Y-141649207D01*
X91328066Y-141526687D01*
X91328068Y-141526539D01*
X91328142Y-141522938D01*
X91330617Y-141402067D01*
X91333672Y-141287149D01*
X91336252Y-141181621D01*
X91337381Y-141085247D01*
X91336079Y-140997794D01*
X91331368Y-140919030D01*
X91322270Y-140848720D01*
X91307807Y-140786632D01*
X91289671Y-140739478D01*
X91289899Y-140730527D01*
X91292158Y-140727169D01*
X91318794Y-140699471D01*
X91818567Y-140179769D01*
X91826771Y-140176181D01*
X91835433Y-140179769D01*
G37*
%TD.AperFunction*%
%TD*%
%TA.AperFunction,Conductor*%
%TO.N,Net-(Q13-PadG)*%
G36*
X123941571Y-134714870D02*
G01*
X124335016Y-135093227D01*
X124488231Y-135240567D01*
X124491819Y-135248771D01*
X124488231Y-135257433D01*
X124163717Y-135569503D01*
X123941571Y-135783130D01*
X123933232Y-135786395D01*
X123927985Y-135785036D01*
X123827970Y-135732039D01*
X123827309Y-135731661D01*
X123736658Y-135675538D01*
X123736206Y-135675244D01*
X123656930Y-135620907D01*
X123656809Y-135620822D01*
X123584089Y-135569612D01*
X123584056Y-135569590D01*
X123583994Y-135569546D01*
X123512774Y-135522668D01*
X123438231Y-135481497D01*
X123355373Y-135447289D01*
X123355029Y-135447196D01*
X123355023Y-135447194D01*
X123305640Y-135433848D01*
X123259210Y-135421299D01*
X123258868Y-135421250D01*
X123258860Y-135421248D01*
X123173566Y-135408942D01*
X123144749Y-135404784D01*
X123144470Y-135404772D01*
X123144467Y-135404772D01*
X123104291Y-135403085D01*
X123018208Y-135399471D01*
X123010087Y-135395700D01*
X123007000Y-135387781D01*
X123007000Y-135110219D01*
X123010427Y-135101946D01*
X123018208Y-135098529D01*
X123096859Y-135095226D01*
X123144467Y-135093227D01*
X123144470Y-135093227D01*
X123144749Y-135093215D01*
X123173566Y-135089057D01*
X123258860Y-135076751D01*
X123258868Y-135076749D01*
X123259210Y-135076700D01*
X123305640Y-135064151D01*
X123355023Y-135050805D01*
X123355029Y-135050803D01*
X123355373Y-135050710D01*
X123438231Y-135016502D01*
X123512774Y-134975331D01*
X123583994Y-134928453D01*
X123584056Y-134928409D01*
X123584089Y-134928387D01*
X123656809Y-134877177D01*
X123656930Y-134877092D01*
X123736206Y-134822755D01*
X123736662Y-134822458D01*
X123827309Y-134766338D01*
X123827970Y-134765960D01*
X123927984Y-134712965D01*
X123936898Y-134712119D01*
X123941571Y-134714870D01*
G37*
%TD.AperFunction*%
%TD*%
%TA.AperFunction,Conductor*%
%TO.N,Net-(Q13-PadG)*%
G36*
X118490268Y-134650705D02*
G01*
X118525202Y-134651388D01*
X118533406Y-134654976D01*
X118536040Y-134659290D01*
X118550711Y-134702066D01*
X118566147Y-134746902D01*
X118580958Y-134787391D01*
X118596406Y-134824866D01*
X118613756Y-134860661D01*
X118634271Y-134896110D01*
X118634391Y-134896285D01*
X118634399Y-134896298D01*
X118649677Y-134918614D01*
X118659215Y-134932547D01*
X118689851Y-134971306D01*
X118727444Y-135013721D01*
X118727541Y-135013821D01*
X118765265Y-135052855D01*
X118768550Y-135061186D01*
X118765125Y-135069259D01*
X118569259Y-135265125D01*
X118560986Y-135268552D01*
X118552855Y-135265265D01*
X118552711Y-135265125D01*
X118513721Y-135227444D01*
X118471306Y-135189851D01*
X118432547Y-135159215D01*
X118418614Y-135149677D01*
X118396298Y-135134399D01*
X118396285Y-135134391D01*
X118396110Y-135134271D01*
X118395920Y-135134161D01*
X118395912Y-135134156D01*
X118360848Y-135113864D01*
X118360844Y-135113862D01*
X118360661Y-135113756D01*
X118324866Y-135096406D01*
X118287391Y-135080958D01*
X118287313Y-135080930D01*
X118287299Y-135080924D01*
X118246902Y-135066147D01*
X118202066Y-135050711D01*
X118159290Y-135036040D01*
X118152576Y-135030115D01*
X118151388Y-135025202D01*
X118144172Y-134656099D01*
X118147437Y-134647760D01*
X118156099Y-134644172D01*
X118490268Y-134650705D01*
G37*
%TD.AperFunction*%
%TD*%
%TA.AperFunction,Conductor*%
%TO.N,Net-(Q12-PadG)*%
G36*
X120183759Y-134001375D02*
G01*
X120379625Y-134197241D01*
X120383052Y-134205514D01*
X120379765Y-134213644D01*
X120341944Y-134252778D01*
X120304351Y-134295193D01*
X120273715Y-134333952D01*
X120273597Y-134334125D01*
X120248899Y-134370201D01*
X120248891Y-134370214D01*
X120248771Y-134370389D01*
X120228256Y-134405838D01*
X120210906Y-134441633D01*
X120195458Y-134479108D01*
X120195430Y-134479186D01*
X120195424Y-134479200D01*
X120180647Y-134519597D01*
X120165211Y-134564433D01*
X120150540Y-134607210D01*
X120144615Y-134613924D01*
X120139702Y-134615112D01*
X120104768Y-134615795D01*
X119770599Y-134622328D01*
X119762260Y-134619063D01*
X119758672Y-134610401D01*
X119765888Y-134241298D01*
X119769476Y-134233094D01*
X119773790Y-134230460D01*
X119816566Y-134215788D01*
X119861402Y-134200352D01*
X119901799Y-134185575D01*
X119901813Y-134185569D01*
X119901891Y-134185541D01*
X119939366Y-134170093D01*
X119975161Y-134152743D01*
X119975348Y-134152635D01*
X120010412Y-134132343D01*
X120010420Y-134132338D01*
X120010610Y-134132228D01*
X120010785Y-134132108D01*
X120010798Y-134132100D01*
X120033114Y-134116822D01*
X120047047Y-134107284D01*
X120085806Y-134076648D01*
X120128221Y-134039055D01*
X120167355Y-134001235D01*
X120175686Y-133997950D01*
X120183759Y-134001375D01*
G37*
%TD.AperFunction*%
%TD*%
%TA.AperFunction,Conductor*%
%TO.N,Net-(Q10-PadG)*%
G36*
X124081134Y-124703674D02*
G01*
X124347231Y-124959567D01*
X124350819Y-124967771D01*
X124347231Y-124976433D01*
X124081134Y-125232326D01*
X124072795Y-125235591D01*
X124067882Y-125234403D01*
X124027260Y-125214529D01*
X123984684Y-125193761D01*
X123984606Y-125193724D01*
X123945624Y-125175623D01*
X123945538Y-125175583D01*
X123908115Y-125160008D01*
X123870536Y-125146965D01*
X123870344Y-125146914D01*
X123870335Y-125146911D01*
X123831180Y-125136463D01*
X123830963Y-125136405D01*
X123787560Y-125128278D01*
X123738489Y-125122535D01*
X123707726Y-125120681D01*
X123682052Y-125119133D01*
X123682040Y-125119133D01*
X123681915Y-125119125D01*
X123681786Y-125119123D01*
X123681765Y-125119122D01*
X123627500Y-125118196D01*
X123619287Y-125114629D01*
X123616000Y-125106498D01*
X123616000Y-124829502D01*
X123619427Y-124821229D01*
X123627500Y-124817804D01*
X123681765Y-124816877D01*
X123681786Y-124816876D01*
X123681915Y-124816874D01*
X123682040Y-124816866D01*
X123682052Y-124816866D01*
X123707726Y-124815318D01*
X123738489Y-124813464D01*
X123787560Y-124807721D01*
X123830963Y-124799594D01*
X123839216Y-124797392D01*
X123870335Y-124789088D01*
X123870344Y-124789085D01*
X123870536Y-124789034D01*
X123908115Y-124775991D01*
X123945538Y-124760416D01*
X123984640Y-124742259D01*
X123984650Y-124742254D01*
X123984684Y-124742238D01*
X124027260Y-124721470D01*
X124067882Y-124701597D01*
X124076820Y-124701040D01*
X124081134Y-124703674D01*
G37*
%TD.AperFunction*%
%TD*%
%TA.AperFunction,Conductor*%
%TO.N,Net-(Q10-PadG)*%
G36*
X120183759Y-126635375D02*
G01*
X120379625Y-126831241D01*
X120383052Y-126839514D01*
X120379765Y-126847644D01*
X120341944Y-126886778D01*
X120304351Y-126929193D01*
X120273715Y-126967952D01*
X120273597Y-126968125D01*
X120248899Y-127004201D01*
X120248891Y-127004214D01*
X120248771Y-127004389D01*
X120228256Y-127039838D01*
X120210906Y-127075633D01*
X120195458Y-127113108D01*
X120195430Y-127113186D01*
X120195424Y-127113200D01*
X120180647Y-127153597D01*
X120165211Y-127198433D01*
X120150540Y-127241210D01*
X120144615Y-127247924D01*
X120139702Y-127249112D01*
X120104768Y-127249795D01*
X119770599Y-127256328D01*
X119762260Y-127253063D01*
X119758672Y-127244401D01*
X119765888Y-126875298D01*
X119769476Y-126867094D01*
X119773790Y-126864460D01*
X119816566Y-126849788D01*
X119861402Y-126834352D01*
X119901799Y-126819575D01*
X119901813Y-126819569D01*
X119901891Y-126819541D01*
X119939366Y-126804093D01*
X119975161Y-126786743D01*
X119975348Y-126786635D01*
X120010412Y-126766343D01*
X120010420Y-126766338D01*
X120010610Y-126766228D01*
X120010785Y-126766108D01*
X120010798Y-126766100D01*
X120033114Y-126750822D01*
X120047047Y-126741284D01*
X120085806Y-126710648D01*
X120128221Y-126673055D01*
X120167355Y-126635235D01*
X120175686Y-126631950D01*
X120183759Y-126635375D01*
G37*
%TD.AperFunction*%
%TD*%
%TA.AperFunction,Conductor*%
%TO.N,+5V*%
G36*
X94369433Y-122875769D02*
G01*
X95165382Y-123703458D01*
X95168647Y-123711797D01*
X95167507Y-123716611D01*
X95103558Y-123850436D01*
X95045901Y-123977669D01*
X94997398Y-124096099D01*
X94957414Y-124210825D01*
X94925318Y-124326947D01*
X94900476Y-124449566D01*
X94882256Y-124583781D01*
X94870025Y-124734691D01*
X94863150Y-124907397D01*
X94863149Y-124907521D01*
X94863148Y-124907547D01*
X94861125Y-125095426D01*
X94857610Y-125103662D01*
X94849426Y-125107000D01*
X93872574Y-125107000D01*
X93864301Y-125103573D01*
X93860875Y-125095426D01*
X93858851Y-124907547D01*
X93858850Y-124907521D01*
X93858849Y-124907397D01*
X93851974Y-124734691D01*
X93839743Y-124583781D01*
X93821523Y-124449566D01*
X93796681Y-124326947D01*
X93764585Y-124210825D01*
X93724601Y-124096099D01*
X93676098Y-123977669D01*
X93618441Y-123850436D01*
X93618426Y-123850404D01*
X93618410Y-123850370D01*
X93554494Y-123716612D01*
X93554019Y-123707670D01*
X93556618Y-123703458D01*
X94352567Y-122875769D01*
X94360771Y-122872181D01*
X94369433Y-122875769D01*
G37*
%TD.AperFunction*%
%TD*%
%TA.AperFunction,Conductor*%
%TO.N,+5V*%
G36*
X94857699Y-127372427D02*
G01*
X94861125Y-127380573D01*
X94863150Y-127568602D01*
X94870025Y-127741308D01*
X94882256Y-127892218D01*
X94900476Y-128026433D01*
X94925318Y-128149052D01*
X94957414Y-128265174D01*
X94997398Y-128379900D01*
X95045901Y-128498330D01*
X95045945Y-128498427D01*
X95098647Y-128614725D01*
X95103558Y-128625563D01*
X95103573Y-128625595D01*
X95103589Y-128625629D01*
X95167506Y-128759388D01*
X95167981Y-128768330D01*
X95165382Y-128772542D01*
X94550382Y-129412066D01*
X94549721Y-129412754D01*
X94549719Y-129412755D01*
X94369433Y-129600231D01*
X94361229Y-129603819D01*
X94352567Y-129600231D01*
X93551000Y-128766700D01*
X93618441Y-128625563D01*
X93676098Y-128498330D01*
X93724601Y-128379900D01*
X93764585Y-128265174D01*
X93796681Y-128149052D01*
X93821523Y-128026433D01*
X93839743Y-127892218D01*
X93851974Y-127741308D01*
X93858849Y-127568602D01*
X93860875Y-127380573D01*
X93864390Y-127372338D01*
X93872574Y-127369000D01*
X94849426Y-127369000D01*
X94857699Y-127372427D01*
G37*
%TD.AperFunction*%
%TD*%
%TA.AperFunction,Conductor*%
%TO.N,+5V*%
G36*
X94748351Y-129208234D02*
G01*
X94786695Y-129275355D01*
X94787823Y-129284239D01*
X94781938Y-129291537D01*
X94551230Y-129411624D01*
X94551227Y-129411626D01*
X94296663Y-129544131D01*
X94269069Y-129558494D01*
X93928696Y-129735664D01*
X93766373Y-129820156D01*
X93763291Y-129821760D01*
X93754370Y-129822540D01*
X93750149Y-129820156D01*
X93654470Y-129735746D01*
X93654469Y-129735745D01*
X93654377Y-129735664D01*
X93654297Y-129735599D01*
X93654279Y-129735584D01*
X93559078Y-129658551D01*
X93558931Y-129658432D01*
X93466274Y-129593037D01*
X93372848Y-129538743D01*
X93275098Y-129494817D01*
X93169467Y-129460525D01*
X93160921Y-129458671D01*
X93052640Y-129435183D01*
X93052629Y-129435181D01*
X93052398Y-129435131D01*
X93003730Y-129428782D01*
X92920529Y-129417927D01*
X92920520Y-129417926D01*
X92920335Y-129417902D01*
X92831466Y-129412120D01*
X92769879Y-129408113D01*
X92769867Y-129408113D01*
X92769721Y-129408103D01*
X92769577Y-129408100D01*
X92769567Y-129408100D01*
X92608490Y-129405206D01*
X92600280Y-129401631D01*
X92597000Y-129393508D01*
X92597000Y-128416651D01*
X92600427Y-128408378D01*
X92608650Y-128404951D01*
X92764446Y-128404290D01*
X92822540Y-128404043D01*
X92923205Y-128402469D01*
X93016881Y-128401004D01*
X93016909Y-128401003D01*
X93016918Y-128401003D01*
X93186491Y-128395626D01*
X93186498Y-128395626D01*
X93186518Y-128395625D01*
X93286838Y-128390336D01*
X93337618Y-128387659D01*
X93337643Y-128387657D01*
X93337661Y-128387656D01*
X93451330Y-128378817D01*
X93476658Y-128376847D01*
X93563812Y-128367753D01*
X93609912Y-128362943D01*
X93609925Y-128362942D01*
X93609968Y-128362937D01*
X93610012Y-128362931D01*
X93610032Y-128362929D01*
X93733873Y-128346969D01*
X93733874Y-128346968D01*
X93736182Y-128346671D01*
X93743907Y-128345675D01*
X93884834Y-128324807D01*
X94039106Y-128300079D01*
X94213084Y-128271239D01*
X94748351Y-129208234D01*
G37*
%TD.AperFunction*%
%TD*%
%TA.AperFunction,Conductor*%
%TO.N,+5V*%
G36*
X90890466Y-128222712D02*
G01*
X90958949Y-128255572D01*
X91029133Y-128287778D01*
X91096229Y-128315899D01*
X91096349Y-128315943D01*
X91096358Y-128315946D01*
X91162618Y-128339960D01*
X91162629Y-128339963D01*
X91162768Y-128340014D01*
X91162913Y-128340057D01*
X91162923Y-128340060D01*
X91231110Y-128360151D01*
X91231121Y-128360154D01*
X91231281Y-128360201D01*
X91304297Y-128376540D01*
X91304482Y-128376569D01*
X91304487Y-128376570D01*
X91330148Y-128380599D01*
X91384346Y-128389110D01*
X91473960Y-128397990D01*
X91474119Y-128397998D01*
X91474129Y-128397999D01*
X91508648Y-128399787D01*
X91575667Y-128403260D01*
X91575757Y-128403261D01*
X91575774Y-128403262D01*
X91680475Y-128404828D01*
X91688696Y-128408379D01*
X91692000Y-128416527D01*
X91692000Y-129393473D01*
X91688573Y-129401746D01*
X91680475Y-129405172D01*
X91575774Y-129406737D01*
X91575757Y-129406738D01*
X91575667Y-129406739D01*
X91508648Y-129410212D01*
X91474129Y-129412000D01*
X91474119Y-129412001D01*
X91473960Y-129412009D01*
X91384346Y-129420889D01*
X91330148Y-129429400D01*
X91304487Y-129433429D01*
X91304482Y-129433430D01*
X91304297Y-129433459D01*
X91231281Y-129449798D01*
X91231121Y-129449845D01*
X91231110Y-129449848D01*
X91162923Y-129469939D01*
X91162913Y-129469942D01*
X91162768Y-129469985D01*
X91162629Y-129470036D01*
X91162618Y-129470039D01*
X91096358Y-129494053D01*
X91096349Y-129494056D01*
X91096229Y-129494100D01*
X91029133Y-129522221D01*
X91029068Y-129522251D01*
X90958949Y-129554427D01*
X90958886Y-129554457D01*
X90890468Y-129587287D01*
X90881526Y-129587777D01*
X90877296Y-129585172D01*
X90178769Y-128913433D01*
X90175181Y-128905229D01*
X90178769Y-128896567D01*
X90677952Y-128416527D01*
X90877297Y-128224827D01*
X90885635Y-128221562D01*
X90890466Y-128222712D01*
G37*
%TD.AperFunction*%
%TD*%
%TA.AperFunction,Conductor*%
%TO.N,/CMP-*%
G36*
X100211433Y-133081769D02*
G01*
X100467326Y-133347866D01*
X100470591Y-133356205D01*
X100469403Y-133361118D01*
X100449529Y-133401739D01*
X100428740Y-133444359D01*
X100410583Y-133483461D01*
X100395008Y-133520884D01*
X100381965Y-133558463D01*
X100371405Y-133598036D01*
X100363278Y-133641439D01*
X100357535Y-133690510D01*
X100354125Y-133747084D01*
X100354123Y-133747213D01*
X100354122Y-133747234D01*
X100353196Y-133801500D01*
X100349629Y-133809713D01*
X100341498Y-133813000D01*
X100064502Y-133813000D01*
X100056229Y-133809573D01*
X100052804Y-133801500D01*
X100051877Y-133747234D01*
X100051876Y-133747213D01*
X100051874Y-133747084D01*
X100048464Y-133690510D01*
X100042721Y-133641439D01*
X100034594Y-133598036D01*
X100024034Y-133558463D01*
X100010991Y-133520884D01*
X99995416Y-133483461D01*
X99977259Y-133444359D01*
X99956470Y-133401739D01*
X99936597Y-133361118D01*
X99936040Y-133352180D01*
X99938674Y-133347866D01*
X100194567Y-133081769D01*
X100202771Y-133078181D01*
X100211433Y-133081769D01*
G37*
%TD.AperFunction*%
%TD*%
%TA.AperFunction,Conductor*%
%TO.N,/CMP-*%
G36*
X100349767Y-136192160D02*
G01*
X100353192Y-136200237D01*
X100353193Y-136200264D01*
X100354112Y-136255250D01*
X100357523Y-136312437D01*
X100363346Y-136362089D01*
X100371695Y-136406008D01*
X100382681Y-136445990D01*
X100396417Y-136483836D01*
X100413016Y-136521343D01*
X100432591Y-136560310D01*
X100455255Y-136602536D01*
X100481121Y-136649820D01*
X100252354Y-136912004D01*
X100251491Y-136912993D01*
X100233025Y-136934156D01*
X100225003Y-136938137D01*
X100219080Y-136936014D01*
X100218947Y-136936362D01*
X100216773Y-136935534D01*
X99941755Y-136675954D01*
X99963903Y-136624366D01*
X99983401Y-136578646D01*
X99988966Y-136564896D01*
X99988967Y-136564896D01*
X100000325Y-136536833D01*
X100014750Y-136496964D01*
X100026749Y-136457078D01*
X100036399Y-136415214D01*
X100043774Y-136369408D01*
X100048949Y-136317701D01*
X100051999Y-136258130D01*
X100052039Y-136255405D01*
X100052834Y-136200264D01*
X100056380Y-136192041D01*
X100064533Y-136188733D01*
X100341494Y-136188733D01*
X100349767Y-136192160D01*
G37*
%TD.AperFunction*%
%TD*%
%TA.AperFunction,Conductor*%
%TO.N,/PWM2L*%
G36*
X115716656Y-135022427D02*
G01*
X115720083Y-135030616D01*
X115720386Y-135073313D01*
X115721706Y-135120605D01*
X115724202Y-135162159D01*
X115728118Y-135199256D01*
X115733696Y-135233178D01*
X115741177Y-135265207D01*
X115750806Y-135296624D01*
X115762824Y-135328712D01*
X115777475Y-135362753D01*
X115777516Y-135362840D01*
X115777524Y-135362858D01*
X115791575Y-135392743D01*
X115791994Y-135401688D01*
X115789420Y-135405831D01*
X115578433Y-135625231D01*
X115570229Y-135628819D01*
X115561567Y-135625231D01*
X115350580Y-135405831D01*
X115347315Y-135397492D01*
X115348425Y-135392743D01*
X115350679Y-135387948D01*
X115362524Y-135362753D01*
X115377175Y-135328712D01*
X115389193Y-135296624D01*
X115398822Y-135265207D01*
X115406303Y-135233178D01*
X115411881Y-135199256D01*
X115415797Y-135162159D01*
X115418293Y-135120605D01*
X115419613Y-135073313D01*
X115419917Y-135030616D01*
X115423403Y-135022368D01*
X115431617Y-135019000D01*
X115708383Y-135019000D01*
X115716656Y-135022427D01*
G37*
%TD.AperFunction*%
%TD*%
%TA.AperFunction,Conductor*%
%TO.N,/PWM2L*%
G36*
X107431257Y-130842425D02*
G01*
X107461246Y-130856524D01*
X107461340Y-130856564D01*
X107461350Y-130856569D01*
X107495147Y-130871115D01*
X107495156Y-130871119D01*
X107495287Y-130871175D01*
X107507742Y-130875840D01*
X107527206Y-130883130D01*
X107527214Y-130883133D01*
X107527375Y-130883193D01*
X107527550Y-130883247D01*
X107527557Y-130883249D01*
X107558589Y-130892760D01*
X107558595Y-130892762D01*
X107558792Y-130892822D01*
X107558996Y-130892870D01*
X107559001Y-130892871D01*
X107567716Y-130894906D01*
X107590821Y-130900303D01*
X107619027Y-130904941D01*
X107624566Y-130905852D01*
X107624570Y-130905852D01*
X107624743Y-130905881D01*
X107624912Y-130905899D01*
X107624928Y-130905901D01*
X107645228Y-130908043D01*
X107661840Y-130909797D01*
X107676470Y-130910676D01*
X107703321Y-130912289D01*
X107703338Y-130912290D01*
X107703394Y-130912293D01*
X107728683Y-130912999D01*
X107750601Y-130913611D01*
X107750686Y-130913613D01*
X107750757Y-130913614D01*
X107750779Y-130913614D01*
X107776285Y-130913795D01*
X107793384Y-130913917D01*
X107801632Y-130917403D01*
X107805000Y-130925617D01*
X107805000Y-131202383D01*
X107801573Y-131210656D01*
X107793384Y-131214083D01*
X107769320Y-131214254D01*
X107750779Y-131214385D01*
X107750757Y-131214385D01*
X107750686Y-131214386D01*
X107750601Y-131214388D01*
X107728683Y-131215000D01*
X107703394Y-131215706D01*
X107703338Y-131215709D01*
X107703321Y-131215710D01*
X107676470Y-131217323D01*
X107661840Y-131218202D01*
X107645228Y-131219956D01*
X107624928Y-131222098D01*
X107624912Y-131222100D01*
X107624743Y-131222118D01*
X107624570Y-131222147D01*
X107624566Y-131222147D01*
X107619027Y-131223058D01*
X107590821Y-131227696D01*
X107567716Y-131233093D01*
X107559001Y-131235128D01*
X107558996Y-131235129D01*
X107558792Y-131235177D01*
X107558595Y-131235237D01*
X107558589Y-131235239D01*
X107527557Y-131244750D01*
X107527550Y-131244752D01*
X107527375Y-131244806D01*
X107527214Y-131244866D01*
X107527206Y-131244869D01*
X107507742Y-131252159D01*
X107495287Y-131256824D01*
X107495156Y-131256880D01*
X107495147Y-131256884D01*
X107461350Y-131271430D01*
X107461338Y-131271436D01*
X107461246Y-131271475D01*
X107461159Y-131271516D01*
X107461141Y-131271524D01*
X107431257Y-131285575D01*
X107422312Y-131285994D01*
X107418169Y-131283420D01*
X107390513Y-131256824D01*
X107198769Y-131072433D01*
X107195181Y-131064229D01*
X107198769Y-131055567D01*
X107333901Y-130925617D01*
X107418170Y-130844580D01*
X107426508Y-130841315D01*
X107431257Y-130842425D01*
G37*
%TD.AperFunction*%
%TD*%
%TA.AperFunction,Conductor*%
%TO.N,/PWM1*%
G36*
X107289106Y-133394800D02*
G01*
X107297310Y-133398388D01*
X107299883Y-133402530D01*
X107311119Y-133433706D01*
X107324829Y-133468135D01*
X107339021Y-133499322D01*
X107354428Y-133528346D01*
X107371785Y-133556284D01*
X107371888Y-133556428D01*
X107371895Y-133556438D01*
X107382039Y-133570574D01*
X107391827Y-133584214D01*
X107415290Y-133613214D01*
X107442907Y-133644362D01*
X107442963Y-133644421D01*
X107475370Y-133678689D01*
X107475461Y-133678783D01*
X107505391Y-133709143D01*
X107508759Y-133717441D01*
X107505332Y-133725630D01*
X107309630Y-133921332D01*
X107301357Y-133924759D01*
X107293143Y-133921391D01*
X107262783Y-133891461D01*
X107262764Y-133891443D01*
X107262736Y-133891415D01*
X107262714Y-133891394D01*
X107262689Y-133891370D01*
X107228421Y-133858963D01*
X107228362Y-133858907D01*
X107197214Y-133831290D01*
X107185021Y-133821425D01*
X107168353Y-133807939D01*
X107168344Y-133807932D01*
X107168214Y-133807827D01*
X107154574Y-133798039D01*
X107140438Y-133787895D01*
X107140428Y-133787888D01*
X107140284Y-133787785D01*
X107140130Y-133787689D01*
X107140119Y-133787682D01*
X107112522Y-133770537D01*
X107112515Y-133770533D01*
X107112346Y-133770428D01*
X107110275Y-133769329D01*
X107083477Y-133755103D01*
X107083470Y-133755100D01*
X107083322Y-133755021D01*
X107069839Y-133748886D01*
X107052283Y-133740896D01*
X107052271Y-133740891D01*
X107052135Y-133740829D01*
X107017706Y-133727119D01*
X106986530Y-133715883D01*
X106979910Y-133709855D01*
X106978800Y-133705106D01*
X106972850Y-133400777D01*
X106976115Y-133392438D01*
X106984777Y-133388850D01*
X107289106Y-133394800D01*
G37*
%TD.AperFunction*%
%TD*%
%TA.AperFunction,Conductor*%
%TO.N,/PWM1*%
G36*
X108606857Y-134810609D02*
G01*
X108637216Y-134840538D01*
X108637263Y-134840584D01*
X108637285Y-134840605D01*
X108637310Y-134840629D01*
X108662363Y-134864321D01*
X108671637Y-134873092D01*
X108702785Y-134900709D01*
X108702888Y-134900792D01*
X108731646Y-134924060D01*
X108731655Y-134924067D01*
X108731785Y-134924172D01*
X108745425Y-134933960D01*
X108759561Y-134944104D01*
X108759571Y-134944111D01*
X108759715Y-134944214D01*
X108759869Y-134944310D01*
X108759880Y-134944317D01*
X108787477Y-134961462D01*
X108787484Y-134961466D01*
X108787653Y-134961571D01*
X108787832Y-134961666D01*
X108816522Y-134976896D01*
X108816529Y-134976899D01*
X108816677Y-134976978D01*
X108830160Y-134983113D01*
X108847716Y-134991103D01*
X108847728Y-134991108D01*
X108847864Y-134991170D01*
X108882293Y-135004880D01*
X108882370Y-135004908D01*
X108882389Y-135004915D01*
X108902046Y-135011999D01*
X108913469Y-135016116D01*
X108920090Y-135022145D01*
X108921200Y-135026894D01*
X108927150Y-135331223D01*
X108923885Y-135339562D01*
X108915223Y-135343150D01*
X108610894Y-135337200D01*
X108602690Y-135333612D01*
X108600116Y-135329469D01*
X108588915Y-135298389D01*
X108588908Y-135298370D01*
X108588880Y-135298293D01*
X108575170Y-135263864D01*
X108560978Y-135232677D01*
X108545571Y-135203653D01*
X108528214Y-135175715D01*
X108528111Y-135175571D01*
X108528104Y-135175561D01*
X108508277Y-135147932D01*
X108508172Y-135147785D01*
X108484709Y-135118785D01*
X108457092Y-135087637D01*
X108448321Y-135078363D01*
X108424629Y-135053310D01*
X108424605Y-135053285D01*
X108424584Y-135053263D01*
X108424538Y-135053216D01*
X108394609Y-135022857D01*
X108391241Y-135014559D01*
X108394668Y-135006370D01*
X108590370Y-134810668D01*
X108598643Y-134807241D01*
X108606857Y-134810609D01*
G37*
%TD.AperFunction*%
%TD*%
%TA.AperFunction,Conductor*%
%TO.N,/W*%
G36*
X107685257Y-137192425D02*
G01*
X107715246Y-137206524D01*
X107715340Y-137206564D01*
X107715350Y-137206569D01*
X107749147Y-137221115D01*
X107749156Y-137221119D01*
X107749287Y-137221175D01*
X107761742Y-137225840D01*
X107781206Y-137233130D01*
X107781214Y-137233133D01*
X107781375Y-137233193D01*
X107781550Y-137233247D01*
X107781557Y-137233249D01*
X107812589Y-137242760D01*
X107812595Y-137242762D01*
X107812792Y-137242822D01*
X107812996Y-137242870D01*
X107813001Y-137242871D01*
X107821716Y-137244906D01*
X107844821Y-137250303D01*
X107873027Y-137254941D01*
X107878566Y-137255852D01*
X107878570Y-137255852D01*
X107878743Y-137255881D01*
X107878912Y-137255899D01*
X107878928Y-137255901D01*
X107899228Y-137258043D01*
X107915840Y-137259797D01*
X107930470Y-137260676D01*
X107957321Y-137262289D01*
X107957338Y-137262290D01*
X107957394Y-137262293D01*
X107982683Y-137262999D01*
X108004601Y-137263611D01*
X108004686Y-137263613D01*
X108004757Y-137263614D01*
X108004779Y-137263614D01*
X108030285Y-137263795D01*
X108047384Y-137263917D01*
X108055632Y-137267403D01*
X108059000Y-137275617D01*
X108059000Y-137552383D01*
X108055573Y-137560656D01*
X108047384Y-137564083D01*
X108023320Y-137564254D01*
X108004779Y-137564385D01*
X108004757Y-137564385D01*
X108004686Y-137564386D01*
X108004601Y-137564388D01*
X107982683Y-137565000D01*
X107957394Y-137565706D01*
X107957338Y-137565709D01*
X107957321Y-137565710D01*
X107930470Y-137567323D01*
X107915840Y-137568202D01*
X107899228Y-137569956D01*
X107878928Y-137572098D01*
X107878912Y-137572100D01*
X107878743Y-137572118D01*
X107878570Y-137572147D01*
X107878566Y-137572147D01*
X107873027Y-137573058D01*
X107844821Y-137577696D01*
X107821716Y-137583093D01*
X107813001Y-137585128D01*
X107812996Y-137585129D01*
X107812792Y-137585177D01*
X107812595Y-137585237D01*
X107812589Y-137585239D01*
X107781557Y-137594750D01*
X107781550Y-137594752D01*
X107781375Y-137594806D01*
X107781214Y-137594866D01*
X107781206Y-137594869D01*
X107761742Y-137602159D01*
X107749287Y-137606824D01*
X107749156Y-137606880D01*
X107749147Y-137606884D01*
X107715350Y-137621430D01*
X107715338Y-137621436D01*
X107715246Y-137621475D01*
X107715159Y-137621516D01*
X107715141Y-137621524D01*
X107685257Y-137635575D01*
X107676312Y-137635994D01*
X107672169Y-137633420D01*
X107644513Y-137606824D01*
X107452769Y-137422433D01*
X107449181Y-137414229D01*
X107452769Y-137405567D01*
X107587901Y-137275617D01*
X107672170Y-137194580D01*
X107680508Y-137191315D01*
X107685257Y-137192425D01*
G37*
%TD.AperFunction*%
%TD*%
%TA.AperFunction,Conductor*%
%TO.N,/PWM3L*%
G36*
X115593830Y-127796579D02*
G01*
X115666019Y-127866000D01*
X115813231Y-128007567D01*
X115816819Y-128015771D01*
X115813231Y-128024433D01*
X115621488Y-128208824D01*
X115593831Y-128235420D01*
X115585492Y-128238685D01*
X115580743Y-128237575D01*
X115550858Y-128223524D01*
X115550840Y-128223516D01*
X115550753Y-128223475D01*
X115550661Y-128223436D01*
X115550649Y-128223430D01*
X115516852Y-128208884D01*
X115516843Y-128208880D01*
X115516712Y-128208824D01*
X115504257Y-128204159D01*
X115484793Y-128196869D01*
X115484785Y-128196866D01*
X115484624Y-128196806D01*
X115484449Y-128196752D01*
X115484442Y-128196750D01*
X115453410Y-128187239D01*
X115453404Y-128187237D01*
X115453207Y-128187177D01*
X115453003Y-128187129D01*
X115452998Y-128187128D01*
X115444283Y-128185093D01*
X115421178Y-128179696D01*
X115392972Y-128175058D01*
X115387433Y-128174147D01*
X115387429Y-128174147D01*
X115387256Y-128174118D01*
X115387087Y-128174100D01*
X115387071Y-128174098D01*
X115366771Y-128171956D01*
X115350159Y-128170202D01*
X115335529Y-128169323D01*
X115308678Y-128167710D01*
X115308661Y-128167709D01*
X115308605Y-128167706D01*
X115283316Y-128167000D01*
X115261398Y-128166388D01*
X115261313Y-128166386D01*
X115261242Y-128166385D01*
X115261220Y-128166385D01*
X115242643Y-128166253D01*
X115218616Y-128166083D01*
X115210368Y-128162597D01*
X115207000Y-128154383D01*
X115207000Y-127877617D01*
X115210427Y-127869344D01*
X115218616Y-127865917D01*
X115235646Y-127865796D01*
X115261220Y-127865614D01*
X115261242Y-127865614D01*
X115261313Y-127865613D01*
X115261398Y-127865611D01*
X115283316Y-127864999D01*
X115308605Y-127864293D01*
X115308661Y-127864290D01*
X115308678Y-127864289D01*
X115335529Y-127862676D01*
X115350159Y-127861797D01*
X115366771Y-127860043D01*
X115387071Y-127857901D01*
X115387087Y-127857899D01*
X115387256Y-127857881D01*
X115387429Y-127857852D01*
X115387433Y-127857852D01*
X115392972Y-127856941D01*
X115421178Y-127852303D01*
X115444283Y-127846906D01*
X115452998Y-127844871D01*
X115453003Y-127844870D01*
X115453207Y-127844822D01*
X115453404Y-127844762D01*
X115453410Y-127844760D01*
X115484442Y-127835249D01*
X115484449Y-127835247D01*
X115484624Y-127835193D01*
X115484785Y-127835133D01*
X115484793Y-127835130D01*
X115504257Y-127827840D01*
X115516712Y-127823175D01*
X115516843Y-127823119D01*
X115516852Y-127823115D01*
X115550649Y-127808569D01*
X115550659Y-127808564D01*
X115550753Y-127808524D01*
X115580743Y-127794425D01*
X115589688Y-127794006D01*
X115593830Y-127796579D01*
G37*
%TD.AperFunction*%
%TD*%
%TA.AperFunction,Conductor*%
%TO.N,/PWM3L*%
G36*
X107563629Y-128968667D02*
G01*
X107759332Y-129164370D01*
X107762759Y-129172643D01*
X107759391Y-129180857D01*
X107729461Y-129211216D01*
X107729415Y-129211263D01*
X107729394Y-129211285D01*
X107729370Y-129211310D01*
X107705678Y-129236363D01*
X107696907Y-129245637D01*
X107669290Y-129276785D01*
X107645827Y-129305785D01*
X107645722Y-129305932D01*
X107625895Y-129333561D01*
X107625888Y-129333571D01*
X107625785Y-129333715D01*
X107608428Y-129361653D01*
X107593021Y-129390677D01*
X107578829Y-129421864D01*
X107565119Y-129456293D01*
X107565091Y-129456370D01*
X107565084Y-129456389D01*
X107553883Y-129487469D01*
X107547854Y-129494090D01*
X107543105Y-129495200D01*
X107238777Y-129501150D01*
X107230438Y-129497885D01*
X107226850Y-129489223D01*
X107232800Y-129184894D01*
X107236388Y-129176690D01*
X107240531Y-129174116D01*
X107271610Y-129162915D01*
X107271629Y-129162908D01*
X107271706Y-129162880D01*
X107306135Y-129149170D01*
X107306271Y-129149108D01*
X107306283Y-129149103D01*
X107323839Y-129141113D01*
X107337322Y-129134978D01*
X107337470Y-129134899D01*
X107337477Y-129134896D01*
X107366167Y-129119666D01*
X107366346Y-129119571D01*
X107366515Y-129119466D01*
X107366522Y-129119462D01*
X107394119Y-129102317D01*
X107394130Y-129102310D01*
X107394284Y-129102214D01*
X107394428Y-129102111D01*
X107394438Y-129102104D01*
X107408574Y-129091960D01*
X107422214Y-129082172D01*
X107422344Y-129082067D01*
X107422353Y-129082060D01*
X107451111Y-129058792D01*
X107451214Y-129058709D01*
X107482362Y-129031092D01*
X107491636Y-129022321D01*
X107516689Y-128998629D01*
X107516714Y-128998605D01*
X107516736Y-128998584D01*
X107547143Y-128968607D01*
X107555439Y-128965240D01*
X107563629Y-128968667D01*
G37*
%TD.AperFunction*%
%TD*%
%TA.AperFunction,Conductor*%
%TO.N,/V*%
G36*
X101843257Y-137827425D02*
G01*
X101873246Y-137841524D01*
X101873340Y-137841564D01*
X101873350Y-137841569D01*
X101907147Y-137856115D01*
X101907156Y-137856119D01*
X101907287Y-137856175D01*
X101919742Y-137860840D01*
X101939206Y-137868130D01*
X101939214Y-137868133D01*
X101939375Y-137868193D01*
X101939550Y-137868247D01*
X101939557Y-137868249D01*
X101970589Y-137877760D01*
X101970595Y-137877762D01*
X101970792Y-137877822D01*
X101970996Y-137877870D01*
X101971001Y-137877871D01*
X101979716Y-137879906D01*
X102002821Y-137885303D01*
X102031027Y-137889941D01*
X102036566Y-137890852D01*
X102036570Y-137890852D01*
X102036743Y-137890881D01*
X102036912Y-137890899D01*
X102036928Y-137890901D01*
X102057228Y-137893043D01*
X102073840Y-137894797D01*
X102088470Y-137895676D01*
X102115321Y-137897289D01*
X102115338Y-137897290D01*
X102115394Y-137897293D01*
X102140683Y-137897999D01*
X102162601Y-137898611D01*
X102162686Y-137898613D01*
X102162757Y-137898614D01*
X102162779Y-137898614D01*
X102188285Y-137898795D01*
X102205384Y-137898917D01*
X102213632Y-137902403D01*
X102217000Y-137910617D01*
X102217000Y-138187383D01*
X102213573Y-138195656D01*
X102205384Y-138199083D01*
X102181320Y-138199254D01*
X102162779Y-138199385D01*
X102162757Y-138199385D01*
X102162686Y-138199386D01*
X102162601Y-138199388D01*
X102140683Y-138200000D01*
X102115394Y-138200706D01*
X102115338Y-138200709D01*
X102115321Y-138200710D01*
X102088470Y-138202323D01*
X102073840Y-138203202D01*
X102057228Y-138204956D01*
X102036928Y-138207098D01*
X102036912Y-138207100D01*
X102036743Y-138207118D01*
X102036570Y-138207147D01*
X102036566Y-138207147D01*
X102031027Y-138208058D01*
X102002821Y-138212696D01*
X101979716Y-138218093D01*
X101971001Y-138220128D01*
X101970996Y-138220129D01*
X101970792Y-138220177D01*
X101970595Y-138220237D01*
X101970589Y-138220239D01*
X101939557Y-138229750D01*
X101939550Y-138229752D01*
X101939375Y-138229806D01*
X101939214Y-138229866D01*
X101939206Y-138229869D01*
X101919742Y-138237159D01*
X101907287Y-138241824D01*
X101907156Y-138241880D01*
X101907147Y-138241884D01*
X101873350Y-138256430D01*
X101873338Y-138256436D01*
X101873246Y-138256475D01*
X101873159Y-138256516D01*
X101873141Y-138256524D01*
X101843257Y-138270575D01*
X101834312Y-138270994D01*
X101830169Y-138268420D01*
X101802513Y-138241824D01*
X101610769Y-138057433D01*
X101607181Y-138049229D01*
X101610769Y-138040567D01*
X101745901Y-137910617D01*
X101830170Y-137829580D01*
X101838508Y-137826315D01*
X101843257Y-137827425D01*
G37*
%TD.AperFunction*%
%TD*%
%TA.AperFunction,Conductor*%
%TO.N,/U*%
G36*
X98399106Y-138220800D02*
G01*
X98407310Y-138224388D01*
X98409883Y-138228530D01*
X98421119Y-138259706D01*
X98434829Y-138294135D01*
X98449021Y-138325322D01*
X98464428Y-138354346D01*
X98481785Y-138382284D01*
X98481888Y-138382428D01*
X98481895Y-138382438D01*
X98492039Y-138396574D01*
X98501827Y-138410214D01*
X98525290Y-138439214D01*
X98552907Y-138470362D01*
X98552963Y-138470421D01*
X98585370Y-138504689D01*
X98585461Y-138504783D01*
X98615391Y-138535143D01*
X98618759Y-138543441D01*
X98615332Y-138551630D01*
X98419630Y-138747332D01*
X98411357Y-138750759D01*
X98403143Y-138747391D01*
X98372783Y-138717461D01*
X98372764Y-138717443D01*
X98372736Y-138717415D01*
X98372714Y-138717394D01*
X98372689Y-138717370D01*
X98338421Y-138684963D01*
X98338362Y-138684907D01*
X98307214Y-138657290D01*
X98295021Y-138647425D01*
X98278353Y-138633939D01*
X98278344Y-138633932D01*
X98278214Y-138633827D01*
X98264574Y-138624039D01*
X98250438Y-138613895D01*
X98250428Y-138613888D01*
X98250284Y-138613785D01*
X98250130Y-138613689D01*
X98250119Y-138613682D01*
X98222522Y-138596537D01*
X98222515Y-138596533D01*
X98222346Y-138596428D01*
X98220275Y-138595329D01*
X98193477Y-138581103D01*
X98193470Y-138581100D01*
X98193322Y-138581021D01*
X98179839Y-138574886D01*
X98162283Y-138566896D01*
X98162271Y-138566891D01*
X98162135Y-138566829D01*
X98127706Y-138553119D01*
X98096530Y-138541883D01*
X98089910Y-138535855D01*
X98088800Y-138531106D01*
X98082850Y-138226777D01*
X98086115Y-138218438D01*
X98094777Y-138214850D01*
X98399106Y-138220800D01*
G37*
%TD.AperFunction*%
%TD*%
%TA.AperFunction,Conductor*%
%TO.N,Net-(Q15-PadG)*%
G36*
X118861257Y-142145425D02*
G01*
X118891246Y-142159524D01*
X118891340Y-142159564D01*
X118891350Y-142159569D01*
X118925147Y-142174115D01*
X118925156Y-142174119D01*
X118925287Y-142174175D01*
X118937742Y-142178840D01*
X118957206Y-142186130D01*
X118957214Y-142186133D01*
X118957375Y-142186193D01*
X118957550Y-142186247D01*
X118957557Y-142186249D01*
X118988589Y-142195760D01*
X118988595Y-142195762D01*
X118988792Y-142195822D01*
X118988996Y-142195870D01*
X118989001Y-142195871D01*
X118997716Y-142197906D01*
X119020821Y-142203303D01*
X119049027Y-142207941D01*
X119054566Y-142208852D01*
X119054570Y-142208852D01*
X119054743Y-142208881D01*
X119054912Y-142208899D01*
X119054928Y-142208901D01*
X119075228Y-142211043D01*
X119091840Y-142212797D01*
X119106470Y-142213676D01*
X119133321Y-142215289D01*
X119133338Y-142215290D01*
X119133394Y-142215293D01*
X119158683Y-142215999D01*
X119180601Y-142216611D01*
X119180686Y-142216613D01*
X119180757Y-142216614D01*
X119180779Y-142216614D01*
X119206285Y-142216795D01*
X119223384Y-142216917D01*
X119231632Y-142220403D01*
X119235000Y-142228617D01*
X119235000Y-142505383D01*
X119231573Y-142513656D01*
X119223384Y-142517083D01*
X119199320Y-142517254D01*
X119180779Y-142517385D01*
X119180757Y-142517385D01*
X119180686Y-142517386D01*
X119180601Y-142517388D01*
X119158683Y-142518000D01*
X119133394Y-142518706D01*
X119133338Y-142518709D01*
X119133321Y-142518710D01*
X119106470Y-142520323D01*
X119091840Y-142521202D01*
X119075228Y-142522956D01*
X119054928Y-142525098D01*
X119054912Y-142525100D01*
X119054743Y-142525118D01*
X119054570Y-142525147D01*
X119054566Y-142525147D01*
X119049027Y-142526058D01*
X119020821Y-142530696D01*
X118997716Y-142536093D01*
X118989001Y-142538128D01*
X118988996Y-142538129D01*
X118988792Y-142538177D01*
X118988595Y-142538237D01*
X118988589Y-142538239D01*
X118957557Y-142547750D01*
X118957550Y-142547752D01*
X118957375Y-142547806D01*
X118957214Y-142547866D01*
X118957206Y-142547869D01*
X118937742Y-142555159D01*
X118925287Y-142559824D01*
X118925156Y-142559880D01*
X118925147Y-142559884D01*
X118891350Y-142574430D01*
X118891338Y-142574436D01*
X118891246Y-142574475D01*
X118891159Y-142574516D01*
X118891141Y-142574524D01*
X118861257Y-142588575D01*
X118852312Y-142588994D01*
X118848169Y-142586420D01*
X118820513Y-142559824D01*
X118628769Y-142375433D01*
X118625181Y-142367229D01*
X118628769Y-142358567D01*
X118763901Y-142228617D01*
X118848170Y-142147580D01*
X118856508Y-142144315D01*
X118861257Y-142145425D01*
G37*
%TD.AperFunction*%
%TD*%
%TA.AperFunction,Conductor*%
%TO.N,Net-(Q15-PadG)*%
G36*
X124049865Y-141909861D02*
G01*
X124053899Y-141913497D01*
X124259028Y-142211413D01*
X124484003Y-142538152D01*
X124485872Y-142546909D01*
X124480620Y-142554676D01*
X123839590Y-142960065D01*
X123830767Y-142961590D01*
X123825943Y-142959243D01*
X123743644Y-142892099D01*
X123743185Y-142891705D01*
X123667514Y-142823097D01*
X123667295Y-142822893D01*
X123600109Y-142758770D01*
X123537145Y-142700128D01*
X123474151Y-142647992D01*
X123406764Y-142603280D01*
X123330620Y-142566907D01*
X123241353Y-142539792D01*
X123134601Y-142522850D01*
X123134289Y-142522836D01*
X123134281Y-142522835D01*
X123017168Y-142517508D01*
X123009059Y-142513709D01*
X123006000Y-142505820D01*
X123006000Y-142228272D01*
X123009427Y-142219999D01*
X123017263Y-142216580D01*
X123155097Y-142211445D01*
X123279562Y-142195870D01*
X123384900Y-142171908D01*
X123476615Y-142141191D01*
X123476832Y-142141098D01*
X123560103Y-142105401D01*
X123560112Y-142105397D01*
X123560212Y-142105354D01*
X123641196Y-142066029D01*
X123641213Y-142066021D01*
X123641213Y-142066022D01*
X123724887Y-142024941D01*
X123725239Y-142024775D01*
X123817023Y-141983593D01*
X123817688Y-141983319D01*
X123923113Y-141943612D01*
X123923935Y-141943337D01*
X123999843Y-141921006D01*
X124040962Y-141908909D01*
X124049865Y-141909861D01*
G37*
%TD.AperFunction*%
%TD*%
%TA.AperFunction,Conductor*%
%TO.N,Net-(Q14-PadG)*%
G36*
X124102830Y-141004579D02*
G01*
X124175019Y-141074000D01*
X124322231Y-141215567D01*
X124325819Y-141223771D01*
X124322231Y-141232433D01*
X124130488Y-141416824D01*
X124102831Y-141443420D01*
X124094492Y-141446685D01*
X124089743Y-141445575D01*
X124059858Y-141431524D01*
X124059840Y-141431516D01*
X124059753Y-141431475D01*
X124059661Y-141431436D01*
X124059649Y-141431430D01*
X124025852Y-141416884D01*
X124025843Y-141416880D01*
X124025712Y-141416824D01*
X124013257Y-141412159D01*
X123993793Y-141404869D01*
X123993785Y-141404866D01*
X123993624Y-141404806D01*
X123993449Y-141404752D01*
X123993442Y-141404750D01*
X123962410Y-141395239D01*
X123962404Y-141395237D01*
X123962207Y-141395177D01*
X123962003Y-141395129D01*
X123961998Y-141395128D01*
X123953283Y-141393093D01*
X123930178Y-141387696D01*
X123901972Y-141383058D01*
X123896433Y-141382147D01*
X123896429Y-141382147D01*
X123896256Y-141382118D01*
X123896087Y-141382100D01*
X123896071Y-141382098D01*
X123875771Y-141379956D01*
X123859159Y-141378202D01*
X123844529Y-141377323D01*
X123817678Y-141375710D01*
X123817661Y-141375709D01*
X123817605Y-141375706D01*
X123792316Y-141375000D01*
X123770398Y-141374388D01*
X123770313Y-141374386D01*
X123770242Y-141374385D01*
X123770220Y-141374385D01*
X123751643Y-141374253D01*
X123727616Y-141374083D01*
X123719368Y-141370597D01*
X123716000Y-141362383D01*
X123716000Y-141085617D01*
X123719427Y-141077344D01*
X123727616Y-141073917D01*
X123744646Y-141073796D01*
X123770220Y-141073614D01*
X123770242Y-141073614D01*
X123770313Y-141073613D01*
X123770398Y-141073611D01*
X123792316Y-141072999D01*
X123817605Y-141072293D01*
X123817661Y-141072290D01*
X123817678Y-141072289D01*
X123844529Y-141070676D01*
X123859159Y-141069797D01*
X123875771Y-141068043D01*
X123896071Y-141065901D01*
X123896087Y-141065899D01*
X123896256Y-141065881D01*
X123896429Y-141065852D01*
X123896433Y-141065852D01*
X123901972Y-141064941D01*
X123930178Y-141060303D01*
X123953283Y-141054906D01*
X123961998Y-141052871D01*
X123962003Y-141052870D01*
X123962207Y-141052822D01*
X123962404Y-141052762D01*
X123962410Y-141052760D01*
X123993442Y-141043249D01*
X123993449Y-141043247D01*
X123993624Y-141043193D01*
X123993785Y-141043133D01*
X123993793Y-141043130D01*
X124013257Y-141035840D01*
X124025712Y-141031175D01*
X124025843Y-141031119D01*
X124025852Y-141031115D01*
X124059649Y-141016569D01*
X124059659Y-141016564D01*
X124059753Y-141016524D01*
X124089743Y-141002425D01*
X124098688Y-141002006D01*
X124102830Y-141004579D01*
G37*
%TD.AperFunction*%
%TD*%
%TA.AperFunction,Conductor*%
%TO.N,Net-(Q14-PadG)*%
G36*
X118848353Y-141077586D02*
G01*
X118852127Y-141086192D01*
X118852127Y-141362755D01*
X118848700Y-141371028D01*
X118840891Y-141374446D01*
X118830320Y-141374865D01*
X118821031Y-141375233D01*
X118821025Y-141375234D01*
X118820761Y-141375244D01*
X118820498Y-141375279D01*
X118820487Y-141375280D01*
X118793238Y-141378912D01*
X118793236Y-141378912D01*
X118792901Y-141378957D01*
X118784731Y-141381000D01*
X118768671Y-141385015D01*
X118768664Y-141385017D01*
X118768297Y-141385109D01*
X118767937Y-141385252D01*
X118767933Y-141385253D01*
X118747109Y-141393509D01*
X118747102Y-141393513D01*
X118746697Y-141393673D01*
X118727852Y-141404617D01*
X118711509Y-141417915D01*
X118697419Y-141433535D01*
X118685330Y-141451449D01*
X118674992Y-141471628D01*
X118674888Y-141471893D01*
X118669014Y-141486789D01*
X118662792Y-141493228D01*
X118658359Y-141494195D01*
X118449043Y-141498288D01*
X118357068Y-141500086D01*
X118348729Y-141496821D01*
X118345141Y-141488617D01*
X118345519Y-141485431D01*
X118427842Y-141170262D01*
X118433248Y-141163124D01*
X118438525Y-141161536D01*
X118475291Y-141159536D01*
X118485360Y-141157853D01*
X118515012Y-141152896D01*
X118515022Y-141152894D01*
X118515296Y-141152848D01*
X118515569Y-141152774D01*
X118515579Y-141152772D01*
X118551548Y-141143044D01*
X118551550Y-141143043D01*
X118551740Y-141142992D01*
X118560087Y-141140106D01*
X118586279Y-141131049D01*
X118586299Y-141131042D01*
X118586350Y-141131024D01*
X118620797Y-141118020D01*
X118620916Y-141117976D01*
X118656687Y-141105077D01*
X118657258Y-141104888D01*
X118695990Y-141093140D01*
X118696858Y-141092912D01*
X118740457Y-141083263D01*
X118741473Y-141083085D01*
X118791771Y-141076531D01*
X118792802Y-141076443D01*
X118839946Y-141074502D01*
X118848353Y-141077586D01*
G37*
%TD.AperFunction*%
%TD*%
%TA.AperFunction,Conductor*%
%TO.N,/CMP-*%
G36*
X105920134Y-136387674D02*
G01*
X106186231Y-136643567D01*
X106189819Y-136651771D01*
X106186231Y-136660433D01*
X105920134Y-136916326D01*
X105911795Y-136919591D01*
X105906882Y-136918403D01*
X105866260Y-136898529D01*
X105823684Y-136877761D01*
X105823606Y-136877724D01*
X105784624Y-136859623D01*
X105784538Y-136859583D01*
X105747115Y-136844008D01*
X105709536Y-136830965D01*
X105709344Y-136830914D01*
X105709335Y-136830911D01*
X105670180Y-136820463D01*
X105669963Y-136820405D01*
X105626560Y-136812278D01*
X105577489Y-136806535D01*
X105546726Y-136804681D01*
X105521052Y-136803133D01*
X105521040Y-136803133D01*
X105520915Y-136803125D01*
X105520786Y-136803123D01*
X105520765Y-136803122D01*
X105466500Y-136802196D01*
X105458287Y-136798629D01*
X105455000Y-136790498D01*
X105455000Y-136513502D01*
X105458427Y-136505229D01*
X105466500Y-136501804D01*
X105520765Y-136500877D01*
X105520786Y-136500876D01*
X105520915Y-136500874D01*
X105521040Y-136500866D01*
X105521052Y-136500866D01*
X105546726Y-136499318D01*
X105577489Y-136497464D01*
X105626560Y-136491721D01*
X105669963Y-136483594D01*
X105678216Y-136481392D01*
X105709335Y-136473088D01*
X105709344Y-136473085D01*
X105709536Y-136473034D01*
X105747115Y-136459991D01*
X105784538Y-136444416D01*
X105823640Y-136426259D01*
X105823650Y-136426254D01*
X105823684Y-136426238D01*
X105866260Y-136405470D01*
X105906882Y-136385597D01*
X105915820Y-136385040D01*
X105920134Y-136387674D01*
G37*
%TD.AperFunction*%
%TD*%
%TA.AperFunction,Conductor*%
%TO.N,/CMP-*%
G36*
X100281608Y-136493738D02*
G01*
X100337560Y-136494384D01*
X100388022Y-136495336D01*
X100401654Y-136495669D01*
X100435396Y-136496492D01*
X100435426Y-136496493D01*
X100482083Y-136497750D01*
X100530485Y-136499008D01*
X100583003Y-136500163D01*
X100642038Y-136501116D01*
X100709992Y-136501762D01*
X100770180Y-136501943D01*
X100777602Y-136501965D01*
X100785865Y-136505417D01*
X100789267Y-136513665D01*
X100789267Y-136790642D01*
X100785840Y-136798915D01*
X100777915Y-136802337D01*
X100737411Y-136803541D01*
X100737398Y-136803542D01*
X100737192Y-136803548D01*
X100728548Y-136804449D01*
X100692234Y-136808234D01*
X100692228Y-136808235D01*
X100691949Y-136808264D01*
X100691678Y-136808319D01*
X100691671Y-136808320D01*
X100652894Y-136816183D01*
X100652559Y-136816251D01*
X100618043Y-136827613D01*
X100617689Y-136827785D01*
X100617683Y-136827787D01*
X100590187Y-136841115D01*
X100587423Y-136842455D01*
X100587094Y-136842674D01*
X100560027Y-136860675D01*
X100560022Y-136860679D01*
X100559721Y-136860879D01*
X100533958Y-136882992D01*
X100509154Y-136908896D01*
X100484333Y-136938695D01*
X100484275Y-136938771D01*
X100463395Y-136966107D01*
X100455650Y-136970602D01*
X100450803Y-136970232D01*
X100436745Y-136966107D01*
X100084749Y-136862826D01*
X100217767Y-136493500D01*
X100281608Y-136493738D01*
G37*
%TD.AperFunction*%
%TD*%
%TA.AperFunction,Conductor*%
%TO.N,/CMP-*%
G36*
X98182118Y-136512597D02*
G01*
X98222739Y-136532470D01*
X98265315Y-136553238D01*
X98265349Y-136553254D01*
X98265359Y-136553259D01*
X98304461Y-136571416D01*
X98341884Y-136586991D01*
X98379463Y-136600034D01*
X98379655Y-136600085D01*
X98379664Y-136600088D01*
X98410783Y-136608392D01*
X98419036Y-136610594D01*
X98462439Y-136618721D01*
X98511510Y-136624464D01*
X98542273Y-136626318D01*
X98567947Y-136627866D01*
X98567959Y-136627866D01*
X98568084Y-136627874D01*
X98568213Y-136627876D01*
X98568234Y-136627877D01*
X98622500Y-136628804D01*
X98630713Y-136632371D01*
X98634000Y-136640502D01*
X98634000Y-136917498D01*
X98630573Y-136925771D01*
X98622500Y-136929196D01*
X98568234Y-136930122D01*
X98568213Y-136930123D01*
X98568084Y-136930125D01*
X98567959Y-136930133D01*
X98567947Y-136930133D01*
X98542273Y-136931681D01*
X98511510Y-136933535D01*
X98462439Y-136939278D01*
X98419036Y-136947405D01*
X98418819Y-136947463D01*
X98379664Y-136957911D01*
X98379655Y-136957914D01*
X98379463Y-136957965D01*
X98341884Y-136971008D01*
X98304461Y-136986583D01*
X98304375Y-136986623D01*
X98265393Y-137004724D01*
X98265315Y-137004761D01*
X98222739Y-137025529D01*
X98182118Y-137045403D01*
X98173180Y-137045960D01*
X98168866Y-137043326D01*
X97902769Y-136787433D01*
X97899181Y-136779229D01*
X97902769Y-136770567D01*
X98168866Y-136514674D01*
X98177205Y-136511409D01*
X98182118Y-136512597D01*
G37*
%TD.AperFunction*%
%TD*%
%TA.AperFunction,Conductor*%
%TO.N,/CMP-*%
G36*
X100367597Y-136800634D02*
G01*
X100171158Y-136972324D01*
X100080451Y-137051603D01*
X100071966Y-137054468D01*
X100067144Y-137053063D01*
X100027011Y-137031150D01*
X99984836Y-137008550D01*
X99984805Y-137008534D01*
X99984779Y-137008520D01*
X99984753Y-137008507D01*
X99984728Y-137008494D01*
X99945929Y-136989029D01*
X99945811Y-136988970D01*
X99932589Y-136983125D01*
X99908479Y-136972465D01*
X99908468Y-136972460D01*
X99908306Y-136972389D01*
X99870467Y-136958666D01*
X99870234Y-136958602D01*
X99830720Y-136947750D01*
X99830712Y-136947748D01*
X99830493Y-136947688D01*
X99830264Y-136947645D01*
X99830262Y-136947644D01*
X99817375Y-136945195D01*
X99786585Y-136939344D01*
X99786368Y-136939319D01*
X99786358Y-136939317D01*
X99737108Y-136933542D01*
X99737104Y-136933542D01*
X99736945Y-136933523D01*
X99736794Y-136933514D01*
X99736783Y-136933513D01*
X99679926Y-136930121D01*
X99679914Y-136930121D01*
X99679771Y-136930112D01*
X99679628Y-136930110D01*
X99679612Y-136930109D01*
X99624771Y-136929192D01*
X99616557Y-136925628D01*
X99613267Y-136917494D01*
X99613267Y-136640532D01*
X99616694Y-136632259D01*
X99624798Y-136628833D01*
X99682602Y-136627997D01*
X99682698Y-136627992D01*
X99682700Y-136627992D01*
X99741991Y-136624947D01*
X99742004Y-136624946D01*
X99742120Y-136624940D01*
X99793780Y-136619753D01*
X99839542Y-136612364D01*
X99839724Y-136612322D01*
X99839739Y-136612319D01*
X99868897Y-136605578D01*
X99881366Y-136602696D01*
X99881536Y-136602645D01*
X99881550Y-136602641D01*
X99906343Y-136595161D01*
X99921211Y-136590676D01*
X99961036Y-136576229D01*
X99988967Y-136564896D01*
X99988967Y-136564895D01*
X100002801Y-136559282D01*
X100048466Y-136539759D01*
X100099991Y-136517586D01*
X100367597Y-136800634D01*
G37*
%TD.AperFunction*%
%TD*%
%TA.AperFunction,Conductor*%
%TO.N,VDD*%
G36*
X117163121Y-142260002D02*
G01*
X117209614Y-142313658D01*
X117221000Y-142366000D01*
X117221000Y-143891000D01*
X95631000Y-143891000D01*
X95631000Y-142240000D01*
X117095000Y-142240000D01*
X117163121Y-142260002D01*
G37*
%TD.AperFunction*%
%TD*%
%TA.AperFunction,Conductor*%
%TO.N,VDD*%
G36*
X97097121Y-139389802D02*
G01*
X97143614Y-139443458D01*
X97155000Y-139495800D01*
X97155000Y-142875000D01*
X95631000Y-142875000D01*
X95631000Y-139495800D01*
X95651002Y-139427679D01*
X95704658Y-139381186D01*
X95757000Y-139369800D01*
X97029000Y-139369800D01*
X97097121Y-139389802D01*
G37*
%TD.AperFunction*%
%TD*%
%TA.AperFunction,Conductor*%
%TO.N,/U*%
G36*
X133972319Y-137305907D02*
G01*
X133995223Y-137329214D01*
X134019093Y-137363304D01*
X134136696Y-137480907D01*
X134272935Y-137576302D01*
X134423668Y-137646590D01*
X134430774Y-137648494D01*
X134580140Y-137688517D01*
X134580143Y-137688517D01*
X134584317Y-137689636D01*
X134731345Y-137702499D01*
X134741728Y-137704148D01*
X134743820Y-137704389D01*
X134749282Y-137705655D01*
X134750000Y-137705656D01*
X134755452Y-137704412D01*
X134755455Y-137704412D01*
X134761734Y-137702980D01*
X134783752Y-137700500D01*
X136965983Y-137700500D01*
X136988169Y-137703018D01*
X136999641Y-137705656D01*
X137010516Y-137703195D01*
X137021663Y-137703215D01*
X137021661Y-137704219D01*
X137031562Y-137703609D01*
X137117698Y-137712092D01*
X137146272Y-137714906D01*
X137165301Y-137718691D01*
X137296626Y-137758528D01*
X137314555Y-137765955D01*
X137435577Y-137830643D01*
X137451713Y-137841424D01*
X137557798Y-137928485D01*
X137571515Y-137942202D01*
X137639113Y-138024571D01*
X137658576Y-138048287D01*
X137669357Y-138064423D01*
X137734045Y-138185445D01*
X137741472Y-138203373D01*
X137781309Y-138334699D01*
X137785094Y-138353730D01*
X137796384Y-138468363D01*
X137796861Y-138478239D01*
X137796843Y-138488774D01*
X137794344Y-138499641D01*
X137797059Y-138511638D01*
X137799500Y-138533488D01*
X137799500Y-141965983D01*
X137796982Y-141988169D01*
X137794344Y-141999641D01*
X137796805Y-142010516D01*
X137796785Y-142021663D01*
X137795781Y-142021661D01*
X137796391Y-142031562D01*
X137785094Y-142146270D01*
X137781309Y-142165301D01*
X137774308Y-142188380D01*
X137741472Y-142296626D01*
X137734045Y-142314555D01*
X137669357Y-142435577D01*
X137658576Y-142451713D01*
X137571515Y-142557798D01*
X137557798Y-142571515D01*
X137475429Y-142639113D01*
X137451713Y-142658576D01*
X137435577Y-142669357D01*
X137314555Y-142734045D01*
X137296627Y-142741472D01*
X137165301Y-142781309D01*
X137146272Y-142785094D01*
X137033718Y-142796179D01*
X137031637Y-142796384D01*
X137021761Y-142796861D01*
X137011226Y-142796843D01*
X137000359Y-142794344D01*
X136988359Y-142797059D01*
X136966512Y-142799500D01*
X135034281Y-142799500D01*
X135011926Y-142796943D01*
X135009514Y-142796384D01*
X135000718Y-142794345D01*
X135000000Y-142794344D01*
X134994542Y-142795589D01*
X134989272Y-142796179D01*
X134983130Y-142797116D01*
X134815490Y-142810309D01*
X134815485Y-142810310D01*
X134811620Y-142810614D01*
X134727921Y-142830708D01*
X134631655Y-142853819D01*
X134631652Y-142853820D01*
X134627878Y-142854726D01*
X134624288Y-142856213D01*
X134456890Y-142925551D01*
X134456884Y-142925554D01*
X134453299Y-142927039D01*
X134449988Y-142929068D01*
X134449984Y-142929070D01*
X134388437Y-142966787D01*
X134292182Y-143025772D01*
X134289223Y-143028299D01*
X134289222Y-143028300D01*
X134199090Y-143105280D01*
X134142562Y-143128695D01*
X134134795Y-143129000D01*
X127353000Y-143129000D01*
X127294809Y-143110093D01*
X127258845Y-143060593D01*
X127254000Y-143030000D01*
X127254000Y-137386000D01*
X127272907Y-137327809D01*
X127322407Y-137291845D01*
X127353000Y-137287000D01*
X133914128Y-137287000D01*
X133972319Y-137305907D01*
G37*
%TD.AperFunction*%
%TD*%
%TA.AperFunction,Conductor*%
%TO.N,/V*%
G36*
X133980022Y-130066907D02*
G01*
X134002926Y-130090214D01*
X134019093Y-130113304D01*
X134136696Y-130230907D01*
X134272935Y-130326302D01*
X134423668Y-130396590D01*
X134430774Y-130398494D01*
X134580140Y-130438517D01*
X134580143Y-130438517D01*
X134584317Y-130439636D01*
X134731345Y-130452499D01*
X134741728Y-130454148D01*
X134743820Y-130454389D01*
X134749282Y-130455655D01*
X134750000Y-130455656D01*
X134755452Y-130454412D01*
X134755455Y-130454412D01*
X134761734Y-130452980D01*
X134783752Y-130450500D01*
X136965983Y-130450500D01*
X136988169Y-130453018D01*
X136999641Y-130455656D01*
X137010516Y-130453195D01*
X137021663Y-130453215D01*
X137021661Y-130454219D01*
X137031562Y-130453609D01*
X137117698Y-130462092D01*
X137146272Y-130464906D01*
X137165301Y-130468691D01*
X137296626Y-130508528D01*
X137314555Y-130515955D01*
X137435577Y-130580643D01*
X137451713Y-130591424D01*
X137557798Y-130678485D01*
X137571515Y-130692202D01*
X137639113Y-130774571D01*
X137658576Y-130798287D01*
X137669357Y-130814423D01*
X137734045Y-130935445D01*
X137741472Y-130953373D01*
X137781309Y-131084699D01*
X137785094Y-131103730D01*
X137796384Y-131218363D01*
X137796861Y-131228239D01*
X137796843Y-131238774D01*
X137794344Y-131249641D01*
X137797059Y-131261638D01*
X137799500Y-131283488D01*
X137799500Y-134715983D01*
X137796982Y-134738169D01*
X137794344Y-134749641D01*
X137796805Y-134760516D01*
X137796785Y-134771663D01*
X137795781Y-134771661D01*
X137796391Y-134781562D01*
X137785094Y-134896270D01*
X137781309Y-134915301D01*
X137774308Y-134938380D01*
X137741472Y-135046626D01*
X137734045Y-135064555D01*
X137669357Y-135185577D01*
X137658576Y-135201713D01*
X137571515Y-135307798D01*
X137557798Y-135321515D01*
X137475429Y-135389113D01*
X137451713Y-135408576D01*
X137435577Y-135419357D01*
X137314555Y-135484045D01*
X137296627Y-135491472D01*
X137165301Y-135531309D01*
X137146272Y-135535094D01*
X137037506Y-135545806D01*
X137031637Y-135546384D01*
X137021761Y-135546861D01*
X137011226Y-135546843D01*
X137000359Y-135544344D01*
X136988359Y-135547059D01*
X136966512Y-135549500D01*
X134784281Y-135549500D01*
X134761926Y-135546943D01*
X134759514Y-135546384D01*
X134750718Y-135544345D01*
X134750000Y-135544344D01*
X134744541Y-135545589D01*
X134742605Y-135545806D01*
X134732387Y-135547410D01*
X134708498Y-135549500D01*
X134584317Y-135560364D01*
X134580143Y-135561483D01*
X134580140Y-135561483D01*
X134489888Y-135585666D01*
X134423668Y-135603410D01*
X134272935Y-135673698D01*
X134136696Y-135769093D01*
X134044785Y-135861004D01*
X133990268Y-135888781D01*
X133974781Y-135890000D01*
X127353000Y-135890000D01*
X127294809Y-135871093D01*
X127258845Y-135821593D01*
X127254000Y-135791000D01*
X127254000Y-130147000D01*
X127272907Y-130088809D01*
X127322407Y-130052845D01*
X127353000Y-130048000D01*
X133921831Y-130048000D01*
X133980022Y-130066907D01*
G37*
%TD.AperFunction*%
%TD*%
%TA.AperFunction,Conductor*%
%TO.N,/W*%
G36*
X134124741Y-122827907D02*
G01*
X134141828Y-122843702D01*
X134145962Y-122848542D01*
X134148494Y-122851506D01*
X134151455Y-122854035D01*
X134236931Y-122927039D01*
X134292182Y-122974228D01*
X134295495Y-122976258D01*
X134449984Y-123070930D01*
X134449988Y-123070932D01*
X134453299Y-123072961D01*
X134456884Y-123074446D01*
X134456890Y-123074449D01*
X134624288Y-123143787D01*
X134627878Y-123145274D01*
X134631652Y-123146180D01*
X134631655Y-123146181D01*
X134641290Y-123148494D01*
X134811620Y-123189386D01*
X134815485Y-123189690D01*
X134815490Y-123189691D01*
X134982113Y-123202805D01*
X134988248Y-123203752D01*
X134988248Y-123203748D01*
X134993820Y-123204389D01*
X134999282Y-123205655D01*
X135000000Y-123205656D01*
X135005452Y-123204412D01*
X135005455Y-123204412D01*
X135011734Y-123202980D01*
X135033752Y-123200500D01*
X136965983Y-123200500D01*
X136988169Y-123203018D01*
X136999641Y-123205656D01*
X137010516Y-123203195D01*
X137021663Y-123203215D01*
X137021661Y-123204219D01*
X137031562Y-123203609D01*
X137117698Y-123212092D01*
X137146272Y-123214906D01*
X137165301Y-123218691D01*
X137296626Y-123258528D01*
X137314555Y-123265955D01*
X137435577Y-123330643D01*
X137451713Y-123341424D01*
X137557798Y-123428485D01*
X137571515Y-123442202D01*
X137639113Y-123524571D01*
X137658576Y-123548287D01*
X137669357Y-123564423D01*
X137734045Y-123685445D01*
X137741472Y-123703373D01*
X137781309Y-123834699D01*
X137785094Y-123853730D01*
X137796384Y-123968363D01*
X137796861Y-123978239D01*
X137796843Y-123988774D01*
X137794344Y-123999641D01*
X137797059Y-124011638D01*
X137799500Y-124033488D01*
X137799500Y-127465983D01*
X137796982Y-127488169D01*
X137794344Y-127499641D01*
X137796805Y-127510516D01*
X137796785Y-127521663D01*
X137795781Y-127521661D01*
X137796391Y-127531562D01*
X137785094Y-127646270D01*
X137781309Y-127665301D01*
X137774308Y-127688380D01*
X137741472Y-127796626D01*
X137734045Y-127814555D01*
X137669357Y-127935577D01*
X137658576Y-127951713D01*
X137571515Y-128057798D01*
X137557798Y-128071515D01*
X137475429Y-128139113D01*
X137451713Y-128158576D01*
X137435577Y-128169357D01*
X137314555Y-128234045D01*
X137296627Y-128241472D01*
X137165301Y-128281309D01*
X137146272Y-128285094D01*
X137037506Y-128295806D01*
X137031637Y-128296384D01*
X137021761Y-128296861D01*
X137011226Y-128296843D01*
X137000359Y-128294344D01*
X136988359Y-128297059D01*
X136966512Y-128299500D01*
X134784281Y-128299500D01*
X134761926Y-128296943D01*
X134759514Y-128296384D01*
X134750718Y-128294345D01*
X134750000Y-128294344D01*
X134744541Y-128295589D01*
X134742605Y-128295806D01*
X134732387Y-128297410D01*
X134708498Y-128299500D01*
X134584317Y-128310364D01*
X134580143Y-128311483D01*
X134580140Y-128311483D01*
X134489888Y-128335666D01*
X134423668Y-128353410D01*
X134272935Y-128423698D01*
X134136696Y-128519093D01*
X134033785Y-128622004D01*
X133979268Y-128649781D01*
X133963781Y-128651000D01*
X127353000Y-128651000D01*
X127294809Y-128632093D01*
X127258845Y-128582593D01*
X127254000Y-128552000D01*
X127254000Y-122908000D01*
X127272907Y-122849809D01*
X127322407Y-122813845D01*
X127353000Y-122809000D01*
X134066550Y-122809000D01*
X134124741Y-122827907D01*
G37*
%TD.AperFunction*%
%TD*%
%TA.AperFunction,Conductor*%
%TO.N,VDD*%
G36*
X122624121Y-143784002D02*
G01*
X122670614Y-143837658D01*
X122682000Y-143890000D01*
X122682000Y-145473500D01*
X122661998Y-145541621D01*
X122608342Y-145588114D01*
X122556000Y-145599500D01*
X89526500Y-145599500D01*
X89458379Y-145579498D01*
X89411886Y-145525842D01*
X89400500Y-145473500D01*
X89400500Y-143890000D01*
X89420502Y-143821879D01*
X89474158Y-143775386D01*
X89526500Y-143764000D01*
X122556000Y-143764000D01*
X122624121Y-143784002D01*
G37*
%TD.AperFunction*%
%TD*%
%TA.AperFunction,Conductor*%
%TO.N,GND*%
G36*
X125459191Y-119219407D02*
G01*
X125495155Y-119268907D01*
X125500000Y-119299500D01*
X125500000Y-127126709D01*
X125481093Y-127184900D01*
X125431593Y-127220864D01*
X125375285Y-127220864D01*
X125375231Y-127221133D01*
X125373879Y-127220864D01*
X125316748Y-127209500D01*
X123077252Y-127209500D01*
X123051005Y-127214721D01*
X123028334Y-127219230D01*
X123028332Y-127219231D01*
X123018769Y-127221133D01*
X122952448Y-127265448D01*
X122908133Y-127331769D01*
X122906231Y-127341332D01*
X122906230Y-127341334D01*
X122903706Y-127354024D01*
X122896500Y-127390252D01*
X122896500Y-127560500D01*
X122877593Y-127618691D01*
X122828093Y-127654655D01*
X122797500Y-127659500D01*
X121846948Y-127659500D01*
X121826112Y-127657282D01*
X121824550Y-127656946D01*
X121815739Y-127655049D01*
X121783929Y-127658814D01*
X121778037Y-127659161D01*
X121778037Y-127659164D01*
X121773970Y-127659500D01*
X121769885Y-127659500D01*
X121765859Y-127660170D01*
X121765848Y-127660171D01*
X121751881Y-127662496D01*
X121747269Y-127663153D01*
X121699861Y-127668764D01*
X121692878Y-127672117D01*
X121691544Y-127672539D01*
X121683897Y-127673812D01*
X121676696Y-127677698D01*
X121676695Y-127677698D01*
X121641861Y-127696494D01*
X121637703Y-127698612D01*
X121600288Y-127716578D01*
X121600287Y-127716579D01*
X121594674Y-127719274D01*
X121590726Y-127722592D01*
X121589216Y-127724102D01*
X121587929Y-127725282D01*
X121586903Y-127726148D01*
X121581206Y-127729222D01*
X121575655Y-127735227D01*
X121575650Y-127735231D01*
X121547191Y-127766018D01*
X121544497Y-127768821D01*
X120660814Y-128652504D01*
X120606297Y-128680281D01*
X120590810Y-128681500D01*
X119615452Y-128681500D01*
X119594484Y-128679254D01*
X119581010Y-128676334D01*
X119571682Y-128676175D01*
X119533171Y-128675516D01*
X119528910Y-128675351D01*
X119499831Y-128673599D01*
X119487424Y-128672851D01*
X119481891Y-128672361D01*
X119451701Y-128668828D01*
X119444995Y-128667808D01*
X119423193Y-128663726D01*
X119415890Y-128662071D01*
X119398233Y-128657360D01*
X119391298Y-128655235D01*
X119372939Y-128648862D01*
X119367371Y-128646739D01*
X119358788Y-128643167D01*
X119344064Y-128637039D01*
X119340465Y-128635455D01*
X119309494Y-128621074D01*
X119307837Y-128620285D01*
X119267831Y-128600771D01*
X119267728Y-128600720D01*
X119229848Y-128582188D01*
X119229834Y-128582182D01*
X119227426Y-128581004D01*
X119224897Y-128580092D01*
X119223518Y-128579508D01*
X119217330Y-128576967D01*
X119217013Y-128576820D01*
X119211095Y-128572985D01*
X119073739Y-128531907D01*
X118990497Y-128531398D01*
X118937427Y-128531074D01*
X118937426Y-128531074D01*
X118930376Y-128531031D01*
X118923599Y-128532968D01*
X118923598Y-128532968D01*
X118799309Y-128568490D01*
X118799307Y-128568491D01*
X118792529Y-128570428D01*
X118671280Y-128646930D01*
X118666613Y-128652214D01*
X118666611Y-128652216D01*
X118581044Y-128749103D01*
X118581042Y-128749105D01*
X118576377Y-128754388D01*
X118515447Y-128884163D01*
X118514362Y-128891132D01*
X118514361Y-128891135D01*
X118501973Y-128970705D01*
X118493391Y-129025823D01*
X118494306Y-129032820D01*
X118494306Y-129032821D01*
X118508852Y-129144062D01*
X118511980Y-129167979D01*
X118514821Y-129174435D01*
X118514821Y-129174436D01*
X118561241Y-129279932D01*
X118569720Y-129299203D01*
X118615224Y-129353337D01*
X118657431Y-129403549D01*
X118657434Y-129403551D01*
X118661970Y-129408948D01*
X118667841Y-129412856D01*
X118667842Y-129412857D01*
X118673805Y-129416826D01*
X118781313Y-129488390D01*
X118881920Y-129519821D01*
X118911425Y-129529039D01*
X118911426Y-129529039D01*
X118918157Y-129531142D01*
X118989828Y-129532456D01*
X119054445Y-129533641D01*
X119054447Y-129533641D01*
X119061499Y-129533770D01*
X119068302Y-129531915D01*
X119068304Y-129531915D01*
X119193009Y-129497916D01*
X119193008Y-129497916D01*
X119199817Y-129496060D01*
X119205832Y-129492367D01*
X119207232Y-129491761D01*
X119222433Y-129484348D01*
X119222727Y-129484238D01*
X119227430Y-129482994D01*
X119259820Y-129467147D01*
X119267726Y-129463279D01*
X119267832Y-129463227D01*
X119307760Y-129443751D01*
X119309464Y-129442940D01*
X119340433Y-129428558D01*
X119344085Y-129426951D01*
X119350882Y-129424122D01*
X119367370Y-129417261D01*
X119372943Y-129415136D01*
X119391313Y-129408760D01*
X119398247Y-129406635D01*
X119409810Y-129403549D01*
X119415873Y-129401931D01*
X119423170Y-129400277D01*
X119445007Y-129396188D01*
X119451692Y-129395172D01*
X119481888Y-129391638D01*
X119487422Y-129391148D01*
X119498933Y-129390454D01*
X119528897Y-129388648D01*
X119533162Y-129388483D01*
X119571934Y-129387821D01*
X119581008Y-129387666D01*
X119585649Y-129386681D01*
X119585657Y-129386680D01*
X119595186Y-129384657D01*
X119615740Y-129382500D01*
X120729052Y-129382500D01*
X120749888Y-129384718D01*
X120751170Y-129384994D01*
X120760261Y-129386951D01*
X120792071Y-129383186D01*
X120797963Y-129382839D01*
X120797963Y-129382836D01*
X120802030Y-129382500D01*
X120806115Y-129382500D01*
X120810141Y-129381830D01*
X120810152Y-129381829D01*
X120824119Y-129379504D01*
X120828726Y-129378848D01*
X120851689Y-129376130D01*
X120868012Y-129374198D01*
X120868013Y-129374198D01*
X120876138Y-129373236D01*
X120883122Y-129369882D01*
X120884454Y-129369461D01*
X120892103Y-129368188D01*
X120934160Y-129345495D01*
X120938283Y-129343395D01*
X120975717Y-129325420D01*
X120975721Y-129325418D01*
X120981326Y-129322726D01*
X120985274Y-129319408D01*
X120986782Y-129317900D01*
X120988071Y-129316718D01*
X120989097Y-129315852D01*
X120994794Y-129312778D01*
X121000345Y-129306773D01*
X121000350Y-129306769D01*
X121028809Y-129275982D01*
X121031503Y-129273179D01*
X121915186Y-128389496D01*
X121969703Y-128361719D01*
X121985190Y-128360500D01*
X122797500Y-128360500D01*
X122855691Y-128379407D01*
X122891655Y-128428907D01*
X122896500Y-128459500D01*
X122896500Y-128629748D01*
X122901569Y-128655232D01*
X122905767Y-128676334D01*
X122908133Y-128688231D01*
X122952448Y-128754552D01*
X123018769Y-128798867D01*
X123028332Y-128800769D01*
X123028334Y-128800770D01*
X123051005Y-128805279D01*
X123077252Y-128810500D01*
X125316748Y-128810500D01*
X125375231Y-128798867D01*
X125375624Y-128800843D01*
X125424108Y-128797026D01*
X125476278Y-128828993D01*
X125499695Y-128885520D01*
X125500000Y-128893291D01*
X125500000Y-134365709D01*
X125481093Y-134423900D01*
X125431593Y-134459864D01*
X125375285Y-134459864D01*
X125375231Y-134460133D01*
X125373879Y-134459864D01*
X125316748Y-134448500D01*
X123077252Y-134448500D01*
X123053659Y-134453193D01*
X123028334Y-134458230D01*
X123028332Y-134458231D01*
X123018769Y-134460133D01*
X122952448Y-134504448D01*
X122908133Y-134570769D01*
X122906231Y-134580332D01*
X122906230Y-134580334D01*
X122904463Y-134589217D01*
X122896500Y-134629252D01*
X122896500Y-134799500D01*
X122877593Y-134857691D01*
X122828093Y-134893655D01*
X122797500Y-134898500D01*
X120393589Y-134898500D01*
X120335398Y-134879593D01*
X120299434Y-134830093D01*
X120299434Y-134768907D01*
X120304495Y-134756334D01*
X120340414Y-134682197D01*
X120341736Y-134679711D01*
X120342481Y-134678080D01*
X120344925Y-134673877D01*
X120346089Y-134670482D01*
X120346210Y-134670233D01*
X120346244Y-134670031D01*
X120355441Y-134643215D01*
X120359481Y-134631437D01*
X120359518Y-134631328D01*
X120374016Y-134589217D01*
X120374648Y-134587436D01*
X120377246Y-134580334D01*
X120386344Y-134555461D01*
X120387777Y-134551777D01*
X120389528Y-134547530D01*
X120397402Y-134528427D01*
X120399826Y-134523016D01*
X120408316Y-134505503D01*
X120411704Y-134499120D01*
X120420864Y-134483292D01*
X120424858Y-134476957D01*
X120431604Y-134467103D01*
X120437393Y-134458646D01*
X120441408Y-134453193D01*
X120460260Y-134429342D01*
X120463816Y-134425094D01*
X120491384Y-134393990D01*
X120494269Y-134390873D01*
X120502443Y-134382415D01*
X120527533Y-134356454D01*
X120535429Y-134344303D01*
X120548435Y-134328247D01*
X122290186Y-132586496D01*
X122344703Y-132558719D01*
X122360190Y-132557500D01*
X123335553Y-132557500D01*
X123356519Y-132559746D01*
X123365239Y-132561636D01*
X123365243Y-132561636D01*
X123369994Y-132562666D01*
X123374855Y-132562749D01*
X123417826Y-132563483D01*
X123422089Y-132563648D01*
X123451168Y-132565400D01*
X123463575Y-132566148D01*
X123469108Y-132566638D01*
X123499297Y-132570171D01*
X123506004Y-132571191D01*
X123518860Y-132573598D01*
X123527808Y-132575273D01*
X123535109Y-132576928D01*
X123552766Y-132581639D01*
X123559701Y-132583764D01*
X123578069Y-132590140D01*
X123583627Y-132592259D01*
X123592723Y-132596045D01*
X123606916Y-132601952D01*
X123610568Y-132603559D01*
X123620647Y-132608239D01*
X123641455Y-132617901D01*
X123643098Y-132618683D01*
X123683065Y-132638178D01*
X123683153Y-132638263D01*
X123683170Y-132638229D01*
X123723572Y-132657995D01*
X123726099Y-132658906D01*
X123726105Y-132658909D01*
X123726134Y-132658919D01*
X123730055Y-132660556D01*
X123734313Y-132663390D01*
X123806317Y-132685885D01*
X123864425Y-132704039D01*
X123864426Y-132704039D01*
X123871157Y-132706142D01*
X123942828Y-132707456D01*
X124007445Y-132708641D01*
X124007447Y-132708641D01*
X124014499Y-132708770D01*
X124021302Y-132706915D01*
X124021304Y-132706915D01*
X124098440Y-132685885D01*
X124152817Y-132671060D01*
X124264116Y-132602722D01*
X124268978Y-132599737D01*
X124274991Y-132596045D01*
X124285704Y-132584210D01*
X124366468Y-132494982D01*
X124371200Y-132489754D01*
X124433710Y-132360733D01*
X124435649Y-132349212D01*
X124456862Y-132223124D01*
X124456862Y-132223120D01*
X124457496Y-132219354D01*
X124457647Y-132207000D01*
X124437323Y-132065082D01*
X124377984Y-131934572D01*
X124298915Y-131842808D01*
X124289005Y-131831307D01*
X124289004Y-131831306D01*
X124284400Y-131825963D01*
X124164095Y-131747985D01*
X124026739Y-131706907D01*
X123943497Y-131706398D01*
X123890427Y-131706074D01*
X123890426Y-131706074D01*
X123883376Y-131706031D01*
X123876599Y-131707968D01*
X123876598Y-131707968D01*
X123873236Y-131708929D01*
X123745529Y-131745428D01*
X123739567Y-131749190D01*
X123733128Y-131752070D01*
X123733073Y-131751946D01*
X123726378Y-131755261D01*
X123723575Y-131756003D01*
X123719216Y-131758136D01*
X123719212Y-131758137D01*
X123683055Y-131775826D01*
X123682952Y-131775876D01*
X123643198Y-131795267D01*
X123641492Y-131796079D01*
X123610570Y-131810438D01*
X123606915Y-131812046D01*
X123583631Y-131821737D01*
X123578060Y-131823862D01*
X123559701Y-131830235D01*
X123552766Y-131832360D01*
X123535109Y-131837071D01*
X123527806Y-131838726D01*
X123506004Y-131842808D01*
X123499298Y-131843828D01*
X123469108Y-131847361D01*
X123463577Y-131847851D01*
X123451974Y-131848551D01*
X123422101Y-131850351D01*
X123417838Y-131850516D01*
X123391307Y-131850970D01*
X123369988Y-131851334D01*
X123365329Y-131852323D01*
X123355816Y-131854342D01*
X123335260Y-131856500D01*
X122221948Y-131856500D01*
X122201112Y-131854282D01*
X122199830Y-131854006D01*
X122190739Y-131852049D01*
X122158929Y-131855814D01*
X122153037Y-131856161D01*
X122153037Y-131856164D01*
X122148970Y-131856500D01*
X122144885Y-131856500D01*
X122140859Y-131857170D01*
X122140848Y-131857171D01*
X122126881Y-131859496D01*
X122122269Y-131860153D01*
X122074861Y-131865764D01*
X122067878Y-131869117D01*
X122066544Y-131869539D01*
X122058897Y-131870812D01*
X122051696Y-131874698D01*
X122051695Y-131874698D01*
X122016861Y-131893494D01*
X122012703Y-131895612D01*
X121975288Y-131913578D01*
X121975287Y-131913579D01*
X121969674Y-131916274D01*
X121965726Y-131919592D01*
X121964216Y-131921102D01*
X121962929Y-131922282D01*
X121961903Y-131923148D01*
X121956206Y-131926222D01*
X121950655Y-131932227D01*
X121950650Y-131932231D01*
X121922191Y-131963018D01*
X121919497Y-131965821D01*
X120052553Y-133832765D01*
X120036136Y-133846004D01*
X120028641Y-133850829D01*
X120028638Y-133850832D01*
X120024547Y-133853465D01*
X120021049Y-133856846D01*
X119990125Y-133886731D01*
X119986992Y-133889630D01*
X119955933Y-133917158D01*
X119951660Y-133920736D01*
X119941169Y-133929029D01*
X119927956Y-133939473D01*
X119927804Y-133939593D01*
X119922336Y-133943618D01*
X119904043Y-133956141D01*
X119897709Y-133960134D01*
X119881894Y-133969287D01*
X119875494Y-133972685D01*
X119857999Y-133981165D01*
X119852564Y-133983600D01*
X119829249Y-133993211D01*
X119825546Y-133994651D01*
X119793411Y-134006405D01*
X119791835Y-134006965D01*
X119750002Y-134021368D01*
X119749887Y-134021387D01*
X119749893Y-134021404D01*
X119709664Y-134035202D01*
X119709658Y-134035205D01*
X119707117Y-134036076D01*
X119704677Y-134037223D01*
X119704676Y-134037223D01*
X119688150Y-134044989D01*
X119673249Y-134050578D01*
X119664810Y-134052990D01*
X119658029Y-134054928D01*
X119536780Y-134131430D01*
X119532113Y-134136714D01*
X119532111Y-134136716D01*
X119446544Y-134233603D01*
X119446542Y-134233605D01*
X119441877Y-134238888D01*
X119438881Y-134245270D01*
X119438880Y-134245271D01*
X119436205Y-134250968D01*
X119380947Y-134368663D01*
X119379862Y-134375632D01*
X119379861Y-134375635D01*
X119366935Y-134458659D01*
X119358891Y-134510323D01*
X119359806Y-134517320D01*
X119359806Y-134517321D01*
X119373820Y-134624488D01*
X119377480Y-134652479D01*
X119380321Y-134658935D01*
X119380321Y-134658936D01*
X119386125Y-134672126D01*
X119424293Y-134758868D01*
X119424627Y-134759628D01*
X119430757Y-134820505D01*
X119399933Y-134873360D01*
X119343930Y-134898002D01*
X119334011Y-134898500D01*
X118944464Y-134898500D01*
X118886273Y-134879593D01*
X118870377Y-134865167D01*
X118849702Y-134841841D01*
X118849325Y-134841415D01*
X118845751Y-134837146D01*
X118826900Y-134813295D01*
X118822883Y-134807839D01*
X118810346Y-134789527D01*
X118806374Y-134783225D01*
X118797198Y-134767369D01*
X118793818Y-134761001D01*
X118785327Y-134743484D01*
X118782908Y-134738086D01*
X118773281Y-134714731D01*
X118771842Y-134711029D01*
X118760143Y-134679046D01*
X118759510Y-134677265D01*
X118757089Y-134670233D01*
X118745018Y-134635171D01*
X118744654Y-134634110D01*
X118731300Y-134595170D01*
X118731295Y-134595157D01*
X118730425Y-134592621D01*
X118728826Y-134589217D01*
X118712581Y-134554646D01*
X118712580Y-134554644D01*
X118711432Y-134552201D01*
X118708798Y-134547887D01*
X118708907Y-134547820D01*
X118708751Y-134547530D01*
X118708840Y-134547482D01*
X118703037Y-134537072D01*
X118678906Y-134483998D01*
X118678905Y-134483997D01*
X118675984Y-134477572D01*
X118601279Y-134390873D01*
X118587005Y-134374307D01*
X118587004Y-134374306D01*
X118582400Y-134368963D01*
X118462095Y-134290985D01*
X118324739Y-134249907D01*
X118241497Y-134249398D01*
X118188427Y-134249074D01*
X118188426Y-134249074D01*
X118181376Y-134249031D01*
X118174599Y-134250968D01*
X118174598Y-134250968D01*
X118050309Y-134286490D01*
X118050307Y-134286491D01*
X118043529Y-134288428D01*
X117922280Y-134364930D01*
X117917613Y-134370214D01*
X117917611Y-134370216D01*
X117832044Y-134467103D01*
X117832042Y-134467105D01*
X117827377Y-134472388D01*
X117824381Y-134478770D01*
X117824380Y-134478771D01*
X117821926Y-134483998D01*
X117766447Y-134602163D01*
X117765362Y-134609132D01*
X117765361Y-134609135D01*
X117754454Y-134679190D01*
X117744391Y-134743823D01*
X117745306Y-134750820D01*
X117745306Y-134750821D01*
X117761330Y-134873360D01*
X117762980Y-134885979D01*
X117765821Y-134892435D01*
X117765821Y-134892436D01*
X117813231Y-135000182D01*
X117820720Y-135017203D01*
X117863270Y-135067823D01*
X117908431Y-135121549D01*
X117908434Y-135121551D01*
X117912970Y-135126948D01*
X117918841Y-135130856D01*
X117918842Y-135130857D01*
X118012336Y-135193092D01*
X118032313Y-135206390D01*
X118062699Y-135215883D01*
X118082943Y-135224797D01*
X118092621Y-135230425D01*
X118135397Y-135245096D01*
X118177289Y-135259518D01*
X118179047Y-135260143D01*
X118211001Y-135271831D01*
X118214724Y-135273278D01*
X118238058Y-135282897D01*
X118243509Y-135285339D01*
X118260983Y-135293809D01*
X118267386Y-135297208D01*
X118283198Y-135306358D01*
X118289529Y-135310349D01*
X118307859Y-135322897D01*
X118313292Y-135326897D01*
X118337164Y-135345765D01*
X118341422Y-135349331D01*
X118372480Y-135376858D01*
X118375614Y-135379758D01*
X118383495Y-135387374D01*
X118409902Y-135412895D01*
X118409958Y-135412837D01*
X118421995Y-135420685D01*
X118437928Y-135433610D01*
X118467255Y-135462937D01*
X118480420Y-135479240D01*
X118481733Y-135481274D01*
X118481736Y-135481278D01*
X118486175Y-135488152D01*
X118511332Y-135507984D01*
X118515738Y-135511900D01*
X118515739Y-135511899D01*
X118518868Y-135514550D01*
X118521747Y-135517429D01*
X118525061Y-135519797D01*
X118525062Y-135519798D01*
X118536591Y-135528037D01*
X118540319Y-135530836D01*
X118554061Y-135541669D01*
X118577811Y-135560392D01*
X118585114Y-135562957D01*
X118586369Y-135563609D01*
X118592670Y-135568111D01*
X118630476Y-135579417D01*
X118638412Y-135581791D01*
X118642846Y-135583232D01*
X118682030Y-135596992D01*
X118682034Y-135596993D01*
X118687906Y-135599055D01*
X118693044Y-135599500D01*
X118695182Y-135599500D01*
X118696901Y-135599574D01*
X118698262Y-135599689D01*
X118704464Y-135601544D01*
X118712635Y-135601223D01*
X118754554Y-135599576D01*
X118758441Y-135599500D01*
X122797500Y-135599500D01*
X122855691Y-135618407D01*
X122891655Y-135667907D01*
X122896500Y-135698500D01*
X122896500Y-135868748D01*
X122897448Y-135873512D01*
X122905877Y-135915888D01*
X122908133Y-135927231D01*
X122952448Y-135993552D01*
X123018769Y-136037867D01*
X123028332Y-136039769D01*
X123028334Y-136039770D01*
X123051005Y-136044279D01*
X123077252Y-136049500D01*
X125316748Y-136049500D01*
X125375231Y-136037867D01*
X125375624Y-136039843D01*
X125424108Y-136036026D01*
X125476278Y-136067993D01*
X125499695Y-136124520D01*
X125500000Y-136132291D01*
X125500000Y-138631310D01*
X125481093Y-138689501D01*
X125471004Y-138701314D01*
X125232814Y-138939504D01*
X125178297Y-138967281D01*
X125162810Y-138968500D01*
X122614190Y-138968500D01*
X122555999Y-138949593D01*
X122544186Y-138939504D01*
X120804745Y-137200063D01*
X120791580Y-137183760D01*
X120790267Y-137181726D01*
X120790264Y-137181722D01*
X120785825Y-137174848D01*
X120760668Y-137155015D01*
X120756263Y-137151101D01*
X120756262Y-137151102D01*
X120753131Y-137148449D01*
X120750254Y-137145572D01*
X120735399Y-137134956D01*
X120731681Y-137132165D01*
X120731140Y-137131738D01*
X120694189Y-137102608D01*
X120686882Y-137100042D01*
X120685637Y-137099395D01*
X120679331Y-137094889D01*
X120640456Y-137083263D01*
X120633585Y-137081208D01*
X120629149Y-137079767D01*
X120589967Y-137066007D01*
X120589964Y-137066006D01*
X120584094Y-137063945D01*
X120578956Y-137063500D01*
X120576818Y-137063500D01*
X120575099Y-137063426D01*
X120573738Y-137063311D01*
X120567536Y-137061456D01*
X120559365Y-137061777D01*
X120517446Y-137063424D01*
X120513559Y-137063500D01*
X108083560Y-137063500D01*
X108063553Y-137061457D01*
X108053615Y-137059406D01*
X108053612Y-137059406D01*
X108048845Y-137058422D01*
X108009282Y-137058141D01*
X108007348Y-137058106D01*
X107967993Y-137057008D01*
X107964818Y-137056869D01*
X107935036Y-137055080D01*
X107930581Y-137054711D01*
X107924693Y-137054090D01*
X107909076Y-137052441D01*
X107903406Y-137051676D01*
X107888148Y-137049167D01*
X107881705Y-137047887D01*
X107869603Y-137045060D01*
X107863126Y-137043313D01*
X107850478Y-137039437D01*
X107844759Y-137037492D01*
X107828209Y-137031293D01*
X107823802Y-137029520D01*
X107801108Y-137019754D01*
X107798118Y-137018408D01*
X107775052Y-137007563D01*
X107775044Y-137007560D01*
X107772690Y-137006453D01*
X107770245Y-137005603D01*
X107770230Y-137005597D01*
X107765080Y-137003807D01*
X107763493Y-137003166D01*
X107759906Y-137000841D01*
X107753156Y-136998822D01*
X107753151Y-136998820D01*
X107737932Y-136994269D01*
X107734979Y-136993315D01*
X107734485Y-136993172D01*
X107732029Y-136992318D01*
X107729502Y-136991727D01*
X107727608Y-136991178D01*
X107726906Y-136990972D01*
X107636273Y-136963866D01*
X107557810Y-136963387D01*
X107514282Y-136963121D01*
X107507231Y-136963078D01*
X107500454Y-136965015D01*
X107500453Y-136965015D01*
X107389935Y-136996601D01*
X107389933Y-136996602D01*
X107383155Y-136998539D01*
X107377191Y-137002302D01*
X107368853Y-137007563D01*
X107274019Y-137067399D01*
X107188596Y-137164122D01*
X107133754Y-137280932D01*
X107113901Y-137408440D01*
X107130633Y-137536394D01*
X107133472Y-137542846D01*
X107133473Y-137542850D01*
X107140856Y-137559629D01*
X107146986Y-137620506D01*
X107116162Y-137673360D01*
X107060158Y-137698002D01*
X107050240Y-137698500D01*
X102241560Y-137698500D01*
X102221553Y-137696457D01*
X102211615Y-137694406D01*
X102211612Y-137694406D01*
X102206845Y-137693422D01*
X102167282Y-137693141D01*
X102165348Y-137693106D01*
X102125993Y-137692008D01*
X102122818Y-137691869D01*
X102093036Y-137690080D01*
X102088581Y-137689711D01*
X102082693Y-137689090D01*
X102067076Y-137687441D01*
X102061406Y-137686676D01*
X102046148Y-137684167D01*
X102039705Y-137682887D01*
X102027603Y-137680060D01*
X102021126Y-137678313D01*
X102008478Y-137674437D01*
X102002759Y-137672492D01*
X101986209Y-137666293D01*
X101981802Y-137664520D01*
X101959108Y-137654754D01*
X101956118Y-137653408D01*
X101933052Y-137642563D01*
X101933044Y-137642560D01*
X101930690Y-137641453D01*
X101928245Y-137640603D01*
X101928230Y-137640597D01*
X101923080Y-137638807D01*
X101921493Y-137638166D01*
X101917906Y-137635841D01*
X101911156Y-137633822D01*
X101911151Y-137633820D01*
X101895932Y-137629269D01*
X101892979Y-137628315D01*
X101892485Y-137628172D01*
X101890029Y-137627318D01*
X101887502Y-137626727D01*
X101885608Y-137626178D01*
X101884906Y-137625972D01*
X101794273Y-137598866D01*
X101715810Y-137598387D01*
X101672282Y-137598121D01*
X101665231Y-137598078D01*
X101658454Y-137600015D01*
X101658453Y-137600015D01*
X101547935Y-137631601D01*
X101547933Y-137631602D01*
X101541155Y-137633539D01*
X101432019Y-137702399D01*
X101346596Y-137799122D01*
X101291754Y-137915932D01*
X101271901Y-138043440D01*
X101288633Y-138171394D01*
X101291472Y-138177846D01*
X101291473Y-138177850D01*
X101298856Y-138194629D01*
X101304986Y-138255506D01*
X101274162Y-138308360D01*
X101218158Y-138333002D01*
X101208240Y-138333500D01*
X98751342Y-138333500D01*
X98693151Y-138314593D01*
X98674377Y-138296768D01*
X98667122Y-138287801D01*
X98663660Y-138283260D01*
X98654654Y-138270710D01*
X98651000Y-138265241D01*
X98644434Y-138254671D01*
X98641097Y-138248872D01*
X98634878Y-138237156D01*
X98632229Y-138231775D01*
X98624909Y-138215691D01*
X98623039Y-138211305D01*
X98613884Y-138188313D01*
X98612725Y-138185256D01*
X98607202Y-138169932D01*
X98603210Y-138158854D01*
X98584444Y-138120093D01*
X98581871Y-138115951D01*
X98581973Y-138115888D01*
X98581818Y-138115607D01*
X98581885Y-138115570D01*
X98575560Y-138104266D01*
X98557348Y-138064211D01*
X98554428Y-138057788D01*
X98470193Y-137960028D01*
X98464276Y-137956193D01*
X98464274Y-137956191D01*
X98367824Y-137893677D01*
X98361906Y-137889841D01*
X98355150Y-137887821D01*
X98355149Y-137887820D01*
X98312335Y-137875016D01*
X98238273Y-137852866D01*
X98161644Y-137852398D01*
X98116282Y-137852121D01*
X98109231Y-137852078D01*
X98102454Y-137854015D01*
X98102453Y-137854015D01*
X97991935Y-137885601D01*
X97991933Y-137885602D01*
X97985155Y-137887539D01*
X97876019Y-137956399D01*
X97790596Y-138053122D01*
X97735754Y-138169932D01*
X97715901Y-138297440D01*
X97732633Y-138425394D01*
X97784605Y-138543510D01*
X97817841Y-138583049D01*
X97863100Y-138636892D01*
X97863103Y-138636894D01*
X97867639Y-138642291D01*
X97975060Y-138713796D01*
X97981795Y-138715900D01*
X97981797Y-138715901D01*
X97997448Y-138720791D01*
X98019014Y-138730487D01*
X98022684Y-138732698D01*
X98022689Y-138732700D01*
X98026854Y-138735210D01*
X98031427Y-138736858D01*
X98031431Y-138736860D01*
X98053270Y-138744730D01*
X98056304Y-138745880D01*
X98079314Y-138755043D01*
X98083665Y-138756899D01*
X98094582Y-138761868D01*
X98094717Y-138761928D01*
X98094729Y-138761933D01*
X98099760Y-138764222D01*
X98105171Y-138766886D01*
X98116870Y-138773097D01*
X98122684Y-138776441D01*
X98133224Y-138782988D01*
X98138706Y-138786652D01*
X98151259Y-138795660D01*
X98155812Y-138799131D01*
X98172619Y-138812730D01*
X98176025Y-138815615D01*
X98198347Y-138835406D01*
X98200693Y-138837554D01*
X98229208Y-138864521D01*
X98230684Y-138865947D01*
X98255439Y-138890350D01*
X98255445Y-138890355D01*
X98258877Y-138893738D01*
X98262901Y-138896395D01*
X98266640Y-138899425D01*
X98266469Y-138899636D01*
X98280611Y-138911745D01*
X98284737Y-138916279D01*
X98289175Y-138923152D01*
X98314332Y-138942985D01*
X98318737Y-138946899D01*
X98318738Y-138946898D01*
X98321869Y-138949551D01*
X98324746Y-138952428D01*
X98339601Y-138963044D01*
X98343312Y-138965830D01*
X98380811Y-138995392D01*
X98388118Y-138997958D01*
X98389364Y-138998605D01*
X98395669Y-139003111D01*
X98441403Y-139016788D01*
X98445839Y-139018229D01*
X98485033Y-139031993D01*
X98485036Y-139031994D01*
X98490906Y-139034055D01*
X98496044Y-139034500D01*
X98498180Y-139034500D01*
X98499919Y-139034575D01*
X98501262Y-139034689D01*
X98507463Y-139036543D01*
X98515638Y-139036222D01*
X98515639Y-139036222D01*
X98557538Y-139034576D01*
X98561424Y-139034500D01*
X119638310Y-139034500D01*
X119696501Y-139053407D01*
X119708314Y-139063496D01*
X121349315Y-140704496D01*
X121377092Y-140759013D01*
X121367521Y-140819445D01*
X121324256Y-140862710D01*
X121279311Y-140873500D01*
X118866825Y-140873500D01*
X118851519Y-140872310D01*
X118836294Y-140869927D01*
X118836290Y-140869927D01*
X118831492Y-140869176D01*
X118826634Y-140869376D01*
X118826633Y-140869376D01*
X118787230Y-140870998D01*
X118784348Y-140871117D01*
X118783801Y-140871152D01*
X118783755Y-140871154D01*
X118777623Y-140871543D01*
X118775325Y-140871688D01*
X118774294Y-140871776D01*
X118773732Y-140871837D01*
X118773717Y-140871838D01*
X118765736Y-140872698D01*
X118765720Y-140872700D01*
X118765218Y-140872754D01*
X118764810Y-140872807D01*
X118753132Y-140873500D01*
X118665948Y-140873500D01*
X118645112Y-140871282D01*
X118643830Y-140871006D01*
X118634739Y-140869049D01*
X118603909Y-140872698D01*
X118602929Y-140872814D01*
X118597037Y-140873161D01*
X118597037Y-140873164D01*
X118592970Y-140873500D01*
X118588885Y-140873500D01*
X118584859Y-140874170D01*
X118584848Y-140874171D01*
X118570881Y-140876496D01*
X118566269Y-140877153D01*
X118518861Y-140882764D01*
X118511878Y-140886117D01*
X118510544Y-140886539D01*
X118502897Y-140887812D01*
X118495696Y-140891698D01*
X118495695Y-140891698D01*
X118460861Y-140910494D01*
X118456703Y-140912612D01*
X118419288Y-140930578D01*
X118419287Y-140930579D01*
X118413674Y-140933274D01*
X118409726Y-140936592D01*
X118408217Y-140938101D01*
X118407147Y-140939082D01*
X118367444Y-140961303D01*
X118250935Y-140994601D01*
X118250933Y-140994602D01*
X118244155Y-140996539D01*
X118135019Y-141065399D01*
X118049596Y-141162122D01*
X117994754Y-141278932D01*
X117974901Y-141406440D01*
X117991633Y-141534394D01*
X117994471Y-141540845D01*
X117994472Y-141540847D01*
X118040764Y-141646054D01*
X118043605Y-141652510D01*
X118073017Y-141687500D01*
X118122100Y-141745892D01*
X118122103Y-141745894D01*
X118126639Y-141751291D01*
X118234060Y-141822796D01*
X118240788Y-141824898D01*
X118240790Y-141824899D01*
X118295646Y-141842037D01*
X118357233Y-141861278D01*
X118371478Y-141861539D01*
X118372615Y-141861560D01*
X118430449Y-141881530D01*
X118465500Y-141931681D01*
X118464378Y-141992857D01*
X118445005Y-142026076D01*
X118364596Y-142117122D01*
X118309754Y-142233932D01*
X118289901Y-142361440D01*
X118306633Y-142489394D01*
X118309471Y-142495845D01*
X118309472Y-142495847D01*
X118355764Y-142601054D01*
X118358605Y-142607510D01*
X118383403Y-142637011D01*
X118437100Y-142700892D01*
X118437103Y-142700894D01*
X118441639Y-142706291D01*
X118549060Y-142777796D01*
X118555788Y-142779898D01*
X118555790Y-142779899D01*
X118610647Y-142797037D01*
X118672233Y-142816278D01*
X118736744Y-142817461D01*
X118794202Y-142818514D01*
X118794204Y-142818514D01*
X118801255Y-142818643D01*
X118808058Y-142816788D01*
X118808060Y-142816788D01*
X118918947Y-142786556D01*
X118918946Y-142786556D01*
X118925755Y-142784700D01*
X118931770Y-142781007D01*
X118938239Y-142778207D01*
X118938387Y-142778548D01*
X118944665Y-142775544D01*
X118948697Y-142774544D01*
X118953093Y-142772477D01*
X118953096Y-142772476D01*
X118974123Y-142762589D01*
X118977109Y-142761245D01*
X118999785Y-142751485D01*
X119004198Y-142749710D01*
X119012984Y-142746419D01*
X119020775Y-142743501D01*
X119026489Y-142741558D01*
X119039108Y-142737691D01*
X119045600Y-142735940D01*
X119057714Y-142733111D01*
X119064163Y-142731829D01*
X119072693Y-142730426D01*
X119079395Y-142729324D01*
X119085060Y-142728560D01*
X119106602Y-142726286D01*
X119111024Y-142725920D01*
X119140800Y-142724131D01*
X119143966Y-142723992D01*
X119147848Y-142723884D01*
X119183182Y-142722897D01*
X119185238Y-142722861D01*
X119201293Y-142722746D01*
X119224849Y-142722578D01*
X119239859Y-142719508D01*
X119259697Y-142717500D01*
X122797500Y-142717500D01*
X122855691Y-142736407D01*
X122891655Y-142785907D01*
X122896500Y-142816500D01*
X122896500Y-143107748D01*
X122908133Y-143166231D01*
X122952448Y-143232552D01*
X123018769Y-143276867D01*
X123028332Y-143278769D01*
X123028334Y-143278770D01*
X123051005Y-143283279D01*
X123077252Y-143288500D01*
X125316748Y-143288500D01*
X125375231Y-143276867D01*
X125375624Y-143278843D01*
X125424108Y-143275026D01*
X125476278Y-143306993D01*
X125499695Y-143363520D01*
X125500000Y-143371291D01*
X125500000Y-143401000D01*
X125481093Y-143459191D01*
X125431593Y-143495155D01*
X125401000Y-143500000D01*
X122947615Y-143500000D01*
X122889424Y-143481093D01*
X122881722Y-143474886D01*
X122858288Y-143453987D01*
X122858287Y-143453987D01*
X122853002Y-143449273D01*
X122802456Y-143425311D01*
X122741885Y-143396596D01*
X122741878Y-143396593D01*
X122738363Y-143394927D01*
X122670242Y-143374925D01*
X122556000Y-143358500D01*
X117725500Y-143358500D01*
X117667309Y-143339593D01*
X117631345Y-143290093D01*
X117626500Y-143259500D01*
X117626500Y-142366000D01*
X117617234Y-142279807D01*
X117607255Y-142233932D01*
X117606337Y-142229711D01*
X117606335Y-142229702D01*
X117605848Y-142227465D01*
X117583130Y-142155810D01*
X117516071Y-142048113D01*
X117505826Y-142036289D01*
X117471667Y-141996868D01*
X117469578Y-141994457D01*
X117445243Y-141972754D01*
X117397288Y-141929987D01*
X117397287Y-141929987D01*
X117392002Y-141925273D01*
X117333518Y-141897548D01*
X117280885Y-141872596D01*
X117280878Y-141872593D01*
X117277363Y-141870927D01*
X117209242Y-141850925D01*
X117095000Y-141834500D01*
X97659500Y-141834500D01*
X97601309Y-141815593D01*
X97565345Y-141766093D01*
X97560500Y-141735500D01*
X97560500Y-139495800D01*
X97551234Y-139409607D01*
X97545894Y-139385058D01*
X97540337Y-139359511D01*
X97540335Y-139359502D01*
X97539848Y-139357265D01*
X97517130Y-139285610D01*
X97450071Y-139177913D01*
X97403578Y-139124257D01*
X97397833Y-139119133D01*
X97331288Y-139059787D01*
X97331287Y-139059787D01*
X97326002Y-139055073D01*
X97275456Y-139031111D01*
X97214885Y-139002396D01*
X97214878Y-139002393D01*
X97211363Y-139000727D01*
X97199372Y-138997206D01*
X97189237Y-138994230D01*
X97143242Y-138980725D01*
X97029000Y-138964300D01*
X95757000Y-138964300D01*
X95699544Y-138970477D01*
X95673429Y-138973284D01*
X95673427Y-138973284D01*
X95670807Y-138973566D01*
X95668237Y-138974125D01*
X95668231Y-138974126D01*
X95620711Y-138984463D01*
X95620702Y-138984465D01*
X95618465Y-138984952D01*
X95572172Y-138999629D01*
X95561190Y-139003111D01*
X95546810Y-139007670D01*
X95500440Y-139036543D01*
X95470681Y-139055073D01*
X95439113Y-139074729D01*
X95385457Y-139121222D01*
X95383338Y-139123598D01*
X95383336Y-139123600D01*
X95334899Y-139177913D01*
X95316273Y-139198798D01*
X95313239Y-139205199D01*
X95263596Y-139309915D01*
X95263593Y-139309922D01*
X95261927Y-139313437D01*
X95241925Y-139381558D01*
X95225500Y-139495800D01*
X95225500Y-143259500D01*
X95206593Y-143317691D01*
X95157093Y-143353655D01*
X95126500Y-143358500D01*
X89526500Y-143358500D01*
X89479804Y-143363520D01*
X89442929Y-143367484D01*
X89442927Y-143367484D01*
X89440307Y-143367766D01*
X89437737Y-143368325D01*
X89437731Y-143368326D01*
X89390211Y-143378663D01*
X89390202Y-143378665D01*
X89387965Y-143379152D01*
X89385786Y-143379843D01*
X89385763Y-143379849D01*
X89329421Y-143397713D01*
X89268237Y-143397277D01*
X89218994Y-143360961D01*
X89200500Y-143303343D01*
X89200500Y-141830069D01*
X90716164Y-141830069D01*
X90718218Y-141861407D01*
X90729011Y-142026078D01*
X90729392Y-142031894D01*
X90779178Y-142227928D01*
X90863856Y-142411607D01*
X90980588Y-142576780D01*
X91125466Y-142717913D01*
X91293637Y-142830282D01*
X91479470Y-142910122D01*
X91676740Y-142954760D01*
X91878842Y-142962700D01*
X91932377Y-142954938D01*
X92074519Y-142934329D01*
X92074522Y-142934328D01*
X92079007Y-142933678D01*
X92174769Y-142901171D01*
X92266234Y-142870123D01*
X92266237Y-142870121D01*
X92270531Y-142868664D01*
X92438596Y-142774544D01*
X92443039Y-142772056D01*
X92443041Y-142772055D01*
X92447001Y-142769837D01*
X92602505Y-142640505D01*
X92731837Y-142485001D01*
X92830664Y-142308531D01*
X92839525Y-142282429D01*
X92884290Y-142150554D01*
X92895678Y-142117007D01*
X92896428Y-142111838D01*
X92918970Y-141956360D01*
X92924700Y-141916842D01*
X92925625Y-141881530D01*
X92926139Y-141861913D01*
X92926139Y-141861908D01*
X92926215Y-141859000D01*
X92925189Y-141847828D01*
X92908123Y-141662109D01*
X92907708Y-141657591D01*
X92852807Y-141462926D01*
X92763351Y-141281527D01*
X92655684Y-141137343D01*
X92651189Y-141130756D01*
X92649130Y-141126578D01*
X92646172Y-141122721D01*
X92643604Y-141118589D01*
X92645383Y-141117483D01*
X92627500Y-141064782D01*
X92627500Y-139351252D01*
X92615867Y-139292769D01*
X92571552Y-139226448D01*
X92505231Y-139182133D01*
X92495668Y-139180231D01*
X92495666Y-139180230D01*
X92469230Y-139174972D01*
X92446748Y-139170500D01*
X91207252Y-139170500D01*
X91184770Y-139174972D01*
X91158334Y-139180230D01*
X91158332Y-139180231D01*
X91148769Y-139182133D01*
X91082448Y-139226448D01*
X91038133Y-139292769D01*
X91026500Y-139351252D01*
X91026500Y-141051096D01*
X91005713Y-141111059D01*
X91005964Y-141111235D01*
X91005349Y-141112110D01*
X91005259Y-141112370D01*
X91004403Y-141113456D01*
X91004397Y-141113464D01*
X91002722Y-141115590D01*
X91001289Y-141117887D01*
X91001287Y-141117890D01*
X90994646Y-141128536D01*
X90988397Y-141137427D01*
X90908410Y-141238891D01*
X90894089Y-141257057D01*
X90799914Y-141436053D01*
X90798569Y-141440384D01*
X90798568Y-141440387D01*
X90743143Y-141618889D01*
X90739937Y-141629213D01*
X90735950Y-141662900D01*
X90717435Y-141819334D01*
X90716164Y-141830069D01*
X89200500Y-141830069D01*
X89200500Y-135249440D01*
X97461901Y-135249440D01*
X97462816Y-135256437D01*
X97462816Y-135256438D01*
X97465691Y-135278425D01*
X97478633Y-135377394D01*
X97481471Y-135383845D01*
X97481472Y-135383847D01*
X97523446Y-135479240D01*
X97530605Y-135495510D01*
X97551292Y-135520120D01*
X97609100Y-135588892D01*
X97609103Y-135588894D01*
X97613639Y-135594291D01*
X97721060Y-135665796D01*
X97727788Y-135667898D01*
X97727790Y-135667899D01*
X97782647Y-135685037D01*
X97844233Y-135704278D01*
X97908744Y-135705460D01*
X97966202Y-135706514D01*
X97966204Y-135706514D01*
X97973255Y-135706643D01*
X97980058Y-135704788D01*
X97980060Y-135704788D01*
X98021828Y-135693400D01*
X98097755Y-135672700D01*
X98207724Y-135605179D01*
X98212796Y-135599576D01*
X98289590Y-135514735D01*
X98289590Y-135514734D01*
X98294322Y-135509507D01*
X98350588Y-135393375D01*
X98364990Y-135307768D01*
X98371363Y-135269891D01*
X98371363Y-135269886D01*
X98371997Y-135266120D01*
X98372133Y-135255000D01*
X98353839Y-135127259D01*
X98334608Y-135084963D01*
X98328642Y-135067823D01*
X98325717Y-135056030D01*
X98325716Y-135056028D01*
X98324545Y-135051306D01*
X98312587Y-135025874D01*
X98311280Y-135022971D01*
X98301473Y-135000182D01*
X98299706Y-134995788D01*
X98293509Y-134979243D01*
X98291564Y-134973526D01*
X98287686Y-134960872D01*
X98285937Y-134954386D01*
X98283117Y-134942315D01*
X98281832Y-134935854D01*
X98279323Y-134920593D01*
X98278559Y-134914927D01*
X98277848Y-134908191D01*
X98276285Y-134893388D01*
X98275919Y-134888961D01*
X98275320Y-134878982D01*
X98274128Y-134859149D01*
X98273989Y-134855973D01*
X98272896Y-134816800D01*
X98272859Y-134814742D01*
X98272749Y-134799254D01*
X98272578Y-134775158D01*
X98271602Y-134770382D01*
X98269679Y-134760984D01*
X98269508Y-134760145D01*
X98267500Y-134740311D01*
X98267500Y-134679190D01*
X98286407Y-134620999D01*
X98296496Y-134609186D01*
X99561922Y-133343760D01*
X99616439Y-133315983D01*
X99676871Y-133325554D01*
X99722542Y-133373892D01*
X99741874Y-133417827D01*
X99746966Y-133432380D01*
X99752004Y-133451426D01*
X99754139Y-133455790D01*
X99754142Y-133455798D01*
X99771720Y-133491728D01*
X99771771Y-133491831D01*
X99791285Y-133531837D01*
X99792074Y-133533494D01*
X99806455Y-133564465D01*
X99808048Y-133568086D01*
X99817740Y-133591374D01*
X99819857Y-133596926D01*
X99826244Y-133615327D01*
X99828362Y-133622240D01*
X99833067Y-133639875D01*
X99834721Y-133647171D01*
X99838808Y-133668994D01*
X99839829Y-133675709D01*
X99843360Y-133705876D01*
X99843852Y-133711430D01*
X99846351Y-133752902D01*
X99846516Y-133757165D01*
X99846968Y-133783566D01*
X99847334Y-133805012D01*
X99848323Y-133809671D01*
X99850342Y-133819184D01*
X99852500Y-133839740D01*
X99852500Y-136162781D01*
X99850309Y-136183495D01*
X99848826Y-136190428D01*
X99847355Y-136197301D01*
X99847285Y-136202162D01*
X99846601Y-136249565D01*
X99846482Y-136253198D01*
X99846324Y-136256281D01*
X99844278Y-136296266D01*
X99844096Y-136299812D01*
X99843734Y-136304602D01*
X99841392Y-136328004D01*
X99841322Y-136328699D01*
X99816713Y-136384717D01*
X99763877Y-136415572D01*
X99752709Y-136417343D01*
X99738791Y-136418741D01*
X99728962Y-136419728D01*
X99724147Y-136420093D01*
X99677693Y-136422478D01*
X99674050Y-136422598D01*
X99628944Y-136423251D01*
X99621826Y-136423354D01*
X99609797Y-136425883D01*
X99607423Y-136426382D01*
X99587055Y-136428500D01*
X98660452Y-136428500D01*
X98639484Y-136426254D01*
X98626010Y-136423334D01*
X98616682Y-136423175D01*
X98578171Y-136422516D01*
X98573910Y-136422351D01*
X98544831Y-136420599D01*
X98532424Y-136419851D01*
X98526891Y-136419361D01*
X98496701Y-136415828D01*
X98489995Y-136414808D01*
X98468193Y-136410726D01*
X98460890Y-136409071D01*
X98443233Y-136404360D01*
X98436298Y-136402235D01*
X98417939Y-136395862D01*
X98412371Y-136393739D01*
X98403788Y-136390167D01*
X98389064Y-136384039D01*
X98385465Y-136382455D01*
X98354494Y-136368074D01*
X98352837Y-136367285D01*
X98312831Y-136347771D01*
X98312728Y-136347720D01*
X98274848Y-136329188D01*
X98274834Y-136329182D01*
X98272426Y-136328004D01*
X98269897Y-136327092D01*
X98268518Y-136326508D01*
X98262330Y-136323967D01*
X98262013Y-136323820D01*
X98256095Y-136319985D01*
X98118739Y-136278907D01*
X98035497Y-136278398D01*
X97982427Y-136278074D01*
X97982426Y-136278074D01*
X97975376Y-136278031D01*
X97968599Y-136279968D01*
X97968598Y-136279968D01*
X97844309Y-136315490D01*
X97844307Y-136315491D01*
X97837529Y-136317428D01*
X97716280Y-136393930D01*
X97711613Y-136399214D01*
X97711611Y-136399216D01*
X97626044Y-136496103D01*
X97626042Y-136496105D01*
X97621377Y-136501388D01*
X97560447Y-136631163D01*
X97559362Y-136638132D01*
X97559361Y-136638135D01*
X97556607Y-136655826D01*
X97538391Y-136772823D01*
X97556980Y-136914979D01*
X97559821Y-136921435D01*
X97559821Y-136921436D01*
X97610149Y-137035814D01*
X97614720Y-137046203D01*
X97654951Y-137094064D01*
X97702431Y-137150549D01*
X97702434Y-137150551D01*
X97706970Y-137155948D01*
X97712841Y-137159856D01*
X97712842Y-137159857D01*
X97719458Y-137164261D01*
X97826313Y-137235390D01*
X97903211Y-137259414D01*
X97956425Y-137276039D01*
X97956426Y-137276039D01*
X97963157Y-137278142D01*
X98034828Y-137279456D01*
X98099445Y-137280641D01*
X98099447Y-137280641D01*
X98106499Y-137280770D01*
X98113302Y-137278915D01*
X98113304Y-137278915D01*
X98238009Y-137244916D01*
X98238008Y-137244916D01*
X98244817Y-137243060D01*
X98250832Y-137239367D01*
X98252232Y-137238761D01*
X98267433Y-137231348D01*
X98267727Y-137231238D01*
X98272430Y-137229994D01*
X98312832Y-137210227D01*
X98333669Y-137200063D01*
X98352760Y-137190751D01*
X98354464Y-137189940D01*
X98385433Y-137175558D01*
X98389085Y-137173951D01*
X98399100Y-137169783D01*
X98412370Y-137164261D01*
X98417943Y-137162136D01*
X98436313Y-137155760D01*
X98443247Y-137153635D01*
X98454810Y-137150549D01*
X98460873Y-137148931D01*
X98468170Y-137147277D01*
X98490007Y-137143188D01*
X98496692Y-137142172D01*
X98526888Y-137138638D01*
X98532422Y-137138148D01*
X98543933Y-137137454D01*
X98573897Y-137135648D01*
X98578162Y-137135483D01*
X98616934Y-137134821D01*
X98626008Y-137134666D01*
X98630649Y-137133681D01*
X98630657Y-137133680D01*
X98640186Y-137131657D01*
X98660740Y-137129500D01*
X99586881Y-137129500D01*
X99607813Y-137131738D01*
X99613743Y-137133021D01*
X99621335Y-137134663D01*
X99647205Y-137135096D01*
X99669807Y-137135474D01*
X99674044Y-137135636D01*
X99700869Y-137137236D01*
X99716012Y-137138139D01*
X99721621Y-137138634D01*
X99751895Y-137142184D01*
X99758841Y-137143250D01*
X99780119Y-137147293D01*
X99787856Y-137149088D01*
X99804311Y-137153607D01*
X99811841Y-137156002D01*
X99819662Y-137158838D01*
X99828466Y-137162031D01*
X99834740Y-137164552D01*
X99849493Y-137171075D01*
X99849501Y-137171079D01*
X99855943Y-137173927D01*
X99860280Y-137175972D01*
X99888971Y-137190366D01*
X99891250Y-137191547D01*
X99929127Y-137211843D01*
X99929486Y-137212037D01*
X99968663Y-137233428D01*
X99973414Y-137235390D01*
X99977300Y-137236995D01*
X99993836Y-137245804D01*
X99994210Y-137245983D01*
X100000080Y-137249890D01*
X100006807Y-137251992D01*
X100006810Y-137251993D01*
X100130192Y-137290539D01*
X100130193Y-137290539D01*
X100136924Y-137292642D01*
X100208595Y-137293956D01*
X100273212Y-137295141D01*
X100273214Y-137295141D01*
X100280266Y-137295270D01*
X100287069Y-137293415D01*
X100287071Y-137293415D01*
X100362270Y-137272913D01*
X100418584Y-137257560D01*
X100540758Y-137182545D01*
X100545493Y-137177314D01*
X100608404Y-137107811D01*
X100616358Y-137099963D01*
X100623054Y-137094064D01*
X100626705Y-137090848D01*
X100643778Y-137068496D01*
X100646358Y-137065263D01*
X100660302Y-137048523D01*
X100664854Y-137043427D01*
X100667101Y-137041079D01*
X100721002Y-137012128D01*
X100728343Y-137011084D01*
X100747286Y-137009110D01*
X100754604Y-137008621D01*
X100772779Y-137008080D01*
X100784023Y-137007746D01*
X100788589Y-137006731D01*
X100788592Y-137006731D01*
X100797025Y-137004857D01*
X100818500Y-137002500D01*
X105428553Y-137002500D01*
X105449519Y-137004746D01*
X105458239Y-137006636D01*
X105458243Y-137006636D01*
X105462994Y-137007666D01*
X105467855Y-137007749D01*
X105510826Y-137008483D01*
X105515089Y-137008648D01*
X105544168Y-137010400D01*
X105556575Y-137011148D01*
X105562108Y-137011638D01*
X105592297Y-137015171D01*
X105599004Y-137016191D01*
X105610847Y-137018408D01*
X105620808Y-137020273D01*
X105628109Y-137021928D01*
X105645766Y-137026639D01*
X105652701Y-137028764D01*
X105671069Y-137035140D01*
X105676627Y-137037259D01*
X105697364Y-137045890D01*
X105699916Y-137046952D01*
X105703568Y-137048559D01*
X105710122Y-137051602D01*
X105734455Y-137062901D01*
X105736098Y-137063683D01*
X105776065Y-137083178D01*
X105776153Y-137083263D01*
X105776170Y-137083229D01*
X105816572Y-137102995D01*
X105819099Y-137103906D01*
X105819105Y-137103909D01*
X105819134Y-137103919D01*
X105823055Y-137105556D01*
X105827313Y-137108390D01*
X105914118Y-137135509D01*
X105957425Y-137149039D01*
X105957426Y-137149039D01*
X105964157Y-137151142D01*
X106035828Y-137152456D01*
X106100445Y-137153641D01*
X106100447Y-137153641D01*
X106107499Y-137153770D01*
X106114302Y-137151915D01*
X106114304Y-137151915D01*
X106196520Y-137129500D01*
X106245817Y-137116060D01*
X106357116Y-137047722D01*
X106361978Y-137044737D01*
X106367991Y-137041045D01*
X106377569Y-137030464D01*
X106459468Y-136939982D01*
X106464200Y-136934754D01*
X106526710Y-136805733D01*
X106533421Y-136765849D01*
X106549862Y-136668124D01*
X106549862Y-136668120D01*
X106550496Y-136664354D01*
X106550647Y-136652000D01*
X106530323Y-136510082D01*
X106489222Y-136419684D01*
X106473905Y-136385996D01*
X106473904Y-136385995D01*
X106470984Y-136379572D01*
X106398755Y-136295746D01*
X106382005Y-136276307D01*
X106382004Y-136276306D01*
X106377400Y-136270963D01*
X106257095Y-136192985D01*
X106119739Y-136151907D01*
X106036497Y-136151398D01*
X105983427Y-136151074D01*
X105983426Y-136151074D01*
X105976376Y-136151031D01*
X105969599Y-136152968D01*
X105969598Y-136152968D01*
X105862787Y-136183495D01*
X105838529Y-136190428D01*
X105832567Y-136194190D01*
X105826128Y-136197070D01*
X105826073Y-136196946D01*
X105819378Y-136200261D01*
X105816575Y-136201003D01*
X105812216Y-136203136D01*
X105812212Y-136203137D01*
X105776055Y-136220826D01*
X105775952Y-136220876D01*
X105736198Y-136240267D01*
X105734492Y-136241079D01*
X105703570Y-136255438D01*
X105699915Y-136257046D01*
X105676631Y-136266737D01*
X105671060Y-136268862D01*
X105652701Y-136275235D01*
X105645766Y-136277360D01*
X105628109Y-136282071D01*
X105620806Y-136283726D01*
X105599004Y-136287808D01*
X105592298Y-136288828D01*
X105562108Y-136292361D01*
X105556577Y-136292851D01*
X105544974Y-136293551D01*
X105515101Y-136295351D01*
X105510838Y-136295516D01*
X105484307Y-136295970D01*
X105462988Y-136296334D01*
X105458329Y-136297323D01*
X105448816Y-136299342D01*
X105428260Y-136301500D01*
X100813034Y-136301500D01*
X100793430Y-136299539D01*
X100786675Y-136298174D01*
X100782981Y-136297428D01*
X100782980Y-136297428D01*
X100778219Y-136296466D01*
X100773366Y-136296451D01*
X100773362Y-136296451D01*
X100715432Y-136296277D01*
X100711648Y-136296266D01*
X100711024Y-136296262D01*
X100704871Y-136296204D01*
X100656735Y-136295746D01*
X100598726Y-136276286D01*
X100563235Y-136226446D01*
X100558690Y-136198385D01*
X100558668Y-136197070D01*
X100558664Y-136196830D01*
X100558552Y-136192658D01*
X100558551Y-136192631D01*
X100555865Y-136180565D01*
X100553500Y-136159053D01*
X100553500Y-133839447D01*
X100555746Y-133818481D01*
X100557636Y-133809761D01*
X100557636Y-133809757D01*
X100558666Y-133805006D01*
X100559483Y-133757165D01*
X100559648Y-133752910D01*
X100562147Y-133711432D01*
X100562639Y-133705877D01*
X100566170Y-133675709D01*
X100567191Y-133668994D01*
X100571278Y-133647171D01*
X100572932Y-133639875D01*
X100577637Y-133622240D01*
X100579755Y-133615327D01*
X100586142Y-133596926D01*
X100588259Y-133591374D01*
X100597951Y-133568086D01*
X100599544Y-133564465D01*
X100613925Y-133533494D01*
X100614714Y-133531837D01*
X100634177Y-133491936D01*
X100634228Y-133491831D01*
X100644204Y-133471440D01*
X106605901Y-133471440D01*
X106622633Y-133599394D01*
X106625471Y-133605845D01*
X106625472Y-133605847D01*
X106671764Y-133711054D01*
X106674605Y-133717510D01*
X106707945Y-133757173D01*
X106753100Y-133810892D01*
X106753103Y-133810894D01*
X106757639Y-133816291D01*
X106865060Y-133887796D01*
X106871795Y-133889900D01*
X106871797Y-133889901D01*
X106887448Y-133894791D01*
X106909014Y-133904487D01*
X106912684Y-133906698D01*
X106912689Y-133906700D01*
X106916854Y-133909210D01*
X106921427Y-133910858D01*
X106921431Y-133910860D01*
X106943270Y-133918730D01*
X106946304Y-133919880D01*
X106969314Y-133929043D01*
X106973665Y-133930899D01*
X106984582Y-133935868D01*
X106984717Y-133935928D01*
X106984729Y-133935933D01*
X106989760Y-133938222D01*
X106995171Y-133940886D01*
X107006870Y-133947097D01*
X107012684Y-133950441D01*
X107023224Y-133956988D01*
X107028706Y-133960652D01*
X107041259Y-133969660D01*
X107045812Y-133973131D01*
X107062619Y-133986730D01*
X107066025Y-133989615D01*
X107088347Y-134009406D01*
X107090693Y-134011554D01*
X107119208Y-134038521D01*
X107120684Y-134039947D01*
X107145444Y-134064355D01*
X107145451Y-134064361D01*
X107148877Y-134067738D01*
X107152891Y-134070389D01*
X107152896Y-134070393D01*
X107161657Y-134076179D01*
X107177103Y-134088785D01*
X108227313Y-135138995D01*
X108240014Y-135154585D01*
X108248266Y-135167127D01*
X108276026Y-135195285D01*
X108277396Y-135196704D01*
X108299013Y-135219563D01*
X108299018Y-135219568D01*
X108299054Y-135219607D01*
X108304435Y-135225295D01*
X108306572Y-135227628D01*
X108319728Y-135242466D01*
X108326391Y-135249981D01*
X108329275Y-135253386D01*
X108334478Y-135259817D01*
X108342874Y-135270195D01*
X108346331Y-135274728D01*
X108355345Y-135287289D01*
X108358999Y-135292758D01*
X108365565Y-135303328D01*
X108368902Y-135309127D01*
X108375121Y-135320843D01*
X108377770Y-135326224D01*
X108385090Y-135342308D01*
X108386960Y-135346694D01*
X108396115Y-135369686D01*
X108397274Y-135372743D01*
X108406789Y-135399145D01*
X108425562Y-135437918D01*
X108426932Y-135440123D01*
X108427697Y-135441354D01*
X108434218Y-135453723D01*
X108445446Y-135479240D01*
X108452605Y-135495510D01*
X108473292Y-135520120D01*
X108531100Y-135588892D01*
X108531103Y-135588894D01*
X108535639Y-135594291D01*
X108643060Y-135665796D01*
X108649788Y-135667898D01*
X108649790Y-135667899D01*
X108704647Y-135685037D01*
X108766233Y-135704278D01*
X108830744Y-135705460D01*
X108888202Y-135706514D01*
X108888204Y-135706514D01*
X108895255Y-135706643D01*
X108902058Y-135704788D01*
X108902060Y-135704788D01*
X108943828Y-135693400D01*
X109019755Y-135672700D01*
X109129724Y-135605179D01*
X109134796Y-135599576D01*
X109211590Y-135514735D01*
X109211590Y-135514734D01*
X109216322Y-135509507D01*
X109272588Y-135393375D01*
X109286990Y-135307768D01*
X109293363Y-135269891D01*
X109293363Y-135269886D01*
X109293997Y-135266120D01*
X109294133Y-135255000D01*
X109275839Y-135127259D01*
X109229064Y-135024382D01*
X109225349Y-135016212D01*
X109225348Y-135016211D01*
X109222428Y-135009788D01*
X109145573Y-134920593D01*
X109142798Y-134917372D01*
X109142797Y-134917371D01*
X109138193Y-134912028D01*
X109132276Y-134908193D01*
X109132274Y-134908191D01*
X109035824Y-134845677D01*
X109029906Y-134841841D01*
X109011838Y-134836437D01*
X108989111Y-134826384D01*
X108987308Y-134825297D01*
X108987304Y-134825295D01*
X108983143Y-134822788D01*
X108956718Y-134813264D01*
X108953687Y-134812115D01*
X108930697Y-134802961D01*
X108926320Y-134801094D01*
X108915321Y-134796088D01*
X108915247Y-134796055D01*
X108910239Y-134793777D01*
X108904826Y-134791113D01*
X108893135Y-134784906D01*
X108887331Y-134781568D01*
X108876769Y-134775007D01*
X108871285Y-134771341D01*
X108858732Y-134762332D01*
X108854188Y-134758868D01*
X108851056Y-134756334D01*
X108837397Y-134745283D01*
X108833989Y-134742397D01*
X108811634Y-134722576D01*
X108809289Y-134720429D01*
X108780791Y-134693478D01*
X108779315Y-134692052D01*
X108754556Y-134667645D01*
X108754549Y-134667639D01*
X108751123Y-134664262D01*
X108747109Y-134661611D01*
X108747104Y-134661607D01*
X108738343Y-134655821D01*
X108722897Y-134643215D01*
X107672687Y-133593005D01*
X107659986Y-133577415D01*
X107654408Y-133568938D01*
X107651734Y-133564873D01*
X107623956Y-133536696D01*
X107622590Y-133535281D01*
X107595536Y-133506674D01*
X107593447Y-133504393D01*
X107573592Y-133482000D01*
X107570739Y-133478631D01*
X107557113Y-133461789D01*
X107553660Y-133457260D01*
X107551206Y-133453840D01*
X107544654Y-133444710D01*
X107541000Y-133439241D01*
X107534434Y-133428671D01*
X107531097Y-133422872D01*
X107524878Y-133411156D01*
X107522229Y-133405775D01*
X107514909Y-133389691D01*
X107513039Y-133385305D01*
X107503884Y-133362313D01*
X107502725Y-133359256D01*
X107494090Y-133335297D01*
X107493210Y-133332854D01*
X107474444Y-133294093D01*
X107471871Y-133289951D01*
X107471973Y-133289888D01*
X107471818Y-133289607D01*
X107471885Y-133289570D01*
X107465560Y-133278266D01*
X107447348Y-133238211D01*
X107444428Y-133231788D01*
X107433590Y-133219209D01*
X107364798Y-133139372D01*
X107364797Y-133139371D01*
X107360193Y-133134028D01*
X107354276Y-133130193D01*
X107354274Y-133130191D01*
X107257824Y-133067677D01*
X107251906Y-133063841D01*
X107245150Y-133061821D01*
X107245149Y-133061820D01*
X107170564Y-133039514D01*
X107128273Y-133026866D01*
X107051644Y-133026398D01*
X107006282Y-133026121D01*
X106999231Y-133026078D01*
X106992454Y-133028015D01*
X106992453Y-133028015D01*
X106881935Y-133059601D01*
X106881933Y-133059602D01*
X106875155Y-133061539D01*
X106766019Y-133130399D01*
X106680596Y-133227122D01*
X106625754Y-133343932D01*
X106605901Y-133471440D01*
X100644204Y-133471440D01*
X100652815Y-133453840D01*
X100652816Y-133453839D01*
X100653994Y-133451430D01*
X100654905Y-133448903D01*
X100654910Y-133448892D01*
X100668175Y-133412113D01*
X100672209Y-133402534D01*
X100681635Y-133383080D01*
X100681635Y-133383079D01*
X100684710Y-133376733D01*
X100698985Y-133291885D01*
X100707862Y-133239124D01*
X100707862Y-133239120D01*
X100708496Y-133235354D01*
X100708647Y-133223000D01*
X100688323Y-133081082D01*
X100680541Y-133063966D01*
X100673666Y-133003169D01*
X100703841Y-132949941D01*
X100759539Y-132924616D01*
X100770662Y-132923989D01*
X102467924Y-132923989D01*
X102487932Y-132926032D01*
X102497870Y-132928083D01*
X102497871Y-132928083D01*
X102502639Y-132929067D01*
X102507507Y-132929102D01*
X102507510Y-132929102D01*
X102522309Y-132929207D01*
X102542551Y-132929352D01*
X102544610Y-132929388D01*
X102574169Y-132930235D01*
X102584163Y-132930522D01*
X102587485Y-132930673D01*
X102617085Y-132932531D01*
X102621819Y-132932945D01*
X102642523Y-132935260D01*
X102648709Y-132936151D01*
X102653441Y-132936986D01*
X102662468Y-132938579D01*
X102669614Y-132940114D01*
X102679670Y-132942666D01*
X102686964Y-132944819D01*
X102691926Y-132946493D01*
X102697252Y-132948290D01*
X102703758Y-132950743D01*
X102717885Y-132956645D01*
X102722994Y-132958952D01*
X102733075Y-132963855D01*
X102743363Y-132968858D01*
X102746933Y-132970685D01*
X102771028Y-132983637D01*
X102773415Y-132984615D01*
X102773420Y-132984618D01*
X102780824Y-132987654D01*
X102788804Y-132991892D01*
X102788824Y-132991851D01*
X102795188Y-132994887D01*
X102801060Y-132998796D01*
X102807790Y-133000899D01*
X102807791Y-133000899D01*
X102815057Y-133003169D01*
X102924233Y-133037278D01*
X102988744Y-133038461D01*
X103046202Y-133039514D01*
X103046204Y-133039514D01*
X103053255Y-133039643D01*
X103060058Y-133037788D01*
X103060060Y-133037788D01*
X103103010Y-133026078D01*
X103177755Y-133005700D01*
X103287724Y-132938179D01*
X103292702Y-132932680D01*
X103369590Y-132847735D01*
X103369590Y-132847734D01*
X103374322Y-132842507D01*
X103430588Y-132726375D01*
X103445412Y-132638263D01*
X103451363Y-132602891D01*
X103451363Y-132602886D01*
X103451997Y-132599120D01*
X103452133Y-132588000D01*
X103433839Y-132460259D01*
X103380428Y-132342788D01*
X103296193Y-132245028D01*
X103290276Y-132241193D01*
X103290274Y-132241191D01*
X103214668Y-132192187D01*
X103187906Y-132174841D01*
X103181150Y-132172821D01*
X103181149Y-132172820D01*
X103138335Y-132160016D01*
X103064273Y-132137866D01*
X102987644Y-132137398D01*
X102942282Y-132137121D01*
X102935231Y-132137078D01*
X102928454Y-132139015D01*
X102928453Y-132139015D01*
X102891573Y-132149555D01*
X102835787Y-132165499D01*
X102826848Y-132167610D01*
X102821737Y-132168569D01*
X102821733Y-132168570D01*
X102816955Y-132169467D01*
X102788393Y-132180939D01*
X102785385Y-132182089D01*
X102759747Y-132191410D01*
X102755440Y-132192865D01*
X102736441Y-132198795D01*
X102736439Y-132198796D01*
X102735703Y-132199026D01*
X102730284Y-132200552D01*
X102713854Y-132204679D01*
X102707978Y-132205966D01*
X102691441Y-132209062D01*
X102685812Y-132209948D01*
X102665641Y-132212530D01*
X102660902Y-132213020D01*
X102634187Y-132215130D01*
X102630620Y-132215347D01*
X102622055Y-132215712D01*
X102595598Y-132216841D01*
X102593205Y-132216914D01*
X102553067Y-132217655D01*
X102548714Y-132217735D01*
X102547319Y-132217751D01*
X102545531Y-132217759D01*
X102508088Y-132217920D01*
X102508086Y-132217920D01*
X102503254Y-132217941D01*
X102498520Y-132218899D01*
X102498516Y-132218899D01*
X102488012Y-132221024D01*
X102468384Y-132222989D01*
X99884459Y-132222989D01*
X99863623Y-132220771D01*
X99862341Y-132220495D01*
X99853250Y-132218538D01*
X99821440Y-132222303D01*
X99815548Y-132222650D01*
X99815548Y-132222653D01*
X99811481Y-132222989D01*
X99807396Y-132222989D01*
X99803370Y-132223659D01*
X99803359Y-132223660D01*
X99789392Y-132225985D01*
X99784780Y-132226642D01*
X99737372Y-132232253D01*
X99730392Y-132235604D01*
X99729051Y-132236029D01*
X99721408Y-132237301D01*
X99679361Y-132259989D01*
X99675235Y-132262090D01*
X99632184Y-132282763D01*
X99628237Y-132286082D01*
X99626734Y-132287585D01*
X99625451Y-132288762D01*
X99624414Y-132289637D01*
X99618717Y-132292711D01*
X99613165Y-132298717D01*
X99613160Y-132298721D01*
X99584690Y-132329520D01*
X99581996Y-132332323D01*
X97703063Y-134211255D01*
X97686760Y-134224420D01*
X97684726Y-134225733D01*
X97684722Y-134225736D01*
X97677848Y-134230175D01*
X97658015Y-134255332D01*
X97654101Y-134259737D01*
X97654102Y-134259738D01*
X97651449Y-134262869D01*
X97648572Y-134265746D01*
X97637956Y-134280601D01*
X97635170Y-134284312D01*
X97605608Y-134321811D01*
X97603042Y-134329118D01*
X97602395Y-134330363D01*
X97597889Y-134336669D01*
X97595545Y-134344508D01*
X97584208Y-134382415D01*
X97582767Y-134386851D01*
X97569348Y-134425064D01*
X97566945Y-134431906D01*
X97566500Y-134437044D01*
X97566500Y-134439182D01*
X97566426Y-134440901D01*
X97566311Y-134442262D01*
X97564456Y-134448464D01*
X97564777Y-134456635D01*
X97566424Y-134498554D01*
X97566500Y-134502441D01*
X97566500Y-134740437D01*
X97564457Y-134760444D01*
X97562406Y-134770382D01*
X97562405Y-134770387D01*
X97561422Y-134775153D01*
X97561387Y-134780022D01*
X97561387Y-134780025D01*
X97561140Y-134814697D01*
X97561106Y-134816691D01*
X97560008Y-134856034D01*
X97559871Y-134859149D01*
X97558680Y-134878982D01*
X97558080Y-134888961D01*
X97557714Y-134893388D01*
X97556151Y-134908191D01*
X97555440Y-134914927D01*
X97554676Y-134920593D01*
X97552167Y-134935854D01*
X97550882Y-134942315D01*
X97548062Y-134954386D01*
X97546313Y-134960872D01*
X97542435Y-134973526D01*
X97540490Y-134979243D01*
X97534299Y-134995772D01*
X97532525Y-135000182D01*
X97522746Y-135022905D01*
X97521417Y-135025858D01*
X97509451Y-135051312D01*
X97508599Y-135053763D01*
X97508597Y-135053768D01*
X97495581Y-135091214D01*
X97491688Y-135100774D01*
X97481754Y-135121932D01*
X97461901Y-135249440D01*
X89200500Y-135249440D01*
X89200500Y-131058440D01*
X106859901Y-131058440D01*
X106876633Y-131186394D01*
X106928605Y-131304510D01*
X106970122Y-131353901D01*
X107007100Y-131397892D01*
X107007103Y-131397894D01*
X107011639Y-131403291D01*
X107119060Y-131474796D01*
X107125788Y-131476898D01*
X107125790Y-131476899D01*
X107180647Y-131494037D01*
X107242233Y-131513278D01*
X107306744Y-131514460D01*
X107364202Y-131515514D01*
X107364204Y-131515514D01*
X107371255Y-131515643D01*
X107378058Y-131513788D01*
X107378060Y-131513788D01*
X107488947Y-131483556D01*
X107488946Y-131483556D01*
X107495755Y-131481700D01*
X107501770Y-131478007D01*
X107508239Y-131475207D01*
X107508387Y-131475548D01*
X107514665Y-131472544D01*
X107518697Y-131471544D01*
X107523093Y-131469477D01*
X107523096Y-131469476D01*
X107544123Y-131459589D01*
X107547109Y-131458245D01*
X107569785Y-131448485D01*
X107574198Y-131446710D01*
X107582984Y-131443419D01*
X107590775Y-131440501D01*
X107596489Y-131438558D01*
X107609108Y-131434691D01*
X107615600Y-131432940D01*
X107627714Y-131430111D01*
X107634163Y-131428829D01*
X107642693Y-131427426D01*
X107649395Y-131426324D01*
X107655060Y-131425560D01*
X107676602Y-131423286D01*
X107681024Y-131422920D01*
X107710800Y-131421131D01*
X107713966Y-131420992D01*
X107717848Y-131420884D01*
X107753182Y-131419897D01*
X107755238Y-131419861D01*
X107771293Y-131419746D01*
X107794849Y-131419578D01*
X107809859Y-131416508D01*
X107829697Y-131414500D01*
X113732810Y-131414500D01*
X113791001Y-131433407D01*
X113802814Y-131443496D01*
X115190504Y-132831186D01*
X115218281Y-132885703D01*
X115219500Y-132901190D01*
X115219500Y-134994437D01*
X115217457Y-135014444D01*
X115215406Y-135024382D01*
X115215405Y-135024387D01*
X115214422Y-135029153D01*
X115214387Y-135034022D01*
X115214387Y-135034025D01*
X115214140Y-135068697D01*
X115214106Y-135070691D01*
X115213008Y-135110034D01*
X115212871Y-135113149D01*
X115211925Y-135128902D01*
X115211080Y-135142961D01*
X115210714Y-135147388D01*
X115209954Y-135154585D01*
X115208440Y-135168927D01*
X115207676Y-135174593D01*
X115205167Y-135189854D01*
X115203882Y-135196315D01*
X115201062Y-135208386D01*
X115199313Y-135214872D01*
X115195435Y-135227526D01*
X115193490Y-135233243D01*
X115187299Y-135249772D01*
X115185525Y-135254182D01*
X115175746Y-135276905D01*
X115174417Y-135279858D01*
X115162451Y-135305312D01*
X115161599Y-135307763D01*
X115161597Y-135307768D01*
X115148581Y-135345214D01*
X115144688Y-135354774D01*
X115134754Y-135375932D01*
X115114901Y-135503440D01*
X115115816Y-135510437D01*
X115115816Y-135510438D01*
X115116730Y-135517429D01*
X115131633Y-135631394D01*
X115134471Y-135637845D01*
X115134472Y-135637847D01*
X115163759Y-135704407D01*
X115183605Y-135749510D01*
X115225122Y-135798901D01*
X115262100Y-135842892D01*
X115262103Y-135842894D01*
X115266639Y-135848291D01*
X115374060Y-135919796D01*
X115380788Y-135921898D01*
X115380790Y-135921899D01*
X115423813Y-135935340D01*
X115497233Y-135958278D01*
X115561744Y-135959460D01*
X115619202Y-135960514D01*
X115619204Y-135960514D01*
X115626255Y-135960643D01*
X115633058Y-135958788D01*
X115633060Y-135958788D01*
X115674828Y-135947400D01*
X115750755Y-135926700D01*
X115860724Y-135859179D01*
X115947322Y-135763507D01*
X115994663Y-135665796D01*
X116000512Y-135653724D01*
X116000512Y-135653723D01*
X116003588Y-135647375D01*
X116019074Y-135555327D01*
X116024363Y-135523891D01*
X116024363Y-135523886D01*
X116024997Y-135520120D01*
X116025133Y-135509000D01*
X116006839Y-135381259D01*
X115987608Y-135338963D01*
X115981642Y-135321823D01*
X115981392Y-135320813D01*
X115977545Y-135305306D01*
X115965587Y-135279874D01*
X115964280Y-135276971D01*
X115954473Y-135254182D01*
X115952706Y-135249788D01*
X115946509Y-135233243D01*
X115944564Y-135227526D01*
X115940686Y-135214872D01*
X115938937Y-135208386D01*
X115936117Y-135196315D01*
X115934832Y-135189854D01*
X115932323Y-135174593D01*
X115931559Y-135168927D01*
X115930045Y-135154585D01*
X115929285Y-135147388D01*
X115928919Y-135142961D01*
X115928075Y-135128902D01*
X115927128Y-135113149D01*
X115926989Y-135109973D01*
X115925896Y-135070800D01*
X115925859Y-135068742D01*
X115925859Y-135068697D01*
X115925578Y-135029158D01*
X115924602Y-135024382D01*
X115922508Y-135014148D01*
X115920500Y-134994311D01*
X115920500Y-132762953D01*
X115922718Y-132742115D01*
X115923230Y-132739739D01*
X115923230Y-132739738D01*
X115924952Y-132731740D01*
X115921186Y-132699921D01*
X115920839Y-132694043D01*
X115920837Y-132694043D01*
X115920500Y-132689965D01*
X115920500Y-132685885D01*
X115917507Y-132667904D01*
X115916851Y-132663297D01*
X115916332Y-132658909D01*
X115911237Y-132615862D01*
X115907882Y-132608877D01*
X115907460Y-132607543D01*
X115906188Y-132599897D01*
X115883505Y-132557859D01*
X115881400Y-132553726D01*
X115863424Y-132516291D01*
X115860727Y-132510674D01*
X115857408Y-132506726D01*
X115855903Y-132505221D01*
X115854719Y-132503930D01*
X115853852Y-132502902D01*
X115850778Y-132497206D01*
X115844773Y-132491655D01*
X115844769Y-132491650D01*
X115813982Y-132463191D01*
X115811179Y-132460497D01*
X114200745Y-130850063D01*
X114187580Y-130833760D01*
X114186267Y-130831726D01*
X114186264Y-130831722D01*
X114181825Y-130824848D01*
X114156668Y-130805015D01*
X114152263Y-130801101D01*
X114152262Y-130801102D01*
X114149131Y-130798449D01*
X114146254Y-130795572D01*
X114131399Y-130784956D01*
X114127681Y-130782165D01*
X114096614Y-130757673D01*
X114096613Y-130757673D01*
X114090189Y-130752608D01*
X114082882Y-130750042D01*
X114081637Y-130749395D01*
X114075331Y-130744889D01*
X114043542Y-130735382D01*
X114029585Y-130731208D01*
X114025149Y-130729767D01*
X113985967Y-130716007D01*
X113985964Y-130716006D01*
X113980094Y-130713945D01*
X113974956Y-130713500D01*
X113972818Y-130713500D01*
X113971099Y-130713426D01*
X113969738Y-130713311D01*
X113963536Y-130711456D01*
X113955365Y-130711777D01*
X113913446Y-130713424D01*
X113909559Y-130713500D01*
X107829560Y-130713500D01*
X107809553Y-130711457D01*
X107799615Y-130709406D01*
X107799612Y-130709406D01*
X107794845Y-130708422D01*
X107755282Y-130708141D01*
X107753348Y-130708106D01*
X107713993Y-130707008D01*
X107710818Y-130706869D01*
X107681036Y-130705080D01*
X107676581Y-130704711D01*
X107670693Y-130704090D01*
X107655076Y-130702441D01*
X107649406Y-130701676D01*
X107634148Y-130699167D01*
X107627705Y-130697887D01*
X107615603Y-130695060D01*
X107609126Y-130693313D01*
X107596478Y-130689437D01*
X107590759Y-130687492D01*
X107574209Y-130681293D01*
X107569802Y-130679520D01*
X107547108Y-130669754D01*
X107544118Y-130668408D01*
X107521052Y-130657563D01*
X107521044Y-130657560D01*
X107518690Y-130656453D01*
X107516245Y-130655603D01*
X107516230Y-130655597D01*
X107511080Y-130653807D01*
X107509493Y-130653166D01*
X107505906Y-130650841D01*
X107499156Y-130648822D01*
X107499151Y-130648820D01*
X107483932Y-130644269D01*
X107480979Y-130643315D01*
X107480485Y-130643172D01*
X107478029Y-130642318D01*
X107475502Y-130641727D01*
X107473608Y-130641178D01*
X107472906Y-130640972D01*
X107382273Y-130613866D01*
X107303810Y-130613387D01*
X107260282Y-130613121D01*
X107253231Y-130613078D01*
X107246454Y-130615015D01*
X107246453Y-130615015D01*
X107135935Y-130646601D01*
X107135933Y-130646602D01*
X107129155Y-130648539D01*
X107020019Y-130717399D01*
X106934596Y-130814122D01*
X106879754Y-130930932D01*
X106859901Y-131058440D01*
X89200500Y-131058440D01*
X89200500Y-129764771D01*
X89219407Y-129706580D01*
X89268907Y-129670616D01*
X89330093Y-129670616D01*
X89369504Y-129694767D01*
X89370315Y-129695578D01*
X89374269Y-129700731D01*
X89495741Y-129793939D01*
X89637198Y-129852533D01*
X89750884Y-129867500D01*
X91351116Y-129867500D01*
X91464802Y-129852533D01*
X91606259Y-129793939D01*
X91727731Y-129700731D01*
X91771084Y-129644233D01*
X91821507Y-129609577D01*
X91849625Y-129605500D01*
X92570382Y-129605500D01*
X92591438Y-129607765D01*
X92604798Y-129610673D01*
X92758890Y-129613441D01*
X92763522Y-129613634D01*
X92843760Y-129618854D01*
X92897149Y-129622328D01*
X92903528Y-129622951D01*
X93013138Y-129637251D01*
X93021317Y-129638669D01*
X93110966Y-129658115D01*
X93120548Y-129660702D01*
X93195930Y-129685173D01*
X93205933Y-129689032D01*
X93240767Y-129704685D01*
X93274139Y-129719682D01*
X93283301Y-129724387D01*
X93351414Y-129763969D01*
X93358754Y-129768679D01*
X93406030Y-129802045D01*
X93432262Y-129820559D01*
X93437430Y-129824467D01*
X93520087Y-129891349D01*
X93523246Y-129894019D01*
X93614197Y-129974258D01*
X93616298Y-129975753D01*
X93631940Y-129986885D01*
X93643614Y-129996626D01*
X93665466Y-130017913D01*
X93833637Y-130130282D01*
X94019470Y-130210122D01*
X94216740Y-130254760D01*
X94418842Y-130262700D01*
X94472377Y-130254938D01*
X94614519Y-130234329D01*
X94614522Y-130234328D01*
X94619007Y-130233678D01*
X94714769Y-130201171D01*
X94806234Y-130170123D01*
X94806237Y-130170121D01*
X94810531Y-130168664D01*
X94987001Y-130069837D01*
X95142505Y-129940505D01*
X95271837Y-129785001D01*
X95310594Y-129715795D01*
X95355522Y-129674263D01*
X95416283Y-129667071D01*
X95472753Y-129700467D01*
X95488905Y-129719682D01*
X95547970Y-129789948D01*
X95553841Y-129793856D01*
X95553842Y-129793857D01*
X95566143Y-129802045D01*
X95667313Y-129869390D01*
X95767920Y-129900821D01*
X95797425Y-129910039D01*
X95797426Y-129910039D01*
X95804157Y-129912142D01*
X95875828Y-129913456D01*
X95940445Y-129914641D01*
X95940447Y-129914641D01*
X95947499Y-129914770D01*
X95954302Y-129912915D01*
X95954304Y-129912915D01*
X96029503Y-129892413D01*
X96085817Y-129877060D01*
X96207991Y-129802045D01*
X96215403Y-129793857D01*
X96299468Y-129700982D01*
X96304200Y-129695754D01*
X96366710Y-129566733D01*
X96368324Y-129557143D01*
X96389862Y-129429124D01*
X96389862Y-129429120D01*
X96390496Y-129425354D01*
X96390647Y-129413000D01*
X96389851Y-129407440D01*
X106859901Y-129407440D01*
X106860816Y-129414437D01*
X106860816Y-129414438D01*
X106862905Y-129430416D01*
X106876633Y-129535394D01*
X106879471Y-129541845D01*
X106879472Y-129541847D01*
X106921451Y-129637251D01*
X106928605Y-129653510D01*
X106958467Y-129689035D01*
X107007100Y-129746892D01*
X107007103Y-129746894D01*
X107011639Y-129752291D01*
X107119060Y-129823796D01*
X107125788Y-129825898D01*
X107125790Y-129825899D01*
X107180647Y-129843037D01*
X107242233Y-129862278D01*
X107306744Y-129863461D01*
X107364202Y-129864514D01*
X107364204Y-129864514D01*
X107371255Y-129864643D01*
X107378058Y-129862788D01*
X107378060Y-129862788D01*
X107419828Y-129851400D01*
X107495755Y-129830700D01*
X107605724Y-129763179D01*
X107666754Y-129695754D01*
X107687590Y-129672735D01*
X107687590Y-129672734D01*
X107692322Y-129667507D01*
X107696488Y-129658909D01*
X107738008Y-129573215D01*
X107742299Y-129565297D01*
X107744700Y-129561311D01*
X107744701Y-129561310D01*
X107747211Y-129557143D01*
X107756738Y-129530709D01*
X107757893Y-129527665D01*
X107767038Y-129504697D01*
X107768908Y-129500310D01*
X107776229Y-129484224D01*
X107778878Y-129478843D01*
X107785098Y-129467127D01*
X107788436Y-129461323D01*
X107794999Y-129450759D01*
X107798659Y-129445284D01*
X107807662Y-129432738D01*
X107811129Y-129428190D01*
X107824719Y-129411392D01*
X107827607Y-129407982D01*
X107828088Y-129407440D01*
X107847450Y-129385602D01*
X107849518Y-129383344D01*
X107876525Y-129354786D01*
X107877893Y-129353369D01*
X107905736Y-129325126D01*
X107908393Y-129321103D01*
X107914179Y-129312343D01*
X107926785Y-129296897D01*
X108828186Y-128395496D01*
X108882703Y-128367719D01*
X108898190Y-128366500D01*
X115182444Y-128366500D01*
X115202441Y-128368541D01*
X115217159Y-128371578D01*
X115242710Y-128371759D01*
X115256641Y-128371858D01*
X115258698Y-128371894D01*
X115298004Y-128372990D01*
X115301181Y-128373130D01*
X115330963Y-128374919D01*
X115335418Y-128375288D01*
X115341306Y-128375909D01*
X115356923Y-128377558D01*
X115362593Y-128378323D01*
X115377851Y-128380832D01*
X115384294Y-128382112D01*
X115396396Y-128384939D01*
X115402873Y-128386686D01*
X115415521Y-128390562D01*
X115421240Y-128392507D01*
X115437790Y-128398706D01*
X115442199Y-128400480D01*
X115464894Y-128410247D01*
X115467838Y-128411571D01*
X115493307Y-128423546D01*
X115499315Y-128425635D01*
X115498784Y-128427161D01*
X115500796Y-128427638D01*
X115501059Y-128426795D01*
X115501060Y-128426796D01*
X115515363Y-128431264D01*
X115518251Y-128432217D01*
X115533971Y-128437682D01*
X115536508Y-128438275D01*
X115538115Y-128438651D01*
X115545103Y-128440556D01*
X115624233Y-128465278D01*
X115688744Y-128466461D01*
X115746202Y-128467514D01*
X115746204Y-128467514D01*
X115753255Y-128467643D01*
X115760058Y-128465788D01*
X115760060Y-128465788D01*
X115801828Y-128454400D01*
X115877755Y-128433700D01*
X115987724Y-128366179D01*
X115992459Y-128360948D01*
X116069590Y-128275735D01*
X116069590Y-128275734D01*
X116074322Y-128270507D01*
X116116972Y-128182478D01*
X116127512Y-128160724D01*
X116127512Y-128160723D01*
X116130588Y-128154375D01*
X116141811Y-128087665D01*
X116151363Y-128030891D01*
X116151363Y-128030886D01*
X116151997Y-128027120D01*
X116152133Y-128016000D01*
X116133839Y-127888259D01*
X116080428Y-127770788D01*
X116021576Y-127702487D01*
X116000798Y-127678372D01*
X116000797Y-127678371D01*
X115996193Y-127673028D01*
X115990276Y-127669193D01*
X115990274Y-127669191D01*
X115896561Y-127608451D01*
X115887906Y-127602841D01*
X115881150Y-127600821D01*
X115881149Y-127600820D01*
X115838335Y-127588016D01*
X115764273Y-127565866D01*
X115687644Y-127565398D01*
X115642282Y-127565121D01*
X115635231Y-127565078D01*
X115628454Y-127567015D01*
X115628453Y-127567015D01*
X115517939Y-127598600D01*
X115511155Y-127600539D01*
X115505185Y-127604306D01*
X115504056Y-127604811D01*
X115497659Y-127607373D01*
X115493312Y-127608451D01*
X115467821Y-127620435D01*
X115464893Y-127621753D01*
X115446075Y-127629852D01*
X115442223Y-127631510D01*
X115437813Y-127633284D01*
X115421232Y-127639495D01*
X115415510Y-127641441D01*
X115402891Y-127645308D01*
X115396399Y-127647059D01*
X115384285Y-127649888D01*
X115377836Y-127651170D01*
X115369306Y-127652573D01*
X115362604Y-127653675D01*
X115356940Y-127654439D01*
X115335397Y-127656713D01*
X115330975Y-127657079D01*
X115301199Y-127658868D01*
X115298036Y-127659007D01*
X115292517Y-127659161D01*
X115258751Y-127660104D01*
X115256693Y-127660140D01*
X115239704Y-127660261D01*
X115217153Y-127660422D01*
X115212426Y-127661389D01*
X115212424Y-127661389D01*
X115202142Y-127663492D01*
X115182305Y-127665500D01*
X108759948Y-127665500D01*
X108739112Y-127663282D01*
X108737830Y-127663006D01*
X108728739Y-127661049D01*
X108696929Y-127664814D01*
X108691037Y-127665161D01*
X108691037Y-127665164D01*
X108686970Y-127665500D01*
X108682885Y-127665500D01*
X108678859Y-127666170D01*
X108678848Y-127666171D01*
X108664881Y-127668496D01*
X108660269Y-127669153D01*
X108612861Y-127674764D01*
X108605881Y-127678115D01*
X108604540Y-127678540D01*
X108596897Y-127679812D01*
X108554850Y-127702500D01*
X108550717Y-127704605D01*
X108513293Y-127722575D01*
X108513291Y-127722576D01*
X108507673Y-127725274D01*
X108503726Y-127728592D01*
X108502220Y-127730098D01*
X108500931Y-127731280D01*
X108499902Y-127732149D01*
X108494206Y-127735222D01*
X108488655Y-127741227D01*
X108488650Y-127741231D01*
X108460191Y-127772018D01*
X108457497Y-127774821D01*
X107431009Y-128801309D01*
X107415417Y-128814011D01*
X107402871Y-128822265D01*
X107399408Y-128825679D01*
X107399403Y-128825683D01*
X107374707Y-128850029D01*
X107373230Y-128851456D01*
X107350437Y-128873012D01*
X107350427Y-128873022D01*
X107344699Y-128878439D01*
X107342353Y-128880587D01*
X107320031Y-128900378D01*
X107316626Y-128903263D01*
X107299785Y-128916889D01*
X107295260Y-128920338D01*
X107282716Y-128929341D01*
X107277246Y-128932996D01*
X107266674Y-128939563D01*
X107260854Y-128942910D01*
X107249165Y-128949115D01*
X107243761Y-128951777D01*
X107227690Y-128959091D01*
X107223316Y-128960955D01*
X107200345Y-128970102D01*
X107197301Y-128971257D01*
X107170853Y-128980789D01*
X107154195Y-128988855D01*
X107138267Y-128994935D01*
X107129155Y-128997539D01*
X107123191Y-129001302D01*
X107123189Y-129001303D01*
X107063366Y-129039049D01*
X107020019Y-129066399D01*
X106934596Y-129163122D01*
X106879754Y-129279932D01*
X106859901Y-129407440D01*
X96389851Y-129407440D01*
X96370323Y-129271082D01*
X96346412Y-129218493D01*
X96340827Y-129202837D01*
X96337238Y-129189270D01*
X96337237Y-129189269D01*
X96335995Y-129184572D01*
X96316228Y-129144168D01*
X96316177Y-129144062D01*
X96296713Y-129104158D01*
X96295901Y-129102453D01*
X96281562Y-129071574D01*
X96279952Y-129067915D01*
X96270258Y-129044621D01*
X96268133Y-129039049D01*
X96261756Y-129020674D01*
X96259637Y-129013759D01*
X96254932Y-128996124D01*
X96253278Y-128988828D01*
X96249191Y-128967005D01*
X96248170Y-128960290D01*
X96244638Y-128930108D01*
X96244147Y-128924569D01*
X96241648Y-128883099D01*
X96241483Y-128878834D01*
X96240747Y-128835741D01*
X96240666Y-128830992D01*
X96239681Y-128826350D01*
X96239680Y-128826344D01*
X96237657Y-128816814D01*
X96235500Y-128796260D01*
X96235500Y-127144323D01*
X119358891Y-127144323D01*
X119359806Y-127151320D01*
X119359806Y-127151321D01*
X119369411Y-127224771D01*
X119377480Y-127286479D01*
X119380321Y-127292935D01*
X119380321Y-127292936D01*
X119420019Y-127383155D01*
X119435220Y-127417703D01*
X119448292Y-127433254D01*
X119522931Y-127522049D01*
X119522934Y-127522051D01*
X119527470Y-127527448D01*
X119533341Y-127531356D01*
X119533342Y-127531357D01*
X119545643Y-127539545D01*
X119646813Y-127606890D01*
X119725619Y-127631510D01*
X119776925Y-127647539D01*
X119776926Y-127647539D01*
X119783657Y-127649642D01*
X119855328Y-127650956D01*
X119919945Y-127652141D01*
X119919947Y-127652141D01*
X119926999Y-127652270D01*
X119933802Y-127650415D01*
X119933804Y-127650415D01*
X120038904Y-127621761D01*
X120065317Y-127614560D01*
X120187491Y-127539545D01*
X120194903Y-127531357D01*
X120278968Y-127438482D01*
X120283700Y-127433254D01*
X120332869Y-127331769D01*
X120340414Y-127316197D01*
X120341736Y-127313711D01*
X120342481Y-127312080D01*
X120344925Y-127307877D01*
X120346089Y-127304482D01*
X120346210Y-127304233D01*
X120346244Y-127304031D01*
X120354664Y-127279482D01*
X120359481Y-127265437D01*
X120359518Y-127265328D01*
X120374016Y-127223217D01*
X120374648Y-127221436D01*
X120374759Y-127221133D01*
X120386344Y-127189461D01*
X120387777Y-127185777D01*
X120388139Y-127184900D01*
X120397402Y-127162427D01*
X120399826Y-127157016D01*
X120408316Y-127139503D01*
X120411704Y-127133120D01*
X120420864Y-127117292D01*
X120424858Y-127110957D01*
X120437393Y-127092646D01*
X120441408Y-127087193D01*
X120460260Y-127063342D01*
X120463816Y-127059094D01*
X120491384Y-127027990D01*
X120494269Y-127024873D01*
X120500371Y-127018559D01*
X120527533Y-126990454D01*
X120535429Y-126978303D01*
X120548435Y-126962247D01*
X122163186Y-125347496D01*
X122217703Y-125319719D01*
X122233190Y-125318500D01*
X123589553Y-125318500D01*
X123610519Y-125320746D01*
X123619239Y-125322636D01*
X123619243Y-125322636D01*
X123623994Y-125323666D01*
X123628855Y-125323749D01*
X123671826Y-125324483D01*
X123676089Y-125324648D01*
X123705168Y-125326400D01*
X123717575Y-125327148D01*
X123723108Y-125327638D01*
X123753297Y-125331171D01*
X123760004Y-125332191D01*
X123772860Y-125334598D01*
X123781808Y-125336273D01*
X123789109Y-125337928D01*
X123806766Y-125342639D01*
X123813701Y-125344764D01*
X123832069Y-125351140D01*
X123837627Y-125353259D01*
X123846723Y-125357045D01*
X123860916Y-125362952D01*
X123864568Y-125364559D01*
X123876515Y-125370106D01*
X123895455Y-125378901D01*
X123897098Y-125379683D01*
X123937065Y-125399178D01*
X123937153Y-125399263D01*
X123937170Y-125399229D01*
X123977572Y-125418995D01*
X123980099Y-125419906D01*
X123980105Y-125419909D01*
X123980134Y-125419919D01*
X123984055Y-125421556D01*
X123988313Y-125424390D01*
X124086099Y-125454940D01*
X124118425Y-125465039D01*
X124118426Y-125465039D01*
X124125157Y-125467142D01*
X124196828Y-125468456D01*
X124261445Y-125469641D01*
X124261447Y-125469641D01*
X124268499Y-125469770D01*
X124275302Y-125467915D01*
X124275304Y-125467915D01*
X124380356Y-125439274D01*
X124406817Y-125432060D01*
X124518116Y-125363722D01*
X124522978Y-125360737D01*
X124528991Y-125357045D01*
X124540105Y-125344767D01*
X124620468Y-125255982D01*
X124625200Y-125250754D01*
X124687710Y-125121733D01*
X124689287Y-125112363D01*
X124710862Y-124984124D01*
X124710862Y-124984120D01*
X124711496Y-124980354D01*
X124711647Y-124968000D01*
X124691323Y-124826082D01*
X124631984Y-124695572D01*
X124552455Y-124603274D01*
X124543005Y-124592307D01*
X124543004Y-124592306D01*
X124538400Y-124586963D01*
X124418095Y-124508985D01*
X124280739Y-124467907D01*
X124197497Y-124467398D01*
X124144427Y-124467074D01*
X124144426Y-124467074D01*
X124137376Y-124467031D01*
X124130599Y-124468968D01*
X124130598Y-124468968D01*
X124006306Y-124504491D01*
X123999529Y-124506428D01*
X123993567Y-124510190D01*
X123987128Y-124513070D01*
X123987073Y-124512946D01*
X123980378Y-124516261D01*
X123977575Y-124517003D01*
X123973216Y-124519136D01*
X123973212Y-124519137D01*
X123937055Y-124536826D01*
X123936952Y-124536876D01*
X123897198Y-124556267D01*
X123895492Y-124557079D01*
X123864570Y-124571438D01*
X123860915Y-124573046D01*
X123837631Y-124582737D01*
X123832060Y-124584862D01*
X123813701Y-124591235D01*
X123806766Y-124593360D01*
X123789109Y-124598071D01*
X123781806Y-124599726D01*
X123760004Y-124603808D01*
X123753298Y-124604828D01*
X123723108Y-124608361D01*
X123717577Y-124608851D01*
X123705974Y-124609551D01*
X123676101Y-124611351D01*
X123671838Y-124611516D01*
X123645307Y-124611970D01*
X123623988Y-124612334D01*
X123619329Y-124613323D01*
X123609816Y-124615342D01*
X123589260Y-124617500D01*
X122094948Y-124617500D01*
X122074112Y-124615282D01*
X122072830Y-124615006D01*
X122063739Y-124613049D01*
X122031929Y-124616814D01*
X122026037Y-124617161D01*
X122026037Y-124617164D01*
X122021970Y-124617500D01*
X122017885Y-124617500D01*
X122013859Y-124618170D01*
X122013848Y-124618171D01*
X121999881Y-124620496D01*
X121995269Y-124621153D01*
X121947861Y-124626764D01*
X121940878Y-124630117D01*
X121939544Y-124630539D01*
X121931897Y-124631812D01*
X121924696Y-124635698D01*
X121924695Y-124635698D01*
X121889861Y-124654494D01*
X121885703Y-124656612D01*
X121848288Y-124674578D01*
X121848287Y-124674579D01*
X121842674Y-124677274D01*
X121838726Y-124680592D01*
X121837216Y-124682102D01*
X121835929Y-124683282D01*
X121834903Y-124684148D01*
X121829206Y-124687222D01*
X121823655Y-124693227D01*
X121823650Y-124693231D01*
X121795191Y-124724018D01*
X121792497Y-124726821D01*
X120052553Y-126466765D01*
X120036136Y-126480004D01*
X120028641Y-126484829D01*
X120028638Y-126484832D01*
X120024547Y-126487465D01*
X120021049Y-126490846D01*
X119990125Y-126520731D01*
X119986992Y-126523630D01*
X119955933Y-126551158D01*
X119951660Y-126554736D01*
X119927804Y-126573593D01*
X119922336Y-126577618D01*
X119904043Y-126590141D01*
X119897709Y-126594134D01*
X119881894Y-126603287D01*
X119875494Y-126606685D01*
X119870755Y-126608982D01*
X119857999Y-126615165D01*
X119852564Y-126617600D01*
X119829249Y-126627211D01*
X119825546Y-126628651D01*
X119793411Y-126640405D01*
X119791835Y-126640965D01*
X119750002Y-126655368D01*
X119749887Y-126655387D01*
X119749893Y-126655404D01*
X119709664Y-126669202D01*
X119709658Y-126669205D01*
X119707117Y-126670076D01*
X119704677Y-126671223D01*
X119704676Y-126671223D01*
X119688150Y-126678989D01*
X119673249Y-126684578D01*
X119669243Y-126685723D01*
X119658029Y-126688928D01*
X119536780Y-126765430D01*
X119532113Y-126770714D01*
X119532111Y-126770716D01*
X119446544Y-126867603D01*
X119446542Y-126867605D01*
X119441877Y-126872888D01*
X119380947Y-127002663D01*
X119379862Y-127009632D01*
X119379861Y-127009635D01*
X119371839Y-127061162D01*
X119358891Y-127144323D01*
X96235500Y-127144323D01*
X96235500Y-122729953D01*
X96237718Y-122709115D01*
X96238230Y-122706739D01*
X96238230Y-122706738D01*
X96239952Y-122698740D01*
X96236186Y-122666923D01*
X96235839Y-122661043D01*
X96235837Y-122661043D01*
X96235500Y-122656967D01*
X96235500Y-122652885D01*
X96232505Y-122634892D01*
X96231850Y-122630290D01*
X96227197Y-122590984D01*
X96226236Y-122582862D01*
X96222882Y-122575877D01*
X96222461Y-122574546D01*
X96221188Y-122566897D01*
X96198495Y-122524840D01*
X96196395Y-122520717D01*
X96178420Y-122483283D01*
X96178418Y-122483279D01*
X96175726Y-122477674D01*
X96172408Y-122473726D01*
X96170900Y-122472218D01*
X96169718Y-122470929D01*
X96168852Y-122469903D01*
X96165778Y-122464206D01*
X96159773Y-122458655D01*
X96159769Y-122458650D01*
X96128982Y-122430191D01*
X96126179Y-122427497D01*
X95404745Y-121706063D01*
X95391580Y-121689760D01*
X95390267Y-121687726D01*
X95390264Y-121687722D01*
X95385825Y-121680848D01*
X95360668Y-121661015D01*
X95356263Y-121657101D01*
X95356262Y-121657102D01*
X95353131Y-121654449D01*
X95350254Y-121651572D01*
X95335399Y-121640956D01*
X95331681Y-121638165D01*
X95328726Y-121635835D01*
X95294189Y-121608608D01*
X95286882Y-121606042D01*
X95285637Y-121605395D01*
X95279331Y-121600889D01*
X95247542Y-121591382D01*
X95233585Y-121587208D01*
X95229149Y-121585767D01*
X95189967Y-121572007D01*
X95189964Y-121572006D01*
X95184094Y-121569945D01*
X95178956Y-121569500D01*
X95176818Y-121569500D01*
X95175099Y-121569426D01*
X95173738Y-121569311D01*
X95167536Y-121567456D01*
X95159365Y-121567777D01*
X95117446Y-121569424D01*
X95113559Y-121569500D01*
X93138953Y-121569500D01*
X93118117Y-121567282D01*
X93116782Y-121566995D01*
X93115739Y-121566770D01*
X93115738Y-121566770D01*
X93107740Y-121565048D01*
X93075924Y-121568814D01*
X93070043Y-121569161D01*
X93070043Y-121569163D01*
X93065967Y-121569500D01*
X93061885Y-121569500D01*
X93043892Y-121572495D01*
X93039290Y-121573150D01*
X93019130Y-121575537D01*
X92991862Y-121578764D01*
X92984877Y-121582118D01*
X92983546Y-121582539D01*
X92975897Y-121583812D01*
X92933840Y-121606505D01*
X92929717Y-121608605D01*
X92892283Y-121626580D01*
X92892279Y-121626582D01*
X92886674Y-121629274D01*
X92882726Y-121632592D01*
X92881218Y-121634100D01*
X92879929Y-121635282D01*
X92878903Y-121636148D01*
X92873206Y-121639222D01*
X92867655Y-121645227D01*
X92867650Y-121645231D01*
X92839191Y-121676018D01*
X92836497Y-121678821D01*
X92115063Y-122400255D01*
X92098760Y-122413420D01*
X92096726Y-122414733D01*
X92096722Y-122414736D01*
X92089848Y-122419175D01*
X92070015Y-122444332D01*
X92066101Y-122448737D01*
X92066102Y-122448738D01*
X92063449Y-122451869D01*
X92060572Y-122454746D01*
X92049956Y-122469601D01*
X92047170Y-122473312D01*
X92017608Y-122510811D01*
X92015042Y-122518118D01*
X92014395Y-122519363D01*
X92009889Y-122525669D01*
X92007545Y-122533508D01*
X91996208Y-122571415D01*
X91994767Y-122575851D01*
X91993977Y-122578102D01*
X91978945Y-122620906D01*
X91978500Y-122626044D01*
X91978500Y-122628182D01*
X91978426Y-122629901D01*
X91978311Y-122631262D01*
X91976456Y-122637464D01*
X91976777Y-122645635D01*
X91978424Y-122687554D01*
X91978500Y-122691441D01*
X91978500Y-125604434D01*
X91959593Y-125662625D01*
X91910093Y-125698589D01*
X91848907Y-125698589D01*
X91800958Y-125664701D01*
X91731685Y-125574422D01*
X91727731Y-125569269D01*
X91606259Y-125476061D01*
X91491126Y-125428371D01*
X91470799Y-125419951D01*
X91464802Y-125417467D01*
X91351116Y-125402500D01*
X89750884Y-125402500D01*
X89637198Y-125417467D01*
X89631201Y-125419951D01*
X89610874Y-125428371D01*
X89495741Y-125476061D01*
X89374269Y-125569269D01*
X89370315Y-125574422D01*
X89369504Y-125575233D01*
X89314987Y-125603010D01*
X89254555Y-125593439D01*
X89211290Y-125550174D01*
X89200500Y-125505229D01*
X89200500Y-119299500D01*
X89219407Y-119241309D01*
X89268907Y-119205345D01*
X89299500Y-119200500D01*
X125401000Y-119200500D01*
X125459191Y-119219407D01*
G37*
%TD.AperFunction*%
%TD*%
M02*
