%TF.GenerationSoftware,KiCad,Pcbnew,(6.0.5)*%
%TF.CreationDate,2023-01-30T15:53:00+08:00*%
%TF.ProjectId,Mini_Remoter,4d696e69-5f52-4656-9d6f-7465722e6b69,rev?*%
%TF.SameCoordinates,Original*%
%TF.FileFunction,Soldermask,Bot*%
%TF.FilePolarity,Negative*%
%FSLAX46Y46*%
G04 Gerber Fmt 4.6, Leading zero omitted, Abs format (unit mm)*
G04 Created by KiCad (PCBNEW (6.0.5)) date 2023-01-30 15:53:00*
%MOMM*%
%LPD*%
G01*
G04 APERTURE LIST*
G04 Aperture macros list*
%AMRoundRect*
0 Rectangle with rounded corners*
0 $1 Rounding radius*
0 $2 $3 $4 $5 $6 $7 $8 $9 X,Y pos of 4 corners*
0 Add a 4 corners polygon primitive as box body*
4,1,4,$2,$3,$4,$5,$6,$7,$8,$9,$2,$3,0*
0 Add four circle primitives for the rounded corners*
1,1,$1+$1,$2,$3*
1,1,$1+$1,$4,$5*
1,1,$1+$1,$6,$7*
1,1,$1+$1,$8,$9*
0 Add four rect primitives between the rounded corners*
20,1,$1+$1,$2,$3,$4,$5,0*
20,1,$1+$1,$4,$5,$6,$7,0*
20,1,$1+$1,$6,$7,$8,$9,0*
20,1,$1+$1,$8,$9,$2,$3,0*%
G04 Aperture macros list end*
%ADD10R,0.500000X1.400000*%
%ADD11R,1.400000X0.500000*%
%ADD12RoundRect,0.250000X0.325000X1.100000X-0.325000X1.100000X-0.325000X-1.100000X0.325000X-1.100000X0*%
%ADD13R,1.400000X1.200000*%
%ADD14C,0.650000*%
%ADD15O,1.000000X2.100000*%
%ADD16O,1.000000X1.600000*%
%ADD17R,0.600000X1.150000*%
%ADD18R,0.300000X1.150000*%
%ADD19RoundRect,0.600000X-0.800000X0.600000X-0.800000X-0.600000X0.800000X-0.600000X0.800000X0.600000X0*%
%ADD20RoundRect,0.150000X-0.150000X0.600000X-0.150000X-0.600000X0.150000X-0.600000X0.150000X0.600000X0*%
%ADD21RoundRect,0.500000X-1.000000X0.500000X-1.000000X-0.500000X1.000000X-0.500000X1.000000X0.500000X0*%
%ADD22RoundRect,0.250000X-0.750000X0.250000X-0.750000X-0.250000X0.750000X-0.250000X0.750000X0.250000X0*%
%ADD23R,2.300000X2.300000*%
%ADD24RoundRect,0.150000X0.825000X0.150000X-0.825000X0.150000X-0.825000X-0.150000X0.825000X-0.150000X0*%
%ADD25RoundRect,0.087500X-0.087500X-1.012500X0.087500X-1.012500X0.087500X1.012500X-0.087500X1.012500X0*%
%ADD26RoundRect,0.150000X0.150000X-0.587500X0.150000X0.587500X-0.150000X0.587500X-0.150000X-0.587500X0*%
%ADD27RoundRect,0.450000X-0.450000X-2.300000X0.450000X-2.300000X0.450000X2.300000X-0.450000X2.300000X0*%
%ADD28RoundRect,0.150000X0.150000X0.450000X-0.150000X0.450000X-0.150000X-0.450000X0.150000X-0.450000X0*%
%ADD29RoundRect,0.200000X0.200000X0.425000X-0.200000X0.425000X-0.200000X-0.425000X0.200000X-0.425000X0*%
%ADD30RoundRect,0.237500X0.250000X0.237500X-0.250000X0.237500X-0.250000X-0.237500X0.250000X-0.237500X0*%
%ADD31RoundRect,0.237500X-0.250000X-0.237500X0.250000X-0.237500X0.250000X0.237500X-0.250000X0.237500X0*%
%ADD32RoundRect,0.237500X0.237500X-0.250000X0.237500X0.250000X-0.237500X0.250000X-0.237500X-0.250000X0*%
%ADD33RoundRect,0.237500X-0.237500X0.250000X-0.237500X-0.250000X0.237500X-0.250000X0.237500X0.250000X0*%
%ADD34RoundRect,0.150000X0.587500X0.150000X-0.587500X0.150000X-0.587500X-0.150000X0.587500X-0.150000X0*%
%ADD35RoundRect,0.450000X0.450000X0.650000X-0.450000X0.650000X-0.450000X-0.650000X0.450000X-0.650000X0*%
%ADD36RoundRect,0.150000X0.150000X0.475000X-0.150000X0.475000X-0.150000X-0.475000X0.150000X-0.475000X0*%
%ADD37RoundRect,0.225000X0.225000X0.625000X-0.225000X0.625000X-0.225000X-0.625000X0.225000X-0.625000X0*%
%ADD38RoundRect,0.250000X-1.650000X0.250000X-1.650000X-0.250000X1.650000X-0.250000X1.650000X0.250000X0*%
%ADD39RoundRect,0.375000X-1.325000X0.375000X-1.325000X-0.375000X1.325000X-0.375000X1.325000X0.375000X0*%
%ADD40R,0.900000X1.200000*%
%ADD41RoundRect,0.237500X0.237500X-0.300000X0.237500X0.300000X-0.237500X0.300000X-0.237500X-0.300000X0*%
%ADD42RoundRect,0.237500X-0.300000X-0.237500X0.300000X-0.237500X0.300000X0.237500X-0.300000X0.237500X0*%
%ADD43RoundRect,0.237500X-0.237500X0.300000X-0.237500X-0.300000X0.237500X-0.300000X0.237500X0.300000X0*%
%ADD44RoundRect,0.250000X0.325000X0.650000X-0.325000X0.650000X-0.325000X-0.650000X0.325000X-0.650000X0*%
%ADD45RoundRect,0.250000X-0.650000X0.325000X-0.650000X-0.325000X0.650000X-0.325000X0.650000X0.325000X0*%
%ADD46RoundRect,0.237500X0.300000X0.237500X-0.300000X0.237500X-0.300000X-0.237500X0.300000X-0.237500X0*%
%ADD47RoundRect,0.350000X-0.350000X-0.650000X0.350000X-0.650000X0.350000X0.650000X-0.350000X0.650000X0*%
G04 APERTURE END LIST*
D10*
%TO.C,U5*%
X124300000Y-97900000D03*
X125100000Y-97900000D03*
X125900000Y-97900000D03*
X126700000Y-97900000D03*
X127500000Y-97900000D03*
X128300000Y-97900000D03*
X129100000Y-97900000D03*
X129900000Y-97900000D03*
D11*
X131400000Y-99400000D03*
X131400000Y-100200000D03*
X131400000Y-101000000D03*
X131400000Y-101800000D03*
X131400000Y-102600000D03*
X131400000Y-103400000D03*
X131400000Y-104200000D03*
X131400000Y-105000000D03*
D10*
X129900000Y-106500000D03*
X129100000Y-106500000D03*
X128300000Y-106500000D03*
X127500000Y-106500000D03*
X126700000Y-106500000D03*
X125900000Y-106500000D03*
X125100000Y-106500000D03*
X124300000Y-106500000D03*
D11*
X122800000Y-105000000D03*
X122800000Y-104200000D03*
X122800000Y-103400000D03*
X122800000Y-102600000D03*
X122800000Y-101800000D03*
X122800000Y-101000000D03*
X122800000Y-100200000D03*
X122800000Y-99400000D03*
%TD*%
D12*
%TO.C,C14*%
X84925000Y-95800000D03*
X87875000Y-95800000D03*
%TD*%
D13*
%TO.C,Y1*%
X130700000Y-91050000D03*
X128500000Y-91050000D03*
X128500000Y-92750000D03*
X130700000Y-92750000D03*
%TD*%
D14*
%TO.C,USB1*%
X103090000Y-86795000D03*
X97310000Y-86795000D03*
D15*
X95880000Y-87295000D03*
D16*
X95880000Y-83115000D03*
D15*
X104520000Y-87295000D03*
D16*
X104520000Y-83115000D03*
D17*
X97000000Y-87860000D03*
X97800000Y-87860000D03*
D18*
X98950000Y-87860000D03*
X99950000Y-87860000D03*
X100450000Y-87860000D03*
X98450000Y-87860000D03*
D17*
X103400000Y-87860000D03*
X102600000Y-87860000D03*
D18*
X101950000Y-87860000D03*
X100950000Y-87860000D03*
X99450000Y-87860000D03*
X101450000Y-87860000D03*
%TD*%
D19*
%TO.C,U6*%
X100800000Y-97200000D03*
D20*
X98800000Y-99950000D03*
X99800000Y-99950000D03*
X100800000Y-99950000D03*
X101800000Y-99950000D03*
X102800000Y-99950000D03*
X102800000Y-94450000D03*
X101800000Y-94450000D03*
X100800000Y-94450000D03*
X99800000Y-94450000D03*
X98800000Y-94450000D03*
%TD*%
D21*
%TO.C,U4*%
X68728000Y-104234000D03*
X71228000Y-118966000D03*
D22*
X81728000Y-116045000D03*
X81728000Y-114775000D03*
X81728000Y-113505000D03*
X81728000Y-112235000D03*
X81728000Y-110965000D03*
X81728000Y-109695000D03*
X81728000Y-108425000D03*
X81728000Y-107155000D03*
%TD*%
D23*
%TO.C,U3*%
X90400000Y-100400000D03*
D24*
X87925000Y-98495000D03*
X87925000Y-99765000D03*
X87925000Y-101035000D03*
X87925000Y-102305000D03*
X92875000Y-102305000D03*
X92875000Y-101035000D03*
X92875000Y-99765000D03*
X92875000Y-98495000D03*
%TD*%
D25*
%TO.C,U2*%
X90065000Y-114385000D03*
X90765000Y-114385000D03*
X91465000Y-114385000D03*
X92165000Y-114385000D03*
X92865000Y-114385000D03*
X93565000Y-114385000D03*
X94265000Y-114385000D03*
X94965000Y-114385000D03*
X95665000Y-114385000D03*
X96365000Y-114385000D03*
X97065000Y-114385000D03*
X97765000Y-114385000D03*
X98465000Y-114385000D03*
X99165000Y-114385000D03*
X99865000Y-114385000D03*
X100565000Y-114385000D03*
X101265000Y-114385000D03*
X101965000Y-114385000D03*
X102665000Y-114385000D03*
X103365000Y-114385000D03*
X104065000Y-114385000D03*
X104765000Y-114385000D03*
X105465000Y-114385000D03*
X106165000Y-114385000D03*
X106865000Y-114385000D03*
X107565000Y-114385000D03*
X108265000Y-114385000D03*
X108965000Y-114385000D03*
X109665000Y-114385000D03*
X110365000Y-114385000D03*
%TD*%
D26*
%TO.C,U1*%
X89850000Y-107837500D03*
X87950000Y-107837500D03*
X88900000Y-105962500D03*
%TD*%
D27*
%TO.C,SW5*%
X110215000Y-91185000D03*
X90215000Y-91185000D03*
%TD*%
D28*
%TO.C,SW2*%
X122915000Y-84485000D03*
X119515000Y-84485000D03*
D29*
X123415000Y-82810000D03*
X119015000Y-82810000D03*
%TD*%
D28*
%TO.C,SW1*%
X80915000Y-84485000D03*
X77515000Y-84485000D03*
D29*
X81415000Y-82810000D03*
X77015000Y-82810000D03*
%TD*%
D30*
%TO.C,R14*%
X116787500Y-104200000D03*
X118612500Y-104200000D03*
%TD*%
D31*
%TO.C,R13*%
X130925000Y-94500000D03*
X129100000Y-94500000D03*
%TD*%
D32*
%TO.C,R12*%
X106800000Y-86912500D03*
X106800000Y-85087500D03*
%TD*%
D33*
%TO.C,R11*%
X93600000Y-85187500D03*
X93600000Y-87012500D03*
%TD*%
D30*
%TO.C,R10*%
X107812500Y-107300000D03*
X105987500Y-107300000D03*
%TD*%
%TO.C,R9*%
X107812500Y-105600000D03*
X105987500Y-105600000D03*
%TD*%
D32*
%TO.C,R7*%
X121800000Y-90987500D03*
X121800000Y-92812500D03*
%TD*%
D31*
%TO.C,R6*%
X80812500Y-103200000D03*
X78987500Y-103200000D03*
%TD*%
D33*
%TO.C,R5*%
X101510555Y-109680500D03*
X101510555Y-111505500D03*
%TD*%
%TO.C,R4*%
X103472666Y-109680500D03*
X103472666Y-111505500D03*
%TD*%
%TO.C,R3*%
X105434777Y-109680500D03*
X105434777Y-111505500D03*
%TD*%
D30*
%TO.C,R2*%
X95187500Y-96900000D03*
X97012500Y-96900000D03*
%TD*%
D33*
%TO.C,R1*%
X99548444Y-109680500D03*
X99548444Y-111505500D03*
%TD*%
D34*
%TO.C,Q1*%
X103937500Y-105650000D03*
X103937500Y-107550000D03*
X102062500Y-106600000D03*
%TD*%
D35*
%TO.C,L1*%
X80650000Y-99800000D03*
X85150000Y-99800000D03*
%TD*%
D36*
%TO.C,J4*%
X130400000Y-117775000D03*
X129400000Y-117775000D03*
X128400000Y-117775000D03*
X127400000Y-117775000D03*
X126400000Y-117775000D03*
X125400000Y-117775000D03*
D37*
X123950000Y-120900000D03*
X131850000Y-120900000D03*
%TD*%
D38*
%TO.C,J1*%
X81550000Y-93500000D03*
X81550000Y-91500000D03*
D39*
X75850000Y-96350000D03*
X75850000Y-88650000D03*
%TD*%
D40*
%TO.C,D7*%
X96050000Y-103500000D03*
X99350000Y-103500000D03*
%TD*%
D41*
%TO.C,C26*%
X125000000Y-91037500D03*
X125000000Y-92762500D03*
%TD*%
%TO.C,C25*%
X132600000Y-91037500D03*
X132600000Y-92762500D03*
%TD*%
%TO.C,C24*%
X126600000Y-91037500D03*
X126600000Y-92762500D03*
%TD*%
%TO.C,C23*%
X123400000Y-91037500D03*
X123400000Y-92762500D03*
%TD*%
D42*
%TO.C,C22*%
X96962500Y-100100000D03*
X95237500Y-100100000D03*
%TD*%
D41*
%TO.C,C21*%
X101800000Y-102037500D03*
X101800000Y-103762500D03*
%TD*%
D43*
%TO.C,C20*%
X129100000Y-111162500D03*
X129100000Y-109437500D03*
%TD*%
D42*
%TO.C,C19*%
X118562500Y-102600000D03*
X116837500Y-102600000D03*
%TD*%
D41*
%TO.C,C18*%
X127500000Y-109437500D03*
X127500000Y-111162500D03*
%TD*%
D44*
%TO.C,C13*%
X75525000Y-99800000D03*
X78475000Y-99800000D03*
%TD*%
D43*
%TO.C,C12*%
X95624222Y-109730500D03*
X95624222Y-111455500D03*
%TD*%
D45*
%TO.C,C11*%
X84900000Y-105975000D03*
X84900000Y-103025000D03*
%TD*%
D43*
%TO.C,C10*%
X109359000Y-109730500D03*
X109359000Y-111455500D03*
%TD*%
%TO.C,C9*%
X107396888Y-109730500D03*
X107396888Y-111455500D03*
%TD*%
D42*
%TO.C,C8*%
X84537500Y-107700000D03*
X86262500Y-107700000D03*
%TD*%
D41*
%TO.C,C7*%
X93662111Y-111462500D03*
X93662111Y-109737500D03*
%TD*%
D42*
%TO.C,C6*%
X88037500Y-109700000D03*
X89762500Y-109700000D03*
%TD*%
D41*
%TO.C,C5*%
X91700000Y-111462500D03*
X91700000Y-109737500D03*
%TD*%
D46*
%TO.C,C4*%
X95237500Y-95300000D03*
X96962500Y-95300000D03*
%TD*%
D42*
%TO.C,C3*%
X96962500Y-98500000D03*
X95237500Y-98500000D03*
%TD*%
D41*
%TO.C,C2*%
X97586333Y-111455500D03*
X97586333Y-109730500D03*
%TD*%
D42*
%TO.C,C1*%
X88037500Y-104100000D03*
X89762500Y-104100000D03*
%TD*%
D47*
%TO.C,BZ1*%
X95600000Y-106500000D03*
X99800000Y-106500000D03*
%TD*%
M02*
