%TF.GenerationSoftware,KiCad,Pcbnew,(6.0.5)*%
%TF.CreationDate,2023-01-30T15:53:00+08:00*%
%TF.ProjectId,Mini_Remoter,4d696e69-5f52-4656-9d6f-7465722e6b69,rev?*%
%TF.SameCoordinates,Original*%
%TF.FileFunction,Profile,NP*%
%FSLAX46Y46*%
G04 Gerber Fmt 4.6, Leading zero omitted, Abs format (unit mm)*
G04 Created by KiCad (PCBNEW (6.0.5)) date 2023-01-30 15:53:00*
%MOMM*%
%LPD*%
G01*
G04 APERTURE LIST*
%TA.AperFunction,Profile*%
%ADD10C,0.200000*%
%TD*%
%TA.AperFunction,Profile*%
%ADD11C,0.120000*%
%TD*%
G04 APERTURE END LIST*
D10*
X134071956Y-84685000D02*
G75*
G03*
X134071956Y-84685000I-1350000J0D01*
G01*
X139071956Y-123685000D02*
G75*
G03*
X139071956Y-123685000I-1350000J0D01*
G01*
X64071956Y-123685000D02*
G75*
G03*
X64071956Y-123685000I-1350000J0D01*
G01*
X69071956Y-84685000D02*
G75*
G03*
X69071956Y-84685000I-1350000J0D01*
G01*
X119489723Y-125452767D02*
G75*
G03*
X121257490Y-126185000I1767767J1767767D01*
G01*
X115954189Y-121917233D02*
X119489723Y-125452767D01*
X115954189Y-121917233D02*
G75*
G03*
X114186422Y-121185000I-1767767J-1767767D01*
G01*
X86257490Y-121185000D02*
X114186422Y-121185000D01*
X86257490Y-121185000D02*
G75*
G03*
X84489723Y-121917233I0J-2500000D01*
G01*
X80954189Y-125452767D02*
X84489723Y-121917233D01*
X79186422Y-126185000D02*
G75*
G03*
X80954189Y-125452767I0J2500000D01*
G01*
X62721956Y-126185000D02*
X79186422Y-126185000D01*
X60221956Y-123685000D02*
G75*
G03*
X62721956Y-126185000I2500000J0D01*
G01*
X60221956Y-122185000D02*
X60221956Y-123685000D01*
X64948217Y-84374913D02*
X60221956Y-122185000D01*
X67428912Y-82185000D02*
G75*
G03*
X64948217Y-84374913I-546J-2499382D01*
G01*
X81221956Y-82185000D02*
X67428912Y-82185000D01*
X119221956Y-82185000D02*
X81221956Y-82185000D01*
X133015000Y-82185000D02*
X119221956Y-82185000D01*
X135495695Y-84374913D02*
G75*
G03*
X133015000Y-82185000I-2480149J-309469D01*
G01*
X140221956Y-122185000D02*
X135495695Y-84374913D01*
X140221956Y-123685000D02*
X140221956Y-122185000D01*
X137721956Y-126185000D02*
G75*
G03*
X140221956Y-123685000I0J2500000D01*
G01*
X121257490Y-126185000D02*
X137721956Y-126185000D01*
D11*
%TO.C,SW2*%
X122440000Y-83185000D02*
G75*
G03*
X122440000Y-83185000I-375000J0D01*
G01*
X120740000Y-83185000D02*
G75*
G03*
X120740000Y-83185000I-375000J0D01*
G01*
%TO.C,SW1*%
X80440000Y-83185000D02*
G75*
G03*
X80440000Y-83185000I-375000J0D01*
G01*
X78740000Y-83185000D02*
G75*
G03*
X78740000Y-83185000I-375000J0D01*
G01*
%TD*%
M02*
