%TF.GenerationSoftware,KiCad,Pcbnew,(6.0.5)*%
%TF.CreationDate,2023-01-30T15:53:00+08:00*%
%TF.ProjectId,Mini_Remoter,4d696e69-5f52-4656-9d6f-7465722e6b69,rev?*%
%TF.SameCoordinates,Original*%
%TF.FileFunction,Legend,Top*%
%TF.FilePolarity,Positive*%
%FSLAX46Y46*%
G04 Gerber Fmt 4.6, Leading zero omitted, Abs format (unit mm)*
G04 Created by KiCad (PCBNEW (6.0.5)) date 2023-01-30 15:53:00*
%MOMM*%
%LPD*%
G01*
G04 APERTURE LIST*
%ADD10C,0.140000*%
%ADD11C,0.150000*%
%ADD12C,0.120000*%
G04 APERTURE END LIST*
D10*
X69838095Y-125261904D02*
X69838095Y-124461904D01*
X70028571Y-124461904D01*
X70142857Y-124500000D01*
X70219047Y-124576190D01*
X70257142Y-124652380D01*
X70295238Y-124804761D01*
X70295238Y-124919047D01*
X70257142Y-125071428D01*
X70219047Y-125147619D01*
X70142857Y-125223809D01*
X70028571Y-125261904D01*
X69838095Y-125261904D01*
X70942857Y-125223809D02*
X70866666Y-125261904D01*
X70714285Y-125261904D01*
X70638095Y-125223809D01*
X70600000Y-125147619D01*
X70600000Y-124842857D01*
X70638095Y-124766666D01*
X70714285Y-124728571D01*
X70866666Y-124728571D01*
X70942857Y-124766666D01*
X70980952Y-124842857D01*
X70980952Y-124919047D01*
X70600000Y-124995238D01*
X71285714Y-125223809D02*
X71361904Y-125261904D01*
X71514285Y-125261904D01*
X71590476Y-125223809D01*
X71628571Y-125147619D01*
X71628571Y-125109523D01*
X71590476Y-125033333D01*
X71514285Y-124995238D01*
X71400000Y-124995238D01*
X71323809Y-124957142D01*
X71285714Y-124880952D01*
X71285714Y-124842857D01*
X71323809Y-124766666D01*
X71400000Y-124728571D01*
X71514285Y-124728571D01*
X71590476Y-124766666D01*
X71971428Y-125261904D02*
X71971428Y-124728571D01*
X71971428Y-124461904D02*
X71933333Y-124500000D01*
X71971428Y-124538095D01*
X72009523Y-124500000D01*
X71971428Y-124461904D01*
X71971428Y-124538095D01*
X72695238Y-124728571D02*
X72695238Y-125376190D01*
X72657142Y-125452380D01*
X72619047Y-125490476D01*
X72542857Y-125528571D01*
X72428571Y-125528571D01*
X72352380Y-125490476D01*
X72695238Y-125223809D02*
X72619047Y-125261904D01*
X72466666Y-125261904D01*
X72390476Y-125223809D01*
X72352380Y-125185714D01*
X72314285Y-125109523D01*
X72314285Y-124880952D01*
X72352380Y-124804761D01*
X72390476Y-124766666D01*
X72466666Y-124728571D01*
X72619047Y-124728571D01*
X72695238Y-124766666D01*
X73076190Y-124728571D02*
X73076190Y-125261904D01*
X73076190Y-124804761D02*
X73114285Y-124766666D01*
X73190476Y-124728571D01*
X73304761Y-124728571D01*
X73380952Y-124766666D01*
X73419047Y-124842857D01*
X73419047Y-125261904D01*
X74104761Y-125223809D02*
X74028571Y-125261904D01*
X73876190Y-125261904D01*
X73800000Y-125223809D01*
X73761904Y-125147619D01*
X73761904Y-124842857D01*
X73800000Y-124766666D01*
X73876190Y-124728571D01*
X74028571Y-124728571D01*
X74104761Y-124766666D01*
X74142857Y-124842857D01*
X74142857Y-124919047D01*
X73761904Y-124995238D01*
X74828571Y-125261904D02*
X74828571Y-124461904D01*
X74828571Y-125223809D02*
X74752380Y-125261904D01*
X74600000Y-125261904D01*
X74523809Y-125223809D01*
X74485714Y-125185714D01*
X74447619Y-125109523D01*
X74447619Y-124880952D01*
X74485714Y-124804761D01*
X74523809Y-124766666D01*
X74600000Y-124728571D01*
X74752380Y-124728571D01*
X74828571Y-124766666D01*
X76085714Y-124842857D02*
X76200000Y-124880952D01*
X76238095Y-124919047D01*
X76276190Y-124995238D01*
X76276190Y-125109523D01*
X76238095Y-125185714D01*
X76200000Y-125223809D01*
X76123809Y-125261904D01*
X75819047Y-125261904D01*
X75819047Y-124461904D01*
X76085714Y-124461904D01*
X76161904Y-124500000D01*
X76200000Y-124538095D01*
X76238095Y-124614285D01*
X76238095Y-124690476D01*
X76200000Y-124766666D01*
X76161904Y-124804761D01*
X76085714Y-124842857D01*
X75819047Y-124842857D01*
X76542857Y-124728571D02*
X76733333Y-125261904D01*
X76923809Y-124728571D02*
X76733333Y-125261904D01*
X76657142Y-125452380D01*
X76619047Y-125490476D01*
X76542857Y-125528571D01*
X77838095Y-125261904D02*
X77838095Y-124461904D01*
X78028571Y-124461904D01*
X78142857Y-124500000D01*
X78219047Y-124576190D01*
X78257142Y-124652380D01*
X78295238Y-124804761D01*
X78295238Y-124919047D01*
X78257142Y-125071428D01*
X78219047Y-125147619D01*
X78142857Y-125223809D01*
X78028571Y-125261904D01*
X77838095Y-125261904D01*
X78942857Y-125223809D02*
X78866666Y-125261904D01*
X78714285Y-125261904D01*
X78638095Y-125223809D01*
X78600000Y-125147619D01*
X78600000Y-124842857D01*
X78638095Y-124766666D01*
X78714285Y-124728571D01*
X78866666Y-124728571D01*
X78942857Y-124766666D01*
X78980952Y-124842857D01*
X78980952Y-124919047D01*
X78600000Y-124995238D01*
X79438095Y-125261904D02*
X79361904Y-125223809D01*
X79323809Y-125147619D01*
X79323809Y-124461904D01*
D11*
X76485714Y-85452380D02*
X75914286Y-85452380D01*
X76200000Y-85452380D02*
X76200000Y-84452380D01*
X76104762Y-84595238D01*
X76009524Y-84690476D01*
X75914286Y-84738095D01*
X77104762Y-84452380D02*
X77200000Y-84452380D01*
X77295238Y-84500000D01*
X77342857Y-84547619D01*
X77390476Y-84642857D01*
X77438095Y-84833333D01*
X77438095Y-85071428D01*
X77390476Y-85261904D01*
X77342857Y-85357142D01*
X77295238Y-85404761D01*
X77200000Y-85452380D01*
X77104762Y-85452380D01*
X77009524Y-85404761D01*
X76961905Y-85357142D01*
X76914286Y-85261904D01*
X76866667Y-85071428D01*
X76866667Y-84833333D01*
X76914286Y-84642857D01*
X76961905Y-84547619D01*
X77009524Y-84500000D01*
X77104762Y-84452380D01*
X78057143Y-84452380D02*
X78152381Y-84452380D01*
X78247619Y-84500000D01*
X78295238Y-84547619D01*
X78342857Y-84642857D01*
X78390476Y-84833333D01*
X78390476Y-85071428D01*
X78342857Y-85261904D01*
X78295238Y-85357142D01*
X78247619Y-85404761D01*
X78152381Y-85452380D01*
X78057143Y-85452380D01*
X77961905Y-85404761D01*
X77914286Y-85357142D01*
X77866667Y-85261904D01*
X77819048Y-85071428D01*
X77819048Y-84833333D01*
X77866667Y-84642857D01*
X77914286Y-84547619D01*
X77961905Y-84500000D01*
X78057143Y-84452380D01*
X78771429Y-85452380D02*
X79533333Y-84452380D01*
X78914286Y-84452380D02*
X79009524Y-84500000D01*
X79057143Y-84595238D01*
X79009524Y-84690476D01*
X78914286Y-84738095D01*
X78819048Y-84690476D01*
X78771429Y-84595238D01*
X78819048Y-84500000D01*
X78914286Y-84452380D01*
X79485714Y-85404761D02*
X79533333Y-85309523D01*
X79485714Y-85214285D01*
X79390476Y-85166666D01*
X79295238Y-85214285D01*
X79247619Y-85309523D01*
X79295238Y-85404761D01*
X79390476Y-85452380D01*
X79485714Y-85404761D01*
X76819047Y-86152380D02*
X77485714Y-86152380D01*
X77057142Y-87152380D01*
X78342857Y-86152380D02*
X77866666Y-86152380D01*
X77819047Y-86628571D01*
X77866666Y-86580952D01*
X77961904Y-86533333D01*
X78200000Y-86533333D01*
X78295238Y-86580952D01*
X78342857Y-86628571D01*
X78390476Y-86723809D01*
X78390476Y-86961904D01*
X78342857Y-87057142D01*
X78295238Y-87104761D01*
X78200000Y-87152380D01*
X77961904Y-87152380D01*
X77866666Y-87104761D01*
X77819047Y-87057142D01*
X78771428Y-87152380D02*
X79533333Y-86152380D01*
X78914285Y-86152380D02*
X79009523Y-86200000D01*
X79057142Y-86295238D01*
X79009523Y-86390476D01*
X78914285Y-86438095D01*
X78819047Y-86390476D01*
X78771428Y-86295238D01*
X78819047Y-86200000D01*
X78914285Y-86152380D01*
X79485714Y-87104761D02*
X79533333Y-87009523D01*
X79485714Y-86914285D01*
X79390476Y-86866666D01*
X79295238Y-86914285D01*
X79247619Y-87009523D01*
X79295238Y-87104761D01*
X79390476Y-87152380D01*
X79485714Y-87104761D01*
X77390476Y-87952380D02*
X76914285Y-87952380D01*
X76866666Y-88428571D01*
X76914285Y-88380952D01*
X77009523Y-88333333D01*
X77247619Y-88333333D01*
X77342857Y-88380952D01*
X77390476Y-88428571D01*
X77438095Y-88523809D01*
X77438095Y-88761904D01*
X77390476Y-88857142D01*
X77342857Y-88904761D01*
X77247619Y-88952380D01*
X77009523Y-88952380D01*
X76914285Y-88904761D01*
X76866666Y-88857142D01*
X78057142Y-87952380D02*
X78152380Y-87952380D01*
X78247619Y-88000000D01*
X78295238Y-88047619D01*
X78342857Y-88142857D01*
X78390476Y-88333333D01*
X78390476Y-88571428D01*
X78342857Y-88761904D01*
X78295238Y-88857142D01*
X78247619Y-88904761D01*
X78152380Y-88952380D01*
X78057142Y-88952380D01*
X77961904Y-88904761D01*
X77914285Y-88857142D01*
X77866666Y-88761904D01*
X77819047Y-88571428D01*
X77819047Y-88333333D01*
X77866666Y-88142857D01*
X77914285Y-88047619D01*
X77961904Y-88000000D01*
X78057142Y-87952380D01*
X78771428Y-88952380D02*
X79533333Y-87952380D01*
X78914285Y-87952380D02*
X79009523Y-88000000D01*
X79057142Y-88095238D01*
X79009523Y-88190476D01*
X78914285Y-88238095D01*
X78819047Y-88190476D01*
X78771428Y-88095238D01*
X78819047Y-88000000D01*
X78914285Y-87952380D01*
X79485714Y-88904761D02*
X79533333Y-88809523D01*
X79485714Y-88714285D01*
X79390476Y-88666666D01*
X79295238Y-88714285D01*
X79247619Y-88809523D01*
X79295238Y-88904761D01*
X79390476Y-88952380D01*
X79485714Y-88904761D01*
X76866666Y-89747619D02*
X76914285Y-89700000D01*
X77009523Y-89652380D01*
X77247619Y-89652380D01*
X77342857Y-89700000D01*
X77390476Y-89747619D01*
X77438095Y-89842857D01*
X77438095Y-89938095D01*
X77390476Y-90080952D01*
X76819047Y-90652380D01*
X77438095Y-90652380D01*
X78342857Y-89652380D02*
X77866666Y-89652380D01*
X77819047Y-90128571D01*
X77866666Y-90080952D01*
X77961904Y-90033333D01*
X78200000Y-90033333D01*
X78295238Y-90080952D01*
X78342857Y-90128571D01*
X78390476Y-90223809D01*
X78390476Y-90461904D01*
X78342857Y-90557142D01*
X78295238Y-90604761D01*
X78200000Y-90652380D01*
X77961904Y-90652380D01*
X77866666Y-90604761D01*
X77819047Y-90557142D01*
X78771428Y-90652380D02*
X79533333Y-89652380D01*
X78914285Y-89652380D02*
X79009523Y-89700000D01*
X79057142Y-89795238D01*
X79009523Y-89890476D01*
X78914285Y-89938095D01*
X78819047Y-89890476D01*
X78771428Y-89795238D01*
X78819047Y-89700000D01*
X78914285Y-89652380D01*
X79485714Y-90604761D02*
X79533333Y-90509523D01*
X79485714Y-90414285D01*
X79390476Y-90366666D01*
X79295238Y-90414285D01*
X79247619Y-90509523D01*
X79295238Y-90604761D01*
X79390476Y-90652380D01*
X79485714Y-90604761D01*
X80800000Y-84000000D02*
X82800000Y-84000000D01*
X82800000Y-84000000D02*
X82800000Y-83400000D01*
X82800000Y-83400000D02*
X80800000Y-83400000D01*
X80800000Y-83400000D02*
X80800000Y-84000000D01*
G36*
X80800000Y-84000000D02*
G01*
X82800000Y-84000000D01*
X82800000Y-83400000D01*
X80800000Y-83400000D01*
X80800000Y-84000000D01*
G37*
X83700000Y-91100000D02*
X79900000Y-91100000D01*
X79900000Y-91100000D02*
X79900000Y-84000000D01*
X79900000Y-84000000D02*
X83700000Y-84000000D01*
X83700000Y-84000000D02*
X83700000Y-91100000D01*
D12*
%TO.C,U2*%
X86865000Y-100225000D02*
X113565000Y-100225000D01*
X113565000Y-100225000D02*
X113565000Y-119485000D01*
X113565000Y-119485000D02*
X86865000Y-119485000D01*
X86865000Y-119485000D02*
X86865000Y-100225000D01*
%TO.C,SW5*%
X108883333Y-88125588D02*
G75*
G03*
X106715000Y-84685000I-8668335J-3059413D01*
G01*
X93715000Y-84685000D02*
G75*
G03*
X91546667Y-88125588I6500000J-6500000D01*
G01*
X91546667Y-94244412D02*
G75*
G03*
X93715000Y-97685000I8668333J3059412D01*
G01*
X106715000Y-97685000D02*
G75*
G03*
X108883333Y-94244412I-6500002J6500001D01*
G01*
X93715000Y-97685000D02*
X106715000Y-97685000D01*
X93715000Y-84685000D02*
X106715000Y-84685000D01*
%TO.C,SW4*%
X77375000Y-113502000D02*
X77375000Y-120868000D01*
X82455000Y-113502000D02*
X82455000Y-120868000D01*
%TO.C,SW3*%
X117975000Y-120868000D02*
X117975000Y-113502000D01*
X123055000Y-120868000D02*
X123055000Y-113502000D01*
%TO.C,J3*%
X134100000Y-93200000D02*
X136100000Y-95200000D01*
X120100000Y-93200000D02*
X134100000Y-93200000D01*
X136100000Y-109200000D02*
X134100000Y-111200000D01*
X120100000Y-111200000D02*
X118100000Y-109200000D01*
X118100000Y-95200000D02*
X120100000Y-93200000D01*
X136100000Y-95200000D02*
X136100000Y-109200000D01*
X124100000Y-111200000D02*
X120100000Y-111200000D01*
X118100000Y-109200000D02*
X118100000Y-105200000D01*
X134100000Y-111200000D02*
X130100000Y-111200000D01*
X118100000Y-99200000D02*
X118100000Y-95200000D01*
%TO.C,J2*%
X64415000Y-95185000D02*
X66415000Y-93185000D01*
X64415000Y-109185000D02*
X64415000Y-95185000D01*
X80415000Y-93185000D02*
X82415000Y-95185000D01*
X82415000Y-109185000D02*
X80415000Y-111185000D01*
X66415000Y-111185000D02*
X64415000Y-109185000D01*
X66415000Y-93185000D02*
X80415000Y-93185000D01*
X82415000Y-105185000D02*
X82415000Y-109185000D01*
X80415000Y-111185000D02*
X76415000Y-111185000D01*
X82415000Y-95185000D02*
X82415000Y-99185000D01*
X70415000Y-111185000D02*
X66415000Y-111185000D01*
%TO.C,D5*%
X119240000Y-88565000D02*
X119240000Y-90035000D01*
X119240000Y-90035000D02*
X121700000Y-90035000D01*
X121700000Y-88565000D02*
X119240000Y-88565000D01*
%TO.C,D4*%
X81025000Y-85735000D02*
X83485000Y-85735000D01*
X83485000Y-84265000D02*
X81025000Y-84265000D01*
X83485000Y-85735000D02*
X83485000Y-84265000D01*
%TO.C,D3*%
X82625000Y-85965000D02*
X80165000Y-85965000D01*
X80165000Y-87435000D02*
X82625000Y-87435000D01*
X80165000Y-85965000D02*
X80165000Y-87435000D01*
%TO.C,D2*%
X81025000Y-89135000D02*
X83485000Y-89135000D01*
X83485000Y-87665000D02*
X81025000Y-87665000D01*
X83485000Y-89135000D02*
X83485000Y-87665000D01*
%TO.C,D1*%
X82625000Y-89365000D02*
X80165000Y-89365000D01*
X80165000Y-90835000D02*
X82625000Y-90835000D01*
X80165000Y-89365000D02*
X80165000Y-90835000D01*
%TD*%
M02*
