%TF.GenerationSoftware,KiCad,Pcbnew,(6.0.5)*%
%TF.CreationDate,2023-01-30T15:53:00+08:00*%
%TF.ProjectId,Mini_Remoter,4d696e69-5f52-4656-9d6f-7465722e6b69,rev?*%
%TF.SameCoordinates,Original*%
%TF.FileFunction,Legend,Bot*%
%TF.FilePolarity,Positive*%
%FSLAX46Y46*%
G04 Gerber Fmt 4.6, Leading zero omitted, Abs format (unit mm)*
G04 Created by KiCad (PCBNEW (6.0.5)) date 2023-01-30 15:53:00*
%MOMM*%
%LPD*%
G01*
G04 APERTURE LIST*
%ADD10C,0.140000*%
%ADD11C,0.120000*%
%ADD12C,0.150000*%
G04 APERTURE END LIST*
D10*
X86485714Y-91442857D02*
X86371428Y-91480952D01*
X86333333Y-91519047D01*
X86295238Y-91595238D01*
X86295238Y-91709523D01*
X86333333Y-91785714D01*
X86371428Y-91823809D01*
X86447619Y-91861904D01*
X86752380Y-91861904D01*
X86752380Y-91061904D01*
X86485714Y-91061904D01*
X86409523Y-91100000D01*
X86371428Y-91138095D01*
X86333333Y-91214285D01*
X86333333Y-91290476D01*
X86371428Y-91366666D01*
X86409523Y-91404761D01*
X86485714Y-91442857D01*
X86752380Y-91442857D01*
X85990476Y-91633333D02*
X85609523Y-91633333D01*
X86066666Y-91861904D02*
X85800000Y-91061904D01*
X85533333Y-91861904D01*
X85380952Y-91061904D02*
X84923809Y-91061904D01*
X85152380Y-91861904D02*
X85152380Y-91061904D01*
X84657142Y-91557142D02*
X84047619Y-91557142D01*
X86485714Y-93342857D02*
X86371428Y-93380952D01*
X86333333Y-93419047D01*
X86295238Y-93495238D01*
X86295238Y-93609523D01*
X86333333Y-93685714D01*
X86371428Y-93723809D01*
X86447619Y-93761904D01*
X86752380Y-93761904D01*
X86752380Y-92961904D01*
X86485714Y-92961904D01*
X86409523Y-93000000D01*
X86371428Y-93038095D01*
X86333333Y-93114285D01*
X86333333Y-93190476D01*
X86371428Y-93266666D01*
X86409523Y-93304761D01*
X86485714Y-93342857D01*
X86752380Y-93342857D01*
X85990476Y-93533333D02*
X85609523Y-93533333D01*
X86066666Y-93761904D02*
X85800000Y-92961904D01*
X85533333Y-93761904D01*
X85380952Y-92961904D02*
X84923809Y-92961904D01*
X85152380Y-93761904D02*
X85152380Y-92961904D01*
X84657142Y-93457142D02*
X84047619Y-93457142D01*
X84352380Y-93761904D02*
X84352380Y-93152380D01*
X129961904Y-115766667D02*
X129961904Y-115385714D01*
X130342857Y-115347619D01*
X130304761Y-115385714D01*
X130266666Y-115461905D01*
X130266666Y-115652381D01*
X130304761Y-115728571D01*
X130342857Y-115766667D01*
X130419047Y-115804762D01*
X130609523Y-115804762D01*
X130685714Y-115766667D01*
X130723809Y-115728571D01*
X130761904Y-115652381D01*
X130761904Y-115461905D01*
X130723809Y-115385714D01*
X130685714Y-115347619D01*
X129961904Y-116033333D02*
X130761904Y-116300000D01*
X129961904Y-116566667D01*
X129723809Y-114433333D02*
X129761904Y-114547619D01*
X129761904Y-114738095D01*
X129723809Y-114814285D01*
X129685714Y-114852381D01*
X129609523Y-114890476D01*
X129533333Y-114890476D01*
X129457142Y-114852381D01*
X129419047Y-114814285D01*
X129380952Y-114738095D01*
X129342857Y-114585714D01*
X129304761Y-114509524D01*
X129266666Y-114471428D01*
X129190476Y-114433333D01*
X129114285Y-114433333D01*
X129038095Y-114471428D01*
X129000000Y-114509524D01*
X128961904Y-114585714D01*
X128961904Y-114776190D01*
X129000000Y-114890476D01*
X129685714Y-115690476D02*
X129723809Y-115652381D01*
X129761904Y-115538095D01*
X129761904Y-115461905D01*
X129723809Y-115347619D01*
X129647619Y-115271428D01*
X129571428Y-115233333D01*
X129419047Y-115195238D01*
X129304761Y-115195238D01*
X129152380Y-115233333D01*
X129076190Y-115271428D01*
X129000000Y-115347619D01*
X128961904Y-115461905D01*
X128961904Y-115538095D01*
X129000000Y-115652381D01*
X129038095Y-115690476D01*
X129761904Y-116033333D02*
X128961904Y-116033333D01*
X129761904Y-116490476D02*
X129304761Y-116147619D01*
X128961904Y-116490476D02*
X129419047Y-116033333D01*
X128761904Y-113938095D02*
X127961904Y-113938095D01*
X128533333Y-114204761D01*
X127961904Y-114471428D01*
X128761904Y-114471428D01*
X128761904Y-114852380D02*
X127961904Y-114852380D01*
X128723809Y-115195238D02*
X128761904Y-115309523D01*
X128761904Y-115499999D01*
X128723809Y-115576190D01*
X128685714Y-115614285D01*
X128609523Y-115652380D01*
X128533333Y-115652380D01*
X128457142Y-115614285D01*
X128419047Y-115576190D01*
X128380952Y-115499999D01*
X128342857Y-115347618D01*
X128304761Y-115271428D01*
X128266666Y-115233333D01*
X128190476Y-115195238D01*
X128114285Y-115195238D01*
X128038095Y-115233333D01*
X128000000Y-115271428D01*
X127961904Y-115347618D01*
X127961904Y-115538095D01*
X128000000Y-115652380D01*
X127961904Y-116147618D02*
X127961904Y-116299999D01*
X128000000Y-116376190D01*
X128076190Y-116452380D01*
X128228571Y-116490476D01*
X128495238Y-116490476D01*
X128647619Y-116452380D01*
X128723809Y-116376190D01*
X128761904Y-116299999D01*
X128761904Y-116147618D01*
X128723809Y-116071428D01*
X128647619Y-115995238D01*
X128495238Y-115957142D01*
X128228571Y-115957142D01*
X128076190Y-115995238D01*
X128000000Y-116071428D01*
X127961904Y-116147618D01*
X127761904Y-113938095D02*
X126961904Y-113938095D01*
X127533333Y-114204761D01*
X126961904Y-114471428D01*
X127761904Y-114471428D01*
X126961904Y-115004761D02*
X126961904Y-115157142D01*
X127000000Y-115233333D01*
X127076190Y-115309523D01*
X127228571Y-115347618D01*
X127495238Y-115347618D01*
X127647619Y-115309523D01*
X127723809Y-115233333D01*
X127761904Y-115157142D01*
X127761904Y-115004761D01*
X127723809Y-114928571D01*
X127647619Y-114852380D01*
X127495238Y-114814285D01*
X127228571Y-114814285D01*
X127076190Y-114852380D01*
X127000000Y-114928571D01*
X126961904Y-115004761D01*
X127723809Y-115652380D02*
X127761904Y-115766666D01*
X127761904Y-115957142D01*
X127723809Y-116033333D01*
X127685714Y-116071428D01*
X127609523Y-116109523D01*
X127533333Y-116109523D01*
X127457142Y-116071428D01*
X127419047Y-116033333D01*
X127380952Y-115957142D01*
X127342857Y-115804761D01*
X127304761Y-115728571D01*
X127266666Y-115690476D01*
X127190476Y-115652380D01*
X127114285Y-115652380D01*
X127038095Y-115690476D01*
X127000000Y-115728571D01*
X126961904Y-115804761D01*
X126961904Y-115995238D01*
X127000000Y-116109523D01*
X127761904Y-116452380D02*
X126961904Y-116452380D01*
X126761904Y-115004761D02*
X126380952Y-114738095D01*
X126761904Y-114547619D02*
X125961904Y-114547619D01*
X125961904Y-114852380D01*
X126000000Y-114928571D01*
X126038095Y-114966666D01*
X126114285Y-115004761D01*
X126228571Y-115004761D01*
X126304761Y-114966666D01*
X126342857Y-114928571D01*
X126380952Y-114852380D01*
X126380952Y-114547619D01*
X126342857Y-115347619D02*
X126342857Y-115614285D01*
X126761904Y-115728571D02*
X126761904Y-115347619D01*
X125961904Y-115347619D01*
X125961904Y-115728571D01*
X126723809Y-116033333D02*
X126761904Y-116147619D01*
X126761904Y-116338095D01*
X126723809Y-116414285D01*
X126685714Y-116452380D01*
X126609523Y-116490476D01*
X126533333Y-116490476D01*
X126457142Y-116452380D01*
X126419047Y-116414285D01*
X126380952Y-116338095D01*
X126342857Y-116185714D01*
X126304761Y-116109523D01*
X126266666Y-116071428D01*
X126190476Y-116033333D01*
X126114285Y-116033333D01*
X126038095Y-116071428D01*
X126000000Y-116109523D01*
X125961904Y-116185714D01*
X125961904Y-116376190D01*
X126000000Y-116490476D01*
X125000000Y-114814286D02*
X124961904Y-114738095D01*
X124961904Y-114623810D01*
X125000000Y-114509524D01*
X125076190Y-114433333D01*
X125152380Y-114395238D01*
X125304761Y-114357143D01*
X125419047Y-114357143D01*
X125571428Y-114395238D01*
X125647619Y-114433333D01*
X125723809Y-114509524D01*
X125761904Y-114623810D01*
X125761904Y-114700000D01*
X125723809Y-114814286D01*
X125685714Y-114852381D01*
X125419047Y-114852381D01*
X125419047Y-114700000D01*
X125761904Y-115195238D02*
X124961904Y-115195238D01*
X125761904Y-115652381D01*
X124961904Y-115652381D01*
X125761904Y-116033333D02*
X124961904Y-116033333D01*
X124961904Y-116223810D01*
X125000000Y-116338095D01*
X125076190Y-116414286D01*
X125152380Y-116452381D01*
X125304761Y-116490476D01*
X125419047Y-116490476D01*
X125571428Y-116452381D01*
X125647619Y-116414286D01*
X125723809Y-116338095D01*
X125761904Y-116223810D01*
X125761904Y-116033333D01*
D11*
%TO.C,U5*%
X124660555Y-96500000D02*
G75*
G03*
X124660555Y-96500000I-360555J0D01*
G01*
D12*
X130725000Y-98575000D02*
X130725000Y-98900000D01*
X123475000Y-98575000D02*
X123700000Y-98575000D01*
X123475000Y-98575000D02*
X123475000Y-98900000D01*
X123475000Y-105825000D02*
X123475000Y-105500000D01*
X123475000Y-105825000D02*
X123800000Y-105825000D01*
X130725000Y-105825000D02*
X130400000Y-105825000D01*
X130725000Y-105825000D02*
X130725000Y-105500000D01*
X130725000Y-98575000D02*
X130400000Y-98575000D01*
X123700000Y-98575000D02*
X123700000Y-97200000D01*
D11*
%TO.C,C14*%
X87111252Y-97160000D02*
X85688748Y-97160000D01*
X87111252Y-94440000D02*
X85688748Y-94440000D01*
%TO.C,Y1*%
X131600000Y-93550000D02*
X127600000Y-93550000D01*
X131600000Y-90250000D02*
X131600000Y-93550000D01*
%TO.C,USB1*%
X95620000Y-80405000D02*
X95620000Y-82110000D01*
X104780000Y-80405000D02*
X95620000Y-80405000D01*
X104780000Y-82110000D02*
X104780000Y-80405000D01*
X104780000Y-84120000D02*
X104780000Y-86040000D01*
X95620000Y-86040000D02*
X95620000Y-84120000D01*
%TO.C,U6*%
X98300000Y-97700000D02*
G75*
G03*
X98300000Y-96700000I0J500000D01*
G01*
X103300000Y-94700000D02*
X103300000Y-99700000D01*
X98300000Y-97700000D02*
X98300000Y-99700000D01*
X98300000Y-94700000D02*
X98300000Y-96700000D01*
%TO.C,U4*%
X81728000Y-118966000D02*
X72965000Y-118966000D01*
X81728000Y-104234000D02*
X81728000Y-106520000D01*
X62932000Y-104234000D02*
X62932000Y-118966000D01*
X62932000Y-104234000D02*
X66996000Y-104234000D01*
X81728000Y-118966000D02*
X81728000Y-116680000D01*
X70425000Y-104234000D02*
X81728000Y-104234000D01*
X62932000Y-118966000D02*
X69536000Y-118966000D01*
%TO.C,U3*%
X90400000Y-102960000D02*
X88450000Y-102960000D01*
X90400000Y-102960000D02*
X92350000Y-102960000D01*
X90400000Y-97840000D02*
X93850000Y-97840000D01*
X90400000Y-97840000D02*
X88450000Y-97840000D01*
%TO.C,U2*%
X89215000Y-119235000D02*
X94215000Y-121735000D01*
X94215000Y-121985000D02*
X94215000Y-121735000D01*
X111215000Y-114985000D02*
X110715000Y-114985000D01*
X106215000Y-121735000D02*
X111215000Y-119235000D01*
X106215000Y-121985000D02*
X94215000Y-121985000D01*
X89215000Y-114985000D02*
X89715000Y-114985000D01*
X106215000Y-121985000D02*
X106215000Y-121735000D01*
X89215000Y-114985000D02*
X89215000Y-119235000D01*
X111215000Y-114985000D02*
X111215000Y-114985000D01*
X111215000Y-114985000D02*
X111215000Y-119235000D01*
X111215000Y-119235000D02*
X111215000Y-119235000D01*
X111215000Y-119235000D02*
X111215000Y-114985000D01*
%TO.C,U1*%
X90460000Y-106900000D02*
X90460000Y-106250000D01*
X87340000Y-106900000D02*
X87340000Y-106250000D01*
X90460000Y-106900000D02*
X90460000Y-108575000D01*
X87340000Y-106900000D02*
X87340000Y-107550000D01*
%TO.C,SW2*%
X119115000Y-83585000D02*
X119115000Y-83885000D01*
X120315000Y-81085000D02*
X120315000Y-82185000D01*
X122115000Y-82185000D02*
X122115000Y-81085000D01*
X122915000Y-82185000D02*
X119515000Y-82185000D01*
X122465000Y-84585000D02*
X119965000Y-84585000D01*
X122115000Y-81085000D02*
X120315000Y-81085000D01*
X123315000Y-83585000D02*
X123315000Y-83885000D01*
%TO.C,SW1*%
X77115000Y-83585000D02*
X77115000Y-83885000D01*
X78315000Y-81085000D02*
X78315000Y-82185000D01*
X80115000Y-82185000D02*
X80115000Y-81085000D01*
X80915000Y-82185000D02*
X77515000Y-82185000D01*
X80465000Y-84585000D02*
X77965000Y-84585000D01*
X80115000Y-81085000D02*
X78315000Y-81085000D01*
X81315000Y-83585000D02*
X81315000Y-83885000D01*
%TO.C,R14*%
X117954724Y-104722500D02*
X117445276Y-104722500D01*
X117954724Y-103677500D02*
X117445276Y-103677500D01*
%TO.C,R13*%
X129757776Y-93977500D02*
X130267224Y-93977500D01*
X129757776Y-95022500D02*
X130267224Y-95022500D01*
%TO.C,R12*%
X107322500Y-86254724D02*
X107322500Y-85745276D01*
X106277500Y-86254724D02*
X106277500Y-85745276D01*
%TO.C,R11*%
X93077500Y-85845276D02*
X93077500Y-86354724D01*
X94122500Y-85845276D02*
X94122500Y-86354724D01*
%TO.C,R10*%
X107154724Y-106777500D02*
X106645276Y-106777500D01*
X107154724Y-107822500D02*
X106645276Y-107822500D01*
%TO.C,R9*%
X107154724Y-105077500D02*
X106645276Y-105077500D01*
X107154724Y-106122500D02*
X106645276Y-106122500D01*
%TO.C,R7*%
X121277500Y-92154724D02*
X121277500Y-91645276D01*
X122322500Y-92154724D02*
X122322500Y-91645276D01*
%TO.C,R6*%
X79645276Y-102677500D02*
X80154724Y-102677500D01*
X79645276Y-103722500D02*
X80154724Y-103722500D01*
%TO.C,R5*%
X100988055Y-110338276D02*
X100988055Y-110847724D01*
X102033055Y-110338276D02*
X102033055Y-110847724D01*
%TO.C,R4*%
X102950166Y-110338276D02*
X102950166Y-110847724D01*
X103995166Y-110338276D02*
X103995166Y-110847724D01*
%TO.C,R3*%
X104912277Y-110338276D02*
X104912277Y-110847724D01*
X105957277Y-110338276D02*
X105957277Y-110847724D01*
%TO.C,R2*%
X96354724Y-97422500D02*
X95845276Y-97422500D01*
X96354724Y-96377500D02*
X95845276Y-96377500D01*
%TO.C,R1*%
X99025944Y-110338276D02*
X99025944Y-110847724D01*
X100070944Y-110338276D02*
X100070944Y-110847724D01*
%TO.C,Q1*%
X103000000Y-105040000D02*
X102350000Y-105040000D01*
X103000000Y-108160000D02*
X102350000Y-108160000D01*
X103000000Y-105040000D02*
X104675000Y-105040000D01*
X103000000Y-108160000D02*
X103650000Y-108160000D01*
%TO.C,L1*%
X85313000Y-98530000D02*
X85313000Y-97641000D01*
X80487000Y-97641000D02*
X80487000Y-98530000D01*
X85313000Y-101959000D02*
X85313000Y-101070000D01*
X80487000Y-101070000D02*
X80487000Y-101959000D01*
X85313000Y-97641000D02*
X80487000Y-97641000D01*
X80487000Y-101959000D02*
X85313000Y-101959000D01*
%TO.C,J4*%
X132410000Y-119790000D02*
X132410000Y-118040000D01*
X123390000Y-118040000D02*
X124840000Y-118040000D01*
X132410000Y-122010000D02*
X132410000Y-122560000D01*
X123390000Y-122560000D02*
X123390000Y-122010000D01*
X130960000Y-118040000D02*
X130960000Y-117150000D01*
X132410000Y-122560000D02*
X123390000Y-122560000D01*
X123390000Y-119790000D02*
X123390000Y-118040000D01*
X132410000Y-118040000D02*
X130960000Y-118040000D01*
%TO.C,J1*%
X83550000Y-87800000D02*
X74050000Y-87800000D01*
X83550000Y-97200000D02*
X83550000Y-87800000D01*
X74050000Y-97200000D02*
X83550000Y-97200000D01*
X74050000Y-87800000D02*
X74050000Y-97200000D01*
%TO.C,D7*%
X95450000Y-104500000D02*
X99350000Y-104500000D01*
X95450000Y-104500000D02*
X95450000Y-102500000D01*
X95450000Y-102500000D02*
X99350000Y-102500000D01*
%TO.C,C26*%
X124490000Y-92046267D02*
X124490000Y-91753733D01*
X125510000Y-92046267D02*
X125510000Y-91753733D01*
%TO.C,C25*%
X132090000Y-92046267D02*
X132090000Y-91753733D01*
X133110000Y-92046267D02*
X133110000Y-91753733D01*
%TO.C,C24*%
X126090000Y-92046267D02*
X126090000Y-91753733D01*
X127110000Y-92046267D02*
X127110000Y-91753733D01*
%TO.C,C23*%
X122890000Y-92046267D02*
X122890000Y-91753733D01*
X123910000Y-92046267D02*
X123910000Y-91753733D01*
%TO.C,C22*%
X95953733Y-99590000D02*
X96246267Y-99590000D01*
X95953733Y-100610000D02*
X96246267Y-100610000D01*
%TO.C,C21*%
X101290000Y-103046267D02*
X101290000Y-102753733D01*
X102310000Y-103046267D02*
X102310000Y-102753733D01*
%TO.C,C20*%
X129610000Y-110153733D02*
X129610000Y-110446267D01*
X128590000Y-110153733D02*
X128590000Y-110446267D01*
%TO.C,C19*%
X117553733Y-102090000D02*
X117846267Y-102090000D01*
X117553733Y-103110000D02*
X117846267Y-103110000D01*
%TO.C,C18*%
X126990000Y-110446267D02*
X126990000Y-110153733D01*
X128010000Y-110446267D02*
X128010000Y-110153733D01*
%TO.C,C13*%
X77711252Y-100710000D02*
X76288748Y-100710000D01*
X77711252Y-98890000D02*
X76288748Y-98890000D01*
%TO.C,C12*%
X95114222Y-110446733D02*
X95114222Y-110739267D01*
X96134222Y-110446733D02*
X96134222Y-110739267D01*
%TO.C,C11*%
X85810000Y-103788748D02*
X85810000Y-105211252D01*
X83990000Y-103788748D02*
X83990000Y-105211252D01*
%TO.C,C10*%
X108849000Y-110446733D02*
X108849000Y-110739267D01*
X109869000Y-110446733D02*
X109869000Y-110739267D01*
%TO.C,C9*%
X106886888Y-110446733D02*
X106886888Y-110739267D01*
X107906888Y-110446733D02*
X107906888Y-110739267D01*
%TO.C,C8*%
X85253733Y-108210000D02*
X85546267Y-108210000D01*
X85253733Y-107190000D02*
X85546267Y-107190000D01*
%TO.C,C7*%
X94172111Y-110746267D02*
X94172111Y-110453733D01*
X93152111Y-110746267D02*
X93152111Y-110453733D01*
%TO.C,C6*%
X88753733Y-110210000D02*
X89046267Y-110210000D01*
X88753733Y-109190000D02*
X89046267Y-109190000D01*
%TO.C,C5*%
X92210000Y-110746267D02*
X92210000Y-110453733D01*
X91190000Y-110746267D02*
X91190000Y-110453733D01*
%TO.C,C4*%
X96246267Y-95810000D02*
X95953733Y-95810000D01*
X96246267Y-94790000D02*
X95953733Y-94790000D01*
%TO.C,C3*%
X95953733Y-97990000D02*
X96246267Y-97990000D01*
X95953733Y-99010000D02*
X96246267Y-99010000D01*
%TO.C,C2*%
X98096333Y-110739267D02*
X98096333Y-110446733D01*
X97076333Y-110739267D02*
X97076333Y-110446733D01*
%TO.C,C1*%
X88753733Y-104610000D02*
X89046267Y-104610000D01*
X88753733Y-103590000D02*
X89046267Y-103590000D01*
%TO.C,BZ1*%
X99700000Y-105000000D02*
X99700000Y-105400000D01*
X99700000Y-108000000D02*
X99700000Y-107600000D01*
X95700000Y-105400000D02*
X95700000Y-105000000D01*
X95050000Y-105150000D02*
X95550000Y-105150000D01*
X95700000Y-105000000D02*
X99700000Y-105000000D01*
X95700000Y-108000000D02*
X99700000Y-108000000D01*
X95700000Y-107600000D02*
X95700000Y-108000000D01*
X95300000Y-105400000D02*
X95300000Y-104900000D01*
X97400000Y-106500000D02*
G75*
G03*
X97400000Y-106500000I-400000J0D01*
G01*
%TD*%
M02*
