M48
; DRILL file {KiCad (6.0.5)} date Mon Jan 30 15:52:57 2023
; FORMAT={-:-/ absolute / inch / decimal}
; #@! TF.CreationDate,2023-01-30T15:52:57+08:00
; #@! TF.GenerationSoftware,Kicad,Pcbnew,(6.0.5)
; #@! TF.FileFunction,Plated,1,2,PTH
FMAT,2
INCH
; #@! TA.AperFunction,Plated,PTH,ViaDrill
T1C0.0118
; #@! TA.AperFunction,Plated,PTH,ViaDrill
T2C0.0197
; #@! TA.AperFunction,Plated,PTH,ComponentDrill
T3C0.0236
; #@! TA.AperFunction,Plated,PTH,ViaDrill
T4C0.0295
; #@! TA.AperFunction,Plated,PTH,ComponentDrill
T5C0.0295
%
G90
G05
T1
X2.752Y-4.2795
X2.7756Y-3.7441
X2.7756Y-3.8307
X2.7795Y-3.7874
X2.7795Y-4.3268
X2.7835Y-3.6969
X2.7874Y-4.1732
X2.7874Y-4.2283
X2.7874Y-4.2795
X2.815Y-3.6929
X2.815Y-3.7402
X2.815Y-3.7835
X2.815Y-3.8307
X2.8189Y-3.9488
X2.8189Y-4.0354
X2.8228Y-3.9921
X2.8268Y-3.9016
X2.8268Y-4.1339
X2.8268Y-4.2283
X2.8268Y-4.315
X2.8307Y-4.2717
X2.8346Y-4.1811
X2.8583Y-3.7087
X2.8583Y-3.748
X2.8583Y-3.7913
X2.8583Y-3.8976
X2.8583Y-3.9449
X2.8583Y-3.9882
X2.8583Y-4.0354
X2.8622Y-3.8307
X2.8661Y-4.1378
X2.8661Y-4.1772
X2.8661Y-4.2244
X2.8661Y-4.2677
X2.8661Y-4.315
X2.9016Y-3.9134
X2.9016Y-3.9528
X2.9016Y-3.9961
X2.9055Y-4.0354
X2.9094Y-4.1457
X2.9094Y-4.1929
X2.9094Y-4.2323
X2.9094Y-4.2756
X2.9134Y-4.315
X3.0118Y-4.1535
X3.0118Y-4.1929
X3.0118Y-4.3346
X3.0157Y-3.9528
X3.0157Y-3.9882
X3.0157Y-4.0236
X3.0157Y-4.0551
X3.0157Y-4.2323
X3.0157Y-4.2677
X3.0197Y-4.3031
X3.0315Y-3.9213
X3.0472Y-4.189
X3.0472Y-4.2244
X3.0472Y-4.2598
X3.0512Y-4.1535
X3.0551Y-3.9882
X3.0551Y-4.0236
X3.0551Y-4.0551
X3.0551Y-4.2913
X3.0827Y-4.1496
X3.0827Y-4.185
X3.0827Y-4.2244
X3.0827Y-4.2559
X3.0866Y-3.7283
X3.0866Y-3.7638
X3.0866Y-3.7953
X3.1181Y-4.1457
X3.1181Y-4.1811
X3.122Y-3.7283
X3.122Y-3.7638
X3.122Y-3.7953
X3.122Y-4.2165
X3.1535Y-3.7283
X3.1535Y-3.7638
X3.1535Y-3.7953
X3.1535Y-4.185
X3.1535Y-4.5354
X3.1575Y-4.1457
X3.1614Y-4.5709
X3.1654Y-4.0039
X3.1693Y-4.6102
X3.185Y-4.6378
X3.1929Y-4.1654
X3.2047Y-4.0039
X3.2283Y-4.1654
X3.2441Y-3.9764
X3.2559Y-3.9094
X3.2598Y-4.1654
X3.2717Y-3.7598
X3.2717Y-3.7953
X3.2756Y-3.7283
X3.2756Y-3.8819
X3.2756Y-4.5945
X3.2756Y-4.6339
X3.2756Y-4.6693
X3.2795Y-3.9764
X3.2913Y-4.1496
X3.2913Y-4.1811
X3.2992Y-3.3701
X3.3071Y-3.7244
X3.3071Y-3.7598
X3.3071Y-3.7913
X3.315Y-4.6339
X3.315Y-4.6693
X3.3189Y-3.4094
X3.3425Y-3.3268
X3.3465Y-3.3701
X3.3504Y-3.4331
X3.3543Y-4.6693
X3.3622Y-3.4685
X3.3622Y-3.5118
X3.3661Y-3.5433
X3.3858Y-3.4094
X3.3858Y-4.2756
X3.3898Y-4.1654
X3.3898Y-4.2008
X3.3937Y-3.3701
X3.4016Y-3.4724
X3.4016Y-3.5079
X3.4055Y-3.437
X3.4055Y-3.5433
X3.4213Y-4.2756
X3.4252Y-4.1654
X3.4252Y-4.2008
X3.4331Y-3.4134
X3.437Y-3.3701
X3.4409Y-3.4724
X3.4409Y-3.5118
X3.4409Y-3.5433
X3.4567Y-4.1654
X3.4724Y-3.4252
X3.4764Y-3.5433
X3.4803Y-3.3858
X3.4803Y-3.4724
X3.4803Y-3.5079
X3.5Y-4.063
X3.5039Y-4.3661
X3.5039Y-4.3976
X3.5039Y-4.4291
X3.5039Y-4.4606
X3.5079Y-4.2795
X3.5197Y-3.4252
X3.5197Y-4.5276
X3.5354Y-4.063
X3.5394Y-4.2008
X3.5394Y-4.3661
X3.5394Y-4.3976
X3.5394Y-4.4291
X3.563Y-3.7283
X3.5709Y-4.0984
X3.5709Y-4.1299
X3.5709Y-4.2756
X3.5866Y-3.7559
X3.5945Y-4.1614
X3.6063Y-4.1339
X3.6063Y-4.2717
X3.6102Y-3.7244
X3.622Y-3.6142
X3.622Y-3.6496
X3.622Y-3.685
X3.626Y-3.5315
X3.626Y-3.5748
X3.6339Y-3.752
X3.6339Y-3.9291
X3.6378Y-4.1496
X3.6417Y-4.2717
X3.6535Y-3.7205
X3.6575Y-3.6142
X3.6575Y-4.0551
X3.6614Y-3.6496
X3.6614Y-3.685
X3.6693Y-3.5787
X3.6693Y-3.752
X3.6693Y-4.1496
X3.6772Y-4.2717
X3.6929Y-3.6142
X3.6929Y-3.7205
X3.6969Y-3.6496
X3.6969Y-3.685
X3.7047Y-4.1496
X3.7087Y-3.9803
X3.7244Y-3.9094
X3.7244Y-4.0197
X3.7244Y-4.0512
X3.7244Y-4.5787
X3.7362Y-4.4449
X3.7559Y-4.0039
X3.7598Y-4.5787
X3.7638Y-4.2756
X3.7756Y-3.9094
X3.7913Y-4.0039
X3.7953Y-3.6457
X3.7953Y-3.6811
X3.7953Y-3.7126
X3.7953Y-4.2756
X3.7953Y-4.5787
X3.8031Y-4.311
X3.8031Y-4.3465
X3.815Y-4.1496
X3.8228Y-4.0039
X3.8268Y-3.6457
X3.8268Y-3.6811
X3.8268Y-3.7126
X3.8268Y-4.2756
X3.8307Y-4.5787
X3.8386Y-4.4331
X3.8465Y-4.1496
X3.8583Y-4.0039
X3.8661Y-4.5787
X3.874Y-4.3031
X3.874Y-4.437
X3.878Y-3.5669
X3.878Y-4.1496
X3.8898Y-4.0039
X3.8937Y-3.8268
X3.8937Y-3.8583
X3.9016Y-4.5787
X3.9331Y-3.7953
X3.9331Y-3.8268
X3.9331Y-3.8583
X3.937Y-4.4331
X3.937Y-4.5787
X3.9409Y-4.0118
X3.9685Y-3.6693
X3.9685Y-3.7953
X3.9685Y-3.8268
X3.9685Y-3.8583
X3.9685Y-3.9843
X3.9724Y-4.5787
X3.9764Y-4.1496
X3.9764Y-4.4331
X3.9882Y-3.5591
X3.9882Y-3.6339
X4.0039Y-3.7953
X4.0039Y-3.8268
X4.0039Y-3.8583
X4.0079Y-3.6654
X4.0079Y-4.1496
X4.0079Y-4.5787
X4.0144Y-4.4305
X4.0236Y-3.5669
X4.0394Y-4.1496
X4.0433Y-3.7953
X4.0433Y-3.8268
X4.0433Y-3.8583
X4.0433Y-4.5787
X4.0472Y-3.6575
X4.0591Y-4.0591
X4.0906Y-4.0591
X4.1102Y-4.5551
X4.122Y-4.0591
X4.126Y-4.2717
X4.1417Y-4.5551
X4.1496Y-3.8661
X4.1496Y-3.8976
X4.1535Y-3.9331
X4.1535Y-4.0591
X4.1575Y-4.2717
X4.1614Y-3.7756
X4.1772Y-4.0118
X4.185Y-3.7992
X4.185Y-3.9016
X4.185Y-4.0591
X4.189Y-3.9331
X4.1929Y-4.2717
X4.1929Y-4.5551
X4.2126Y-3.8307
X4.2165Y-4.0276
X4.2165Y-4.0591
X4.2244Y-4.2717
X4.2402Y-3.8583
X4.248Y-4.0276
X4.248Y-4.0591
X4.2598Y-3.9843
X4.2598Y-4.2717
X4.2795Y-3.8661
X4.2795Y-4.0276
X4.2795Y-4.0591
X4.2953Y-4.2717
X4.2992Y-3.8976
X4.311Y-4.0276
X4.311Y-4.0591
X4.315Y-3.8661
X4.3307Y-4.2717
X4.3346Y-3.8976
X4.3425Y-4.0591
X4.3504Y-3.8661
X4.3543Y-4.0236
X4.3661Y-4.2717
X4.3661Y-4.3071
X4.3661Y-4.3425
X4.3661Y-4.378
X4.3701Y-3.8976
X4.3701Y-4.5512
X4.378Y-4.4646
X4.3858Y-3.8661
X4.3898Y-4.0079
X4.3937Y-4.1535
X4.3937Y-4.4291
X4.4016Y-3.8976
X4.4055Y-4.2717
X4.4055Y-4.3071
X4.4055Y-4.3425
X4.4055Y-4.3819
X4.4134Y-4.4724
X4.4213Y-3.8661
X4.4213Y-4.0659
X4.4291Y-4.1535
X4.4291Y-4.5079
X4.4409Y-4.3858
X4.4449Y-4.2756
X4.4449Y-4.3071
X4.4449Y-4.3465
X4.4488Y-4.4724
X4.4528Y-4.0079
X4.4646Y-4.1535
X4.4685Y-4.5118
X4.4685Y-4.5472
X4.4803Y-4.4724
X4.4843Y-4.0079
X4.4843Y-4.3898
X4.4882Y-3.9094
X4.4882Y-4.2756
X4.4882Y-4.311
X4.4882Y-4.3465
X4.4961Y-4.1535
X4.5039Y-4.5079
X4.5039Y-4.5433
X4.5118Y-4.4724
X4.5197Y-3.9094
X4.5197Y-4.3898
X4.5276Y-4.1535
X4.5276Y-4.315
X4.5276Y-4.3504
X4.5315Y-4.2795
X4.5433Y-4.5039
X4.5472Y-4.4724
X4.5512Y-3.9094
X4.5591Y-4.1535
X4.5669Y-4.3898
X4.5709Y-4.3465
X4.5748Y-4.2795
X4.5748Y-4.315
X4.5827Y-3.9094
X4.5945Y-4.1535
X4.6024Y-4.3898
X4.6063Y-4.3504
X4.6142Y-3.9094
X4.6142Y-4.311
X4.6181Y-4.2795
X4.6299Y-4.1535
X4.6457Y-3.9094
X4.6457Y-4.3386
X4.6732Y-3.5157
X4.6732Y-4.2953
X4.6772Y-3.9094
X4.689Y-3.8268
X4.7087Y-3.5669
X4.7087Y-3.6024
X4.7087Y-3.9094
X4.7126Y-4.626
X4.7126Y-4.6614
X4.7126Y-4.7008
X4.7165Y-4.4409
X4.7165Y-4.4724
X4.7165Y-4.5039
X4.7323Y-3.7953
X4.7402Y-4.4173
X4.7441Y-3.5669
X4.7441Y-3.5984
X4.748Y-4.4724
X4.748Y-4.5039
X4.748Y-4.626
X4.748Y-4.6614
X4.748Y-4.7008
X4.748Y-4.7362
X4.752Y-3.3819
X4.752Y-3.4173
X4.752Y-3.4528
X4.752Y-3.8307
X4.7598Y-4.4449
X4.7677Y-3.7953
X4.7677Y-4.1772
X4.7756Y-4.2795
X4.7756Y-4.311
X4.7756Y-4.4173
X4.7795Y-3.7008
X4.7795Y-4.2402
X4.7795Y-4.4724
X4.7795Y-4.5039
X4.7835Y-4.626
X4.7835Y-4.6614
X4.7835Y-4.7008
X4.7835Y-4.7362
X4.7874Y-3.3819
X4.7874Y-3.4173
X4.7874Y-3.4528
X4.7874Y-3.8307
X4.7953Y-3.5512
X4.7992Y-4.4449
X4.8031Y-3.7953
X4.8071Y-4.2795
X4.8071Y-4.311
X4.8071Y-4.3425
X4.8189Y-4.626
X4.8189Y-4.6614
X4.8228Y-3.3819
X4.8228Y-3.4173
X4.8228Y-3.4528
X4.8228Y-3.7008
X4.8307Y-3.8307
X4.8386Y-4.2795
X4.8386Y-4.311
X4.8386Y-4.3425
X4.8386Y-4.374
X4.8465Y-4.2244
X4.8543Y-4.6614
X4.8583Y-3.3819
X4.8583Y-3.4173
X4.8583Y-3.4528
X4.8583Y-3.4882
X4.8583Y-3.5236
X4.8701Y-4.2795
X4.8701Y-4.311
X4.8701Y-4.3425
X4.8701Y-4.374
X4.8701Y-4.4094
X4.874Y-4.2441
X4.8858Y-4.6969
X4.8898Y-3.9173
X4.8898Y-3.9528
X4.8937Y-3.3819
X4.8937Y-3.4173
X4.8937Y-3.4528
X4.8937Y-3.4882
X4.8937Y-3.5236
X4.9055Y-4.122
X4.9094Y-3.9921
X4.9094Y-4.0276
X4.9094Y-4.063
X4.9173Y-4.6142
X4.9252Y-3.9173
X4.9252Y-3.9528
X4.9252Y-4.7362
X4.9291Y-3.3819
X4.9291Y-3.4173
X4.9291Y-3.4528
X4.9291Y-3.4882
X4.9291Y-3.5236
X4.9528Y-3.9921
X4.9528Y-4.0276
X4.9528Y-4.063
X4.9528Y-4.0984
X4.9528Y-4.1339
X4.9567Y-4.7362
X4.9606Y-3.9173
X4.9606Y-3.9528
X4.9646Y-3.3819
X4.9646Y-3.4173
X4.9646Y-3.4528
X4.9646Y-3.4882
X4.9646Y-3.5236
X4.9685Y-4.252
X4.9685Y-4.2874
X4.9685Y-4.3504
X4.9764Y-4.6969
X4.9882Y-3.9921
X4.9882Y-4.0276
X4.9882Y-4.063
X4.9882Y-4.0984
X4.9882Y-4.1339
X4.9882Y-4.7362
X4.9961Y-3.9528
X5.0Y-3.3819
X5.0Y-3.4173
X5.0Y-3.4528
X5.0Y-3.4882
X5.0Y-3.5236
X5.0236Y-3.9921
X5.0236Y-4.0276
X5.0236Y-4.063
X5.0236Y-4.0984
X5.0236Y-4.1339
X5.0236Y-4.7362
X5.0354Y-3.4528
X5.0354Y-3.4882
X5.0354Y-3.5236
X5.0433Y-3.9449
X5.0472Y-4.4094
X5.0472Y-4.4409
X5.0472Y-4.4724
X5.0472Y-4.5039
X5.0512Y-4.374
X5.0591Y-3.9094
X5.0591Y-3.9921
X5.0591Y-4.0276
X5.0591Y-4.063
X5.0591Y-4.0984
X5.0591Y-4.1339
X5.0709Y-3.4528
X5.0709Y-3.4882
X5.0709Y-3.5236
X5.0945Y-3.9921
X5.0945Y-4.0276
X5.0945Y-4.063
X5.0945Y-4.0984
X5.0945Y-4.1339
X5.1063Y-3.4528
X5.1063Y-3.4882
X5.1063Y-3.5236
X5.2087Y-3.7165
X5.2087Y-3.752
X5.2087Y-3.7874
X5.2087Y-3.8189
X5.2087Y-3.8543
X5.2402Y-3.9134
X5.2441Y-3.7165
X5.2441Y-3.752
X5.2441Y-3.7874
X5.2441Y-3.8189
X5.2441Y-3.8543
X5.2717Y-3.9764
X5.2795Y-3.7165
X5.2795Y-3.752
X5.2795Y-3.7874
X5.2795Y-3.8189
X5.2795Y-3.8543
X5.315Y-3.7165
X5.315Y-3.752
X5.315Y-3.7874
X5.315Y-3.8189
X5.315Y-3.8543
T2
X3.8504Y-3.5197
X4.0394Y-3.5197
X4.4764Y-4.1024
X5.0827Y-4.2677
T4
X3.4055Y-4.1102
X3.4094Y-3.8386
X4.7441Y-3.6535
X5.1654Y-4.5787
T3
G00X3.7748Y-3.2604
M15
G01X3.7748Y-3.2841
M16
G05
G00X3.7748Y-3.4152
M15
G01X3.7748Y-3.4585
M16
G05
G00X4.115Y-3.2604
M15
G01X4.115Y-3.2841
M16
G05
G00X4.115Y-3.4152
M15
G01X4.115Y-3.4585
M16
G05
T5
G00X3.5518Y-3.526
M15
G01X3.5518Y-3.6539
M16
G05
G00X4.3392Y-3.526
M15
G01X4.3392Y-3.6539
M16
G05
T0
M30
