%TF.GenerationSoftware,KiCad,Pcbnew,(6.0.5)*%
%TF.CreationDate,2023-01-29T08:36:09+08:00*%
%TF.ProjectId,Brushless_ESC_STC_V2,42727573-686c-4657-9373-5f4553435f53,rev?*%
%TF.SameCoordinates,Original*%
%TF.FileFunction,Copper,L3,Inr*%
%TF.FilePolarity,Positive*%
%FSLAX46Y46*%
G04 Gerber Fmt 4.6, Leading zero omitted, Abs format (unit mm)*
G04 Created by KiCad (PCBNEW (6.0.5)) date 2023-01-29 08:36:09*
%MOMM*%
%LPD*%
G01*
G04 APERTURE LIST*
%TA.AperFunction,ViaPad*%
%ADD10C,1.200000*%
%TD*%
%TA.AperFunction,ViaPad*%
%ADD11C,0.600000*%
%TD*%
%TA.AperFunction,ViaPad*%
%ADD12C,0.500000*%
%TD*%
%TA.AperFunction,ViaPad*%
%ADD13C,0.800000*%
%TD*%
%TA.AperFunction,Conductor*%
%ADD14C,0.400000*%
%TD*%
%TA.AperFunction,Conductor*%
%ADD15C,0.250000*%
%TD*%
%TA.AperFunction,Conductor*%
%ADD16C,0.300000*%
%TD*%
G04 APERTURE END LIST*
D10*
%TO.N,+5V*%
X85852000Y-115824000D03*
D11*
%TO.N,GND*%
X82473800Y-121666000D03*
X84836000Y-111125000D03*
X95504000Y-110363000D03*
X93040200Y-114452400D03*
X88036400Y-116967000D03*
X88646000Y-111125000D03*
X100076000Y-110363000D03*
X94742000Y-110363000D03*
X92786200Y-115595400D03*
X93218000Y-111125000D03*
X80238600Y-118059200D03*
X88874600Y-116103400D03*
X97790000Y-110363000D03*
X80924400Y-116027200D03*
X97028000Y-111887000D03*
X94437200Y-127533400D03*
X91592400Y-117373400D03*
X95681800Y-128879600D03*
X88620600Y-113512600D03*
X80060800Y-116128800D03*
X100076000Y-111125000D03*
D12*
X98018600Y-128803400D03*
D11*
X96266000Y-111125000D03*
X82499200Y-122605800D03*
X81026000Y-110363000D03*
X85598000Y-110363000D03*
X85598000Y-111887000D03*
D12*
X85217000Y-120523000D03*
D11*
X93218000Y-110363000D03*
X87960200Y-115062000D03*
X91694000Y-110363000D03*
X83286600Y-121183400D03*
X89306400Y-130175000D03*
D12*
X87757000Y-122809000D03*
D11*
X90170000Y-111887000D03*
X93980000Y-111887000D03*
X90932000Y-111887000D03*
X83312000Y-111125000D03*
X80137000Y-117144800D03*
X98552000Y-110363000D03*
X79832200Y-115163600D03*
X96266000Y-111887000D03*
X84074000Y-111125000D03*
X83312000Y-110363000D03*
X99314000Y-111125000D03*
D12*
X98425000Y-128320800D03*
D11*
X81026000Y-111125000D03*
X88646000Y-111887000D03*
X85598000Y-111125000D03*
X94742000Y-111887000D03*
X100838000Y-110363000D03*
X84074000Y-111887000D03*
X97028000Y-111125000D03*
X80264000Y-110363000D03*
X97434400Y-119862600D03*
X82550000Y-111125000D03*
X93319600Y-121158000D03*
X88900000Y-115290600D03*
X97358200Y-118999000D03*
X96418400Y-114376200D03*
X83794600Y-124891800D03*
X90170000Y-110363000D03*
X95631000Y-114376200D03*
X88976200Y-117805200D03*
X89077800Y-124409200D03*
X94361000Y-121996200D03*
X87884000Y-110363000D03*
X84836000Y-110363000D03*
X90932000Y-110363000D03*
X99314000Y-110363000D03*
X84074000Y-110363000D03*
X96266000Y-110363000D03*
X94564200Y-115290600D03*
X90932000Y-111125000D03*
X99314000Y-111887000D03*
X93980000Y-110363000D03*
X86360000Y-110363000D03*
X82981800Y-123291600D03*
X89408000Y-110363000D03*
X90932000Y-129387600D03*
X96316800Y-120954800D03*
X87122000Y-110363000D03*
X93548200Y-115316000D03*
X81153000Y-118160800D03*
X95504000Y-111887000D03*
X95504000Y-111125000D03*
X91694000Y-111887000D03*
X95173800Y-115976400D03*
X85521800Y-124307600D03*
X87884000Y-111887000D03*
X93980000Y-114477800D03*
X81788000Y-111887000D03*
D12*
X86995000Y-122047000D03*
D11*
X96520000Y-127812800D03*
X84836000Y-111887000D03*
X82550000Y-110363000D03*
X81026000Y-111887000D03*
X92456000Y-111887000D03*
X97790000Y-111887000D03*
X88646000Y-110363000D03*
X89662000Y-124993400D03*
X82423000Y-124053600D03*
X87909400Y-114096800D03*
X82016600Y-123240800D03*
X87122000Y-111887000D03*
X93497400Y-121996200D03*
X83312000Y-111887000D03*
X97028000Y-110363000D03*
X92303600Y-117043200D03*
X88900000Y-116916200D03*
X95478600Y-121005600D03*
X82727800Y-116078000D03*
X86360000Y-111125000D03*
X100838000Y-111125000D03*
X94742000Y-111125000D03*
X94818200Y-114503200D03*
X82042000Y-118059200D03*
X94538800Y-121081800D03*
X93980000Y-111125000D03*
D12*
X87757000Y-122047000D03*
D11*
X80975200Y-123113800D03*
X83210400Y-122174000D03*
X81788000Y-111125000D03*
X89408000Y-111125000D03*
X93218000Y-111887000D03*
X86360000Y-111887000D03*
X89331800Y-128879600D03*
X84023200Y-128905000D03*
X100076000Y-111887000D03*
X82499200Y-128854200D03*
X81788000Y-110363000D03*
X84582000Y-124307600D03*
D12*
X86995000Y-122809000D03*
D11*
X98323400Y-119354600D03*
X81889600Y-116027200D03*
X92456000Y-110363000D03*
X85547200Y-125120400D03*
X88036400Y-115976400D03*
X100838000Y-111887000D03*
X80264000Y-111887000D03*
X82550000Y-111887000D03*
X80264000Y-111125000D03*
X90170000Y-111125000D03*
D12*
X85344000Y-119761000D03*
D11*
X97790000Y-111125000D03*
X89408000Y-111887000D03*
X87884000Y-111125000D03*
X92456000Y-111125000D03*
X88061800Y-117729000D03*
X98552000Y-111125000D03*
X87122000Y-111125000D03*
X84632800Y-125120400D03*
X91694000Y-111125000D03*
X98552000Y-111887000D03*
X85598000Y-128930400D03*
%TO.N,VDD*%
X84836000Y-132969000D03*
D12*
X100076000Y-122555000D03*
D11*
X89408000Y-132969000D03*
X89408000Y-133731000D03*
D12*
X99441000Y-118618000D03*
D11*
X84836000Y-133731000D03*
X90932000Y-134493000D03*
D12*
X100711000Y-118618000D03*
D11*
X83312000Y-132969000D03*
X81026000Y-134493000D03*
X95504000Y-133731000D03*
D12*
X99441000Y-122555000D03*
D11*
X90170000Y-134493000D03*
X92456000Y-132969000D03*
X81788000Y-134493000D03*
X93980000Y-134493000D03*
X90932000Y-132969000D03*
X81788000Y-132969000D03*
D12*
X100711000Y-128651000D03*
D11*
X82550000Y-133731000D03*
X100838000Y-133731000D03*
X86360000Y-134493000D03*
X93218000Y-132969000D03*
X90932000Y-133731000D03*
X91694000Y-133731000D03*
D12*
X100711000Y-119888000D03*
D11*
X87122000Y-134493000D03*
X88646000Y-134493000D03*
D12*
X99441000Y-119253000D03*
X100076000Y-119253000D03*
D11*
X99314000Y-133731000D03*
X86360000Y-133731000D03*
D12*
X100711000Y-132080000D03*
X100711000Y-122555000D03*
D11*
X82550000Y-132969000D03*
X99314000Y-134493000D03*
X95504000Y-132969000D03*
X88646000Y-132969000D03*
X92456000Y-133731000D03*
X84074000Y-133731000D03*
X94742000Y-133731000D03*
X97028000Y-134493000D03*
X90170000Y-133731000D03*
X97790000Y-132969000D03*
X91694000Y-134493000D03*
X100076000Y-134493000D03*
D12*
X99441000Y-132080000D03*
D11*
X88646000Y-133731000D03*
X94742000Y-132969000D03*
X81026000Y-132969000D03*
X84074000Y-134493000D03*
X80264000Y-134493000D03*
X81026000Y-133731000D03*
X98552000Y-132969000D03*
X87884000Y-133731000D03*
X87122000Y-132969000D03*
X97028000Y-132969000D03*
D12*
X100711000Y-119253000D03*
D11*
X82550000Y-134493000D03*
D12*
X99441000Y-119888000D03*
D11*
X93218000Y-134493000D03*
X91694000Y-132969000D03*
X85598000Y-134493000D03*
X99314000Y-132969000D03*
X85598000Y-132969000D03*
X98552000Y-133731000D03*
D12*
X100076000Y-116459000D03*
D11*
X93980000Y-132969000D03*
D12*
X100076000Y-123190000D03*
D11*
X96266000Y-132969000D03*
X84836000Y-134493000D03*
D12*
X100076000Y-132080000D03*
D11*
X80264000Y-133731000D03*
X83312000Y-134493000D03*
D12*
X100711000Y-116459000D03*
X100076000Y-119888000D03*
D10*
X81178400Y-124383800D03*
D12*
X99441000Y-116459000D03*
D11*
X85598000Y-133731000D03*
X81788000Y-133731000D03*
X87884000Y-134493000D03*
X87122000Y-133731000D03*
X100838000Y-134493000D03*
X86360000Y-132969000D03*
X90170000Y-132969000D03*
X97790000Y-134493000D03*
X80264000Y-132969000D03*
X97790000Y-133731000D03*
D12*
X100076000Y-128651000D03*
D11*
X97028000Y-133731000D03*
D12*
X100076000Y-123825000D03*
D11*
X89408000Y-134493000D03*
X92456000Y-134493000D03*
X95504000Y-134493000D03*
X96266000Y-134493000D03*
X83312000Y-133731000D03*
X87884000Y-132969000D03*
X100076000Y-133731000D03*
X100838000Y-132969000D03*
X100076000Y-132969000D03*
X93218000Y-133731000D03*
D12*
X99441000Y-123825000D03*
D11*
X96266000Y-133731000D03*
X84074000Y-132969000D03*
X93980000Y-133731000D03*
D12*
X100711000Y-123190000D03*
X100076000Y-118618000D03*
D11*
X98552000Y-134493000D03*
D12*
X99441000Y-123190000D03*
D11*
X94742000Y-134493000D03*
D12*
X99441000Y-128651000D03*
D13*
%TO.N,Net-(D3-Pad1)*%
X97917000Y-121666000D03*
X102616000Y-121412000D03*
%TO.N,Net-(D4-Pad1)*%
X102108000Y-128651000D03*
X98044000Y-126746000D03*
D11*
%TO.N,/W*%
X108712000Y-116840000D03*
X108712000Y-114554000D03*
X114935000Y-116840000D03*
X110998000Y-113792000D03*
X106426000Y-116078000D03*
X110236000Y-113792000D03*
X106426000Y-114554000D03*
X114935000Y-114554000D03*
X107950000Y-117602000D03*
X114935000Y-116078000D03*
X110236000Y-117602000D03*
X110998000Y-116840000D03*
X106426000Y-113030000D03*
X107188000Y-114554000D03*
X106426000Y-116840000D03*
X107188000Y-113792000D03*
X112649000Y-114554000D03*
X110998000Y-116078000D03*
X110236000Y-113030000D03*
X111760000Y-113792000D03*
X110998000Y-115316000D03*
X112649000Y-115316000D03*
X107188000Y-115316000D03*
X113411000Y-114554000D03*
X107188000Y-116840000D03*
X111760000Y-116840000D03*
X107950000Y-113792000D03*
X107950000Y-115316000D03*
X114173000Y-115316000D03*
X109474000Y-116840000D03*
X106426000Y-117602000D03*
X112649000Y-116078000D03*
X109474000Y-116078000D03*
X114173000Y-116078000D03*
X109474000Y-114554000D03*
X110236000Y-116840000D03*
X109474000Y-117602000D03*
X111760000Y-114554000D03*
X107188000Y-116078000D03*
X107188000Y-113030000D03*
X107950000Y-116078000D03*
X114173000Y-114554000D03*
X108712000Y-117602000D03*
X112649000Y-113792000D03*
X107950000Y-113030000D03*
X114935000Y-113792000D03*
X113411000Y-113792000D03*
X110236000Y-116078000D03*
X108712000Y-113030000D03*
X107188000Y-117602000D03*
X111760000Y-115316000D03*
X108712000Y-116078000D03*
X111760000Y-117602000D03*
X114173000Y-116840000D03*
X109474000Y-113792000D03*
X114173000Y-113792000D03*
X106426000Y-113792000D03*
D12*
X91186000Y-130302000D03*
D11*
X108712000Y-113792000D03*
X112649000Y-116840000D03*
X113411000Y-116840000D03*
X107950000Y-114554000D03*
X111760000Y-113030000D03*
X108712000Y-115316000D03*
X110998000Y-117602000D03*
X110236000Y-114554000D03*
X109474000Y-115316000D03*
X107950000Y-116840000D03*
X109474000Y-113030000D03*
X110998000Y-113030000D03*
X113411000Y-115316000D03*
X110236000Y-115316000D03*
X106426000Y-115316000D03*
X110998000Y-114554000D03*
X114935000Y-115316000D03*
X113411000Y-116078000D03*
X111760000Y-116078000D03*
D12*
%TO.N,/V*%
X85598000Y-130556000D03*
D11*
X112649000Y-122428000D03*
X112649000Y-123190000D03*
X112649000Y-121666000D03*
X113411000Y-121666000D03*
X107950000Y-123952000D03*
X110236000Y-120142000D03*
X114173000Y-122428000D03*
X108712000Y-120142000D03*
X106426000Y-120142000D03*
X107950000Y-120142000D03*
X107950000Y-123190000D03*
X109474000Y-122428000D03*
X111760000Y-120142000D03*
X110236000Y-124714000D03*
X107188000Y-123190000D03*
X107188000Y-124714000D03*
X109474000Y-120142000D03*
X107188000Y-123952000D03*
X107950000Y-124714000D03*
X108712000Y-122428000D03*
X106426000Y-121666000D03*
X111760000Y-123952000D03*
X110998000Y-124714000D03*
X110998000Y-123952000D03*
X110236000Y-121666000D03*
X113411000Y-123190000D03*
X110998000Y-120904000D03*
X108712000Y-123952000D03*
X111760000Y-121666000D03*
X109474000Y-120904000D03*
X106426000Y-123952000D03*
X110236000Y-123952000D03*
X109474000Y-124714000D03*
X108712000Y-124714000D03*
X113411000Y-123952000D03*
X114173000Y-123190000D03*
X110236000Y-122428000D03*
X107950000Y-120904000D03*
X113411000Y-120904000D03*
X109474000Y-123952000D03*
X106426000Y-122428000D03*
X106426000Y-120904000D03*
X114935000Y-120904000D03*
X111760000Y-123190000D03*
X107950000Y-121666000D03*
X110998000Y-122428000D03*
X111760000Y-122428000D03*
X114173000Y-121666000D03*
X109474000Y-121666000D03*
X112649000Y-123952000D03*
X108712000Y-120904000D03*
X107950000Y-122428000D03*
X112649000Y-120904000D03*
X110998000Y-120142000D03*
X110236000Y-120904000D03*
X107188000Y-122428000D03*
X110236000Y-123190000D03*
X107188000Y-120904000D03*
X114935000Y-122428000D03*
X107188000Y-121666000D03*
X113411000Y-122428000D03*
X111760000Y-120904000D03*
X106426000Y-124714000D03*
X110998000Y-121666000D03*
X114935000Y-123952000D03*
X114173000Y-120904000D03*
X109474000Y-123190000D03*
X108712000Y-123190000D03*
X114173000Y-123952000D03*
X107188000Y-120142000D03*
X114935000Y-121666000D03*
X111760000Y-124714000D03*
X106426000Y-123190000D03*
X114935000Y-123190000D03*
X110998000Y-123190000D03*
X108712000Y-121666000D03*
%TO.N,/U*%
X107188000Y-131064000D03*
X110998000Y-131826000D03*
X107188000Y-130302000D03*
X112649000Y-128016000D03*
X110998000Y-128778000D03*
X110236000Y-128016000D03*
X113411000Y-128016000D03*
X114935000Y-131064000D03*
X114173000Y-130302000D03*
X108712000Y-128016000D03*
X106426000Y-130302000D03*
X114173000Y-128016000D03*
X110236000Y-131826000D03*
X110998000Y-131064000D03*
X110236000Y-128778000D03*
X107188000Y-128778000D03*
X107950000Y-127254000D03*
X106426000Y-128016000D03*
X110236000Y-127254000D03*
X109474000Y-129540000D03*
X114173000Y-129540000D03*
X109474000Y-128016000D03*
X113411000Y-129540000D03*
X108712000Y-130302000D03*
X109474000Y-127254000D03*
X113411000Y-130302000D03*
X106426000Y-131064000D03*
X110236000Y-131064000D03*
X107950000Y-128016000D03*
X107950000Y-129540000D03*
X110998000Y-128016000D03*
X107188000Y-128016000D03*
X109474000Y-131826000D03*
X110998000Y-130302000D03*
X111760000Y-130302000D03*
X107950000Y-131064000D03*
X113411000Y-128778000D03*
X114173000Y-128778000D03*
X106426000Y-128778000D03*
X110998000Y-127254000D03*
X111760000Y-131064000D03*
X106426000Y-131826000D03*
D12*
X83820000Y-130556000D03*
D11*
X114935000Y-130302000D03*
X107188000Y-131826000D03*
X111760000Y-128016000D03*
X106426000Y-129540000D03*
X106426000Y-127254000D03*
X110236000Y-130302000D03*
X107950000Y-131826000D03*
X107950000Y-128778000D03*
X114935000Y-128016000D03*
X112649000Y-131064000D03*
X107188000Y-127254000D03*
X109474000Y-131064000D03*
X109474000Y-130302000D03*
X110998000Y-129540000D03*
X108712000Y-129540000D03*
X114173000Y-131064000D03*
X111760000Y-129540000D03*
X112649000Y-128778000D03*
X107188000Y-129540000D03*
X108712000Y-128778000D03*
X113411000Y-131064000D03*
X108712000Y-131064000D03*
X112649000Y-129540000D03*
X108712000Y-131826000D03*
X111760000Y-128778000D03*
X107950000Y-130302000D03*
X114935000Y-128778000D03*
X111760000Y-127254000D03*
X114935000Y-129540000D03*
X108712000Y-127254000D03*
X110236000Y-129540000D03*
X112649000Y-130302000D03*
X109474000Y-128778000D03*
X111760000Y-131826000D03*
D13*
%TO.N,Net-(Q5-PadG)*%
X95504000Y-118364000D03*
%TO.N,Net-(Q7-PadG)*%
X95504000Y-124968000D03*
D11*
%TO.N,Net-(Q9-PadG)*%
X95377000Y-130937000D03*
D12*
%TO.N,/PWM3*%
X91694000Y-116205000D03*
X90805000Y-123825000D03*
%TO.N,/PWM1*%
X90805000Y-124841000D03*
X92583000Y-127889000D03*
%TO.N,/PWM1L*%
X93573600Y-127990600D03*
X90678000Y-121478500D03*
%TO.N,/CMP-*%
X83185000Y-125806200D03*
X90805000Y-127254000D03*
D13*
%TO.N,Net-(J2-Pad1)*%
X85191600Y-113766600D03*
%TD*%
D14*
%TO.N,Net-(D3-Pad1)*%
X102362000Y-121666000D02*
X102616000Y-121412000D01*
X97917000Y-121666000D02*
X102362000Y-121666000D01*
%TO.N,Net-(D4-Pad1)*%
X100203000Y-126746000D02*
X98044000Y-126746000D01*
X102108000Y-128651000D02*
X100203000Y-126746000D01*
D15*
%TO.N,/W*%
X93091000Y-130302000D02*
X98044000Y-125349000D01*
X105283000Y-116840000D02*
X106426000Y-116840000D01*
X100457000Y-125349000D02*
X104775000Y-121031000D01*
X98044000Y-125349000D02*
X100457000Y-125349000D01*
X104775000Y-117348000D02*
X105283000Y-116840000D01*
X91186000Y-130302000D02*
X93091000Y-130302000D01*
X104775000Y-121031000D02*
X104775000Y-117348000D01*
%TO.N,/V*%
X106426000Y-125984000D02*
X106426000Y-122428000D01*
X85918511Y-130876511D02*
X93152207Y-130876511D01*
X94488718Y-129540000D02*
X102870000Y-129540000D01*
X102870000Y-129540000D02*
X106426000Y-125984000D01*
X85598000Y-130556000D02*
X85918511Y-130876511D01*
X93152207Y-130876511D02*
X94488718Y-129540000D01*
%TO.N,/U*%
X106426000Y-130302000D02*
X106426000Y-131064000D01*
X84074000Y-130302000D02*
X85098031Y-131326031D01*
X85098031Y-131326031D02*
X93338405Y-131326031D01*
X93338405Y-131326031D02*
X94616436Y-130048000D01*
X106172000Y-130048000D02*
X106426000Y-130302000D01*
X94616436Y-130048000D02*
X106172000Y-130048000D01*
X83820000Y-130556000D02*
X84074000Y-130302000D01*
D16*
%TO.N,/PWM3*%
X90805000Y-123825000D02*
X89916000Y-122936000D01*
X89916000Y-117983000D02*
X91694000Y-116205000D01*
X89916000Y-122936000D02*
X89916000Y-117983000D01*
%TO.N,/PWM1*%
X90805000Y-124841000D02*
X92583000Y-126619000D01*
X92583000Y-126619000D02*
X92583000Y-127889000D01*
%TO.N,/PWM1L*%
X93573600Y-127990600D02*
X93599000Y-127965200D01*
X93599000Y-124399500D02*
X90678000Y-121478500D01*
X93599000Y-127965200D02*
X93599000Y-124399500D01*
%TO.N,/CMP-*%
X84632800Y-127254000D02*
X90805000Y-127254000D01*
X83185000Y-125806200D02*
X84632800Y-127254000D01*
%TD*%
%TA.AperFunction,Conductor*%
%TO.N,/CMP-*%
G36*
X90701830Y-127034579D02*
G01*
X90774019Y-127104000D01*
X90921231Y-127245567D01*
X90924819Y-127253771D01*
X90921231Y-127262433D01*
X90729488Y-127446824D01*
X90701831Y-127473420D01*
X90693492Y-127476685D01*
X90688743Y-127475575D01*
X90658858Y-127461524D01*
X90658840Y-127461516D01*
X90658753Y-127461475D01*
X90658661Y-127461436D01*
X90658649Y-127461430D01*
X90624852Y-127446884D01*
X90624843Y-127446880D01*
X90624712Y-127446824D01*
X90612257Y-127442159D01*
X90592793Y-127434869D01*
X90592785Y-127434866D01*
X90592624Y-127434806D01*
X90592449Y-127434752D01*
X90592442Y-127434750D01*
X90561410Y-127425239D01*
X90561404Y-127425237D01*
X90561207Y-127425177D01*
X90561003Y-127425129D01*
X90560998Y-127425128D01*
X90552283Y-127423093D01*
X90529178Y-127417696D01*
X90500972Y-127413058D01*
X90495433Y-127412147D01*
X90495429Y-127412147D01*
X90495256Y-127412118D01*
X90495087Y-127412100D01*
X90495071Y-127412098D01*
X90474771Y-127409956D01*
X90458159Y-127408202D01*
X90443529Y-127407323D01*
X90416678Y-127405710D01*
X90416661Y-127405709D01*
X90416605Y-127405706D01*
X90391316Y-127405000D01*
X90369398Y-127404388D01*
X90369313Y-127404386D01*
X90369242Y-127404385D01*
X90369220Y-127404385D01*
X90350643Y-127404253D01*
X90326616Y-127404083D01*
X90318368Y-127400597D01*
X90315000Y-127392383D01*
X90315000Y-127115617D01*
X90318427Y-127107344D01*
X90326616Y-127103917D01*
X90343646Y-127103796D01*
X90369220Y-127103614D01*
X90369242Y-127103614D01*
X90369313Y-127103613D01*
X90369398Y-127103611D01*
X90391316Y-127102999D01*
X90416605Y-127102293D01*
X90416661Y-127102290D01*
X90416678Y-127102289D01*
X90443529Y-127100676D01*
X90458159Y-127099797D01*
X90474771Y-127098043D01*
X90495071Y-127095901D01*
X90495087Y-127095899D01*
X90495256Y-127095881D01*
X90495429Y-127095852D01*
X90495433Y-127095852D01*
X90500972Y-127094941D01*
X90529178Y-127090303D01*
X90552283Y-127084906D01*
X90560998Y-127082871D01*
X90561003Y-127082870D01*
X90561207Y-127082822D01*
X90561404Y-127082762D01*
X90561410Y-127082760D01*
X90592442Y-127073249D01*
X90592449Y-127073247D01*
X90592624Y-127073193D01*
X90592785Y-127073133D01*
X90592793Y-127073130D01*
X90612257Y-127065840D01*
X90624712Y-127061175D01*
X90624843Y-127061119D01*
X90624852Y-127061115D01*
X90658649Y-127046569D01*
X90658659Y-127046564D01*
X90658753Y-127046524D01*
X90688743Y-127032425D01*
X90697688Y-127032006D01*
X90701830Y-127034579D01*
G37*
%TD.AperFunction*%
%TD*%
%TA.AperFunction,Conductor*%
%TO.N,/CMP-*%
G36*
X83413106Y-125724000D02*
G01*
X83421310Y-125727588D01*
X83423883Y-125731730D01*
X83435119Y-125762906D01*
X83448829Y-125797335D01*
X83463021Y-125828522D01*
X83478428Y-125857546D01*
X83495785Y-125885484D01*
X83495888Y-125885628D01*
X83495895Y-125885638D01*
X83506039Y-125899774D01*
X83515827Y-125913414D01*
X83539290Y-125942414D01*
X83566907Y-125973562D01*
X83566963Y-125973621D01*
X83599370Y-126007889D01*
X83599461Y-126007983D01*
X83629391Y-126038343D01*
X83632759Y-126046641D01*
X83629332Y-126054830D01*
X83433630Y-126250532D01*
X83425357Y-126253959D01*
X83417143Y-126250591D01*
X83386783Y-126220661D01*
X83386764Y-126220643D01*
X83386736Y-126220615D01*
X83386714Y-126220594D01*
X83386689Y-126220570D01*
X83352421Y-126188163D01*
X83352362Y-126188107D01*
X83321214Y-126160490D01*
X83309021Y-126150625D01*
X83292353Y-126137139D01*
X83292344Y-126137132D01*
X83292214Y-126137027D01*
X83278574Y-126127239D01*
X83264438Y-126117095D01*
X83264428Y-126117088D01*
X83264284Y-126116985D01*
X83264130Y-126116889D01*
X83264119Y-126116882D01*
X83236522Y-126099737D01*
X83236515Y-126099733D01*
X83236346Y-126099628D01*
X83234275Y-126098529D01*
X83207477Y-126084303D01*
X83207470Y-126084300D01*
X83207322Y-126084221D01*
X83193839Y-126078086D01*
X83176283Y-126070096D01*
X83176271Y-126070091D01*
X83176135Y-126070029D01*
X83141706Y-126056319D01*
X83110530Y-126045083D01*
X83103910Y-126039055D01*
X83102800Y-126034306D01*
X83096850Y-125729977D01*
X83100115Y-125721638D01*
X83108777Y-125718050D01*
X83413106Y-125724000D01*
G37*
%TD.AperFunction*%
%TD*%
%TA.AperFunction,Conductor*%
%TO.N,Net-(D3-Pad1)*%
G36*
X98098704Y-121309593D02*
G01*
X98155651Y-121337430D01*
X98212783Y-121365228D01*
X98212829Y-121365249D01*
X98212862Y-121365265D01*
X98236083Y-121376002D01*
X98265209Y-121389469D01*
X98315389Y-121410231D01*
X98348629Y-121421680D01*
X98365578Y-121427519D01*
X98365584Y-121427521D01*
X98365782Y-121427589D01*
X98418846Y-121441621D01*
X98477041Y-121452401D01*
X98498079Y-121454833D01*
X98542665Y-121459989D01*
X98542680Y-121459990D01*
X98542825Y-121460007D01*
X98596353Y-121463188D01*
X98618538Y-121464507D01*
X98618547Y-121464507D01*
X98618659Y-121464514D01*
X98618778Y-121464516D01*
X98695497Y-121465807D01*
X98703711Y-121469372D01*
X98707000Y-121477505D01*
X98707000Y-121854495D01*
X98703573Y-121862768D01*
X98695497Y-121866193D01*
X98618857Y-121867482D01*
X98618659Y-121867485D01*
X98618547Y-121867492D01*
X98618538Y-121867492D01*
X98596353Y-121868811D01*
X98542825Y-121871992D01*
X98542680Y-121872009D01*
X98542665Y-121872010D01*
X98498079Y-121877166D01*
X98477041Y-121879598D01*
X98418846Y-121890378D01*
X98365782Y-121904410D01*
X98365584Y-121904478D01*
X98365578Y-121904480D01*
X98348629Y-121910319D01*
X98315389Y-121921768D01*
X98265209Y-121942530D01*
X98212783Y-121966771D01*
X98155651Y-121994569D01*
X98098705Y-122022407D01*
X98089769Y-122022962D01*
X98085458Y-122020329D01*
X97931206Y-121871992D01*
X97725769Y-121674433D01*
X97722181Y-121666229D01*
X97725769Y-121657567D01*
X97921469Y-121469372D01*
X97983037Y-121410164D01*
X98085458Y-121311671D01*
X98093797Y-121308406D01*
X98098704Y-121309593D01*
G37*
%TD.AperFunction*%
%TD*%
%TA.AperFunction,Conductor*%
%TO.N,Net-(D3-Pad1)*%
G36*
X102757210Y-121284991D02*
G01*
X102765160Y-121289113D01*
X102767866Y-121297649D01*
X102767429Y-121299966D01*
X102618430Y-121803782D01*
X102612797Y-121810744D01*
X102607431Y-121812162D01*
X102536178Y-121813510D01*
X102536175Y-121813510D01*
X102536075Y-121813512D01*
X102535974Y-121813518D01*
X102535972Y-121813518D01*
X102527998Y-121813986D01*
X102466130Y-121817616D01*
X102403132Y-121823664D01*
X102366552Y-121828211D01*
X102344080Y-121831004D01*
X102344061Y-121831007D01*
X102344050Y-121831008D01*
X102321666Y-121834082D01*
X102285907Y-121838992D01*
X102285851Y-121839000D01*
X102225571Y-121846983D01*
X102225402Y-121847003D01*
X102168294Y-121853403D01*
X102160165Y-121854314D01*
X102159819Y-121854348D01*
X102086417Y-121860369D01*
X102086024Y-121860394D01*
X102043748Y-121862436D01*
X102001446Y-121864479D01*
X102001107Y-121864490D01*
X101925418Y-121865643D01*
X101913878Y-121865819D01*
X101905554Y-121862518D01*
X101902000Y-121854120D01*
X101902000Y-121477270D01*
X101905427Y-121468997D01*
X101913261Y-121465578D01*
X101960384Y-121463810D01*
X101960650Y-121463800D01*
X101960911Y-121463766D01*
X101960915Y-121463766D01*
X101998607Y-121458902D01*
X102011928Y-121457183D01*
X102012246Y-121457104D01*
X102012253Y-121457103D01*
X102040758Y-121450049D01*
X102056643Y-121446118D01*
X102095607Y-121430579D01*
X102129631Y-121410536D01*
X102159526Y-121385961D01*
X102186102Y-121356824D01*
X102210172Y-121323098D01*
X102232545Y-121284754D01*
X102250482Y-121248870D01*
X102257246Y-121243002D01*
X102261948Y-121242444D01*
X102757210Y-121284991D01*
G37*
%TD.AperFunction*%
%TD*%
%TA.AperFunction,Conductor*%
%TO.N,Net-(D4-Pad1)*%
G36*
X98225704Y-126389593D02*
G01*
X98282651Y-126417430D01*
X98339783Y-126445228D01*
X98339829Y-126445249D01*
X98339862Y-126445265D01*
X98363083Y-126456002D01*
X98392209Y-126469469D01*
X98442389Y-126490231D01*
X98475629Y-126501680D01*
X98492578Y-126507519D01*
X98492584Y-126507521D01*
X98492782Y-126507589D01*
X98545846Y-126521621D01*
X98604041Y-126532401D01*
X98625079Y-126534833D01*
X98669665Y-126539989D01*
X98669680Y-126539990D01*
X98669825Y-126540007D01*
X98723353Y-126543188D01*
X98745538Y-126544507D01*
X98745547Y-126544507D01*
X98745659Y-126544514D01*
X98745778Y-126544516D01*
X98822497Y-126545807D01*
X98830711Y-126549372D01*
X98834000Y-126557505D01*
X98834000Y-126934495D01*
X98830573Y-126942768D01*
X98822497Y-126946193D01*
X98745857Y-126947482D01*
X98745659Y-126947485D01*
X98745547Y-126947492D01*
X98745538Y-126947492D01*
X98723353Y-126948811D01*
X98669825Y-126951992D01*
X98669680Y-126952009D01*
X98669665Y-126952010D01*
X98625079Y-126957166D01*
X98604041Y-126959598D01*
X98545846Y-126970378D01*
X98492782Y-126984410D01*
X98492584Y-126984478D01*
X98492578Y-126984480D01*
X98475629Y-126990319D01*
X98442389Y-127001768D01*
X98392209Y-127022530D01*
X98339783Y-127046771D01*
X98282651Y-127074569D01*
X98225705Y-127102407D01*
X98216769Y-127102962D01*
X98212458Y-127100329D01*
X98058206Y-126951992D01*
X97852769Y-126754433D01*
X97849181Y-126746229D01*
X97852769Y-126737567D01*
X98048469Y-126549372D01*
X98110037Y-126490164D01*
X98212458Y-126391671D01*
X98220797Y-126388406D01*
X98225704Y-126389593D01*
G37*
%TD.AperFunction*%
%TD*%
%TA.AperFunction,Conductor*%
%TO.N,Net-(D4-Pad1)*%
G36*
X101699078Y-127958962D02*
G01*
X101754324Y-128012380D01*
X101811133Y-128062815D01*
X101811243Y-128062902D01*
X101811257Y-128062914D01*
X101862880Y-128103837D01*
X101863028Y-128103954D01*
X101911800Y-128137481D01*
X101959244Y-128165081D01*
X102007151Y-128188440D01*
X102023251Y-128195116D01*
X102057216Y-128209202D01*
X102057238Y-128209210D01*
X102057314Y-128209242D01*
X102111526Y-128229172D01*
X102111559Y-128229183D01*
X102111569Y-128229187D01*
X102171581Y-128249914D01*
X102231531Y-128270497D01*
X102238243Y-128276425D01*
X102239430Y-128281334D01*
X102241865Y-128405880D01*
X102249183Y-128780256D01*
X102245918Y-128788595D01*
X102237256Y-128792183D01*
X101900601Y-128785602D01*
X101738334Y-128782430D01*
X101730130Y-128778842D01*
X101727497Y-128774531D01*
X101706914Y-128714581D01*
X101706880Y-128714482D01*
X101706873Y-128714461D01*
X101686187Y-128654569D01*
X101686183Y-128654559D01*
X101686172Y-128654526D01*
X101666242Y-128600314D01*
X101666210Y-128600238D01*
X101666202Y-128600216D01*
X101645499Y-128550294D01*
X101645440Y-128550151D01*
X101622081Y-128502244D01*
X101594481Y-128454800D01*
X101560954Y-128406028D01*
X101560837Y-128405880D01*
X101519914Y-128354257D01*
X101519902Y-128354243D01*
X101519815Y-128354133D01*
X101469380Y-128297324D01*
X101415962Y-128242078D01*
X101412675Y-128233749D01*
X101416100Y-128225673D01*
X101682673Y-127959100D01*
X101690946Y-127955673D01*
X101699078Y-127958962D01*
G37*
%TD.AperFunction*%
%TD*%
%TA.AperFunction,Conductor*%
%TO.N,/W*%
G36*
X91302325Y-130080600D02*
G01*
X91334783Y-130096490D01*
X91370117Y-130113760D01*
X91370144Y-130113773D01*
X91370147Y-130113774D01*
X91402588Y-130128889D01*
X91433631Y-130141871D01*
X91451465Y-130148098D01*
X91464600Y-130152685D01*
X91464606Y-130152687D01*
X91464804Y-130152756D01*
X91497631Y-130161581D01*
X91497829Y-130161618D01*
X91497836Y-130161620D01*
X91515635Y-130164981D01*
X91533639Y-130168381D01*
X91574352Y-130173193D01*
X91621297Y-130176054D01*
X91664502Y-130176801D01*
X91672715Y-130180370D01*
X91676000Y-130188499D01*
X91676000Y-130415501D01*
X91672573Y-130423774D01*
X91664503Y-130427199D01*
X91621297Y-130427945D01*
X91574352Y-130430806D01*
X91533639Y-130435618D01*
X91515635Y-130439018D01*
X91497836Y-130442379D01*
X91497829Y-130442381D01*
X91497631Y-130442418D01*
X91464804Y-130451243D01*
X91464606Y-130451312D01*
X91464600Y-130451314D01*
X91451465Y-130455901D01*
X91433631Y-130462128D01*
X91402588Y-130475110D01*
X91402457Y-130475171D01*
X91402448Y-130475175D01*
X91370201Y-130490200D01*
X91370117Y-130490239D01*
X91334783Y-130507509D01*
X91302325Y-130523400D01*
X91293389Y-130523960D01*
X91289071Y-130521325D01*
X91069769Y-130310433D01*
X91066181Y-130302229D01*
X91069769Y-130293567D01*
X91289071Y-130082675D01*
X91297410Y-130079410D01*
X91302325Y-130080600D01*
G37*
%TD.AperFunction*%
%TD*%
%TA.AperFunction,Conductor*%
%TO.N,/V*%
G36*
X85611218Y-130469598D02*
G01*
X85825283Y-130473784D01*
X85833487Y-130477372D01*
X85836380Y-130482547D01*
X85843295Y-130509234D01*
X85843564Y-130510604D01*
X85848476Y-130546999D01*
X85848551Y-130547726D01*
X85851230Y-130585056D01*
X85853501Y-130621759D01*
X85857252Y-130656226D01*
X85864399Y-130687214D01*
X85876857Y-130713479D01*
X85896539Y-130733779D01*
X85916827Y-130742994D01*
X85924537Y-130746496D01*
X85924538Y-130746496D01*
X85925361Y-130746870D01*
X85926256Y-130746974D01*
X85926259Y-130746975D01*
X85954892Y-130750307D01*
X85962713Y-130754668D01*
X85965239Y-130761929D01*
X85965239Y-130988619D01*
X85961812Y-130996892D01*
X85953539Y-131000319D01*
X85952407Y-131000264D01*
X85910170Y-130996159D01*
X85907689Y-130995642D01*
X85864337Y-130981565D01*
X85862052Y-130980541D01*
X85826496Y-130959785D01*
X85824867Y-130958637D01*
X85794485Y-130933071D01*
X85793625Y-130932269D01*
X85766118Y-130903858D01*
X85765935Y-130903665D01*
X85739373Y-130874952D01*
X85739250Y-130874819D01*
X85711397Y-130848230D01*
X85680126Y-130826333D01*
X85643105Y-130811474D01*
X85642353Y-130811383D01*
X85642350Y-130811382D01*
X85620403Y-130808719D01*
X85605899Y-130806959D01*
X85598099Y-130802560D01*
X85595989Y-130798301D01*
X85513519Y-130482569D01*
X85514744Y-130473698D01*
X85521882Y-130468292D01*
X85525067Y-130467914D01*
X85611218Y-130469598D01*
G37*
%TD.AperFunction*%
%TD*%
%TA.AperFunction,Conductor*%
%TO.N,/U*%
G36*
X84228552Y-130293097D02*
G01*
X84230271Y-130293295D01*
X84235502Y-130295235D01*
X84250226Y-130305220D01*
X84255149Y-130312698D01*
X84253341Y-130321469D01*
X84251931Y-130323175D01*
X84092489Y-130482617D01*
X84084216Y-130486044D01*
X84077009Y-130483561D01*
X84073406Y-130480743D01*
X84073405Y-130480743D01*
X84071921Y-130479582D01*
X84070038Y-130479537D01*
X84070037Y-130479536D01*
X84065885Y-130479436D01*
X84063560Y-130479380D01*
X84059112Y-130487623D01*
X84057608Y-130502599D01*
X84058079Y-130522599D01*
X84058085Y-130522688D01*
X84059557Y-130545910D01*
X84059546Y-130545911D01*
X84059559Y-130545940D01*
X84061058Y-130570586D01*
X84061077Y-130571021D01*
X84061645Y-130595149D01*
X84061629Y-130596093D01*
X84060391Y-130617693D01*
X84060148Y-130619486D01*
X84058103Y-130628988D01*
X84053012Y-130636355D01*
X84046894Y-130638224D01*
X83760653Y-130643820D01*
X83752314Y-130640555D01*
X83748726Y-130632351D01*
X83752151Y-130623849D01*
X83990282Y-130385718D01*
X83998555Y-130382291D01*
X84004627Y-130383989D01*
X84020373Y-130393547D01*
X84044758Y-130392758D01*
X84059522Y-130385718D01*
X84069362Y-130381026D01*
X84069365Y-130381024D01*
X84069877Y-130380780D01*
X84070331Y-130380442D01*
X84070335Y-130380439D01*
X84095523Y-130361652D01*
X84095531Y-130361646D01*
X84095678Y-130361536D01*
X84095814Y-130361420D01*
X84095825Y-130361411D01*
X84122009Y-130339036D01*
X84122220Y-130338860D01*
X84148595Y-130317372D01*
X84149709Y-130316569D01*
X84175411Y-130300232D01*
X84178080Y-130298976D01*
X84195608Y-130293295D01*
X84202267Y-130291137D01*
X84207207Y-130290644D01*
X84228552Y-130293097D01*
G37*
%TD.AperFunction*%
%TD*%
%TA.AperFunction,Conductor*%
%TO.N,/PWM3*%
G36*
X90572857Y-123380609D02*
G01*
X90603216Y-123410538D01*
X90603263Y-123410584D01*
X90603285Y-123410605D01*
X90603310Y-123410629D01*
X90628363Y-123434321D01*
X90637637Y-123443092D01*
X90668785Y-123470709D01*
X90668888Y-123470792D01*
X90697646Y-123494060D01*
X90697655Y-123494067D01*
X90697785Y-123494172D01*
X90711425Y-123503960D01*
X90725561Y-123514104D01*
X90725571Y-123514111D01*
X90725715Y-123514214D01*
X90725869Y-123514310D01*
X90725880Y-123514317D01*
X90753477Y-123531462D01*
X90753484Y-123531466D01*
X90753653Y-123531571D01*
X90753832Y-123531666D01*
X90782522Y-123546896D01*
X90782529Y-123546899D01*
X90782677Y-123546978D01*
X90796160Y-123553113D01*
X90813716Y-123561103D01*
X90813728Y-123561108D01*
X90813864Y-123561170D01*
X90848293Y-123574880D01*
X90848370Y-123574908D01*
X90848389Y-123574915D01*
X90868046Y-123581999D01*
X90879469Y-123586116D01*
X90886090Y-123592145D01*
X90887200Y-123596894D01*
X90893150Y-123901223D01*
X90889885Y-123909562D01*
X90881223Y-123913150D01*
X90576894Y-123907200D01*
X90568690Y-123903612D01*
X90566116Y-123899469D01*
X90554915Y-123868389D01*
X90554908Y-123868370D01*
X90554880Y-123868293D01*
X90541170Y-123833864D01*
X90526978Y-123802677D01*
X90511571Y-123773653D01*
X90494214Y-123745715D01*
X90494111Y-123745571D01*
X90494104Y-123745561D01*
X90474277Y-123717932D01*
X90474172Y-123717785D01*
X90450709Y-123688785D01*
X90423092Y-123657637D01*
X90414321Y-123648363D01*
X90390629Y-123623310D01*
X90390605Y-123623285D01*
X90390584Y-123623263D01*
X90390538Y-123623216D01*
X90360609Y-123592857D01*
X90357241Y-123584559D01*
X90360668Y-123576370D01*
X90556370Y-123380668D01*
X90564643Y-123377241D01*
X90572857Y-123380609D01*
G37*
%TD.AperFunction*%
%TD*%
%TA.AperFunction,Conductor*%
%TO.N,/PWM3*%
G36*
X91778562Y-116120115D02*
G01*
X91782150Y-116128777D01*
X91776200Y-116433105D01*
X91772612Y-116441309D01*
X91768469Y-116443883D01*
X91737389Y-116455084D01*
X91737370Y-116455091D01*
X91737293Y-116455119D01*
X91702864Y-116468829D01*
X91702728Y-116468891D01*
X91702716Y-116468896D01*
X91685160Y-116476886D01*
X91671677Y-116483021D01*
X91671529Y-116483100D01*
X91671522Y-116483103D01*
X91644724Y-116497329D01*
X91642653Y-116498428D01*
X91642484Y-116498533D01*
X91642477Y-116498537D01*
X91614880Y-116515682D01*
X91614869Y-116515689D01*
X91614715Y-116515785D01*
X91614571Y-116515888D01*
X91614561Y-116515895D01*
X91600425Y-116526039D01*
X91586785Y-116535827D01*
X91586655Y-116535932D01*
X91586646Y-116535939D01*
X91569978Y-116549425D01*
X91557785Y-116559290D01*
X91526637Y-116586907D01*
X91526578Y-116586963D01*
X91492310Y-116619370D01*
X91492285Y-116619394D01*
X91492263Y-116619415D01*
X91492235Y-116619443D01*
X91492216Y-116619461D01*
X91461857Y-116649391D01*
X91453560Y-116652759D01*
X91445370Y-116649332D01*
X91249667Y-116453629D01*
X91246240Y-116445356D01*
X91249607Y-116437143D01*
X91279584Y-116406736D01*
X91279605Y-116406714D01*
X91279629Y-116406689D01*
X91312036Y-116372421D01*
X91312092Y-116372362D01*
X91339709Y-116341214D01*
X91363172Y-116312214D01*
X91372960Y-116298574D01*
X91383104Y-116284438D01*
X91383111Y-116284428D01*
X91383214Y-116284284D01*
X91400571Y-116256346D01*
X91415978Y-116227322D01*
X91430170Y-116196135D01*
X91443880Y-116161706D01*
X91455116Y-116130531D01*
X91461145Y-116123910D01*
X91465894Y-116122800D01*
X91770223Y-116116850D01*
X91778562Y-116120115D01*
G37*
%TD.AperFunction*%
%TD*%
%TA.AperFunction,Conductor*%
%TO.N,/PWM1*%
G36*
X91033106Y-124758800D02*
G01*
X91041310Y-124762388D01*
X91043883Y-124766530D01*
X91055119Y-124797706D01*
X91068829Y-124832135D01*
X91083021Y-124863322D01*
X91098428Y-124892346D01*
X91115785Y-124920284D01*
X91115888Y-124920428D01*
X91115895Y-124920438D01*
X91126039Y-124934574D01*
X91135827Y-124948214D01*
X91159290Y-124977214D01*
X91186907Y-125008362D01*
X91186963Y-125008421D01*
X91219370Y-125042689D01*
X91219461Y-125042783D01*
X91249391Y-125073143D01*
X91252759Y-125081441D01*
X91249332Y-125089630D01*
X91053630Y-125285332D01*
X91045357Y-125288759D01*
X91037143Y-125285391D01*
X91006783Y-125255461D01*
X91006764Y-125255443D01*
X91006736Y-125255415D01*
X91006714Y-125255394D01*
X91006689Y-125255370D01*
X90972421Y-125222963D01*
X90972362Y-125222907D01*
X90941214Y-125195290D01*
X90929021Y-125185425D01*
X90912353Y-125171939D01*
X90912344Y-125171932D01*
X90912214Y-125171827D01*
X90898574Y-125162039D01*
X90884438Y-125151895D01*
X90884428Y-125151888D01*
X90884284Y-125151785D01*
X90884130Y-125151689D01*
X90884119Y-125151682D01*
X90856522Y-125134537D01*
X90856515Y-125134533D01*
X90856346Y-125134428D01*
X90854275Y-125133329D01*
X90827477Y-125119103D01*
X90827470Y-125119100D01*
X90827322Y-125119021D01*
X90813839Y-125112886D01*
X90796283Y-125104896D01*
X90796271Y-125104891D01*
X90796135Y-125104829D01*
X90761706Y-125091119D01*
X90730530Y-125079883D01*
X90723910Y-125073855D01*
X90722800Y-125069106D01*
X90716850Y-124764777D01*
X90720115Y-124756438D01*
X90728777Y-124752850D01*
X91033106Y-124758800D01*
G37*
%TD.AperFunction*%
%TD*%
%TA.AperFunction,Conductor*%
%TO.N,/PWM1*%
G36*
X92729656Y-127402427D02*
G01*
X92733083Y-127410616D01*
X92733386Y-127453313D01*
X92734706Y-127500605D01*
X92737202Y-127542159D01*
X92741118Y-127579256D01*
X92746696Y-127613178D01*
X92754177Y-127645207D01*
X92763806Y-127676624D01*
X92775824Y-127708712D01*
X92790475Y-127742753D01*
X92790516Y-127742840D01*
X92790524Y-127742858D01*
X92804575Y-127772743D01*
X92804994Y-127781688D01*
X92802420Y-127785831D01*
X92591433Y-128005231D01*
X92583229Y-128008819D01*
X92574567Y-128005231D01*
X92363580Y-127785831D01*
X92360315Y-127777492D01*
X92361425Y-127772743D01*
X92363679Y-127767948D01*
X92375524Y-127742753D01*
X92390175Y-127708712D01*
X92402193Y-127676624D01*
X92411822Y-127645207D01*
X92419303Y-127613178D01*
X92424881Y-127579256D01*
X92428797Y-127542159D01*
X92431293Y-127500605D01*
X92432613Y-127453313D01*
X92432917Y-127410616D01*
X92436403Y-127402368D01*
X92444617Y-127399000D01*
X92721383Y-127399000D01*
X92729656Y-127402427D01*
G37*
%TD.AperFunction*%
%TD*%
%TA.AperFunction,Conductor*%
%TO.N,/PWM1L*%
G36*
X90906106Y-121396300D02*
G01*
X90914310Y-121399888D01*
X90916883Y-121404030D01*
X90928119Y-121435206D01*
X90941829Y-121469635D01*
X90956021Y-121500822D01*
X90971428Y-121529846D01*
X90988785Y-121557784D01*
X90988888Y-121557928D01*
X90988895Y-121557938D01*
X90999039Y-121572074D01*
X91008827Y-121585714D01*
X91032290Y-121614714D01*
X91059907Y-121645862D01*
X91059963Y-121645921D01*
X91092370Y-121680189D01*
X91092461Y-121680283D01*
X91122391Y-121710643D01*
X91125759Y-121718941D01*
X91122332Y-121727130D01*
X90926630Y-121922832D01*
X90918357Y-121926259D01*
X90910143Y-121922891D01*
X90879783Y-121892961D01*
X90879764Y-121892943D01*
X90879736Y-121892915D01*
X90879714Y-121892894D01*
X90879689Y-121892870D01*
X90845421Y-121860463D01*
X90845362Y-121860407D01*
X90814214Y-121832790D01*
X90802021Y-121822925D01*
X90785353Y-121809439D01*
X90785344Y-121809432D01*
X90785214Y-121809327D01*
X90771574Y-121799539D01*
X90757438Y-121789395D01*
X90757428Y-121789388D01*
X90757284Y-121789285D01*
X90757130Y-121789189D01*
X90757119Y-121789182D01*
X90729522Y-121772037D01*
X90729515Y-121772033D01*
X90729346Y-121771928D01*
X90727275Y-121770829D01*
X90700477Y-121756603D01*
X90700470Y-121756600D01*
X90700322Y-121756521D01*
X90686839Y-121750386D01*
X90669283Y-121742396D01*
X90669271Y-121742391D01*
X90669135Y-121742329D01*
X90634706Y-121728619D01*
X90603530Y-121717383D01*
X90596910Y-121711355D01*
X90595800Y-121706606D01*
X90589850Y-121402277D01*
X90593115Y-121393938D01*
X90601777Y-121390350D01*
X90906106Y-121396300D01*
G37*
%TD.AperFunction*%
%TD*%
%TA.AperFunction,Conductor*%
%TO.N,/PWM1L*%
G36*
X93745609Y-127488627D02*
G01*
X93749036Y-127496864D01*
X93749182Y-127544357D01*
X93749911Y-127595784D01*
X93751460Y-127640943D01*
X93754104Y-127681298D01*
X93758117Y-127718310D01*
X93763770Y-127753443D01*
X93771340Y-127788158D01*
X93781098Y-127823920D01*
X93793320Y-127862189D01*
X93805592Y-127896842D01*
X93805123Y-127905784D01*
X93802152Y-127909652D01*
X93570489Y-128107095D01*
X93561970Y-128109853D01*
X93553707Y-128105427D01*
X93365442Y-127866190D01*
X93363019Y-127857572D01*
X93364567Y-127853001D01*
X93381232Y-127824825D01*
X93381309Y-127824695D01*
X93398679Y-127792147D01*
X93412895Y-127761069D01*
X93424253Y-127730276D01*
X93433050Y-127698584D01*
X93439583Y-127664809D01*
X93444147Y-127627767D01*
X93447041Y-127586274D01*
X93448559Y-127539146D01*
X93448905Y-127496804D01*
X93452400Y-127488560D01*
X93460605Y-127485200D01*
X93737336Y-127485200D01*
X93745609Y-127488627D01*
G37*
%TD.AperFunction*%
%TD*%
%TA.AperFunction,Conductor*%
%TO.N,/U*%
G36*
X114020646Y-127688062D02*
G01*
X114053951Y-127695307D01*
X114208382Y-127706352D01*
X114293398Y-127712433D01*
X114294423Y-127712529D01*
X114299282Y-127713655D01*
X114300000Y-127713656D01*
X114305452Y-127712412D01*
X114305455Y-127712412D01*
X114311734Y-127710980D01*
X114333752Y-127708500D01*
X114773983Y-127708500D01*
X114796169Y-127711018D01*
X114807641Y-127713656D01*
X114818517Y-127711195D01*
X114829660Y-127711215D01*
X114829659Y-127711705D01*
X114839606Y-127710988D01*
X115007272Y-127724183D01*
X115022616Y-127726613D01*
X115116013Y-127749036D01*
X115209413Y-127771459D01*
X115224180Y-127776258D01*
X115323340Y-127817331D01*
X115401661Y-127849773D01*
X115415502Y-127856826D01*
X115579290Y-127957195D01*
X115591858Y-127966326D01*
X115737931Y-128091084D01*
X115748916Y-128102069D01*
X115873674Y-128248142D01*
X115882805Y-128260710D01*
X115983174Y-128424498D01*
X115990227Y-128438339D01*
X116063741Y-128615816D01*
X116068542Y-128630591D01*
X116100665Y-128764392D01*
X116103400Y-128787503D01*
X116103400Y-130292497D01*
X116100665Y-130315608D01*
X116068542Y-130449409D01*
X116063741Y-130464184D01*
X115990227Y-130641661D01*
X115983174Y-130655502D01*
X115882805Y-130819290D01*
X115873674Y-130831858D01*
X115748916Y-130977931D01*
X115737931Y-130988916D01*
X115591858Y-131113674D01*
X115579290Y-131122805D01*
X115415502Y-131223174D01*
X115401661Y-131230227D01*
X115323340Y-131262669D01*
X115224180Y-131303742D01*
X115209413Y-131308541D01*
X115116013Y-131330964D01*
X115022616Y-131353387D01*
X115007272Y-131355817D01*
X114840117Y-131368972D01*
X114830372Y-131368253D01*
X114830371Y-131368862D01*
X114819224Y-131368842D01*
X114808359Y-131366344D01*
X114796359Y-131369059D01*
X114774512Y-131371500D01*
X114334281Y-131371500D01*
X114311926Y-131368943D01*
X114308949Y-131368253D01*
X114300718Y-131366345D01*
X114300000Y-131366344D01*
X114295221Y-131367434D01*
X114295114Y-131367444D01*
X114171232Y-131376305D01*
X114053951Y-131384693D01*
X113812911Y-131437128D01*
X113808539Y-131438759D01*
X113807796Y-131438893D01*
X113806212Y-131439358D01*
X113806162Y-131439188D01*
X113773945Y-131445000D01*
X106144000Y-131445000D01*
X106085809Y-131426093D01*
X106049845Y-131376593D01*
X106045000Y-131346000D01*
X106045000Y-127784800D01*
X106063907Y-127726609D01*
X106113407Y-127690645D01*
X106144000Y-127685800D01*
X113999602Y-127685800D01*
X114020646Y-127688062D01*
G37*
%TD.AperFunction*%
%TD*%
%TA.AperFunction,Conductor*%
%TO.N,GND*%
G36*
X103845191Y-110047407D02*
G01*
X103881155Y-110096907D01*
X103886000Y-110127500D01*
X103886000Y-112169000D01*
X103867093Y-112227191D01*
X103817593Y-112263155D01*
X103787000Y-112268000D01*
X79982000Y-112268000D01*
X79923809Y-112249093D01*
X79887845Y-112199593D01*
X79883000Y-112169000D01*
X79883000Y-110167128D01*
X79901907Y-110108937D01*
X79951407Y-110072973D01*
X79958885Y-110070864D01*
X79989242Y-110063576D01*
X80065027Y-110045382D01*
X80080371Y-110042952D01*
X80233269Y-110030919D01*
X80248109Y-110031632D01*
X80255470Y-110031632D01*
X80264000Y-110033136D01*
X80281764Y-110030004D01*
X80298953Y-110028500D01*
X103787000Y-110028500D01*
X103845191Y-110047407D01*
G37*
%TD.AperFunction*%
%TD*%
%TA.AperFunction,Conductor*%
%TO.N,/V*%
G36*
X114020646Y-120576062D02*
G01*
X114053951Y-120583307D01*
X114208382Y-120594352D01*
X114293398Y-120600433D01*
X114294423Y-120600529D01*
X114299282Y-120601655D01*
X114300000Y-120601656D01*
X114305452Y-120600412D01*
X114305455Y-120600412D01*
X114311734Y-120598980D01*
X114333752Y-120596500D01*
X114773983Y-120596500D01*
X114796169Y-120599018D01*
X114807641Y-120601656D01*
X114818517Y-120599195D01*
X114829660Y-120599215D01*
X114829659Y-120599705D01*
X114839606Y-120598988D01*
X115007272Y-120612183D01*
X115022616Y-120614613D01*
X115116013Y-120637036D01*
X115209413Y-120659459D01*
X115224180Y-120664258D01*
X115323340Y-120705331D01*
X115401661Y-120737773D01*
X115415502Y-120744826D01*
X115579290Y-120845195D01*
X115591858Y-120854326D01*
X115737931Y-120979084D01*
X115748916Y-120990069D01*
X115873674Y-121136142D01*
X115882805Y-121148710D01*
X115983174Y-121312498D01*
X115990227Y-121326339D01*
X116063741Y-121503816D01*
X116068542Y-121518591D01*
X116100665Y-121652392D01*
X116103400Y-121675503D01*
X116103400Y-123180497D01*
X116100665Y-123203608D01*
X116068542Y-123337409D01*
X116063741Y-123352184D01*
X115990227Y-123529661D01*
X115983174Y-123543502D01*
X115882805Y-123707290D01*
X115873674Y-123719858D01*
X115748916Y-123865931D01*
X115737931Y-123876916D01*
X115591858Y-124001674D01*
X115579290Y-124010805D01*
X115415502Y-124111174D01*
X115401661Y-124118227D01*
X115323340Y-124150669D01*
X115224180Y-124191742D01*
X115209413Y-124196541D01*
X115116012Y-124218965D01*
X115022616Y-124241387D01*
X115007272Y-124243817D01*
X114840117Y-124256972D01*
X114830372Y-124256253D01*
X114830371Y-124256862D01*
X114819224Y-124256842D01*
X114808359Y-124254344D01*
X114796359Y-124257059D01*
X114774512Y-124259500D01*
X114334281Y-124259500D01*
X114311926Y-124256943D01*
X114308949Y-124256253D01*
X114300718Y-124254345D01*
X114300000Y-124254344D01*
X114295221Y-124255434D01*
X114295114Y-124255444D01*
X114171232Y-124264305D01*
X114053951Y-124272693D01*
X113812911Y-124325128D01*
X113808539Y-124326759D01*
X113807796Y-124326893D01*
X113806212Y-124327358D01*
X113806162Y-124327188D01*
X113773945Y-124333000D01*
X106144000Y-124333000D01*
X106085809Y-124314093D01*
X106049845Y-124264593D01*
X106045000Y-124234000D01*
X106045000Y-120672800D01*
X106063907Y-120614609D01*
X106113407Y-120578645D01*
X106144000Y-120573800D01*
X113999602Y-120573800D01*
X114020646Y-120576062D01*
G37*
%TD.AperFunction*%
%TD*%
%TA.AperFunction,Conductor*%
%TO.N,/W*%
G36*
X113806162Y-113416812D02*
G01*
X113806212Y-113416642D01*
X113807796Y-113417107D01*
X113808539Y-113417241D01*
X113812911Y-113418872D01*
X114053951Y-113471307D01*
X114208382Y-113482352D01*
X114293398Y-113488433D01*
X114294423Y-113488529D01*
X114299282Y-113489655D01*
X114300000Y-113489656D01*
X114305452Y-113488412D01*
X114305455Y-113488412D01*
X114311734Y-113486980D01*
X114333752Y-113484500D01*
X114773983Y-113484500D01*
X114796169Y-113487018D01*
X114807641Y-113489656D01*
X114818517Y-113487195D01*
X114829660Y-113487215D01*
X114829659Y-113487705D01*
X114839606Y-113486988D01*
X115007272Y-113500183D01*
X115022616Y-113502613D01*
X115116013Y-113525036D01*
X115209413Y-113547459D01*
X115224180Y-113552258D01*
X115323340Y-113593331D01*
X115401661Y-113625773D01*
X115415502Y-113632826D01*
X115579290Y-113733195D01*
X115591858Y-113742326D01*
X115737931Y-113867084D01*
X115748916Y-113878069D01*
X115873674Y-114024142D01*
X115882805Y-114036710D01*
X115983174Y-114200498D01*
X115990227Y-114214339D01*
X116063741Y-114391816D01*
X116068542Y-114406591D01*
X116100665Y-114540392D01*
X116103400Y-114563503D01*
X116103400Y-116068497D01*
X116100665Y-116091608D01*
X116068542Y-116225409D01*
X116063741Y-116240184D01*
X115990227Y-116417661D01*
X115983174Y-116431502D01*
X115882805Y-116595290D01*
X115873674Y-116607858D01*
X115748916Y-116753931D01*
X115737931Y-116764916D01*
X115591858Y-116889674D01*
X115579290Y-116898805D01*
X115415502Y-116999174D01*
X115401661Y-117006227D01*
X115323340Y-117038669D01*
X115224180Y-117079742D01*
X115209413Y-117084541D01*
X115137553Y-117101793D01*
X115022616Y-117129387D01*
X115007272Y-117131817D01*
X114840117Y-117144972D01*
X114830372Y-117144253D01*
X114830371Y-117144862D01*
X114819224Y-117144842D01*
X114808359Y-117142344D01*
X114796359Y-117145059D01*
X114774512Y-117147500D01*
X114334281Y-117147500D01*
X114311926Y-117144943D01*
X114308949Y-117144253D01*
X114300718Y-117142345D01*
X114300000Y-117142344D01*
X114295221Y-117143434D01*
X114295114Y-117143444D01*
X114185378Y-117151293D01*
X114053951Y-117160693D01*
X114050508Y-117161442D01*
X114020646Y-117167938D01*
X113999602Y-117170200D01*
X106144000Y-117170200D01*
X106085809Y-117151293D01*
X106049845Y-117101793D01*
X106045000Y-117071200D01*
X106045000Y-113510000D01*
X106063907Y-113451809D01*
X106113407Y-113415845D01*
X106144000Y-113411000D01*
X113773945Y-113411000D01*
X113806162Y-113416812D01*
G37*
%TD.AperFunction*%
%TD*%
%TA.AperFunction,Conductor*%
%TO.N,VDD*%
G36*
X103845191Y-132606907D02*
G01*
X103881155Y-132656407D01*
X103886000Y-132687000D01*
X103886000Y-134728500D01*
X103867093Y-134786691D01*
X103817593Y-134822655D01*
X103787000Y-134827500D01*
X80298953Y-134827500D01*
X80281764Y-134825996D01*
X80264000Y-134822864D01*
X80255470Y-134824368D01*
X80248109Y-134824368D01*
X80233269Y-134825081D01*
X80080371Y-134813048D01*
X80065027Y-134810618D01*
X79989242Y-134792424D01*
X79958889Y-134785137D01*
X79906720Y-134753168D01*
X79883305Y-134696640D01*
X79883000Y-134688872D01*
X79883000Y-132687000D01*
X79901907Y-132628809D01*
X79951407Y-132592845D01*
X79982000Y-132588000D01*
X103787000Y-132588000D01*
X103845191Y-132606907D01*
G37*
%TD.AperFunction*%
%TD*%
M02*
