%TF.GenerationSoftware,KiCad,Pcbnew,(6.0.5)*%
%TF.CreationDate,2023-01-29T08:36:09+08:00*%
%TF.ProjectId,Brushless_ESC_STC_V2,42727573-686c-4657-9373-5f4553435f53,rev?*%
%TF.SameCoordinates,Original*%
%TF.FileFunction,Copper,L4,Bot*%
%TF.FilePolarity,Positive*%
%FSLAX46Y46*%
G04 Gerber Fmt 4.6, Leading zero omitted, Abs format (unit mm)*
G04 Created by KiCad (PCBNEW (6.0.5)) date 2023-01-29 08:36:09*
%MOMM*%
%LPD*%
G01*
G04 APERTURE LIST*
G04 Aperture macros list*
%AMRoundRect*
0 Rectangle with rounded corners*
0 $1 Rounding radius*
0 $2 $3 $4 $5 $6 $7 $8 $9 X,Y pos of 4 corners*
0 Add a 4 corners polygon primitive as box body*
4,1,4,$2,$3,$4,$5,$6,$7,$8,$9,$2,$3,0*
0 Add four circle primitives for the rounded corners*
1,1,$1+$1,$2,$3*
1,1,$1+$1,$4,$5*
1,1,$1+$1,$6,$7*
1,1,$1+$1,$8,$9*
0 Add four rect primitives between the rounded corners*
20,1,$1+$1,$2,$3,$4,$5,0*
20,1,$1+$1,$4,$5,$6,$7,0*
20,1,$1+$1,$6,$7,$8,$9,0*
20,1,$1+$1,$8,$9,$2,$3,0*%
G04 Aperture macros list end*
%TA.AperFunction,SMDPad,CuDef*%
%ADD10R,2.200000X1.200000*%
%TD*%
%TA.AperFunction,SMDPad,CuDef*%
%ADD11R,6.400000X5.800000*%
%TD*%
%TA.AperFunction,SMDPad,CuDef*%
%ADD12RoundRect,0.250000X1.100000X-0.325000X1.100000X0.325000X-1.100000X0.325000X-1.100000X-0.325000X0*%
%TD*%
%TA.AperFunction,SMDPad,CuDef*%
%ADD13RoundRect,0.381000X0.762000X0.381000X-0.762000X0.381000X-0.762000X-0.381000X0.762000X-0.381000X0*%
%TD*%
%TA.AperFunction,ViaPad*%
%ADD14C,1.200000*%
%TD*%
%TA.AperFunction,ViaPad*%
%ADD15C,0.600000*%
%TD*%
%TA.AperFunction,ViaPad*%
%ADD16C,0.500000*%
%TD*%
%TA.AperFunction,ViaPad*%
%ADD17C,0.800000*%
%TD*%
%TA.AperFunction,Conductor*%
%ADD18C,0.800000*%
%TD*%
%TA.AperFunction,Conductor*%
%ADD19C,0.400000*%
%TD*%
G04 APERTURE END LIST*
D10*
%TO.P,U2,1,VI*%
%TO.N,VDD*%
X80636000Y-126359000D03*
D11*
%TO.P,U2,2,GND*%
%TO.N,GND*%
X86936000Y-124079000D03*
D10*
%TO.P,U2,3,VO*%
%TO.N,+5V*%
X80636000Y-121799000D03*
%TD*%
D12*
%TO.P,C6,1*%
%TO.N,VDD*%
X90678000Y-132158000D03*
%TO.P,C6,2*%
%TO.N,GND*%
X90678000Y-129208000D03*
%TD*%
%TO.P,C11,1*%
%TO.N,VDD*%
X80772000Y-132158000D03*
%TO.P,C11,2*%
%TO.N,GND*%
X80772000Y-129208000D03*
%TD*%
D11*
%TO.P,Q5,D,D*%
%TO.N,/W*%
X109034000Y-115316000D03*
D10*
%TO.P,Q5,G,G*%
%TO.N,Net-(Q5-PadG)*%
X102734000Y-117596000D03*
%TO.P,Q5,S,S*%
%TO.N,GND*%
X102734000Y-113036000D03*
%TD*%
D12*
%TO.P,C5,1*%
%TO.N,VDD*%
X93980000Y-132158000D03*
%TO.P,C5,2*%
%TO.N,GND*%
X93980000Y-129208000D03*
%TD*%
%TO.P,C4,1*%
%TO.N,VDD*%
X97282000Y-132158000D03*
%TO.P,C4,2*%
%TO.N,GND*%
X97282000Y-129208000D03*
%TD*%
D13*
%TO.P,J1,1,Pin_1*%
%TO.N,+5V*%
X81915000Y-119634000D03*
%TD*%
D11*
%TO.P,Q9,D,D*%
%TO.N,/U*%
X109034000Y-129540000D03*
D10*
%TO.P,Q9,G,G*%
%TO.N,Net-(Q9-PadG)*%
X102734000Y-131820000D03*
%TO.P,Q9,S,S*%
%TO.N,GND*%
X102734000Y-127260000D03*
%TD*%
D13*
%TO.P,J2,1,Pin_1*%
%TO.N,Net-(J2-Pad1)*%
X81915000Y-114554000D03*
%TD*%
%TO.P,J3,1,Pin_1*%
%TO.N,GND*%
X81915000Y-117094000D03*
%TD*%
D11*
%TO.P,Q7,D,D*%
%TO.N,/V*%
X109034000Y-122428000D03*
D10*
%TO.P,Q7,G,G*%
%TO.N,Net-(Q7-PadG)*%
X102734000Y-124708000D03*
%TO.P,Q7,S,S*%
%TO.N,GND*%
X102734000Y-120148000D03*
%TD*%
D12*
%TO.P,C9,1*%
%TO.N,VDD*%
X84074000Y-132158000D03*
%TO.P,C9,2*%
%TO.N,GND*%
X84074000Y-129208000D03*
%TD*%
%TO.P,C7,1*%
%TO.N,VDD*%
X87376000Y-132158000D03*
%TO.P,C7,2*%
%TO.N,GND*%
X87376000Y-129208000D03*
%TD*%
D14*
%TO.N,+5V*%
X85852000Y-115824000D03*
D15*
%TO.N,GND*%
X82473800Y-121666000D03*
X84836000Y-111125000D03*
X95504000Y-110363000D03*
X93040200Y-114452400D03*
X88036400Y-116967000D03*
X88646000Y-111125000D03*
X100076000Y-110363000D03*
X94742000Y-110363000D03*
X92786200Y-115595400D03*
X93218000Y-111125000D03*
X80238600Y-118059200D03*
X88874600Y-116103400D03*
X97790000Y-110363000D03*
X80924400Y-116027200D03*
X97028000Y-111887000D03*
X94437200Y-127533400D03*
X91592400Y-117373400D03*
X95681800Y-128879600D03*
X88620600Y-113512600D03*
X80060800Y-116128800D03*
X100076000Y-111125000D03*
D16*
X98018600Y-128803400D03*
D15*
X96266000Y-111125000D03*
X82499200Y-122605800D03*
X81026000Y-110363000D03*
X85598000Y-110363000D03*
X85598000Y-111887000D03*
D16*
X85217000Y-120523000D03*
D15*
X93218000Y-110363000D03*
X87960200Y-115062000D03*
X91694000Y-110363000D03*
X83286600Y-121183400D03*
X89306400Y-130175000D03*
D16*
X87757000Y-122809000D03*
D15*
X90170000Y-111887000D03*
X93980000Y-111887000D03*
X90932000Y-111887000D03*
X83312000Y-111125000D03*
X80137000Y-117144800D03*
X98552000Y-110363000D03*
X79832200Y-115163600D03*
X96266000Y-111887000D03*
X84074000Y-111125000D03*
X83312000Y-110363000D03*
X99314000Y-111125000D03*
D16*
X98425000Y-128320800D03*
D15*
X81026000Y-111125000D03*
X88646000Y-111887000D03*
X85598000Y-111125000D03*
X94742000Y-111887000D03*
X100838000Y-110363000D03*
X84074000Y-111887000D03*
X97028000Y-111125000D03*
X80264000Y-110363000D03*
X97434400Y-119862600D03*
X82550000Y-111125000D03*
X93319600Y-121158000D03*
X88900000Y-115290600D03*
X97358200Y-118999000D03*
X96418400Y-114376200D03*
X83794600Y-124891800D03*
X90170000Y-110363000D03*
X95631000Y-114376200D03*
X88976200Y-117805200D03*
X89077800Y-124409200D03*
X94361000Y-121996200D03*
X87884000Y-110363000D03*
X84836000Y-110363000D03*
X90932000Y-110363000D03*
X99314000Y-110363000D03*
X84074000Y-110363000D03*
X96266000Y-110363000D03*
X94564200Y-115290600D03*
X90932000Y-111125000D03*
X99314000Y-111887000D03*
X93980000Y-110363000D03*
X86360000Y-110363000D03*
X82981800Y-123291600D03*
X89408000Y-110363000D03*
X90932000Y-129387600D03*
X96316800Y-120954800D03*
X87122000Y-110363000D03*
X93548200Y-115316000D03*
X81153000Y-118160800D03*
X95504000Y-111887000D03*
X95504000Y-111125000D03*
X91694000Y-111887000D03*
X95173800Y-115976400D03*
X85521800Y-124307600D03*
X87884000Y-111887000D03*
X93980000Y-114477800D03*
X81788000Y-111887000D03*
D16*
X86995000Y-122047000D03*
D15*
X96520000Y-127812800D03*
X84836000Y-111887000D03*
X82550000Y-110363000D03*
X81026000Y-111887000D03*
X92456000Y-111887000D03*
X97790000Y-111887000D03*
X88646000Y-110363000D03*
X89662000Y-124993400D03*
X82423000Y-124053600D03*
X87909400Y-114096800D03*
X82016600Y-123240800D03*
X87122000Y-111887000D03*
X93497400Y-121996200D03*
X83312000Y-111887000D03*
X97028000Y-110363000D03*
X92303600Y-117043200D03*
X88900000Y-116916200D03*
X95478600Y-121005600D03*
X82727800Y-116078000D03*
X86360000Y-111125000D03*
X100838000Y-111125000D03*
X94742000Y-111125000D03*
X94818200Y-114503200D03*
X82042000Y-118059200D03*
X94538800Y-121081800D03*
X93980000Y-111125000D03*
D16*
X87757000Y-122047000D03*
D15*
X80975200Y-123113800D03*
X83210400Y-122174000D03*
X81788000Y-111125000D03*
X89408000Y-111125000D03*
X93218000Y-111887000D03*
X86360000Y-111887000D03*
X89331800Y-128879600D03*
X84023200Y-128905000D03*
X100076000Y-111887000D03*
X82499200Y-128854200D03*
X81788000Y-110363000D03*
X84582000Y-124307600D03*
D16*
X86995000Y-122809000D03*
D15*
X98323400Y-119354600D03*
X81889600Y-116027200D03*
X92456000Y-110363000D03*
X85547200Y-125120400D03*
X88036400Y-115976400D03*
X100838000Y-111887000D03*
X80264000Y-111887000D03*
X82550000Y-111887000D03*
X80264000Y-111125000D03*
X90170000Y-111125000D03*
D16*
X85344000Y-119761000D03*
D15*
X97790000Y-111125000D03*
X89408000Y-111887000D03*
X87884000Y-111125000D03*
X92456000Y-111125000D03*
X88061800Y-117729000D03*
X98552000Y-111125000D03*
X87122000Y-111125000D03*
X84632800Y-125120400D03*
X91694000Y-111125000D03*
X98552000Y-111887000D03*
X85598000Y-128930400D03*
%TO.N,VDD*%
X84836000Y-132969000D03*
D16*
X100076000Y-122555000D03*
D15*
X89408000Y-132969000D03*
X89408000Y-133731000D03*
D16*
X99441000Y-118618000D03*
D15*
X84836000Y-133731000D03*
X90932000Y-134493000D03*
D16*
X100711000Y-118618000D03*
D15*
X83312000Y-132969000D03*
X81026000Y-134493000D03*
X95504000Y-133731000D03*
D16*
X99441000Y-122555000D03*
D15*
X90170000Y-134493000D03*
X92456000Y-132969000D03*
X81788000Y-134493000D03*
X93980000Y-134493000D03*
X90932000Y-132969000D03*
X81788000Y-132969000D03*
D16*
X100711000Y-128651000D03*
D15*
X82550000Y-133731000D03*
X100838000Y-133731000D03*
X86360000Y-134493000D03*
X93218000Y-132969000D03*
X90932000Y-133731000D03*
X91694000Y-133731000D03*
D16*
X100711000Y-119888000D03*
D15*
X87122000Y-134493000D03*
X88646000Y-134493000D03*
D16*
X99441000Y-119253000D03*
X100076000Y-119253000D03*
D15*
X99314000Y-133731000D03*
X86360000Y-133731000D03*
D16*
X100711000Y-132080000D03*
X100711000Y-122555000D03*
D15*
X82550000Y-132969000D03*
X99314000Y-134493000D03*
X95504000Y-132969000D03*
X88646000Y-132969000D03*
X92456000Y-133731000D03*
X84074000Y-133731000D03*
X94742000Y-133731000D03*
X97028000Y-134493000D03*
X90170000Y-133731000D03*
X97790000Y-132969000D03*
X91694000Y-134493000D03*
X100076000Y-134493000D03*
D16*
X99441000Y-132080000D03*
D15*
X88646000Y-133731000D03*
X94742000Y-132969000D03*
X81026000Y-132969000D03*
X84074000Y-134493000D03*
X80264000Y-134493000D03*
X81026000Y-133731000D03*
X98552000Y-132969000D03*
X87884000Y-133731000D03*
X87122000Y-132969000D03*
X97028000Y-132969000D03*
D16*
X100711000Y-119253000D03*
D15*
X82550000Y-134493000D03*
D16*
X99441000Y-119888000D03*
D15*
X93218000Y-134493000D03*
X91694000Y-132969000D03*
X85598000Y-134493000D03*
X99314000Y-132969000D03*
X85598000Y-132969000D03*
X98552000Y-133731000D03*
D16*
X100076000Y-116459000D03*
D15*
X93980000Y-132969000D03*
D16*
X100076000Y-123190000D03*
D15*
X96266000Y-132969000D03*
X84836000Y-134493000D03*
D16*
X100076000Y-132080000D03*
D15*
X80264000Y-133731000D03*
X83312000Y-134493000D03*
D16*
X100711000Y-116459000D03*
X100076000Y-119888000D03*
D14*
X81178400Y-124383800D03*
D16*
X99441000Y-116459000D03*
D15*
X85598000Y-133731000D03*
X81788000Y-133731000D03*
X87884000Y-134493000D03*
X87122000Y-133731000D03*
X100838000Y-134493000D03*
X86360000Y-132969000D03*
X90170000Y-132969000D03*
X97790000Y-134493000D03*
X80264000Y-132969000D03*
X97790000Y-133731000D03*
D16*
X100076000Y-128651000D03*
D15*
X97028000Y-133731000D03*
D16*
X100076000Y-123825000D03*
D15*
X89408000Y-134493000D03*
X92456000Y-134493000D03*
X95504000Y-134493000D03*
X96266000Y-134493000D03*
X83312000Y-133731000D03*
X87884000Y-132969000D03*
X100076000Y-133731000D03*
X100838000Y-132969000D03*
X100076000Y-132969000D03*
X93218000Y-133731000D03*
D16*
X99441000Y-123825000D03*
D15*
X96266000Y-133731000D03*
X84074000Y-132969000D03*
X93980000Y-133731000D03*
D16*
X100711000Y-123190000D03*
X100076000Y-118618000D03*
D15*
X98552000Y-134493000D03*
D16*
X99441000Y-123190000D03*
D15*
X94742000Y-134493000D03*
D16*
X99441000Y-128651000D03*
D17*
%TO.N,Net-(D3-Pad1)*%
X97917000Y-121666000D03*
X102616000Y-121412000D03*
%TO.N,Net-(D4-Pad1)*%
X102108000Y-128651000D03*
X98044000Y-126746000D03*
D15*
%TO.N,/W*%
X108712000Y-116840000D03*
X108712000Y-114554000D03*
X114935000Y-116840000D03*
X110998000Y-113792000D03*
X106426000Y-116078000D03*
X110236000Y-113792000D03*
X106426000Y-114554000D03*
X114935000Y-114554000D03*
X107950000Y-117602000D03*
X114935000Y-116078000D03*
X110236000Y-117602000D03*
X110998000Y-116840000D03*
X106426000Y-113030000D03*
X107188000Y-114554000D03*
X106426000Y-116840000D03*
X107188000Y-113792000D03*
X112649000Y-114554000D03*
X110998000Y-116078000D03*
X110236000Y-113030000D03*
X111760000Y-113792000D03*
X110998000Y-115316000D03*
X112649000Y-115316000D03*
X107188000Y-115316000D03*
X113411000Y-114554000D03*
X107188000Y-116840000D03*
X111760000Y-116840000D03*
X107950000Y-113792000D03*
X107950000Y-115316000D03*
X114173000Y-115316000D03*
X109474000Y-116840000D03*
X106426000Y-117602000D03*
X112649000Y-116078000D03*
X109474000Y-116078000D03*
X114173000Y-116078000D03*
X109474000Y-114554000D03*
X110236000Y-116840000D03*
X109474000Y-117602000D03*
X111760000Y-114554000D03*
X107188000Y-116078000D03*
X107188000Y-113030000D03*
X107950000Y-116078000D03*
X114173000Y-114554000D03*
X108712000Y-117602000D03*
X112649000Y-113792000D03*
X107950000Y-113030000D03*
X114935000Y-113792000D03*
X113411000Y-113792000D03*
X110236000Y-116078000D03*
X108712000Y-113030000D03*
X107188000Y-117602000D03*
X111760000Y-115316000D03*
X108712000Y-116078000D03*
X111760000Y-117602000D03*
X114173000Y-116840000D03*
X109474000Y-113792000D03*
X114173000Y-113792000D03*
X106426000Y-113792000D03*
D16*
X91186000Y-130302000D03*
D15*
X108712000Y-113792000D03*
X112649000Y-116840000D03*
X113411000Y-116840000D03*
X107950000Y-114554000D03*
X111760000Y-113030000D03*
X108712000Y-115316000D03*
X110998000Y-117602000D03*
X110236000Y-114554000D03*
X109474000Y-115316000D03*
X107950000Y-116840000D03*
X109474000Y-113030000D03*
X110998000Y-113030000D03*
X113411000Y-115316000D03*
X110236000Y-115316000D03*
X106426000Y-115316000D03*
X110998000Y-114554000D03*
X114935000Y-115316000D03*
X113411000Y-116078000D03*
X111760000Y-116078000D03*
D16*
%TO.N,/V*%
X85598000Y-130556000D03*
D15*
X112649000Y-122428000D03*
X112649000Y-123190000D03*
X112649000Y-121666000D03*
X113411000Y-121666000D03*
X107950000Y-123952000D03*
X110236000Y-120142000D03*
X114173000Y-122428000D03*
X108712000Y-120142000D03*
X106426000Y-120142000D03*
X107950000Y-120142000D03*
X107950000Y-123190000D03*
X109474000Y-122428000D03*
X111760000Y-120142000D03*
X110236000Y-124714000D03*
X107188000Y-123190000D03*
X107188000Y-124714000D03*
X109474000Y-120142000D03*
X107188000Y-123952000D03*
X107950000Y-124714000D03*
X108712000Y-122428000D03*
X106426000Y-121666000D03*
X111760000Y-123952000D03*
X110998000Y-124714000D03*
X110998000Y-123952000D03*
X110236000Y-121666000D03*
X113411000Y-123190000D03*
X110998000Y-120904000D03*
X108712000Y-123952000D03*
X111760000Y-121666000D03*
X109474000Y-120904000D03*
X106426000Y-123952000D03*
X110236000Y-123952000D03*
X109474000Y-124714000D03*
X108712000Y-124714000D03*
X113411000Y-123952000D03*
X114173000Y-123190000D03*
X110236000Y-122428000D03*
X107950000Y-120904000D03*
X113411000Y-120904000D03*
X109474000Y-123952000D03*
X106426000Y-122428000D03*
X106426000Y-120904000D03*
X114935000Y-120904000D03*
X111760000Y-123190000D03*
X107950000Y-121666000D03*
X110998000Y-122428000D03*
X111760000Y-122428000D03*
X114173000Y-121666000D03*
X109474000Y-121666000D03*
X112649000Y-123952000D03*
X108712000Y-120904000D03*
X107950000Y-122428000D03*
X112649000Y-120904000D03*
X110998000Y-120142000D03*
X110236000Y-120904000D03*
X107188000Y-122428000D03*
X110236000Y-123190000D03*
X107188000Y-120904000D03*
X114935000Y-122428000D03*
X107188000Y-121666000D03*
X113411000Y-122428000D03*
X111760000Y-120904000D03*
X106426000Y-124714000D03*
X110998000Y-121666000D03*
X114935000Y-123952000D03*
X114173000Y-120904000D03*
X109474000Y-123190000D03*
X108712000Y-123190000D03*
X114173000Y-123952000D03*
X107188000Y-120142000D03*
X114935000Y-121666000D03*
X111760000Y-124714000D03*
X106426000Y-123190000D03*
X114935000Y-123190000D03*
X110998000Y-123190000D03*
X108712000Y-121666000D03*
%TO.N,/U*%
X107188000Y-131064000D03*
X110998000Y-131826000D03*
X107188000Y-130302000D03*
X112649000Y-128016000D03*
X110998000Y-128778000D03*
X110236000Y-128016000D03*
X113411000Y-128016000D03*
X114935000Y-131064000D03*
X114173000Y-130302000D03*
X108712000Y-128016000D03*
X106426000Y-130302000D03*
X114173000Y-128016000D03*
X110236000Y-131826000D03*
X110998000Y-131064000D03*
X110236000Y-128778000D03*
X107188000Y-128778000D03*
X107950000Y-127254000D03*
X106426000Y-128016000D03*
X110236000Y-127254000D03*
X109474000Y-129540000D03*
X114173000Y-129540000D03*
X109474000Y-128016000D03*
X113411000Y-129540000D03*
X108712000Y-130302000D03*
X109474000Y-127254000D03*
X113411000Y-130302000D03*
X106426000Y-131064000D03*
X110236000Y-131064000D03*
X107950000Y-128016000D03*
X107950000Y-129540000D03*
X110998000Y-128016000D03*
X107188000Y-128016000D03*
X109474000Y-131826000D03*
X110998000Y-130302000D03*
X111760000Y-130302000D03*
X107950000Y-131064000D03*
X113411000Y-128778000D03*
X114173000Y-128778000D03*
X106426000Y-128778000D03*
X110998000Y-127254000D03*
X111760000Y-131064000D03*
X106426000Y-131826000D03*
D16*
X83820000Y-130556000D03*
D15*
X114935000Y-130302000D03*
X107188000Y-131826000D03*
X111760000Y-128016000D03*
X106426000Y-129540000D03*
X106426000Y-127254000D03*
X110236000Y-130302000D03*
X107950000Y-131826000D03*
X107950000Y-128778000D03*
X114935000Y-128016000D03*
X112649000Y-131064000D03*
X107188000Y-127254000D03*
X109474000Y-131064000D03*
X109474000Y-130302000D03*
X110998000Y-129540000D03*
X108712000Y-129540000D03*
X114173000Y-131064000D03*
X111760000Y-129540000D03*
X112649000Y-128778000D03*
X107188000Y-129540000D03*
X108712000Y-128778000D03*
X113411000Y-131064000D03*
X108712000Y-131064000D03*
X112649000Y-129540000D03*
X108712000Y-131826000D03*
X111760000Y-128778000D03*
X107950000Y-130302000D03*
X114935000Y-128778000D03*
X111760000Y-127254000D03*
X114935000Y-129540000D03*
X108712000Y-127254000D03*
X110236000Y-129540000D03*
X112649000Y-130302000D03*
X109474000Y-128778000D03*
X111760000Y-131826000D03*
D17*
%TO.N,Net-(Q5-PadG)*%
X95504000Y-118364000D03*
%TO.N,Net-(Q7-PadG)*%
X95504000Y-124968000D03*
D15*
%TO.N,Net-(Q9-PadG)*%
X95377000Y-130937000D03*
D16*
%TO.N,/PWM3*%
X91694000Y-116205000D03*
X90805000Y-123825000D03*
%TO.N,/PWM1*%
X90805000Y-124841000D03*
X92583000Y-127889000D03*
%TO.N,/PWM1L*%
X93573600Y-127990600D03*
X90678000Y-121478500D03*
%TO.N,/CMP-*%
X83185000Y-125806200D03*
X90805000Y-127254000D03*
D17*
%TO.N,Net-(J2-Pad1)*%
X85191600Y-113766600D03*
%TD*%
D18*
%TO.N,+5V*%
X82042000Y-119634000D02*
X85852000Y-115824000D01*
X81915000Y-119634000D02*
X82042000Y-119634000D01*
%TO.N,VDD*%
X81178400Y-124383800D02*
X81178400Y-125816600D01*
X81178400Y-125816600D02*
X80636000Y-126359000D01*
D19*
%TO.N,Net-(Q5-PadG)*%
X96272000Y-117596000D02*
X95504000Y-118364000D01*
X102734000Y-117596000D02*
X96272000Y-117596000D01*
%TO.N,Net-(Q7-PadG)*%
X95764000Y-124708000D02*
X102734000Y-124708000D01*
X95504000Y-124968000D02*
X95764000Y-124708000D01*
%TO.N,Net-(Q9-PadG)*%
X95377000Y-130937000D02*
X101346000Y-130937000D01*
X101346000Y-130937000D02*
X102229000Y-131820000D01*
X102229000Y-131820000D02*
X102734000Y-131820000D01*
%TO.N,Net-(J2-Pad1)*%
X82702400Y-113766600D02*
X81915000Y-114554000D01*
X85191600Y-113766600D02*
X82702400Y-113766600D01*
%TD*%
%TA.AperFunction,Conductor*%
%TO.N,Net-(J2-Pad1)*%
G36*
X83117106Y-113570170D02*
G01*
X83120848Y-113578747D01*
X83120848Y-113956013D01*
X83117421Y-113964286D01*
X83110314Y-113967655D01*
X83075440Y-113971148D01*
X82993298Y-113979375D01*
X82934535Y-114001701D01*
X82898464Y-114015405D01*
X82898462Y-114015406D01*
X82897570Y-114015745D01*
X82828309Y-114072776D01*
X82780160Y-114147535D01*
X82747770Y-114237087D01*
X82725784Y-114338499D01*
X82725756Y-114338679D01*
X82725756Y-114338681D01*
X82708848Y-114448836D01*
X82708845Y-114448857D01*
X82691645Y-114564920D01*
X82691562Y-114565409D01*
X82668805Y-114684056D01*
X82668570Y-114685046D01*
X82637163Y-114795734D01*
X82631608Y-114802757D01*
X82626136Y-114804238D01*
X81960097Y-114817259D01*
X81661049Y-114823105D01*
X81652710Y-114819840D01*
X81649122Y-114811636D01*
X81649500Y-114808450D01*
X81912817Y-113800359D01*
X81918223Y-113793221D01*
X81923632Y-113791627D01*
X82060773Y-113785700D01*
X82060782Y-113785699D01*
X82061041Y-113785688D01*
X82185122Y-113768558D01*
X82185376Y-113768499D01*
X82185380Y-113768498D01*
X82293164Y-113743358D01*
X82293176Y-113743355D01*
X82293355Y-113743313D01*
X82391856Y-113712659D01*
X82391901Y-113712643D01*
X82391923Y-113712636D01*
X82486737Y-113679300D01*
X82486826Y-113679270D01*
X82557337Y-113655113D01*
X82583848Y-113646031D01*
X82584375Y-113645864D01*
X82621211Y-113635210D01*
X82689674Y-113615409D01*
X82690530Y-113615196D01*
X82810315Y-113590144D01*
X82811304Y-113589981D01*
X82951863Y-113572970D01*
X82952830Y-113572893D01*
X82961375Y-113572573D01*
X83108710Y-113567055D01*
X83117106Y-113570170D01*
G37*
%TD.AperFunction*%
%TD*%
%TA.AperFunction,Conductor*%
%TO.N,Net-(J2-Pad1)*%
G36*
X85023142Y-113412271D02*
G01*
X85125563Y-113510764D01*
X85182073Y-113565107D01*
X85382831Y-113758167D01*
X85386419Y-113766371D01*
X85382831Y-113775033D01*
X85177394Y-113972592D01*
X85023142Y-114120929D01*
X85014803Y-114124194D01*
X85009896Y-114123007D01*
X84952948Y-114095169D01*
X84895816Y-114067371D01*
X84843390Y-114043130D01*
X84793210Y-114022368D01*
X84759970Y-114010919D01*
X84743021Y-114005080D01*
X84743015Y-114005078D01*
X84742817Y-114005010D01*
X84689753Y-113990978D01*
X84631558Y-113980198D01*
X84610520Y-113977766D01*
X84565934Y-113972610D01*
X84565919Y-113972609D01*
X84565774Y-113972592D01*
X84512246Y-113969411D01*
X84490061Y-113968092D01*
X84490052Y-113968092D01*
X84489940Y-113968085D01*
X84489738Y-113968082D01*
X84413103Y-113966793D01*
X84404889Y-113963228D01*
X84401600Y-113955095D01*
X84401600Y-113578105D01*
X84405027Y-113569832D01*
X84413103Y-113566407D01*
X84489821Y-113565116D01*
X84489940Y-113565114D01*
X84490052Y-113565107D01*
X84490061Y-113565107D01*
X84512246Y-113563788D01*
X84565774Y-113560607D01*
X84565919Y-113560590D01*
X84565934Y-113560589D01*
X84610520Y-113555433D01*
X84631558Y-113553001D01*
X84689753Y-113542221D01*
X84742817Y-113528189D01*
X84743015Y-113528121D01*
X84743021Y-113528119D01*
X84759970Y-113522280D01*
X84793210Y-113510831D01*
X84843390Y-113490069D01*
X84872516Y-113476602D01*
X84895737Y-113465865D01*
X84895770Y-113465849D01*
X84895816Y-113465828D01*
X84952948Y-113438030D01*
X85009895Y-113410193D01*
X85018831Y-113409638D01*
X85023142Y-113412271D01*
G37*
%TD.AperFunction*%
%TD*%
%TA.AperFunction,Conductor*%
%TO.N,+5V*%
G36*
X86060306Y-115615371D02*
G01*
X86063894Y-115624033D01*
X86049060Y-116382832D01*
X86045472Y-116391036D01*
X86041471Y-116393557D01*
X85961277Y-116423625D01*
X85882993Y-116458298D01*
X85811553Y-116496015D01*
X85744462Y-116538003D01*
X85679222Y-116585488D01*
X85613335Y-116639697D01*
X85544305Y-116701856D01*
X85469635Y-116773192D01*
X85469573Y-116773253D01*
X85469566Y-116773260D01*
X85386828Y-116854930D01*
X85301659Y-116940032D01*
X85293384Y-116943456D01*
X85285116Y-116940029D01*
X84735971Y-116390884D01*
X84732544Y-116382611D01*
X84735967Y-116374341D01*
X84821069Y-116289171D01*
X84902807Y-116206364D01*
X84974143Y-116131694D01*
X85036302Y-116062664D01*
X85090511Y-115996777D01*
X85137996Y-115931537D01*
X85179984Y-115864446D01*
X85217701Y-115793006D01*
X85252374Y-115714722D01*
X85282442Y-115634530D01*
X85288555Y-115627987D01*
X85293168Y-115626940D01*
X86051967Y-115612106D01*
X86060306Y-115615371D01*
G37*
%TD.AperFunction*%
%TD*%
%TA.AperFunction,Conductor*%
%TO.N,VDD*%
G36*
X81186833Y-124092569D02*
G01*
X81712896Y-124639610D01*
X81716161Y-124647948D01*
X81715114Y-124652561D01*
X81679670Y-124730526D01*
X81648832Y-124810400D01*
X81624987Y-124887585D01*
X81607236Y-124964716D01*
X81594681Y-125044425D01*
X81586424Y-125129346D01*
X81581565Y-125222110D01*
X81579208Y-125325352D01*
X81578452Y-125441704D01*
X81578413Y-125542277D01*
X81578405Y-125562105D01*
X81574975Y-125570376D01*
X81566705Y-125573800D01*
X80778400Y-125573800D01*
X80778347Y-125441704D01*
X80778008Y-125389586D01*
X80778009Y-125389565D01*
X80777592Y-125325460D01*
X80777591Y-125325428D01*
X80777591Y-125325352D01*
X80775234Y-125222110D01*
X80770375Y-125129346D01*
X80762118Y-125044425D01*
X80749563Y-124964716D01*
X80731812Y-124887585D01*
X80707967Y-124810400D01*
X80677129Y-124730526D01*
X80641686Y-124652561D01*
X80641382Y-124643611D01*
X80643903Y-124639611D01*
X81169967Y-124092569D01*
X81178171Y-124088981D01*
X81186833Y-124092569D01*
G37*
%TD.AperFunction*%
%TD*%
%TA.AperFunction,Conductor*%
%TO.N,VDD*%
G36*
X81568812Y-125526803D02*
G01*
X81557910Y-125577933D01*
X81542961Y-125648037D01*
X81542509Y-125649609D01*
X81505202Y-125751807D01*
X81504677Y-125753244D01*
X81504129Y-125754508D01*
X81458079Y-125845661D01*
X81457635Y-125846460D01*
X81407280Y-125929348D01*
X81407134Y-125929581D01*
X81356524Y-126008241D01*
X81356462Y-126008345D01*
X81356459Y-126008350D01*
X81310111Y-126086204D01*
X81310106Y-126086213D01*
X81309958Y-126086462D01*
X81271609Y-126168255D01*
X81245587Y-126257730D01*
X81245535Y-126258281D01*
X81236771Y-126350852D01*
X81232580Y-126358765D01*
X81228081Y-126361068D01*
X80751372Y-126485587D01*
X80438825Y-126567225D01*
X80429954Y-126566000D01*
X80424548Y-126558862D01*
X80424170Y-126555676D01*
X80438939Y-125800235D01*
X80442527Y-125792031D01*
X80446615Y-125789477D01*
X80491262Y-125773136D01*
X80491383Y-125773085D01*
X80541623Y-125751885D01*
X80541631Y-125751881D01*
X80541807Y-125751807D01*
X80589817Y-125727267D01*
X80634382Y-125698540D01*
X80674591Y-125664652D01*
X80709532Y-125624628D01*
X80738295Y-125577493D01*
X80759968Y-125522272D01*
X80773640Y-125457989D01*
X80775643Y-125426715D01*
X80777997Y-125389971D01*
X80777997Y-125389955D01*
X80778400Y-125383670D01*
X81578400Y-125383670D01*
X81568812Y-125526803D01*
G37*
%TD.AperFunction*%
%TD*%
%TA.AperFunction,Conductor*%
%TO.N,Net-(Q5-PadG)*%
G36*
X95929327Y-117672100D02*
G01*
X96195900Y-117938673D01*
X96199327Y-117946946D01*
X96196038Y-117955078D01*
X96142619Y-118010324D01*
X96092184Y-118067133D01*
X96092097Y-118067243D01*
X96092085Y-118067257D01*
X96051162Y-118118880D01*
X96051045Y-118119028D01*
X96017518Y-118167800D01*
X95989918Y-118215244D01*
X95966559Y-118263151D01*
X95966500Y-118263294D01*
X95945797Y-118313216D01*
X95945789Y-118313238D01*
X95945757Y-118313314D01*
X95925827Y-118367526D01*
X95925816Y-118367559D01*
X95925812Y-118367569D01*
X95905085Y-118427581D01*
X95884503Y-118487531D01*
X95878575Y-118494243D01*
X95873666Y-118495430D01*
X95711399Y-118498602D01*
X95374744Y-118505183D01*
X95366405Y-118501918D01*
X95362817Y-118493256D01*
X95370135Y-118118880D01*
X95372570Y-117994334D01*
X95376158Y-117986130D01*
X95380469Y-117983497D01*
X95440418Y-117962914D01*
X95500430Y-117942187D01*
X95500440Y-117942183D01*
X95500473Y-117942172D01*
X95554685Y-117922242D01*
X95554761Y-117922210D01*
X95554783Y-117922202D01*
X95588748Y-117908116D01*
X95604848Y-117901440D01*
X95652755Y-117878081D01*
X95700199Y-117850481D01*
X95748971Y-117816954D01*
X95749119Y-117816837D01*
X95800742Y-117775914D01*
X95800756Y-117775902D01*
X95800866Y-117775815D01*
X95857675Y-117725380D01*
X95912921Y-117671962D01*
X95921251Y-117668675D01*
X95929327Y-117672100D01*
G37*
%TD.AperFunction*%
%TD*%
%TA.AperFunction,Conductor*%
%TO.N,Net-(Q5-PadG)*%
G36*
X102478505Y-117061806D02*
G01*
X102821276Y-117391433D01*
X103025231Y-117587567D01*
X103028819Y-117595771D01*
X103025231Y-117604433D01*
X102582319Y-118030361D01*
X102478506Y-118130193D01*
X102470167Y-118133458D01*
X102465026Y-118132154D01*
X102368137Y-118082084D01*
X102367706Y-118081849D01*
X102278224Y-118030352D01*
X102277984Y-118030209D01*
X102198569Y-117981781D01*
X102124746Y-117937251D01*
X102124645Y-117937190D01*
X102051800Y-117897310D01*
X101975470Y-117862926D01*
X101933050Y-117848796D01*
X101891394Y-117834921D01*
X101891390Y-117834920D01*
X101891090Y-117834820D01*
X101890785Y-117834754D01*
X101890782Y-117834753D01*
X101794382Y-117813837D01*
X101794377Y-117813836D01*
X101794095Y-117813775D01*
X101679920Y-117800574D01*
X101679691Y-117800566D01*
X101679687Y-117800566D01*
X101555306Y-117796380D01*
X101547153Y-117792677D01*
X101544000Y-117784687D01*
X101544000Y-117407312D01*
X101547427Y-117399039D01*
X101555305Y-117395619D01*
X101647232Y-117392525D01*
X101679687Y-117391433D01*
X101679691Y-117391433D01*
X101679920Y-117391425D01*
X101794095Y-117378224D01*
X101794377Y-117378163D01*
X101794382Y-117378162D01*
X101890782Y-117357246D01*
X101890785Y-117357245D01*
X101891090Y-117357179D01*
X101891390Y-117357079D01*
X101891394Y-117357078D01*
X101933050Y-117343203D01*
X101975470Y-117329073D01*
X102051800Y-117294689D01*
X102124645Y-117254809D01*
X102198569Y-117210218D01*
X102278006Y-117161777D01*
X102278224Y-117161647D01*
X102367709Y-117110149D01*
X102368152Y-117109907D01*
X102465025Y-117059846D01*
X102473948Y-117059092D01*
X102478505Y-117061806D01*
G37*
%TD.AperFunction*%
%TD*%
%TA.AperFunction,Conductor*%
%TO.N,Net-(Q7-PadG)*%
G36*
X96210431Y-124511487D02*
G01*
X96214000Y-124519900D01*
X96214000Y-124896740D01*
X96210573Y-124905013D01*
X96202748Y-124908431D01*
X96156186Y-124910213D01*
X96105613Y-124916865D01*
X96090244Y-124920735D01*
X96061904Y-124927870D01*
X96061900Y-124927871D01*
X96061508Y-124927970D01*
X96061125Y-124928125D01*
X96061126Y-124928125D01*
X96023524Y-124943373D01*
X96023521Y-124943374D01*
X96023098Y-124943546D01*
X95989610Y-124963609D01*
X95960270Y-124988174D01*
X95959994Y-124988483D01*
X95959990Y-124988487D01*
X95945360Y-125004875D01*
X95934305Y-125017258D01*
X95910942Y-125050877D01*
X95889408Y-125089047D01*
X95885354Y-125097508D01*
X95872359Y-125124629D01*
X95865694Y-125130609D01*
X95861014Y-125131246D01*
X95555525Y-125110457D01*
X95365248Y-125097508D01*
X95357226Y-125093527D01*
X95354369Y-125085041D01*
X95354805Y-125082577D01*
X95373744Y-125017258D01*
X95501606Y-124576257D01*
X95507201Y-124569265D01*
X95512594Y-124567818D01*
X95545711Y-124567119D01*
X95583397Y-124566323D01*
X95583417Y-124566322D01*
X95583518Y-124566320D01*
X95583615Y-124566314D01*
X95583630Y-124566313D01*
X95634039Y-124563008D01*
X95653083Y-124561760D01*
X95660268Y-124560989D01*
X95715580Y-124555055D01*
X95715609Y-124555051D01*
X95715716Y-124555040D01*
X95715803Y-124555028D01*
X95715827Y-124555025D01*
X95774440Y-124546880D01*
X95832280Y-124538000D01*
X95832341Y-124537991D01*
X95892149Y-124529136D01*
X95892409Y-124529101D01*
X95957197Y-124520984D01*
X95957583Y-124520942D01*
X95992716Y-124517722D01*
X96030511Y-124514259D01*
X96030913Y-124514229D01*
X96115046Y-124509691D01*
X96115453Y-124509676D01*
X96202102Y-124508202D01*
X96210431Y-124511487D01*
G37*
%TD.AperFunction*%
%TD*%
%TA.AperFunction,Conductor*%
%TO.N,Net-(Q7-PadG)*%
G36*
X102478505Y-124173806D02*
G01*
X102821276Y-124503433D01*
X103025231Y-124699567D01*
X103028819Y-124707771D01*
X103025231Y-124716433D01*
X102582319Y-125142361D01*
X102478506Y-125242193D01*
X102470167Y-125245458D01*
X102465026Y-125244154D01*
X102368137Y-125194084D01*
X102367706Y-125193849D01*
X102278224Y-125142352D01*
X102277984Y-125142209D01*
X102198569Y-125093781D01*
X102124746Y-125049251D01*
X102124645Y-125049190D01*
X102051800Y-125009310D01*
X101975470Y-124974926D01*
X101933050Y-124960796D01*
X101891394Y-124946921D01*
X101891390Y-124946920D01*
X101891090Y-124946820D01*
X101890785Y-124946754D01*
X101890782Y-124946753D01*
X101794382Y-124925837D01*
X101794377Y-124925836D01*
X101794095Y-124925775D01*
X101679920Y-124912574D01*
X101679691Y-124912566D01*
X101679687Y-124912566D01*
X101555306Y-124908380D01*
X101547153Y-124904677D01*
X101544000Y-124896687D01*
X101544000Y-124519312D01*
X101547427Y-124511039D01*
X101555305Y-124507619D01*
X101647232Y-124504525D01*
X101679687Y-124503433D01*
X101679691Y-124503433D01*
X101679920Y-124503425D01*
X101794095Y-124490224D01*
X101794377Y-124490163D01*
X101794382Y-124490162D01*
X101890782Y-124469246D01*
X101890785Y-124469245D01*
X101891090Y-124469179D01*
X101891390Y-124469079D01*
X101891394Y-124469078D01*
X101933050Y-124455203D01*
X101975470Y-124441073D01*
X102051800Y-124406689D01*
X102124645Y-124366809D01*
X102198569Y-124322218D01*
X102278006Y-124273777D01*
X102278224Y-124273647D01*
X102367709Y-124222149D01*
X102368152Y-124221907D01*
X102465025Y-124171846D01*
X102473948Y-124171092D01*
X102478505Y-124173806D01*
G37*
%TD.AperFunction*%
%TD*%
%TA.AperFunction,Conductor*%
%TO.N,Net-(Q9-PadG)*%
G36*
X95514997Y-130670291D02*
G01*
X95549761Y-130686113D01*
X95549769Y-130686116D01*
X95549911Y-130686181D01*
X95550066Y-130686241D01*
X95550073Y-130686244D01*
X95566346Y-130692551D01*
X95589419Y-130701494D01*
X95627593Y-130713373D01*
X95627798Y-130713421D01*
X95627810Y-130713424D01*
X95651948Y-130719044D01*
X95665737Y-130722255D01*
X95665933Y-130722286D01*
X95665946Y-130722289D01*
X95704966Y-130728546D01*
X95704976Y-130728547D01*
X95705155Y-130728576D01*
X95747152Y-130732770D01*
X95780687Y-130734600D01*
X95792955Y-130735270D01*
X95792965Y-130735270D01*
X95793031Y-130735274D01*
X95793090Y-130735275D01*
X95793104Y-130735276D01*
X95825830Y-130736076D01*
X95844095Y-130736523D01*
X95901650Y-130736953D01*
X95901745Y-130736953D01*
X95955309Y-130736992D01*
X95963579Y-130740425D01*
X95967000Y-130748692D01*
X95967000Y-131125308D01*
X95963573Y-131133581D01*
X95955308Y-131137008D01*
X95901650Y-131137046D01*
X95844095Y-131137476D01*
X95825830Y-131137923D01*
X95793104Y-131138723D01*
X95793090Y-131138724D01*
X95793031Y-131138725D01*
X95792965Y-131138729D01*
X95792955Y-131138729D01*
X95780687Y-131139399D01*
X95747152Y-131141229D01*
X95705155Y-131145423D01*
X95704976Y-131145452D01*
X95704966Y-131145453D01*
X95665946Y-131151710D01*
X95665933Y-131151713D01*
X95665737Y-131151744D01*
X95651948Y-131154955D01*
X95627810Y-131160575D01*
X95627798Y-131160578D01*
X95627593Y-131160626D01*
X95589419Y-131172505D01*
X95566346Y-131181448D01*
X95550073Y-131187755D01*
X95550066Y-131187758D01*
X95549911Y-131187818D01*
X95549769Y-131187883D01*
X95549761Y-131187886D01*
X95526755Y-131198357D01*
X95519866Y-131201493D01*
X95514997Y-131203709D01*
X95506047Y-131204017D01*
X95502040Y-131201493D01*
X95235769Y-130945433D01*
X95232181Y-130937229D01*
X95235769Y-130928567D01*
X95502040Y-130672507D01*
X95510379Y-130669242D01*
X95514997Y-130670291D01*
G37*
%TD.AperFunction*%
%TD*%
%TA.AperFunction,Conductor*%
%TO.N,Net-(Q9-PadG)*%
G36*
X101862486Y-131169829D02*
G01*
X101927028Y-131228002D01*
X101995951Y-131275816D01*
X102062251Y-131307741D01*
X102127175Y-131325682D01*
X102127695Y-131325729D01*
X102127700Y-131325730D01*
X102191515Y-131331506D01*
X102191519Y-131331506D01*
X102191971Y-131331547D01*
X102257886Y-131327244D01*
X102295644Y-131320296D01*
X102325955Y-131314719D01*
X102325966Y-131314717D01*
X102326170Y-131314679D01*
X102398068Y-131295760D01*
X102474830Y-131272393D01*
X102549884Y-131248930D01*
X102558802Y-131249732D01*
X102562673Y-131252996D01*
X103022093Y-131854645D01*
X103024390Y-131863300D01*
X103019895Y-131871045D01*
X103018235Y-131872104D01*
X102317435Y-132240220D01*
X102308517Y-132241033D01*
X102303644Y-132238057D01*
X102220094Y-132152925D01*
X102219930Y-132152755D01*
X102144400Y-132072622D01*
X102144244Y-132072453D01*
X102078822Y-132000248D01*
X102078700Y-132000111D01*
X102019375Y-131932542D01*
X102019315Y-131932473D01*
X101962200Y-131866385D01*
X101903294Y-131798498D01*
X101838708Y-131725659D01*
X101764552Y-131644711D01*
X101764542Y-131644700D01*
X101764495Y-131644649D01*
X101676706Y-131552248D01*
X101579533Y-131453507D01*
X101576172Y-131445207D01*
X101579599Y-131437028D01*
X101846380Y-131170247D01*
X101854653Y-131166820D01*
X101862486Y-131169829D01*
G37*
%TD.AperFunction*%
%TD*%
%TA.AperFunction,Conductor*%
%TO.N,/U*%
G36*
X114020646Y-127688062D02*
G01*
X114053951Y-127695307D01*
X114208382Y-127706352D01*
X114293398Y-127712433D01*
X114294423Y-127712529D01*
X114299282Y-127713655D01*
X114300000Y-127713656D01*
X114305452Y-127712412D01*
X114305455Y-127712412D01*
X114311734Y-127710980D01*
X114333752Y-127708500D01*
X114773983Y-127708500D01*
X114796169Y-127711018D01*
X114807641Y-127713656D01*
X114818517Y-127711195D01*
X114829660Y-127711215D01*
X114829659Y-127711705D01*
X114839606Y-127710988D01*
X115007272Y-127724183D01*
X115022616Y-127726613D01*
X115116013Y-127749036D01*
X115209413Y-127771459D01*
X115224180Y-127776258D01*
X115323340Y-127817331D01*
X115401661Y-127849773D01*
X115415502Y-127856826D01*
X115579290Y-127957195D01*
X115591858Y-127966326D01*
X115737931Y-128091084D01*
X115748916Y-128102069D01*
X115873674Y-128248142D01*
X115882805Y-128260710D01*
X115983174Y-128424498D01*
X115990227Y-128438339D01*
X116063741Y-128615816D01*
X116068542Y-128630591D01*
X116100665Y-128764392D01*
X116103400Y-128787503D01*
X116103400Y-130292497D01*
X116100665Y-130315608D01*
X116068542Y-130449409D01*
X116063741Y-130464184D01*
X115990227Y-130641661D01*
X115983174Y-130655502D01*
X115882805Y-130819290D01*
X115873674Y-130831858D01*
X115748916Y-130977931D01*
X115737931Y-130988916D01*
X115591858Y-131113674D01*
X115579290Y-131122805D01*
X115415502Y-131223174D01*
X115401661Y-131230227D01*
X115323340Y-131262669D01*
X115224180Y-131303742D01*
X115209413Y-131308541D01*
X115116013Y-131330964D01*
X115022616Y-131353387D01*
X115007272Y-131355817D01*
X114840117Y-131368972D01*
X114830372Y-131368253D01*
X114830371Y-131368862D01*
X114819224Y-131368842D01*
X114808359Y-131366344D01*
X114796359Y-131369059D01*
X114774512Y-131371500D01*
X114334281Y-131371500D01*
X114311926Y-131368943D01*
X114308949Y-131368253D01*
X114300718Y-131366345D01*
X114300000Y-131366344D01*
X114295221Y-131367434D01*
X114295114Y-131367444D01*
X114171232Y-131376305D01*
X114053951Y-131384693D01*
X113812911Y-131437128D01*
X113808539Y-131438759D01*
X113807796Y-131438893D01*
X113806212Y-131439358D01*
X113806162Y-131439188D01*
X113773945Y-131445000D01*
X106144000Y-131445000D01*
X106085809Y-131426093D01*
X106049845Y-131376593D01*
X106045000Y-131346000D01*
X106045000Y-127784800D01*
X106063907Y-127726609D01*
X106113407Y-127690645D01*
X106144000Y-127685800D01*
X113999602Y-127685800D01*
X114020646Y-127688062D01*
G37*
%TD.AperFunction*%
%TD*%
%TA.AperFunction,Conductor*%
%TO.N,GND*%
G36*
X103886000Y-112268000D02*
G01*
X79883000Y-112268000D01*
X79883000Y-110089973D01*
X79893488Y-110086565D01*
X79979260Y-110065972D01*
X80065027Y-110045382D01*
X80080371Y-110042952D01*
X80233269Y-110030919D01*
X80248109Y-110031632D01*
X80255470Y-110031632D01*
X80264000Y-110033136D01*
X80281764Y-110030004D01*
X80298953Y-110028500D01*
X103886000Y-110028500D01*
X103886000Y-112268000D01*
G37*
%TD.AperFunction*%
%TD*%
%TA.AperFunction,Conductor*%
%TO.N,/V*%
G36*
X114020646Y-120576062D02*
G01*
X114053951Y-120583307D01*
X114208382Y-120594352D01*
X114293398Y-120600433D01*
X114294423Y-120600529D01*
X114299282Y-120601655D01*
X114300000Y-120601656D01*
X114305452Y-120600412D01*
X114305455Y-120600412D01*
X114311734Y-120598980D01*
X114333752Y-120596500D01*
X114773983Y-120596500D01*
X114796169Y-120599018D01*
X114807641Y-120601656D01*
X114818517Y-120599195D01*
X114829660Y-120599215D01*
X114829659Y-120599705D01*
X114839606Y-120598988D01*
X115007272Y-120612183D01*
X115022616Y-120614613D01*
X115116013Y-120637036D01*
X115209413Y-120659459D01*
X115224180Y-120664258D01*
X115323340Y-120705331D01*
X115401661Y-120737773D01*
X115415502Y-120744826D01*
X115579290Y-120845195D01*
X115591858Y-120854326D01*
X115737931Y-120979084D01*
X115748916Y-120990069D01*
X115873674Y-121136142D01*
X115882805Y-121148710D01*
X115983174Y-121312498D01*
X115990227Y-121326339D01*
X116063741Y-121503816D01*
X116068542Y-121518591D01*
X116100665Y-121652392D01*
X116103400Y-121675503D01*
X116103400Y-123180497D01*
X116100665Y-123203608D01*
X116068542Y-123337409D01*
X116063741Y-123352184D01*
X115990227Y-123529661D01*
X115983174Y-123543502D01*
X115882805Y-123707290D01*
X115873674Y-123719858D01*
X115748916Y-123865931D01*
X115737931Y-123876916D01*
X115591858Y-124001674D01*
X115579290Y-124010805D01*
X115415502Y-124111174D01*
X115401661Y-124118227D01*
X115323340Y-124150669D01*
X115224180Y-124191742D01*
X115209413Y-124196541D01*
X115116012Y-124218965D01*
X115022616Y-124241387D01*
X115007272Y-124243817D01*
X114840117Y-124256972D01*
X114830372Y-124256253D01*
X114830371Y-124256862D01*
X114819224Y-124256842D01*
X114808359Y-124254344D01*
X114796359Y-124257059D01*
X114774512Y-124259500D01*
X114334281Y-124259500D01*
X114311926Y-124256943D01*
X114308949Y-124256253D01*
X114300718Y-124254345D01*
X114300000Y-124254344D01*
X114295221Y-124255434D01*
X114295114Y-124255444D01*
X114171232Y-124264305D01*
X114053951Y-124272693D01*
X113812911Y-124325128D01*
X113808539Y-124326759D01*
X113807796Y-124326893D01*
X113806212Y-124327358D01*
X113806162Y-124327188D01*
X113773945Y-124333000D01*
X106144000Y-124333000D01*
X106085809Y-124314093D01*
X106049845Y-124264593D01*
X106045000Y-124234000D01*
X106045000Y-120672800D01*
X106063907Y-120614609D01*
X106113407Y-120578645D01*
X106144000Y-120573800D01*
X113999602Y-120573800D01*
X114020646Y-120576062D01*
G37*
%TD.AperFunction*%
%TD*%
%TA.AperFunction,Conductor*%
%TO.N,/W*%
G36*
X113806162Y-113416812D02*
G01*
X113806212Y-113416642D01*
X113807796Y-113417107D01*
X113808539Y-113417241D01*
X113812911Y-113418872D01*
X114053951Y-113471307D01*
X114208382Y-113482352D01*
X114293398Y-113488433D01*
X114294423Y-113488529D01*
X114299282Y-113489655D01*
X114300000Y-113489656D01*
X114305452Y-113488412D01*
X114305455Y-113488412D01*
X114311734Y-113486980D01*
X114333752Y-113484500D01*
X114773983Y-113484500D01*
X114796169Y-113487018D01*
X114807641Y-113489656D01*
X114818517Y-113487195D01*
X114829660Y-113487215D01*
X114829659Y-113487705D01*
X114839606Y-113486988D01*
X115007272Y-113500183D01*
X115022616Y-113502613D01*
X115116013Y-113525036D01*
X115209413Y-113547459D01*
X115224180Y-113552258D01*
X115323340Y-113593331D01*
X115401661Y-113625773D01*
X115415502Y-113632826D01*
X115579290Y-113733195D01*
X115591858Y-113742326D01*
X115737931Y-113867084D01*
X115748916Y-113878069D01*
X115873674Y-114024142D01*
X115882805Y-114036710D01*
X115983174Y-114200498D01*
X115990227Y-114214339D01*
X116063741Y-114391816D01*
X116068542Y-114406591D01*
X116100665Y-114540392D01*
X116103400Y-114563503D01*
X116103400Y-116068497D01*
X116100665Y-116091608D01*
X116068542Y-116225409D01*
X116063741Y-116240184D01*
X115990227Y-116417661D01*
X115983174Y-116431502D01*
X115882805Y-116595290D01*
X115873674Y-116607858D01*
X115748916Y-116753931D01*
X115737931Y-116764916D01*
X115591858Y-116889674D01*
X115579290Y-116898805D01*
X115415502Y-116999174D01*
X115401661Y-117006227D01*
X115323340Y-117038669D01*
X115224180Y-117079742D01*
X115209413Y-117084541D01*
X115137553Y-117101793D01*
X115022616Y-117129387D01*
X115007272Y-117131817D01*
X114840117Y-117144972D01*
X114830372Y-117144253D01*
X114830371Y-117144862D01*
X114819224Y-117144842D01*
X114808359Y-117142344D01*
X114796359Y-117145059D01*
X114774512Y-117147500D01*
X114334281Y-117147500D01*
X114311926Y-117144943D01*
X114308949Y-117144253D01*
X114300718Y-117142345D01*
X114300000Y-117142344D01*
X114295221Y-117143434D01*
X114295114Y-117143444D01*
X114185378Y-117151293D01*
X114053951Y-117160693D01*
X114050508Y-117161442D01*
X114020646Y-117167938D01*
X113999602Y-117170200D01*
X106144000Y-117170200D01*
X106085809Y-117151293D01*
X106049845Y-117101793D01*
X106045000Y-117071200D01*
X106045000Y-113510000D01*
X106063907Y-113451809D01*
X106113407Y-113415845D01*
X106144000Y-113411000D01*
X113773945Y-113411000D01*
X113806162Y-113416812D01*
G37*
%TD.AperFunction*%
%TD*%
%TA.AperFunction,Conductor*%
%TO.N,+5V*%
G36*
X83017191Y-118890907D02*
G01*
X83053155Y-118940407D01*
X83058000Y-118971000D01*
X83058000Y-120217455D01*
X83039093Y-120275646D01*
X83015773Y-120298559D01*
X81788000Y-121158000D01*
X81788000Y-122329000D01*
X81769093Y-122387191D01*
X81719593Y-122423155D01*
X81689000Y-122428000D01*
X79601000Y-122428000D01*
X79542809Y-122409093D01*
X79506845Y-122359593D01*
X79502000Y-122329000D01*
X79502000Y-121183655D01*
X79514458Y-121135576D01*
X80743711Y-118922921D01*
X80788499Y-118881236D01*
X80830253Y-118872000D01*
X82959000Y-118872000D01*
X83017191Y-118890907D01*
G37*
%TD.AperFunction*%
%TD*%
%TA.AperFunction,Conductor*%
%TO.N,VDD*%
G36*
X98765191Y-131590907D02*
G01*
X98801155Y-131640407D01*
X98806000Y-131671000D01*
X98806000Y-134112000D01*
X79474000Y-134112000D01*
X79415809Y-134093093D01*
X79379845Y-134043593D01*
X79375000Y-134013000D01*
X79375000Y-131671000D01*
X79393907Y-131612809D01*
X79443407Y-131576845D01*
X79474000Y-131572000D01*
X98707000Y-131572000D01*
X98765191Y-131590907D01*
G37*
%TD.AperFunction*%
%TD*%
%TA.AperFunction,Conductor*%
%TO.N,VDD*%
G36*
X101394132Y-132606907D02*
G01*
X101405883Y-132616935D01*
X101454818Y-132665784D01*
X101454820Y-132665786D01*
X101461287Y-132672241D01*
X101469645Y-132675936D01*
X101556864Y-132714496D01*
X101556866Y-132714496D01*
X101563673Y-132717506D01*
X101589354Y-132720500D01*
X103787000Y-132720500D01*
X103845191Y-132739407D01*
X103881155Y-132788907D01*
X103886000Y-132819500D01*
X103886000Y-134728500D01*
X103867093Y-134786691D01*
X103817593Y-134822655D01*
X103787000Y-134827500D01*
X80298953Y-134827500D01*
X80281764Y-134825996D01*
X80264000Y-134822864D01*
X80255470Y-134824368D01*
X80248109Y-134824368D01*
X80233269Y-134825081D01*
X80080371Y-134813048D01*
X80065027Y-134810618D01*
X79989242Y-134792424D01*
X79958889Y-134785137D01*
X79906720Y-134753168D01*
X79883305Y-134696640D01*
X79883000Y-134688872D01*
X79883000Y-132588000D01*
X101335941Y-132588000D01*
X101394132Y-132606907D01*
G37*
%TD.AperFunction*%
%TD*%
%TA.AperFunction,Conductor*%
%TO.N,GND*%
G36*
X104607191Y-109947407D02*
G01*
X104643155Y-109996907D01*
X104648000Y-110027500D01*
X104648000Y-134828500D01*
X104629093Y-134886691D01*
X104579593Y-134922655D01*
X104549000Y-134927500D01*
X104275895Y-134927500D01*
X104217704Y-134908593D01*
X104181740Y-134859093D01*
X104178114Y-134813014D01*
X104191500Y-134728500D01*
X104191500Y-132819500D01*
X104187739Y-132771714D01*
X104182894Y-132741121D01*
X104176487Y-132710746D01*
X104128309Y-132609338D01*
X104092345Y-132559838D01*
X104090150Y-132557518D01*
X104090141Y-132557507D01*
X104059841Y-132525480D01*
X104033584Y-132470215D01*
X104033234Y-132447738D01*
X104033551Y-132444518D01*
X104034500Y-132439748D01*
X104034500Y-131200252D01*
X104022867Y-131141769D01*
X103978552Y-131075448D01*
X103912231Y-131031133D01*
X103902668Y-131029231D01*
X103902666Y-131029230D01*
X103879995Y-131024721D01*
X103853748Y-131019500D01*
X102035901Y-131019500D01*
X101977710Y-131000593D01*
X101965897Y-130990504D01*
X101606909Y-130631516D01*
X101606905Y-130631513D01*
X101584342Y-130608950D01*
X101562846Y-130597998D01*
X101549605Y-130589883D01*
X101536395Y-130580285D01*
X101530090Y-130575704D01*
X101507143Y-130568248D01*
X101492797Y-130562305D01*
X101471304Y-130551354D01*
X101463611Y-130550136D01*
X101463609Y-130550135D01*
X101447481Y-130547581D01*
X101432380Y-130543956D01*
X101409433Y-130536500D01*
X95990324Y-130536500D01*
X95970939Y-130534583D01*
X95955459Y-130531492D01*
X95950597Y-130531488D01*
X95950593Y-130531488D01*
X95902827Y-130531453D01*
X95902162Y-130531450D01*
X95848245Y-130531048D01*
X95846564Y-130531021D01*
X95822350Y-130530429D01*
X95802646Y-130529948D01*
X95799695Y-130529832D01*
X95779415Y-130528725D01*
X95765185Y-130527948D01*
X95760743Y-130527605D01*
X95734579Y-130524992D01*
X95728744Y-130524233D01*
X95708780Y-130521032D01*
X95702005Y-130519702D01*
X95685017Y-130515747D01*
X95678072Y-130513861D01*
X95660367Y-130508352D01*
X95654011Y-130506133D01*
X95632324Y-130497727D01*
X95627096Y-130495527D01*
X95602407Y-130484291D01*
X95600122Y-130483251D01*
X95597724Y-130482442D01*
X95597409Y-130482317D01*
X95595379Y-130481515D01*
X95595381Y-130481509D01*
X95593179Y-130480632D01*
X95589095Y-130477985D01*
X95451739Y-130436907D01*
X95368497Y-130436398D01*
X95315427Y-130436074D01*
X95315426Y-130436074D01*
X95308376Y-130436031D01*
X95301599Y-130437968D01*
X95301598Y-130437968D01*
X95177309Y-130473490D01*
X95177307Y-130473491D01*
X95170529Y-130475428D01*
X95049280Y-130551930D01*
X95044613Y-130557214D01*
X95044611Y-130557216D01*
X94959044Y-130654103D01*
X94959042Y-130654105D01*
X94954377Y-130659388D01*
X94951381Y-130665770D01*
X94951380Y-130665771D01*
X94942424Y-130684847D01*
X94893447Y-130789163D01*
X94892362Y-130796132D01*
X94892361Y-130796135D01*
X94877764Y-130889892D01*
X94871391Y-130930823D01*
X94889980Y-131072979D01*
X94892820Y-131079433D01*
X94892821Y-131079437D01*
X94914026Y-131127628D01*
X94920156Y-131188506D01*
X94889332Y-131241360D01*
X94833328Y-131266002D01*
X94823410Y-131266500D01*
X79474000Y-131266500D01*
X79426214Y-131270261D01*
X79395621Y-131275106D01*
X79365246Y-131281513D01*
X79263838Y-131329691D01*
X79214338Y-131365655D01*
X79157081Y-131419823D01*
X79153352Y-131426666D01*
X79126430Y-131476069D01*
X79081983Y-131518118D01*
X79021309Y-131526011D01*
X78967583Y-131496734D01*
X78941327Y-131441468D01*
X78940500Y-131428697D01*
X78940500Y-130550440D01*
X83364901Y-130550440D01*
X83365816Y-130557437D01*
X83365816Y-130557438D01*
X83366915Y-130565842D01*
X83381633Y-130678394D01*
X83384471Y-130684845D01*
X83384472Y-130684847D01*
X83413759Y-130751407D01*
X83433605Y-130796510D01*
X83475122Y-130845900D01*
X83512100Y-130889892D01*
X83512103Y-130889894D01*
X83516639Y-130895291D01*
X83624060Y-130966796D01*
X83630788Y-130968898D01*
X83630790Y-130968899D01*
X83685647Y-130986037D01*
X83747233Y-131005278D01*
X83811744Y-131006460D01*
X83869202Y-131007514D01*
X83869204Y-131007514D01*
X83876255Y-131007643D01*
X83883058Y-131005788D01*
X83883060Y-131005788D01*
X83939119Y-130990504D01*
X84000755Y-130973700D01*
X84110724Y-130906179D01*
X84197322Y-130810507D01*
X84244663Y-130712796D01*
X84250512Y-130700724D01*
X84250512Y-130700723D01*
X84253588Y-130694375D01*
X84268554Y-130605416D01*
X84274363Y-130570891D01*
X84274363Y-130570886D01*
X84274997Y-130567120D01*
X84275133Y-130556000D01*
X84274337Y-130550440D01*
X85142901Y-130550440D01*
X85143816Y-130557437D01*
X85143816Y-130557438D01*
X85144915Y-130565842D01*
X85159633Y-130678394D01*
X85162471Y-130684845D01*
X85162472Y-130684847D01*
X85191759Y-130751407D01*
X85211605Y-130796510D01*
X85253122Y-130845900D01*
X85290100Y-130889892D01*
X85290103Y-130889894D01*
X85294639Y-130895291D01*
X85402060Y-130966796D01*
X85408788Y-130968898D01*
X85408790Y-130968899D01*
X85463647Y-130986037D01*
X85525233Y-131005278D01*
X85589744Y-131006460D01*
X85647202Y-131007514D01*
X85647204Y-131007514D01*
X85654255Y-131007643D01*
X85661058Y-131005788D01*
X85661060Y-131005788D01*
X85717119Y-130990504D01*
X85778755Y-130973700D01*
X85888724Y-130906179D01*
X85975322Y-130810507D01*
X86022663Y-130712796D01*
X86028512Y-130700724D01*
X86028512Y-130700723D01*
X86031588Y-130694375D01*
X86046554Y-130605416D01*
X86052363Y-130570891D01*
X86052363Y-130570886D01*
X86052997Y-130567120D01*
X86053133Y-130556000D01*
X86034839Y-130428259D01*
X85981428Y-130310788D01*
X85969065Y-130296440D01*
X90730901Y-130296440D01*
X90731816Y-130303437D01*
X90731816Y-130303438D01*
X90732777Y-130310788D01*
X90747633Y-130424394D01*
X90750471Y-130430845D01*
X90750472Y-130430847D01*
X90794740Y-130531453D01*
X90799605Y-130542510D01*
X90831358Y-130580285D01*
X90878100Y-130635892D01*
X90878103Y-130635894D01*
X90882639Y-130641291D01*
X90990060Y-130712796D01*
X90996788Y-130714898D01*
X90996790Y-130714899D01*
X91051646Y-130732037D01*
X91113233Y-130751278D01*
X91177744Y-130752460D01*
X91235202Y-130753514D01*
X91235204Y-130753514D01*
X91242255Y-130753643D01*
X91249058Y-130751788D01*
X91249060Y-130751788D01*
X91290828Y-130740400D01*
X91366755Y-130719700D01*
X91476724Y-130652179D01*
X91553716Y-130567120D01*
X91558590Y-130561735D01*
X91558590Y-130561734D01*
X91563322Y-130556507D01*
X91619588Y-130440375D01*
X91640997Y-130313120D01*
X91641133Y-130302000D01*
X91622839Y-130174259D01*
X91592265Y-130107015D01*
X91572349Y-130063212D01*
X91572348Y-130063211D01*
X91569428Y-130056788D01*
X91485193Y-129959028D01*
X91479276Y-129955193D01*
X91479274Y-129955191D01*
X91382824Y-129892677D01*
X91376906Y-129888841D01*
X91370150Y-129886821D01*
X91370149Y-129886820D01*
X91327335Y-129874016D01*
X91253273Y-129851866D01*
X91176644Y-129851398D01*
X91131282Y-129851121D01*
X91124231Y-129851078D01*
X91117454Y-129853015D01*
X91117453Y-129853015D01*
X91006935Y-129884601D01*
X91006933Y-129884602D01*
X91000155Y-129886539D01*
X90891019Y-129955399D01*
X90805596Y-130052122D01*
X90750754Y-130168932D01*
X90730901Y-130296440D01*
X85969065Y-130296440D01*
X85897193Y-130213028D01*
X85891276Y-130209193D01*
X85891274Y-130209191D01*
X85794824Y-130146677D01*
X85788906Y-130142841D01*
X85782150Y-130140821D01*
X85782149Y-130140820D01*
X85739335Y-130128016D01*
X85665273Y-130105866D01*
X85588644Y-130105398D01*
X85543282Y-130105121D01*
X85536231Y-130105078D01*
X85529454Y-130107015D01*
X85529453Y-130107015D01*
X85418935Y-130138601D01*
X85418933Y-130138602D01*
X85412155Y-130140539D01*
X85303019Y-130209399D01*
X85217596Y-130306122D01*
X85162754Y-130422932D01*
X85142901Y-130550440D01*
X84274337Y-130550440D01*
X84256839Y-130428259D01*
X84203428Y-130310788D01*
X84119193Y-130213028D01*
X84113276Y-130209193D01*
X84113274Y-130209191D01*
X84016824Y-130146677D01*
X84010906Y-130142841D01*
X84004150Y-130140821D01*
X84004149Y-130140820D01*
X83961335Y-130128016D01*
X83887273Y-130105866D01*
X83810644Y-130105398D01*
X83765282Y-130105121D01*
X83758231Y-130105078D01*
X83751454Y-130107015D01*
X83751453Y-130107015D01*
X83640935Y-130138601D01*
X83640933Y-130138602D01*
X83634155Y-130140539D01*
X83525019Y-130209399D01*
X83439596Y-130306122D01*
X83384754Y-130422932D01*
X83364901Y-130550440D01*
X78940500Y-130550440D01*
X78940500Y-128645440D01*
X98985901Y-128645440D01*
X98986816Y-128652437D01*
X98986816Y-128652438D01*
X98988082Y-128662120D01*
X99002633Y-128773394D01*
X99005471Y-128779845D01*
X99005472Y-128779847D01*
X99012458Y-128795724D01*
X99054605Y-128891510D01*
X99096122Y-128940900D01*
X99133100Y-128984892D01*
X99133103Y-128984894D01*
X99137639Y-128990291D01*
X99245060Y-129061796D01*
X99251788Y-129063898D01*
X99251790Y-129063899D01*
X99284535Y-129074129D01*
X99368233Y-129100278D01*
X99432744Y-129101461D01*
X99490202Y-129102514D01*
X99490204Y-129102514D01*
X99497255Y-129102643D01*
X99504058Y-129100788D01*
X99504060Y-129100788D01*
X99568438Y-129083236D01*
X99621755Y-129068700D01*
X99707561Y-129016015D01*
X99767043Y-129001679D01*
X99814220Y-129017969D01*
X99880060Y-129061796D01*
X99886788Y-129063898D01*
X99886790Y-129063899D01*
X99919535Y-129074129D01*
X100003233Y-129100278D01*
X100067744Y-129101461D01*
X100125202Y-129102514D01*
X100125204Y-129102514D01*
X100132255Y-129102643D01*
X100139058Y-129100788D01*
X100139060Y-129100788D01*
X100203438Y-129083236D01*
X100256755Y-129068700D01*
X100342561Y-129016015D01*
X100402043Y-129001679D01*
X100449220Y-129017969D01*
X100515060Y-129061796D01*
X100521788Y-129063898D01*
X100521790Y-129063899D01*
X100554535Y-129074129D01*
X100638233Y-129100278D01*
X100702744Y-129101461D01*
X100760202Y-129102514D01*
X100760204Y-129102514D01*
X100767255Y-129102643D01*
X100774058Y-129100788D01*
X100774060Y-129100788D01*
X100838438Y-129083236D01*
X100891755Y-129068700D01*
X101001724Y-129001179D01*
X101088322Y-128905507D01*
X101132774Y-128813759D01*
X101141512Y-128795724D01*
X101141512Y-128795723D01*
X101144588Y-128789375D01*
X101165997Y-128662120D01*
X101166133Y-128651000D01*
X101502318Y-128651000D01*
X101522956Y-128807762D01*
X101583464Y-128953841D01*
X101679718Y-129079282D01*
X101805159Y-129175536D01*
X101951238Y-129236044D01*
X102108000Y-129256682D01*
X102264762Y-129236044D01*
X102410841Y-129175536D01*
X102536282Y-129079282D01*
X102632536Y-128953841D01*
X102693044Y-128807762D01*
X102713682Y-128651000D01*
X102693044Y-128494238D01*
X102632536Y-128348159D01*
X102536282Y-128222718D01*
X102410841Y-128126464D01*
X102264762Y-128065956D01*
X102108000Y-128045318D01*
X101951238Y-128065956D01*
X101805159Y-128126464D01*
X101679718Y-128222718D01*
X101583464Y-128348159D01*
X101522956Y-128494238D01*
X101502318Y-128651000D01*
X101166133Y-128651000D01*
X101147839Y-128523259D01*
X101111003Y-128442243D01*
X101097349Y-128412212D01*
X101097348Y-128412211D01*
X101094428Y-128405788D01*
X101010193Y-128308028D01*
X101004276Y-128304193D01*
X101004274Y-128304191D01*
X100907824Y-128241677D01*
X100901906Y-128237841D01*
X100895150Y-128235821D01*
X100895149Y-128235820D01*
X100838118Y-128218764D01*
X100778273Y-128200866D01*
X100701644Y-128200398D01*
X100656282Y-128200121D01*
X100649231Y-128200078D01*
X100642454Y-128202015D01*
X100642453Y-128202015D01*
X100531935Y-128233601D01*
X100531933Y-128233602D01*
X100525155Y-128235539D01*
X100519191Y-128239302D01*
X100446040Y-128285457D01*
X100386737Y-128300518D01*
X100339366Y-128284806D01*
X100272824Y-128241677D01*
X100266906Y-128237841D01*
X100260150Y-128235821D01*
X100260149Y-128235820D01*
X100203118Y-128218764D01*
X100143273Y-128200866D01*
X100066644Y-128200398D01*
X100021282Y-128200121D01*
X100014231Y-128200078D01*
X100007454Y-128202015D01*
X100007453Y-128202015D01*
X99896935Y-128233601D01*
X99896933Y-128233602D01*
X99890155Y-128235539D01*
X99884191Y-128239302D01*
X99811040Y-128285457D01*
X99751737Y-128300518D01*
X99704366Y-128284806D01*
X99637824Y-128241677D01*
X99631906Y-128237841D01*
X99625150Y-128235821D01*
X99625149Y-128235820D01*
X99568118Y-128218764D01*
X99508273Y-128200866D01*
X99431644Y-128200398D01*
X99386282Y-128200121D01*
X99379231Y-128200078D01*
X99372454Y-128202015D01*
X99372453Y-128202015D01*
X99261935Y-128233601D01*
X99261933Y-128233602D01*
X99255155Y-128235539D01*
X99146019Y-128304399D01*
X99060596Y-128401122D01*
X99005754Y-128517932D01*
X98985901Y-128645440D01*
X78940500Y-128645440D01*
X78940500Y-127883440D01*
X92127901Y-127883440D01*
X92144633Y-128011394D01*
X92147471Y-128017845D01*
X92147472Y-128017847D01*
X92185548Y-128104382D01*
X92196605Y-128129510D01*
X92238122Y-128178900D01*
X92275100Y-128222892D01*
X92275103Y-128222894D01*
X92279639Y-128228291D01*
X92387060Y-128299796D01*
X92393788Y-128301898D01*
X92393790Y-128301899D01*
X92418709Y-128309684D01*
X92510233Y-128338278D01*
X92574744Y-128339461D01*
X92632202Y-128340514D01*
X92632204Y-128340514D01*
X92639255Y-128340643D01*
X92646058Y-128338788D01*
X92646060Y-128338788D01*
X92698495Y-128324492D01*
X92763755Y-128306700D01*
X92873724Y-128239179D01*
X92883579Y-128228291D01*
X92955590Y-128148735D01*
X92955590Y-128148734D01*
X92960322Y-128143507D01*
X92964488Y-128134909D01*
X92965605Y-128132605D01*
X93007994Y-128088483D01*
X93068222Y-128077702D01*
X93123284Y-128104382D01*
X93145312Y-128135901D01*
X93187205Y-128231110D01*
X93228722Y-128280500D01*
X93265700Y-128324492D01*
X93265703Y-128324494D01*
X93270239Y-128329891D01*
X93377660Y-128401396D01*
X93384388Y-128403498D01*
X93384390Y-128403499D01*
X93439246Y-128420637D01*
X93500833Y-128439878D01*
X93565344Y-128441060D01*
X93622802Y-128442114D01*
X93622804Y-128442114D01*
X93629855Y-128442243D01*
X93636658Y-128440388D01*
X93636660Y-128440388D01*
X93678428Y-128429000D01*
X93754355Y-128408300D01*
X93864324Y-128340779D01*
X93898510Y-128303011D01*
X93946190Y-128250335D01*
X93946190Y-128250334D01*
X93950922Y-128245107D01*
X94007188Y-128128975D01*
X94025884Y-128017847D01*
X94027963Y-128005491D01*
X94027963Y-128005486D01*
X94028597Y-128001720D01*
X94028733Y-127990600D01*
X94010439Y-127862859D01*
X93961822Y-127755932D01*
X93959949Y-127751812D01*
X93959948Y-127751811D01*
X93957028Y-127745388D01*
X93887586Y-127664796D01*
X93877398Y-127652972D01*
X93877397Y-127652971D01*
X93872793Y-127647628D01*
X93866876Y-127643793D01*
X93866874Y-127643791D01*
X93770424Y-127581277D01*
X93764506Y-127577441D01*
X93757750Y-127575421D01*
X93757749Y-127575420D01*
X93677339Y-127551372D01*
X93640873Y-127540466D01*
X93564244Y-127539998D01*
X93518882Y-127539721D01*
X93511831Y-127539678D01*
X93505054Y-127541615D01*
X93505053Y-127541615D01*
X93394535Y-127573201D01*
X93394533Y-127573202D01*
X93387755Y-127575139D01*
X93278619Y-127643999D01*
X93193196Y-127740722D01*
X93190200Y-127747104D01*
X93186326Y-127753001D01*
X93184536Y-127751825D01*
X93149602Y-127789098D01*
X93089511Y-127800620D01*
X93034124Y-127774622D01*
X93011703Y-127743365D01*
X92969349Y-127650212D01*
X92969348Y-127650211D01*
X92966428Y-127643788D01*
X92882193Y-127546028D01*
X92876276Y-127542193D01*
X92876274Y-127542191D01*
X92802709Y-127494510D01*
X92773906Y-127475841D01*
X92767150Y-127473821D01*
X92767149Y-127473820D01*
X92724335Y-127461016D01*
X92650273Y-127438866D01*
X92573644Y-127438398D01*
X92528282Y-127438121D01*
X92521231Y-127438078D01*
X92514454Y-127440015D01*
X92514453Y-127440015D01*
X92403935Y-127471601D01*
X92403933Y-127471602D01*
X92397155Y-127473539D01*
X92288019Y-127542399D01*
X92202596Y-127639122D01*
X92147754Y-127755932D01*
X92127901Y-127883440D01*
X78940500Y-127883440D01*
X78940500Y-127248440D01*
X90349901Y-127248440D01*
X90350816Y-127255437D01*
X90350816Y-127255438D01*
X90352082Y-127265120D01*
X90366633Y-127376394D01*
X90369471Y-127382845D01*
X90369472Y-127382847D01*
X90409501Y-127473820D01*
X90418605Y-127494510D01*
X90455697Y-127538636D01*
X90497100Y-127587892D01*
X90497103Y-127587894D01*
X90501639Y-127593291D01*
X90609060Y-127664796D01*
X90615788Y-127666898D01*
X90615790Y-127666899D01*
X90670646Y-127684037D01*
X90732233Y-127703278D01*
X90796744Y-127704460D01*
X90854202Y-127705514D01*
X90854204Y-127705514D01*
X90861255Y-127705643D01*
X90868058Y-127703788D01*
X90868060Y-127703788D01*
X90909828Y-127692400D01*
X90985755Y-127671700D01*
X91095724Y-127604179D01*
X91151564Y-127542488D01*
X91177590Y-127513735D01*
X91177590Y-127513734D01*
X91182322Y-127508507D01*
X91238588Y-127392375D01*
X91259997Y-127265120D01*
X91260133Y-127254000D01*
X91241839Y-127126259D01*
X91188428Y-127008788D01*
X91104193Y-126911028D01*
X91098276Y-126907193D01*
X91098274Y-126907191D01*
X91001824Y-126844677D01*
X90995906Y-126840841D01*
X90989150Y-126838821D01*
X90989149Y-126838820D01*
X90946335Y-126826016D01*
X90872273Y-126803866D01*
X90795644Y-126803398D01*
X90750282Y-126803121D01*
X90743231Y-126803078D01*
X90736454Y-126805015D01*
X90736453Y-126805015D01*
X90625935Y-126836601D01*
X90625933Y-126836602D01*
X90619155Y-126838539D01*
X90510019Y-126907399D01*
X90424596Y-127004122D01*
X90369754Y-127120932D01*
X90349901Y-127248440D01*
X78940500Y-127248440D01*
X78940500Y-126978748D01*
X79335500Y-126978748D01*
X79347133Y-127037231D01*
X79391448Y-127103552D01*
X79457769Y-127147867D01*
X79467332Y-127149769D01*
X79467334Y-127149770D01*
X79490005Y-127154279D01*
X79516252Y-127159500D01*
X81755748Y-127159500D01*
X81781995Y-127154279D01*
X81804666Y-127149770D01*
X81804668Y-127149769D01*
X81814231Y-127147867D01*
X81880552Y-127103552D01*
X81924867Y-127037231D01*
X81936500Y-126978748D01*
X81936500Y-126746000D01*
X97438318Y-126746000D01*
X97458956Y-126902762D01*
X97519464Y-127048841D01*
X97615718Y-127174282D01*
X97741159Y-127270536D01*
X97887238Y-127331044D01*
X98044000Y-127351682D01*
X98200762Y-127331044D01*
X98346841Y-127270536D01*
X98472282Y-127174282D01*
X98568536Y-127048841D01*
X98629044Y-126902762D01*
X98649682Y-126746000D01*
X98629044Y-126589238D01*
X98568536Y-126443159D01*
X98472282Y-126317718D01*
X98346841Y-126221464D01*
X98200762Y-126160956D01*
X98044000Y-126140318D01*
X97887238Y-126160956D01*
X97741159Y-126221464D01*
X97615718Y-126317718D01*
X97519464Y-126443159D01*
X97458956Y-126589238D01*
X97438318Y-126746000D01*
X81936500Y-126746000D01*
X81936500Y-125800640D01*
X82729901Y-125800640D01*
X82730816Y-125807637D01*
X82730816Y-125807638D01*
X82732082Y-125817320D01*
X82746633Y-125928594D01*
X82749471Y-125935045D01*
X82749472Y-125935047D01*
X82756458Y-125950924D01*
X82798605Y-126046710D01*
X82840122Y-126096100D01*
X82877100Y-126140092D01*
X82877103Y-126140094D01*
X82881639Y-126145491D01*
X82989060Y-126216996D01*
X82995788Y-126219098D01*
X82995790Y-126219099D01*
X83050647Y-126236237D01*
X83112233Y-126255478D01*
X83176744Y-126256660D01*
X83234202Y-126257714D01*
X83234204Y-126257714D01*
X83241255Y-126257843D01*
X83248058Y-126255988D01*
X83248060Y-126255988D01*
X83289828Y-126244600D01*
X83365755Y-126223900D01*
X83475724Y-126156379D01*
X83562322Y-126060707D01*
X83618588Y-125944575D01*
X83639997Y-125817320D01*
X83640133Y-125806200D01*
X83621839Y-125678459D01*
X83568428Y-125560988D01*
X83484193Y-125463228D01*
X83478276Y-125459393D01*
X83478274Y-125459391D01*
X83407813Y-125413722D01*
X83375906Y-125393041D01*
X83369150Y-125391021D01*
X83369149Y-125391020D01*
X83321153Y-125376666D01*
X83252273Y-125356066D01*
X83175644Y-125355598D01*
X83130282Y-125355321D01*
X83123231Y-125355278D01*
X83116454Y-125357215D01*
X83116453Y-125357215D01*
X83005935Y-125388801D01*
X83005933Y-125388802D01*
X82999155Y-125390739D01*
X82890019Y-125459599D01*
X82804596Y-125556322D01*
X82749754Y-125673132D01*
X82729901Y-125800640D01*
X81936500Y-125800640D01*
X81936500Y-125739252D01*
X81924867Y-125680769D01*
X81880552Y-125614448D01*
X81827929Y-125579286D01*
X81790050Y-125531236D01*
X81783931Y-125496933D01*
X81783952Y-125442780D01*
X81783954Y-125442175D01*
X81784688Y-125329106D01*
X81784712Y-125327489D01*
X81786908Y-125231310D01*
X81787018Y-125228392D01*
X81789341Y-125184035D01*
X81791289Y-125146851D01*
X81791617Y-125142460D01*
X81792230Y-125136162D01*
X81798342Y-125073303D01*
X81799083Y-125067481D01*
X81808574Y-125007225D01*
X81809890Y-125000427D01*
X81822742Y-124944580D01*
X81824631Y-124937560D01*
X81842085Y-124881064D01*
X81844318Y-124874630D01*
X81851553Y-124855891D01*
X81859449Y-124835440D01*
X90349901Y-124835440D01*
X90350816Y-124842437D01*
X90350816Y-124842438D01*
X90352082Y-124852120D01*
X90366633Y-124963394D01*
X90369471Y-124969845D01*
X90369472Y-124969847D01*
X90384412Y-125003801D01*
X90418605Y-125081510D01*
X90446924Y-125115199D01*
X90497100Y-125174892D01*
X90497103Y-125174894D01*
X90501639Y-125180291D01*
X90609060Y-125251796D01*
X90615788Y-125253898D01*
X90615790Y-125253899D01*
X90650830Y-125264846D01*
X90732233Y-125290278D01*
X90796744Y-125291461D01*
X90854202Y-125292514D01*
X90854204Y-125292514D01*
X90861255Y-125292643D01*
X90868058Y-125290788D01*
X90868060Y-125290788D01*
X90909828Y-125279400D01*
X90985755Y-125258700D01*
X91095724Y-125191179D01*
X91102042Y-125184199D01*
X91177590Y-125100735D01*
X91177590Y-125100734D01*
X91182322Y-125095507D01*
X91238588Y-124979375D01*
X91240502Y-124968000D01*
X94898318Y-124968000D01*
X94918956Y-125124762D01*
X94979464Y-125270841D01*
X95075718Y-125396282D01*
X95201159Y-125492536D01*
X95347238Y-125553044D01*
X95504000Y-125573682D01*
X95660762Y-125553044D01*
X95806841Y-125492536D01*
X95932282Y-125396282D01*
X96028536Y-125270841D01*
X96040919Y-125240945D01*
X96053162Y-125219461D01*
X96057684Y-125213427D01*
X96070341Y-125187011D01*
X96073396Y-125181147D01*
X96081263Y-125167203D01*
X96126324Y-125125812D01*
X96154573Y-125117695D01*
X96168996Y-125115798D01*
X96178122Y-125115024D01*
X96205983Y-125113958D01*
X96205984Y-125113958D01*
X96210607Y-125113781D01*
X96222775Y-125110995D01*
X96244861Y-125108500D01*
X101334500Y-125108500D01*
X101392691Y-125127407D01*
X101428655Y-125176907D01*
X101433500Y-125207500D01*
X101433500Y-125327748D01*
X101445133Y-125386231D01*
X101489448Y-125452552D01*
X101555769Y-125496867D01*
X101565332Y-125498769D01*
X101565334Y-125498770D01*
X101584862Y-125502654D01*
X101614252Y-125508500D01*
X103853748Y-125508500D01*
X103883138Y-125502654D01*
X103902666Y-125498770D01*
X103902668Y-125498769D01*
X103912231Y-125496867D01*
X103978552Y-125452552D01*
X104022867Y-125386231D01*
X104034500Y-125327748D01*
X104034500Y-124088252D01*
X104022867Y-124029769D01*
X103978552Y-123963448D01*
X103912231Y-123919133D01*
X103902668Y-123917231D01*
X103902666Y-123917230D01*
X103879995Y-123912721D01*
X103853748Y-123907500D01*
X101614252Y-123907500D01*
X101588005Y-123912721D01*
X101565334Y-123917230D01*
X101565332Y-123917231D01*
X101555769Y-123919133D01*
X101489448Y-123963448D01*
X101445133Y-124029769D01*
X101433500Y-124088252D01*
X101433500Y-124208500D01*
X101414593Y-124266691D01*
X101365093Y-124302655D01*
X101334500Y-124307500D01*
X100470096Y-124307500D01*
X100411905Y-124288593D01*
X100375941Y-124239093D01*
X100375941Y-124177907D01*
X100396698Y-124142064D01*
X100448590Y-124084735D01*
X100448590Y-124084734D01*
X100453322Y-124079507D01*
X100509588Y-123963375D01*
X100530997Y-123836120D01*
X100531133Y-123825000D01*
X100521813Y-123759921D01*
X100520301Y-123749361D01*
X100530768Y-123689078D01*
X100574670Y-123646460D01*
X100633271Y-123637728D01*
X100638233Y-123639278D01*
X100704547Y-123640494D01*
X100760202Y-123641514D01*
X100760204Y-123641514D01*
X100767255Y-123641643D01*
X100774058Y-123639788D01*
X100774060Y-123639788D01*
X100815828Y-123628400D01*
X100891755Y-123607700D01*
X101001724Y-123540179D01*
X101006459Y-123534948D01*
X101083590Y-123449735D01*
X101083590Y-123449734D01*
X101088322Y-123444507D01*
X101144588Y-123328375D01*
X101165997Y-123201120D01*
X101166133Y-123190000D01*
X101147839Y-123062259D01*
X101094428Y-122944788D01*
X101088506Y-122937915D01*
X101087861Y-122936376D01*
X101086024Y-122933504D01*
X101086523Y-122933185D01*
X101064847Y-122881488D01*
X101081432Y-122817934D01*
X101083589Y-122814736D01*
X101088322Y-122809507D01*
X101144588Y-122693375D01*
X101160014Y-122601685D01*
X101165363Y-122569891D01*
X101165363Y-122569886D01*
X101165997Y-122566120D01*
X101166133Y-122555000D01*
X101147839Y-122427259D01*
X101129066Y-122385970D01*
X101097349Y-122316212D01*
X101097348Y-122316211D01*
X101094428Y-122309788D01*
X101010193Y-122212028D01*
X101004276Y-122208193D01*
X101004274Y-122208191D01*
X100907824Y-122145677D01*
X100901906Y-122141841D01*
X100895150Y-122139821D01*
X100895149Y-122139820D01*
X100852335Y-122127016D01*
X100778273Y-122104866D01*
X100701644Y-122104398D01*
X100656282Y-122104121D01*
X100649231Y-122104078D01*
X100642454Y-122106015D01*
X100642453Y-122106015D01*
X100531935Y-122137601D01*
X100531933Y-122137602D01*
X100525155Y-122139539D01*
X100519191Y-122143302D01*
X100446040Y-122189457D01*
X100386737Y-122204518D01*
X100339366Y-122188806D01*
X100272824Y-122145677D01*
X100266906Y-122141841D01*
X100260150Y-122139821D01*
X100260149Y-122139820D01*
X100217335Y-122127016D01*
X100143273Y-122104866D01*
X100066644Y-122104398D01*
X100021282Y-122104121D01*
X100014231Y-122104078D01*
X100007454Y-122106015D01*
X100007453Y-122106015D01*
X99896935Y-122137601D01*
X99896933Y-122137602D01*
X99890155Y-122139539D01*
X99884191Y-122143302D01*
X99811040Y-122189457D01*
X99751737Y-122204518D01*
X99704366Y-122188806D01*
X99637824Y-122145677D01*
X99631906Y-122141841D01*
X99625150Y-122139821D01*
X99625149Y-122139820D01*
X99582335Y-122127016D01*
X99508273Y-122104866D01*
X99431644Y-122104398D01*
X99386282Y-122104121D01*
X99379231Y-122104078D01*
X99372454Y-122106015D01*
X99372453Y-122106015D01*
X99261935Y-122137601D01*
X99261933Y-122137602D01*
X99255155Y-122139539D01*
X99146019Y-122208399D01*
X99060596Y-122305122D01*
X99005754Y-122421932D01*
X98985901Y-122549440D01*
X98986816Y-122556437D01*
X98986816Y-122556438D01*
X98988082Y-122566120D01*
X99002633Y-122677394D01*
X99005471Y-122683845D01*
X99005472Y-122683847D01*
X99012458Y-122699724D01*
X99054605Y-122795510D01*
X99064919Y-122807780D01*
X99087889Y-122864490D01*
X99073138Y-122923871D01*
X99067496Y-122931439D01*
X99065265Y-122934835D01*
X99060596Y-122940122D01*
X99005754Y-123056932D01*
X98985901Y-123184440D01*
X98986816Y-123191437D01*
X98986816Y-123191438D01*
X98988082Y-123201120D01*
X99002633Y-123312394D01*
X99005471Y-123318845D01*
X99005472Y-123318847D01*
X99045501Y-123409820D01*
X99054605Y-123430510D01*
X99064919Y-123442780D01*
X99087889Y-123499490D01*
X99073138Y-123558871D01*
X99067496Y-123566439D01*
X99065265Y-123569835D01*
X99060596Y-123575122D01*
X99005754Y-123691932D01*
X98985901Y-123819440D01*
X98986816Y-123826437D01*
X98986816Y-123826438D01*
X98988082Y-123836120D01*
X99002633Y-123947394D01*
X99005471Y-123953845D01*
X99005472Y-123953847D01*
X99051764Y-124059054D01*
X99054605Y-124065510D01*
X99096598Y-124115467D01*
X99121253Y-124144798D01*
X99144223Y-124201508D01*
X99129472Y-124260889D01*
X99082636Y-124300259D01*
X99045470Y-124307500D01*
X96233808Y-124307500D01*
X96216160Y-124305914D01*
X96198607Y-124302732D01*
X96161693Y-124303360D01*
X96112227Y-124304201D01*
X96112153Y-124304203D01*
X96111958Y-124304206D01*
X96107884Y-124304315D01*
X96107768Y-124304319D01*
X96107711Y-124304321D01*
X96107628Y-124304324D01*
X96107477Y-124304330D01*
X96107306Y-124304338D01*
X96107228Y-124304341D01*
X96105473Y-124304421D01*
X96103978Y-124304489D01*
X96103737Y-124304502D01*
X96103676Y-124304505D01*
X96050825Y-124307356D01*
X96045493Y-124307500D01*
X95700567Y-124307500D01*
X95693160Y-124309907D01*
X95693158Y-124309907D01*
X95677621Y-124314955D01*
X95662517Y-124318581D01*
X95646392Y-124321135D01*
X95646391Y-124321135D01*
X95638696Y-124322354D01*
X95617203Y-124333305D01*
X95602859Y-124339247D01*
X95579911Y-124346703D01*
X95573789Y-124351151D01*
X95531086Y-124361882D01*
X95508255Y-124362364D01*
X95506380Y-124362631D01*
X95504000Y-124362318D01*
X95347238Y-124382956D01*
X95201159Y-124443464D01*
X95075718Y-124539718D01*
X94979464Y-124665159D01*
X94918956Y-124811238D01*
X94898318Y-124968000D01*
X91240502Y-124968000D01*
X91255128Y-124881064D01*
X91259363Y-124855891D01*
X91259363Y-124855886D01*
X91259997Y-124852120D01*
X91260133Y-124841000D01*
X91241839Y-124713259D01*
X91188428Y-124595788D01*
X91104193Y-124498028D01*
X91098276Y-124494193D01*
X91098274Y-124494191D01*
X91001824Y-124431677D01*
X90995906Y-124427841D01*
X90989149Y-124425820D01*
X90982747Y-124422862D01*
X90984147Y-124419833D01*
X90945256Y-124392883D01*
X90925055Y-124335129D01*
X90942658Y-124276531D01*
X90983027Y-124243444D01*
X90985755Y-124242700D01*
X90997000Y-124235796D01*
X91089711Y-124178871D01*
X91095724Y-124175179D01*
X91170009Y-124093110D01*
X91177590Y-124084735D01*
X91177590Y-124084734D01*
X91182322Y-124079507D01*
X91238588Y-123963375D01*
X91259997Y-123836120D01*
X91260133Y-123825000D01*
X91241839Y-123697259D01*
X91197399Y-123599519D01*
X91191349Y-123586212D01*
X91191348Y-123586211D01*
X91188428Y-123579788D01*
X91104193Y-123482028D01*
X91098276Y-123478193D01*
X91098274Y-123478191D01*
X91024709Y-123430510D01*
X90995906Y-123411841D01*
X90989150Y-123409821D01*
X90989149Y-123409820D01*
X90946335Y-123397016D01*
X90872273Y-123374866D01*
X90795644Y-123374398D01*
X90750282Y-123374121D01*
X90743231Y-123374078D01*
X90736454Y-123376015D01*
X90736453Y-123376015D01*
X90625935Y-123407601D01*
X90625933Y-123407602D01*
X90619155Y-123409539D01*
X90510019Y-123478399D01*
X90424596Y-123575122D01*
X90369754Y-123691932D01*
X90349901Y-123819440D01*
X90350816Y-123826437D01*
X90350816Y-123826438D01*
X90352082Y-123836120D01*
X90366633Y-123947394D01*
X90369471Y-123953845D01*
X90369472Y-123953847D01*
X90415764Y-124059054D01*
X90418605Y-124065510D01*
X90460122Y-124114901D01*
X90497100Y-124158892D01*
X90497103Y-124158894D01*
X90501639Y-124164291D01*
X90609060Y-124235796D01*
X90615790Y-124237899D01*
X90615795Y-124237901D01*
X90616442Y-124238103D01*
X90616901Y-124238428D01*
X90622158Y-124240936D01*
X90621723Y-124241849D01*
X90666348Y-124273501D01*
X90685916Y-124331473D01*
X90667671Y-124389875D01*
X90627348Y-124422969D01*
X90625934Y-124423602D01*
X90619155Y-124425539D01*
X90510019Y-124494399D01*
X90424596Y-124591122D01*
X90369754Y-124707932D01*
X90349901Y-124835440D01*
X81859449Y-124835440D01*
X81868190Y-124812799D01*
X81870408Y-124807515D01*
X81900175Y-124742039D01*
X81901149Y-124739896D01*
X81901150Y-124739893D01*
X81902189Y-124737608D01*
X81915517Y-124698046D01*
X81915584Y-124698069D01*
X81916936Y-124693968D01*
X81958657Y-124584136D01*
X81962537Y-124556534D01*
X81983218Y-124409375D01*
X81983218Y-124409373D01*
X81983651Y-124406293D01*
X81983695Y-124403175D01*
X81983922Y-124386916D01*
X81983922Y-124386908D01*
X81983965Y-124383800D01*
X81983321Y-124378056D01*
X81964563Y-124210825D01*
X81964562Y-124210821D01*
X81963946Y-124205328D01*
X81917137Y-124070909D01*
X81906705Y-124040953D01*
X81906705Y-124040952D01*
X81904885Y-124035727D01*
X81809716Y-123883425D01*
X81683170Y-123755993D01*
X81672720Y-123749361D01*
X81536210Y-123662729D01*
X81536209Y-123662728D01*
X81531536Y-123659763D01*
X81362351Y-123599519D01*
X81356864Y-123598865D01*
X81356861Y-123598864D01*
X81189520Y-123578910D01*
X81189517Y-123578910D01*
X81184024Y-123578255D01*
X81005417Y-123597027D01*
X81000177Y-123598811D01*
X81000176Y-123598811D01*
X80840649Y-123653118D01*
X80840645Y-123653120D01*
X80835407Y-123654903D01*
X80830697Y-123657801D01*
X80830692Y-123657803D01*
X80755206Y-123704243D01*
X80682445Y-123749006D01*
X80554132Y-123874659D01*
X80456846Y-124025617D01*
X80395422Y-124194378D01*
X80372914Y-124372553D01*
X80379867Y-124443464D01*
X80389899Y-124545784D01*
X80389900Y-124545789D01*
X80390439Y-124551286D01*
X80447126Y-124721696D01*
X80449993Y-124726430D01*
X80452316Y-124731457D01*
X80451848Y-124731673D01*
X80454602Y-124737574D01*
X80454610Y-124737606D01*
X80486384Y-124807500D01*
X80488610Y-124812801D01*
X80497351Y-124835440D01*
X80512481Y-124874630D01*
X80514714Y-124881064D01*
X80532168Y-124937560D01*
X80534057Y-124944580D01*
X80546909Y-125000427D01*
X80548225Y-125007225D01*
X80557716Y-125067481D01*
X80558457Y-125073303D01*
X80564570Y-125136162D01*
X80565182Y-125142460D01*
X80565510Y-125146851D01*
X80567458Y-125184035D01*
X80569781Y-125228392D01*
X80569891Y-125231310D01*
X80572087Y-125327489D01*
X80572111Y-125329106D01*
X80572444Y-125380367D01*
X80572244Y-125387336D01*
X80569980Y-125422693D01*
X80568016Y-125436963D01*
X80566425Y-125444442D01*
X80564182Y-125454985D01*
X80559505Y-125470553D01*
X80556698Y-125477705D01*
X80549068Y-125493075D01*
X80547629Y-125495435D01*
X80537685Y-125508999D01*
X80535100Y-125511960D01*
X80524335Y-125522537D01*
X80516836Y-125528857D01*
X80506683Y-125536360D01*
X80496838Y-125542707D01*
X80443195Y-125558500D01*
X79516252Y-125558500D01*
X79490005Y-125563721D01*
X79467334Y-125568230D01*
X79467332Y-125568231D01*
X79457769Y-125570133D01*
X79391448Y-125614448D01*
X79347133Y-125680769D01*
X79335500Y-125739252D01*
X79335500Y-126978748D01*
X78940500Y-126978748D01*
X78940500Y-122329000D01*
X79296500Y-122329000D01*
X79299030Y-122361144D01*
X79303875Y-122391737D01*
X79306107Y-122397126D01*
X79306108Y-122397129D01*
X79338358Y-122474990D01*
X79340592Y-122480383D01*
X79376556Y-122529883D01*
X79378019Y-122531557D01*
X79395190Y-122551210D01*
X79400797Y-122557628D01*
X79479307Y-122604536D01*
X79537498Y-122623443D01*
X79541342Y-122624052D01*
X79541347Y-122624053D01*
X79597152Y-122632891D01*
X79597157Y-122632891D01*
X79601000Y-122633500D01*
X81689000Y-122633500D01*
X81721144Y-122630970D01*
X81751737Y-122626125D01*
X81757126Y-122623893D01*
X81757129Y-122623892D01*
X81834990Y-122591642D01*
X81834992Y-122591641D01*
X81840383Y-122589408D01*
X81889883Y-122553444D01*
X81917628Y-122529203D01*
X81964536Y-122450693D01*
X81983443Y-122392502D01*
X81984478Y-122385970D01*
X81992891Y-122332848D01*
X81992891Y-122332843D01*
X81993500Y-122329000D01*
X81993500Y-121472940D01*
X90222901Y-121472940D01*
X90223816Y-121479937D01*
X90223816Y-121479938D01*
X90225082Y-121489620D01*
X90239633Y-121600894D01*
X90242471Y-121607345D01*
X90242472Y-121607347D01*
X90288764Y-121712554D01*
X90291605Y-121719010D01*
X90333122Y-121768400D01*
X90370100Y-121812392D01*
X90370103Y-121812394D01*
X90374639Y-121817791D01*
X90482060Y-121889296D01*
X90488788Y-121891398D01*
X90488790Y-121891399D01*
X90543647Y-121908537D01*
X90605233Y-121927778D01*
X90669744Y-121928960D01*
X90727202Y-121930014D01*
X90727204Y-121930014D01*
X90734255Y-121930143D01*
X90741058Y-121928288D01*
X90741060Y-121928288D01*
X90782828Y-121916900D01*
X90858755Y-121896200D01*
X90968724Y-121828679D01*
X90978579Y-121817791D01*
X91050590Y-121738235D01*
X91050590Y-121738234D01*
X91055322Y-121733007D01*
X91087787Y-121666000D01*
X97311318Y-121666000D01*
X97331956Y-121822762D01*
X97392464Y-121968841D01*
X97488718Y-122094282D01*
X97614159Y-122190536D01*
X97760238Y-122251044D01*
X97917000Y-122271682D01*
X98073762Y-122251044D01*
X98219841Y-122190536D01*
X98345282Y-122094282D01*
X98441536Y-121968841D01*
X98502044Y-121822762D01*
X98522682Y-121666000D01*
X98502044Y-121509238D01*
X98461767Y-121412000D01*
X102010318Y-121412000D01*
X102030956Y-121568762D01*
X102091464Y-121714841D01*
X102187718Y-121840282D01*
X102313159Y-121936536D01*
X102459238Y-121997044D01*
X102616000Y-122017682D01*
X102772762Y-121997044D01*
X102918841Y-121936536D01*
X103044282Y-121840282D01*
X103140536Y-121714841D01*
X103201044Y-121568762D01*
X103221682Y-121412000D01*
X103201044Y-121255238D01*
X103140536Y-121109159D01*
X103044282Y-120983718D01*
X102918841Y-120887464D01*
X102772762Y-120826956D01*
X102616000Y-120806318D01*
X102459238Y-120826956D01*
X102313159Y-120887464D01*
X102187718Y-120983718D01*
X102091464Y-121109159D01*
X102030956Y-121255238D01*
X102010318Y-121412000D01*
X98461767Y-121412000D01*
X98441536Y-121363159D01*
X98345282Y-121237718D01*
X98219841Y-121141464D01*
X98073762Y-121080956D01*
X97917000Y-121060318D01*
X97760238Y-121080956D01*
X97614159Y-121141464D01*
X97488718Y-121237718D01*
X97392464Y-121363159D01*
X97331956Y-121509238D01*
X97311318Y-121666000D01*
X91087787Y-121666000D01*
X91111588Y-121616875D01*
X91129697Y-121509238D01*
X91132363Y-121493391D01*
X91132363Y-121493386D01*
X91132997Y-121489620D01*
X91133133Y-121478500D01*
X91114839Y-121350759D01*
X91071408Y-121255238D01*
X91064349Y-121239712D01*
X91064348Y-121239711D01*
X91061428Y-121233288D01*
X90977193Y-121135528D01*
X90971276Y-121131693D01*
X90971274Y-121131691D01*
X90892997Y-121080956D01*
X90868906Y-121065341D01*
X90862150Y-121063321D01*
X90862149Y-121063320D01*
X90819335Y-121050516D01*
X90745273Y-121028366D01*
X90668644Y-121027898D01*
X90623282Y-121027621D01*
X90616231Y-121027578D01*
X90609454Y-121029515D01*
X90609453Y-121029515D01*
X90498935Y-121061101D01*
X90498933Y-121061102D01*
X90492155Y-121063039D01*
X90383019Y-121131899D01*
X90297596Y-121228622D01*
X90242754Y-121345432D01*
X90222901Y-121472940D01*
X81993500Y-121472940D01*
X81993500Y-121316540D01*
X82012407Y-121258349D01*
X82035727Y-121235436D01*
X82053010Y-121223338D01*
X83133620Y-120466911D01*
X83135195Y-120465601D01*
X83135202Y-120465596D01*
X83158215Y-120446460D01*
X83159799Y-120445143D01*
X83183119Y-120422230D01*
X83234536Y-120339148D01*
X83253443Y-120280957D01*
X83257869Y-120253015D01*
X83262891Y-120221303D01*
X83262891Y-120221298D01*
X83263500Y-120217455D01*
X83263500Y-119302743D01*
X83282407Y-119244552D01*
X83292496Y-119232739D01*
X84161235Y-118364000D01*
X94898318Y-118364000D01*
X94918956Y-118520762D01*
X94979464Y-118666841D01*
X95075718Y-118792282D01*
X95201159Y-118888536D01*
X95347238Y-118949044D01*
X95504000Y-118969682D01*
X95660762Y-118949044D01*
X95806841Y-118888536D01*
X95932282Y-118792282D01*
X96028536Y-118666841D01*
X96051070Y-118612440D01*
X96063492Y-118582451D01*
X96069386Y-118570551D01*
X96078867Y-118554260D01*
X96099326Y-118494668D01*
X96119069Y-118437505D01*
X96119725Y-118435665D01*
X96136498Y-118390038D01*
X96137970Y-118386273D01*
X96140801Y-118379448D01*
X96152849Y-118350396D01*
X96155311Y-118344932D01*
X96169742Y-118315336D01*
X96173153Y-118308945D01*
X96189374Y-118281060D01*
X96193365Y-118274758D01*
X96214522Y-118243981D01*
X96218525Y-118238562D01*
X96247946Y-118201449D01*
X96251492Y-118197223D01*
X96292001Y-118151594D01*
X96294851Y-118148518D01*
X96343771Y-118097925D01*
X96351681Y-118085758D01*
X96364678Y-118069715D01*
X96408897Y-118025496D01*
X96463414Y-117997719D01*
X96478901Y-117996500D01*
X99269412Y-117996500D01*
X99327603Y-118015407D01*
X99363567Y-118064907D01*
X99363567Y-118126093D01*
X99327603Y-118175593D01*
X99296617Y-118190689D01*
X99261935Y-118200601D01*
X99261933Y-118200602D01*
X99255155Y-118202539D01*
X99249191Y-118206302D01*
X99237507Y-118213674D01*
X99146019Y-118271399D01*
X99060596Y-118368122D01*
X99005754Y-118484932D01*
X98985901Y-118612440D01*
X98986816Y-118619437D01*
X98986816Y-118619438D01*
X98992031Y-118659317D01*
X99002633Y-118740394D01*
X99005471Y-118746845D01*
X99005472Y-118746847D01*
X99051764Y-118852054D01*
X99054605Y-118858510D01*
X99064919Y-118870780D01*
X99087889Y-118927490D01*
X99073138Y-118986871D01*
X99067496Y-118994439D01*
X99065265Y-118997835D01*
X99060596Y-119003122D01*
X99005754Y-119119932D01*
X98985901Y-119247440D01*
X98986816Y-119254437D01*
X98986816Y-119254438D01*
X98987770Y-119261735D01*
X99002633Y-119375394D01*
X99005471Y-119381845D01*
X99005472Y-119381847D01*
X99012458Y-119397724D01*
X99054605Y-119493510D01*
X99064919Y-119505780D01*
X99087889Y-119562490D01*
X99073138Y-119621871D01*
X99067496Y-119629439D01*
X99065265Y-119632835D01*
X99060596Y-119638122D01*
X99005754Y-119754932D01*
X98985901Y-119882440D01*
X98986816Y-119889437D01*
X98986816Y-119889438D01*
X98988082Y-119899120D01*
X99002633Y-120010394D01*
X99005471Y-120016845D01*
X99005472Y-120016847D01*
X99012458Y-120032724D01*
X99054605Y-120128510D01*
X99096122Y-120177900D01*
X99133100Y-120221892D01*
X99133103Y-120221894D01*
X99137639Y-120227291D01*
X99245060Y-120298796D01*
X99251788Y-120300898D01*
X99251790Y-120300899D01*
X99306647Y-120318037D01*
X99368233Y-120337278D01*
X99432744Y-120338461D01*
X99490202Y-120339514D01*
X99490204Y-120339514D01*
X99497255Y-120339643D01*
X99504058Y-120337788D01*
X99504060Y-120337788D01*
X99545828Y-120326400D01*
X99621755Y-120305700D01*
X99707561Y-120253015D01*
X99767043Y-120238679D01*
X99814220Y-120254969D01*
X99880060Y-120298796D01*
X99886788Y-120300898D01*
X99886790Y-120300899D01*
X99941647Y-120318037D01*
X100003233Y-120337278D01*
X100067744Y-120338461D01*
X100125202Y-120339514D01*
X100125204Y-120339514D01*
X100132255Y-120339643D01*
X100139058Y-120337788D01*
X100139060Y-120337788D01*
X100180828Y-120326400D01*
X100256755Y-120305700D01*
X100342561Y-120253015D01*
X100402043Y-120238679D01*
X100449220Y-120254969D01*
X100515060Y-120298796D01*
X100521788Y-120300898D01*
X100521790Y-120300899D01*
X100576647Y-120318037D01*
X100638233Y-120337278D01*
X100702744Y-120338461D01*
X100760202Y-120339514D01*
X100760204Y-120339514D01*
X100767255Y-120339643D01*
X100774058Y-120337788D01*
X100774060Y-120337788D01*
X100815828Y-120326400D01*
X100891755Y-120305700D01*
X101001724Y-120238179D01*
X101016466Y-120221892D01*
X101083590Y-120147735D01*
X101083590Y-120147734D01*
X101088322Y-120142507D01*
X101144588Y-120026375D01*
X101165997Y-119899120D01*
X101166133Y-119888000D01*
X101147839Y-119760259D01*
X101094428Y-119642788D01*
X101088506Y-119635915D01*
X101087861Y-119634376D01*
X101086024Y-119631504D01*
X101086523Y-119631185D01*
X101064847Y-119579488D01*
X101081432Y-119515934D01*
X101083589Y-119512736D01*
X101088322Y-119507507D01*
X101144588Y-119391375D01*
X101165997Y-119264120D01*
X101166133Y-119253000D01*
X101147839Y-119125259D01*
X101094428Y-119007788D01*
X101088506Y-119000915D01*
X101087861Y-118999376D01*
X101086024Y-118996504D01*
X101086523Y-118996185D01*
X101064847Y-118944488D01*
X101081432Y-118880934D01*
X101083589Y-118877736D01*
X101088322Y-118872507D01*
X101144588Y-118756375D01*
X101159708Y-118666500D01*
X101165363Y-118632891D01*
X101165363Y-118632886D01*
X101165997Y-118629120D01*
X101166133Y-118618000D01*
X101147839Y-118490259D01*
X101094428Y-118372788D01*
X101028771Y-118296589D01*
X101014798Y-118280372D01*
X101014797Y-118280371D01*
X101010193Y-118275028D01*
X101004276Y-118271193D01*
X101004274Y-118271191D01*
X100915534Y-118213674D01*
X100901906Y-118204841D01*
X100895151Y-118202821D01*
X100895147Y-118202819D01*
X100853450Y-118190349D01*
X100803116Y-118155561D01*
X100782843Y-118097832D01*
X100800375Y-118039212D01*
X100849014Y-118002092D01*
X100881816Y-117996500D01*
X101334500Y-117996500D01*
X101392691Y-118015407D01*
X101428655Y-118064907D01*
X101433500Y-118095500D01*
X101433500Y-118215748D01*
X101445133Y-118274231D01*
X101489448Y-118340552D01*
X101555769Y-118384867D01*
X101565332Y-118386769D01*
X101565334Y-118386770D01*
X101581765Y-118390038D01*
X101614252Y-118396500D01*
X103853748Y-118396500D01*
X103886235Y-118390038D01*
X103902666Y-118386770D01*
X103902668Y-118386769D01*
X103912231Y-118384867D01*
X103978552Y-118340552D01*
X104022867Y-118274231D01*
X104034500Y-118215748D01*
X104034500Y-116976252D01*
X104022867Y-116917769D01*
X103978552Y-116851448D01*
X103912231Y-116807133D01*
X103902668Y-116805231D01*
X103902666Y-116805230D01*
X103879995Y-116800721D01*
X103853748Y-116795500D01*
X101614252Y-116795500D01*
X101588005Y-116800721D01*
X101565334Y-116805230D01*
X101565332Y-116805231D01*
X101555769Y-116807133D01*
X101489448Y-116851448D01*
X101445133Y-116917769D01*
X101433500Y-116976252D01*
X101433500Y-117096500D01*
X101414593Y-117154691D01*
X101365093Y-117190655D01*
X101334500Y-117195500D01*
X96208567Y-117195500D01*
X96185620Y-117202956D01*
X96170519Y-117206581D01*
X96154391Y-117209135D01*
X96154389Y-117209136D01*
X96146696Y-117210354D01*
X96125203Y-117221305D01*
X96110857Y-117227248D01*
X96087910Y-117234704D01*
X96081605Y-117239285D01*
X96068395Y-117248883D01*
X96055154Y-117256998D01*
X96033658Y-117267950D01*
X96011095Y-117290513D01*
X96011091Y-117290516D01*
X95798086Y-117503521D01*
X95781689Y-117516747D01*
X95774169Y-117521590D01*
X95774162Y-117521596D01*
X95770075Y-117524228D01*
X95766576Y-117527611D01*
X95766575Y-117527612D01*
X95719495Y-117573134D01*
X95716407Y-117575996D01*
X95696011Y-117594104D01*
X95670764Y-117616518D01*
X95666549Y-117620054D01*
X95629443Y-117649469D01*
X95624026Y-117653472D01*
X95593242Y-117674634D01*
X95586940Y-117678625D01*
X95559061Y-117694843D01*
X95552668Y-117698255D01*
X95523071Y-117712686D01*
X95517608Y-117715148D01*
X95481706Y-117730037D01*
X95477964Y-117731500D01*
X95432387Y-117748255D01*
X95430550Y-117748909D01*
X95373559Y-117768594D01*
X95373386Y-117768654D01*
X95316283Y-117788259D01*
X95316275Y-117788262D01*
X95313736Y-117789134D01*
X95273355Y-117808120D01*
X95271052Y-117809527D01*
X95268681Y-117810803D01*
X95268585Y-117810624D01*
X95258898Y-117815548D01*
X95207153Y-117836981D01*
X95207152Y-117836982D01*
X95201159Y-117839464D01*
X95075718Y-117935718D01*
X94979464Y-118061159D01*
X94918956Y-118207238D01*
X94898318Y-118364000D01*
X84161235Y-118364000D01*
X85418713Y-117106522D01*
X85433747Y-117094190D01*
X85442864Y-117088103D01*
X85442867Y-117088101D01*
X85446912Y-117085400D01*
X85531503Y-117000876D01*
X85531931Y-117000451D01*
X85612137Y-116921279D01*
X85613297Y-116920152D01*
X85615792Y-116917769D01*
X85666006Y-116869796D01*
X85683009Y-116853552D01*
X85685150Y-116851566D01*
X85745807Y-116796946D01*
X85749155Y-116794065D01*
X85802807Y-116749923D01*
X85807433Y-116746340D01*
X85856788Y-116710417D01*
X85862513Y-116706550D01*
X85911098Y-116676144D01*
X85917379Y-116672526D01*
X85969673Y-116644917D01*
X85975792Y-116641951D01*
X86036409Y-116615103D01*
X86041744Y-116612924D01*
X86044508Y-116611888D01*
X86113617Y-116585976D01*
X86137732Y-116574015D01*
X86151126Y-116568551D01*
X86179522Y-116559324D01*
X86184782Y-116557615D01*
X86339044Y-116465657D01*
X86469099Y-116341807D01*
X86472680Y-116336418D01*
X86553014Y-116215504D01*
X86563687Y-116199440D01*
X91238901Y-116199440D01*
X91239816Y-116206437D01*
X91239816Y-116206438D01*
X91240777Y-116213788D01*
X91255633Y-116327394D01*
X91258471Y-116333845D01*
X91258472Y-116333847D01*
X91265458Y-116349724D01*
X91307605Y-116445510D01*
X91325080Y-116466299D01*
X91386100Y-116538892D01*
X91386103Y-116538894D01*
X91390639Y-116544291D01*
X91498060Y-116615796D01*
X91504788Y-116617898D01*
X91504790Y-116617899D01*
X91559646Y-116635037D01*
X91621233Y-116654278D01*
X91685744Y-116655461D01*
X91743202Y-116656514D01*
X91743204Y-116656514D01*
X91750255Y-116656643D01*
X91757058Y-116654788D01*
X91757060Y-116654788D01*
X91804144Y-116641951D01*
X91874755Y-116622700D01*
X91984724Y-116555179D01*
X92071322Y-116459507D01*
X92074261Y-116453440D01*
X98985901Y-116453440D01*
X98986816Y-116460437D01*
X98986816Y-116460438D01*
X98987869Y-116468489D01*
X99002633Y-116581394D01*
X99005471Y-116587845D01*
X99005472Y-116587847D01*
X99051764Y-116693054D01*
X99054605Y-116699510D01*
X99093961Y-116746330D01*
X99133100Y-116792892D01*
X99133103Y-116792894D01*
X99137639Y-116798291D01*
X99245060Y-116869796D01*
X99251788Y-116871898D01*
X99251790Y-116871899D01*
X99306647Y-116889037D01*
X99368233Y-116908278D01*
X99432744Y-116909460D01*
X99490202Y-116910514D01*
X99490204Y-116910514D01*
X99497255Y-116910643D01*
X99504058Y-116908788D01*
X99504060Y-116908788D01*
X99545828Y-116897400D01*
X99621755Y-116876700D01*
X99707561Y-116824015D01*
X99767043Y-116809679D01*
X99814219Y-116825969D01*
X99874189Y-116865888D01*
X99880060Y-116869796D01*
X99886788Y-116871898D01*
X99886790Y-116871899D01*
X99941647Y-116889037D01*
X100003233Y-116908278D01*
X100067744Y-116909460D01*
X100125202Y-116910514D01*
X100125204Y-116910514D01*
X100132255Y-116910643D01*
X100139058Y-116908788D01*
X100139060Y-116908788D01*
X100180828Y-116897400D01*
X100256755Y-116876700D01*
X100342561Y-116824015D01*
X100402043Y-116809679D01*
X100449219Y-116825969D01*
X100509189Y-116865888D01*
X100515060Y-116869796D01*
X100521788Y-116871898D01*
X100521790Y-116871899D01*
X100576647Y-116889037D01*
X100638233Y-116908278D01*
X100702744Y-116909460D01*
X100760202Y-116910514D01*
X100760204Y-116910514D01*
X100767255Y-116910643D01*
X100774058Y-116908788D01*
X100774060Y-116908788D01*
X100815828Y-116897400D01*
X100891755Y-116876700D01*
X101001724Y-116809179D01*
X101055360Y-116749923D01*
X101083590Y-116718735D01*
X101083590Y-116718734D01*
X101088322Y-116713507D01*
X101137055Y-116612924D01*
X101141512Y-116603724D01*
X101141512Y-116603723D01*
X101144588Y-116597375D01*
X101165997Y-116470120D01*
X101166133Y-116459000D01*
X101147839Y-116331259D01*
X101111069Y-116250387D01*
X101097349Y-116220212D01*
X101097348Y-116220211D01*
X101094428Y-116213788D01*
X101010193Y-116116028D01*
X101004276Y-116112193D01*
X101004274Y-116112191D01*
X100907824Y-116049677D01*
X100901906Y-116045841D01*
X100895150Y-116043821D01*
X100895149Y-116043820D01*
X100852335Y-116031016D01*
X100778273Y-116008866D01*
X100701644Y-116008398D01*
X100656282Y-116008121D01*
X100649231Y-116008078D01*
X100642454Y-116010015D01*
X100642453Y-116010015D01*
X100531935Y-116041601D01*
X100531933Y-116041602D01*
X100525155Y-116043539D01*
X100519191Y-116047302D01*
X100446040Y-116093457D01*
X100386737Y-116108518D01*
X100339366Y-116092806D01*
X100272824Y-116049677D01*
X100266906Y-116045841D01*
X100260150Y-116043821D01*
X100260149Y-116043820D01*
X100217335Y-116031016D01*
X100143273Y-116008866D01*
X100066644Y-116008398D01*
X100021282Y-116008121D01*
X100014231Y-116008078D01*
X100007454Y-116010015D01*
X100007453Y-116010015D01*
X99896935Y-116041601D01*
X99896933Y-116041602D01*
X99890155Y-116043539D01*
X99884191Y-116047302D01*
X99811040Y-116093457D01*
X99751737Y-116108518D01*
X99704366Y-116092806D01*
X99637824Y-116049677D01*
X99631906Y-116045841D01*
X99625150Y-116043821D01*
X99625149Y-116043820D01*
X99582335Y-116031016D01*
X99508273Y-116008866D01*
X99431644Y-116008398D01*
X99386282Y-116008121D01*
X99379231Y-116008078D01*
X99372454Y-116010015D01*
X99372453Y-116010015D01*
X99261935Y-116041601D01*
X99261933Y-116041602D01*
X99255155Y-116043539D01*
X99146019Y-116112399D01*
X99060596Y-116209122D01*
X99005754Y-116325932D01*
X98985901Y-116453440D01*
X92074261Y-116453440D01*
X92127588Y-116343375D01*
X92143232Y-116250387D01*
X92148363Y-116219891D01*
X92148363Y-116219886D01*
X92148997Y-116216120D01*
X92149133Y-116205000D01*
X92130839Y-116077259D01*
X92100265Y-116010015D01*
X92080349Y-115966212D01*
X92080348Y-115966211D01*
X92077428Y-115959788D01*
X92024395Y-115898240D01*
X91997798Y-115867372D01*
X91997797Y-115867371D01*
X91993193Y-115862028D01*
X91987276Y-115858193D01*
X91987274Y-115858191D01*
X91890824Y-115795677D01*
X91884906Y-115791841D01*
X91878150Y-115789821D01*
X91878149Y-115789820D01*
X91835335Y-115777016D01*
X91761273Y-115754866D01*
X91684644Y-115754398D01*
X91639282Y-115754121D01*
X91632231Y-115754078D01*
X91625454Y-115756015D01*
X91625453Y-115756015D01*
X91514935Y-115787601D01*
X91514933Y-115787602D01*
X91508155Y-115789539D01*
X91399019Y-115858399D01*
X91313596Y-115955122D01*
X91258754Y-116071932D01*
X91238901Y-116199440D01*
X86563687Y-116199440D01*
X86568483Y-116192222D01*
X86632257Y-116024336D01*
X86657251Y-115846493D01*
X86657565Y-115824000D01*
X86650591Y-115761826D01*
X86638163Y-115651025D01*
X86638162Y-115651021D01*
X86637546Y-115645528D01*
X86578485Y-115475927D01*
X86483316Y-115323625D01*
X86356770Y-115196193D01*
X86351855Y-115193074D01*
X86209810Y-115102929D01*
X86209809Y-115102928D01*
X86205136Y-115099963D01*
X86035951Y-115039719D01*
X86030464Y-115039065D01*
X86030461Y-115039064D01*
X85863120Y-115019110D01*
X85863117Y-115019110D01*
X85857624Y-115018455D01*
X85679017Y-115037227D01*
X85673777Y-115039011D01*
X85673776Y-115039011D01*
X85514249Y-115093318D01*
X85514245Y-115093320D01*
X85509007Y-115095103D01*
X85504297Y-115098001D01*
X85504292Y-115098003D01*
X85360907Y-115186215D01*
X85356045Y-115189206D01*
X85227732Y-115314859D01*
X85224734Y-115319511D01*
X85143590Y-115445422D01*
X85130446Y-115465817D01*
X85128554Y-115471016D01*
X85106295Y-115532169D01*
X85097404Y-115550479D01*
X85092585Y-115558251D01*
X85090023Y-115562383D01*
X85088319Y-115566929D01*
X85088316Y-115566934D01*
X85063071Y-115634265D01*
X85060892Y-115639600D01*
X85034048Y-115700207D01*
X85031082Y-115706326D01*
X85003473Y-115758620D01*
X84999855Y-115764901D01*
X84969449Y-115813486D01*
X84965582Y-115819211D01*
X84929659Y-115868566D01*
X84926076Y-115873192D01*
X84881934Y-115926844D01*
X84879053Y-115930192D01*
X84824433Y-115990849D01*
X84822447Y-115992989D01*
X84755901Y-116062645D01*
X84754797Y-116063783D01*
X84675249Y-116144371D01*
X84627193Y-116192466D01*
X84599790Y-116219891D01*
X84590599Y-116229089D01*
X84581805Y-116242260D01*
X84569475Y-116257290D01*
X82189261Y-118637504D01*
X82134744Y-118665281D01*
X82119257Y-118666500D01*
X80830253Y-118666500D01*
X80827584Y-118666792D01*
X80827578Y-118666792D01*
X80795952Y-118670248D01*
X80785869Y-118671350D01*
X80783234Y-118671933D01*
X80783233Y-118671933D01*
X80745149Y-118680357D01*
X80745136Y-118680360D01*
X80744115Y-118680586D01*
X80743101Y-118680855D01*
X80733997Y-118683269D01*
X80733995Y-118683270D01*
X80727626Y-118684959D01*
X80691514Y-118705882D01*
X80653306Y-118728019D01*
X80653304Y-118728021D01*
X80648493Y-118730808D01*
X80603705Y-118772493D01*
X80564072Y-118823121D01*
X80562187Y-118826514D01*
X80562185Y-118826517D01*
X79662217Y-120446460D01*
X79334819Y-121035776D01*
X79315528Y-121084030D01*
X79303070Y-121132109D01*
X79296500Y-121183655D01*
X79296500Y-122329000D01*
X78940500Y-122329000D01*
X78940500Y-114973116D01*
X80571500Y-114973116D01*
X80586467Y-115086802D01*
X80588951Y-115092799D01*
X80593147Y-115102929D01*
X80645061Y-115228259D01*
X80738269Y-115349731D01*
X80859741Y-115442939D01*
X81001198Y-115501533D01*
X81114884Y-115516500D01*
X82715116Y-115516500D01*
X82828802Y-115501533D01*
X82970259Y-115442939D01*
X83091731Y-115349731D01*
X83184939Y-115228259D01*
X83236853Y-115102929D01*
X83241049Y-115092799D01*
X83243533Y-115086802D01*
X83258500Y-114973116D01*
X83258500Y-114266100D01*
X83277407Y-114207909D01*
X83326907Y-114171945D01*
X83357500Y-114167100D01*
X84375195Y-114167100D01*
X84396137Y-114169340D01*
X84404901Y-114171237D01*
X84404903Y-114171237D01*
X84409647Y-114172264D01*
X84414501Y-114172346D01*
X84414504Y-114172346D01*
X84443325Y-114172830D01*
X84480026Y-114173448D01*
X84484198Y-114173606D01*
X84545124Y-114177228D01*
X84550580Y-114177705D01*
X84586915Y-114181906D01*
X84586921Y-114181907D01*
X84597694Y-114183152D01*
X84604325Y-114184149D01*
X84641040Y-114190950D01*
X84648311Y-114192582D01*
X84679498Y-114200829D01*
X84686416Y-114202932D01*
X84717587Y-114213670D01*
X84723168Y-114215783D01*
X84756580Y-114229607D01*
X84759060Y-114230633D01*
X84762755Y-114232251D01*
X84806871Y-114252649D01*
X84808583Y-114253462D01*
X84863038Y-114279958D01*
X84863033Y-114279968D01*
X84863193Y-114280033D01*
X84919647Y-114307629D01*
X84961579Y-114322746D01*
X84964183Y-114323376D01*
X84966771Y-114324153D01*
X84966714Y-114324343D01*
X84977098Y-114327727D01*
X85034838Y-114351644D01*
X85191600Y-114372282D01*
X85348362Y-114351644D01*
X85494441Y-114291136D01*
X85619882Y-114194882D01*
X85716136Y-114069441D01*
X85776644Y-113923362D01*
X85797282Y-113766600D01*
X85776644Y-113609838D01*
X85716136Y-113463759D01*
X85619882Y-113338318D01*
X85494441Y-113242064D01*
X85348362Y-113181556D01*
X85191600Y-113160918D01*
X85034838Y-113181556D01*
X85028841Y-113184040D01*
X84950472Y-113216502D01*
X84937878Y-113220753D01*
X84919647Y-113225570D01*
X84863199Y-113253163D01*
X84863013Y-113253190D01*
X84863038Y-113253241D01*
X84808583Y-113279737D01*
X84806867Y-113280552D01*
X84762719Y-113300965D01*
X84759086Y-113302555D01*
X84734662Y-113312661D01*
X84723180Y-113317411D01*
X84717573Y-113319534D01*
X84693188Y-113327933D01*
X84692965Y-113328010D01*
X84692807Y-113328064D01*
X84686428Y-113330262D01*
X84679499Y-113332369D01*
X84648299Y-113340620D01*
X84641035Y-113342250D01*
X84604327Y-113349049D01*
X84597684Y-113350048D01*
X84568881Y-113353379D01*
X84550609Y-113355492D01*
X84545112Y-113355973D01*
X84484191Y-113359593D01*
X84480028Y-113359751D01*
X84409645Y-113360936D01*
X84402421Y-113362468D01*
X84395451Y-113363946D01*
X84374914Y-113366100D01*
X83136365Y-113366100D01*
X83120698Y-113364852D01*
X83105822Y-113362468D01*
X83105814Y-113362468D01*
X83101019Y-113361699D01*
X82989902Y-113365861D01*
X82985350Y-113366031D01*
X82981645Y-113366100D01*
X82638967Y-113366100D01*
X82616020Y-113373556D01*
X82600919Y-113377181D01*
X82584791Y-113379735D01*
X82584789Y-113379736D01*
X82577096Y-113380954D01*
X82555601Y-113391906D01*
X82541255Y-113397849D01*
X82525720Y-113402896D01*
X82525716Y-113402898D01*
X82518311Y-113405304D01*
X82498790Y-113419487D01*
X82485551Y-113427599D01*
X82470997Y-113435014D01*
X82470995Y-113435016D01*
X82464058Y-113438550D01*
X82441495Y-113461113D01*
X82441491Y-113461116D01*
X82432334Y-113470273D01*
X82395166Y-113493665D01*
X82328936Y-113516950D01*
X82325527Y-113518079D01*
X82242822Y-113543818D01*
X82235920Y-113545694D01*
X82176654Y-113559517D01*
X82152092Y-113565246D01*
X82143144Y-113566904D01*
X82047124Y-113580160D01*
X82037860Y-113580998D01*
X81917764Y-113586189D01*
X81917763Y-113586189D01*
X81914758Y-113586319D01*
X81898344Y-113589050D01*
X81891691Y-113590157D01*
X81875442Y-113591500D01*
X81114884Y-113591500D01*
X81001198Y-113606467D01*
X80859741Y-113665061D01*
X80738269Y-113758269D01*
X80645061Y-113879741D01*
X80586467Y-114021198D01*
X80571500Y-114134884D01*
X80571500Y-114973116D01*
X78940500Y-114973116D01*
X78940500Y-111286281D01*
X78943057Y-111263926D01*
X78944388Y-111258183D01*
X78945655Y-111252718D01*
X78945656Y-111252000D01*
X78944413Y-111246549D01*
X78943791Y-111240995D01*
X78944523Y-111240913D01*
X78943008Y-111220139D01*
X78956183Y-111052728D01*
X78958613Y-111037384D01*
X79003458Y-110850591D01*
X79008259Y-110835816D01*
X79081773Y-110658339D01*
X79088826Y-110644498D01*
X79189195Y-110480710D01*
X79198326Y-110468142D01*
X79323084Y-110322069D01*
X79334069Y-110311084D01*
X79480142Y-110186326D01*
X79492710Y-110177195D01*
X79656498Y-110076826D01*
X79670339Y-110069773D01*
X79846252Y-109996907D01*
X79847820Y-109996258D01*
X79862587Y-109991459D01*
X79883000Y-109986558D01*
X79883000Y-112268000D01*
X103886000Y-112268000D01*
X103886000Y-109928500D01*
X104549000Y-109928500D01*
X104607191Y-109947407D01*
G37*
%TD.AperFunction*%
%TD*%
M02*
