%TF.GenerationSoftware,KiCad,Pcbnew,(6.0.5)*%
%TF.CreationDate,2023-01-29T08:36:09+08:00*%
%TF.ProjectId,Brushless_ESC_STC_V2,42727573-686c-4657-9373-5f4553435f53,rev?*%
%TF.SameCoordinates,Original*%
%TF.FileFunction,Copper,L2,Inr*%
%TF.FilePolarity,Positive*%
%FSLAX46Y46*%
G04 Gerber Fmt 4.6, Leading zero omitted, Abs format (unit mm)*
G04 Created by KiCad (PCBNEW (6.0.5)) date 2023-01-29 08:36:09*
%MOMM*%
%LPD*%
G01*
G04 APERTURE LIST*
%TA.AperFunction,ViaPad*%
%ADD10C,1.200000*%
%TD*%
%TA.AperFunction,ViaPad*%
%ADD11C,0.600000*%
%TD*%
%TA.AperFunction,ViaPad*%
%ADD12C,0.500000*%
%TD*%
%TA.AperFunction,ViaPad*%
%ADD13C,0.800000*%
%TD*%
G04 APERTURE END LIST*
D10*
%TO.N,+5V*%
X85852000Y-115824000D03*
D11*
%TO.N,GND*%
X82473800Y-121666000D03*
X84836000Y-111125000D03*
X95504000Y-110363000D03*
X93040200Y-114452400D03*
X88036400Y-116967000D03*
X88646000Y-111125000D03*
X100076000Y-110363000D03*
X94742000Y-110363000D03*
X92786200Y-115595400D03*
X93218000Y-111125000D03*
X80238600Y-118059200D03*
X88874600Y-116103400D03*
X97790000Y-110363000D03*
X80924400Y-116027200D03*
X97028000Y-111887000D03*
X94437200Y-127533400D03*
X91592400Y-117373400D03*
X95681800Y-128879600D03*
X88620600Y-113512600D03*
X80060800Y-116128800D03*
X100076000Y-111125000D03*
D12*
X98018600Y-128803400D03*
D11*
X96266000Y-111125000D03*
X82499200Y-122605800D03*
X81026000Y-110363000D03*
X85598000Y-110363000D03*
X85598000Y-111887000D03*
D12*
X85217000Y-120523000D03*
D11*
X93218000Y-110363000D03*
X87960200Y-115062000D03*
X91694000Y-110363000D03*
X83286600Y-121183400D03*
X89306400Y-130175000D03*
D12*
X87757000Y-122809000D03*
D11*
X90170000Y-111887000D03*
X93980000Y-111887000D03*
X90932000Y-111887000D03*
X83312000Y-111125000D03*
X80137000Y-117144800D03*
X98552000Y-110363000D03*
X79832200Y-115163600D03*
X96266000Y-111887000D03*
X84074000Y-111125000D03*
X83312000Y-110363000D03*
X99314000Y-111125000D03*
D12*
X98425000Y-128320800D03*
D11*
X81026000Y-111125000D03*
X88646000Y-111887000D03*
X85598000Y-111125000D03*
X94742000Y-111887000D03*
X100838000Y-110363000D03*
X84074000Y-111887000D03*
X97028000Y-111125000D03*
X80264000Y-110363000D03*
X97434400Y-119862600D03*
X82550000Y-111125000D03*
X93319600Y-121158000D03*
X88900000Y-115290600D03*
X97358200Y-118999000D03*
X96418400Y-114376200D03*
X83794600Y-124891800D03*
X90170000Y-110363000D03*
X95631000Y-114376200D03*
X88976200Y-117805200D03*
X89077800Y-124409200D03*
X94361000Y-121996200D03*
X87884000Y-110363000D03*
X84836000Y-110363000D03*
X90932000Y-110363000D03*
X99314000Y-110363000D03*
X84074000Y-110363000D03*
X96266000Y-110363000D03*
X94564200Y-115290600D03*
X90932000Y-111125000D03*
X99314000Y-111887000D03*
X93980000Y-110363000D03*
X86360000Y-110363000D03*
X82981800Y-123291600D03*
X89408000Y-110363000D03*
X90932000Y-129387600D03*
X96316800Y-120954800D03*
X87122000Y-110363000D03*
X93548200Y-115316000D03*
X81153000Y-118160800D03*
X95504000Y-111887000D03*
X95504000Y-111125000D03*
X91694000Y-111887000D03*
X95173800Y-115976400D03*
X85521800Y-124307600D03*
X87884000Y-111887000D03*
X93980000Y-114477800D03*
X81788000Y-111887000D03*
D12*
X86995000Y-122047000D03*
D11*
X96520000Y-127812800D03*
X84836000Y-111887000D03*
X82550000Y-110363000D03*
X81026000Y-111887000D03*
X92456000Y-111887000D03*
X97790000Y-111887000D03*
X88646000Y-110363000D03*
X89662000Y-124993400D03*
X82423000Y-124053600D03*
X87909400Y-114096800D03*
X82016600Y-123240800D03*
X87122000Y-111887000D03*
X93497400Y-121996200D03*
X83312000Y-111887000D03*
X97028000Y-110363000D03*
X92303600Y-117043200D03*
X88900000Y-116916200D03*
X95478600Y-121005600D03*
X82727800Y-116078000D03*
X86360000Y-111125000D03*
X100838000Y-111125000D03*
X94742000Y-111125000D03*
X94818200Y-114503200D03*
X82042000Y-118059200D03*
X94538800Y-121081800D03*
X93980000Y-111125000D03*
D12*
X87757000Y-122047000D03*
D11*
X80975200Y-123113800D03*
X83210400Y-122174000D03*
X81788000Y-111125000D03*
X89408000Y-111125000D03*
X93218000Y-111887000D03*
X86360000Y-111887000D03*
X89331800Y-128879600D03*
X84023200Y-128905000D03*
X100076000Y-111887000D03*
X82499200Y-128854200D03*
X81788000Y-110363000D03*
X84582000Y-124307600D03*
D12*
X86995000Y-122809000D03*
D11*
X98323400Y-119354600D03*
X81889600Y-116027200D03*
X92456000Y-110363000D03*
X85547200Y-125120400D03*
X88036400Y-115976400D03*
X100838000Y-111887000D03*
X80264000Y-111887000D03*
X82550000Y-111887000D03*
X80264000Y-111125000D03*
X90170000Y-111125000D03*
D12*
X85344000Y-119761000D03*
D11*
X97790000Y-111125000D03*
X89408000Y-111887000D03*
X87884000Y-111125000D03*
X92456000Y-111125000D03*
X88061800Y-117729000D03*
X98552000Y-111125000D03*
X87122000Y-111125000D03*
X84632800Y-125120400D03*
X91694000Y-111125000D03*
X98552000Y-111887000D03*
X85598000Y-128930400D03*
%TO.N,VDD*%
X84836000Y-132969000D03*
D12*
X100076000Y-122555000D03*
D11*
X89408000Y-132969000D03*
X89408000Y-133731000D03*
D12*
X99441000Y-118618000D03*
D11*
X84836000Y-133731000D03*
X90932000Y-134493000D03*
D12*
X100711000Y-118618000D03*
D11*
X83312000Y-132969000D03*
X81026000Y-134493000D03*
X95504000Y-133731000D03*
D12*
X99441000Y-122555000D03*
D11*
X90170000Y-134493000D03*
X92456000Y-132969000D03*
X81788000Y-134493000D03*
X93980000Y-134493000D03*
X90932000Y-132969000D03*
X81788000Y-132969000D03*
D12*
X100711000Y-128651000D03*
D11*
X82550000Y-133731000D03*
X100838000Y-133731000D03*
X86360000Y-134493000D03*
X93218000Y-132969000D03*
X90932000Y-133731000D03*
X91694000Y-133731000D03*
D12*
X100711000Y-119888000D03*
D11*
X87122000Y-134493000D03*
X88646000Y-134493000D03*
D12*
X99441000Y-119253000D03*
X100076000Y-119253000D03*
D11*
X99314000Y-133731000D03*
X86360000Y-133731000D03*
D12*
X100711000Y-132080000D03*
X100711000Y-122555000D03*
D11*
X82550000Y-132969000D03*
X99314000Y-134493000D03*
X95504000Y-132969000D03*
X88646000Y-132969000D03*
X92456000Y-133731000D03*
X84074000Y-133731000D03*
X94742000Y-133731000D03*
X97028000Y-134493000D03*
X90170000Y-133731000D03*
X97790000Y-132969000D03*
X91694000Y-134493000D03*
X100076000Y-134493000D03*
D12*
X99441000Y-132080000D03*
D11*
X88646000Y-133731000D03*
X94742000Y-132969000D03*
X81026000Y-132969000D03*
X84074000Y-134493000D03*
X80264000Y-134493000D03*
X81026000Y-133731000D03*
X98552000Y-132969000D03*
X87884000Y-133731000D03*
X87122000Y-132969000D03*
X97028000Y-132969000D03*
D12*
X100711000Y-119253000D03*
D11*
X82550000Y-134493000D03*
D12*
X99441000Y-119888000D03*
D11*
X93218000Y-134493000D03*
X91694000Y-132969000D03*
X85598000Y-134493000D03*
X99314000Y-132969000D03*
X85598000Y-132969000D03*
X98552000Y-133731000D03*
D12*
X100076000Y-116459000D03*
D11*
X93980000Y-132969000D03*
D12*
X100076000Y-123190000D03*
D11*
X96266000Y-132969000D03*
X84836000Y-134493000D03*
D12*
X100076000Y-132080000D03*
D11*
X80264000Y-133731000D03*
X83312000Y-134493000D03*
D12*
X100711000Y-116459000D03*
X100076000Y-119888000D03*
D10*
X81178400Y-124383800D03*
D12*
X99441000Y-116459000D03*
D11*
X85598000Y-133731000D03*
X81788000Y-133731000D03*
X87884000Y-134493000D03*
X87122000Y-133731000D03*
X100838000Y-134493000D03*
X86360000Y-132969000D03*
X90170000Y-132969000D03*
X97790000Y-134493000D03*
X80264000Y-132969000D03*
X97790000Y-133731000D03*
D12*
X100076000Y-128651000D03*
D11*
X97028000Y-133731000D03*
D12*
X100076000Y-123825000D03*
D11*
X89408000Y-134493000D03*
X92456000Y-134493000D03*
X95504000Y-134493000D03*
X96266000Y-134493000D03*
X83312000Y-133731000D03*
X87884000Y-132969000D03*
X100076000Y-133731000D03*
X100838000Y-132969000D03*
X100076000Y-132969000D03*
X93218000Y-133731000D03*
D12*
X99441000Y-123825000D03*
D11*
X96266000Y-133731000D03*
X84074000Y-132969000D03*
X93980000Y-133731000D03*
D12*
X100711000Y-123190000D03*
X100076000Y-118618000D03*
D11*
X98552000Y-134493000D03*
D12*
X99441000Y-123190000D03*
D11*
X94742000Y-134493000D03*
D12*
X99441000Y-128651000D03*
D13*
%TO.N,Net-(D3-Pad1)*%
X97917000Y-121666000D03*
X102616000Y-121412000D03*
%TO.N,Net-(D4-Pad1)*%
X102108000Y-128651000D03*
X98044000Y-126746000D03*
D11*
%TO.N,/W*%
X108712000Y-116840000D03*
X108712000Y-114554000D03*
X114935000Y-116840000D03*
X110998000Y-113792000D03*
X106426000Y-116078000D03*
X110236000Y-113792000D03*
X106426000Y-114554000D03*
X114935000Y-114554000D03*
X107950000Y-117602000D03*
X114935000Y-116078000D03*
X110236000Y-117602000D03*
X110998000Y-116840000D03*
X106426000Y-113030000D03*
X107188000Y-114554000D03*
X106426000Y-116840000D03*
X107188000Y-113792000D03*
X112649000Y-114554000D03*
X110998000Y-116078000D03*
X110236000Y-113030000D03*
X111760000Y-113792000D03*
X110998000Y-115316000D03*
X112649000Y-115316000D03*
X107188000Y-115316000D03*
X113411000Y-114554000D03*
X107188000Y-116840000D03*
X111760000Y-116840000D03*
X107950000Y-113792000D03*
X107950000Y-115316000D03*
X114173000Y-115316000D03*
X109474000Y-116840000D03*
X106426000Y-117602000D03*
X112649000Y-116078000D03*
X109474000Y-116078000D03*
X114173000Y-116078000D03*
X109474000Y-114554000D03*
X110236000Y-116840000D03*
X109474000Y-117602000D03*
X111760000Y-114554000D03*
X107188000Y-116078000D03*
X107188000Y-113030000D03*
X107950000Y-116078000D03*
X114173000Y-114554000D03*
X108712000Y-117602000D03*
X112649000Y-113792000D03*
X107950000Y-113030000D03*
X114935000Y-113792000D03*
X113411000Y-113792000D03*
X110236000Y-116078000D03*
X108712000Y-113030000D03*
X107188000Y-117602000D03*
X111760000Y-115316000D03*
X108712000Y-116078000D03*
X111760000Y-117602000D03*
X114173000Y-116840000D03*
X109474000Y-113792000D03*
X114173000Y-113792000D03*
X106426000Y-113792000D03*
D12*
X91186000Y-130302000D03*
D11*
X108712000Y-113792000D03*
X112649000Y-116840000D03*
X113411000Y-116840000D03*
X107950000Y-114554000D03*
X111760000Y-113030000D03*
X108712000Y-115316000D03*
X110998000Y-117602000D03*
X110236000Y-114554000D03*
X109474000Y-115316000D03*
X107950000Y-116840000D03*
X109474000Y-113030000D03*
X110998000Y-113030000D03*
X113411000Y-115316000D03*
X110236000Y-115316000D03*
X106426000Y-115316000D03*
X110998000Y-114554000D03*
X114935000Y-115316000D03*
X113411000Y-116078000D03*
X111760000Y-116078000D03*
D12*
%TO.N,/V*%
X85598000Y-130556000D03*
D11*
X112649000Y-122428000D03*
X112649000Y-123190000D03*
X112649000Y-121666000D03*
X113411000Y-121666000D03*
X107950000Y-123952000D03*
X110236000Y-120142000D03*
X114173000Y-122428000D03*
X108712000Y-120142000D03*
X106426000Y-120142000D03*
X107950000Y-120142000D03*
X107950000Y-123190000D03*
X109474000Y-122428000D03*
X111760000Y-120142000D03*
X110236000Y-124714000D03*
X107188000Y-123190000D03*
X107188000Y-124714000D03*
X109474000Y-120142000D03*
X107188000Y-123952000D03*
X107950000Y-124714000D03*
X108712000Y-122428000D03*
X106426000Y-121666000D03*
X111760000Y-123952000D03*
X110998000Y-124714000D03*
X110998000Y-123952000D03*
X110236000Y-121666000D03*
X113411000Y-123190000D03*
X110998000Y-120904000D03*
X108712000Y-123952000D03*
X111760000Y-121666000D03*
X109474000Y-120904000D03*
X106426000Y-123952000D03*
X110236000Y-123952000D03*
X109474000Y-124714000D03*
X108712000Y-124714000D03*
X113411000Y-123952000D03*
X114173000Y-123190000D03*
X110236000Y-122428000D03*
X107950000Y-120904000D03*
X113411000Y-120904000D03*
X109474000Y-123952000D03*
X106426000Y-122428000D03*
X106426000Y-120904000D03*
X114935000Y-120904000D03*
X111760000Y-123190000D03*
X107950000Y-121666000D03*
X110998000Y-122428000D03*
X111760000Y-122428000D03*
X114173000Y-121666000D03*
X109474000Y-121666000D03*
X112649000Y-123952000D03*
X108712000Y-120904000D03*
X107950000Y-122428000D03*
X112649000Y-120904000D03*
X110998000Y-120142000D03*
X110236000Y-120904000D03*
X107188000Y-122428000D03*
X110236000Y-123190000D03*
X107188000Y-120904000D03*
X114935000Y-122428000D03*
X107188000Y-121666000D03*
X113411000Y-122428000D03*
X111760000Y-120904000D03*
X106426000Y-124714000D03*
X110998000Y-121666000D03*
X114935000Y-123952000D03*
X114173000Y-120904000D03*
X109474000Y-123190000D03*
X108712000Y-123190000D03*
X114173000Y-123952000D03*
X107188000Y-120142000D03*
X114935000Y-121666000D03*
X111760000Y-124714000D03*
X106426000Y-123190000D03*
X114935000Y-123190000D03*
X110998000Y-123190000D03*
X108712000Y-121666000D03*
%TO.N,/U*%
X107188000Y-131064000D03*
X110998000Y-131826000D03*
X107188000Y-130302000D03*
X112649000Y-128016000D03*
X110998000Y-128778000D03*
X110236000Y-128016000D03*
X113411000Y-128016000D03*
X114935000Y-131064000D03*
X114173000Y-130302000D03*
X108712000Y-128016000D03*
X106426000Y-130302000D03*
X114173000Y-128016000D03*
X110236000Y-131826000D03*
X110998000Y-131064000D03*
X110236000Y-128778000D03*
X107188000Y-128778000D03*
X107950000Y-127254000D03*
X106426000Y-128016000D03*
X110236000Y-127254000D03*
X109474000Y-129540000D03*
X114173000Y-129540000D03*
X109474000Y-128016000D03*
X113411000Y-129540000D03*
X108712000Y-130302000D03*
X109474000Y-127254000D03*
X113411000Y-130302000D03*
X106426000Y-131064000D03*
X110236000Y-131064000D03*
X107950000Y-128016000D03*
X107950000Y-129540000D03*
X110998000Y-128016000D03*
X107188000Y-128016000D03*
X109474000Y-131826000D03*
X110998000Y-130302000D03*
X111760000Y-130302000D03*
X107950000Y-131064000D03*
X113411000Y-128778000D03*
X114173000Y-128778000D03*
X106426000Y-128778000D03*
X110998000Y-127254000D03*
X111760000Y-131064000D03*
X106426000Y-131826000D03*
D12*
X83820000Y-130556000D03*
D11*
X114935000Y-130302000D03*
X107188000Y-131826000D03*
X111760000Y-128016000D03*
X106426000Y-129540000D03*
X106426000Y-127254000D03*
X110236000Y-130302000D03*
X107950000Y-131826000D03*
X107950000Y-128778000D03*
X114935000Y-128016000D03*
X112649000Y-131064000D03*
X107188000Y-127254000D03*
X109474000Y-131064000D03*
X109474000Y-130302000D03*
X110998000Y-129540000D03*
X108712000Y-129540000D03*
X114173000Y-131064000D03*
X111760000Y-129540000D03*
X112649000Y-128778000D03*
X107188000Y-129540000D03*
X108712000Y-128778000D03*
X113411000Y-131064000D03*
X108712000Y-131064000D03*
X112649000Y-129540000D03*
X108712000Y-131826000D03*
X111760000Y-128778000D03*
X107950000Y-130302000D03*
X114935000Y-128778000D03*
X111760000Y-127254000D03*
X114935000Y-129540000D03*
X108712000Y-127254000D03*
X110236000Y-129540000D03*
X112649000Y-130302000D03*
X109474000Y-128778000D03*
X111760000Y-131826000D03*
D13*
%TO.N,Net-(Q5-PadG)*%
X95504000Y-118364000D03*
%TO.N,Net-(Q7-PadG)*%
X95504000Y-124968000D03*
D11*
%TO.N,Net-(Q9-PadG)*%
X95377000Y-130937000D03*
D12*
%TO.N,/PWM3*%
X91694000Y-116205000D03*
X90805000Y-123825000D03*
%TO.N,/PWM1*%
X90805000Y-124841000D03*
X92583000Y-127889000D03*
%TO.N,/PWM1L*%
X93573600Y-127990600D03*
X90678000Y-121478500D03*
%TO.N,/CMP-*%
X83185000Y-125806200D03*
X90805000Y-127254000D03*
D13*
%TO.N,Net-(J2-Pad1)*%
X85191600Y-113766600D03*
%TD*%
%TA.AperFunction,Conductor*%
%TO.N,VDD*%
G36*
X101178191Y-116096907D02*
G01*
X101214155Y-116146407D01*
X101219000Y-116177000D01*
X101219000Y-134747000D01*
X99060000Y-134747000D01*
X99060000Y-116177000D01*
X99078907Y-116118809D01*
X99128407Y-116082845D01*
X99159000Y-116078000D01*
X101120000Y-116078000D01*
X101178191Y-116096907D01*
G37*
%TD.AperFunction*%
%TD*%
%TA.AperFunction,Conductor*%
%TO.N,/U*%
G36*
X114020646Y-127688062D02*
G01*
X114053951Y-127695307D01*
X114208382Y-127706352D01*
X114293398Y-127712433D01*
X114294423Y-127712529D01*
X114299282Y-127713655D01*
X114300000Y-127713656D01*
X114305452Y-127712412D01*
X114305455Y-127712412D01*
X114311734Y-127710980D01*
X114333752Y-127708500D01*
X114773983Y-127708500D01*
X114796169Y-127711018D01*
X114807641Y-127713656D01*
X114818517Y-127711195D01*
X114829660Y-127711215D01*
X114829659Y-127711705D01*
X114839606Y-127710988D01*
X115007272Y-127724183D01*
X115022616Y-127726613D01*
X115116013Y-127749036D01*
X115209413Y-127771459D01*
X115224180Y-127776258D01*
X115323340Y-127817331D01*
X115401661Y-127849773D01*
X115415502Y-127856826D01*
X115579290Y-127957195D01*
X115591858Y-127966326D01*
X115737931Y-128091084D01*
X115748916Y-128102069D01*
X115873674Y-128248142D01*
X115882805Y-128260710D01*
X115983174Y-128424498D01*
X115990227Y-128438339D01*
X116063741Y-128615816D01*
X116068542Y-128630591D01*
X116100665Y-128764392D01*
X116103400Y-128787503D01*
X116103400Y-130292497D01*
X116100665Y-130315608D01*
X116068542Y-130449409D01*
X116063741Y-130464184D01*
X115990227Y-130641661D01*
X115983174Y-130655502D01*
X115882805Y-130819290D01*
X115873674Y-130831858D01*
X115748916Y-130977931D01*
X115737931Y-130988916D01*
X115591858Y-131113674D01*
X115579290Y-131122805D01*
X115415502Y-131223174D01*
X115401661Y-131230227D01*
X115323340Y-131262669D01*
X115224180Y-131303742D01*
X115209413Y-131308541D01*
X115116013Y-131330964D01*
X115022616Y-131353387D01*
X115007272Y-131355817D01*
X114840117Y-131368972D01*
X114830372Y-131368253D01*
X114830371Y-131368862D01*
X114819224Y-131368842D01*
X114808359Y-131366344D01*
X114796359Y-131369059D01*
X114774512Y-131371500D01*
X114334281Y-131371500D01*
X114311926Y-131368943D01*
X114308949Y-131368253D01*
X114300718Y-131366345D01*
X114300000Y-131366344D01*
X114295221Y-131367434D01*
X114295114Y-131367444D01*
X114171232Y-131376305D01*
X114053951Y-131384693D01*
X113812911Y-131437128D01*
X113808539Y-131438759D01*
X113807796Y-131438893D01*
X113806212Y-131439358D01*
X113806162Y-131439188D01*
X113773945Y-131445000D01*
X106144000Y-131445000D01*
X106085809Y-131426093D01*
X106049845Y-131376593D01*
X106045000Y-131346000D01*
X106045000Y-127784800D01*
X106063907Y-127726609D01*
X106113407Y-127690645D01*
X106144000Y-127685800D01*
X113999602Y-127685800D01*
X114020646Y-127688062D01*
G37*
%TD.AperFunction*%
%TD*%
%TA.AperFunction,Conductor*%
%TO.N,GND*%
G36*
X103845191Y-110047407D02*
G01*
X103881155Y-110096907D01*
X103886000Y-110127500D01*
X103886000Y-112169000D01*
X103867093Y-112227191D01*
X103817593Y-112263155D01*
X103787000Y-112268000D01*
X79982000Y-112268000D01*
X79923809Y-112249093D01*
X79887845Y-112199593D01*
X79883000Y-112169000D01*
X79883000Y-110167128D01*
X79901907Y-110108937D01*
X79951407Y-110072973D01*
X79958885Y-110070864D01*
X79989242Y-110063576D01*
X80065027Y-110045382D01*
X80080371Y-110042952D01*
X80233269Y-110030919D01*
X80248109Y-110031632D01*
X80255470Y-110031632D01*
X80264000Y-110033136D01*
X80281764Y-110030004D01*
X80298953Y-110028500D01*
X103787000Y-110028500D01*
X103845191Y-110047407D01*
G37*
%TD.AperFunction*%
%TD*%
%TA.AperFunction,Conductor*%
%TO.N,/V*%
G36*
X114020646Y-120576062D02*
G01*
X114053951Y-120583307D01*
X114208382Y-120594352D01*
X114293398Y-120600433D01*
X114294423Y-120600529D01*
X114299282Y-120601655D01*
X114300000Y-120601656D01*
X114305452Y-120600412D01*
X114305455Y-120600412D01*
X114311734Y-120598980D01*
X114333752Y-120596500D01*
X114773983Y-120596500D01*
X114796169Y-120599018D01*
X114807641Y-120601656D01*
X114818517Y-120599195D01*
X114829660Y-120599215D01*
X114829659Y-120599705D01*
X114839606Y-120598988D01*
X115007272Y-120612183D01*
X115022616Y-120614613D01*
X115116013Y-120637036D01*
X115209413Y-120659459D01*
X115224180Y-120664258D01*
X115323340Y-120705331D01*
X115401661Y-120737773D01*
X115415502Y-120744826D01*
X115579290Y-120845195D01*
X115591858Y-120854326D01*
X115737931Y-120979084D01*
X115748916Y-120990069D01*
X115873674Y-121136142D01*
X115882805Y-121148710D01*
X115983174Y-121312498D01*
X115990227Y-121326339D01*
X116063741Y-121503816D01*
X116068542Y-121518591D01*
X116100665Y-121652392D01*
X116103400Y-121675503D01*
X116103400Y-123180497D01*
X116100665Y-123203608D01*
X116068542Y-123337409D01*
X116063741Y-123352184D01*
X115990227Y-123529661D01*
X115983174Y-123543502D01*
X115882805Y-123707290D01*
X115873674Y-123719858D01*
X115748916Y-123865931D01*
X115737931Y-123876916D01*
X115591858Y-124001674D01*
X115579290Y-124010805D01*
X115415502Y-124111174D01*
X115401661Y-124118227D01*
X115323340Y-124150669D01*
X115224180Y-124191742D01*
X115209413Y-124196541D01*
X115116012Y-124218965D01*
X115022616Y-124241387D01*
X115007272Y-124243817D01*
X114840117Y-124256972D01*
X114830372Y-124256253D01*
X114830371Y-124256862D01*
X114819224Y-124256842D01*
X114808359Y-124254344D01*
X114796359Y-124257059D01*
X114774512Y-124259500D01*
X114334281Y-124259500D01*
X114311926Y-124256943D01*
X114308949Y-124256253D01*
X114300718Y-124254345D01*
X114300000Y-124254344D01*
X114295221Y-124255434D01*
X114295114Y-124255444D01*
X114171232Y-124264305D01*
X114053951Y-124272693D01*
X113812911Y-124325128D01*
X113808539Y-124326759D01*
X113807796Y-124326893D01*
X113806212Y-124327358D01*
X113806162Y-124327188D01*
X113773945Y-124333000D01*
X106144000Y-124333000D01*
X106085809Y-124314093D01*
X106049845Y-124264593D01*
X106045000Y-124234000D01*
X106045000Y-120672800D01*
X106063907Y-120614609D01*
X106113407Y-120578645D01*
X106144000Y-120573800D01*
X113999602Y-120573800D01*
X114020646Y-120576062D01*
G37*
%TD.AperFunction*%
%TD*%
%TA.AperFunction,Conductor*%
%TO.N,/W*%
G36*
X113806162Y-113416812D02*
G01*
X113806212Y-113416642D01*
X113807796Y-113417107D01*
X113808539Y-113417241D01*
X113812911Y-113418872D01*
X114053951Y-113471307D01*
X114208382Y-113482352D01*
X114293398Y-113488433D01*
X114294423Y-113488529D01*
X114299282Y-113489655D01*
X114300000Y-113489656D01*
X114305452Y-113488412D01*
X114305455Y-113488412D01*
X114311734Y-113486980D01*
X114333752Y-113484500D01*
X114773983Y-113484500D01*
X114796169Y-113487018D01*
X114807641Y-113489656D01*
X114818517Y-113487195D01*
X114829660Y-113487215D01*
X114829659Y-113487705D01*
X114839606Y-113486988D01*
X115007272Y-113500183D01*
X115022616Y-113502613D01*
X115116013Y-113525036D01*
X115209413Y-113547459D01*
X115224180Y-113552258D01*
X115323340Y-113593331D01*
X115401661Y-113625773D01*
X115415502Y-113632826D01*
X115579290Y-113733195D01*
X115591858Y-113742326D01*
X115737931Y-113867084D01*
X115748916Y-113878069D01*
X115873674Y-114024142D01*
X115882805Y-114036710D01*
X115983174Y-114200498D01*
X115990227Y-114214339D01*
X116063741Y-114391816D01*
X116068542Y-114406591D01*
X116100665Y-114540392D01*
X116103400Y-114563503D01*
X116103400Y-116068497D01*
X116100665Y-116091608D01*
X116068542Y-116225409D01*
X116063741Y-116240184D01*
X115990227Y-116417661D01*
X115983174Y-116431502D01*
X115882805Y-116595290D01*
X115873674Y-116607858D01*
X115748916Y-116753931D01*
X115737931Y-116764916D01*
X115591858Y-116889674D01*
X115579290Y-116898805D01*
X115415502Y-116999174D01*
X115401661Y-117006227D01*
X115323340Y-117038669D01*
X115224180Y-117079742D01*
X115209413Y-117084541D01*
X115137553Y-117101793D01*
X115022616Y-117129387D01*
X115007272Y-117131817D01*
X114840117Y-117144972D01*
X114830372Y-117144253D01*
X114830371Y-117144862D01*
X114819224Y-117144842D01*
X114808359Y-117142344D01*
X114796359Y-117145059D01*
X114774512Y-117147500D01*
X114334281Y-117147500D01*
X114311926Y-117144943D01*
X114308949Y-117144253D01*
X114300718Y-117142345D01*
X114300000Y-117142344D01*
X114295221Y-117143434D01*
X114295114Y-117143444D01*
X114185378Y-117151293D01*
X114053951Y-117160693D01*
X114050508Y-117161442D01*
X114020646Y-117167938D01*
X113999602Y-117170200D01*
X106144000Y-117170200D01*
X106085809Y-117151293D01*
X106049845Y-117101793D01*
X106045000Y-117071200D01*
X106045000Y-113510000D01*
X106063907Y-113451809D01*
X106113407Y-113415845D01*
X106144000Y-113411000D01*
X113773945Y-113411000D01*
X113806162Y-113416812D01*
G37*
%TD.AperFunction*%
%TD*%
%TA.AperFunction,Conductor*%
%TO.N,VDD*%
G36*
X103845191Y-132606907D02*
G01*
X103881155Y-132656407D01*
X103886000Y-132687000D01*
X103886000Y-134728500D01*
X103867093Y-134786691D01*
X103817593Y-134822655D01*
X103787000Y-134827500D01*
X80298953Y-134827500D01*
X80281764Y-134825996D01*
X80264000Y-134822864D01*
X80255470Y-134824368D01*
X80248109Y-134824368D01*
X80233269Y-134825081D01*
X80080371Y-134813048D01*
X80065027Y-134810618D01*
X79989242Y-134792424D01*
X79958889Y-134785137D01*
X79906720Y-134753168D01*
X79883305Y-134696640D01*
X79883000Y-134688872D01*
X79883000Y-132687000D01*
X79901907Y-132628809D01*
X79951407Y-132592845D01*
X79982000Y-132588000D01*
X103787000Y-132588000D01*
X103845191Y-132606907D01*
G37*
%TD.AperFunction*%
%TD*%
M02*
