M48
; DRILL file {KiCad (6.0.5)} date Sun Jan 29 08:36:06 2023
; FORMAT={-:-/ absolute / inch / decimal}
; #@! TF.CreationDate,2023-01-29T08:36:06+08:00
; #@! TF.GenerationSoftware,Kicad,Pcbnew,(6.0.5)
; #@! TF.FileFunction,Plated,1,4,PTH
FMAT,2
INCH
; #@! TA.AperFunction,Plated,PTH,ViaDrill
T1C0.0098
; #@! TA.AperFunction,Plated,PTH,ViaDrill
T2C0.0118
; #@! TA.AperFunction,Plated,PTH,ViaDrill
T3C0.0157
; #@! TA.AperFunction,Plated,PTH,ViaDrill
T4C0.0236
%
G90
G05
T1
X3.275Y-4.953
X3.3Y-5.14
X3.355Y-4.745
X3.36Y-4.715
X3.37Y-5.14
X3.425Y-4.805
X3.425Y-4.835
X3.455Y-4.805
X3.455Y-4.835
X3.57Y-4.7826
X3.575Y-4.875
X3.575Y-4.915
X3.575Y-5.01
X3.59Y-5.13
X3.61Y-4.575
X3.645Y-5.035
X3.684Y-5.039
X3.859Y-5.071
X3.875Y-5.052
X3.915Y-4.585
X3.915Y-4.67
X3.915Y-4.695
X3.915Y-4.72
X3.915Y-4.825
X3.915Y-4.85
X3.915Y-4.875
X3.915Y-5.065
X3.915Y-5.2
X3.94Y-4.585
X3.94Y-4.67
X3.94Y-4.695
X3.94Y-4.72
X3.94Y-4.825
X3.94Y-4.85
X3.94Y-4.875
X3.94Y-5.065
X3.94Y-5.2
X3.965Y-4.585
X3.965Y-4.67
X3.965Y-4.695
X3.965Y-4.72
X3.965Y-4.825
X3.965Y-4.85
X3.965Y-5.065
X3.965Y-5.2
T2
X3.143Y-4.534
X3.152Y-4.572
X3.155Y-4.612
X3.159Y-4.648
X3.16Y-4.345
X3.16Y-4.375
X3.16Y-4.405
X3.16Y-5.235
X3.16Y-5.265
X3.16Y-5.295
X3.186Y-4.568
X3.188Y-4.847
X3.19Y-4.345
X3.19Y-4.375
X3.19Y-4.405
X3.19Y-5.235
X3.19Y-5.265
X3.19Y-5.295
X3.195Y-4.652
X3.22Y-4.345
X3.22Y-4.375
X3.22Y-4.405
X3.22Y-5.235
X3.22Y-5.265
X3.22Y-5.295
X3.224Y-4.568
X3.229Y-4.852
X3.23Y-4.648
X3.245Y-4.884
X3.247Y-4.79
X3.248Y-4.827
X3.248Y-5.073
X3.25Y-4.345
X3.25Y-4.375
X3.25Y-4.405
X3.25Y-5.235
X3.25Y-5.265
X3.25Y-5.295
X3.257Y-4.57
X3.267Y-4.854
X3.276Y-4.81
X3.279Y-4.771
X3.28Y-4.345
X3.28Y-4.375
X3.28Y-4.405
X3.28Y-5.235
X3.28Y-5.265
X3.28Y-5.295
X3.299Y-4.917
X3.308Y-5.075
X3.31Y-4.345
X3.31Y-4.375
X3.31Y-4.405
X3.31Y-5.235
X3.31Y-5.265
X3.31Y-5.295
X3.33Y-4.894
X3.332Y-4.926
X3.34Y-4.345
X3.34Y-4.375
X3.34Y-4.405
X3.34Y-5.235
X3.34Y-5.265
X3.34Y-5.295
X3.367Y-4.894
X3.368Y-4.926
X3.37Y-4.345
X3.37Y-4.375
X3.37Y-4.405
X3.37Y-5.076
X3.37Y-5.235
X3.37Y-5.265
X3.37Y-5.295
X3.4Y-4.345
X3.4Y-4.375
X3.4Y-4.405
X3.4Y-5.235
X3.4Y-5.265
X3.4Y-5.295
X3.43Y-4.345
X3.43Y-4.375
X3.43Y-4.405
X3.43Y-5.235
X3.43Y-5.265
X3.43Y-5.295
X3.46Y-4.345
X3.46Y-4.375
X3.46Y-4.405
X3.46Y-5.235
X3.46Y-5.265
X3.46Y-5.295
X3.461Y-4.492
X3.463Y-4.53
X3.466Y-4.566
X3.466Y-4.605
X3.467Y-4.635
X3.489Y-4.469
X3.49Y-4.345
X3.49Y-4.375
X3.49Y-4.405
X3.49Y-5.235
X3.49Y-5.265
X3.49Y-5.295
X3.499Y-4.571
X3.5Y-4.539
X3.5Y-4.603
X3.503Y-4.638
X3.507Y-4.898
X3.516Y-5.125
X3.517Y-5.074
X3.52Y-4.345
X3.52Y-4.375
X3.52Y-4.405
X3.52Y-5.235
X3.52Y-5.265
X3.52Y-5.295
X3.53Y-4.921
X3.55Y-4.345
X3.55Y-4.375
X3.55Y-4.405
X3.55Y-5.235
X3.55Y-5.265
X3.55Y-5.295
X3.58Y-4.345
X3.58Y-4.375
X3.58Y-4.405
X3.58Y-5.094
X3.58Y-5.235
X3.58Y-5.265
X3.58Y-5.295
X3.606Y-4.621
X3.61Y-4.345
X3.61Y-4.375
X3.61Y-4.405
X3.61Y-5.235
X3.61Y-5.265
X3.61Y-5.295
X3.634Y-4.608
X3.64Y-4.345
X3.64Y-4.375
X3.64Y-4.405
X3.64Y-5.235
X3.64Y-5.265
X3.64Y-5.295
X3.653Y-4.551
X3.663Y-4.506
X3.67Y-4.345
X3.67Y-4.375
X3.67Y-4.405
X3.67Y-5.235
X3.67Y-5.265
X3.67Y-5.295
X3.674Y-4.77
X3.681Y-4.803
X3.683Y-4.54
X3.7Y-4.345
X3.7Y-4.375
X3.7Y-4.405
X3.7Y-4.507
X3.7Y-5.235
X3.7Y-5.265
X3.7Y-5.295
X3.715Y-4.803
X3.718Y-5.021
X3.722Y-4.767
X3.723Y-4.539
X3.73Y-4.345
X3.73Y-4.375
X3.73Y-4.405
X3.73Y-5.235
X3.73Y-5.265
X3.73Y-5.295
X3.733Y-4.508
X3.747Y-4.566
X3.755Y-5.155
X3.759Y-4.764
X3.76Y-4.345
X3.76Y-4.375
X3.76Y-4.405
X3.76Y-5.235
X3.76Y-5.265
X3.76Y-5.295
X3.765Y-4.503
X3.767Y-5.074
X3.79Y-4.345
X3.79Y-4.375
X3.79Y-4.405
X3.79Y-5.235
X3.79Y-5.265
X3.79Y-5.295
X3.792Y-4.762
X3.796Y-4.503
X3.8Y-5.032
X3.82Y-4.345
X3.82Y-4.375
X3.82Y-4.405
X3.82Y-5.235
X3.82Y-5.265
X3.82Y-5.295
X3.833Y-4.685
X3.836Y-4.719
X3.85Y-4.345
X3.85Y-4.375
X3.85Y-4.405
X3.85Y-5.235
X3.85Y-5.265
X3.85Y-5.295
X3.871Y-4.699
X3.88Y-4.345
X3.88Y-4.375
X3.88Y-4.405
X3.88Y-5.235
X3.88Y-5.265
X3.88Y-5.295
X3.91Y-4.345
X3.91Y-4.375
X3.91Y-4.405
X3.91Y-5.235
X3.91Y-5.265
X3.91Y-5.295
X3.94Y-4.345
X3.94Y-4.375
X3.94Y-4.405
X3.94Y-5.235
X3.94Y-5.265
X3.94Y-5.295
X3.97Y-4.345
X3.97Y-4.375
X3.97Y-4.405
X3.97Y-5.235
X3.97Y-5.265
X3.97Y-5.295
X4.19Y-4.45
X4.19Y-4.48
X4.19Y-4.51
X4.19Y-4.54
X4.19Y-4.57
X4.19Y-4.6
X4.19Y-4.63
X4.19Y-4.73
X4.19Y-4.76
X4.19Y-4.79
X4.19Y-4.82
X4.19Y-4.85
X4.19Y-4.88
X4.19Y-4.91
X4.19Y-5.01
X4.19Y-5.04
X4.19Y-5.07
X4.19Y-5.1
X4.19Y-5.13
X4.19Y-5.16
X4.19Y-5.19
X4.22Y-4.45
X4.22Y-4.48
X4.22Y-4.51
X4.22Y-4.54
X4.22Y-4.57
X4.22Y-4.6
X4.22Y-4.63
X4.22Y-4.73
X4.22Y-4.76
X4.22Y-4.79
X4.22Y-4.82
X4.22Y-4.85
X4.22Y-4.88
X4.22Y-4.91
X4.22Y-5.01
X4.22Y-5.04
X4.22Y-5.07
X4.22Y-5.1
X4.22Y-5.13
X4.22Y-5.16
X4.22Y-5.19
X4.25Y-4.45
X4.25Y-4.48
X4.25Y-4.51
X4.25Y-4.54
X4.25Y-4.57
X4.25Y-4.6
X4.25Y-4.63
X4.25Y-4.73
X4.25Y-4.76
X4.25Y-4.79
X4.25Y-4.82
X4.25Y-4.85
X4.25Y-4.88
X4.25Y-4.91
X4.25Y-5.01
X4.25Y-5.04
X4.25Y-5.07
X4.25Y-5.1
X4.25Y-5.13
X4.25Y-5.16
X4.25Y-5.19
X4.28Y-4.45
X4.28Y-4.48
X4.28Y-4.51
X4.28Y-4.54
X4.28Y-4.57
X4.28Y-4.6
X4.28Y-4.63
X4.28Y-4.73
X4.28Y-4.76
X4.28Y-4.79
X4.28Y-4.82
X4.28Y-4.85
X4.28Y-4.88
X4.28Y-4.91
X4.28Y-5.01
X4.28Y-5.04
X4.28Y-5.07
X4.28Y-5.1
X4.28Y-5.13
X4.28Y-5.16
X4.28Y-5.19
X4.31Y-4.45
X4.31Y-4.48
X4.31Y-4.51
X4.31Y-4.54
X4.31Y-4.57
X4.31Y-4.6
X4.31Y-4.63
X4.31Y-4.73
X4.31Y-4.76
X4.31Y-4.79
X4.31Y-4.82
X4.31Y-4.85
X4.31Y-4.88
X4.31Y-4.91
X4.31Y-5.01
X4.31Y-5.04
X4.31Y-5.07
X4.31Y-5.1
X4.31Y-5.13
X4.31Y-5.16
X4.31Y-5.19
X4.34Y-4.45
X4.34Y-4.48
X4.34Y-4.51
X4.34Y-4.54
X4.34Y-4.57
X4.34Y-4.6
X4.34Y-4.63
X4.34Y-4.73
X4.34Y-4.76
X4.34Y-4.79
X4.34Y-4.82
X4.34Y-4.85
X4.34Y-4.88
X4.34Y-4.91
X4.34Y-5.01
X4.34Y-5.04
X4.34Y-5.07
X4.34Y-5.1
X4.34Y-5.13
X4.34Y-5.16
X4.34Y-5.19
X4.37Y-4.45
X4.37Y-4.48
X4.37Y-4.51
X4.37Y-4.54
X4.37Y-4.57
X4.37Y-4.6
X4.37Y-4.63
X4.37Y-4.73
X4.37Y-4.76
X4.37Y-4.79
X4.37Y-4.82
X4.37Y-4.85
X4.37Y-4.88
X4.37Y-4.91
X4.37Y-5.01
X4.37Y-5.04
X4.37Y-5.07
X4.37Y-5.1
X4.37Y-5.13
X4.37Y-5.16
X4.37Y-5.19
X4.4Y-4.45
X4.4Y-4.48
X4.4Y-4.51
X4.4Y-4.54
X4.4Y-4.57
X4.4Y-4.6
X4.4Y-4.63
X4.4Y-4.73
X4.4Y-4.76
X4.4Y-4.79
X4.4Y-4.82
X4.4Y-4.85
X4.4Y-4.88
X4.4Y-4.91
X4.4Y-5.01
X4.4Y-5.04
X4.4Y-5.07
X4.4Y-5.1
X4.4Y-5.13
X4.4Y-5.16
X4.4Y-5.19
X4.435Y-4.48
X4.435Y-4.51
X4.435Y-4.54
X4.435Y-4.57
X4.435Y-4.6
X4.435Y-4.76
X4.435Y-4.79
X4.435Y-4.82
X4.435Y-4.85
X4.435Y-4.88
X4.435Y-5.04
X4.435Y-5.07
X4.435Y-5.1
X4.435Y-5.13
X4.435Y-5.16
X4.465Y-4.48
X4.465Y-4.51
X4.465Y-4.54
X4.465Y-4.57
X4.465Y-4.6
X4.465Y-4.76
X4.465Y-4.79
X4.465Y-4.82
X4.465Y-4.85
X4.465Y-4.88
X4.465Y-5.04
X4.465Y-5.07
X4.465Y-5.1
X4.465Y-5.13
X4.465Y-5.16
X4.495Y-4.48
X4.495Y-4.51
X4.495Y-4.54
X4.495Y-4.57
X4.495Y-4.6
X4.495Y-4.76
X4.495Y-4.79
X4.495Y-4.82
X4.495Y-4.85
X4.495Y-4.88
X4.495Y-5.04
X4.495Y-5.07
X4.495Y-5.1
X4.495Y-5.13
X4.495Y-5.16
X4.525Y-4.48
X4.525Y-4.51
X4.525Y-4.54
X4.525Y-4.57
X4.525Y-4.6
X4.525Y-4.76
X4.525Y-4.79
X4.525Y-4.82
X4.525Y-4.85
X4.525Y-4.88
X4.525Y-5.04
X4.525Y-5.07
X4.525Y-5.1
X4.525Y-5.13
X4.525Y-5.16
T3
X3.354Y-4.479
X3.76Y-4.66
X3.76Y-4.92
X3.855Y-4.79
X3.86Y-4.99
X4.02Y-5.065
X4.04Y-4.78
T4
X3.196Y-4.897
X3.38Y-4.56
T0
M30
